<svg width="20" height="20" viewBox="0 0 20 20" fill="none" xmlns="http://www.w3.org/2000/svg">
<path d="M16.7972 7.51296C17.0805 7.21077 17.0651 6.73614 16.763 6.45285C16.4608 6.16955 15.9861 6.18486 15.7028 6.48704L16.7972 7.51296ZM10.625 13L10.0778 13.513C10.2196 13.6642 10.4177 13.75 10.625 13.75C10.8323 13.75 11.0304 13.6642 11.1722 13.513L10.625 13ZM5.54715 6.48704C5.26385 6.18486 4.78923 6.16955 4.48704 6.45285C4.18486 6.73614 4.16955 7.21077 4.45285 7.51296L5.54715 6.48704ZM15.7028 6.48704L10.0778 12.487L11.1722 13.513L16.7972 7.51296L15.7028 6.48704ZM11.1722 12.487L5.54715 6.48704L4.45285 7.51296L10.0778 13.513L11.1722 12.487Z" fill="#0D273A"/>
</svg>
