<svg width="20" height="20" viewBox="0 0 20 20" fill="none" xmlns="http://www.w3.org/2000/svg">
<path d="M14.487 18.2473C14.7892 18.5306 15.2639 18.5153 15.5472 18.2132C15.8305 17.911 15.8151 17.4363 15.513 17.153L14.487 18.2473ZM7 10.2002L6.48704 9.65304C6.33581 9.79483 6.25 9.99289 6.25 10.2002C6.25 10.4075 6.33581 10.6056 6.48704 10.7473L7 10.2002ZM15.513 3.24735C15.8151 2.96405 15.8305 2.48942 15.5472 2.18724C15.2639 1.88506 14.7892 1.86974 14.487 2.15304L15.513 3.24735ZM15.513 17.153L7.51296 9.65304L6.48704 10.7473L14.487 18.2473L15.513 17.153ZM7.51296 10.7473L15.513 3.24735L14.487 2.15304L6.48704 9.65304L7.51296 10.7473Z" fill="#0D273A"/>
</svg>
