<svg width="11" height="15" viewBox="0 0 11 15" fill="none" xmlns="http://www.w3.org/2000/svg">
<path fill-rule="evenodd" clip-rule="evenodd" d="M0 1.04167C0 0.466667 0.466667 3.2005e-09 1.04167 3.2005e-09H5.20833C5.93287 -2.91279e-05 6.64353 0.198807 7.26285 0.574841C7.88217 0.950875 8.3864 1.48968 8.7206 2.13254C9.05479 2.77541 9.20613 3.49767 9.15812 4.22062C9.11012 4.94357 8.8646 5.63947 8.44833 6.2325C9.30441 6.63688 9.99725 7.32076 10.4127 8.17151C10.8282 9.02225 10.9416 9.98914 10.7341 10.9129C10.5267 11.8367 10.0108 12.6623 9.27149 13.2537C8.53216 13.8451 7.61345 14.1671 6.66667 14.1667H1.04167C0.466667 14.1667 0 13.7 0 13.125V1.04167ZM2.08333 7.91667V12.0833H6.66667C7.2192 12.0833 7.7491 11.8638 8.1398 11.4731C8.53051 11.0824 8.75 10.5525 8.75 10C8.75 9.44747 8.53051 8.91756 8.1398 8.52686C7.7491 8.13616 7.2192 7.91667 6.66667 7.91667H2.08333ZM2.08333 5.83333H5.20917C5.70645 5.83322 6.18332 5.63557 6.53487 5.28386C6.88642 4.93216 7.08386 4.4552 7.08375 3.95792C7.08364 3.46064 6.88599 2.98377 6.53428 2.63221C6.18257 2.28066 5.70561 2.08322 5.20833 2.08333H2.08333V5.83333Z" fill="#0C2739"/>
</svg>
