<svg width="20" height="20" viewBox="0 0 20 20" fill="none" xmlns="http://www.w3.org/2000/svg">
<path fill-rule="evenodd" clip-rule="evenodd" d="M8.76139 14.4629C8.58689 14.4629 8.45229 14.5346 8.3359 14.6219L5.77823 16.7608C5.77283 16.7653 5.76862 16.7665 5.76542 16.7668C5.76153 16.7672 5.75663 16.7666 5.75161 16.7642C5.74659 16.7619 5.74296 16.7586 5.74079 16.7553C5.739 16.7526 5.7372 16.7486 5.7372 16.7416V15.129C5.7372 14.7623 5.43778 14.4629 5.07107 14.4629H4.03881C3.27004 14.4629 2.64042 13.8333 2.64042 13.0645V5.06449C2.64042 4.29572 3.27004 3.6661 4.03881 3.6661H15.9098C16.6785 3.6661 17.3082 4.29572 17.3082 5.06449V13.0645C17.3082 13.8366 16.7011 14.4629 15.9356 14.4629H8.76139ZM15.9356 2.84998H4.06461C2.84629 2.84998 1.8501 3.84617 1.8501 5.06449V13.0645C1.8501 14.2828 2.84629 15.279 4.06461 15.279H4.94687V17.8488C4.94687 18.1254 5.27038 18.2755 5.48165 18.097L8.81628 15.279H15.9356C17.1539 15.279 18.1501 14.2828 18.1501 13.0645V5.06449C18.1501 3.84617 17.1539 2.84998 15.9356 2.84998ZM8.76136 15.129H8.76129L5.38473 17.9825C5.36297 18.0009 5.339 18.0128 5.31446 18.019C5.33903 18.0128 5.36304 18.0009 5.38483 17.9824L8.76136 15.129ZM3.56564 3.06134C3.72556 3.02127 3.89272 2.99998 4.06461 2.99998H15.9356C17.0711 2.99998 18.0001 3.92901 18.0001 5.06449V13.0645C18.0001 14.0259 17.3341 14.8393 16.4406 15.0661C17.334 14.8393 18 14.0259 18 13.0645V5.06452C18 3.92903 17.071 3 15.9355 3H4.06452C3.89266 3 3.72553 3.02128 3.56564 3.06134ZM8.66905 14.6222C8.69846 14.6161 8.72907 14.6129 8.76129 14.6129H15.9355C16.0669 14.6129 16.194 14.5963 16.315 14.5651C16.194 14.5963 16.067 14.6129 15.9356 14.6129H8.76139C8.72913 14.6129 8.69849 14.6161 8.66905 14.6222ZM5.8041 16.912C5.7005 16.9376 5.5872 16.8617 5.5872 16.7416V15.129C5.5872 14.8451 5.35494 14.6129 5.07107 14.6129H4.03881C3.18719 14.6129 2.49042 13.9161 2.49042 13.0645V5.06449C2.49042 4.34097 2.99335 3.72921 3.66688 3.56155C2.9933 3.72918 2.49032 4.34096 2.49032 5.06452V13.0645C2.49032 13.9161 3.1871 14.6129 4.03871 14.6129H5.07097C5.35484 14.6129 5.5871 14.8452 5.5871 15.129V16.7416C5.5871 16.8617 5.70047 16.9377 5.8041 16.912Z" fill="#0C2739"/>
</svg>
