<svg width="20" height="20" viewBox="0 0 20 20" fill="none" xmlns="http://www.w3.org/2000/svg">
<path d="M9.13268 9.93343L9.20339 10.0041L9.13268 10.0749L2.27484 16.9327C2.06347 17.1522 2.06365 17.4997 2.27541 17.719C2.49249 17.9438 2.85055 17.9502 3.07557 17.7335L9.93347 10.8756L10.0042 10.8049L10.0749 10.8756L16.9334 17.7341C16.9334 17.7341 16.9334 17.7341 16.9334 17.7341C17.1546 17.9552 17.5131 17.9552 17.7342 17.7341C17.9553 17.513 17.9553 17.1545 17.7342 16.9334C17.7342 16.9334 17.7342 16.9334 17.7342 16.9334L10.8757 10.0749L10.8049 10.0041L10.8757 9.93343L17.7335 3.07555C17.9449 2.85604 17.9447 2.50854 17.733 2.28927L17.733 2.28926C17.5159 2.06448 17.1578 2.05805 16.9328 2.27475L10.0749 9.13268L10.0042 9.20339L9.93347 9.13268L3.07491 2.27415L3.0749 2.27416L3.07366 2.27287C3.06909 2.26815 3.06447 2.26352 3.05979 2.25901L3.05975 2.25897C2.83477 2.04168 2.47626 2.04792 2.25897 2.27291C2.04168 2.49789 2.04792 2.8564 2.27291 3.07369L2.27292 3.07368L2.27415 3.07491L9.13268 9.93343Z" fill="#0D273A" stroke="#0D273A" stroke-width="0.2"/>
</svg>
