<svg width="20" height="20" viewBox="0 0 20 20" fill="none" xmlns="http://www.w3.org/2000/svg">
<path fill-rule="evenodd" clip-rule="evenodd" d="M14.472 2.58547C15.1723 1.88517 16.3077 1.88517 17.008 2.58547L17.4756 3.05306C18.1748 3.75383 18.1748 4.88826 17.4756 5.58903L10.3666 12.6984C10.3179 12.7471 10.2575 12.7823 10.1912 12.8006L6.81604 13.7357C6.67766 13.774 6.52947 13.7349 6.42783 13.6334C6.32634 13.5318 6.28727 13.3836 6.32572 13.2452L7.26059 9.87008C7.27896 9.80377 7.31414 9.74337 7.36286 9.69465L14.472 2.58547ZM14.6129 3.57156L7.99985 10.4001L7.28176 12.7796L10.1074 11.8301L16.4895 5.44816L16.9121 5.02555C17.3005 4.63626 17.3005 4.006 16.9121 3.61654L16.4444 3.14895C16.0554 2.75996 15.4247 2.75996 15.0357 3.14895L14.6129 3.57156ZM16.3689 12.4494C16.3689 12.2293 16.5473 12.0509 16.7674 12.0509C16.9875 12.0509 17.1659 12.2293 17.1659 12.4494V15.9877C17.1646 17.0875 16.2733 17.9788 15.1734 17.9801H3.99241C2.89254 17.9788 2.00125 17.0875 2 15.9877V5.60344C2.00125 4.50356 2.89254 3.61227 3.99241 3.61102H7.53051C7.75061 3.61102 7.92899 3.78956 7.92899 4.00951C7.92899 4.22961 7.75061 4.40799 7.53051 4.40799H3.99241C3.33243 4.40877 2.79774 4.94361 2.79697 5.60344V15.9875C2.79774 16.6475 3.33243 17.1823 3.99241 17.1829H15.1734C15.8334 17.1823 16.3681 16.6475 16.3689 15.9875V12.4494Z" fill="#0C2739"/>
</svg>
