<svg width="20" height="20" viewBox="0 0 20 20" fill="none" xmlns="http://www.w3.org/2000/svg">
<path fill-rule="evenodd" clip-rule="evenodd" d="M17.008 2.58529C16.3077 1.88498 15.1723 1.88498 14.472 2.58529L7.36284 9.69447C7.31412 9.74319 7.27894 9.80359 7.26058 9.8699L6.3257 13.245C6.28725 13.3834 6.32632 13.5316 6.42781 13.6332C6.52945 13.7347 6.67764 13.7738 6.81602 13.7355L10.1911 12.8005C10.2574 12.7821 10.3178 12.7469 10.3666 12.6982L17.4756 5.58885C18.1748 4.88808 18.1748 3.75365 17.4756 3.05288L17.008 2.58529ZM16.3689 12.4494C16.3689 12.2293 16.5473 12.0509 16.7674 12.0509C16.9875 12.0509 17.1659 12.2293 17.1659 12.4494V15.9877C17.1646 17.0876 16.2733 17.9788 15.1734 17.9801H3.99241C2.89254 17.9788 2.00125 17.0876 2 15.9877V5.60346C2.00125 4.50359 2.89254 3.61229 3.99241 3.61105H7.53051C7.75061 3.61105 7.92899 3.78959 7.92899 4.00953C7.92899 4.22963 7.75061 4.40801 7.53051 4.40801H3.99241C3.33243 4.40879 2.79774 4.94363 2.79697 5.60346V15.9875C2.79774 16.6475 3.33243 17.1823 3.99241 17.183H15.1734C15.8334 17.1823 16.3681 16.6475 16.3689 15.9875V12.4494Z" fill="#0C2739"/>
</svg>
