<svg width="20" height="20" viewBox="0 0 20 20" fill="none" xmlns="http://www.w3.org/2000/svg">
<path fill-rule="evenodd" clip-rule="evenodd" d="M12.7902 2H15.7874C16.1183 2 16.3869 2.29867 16.3869 2.66667V6.00002C16.3869 6.36802 16.1183 6.66669 15.7874 6.66669C15.4565 6.66669 15.188 6.36802 15.188 6.00002V4.27601L10.8162 9.13804C10.699 9.26837 10.5459 9.33337 10.3924 9.33337C10.2389 9.33337 10.0858 9.26837 9.96859 9.13804C9.73451 8.8777 9.73451 8.4557 9.96859 8.19537L14.3404 3.33334H12.7902C12.4593 3.33334 12.1907 3.03467 12.1907 2.66667C12.1907 2.29867 12.4593 2 12.7902 2ZM3.1989 15.7243L7.57067 10.8622C7.80446 10.6019 8.1845 10.6019 8.41829 10.8622C8.65237 11.1226 8.65237 11.5446 8.41829 11.8049L4.04652 16.6669H5.59669C5.92758 16.6669 6.19614 16.9656 6.19614 17.3336C6.19614 17.7016 5.92758 18.0003 5.59669 18.0003H2.59945C2.26855 18.0003 2 17.7016 2 17.3336V14.0003C2 13.6323 2.26855 13.3336 2.59945 13.3336C2.93034 13.3336 3.1989 13.6323 3.1989 14.0003V15.7243Z" fill="#0C2739"/>
</svg>
