<svg width="20" height="20" viewBox="0 0 20 20" fill="none" xmlns="http://www.w3.org/2000/svg">
<path fill-rule="evenodd" clip-rule="evenodd" d="M10 17.36C14.0648 17.36 17.36 14.0648 17.36 10C17.36 5.93518 14.0648 2.64 10 2.64C5.93518 2.64 2.64 5.93518 2.64 10C2.64 14.0648 5.93518 17.36 10 17.36ZM10 18C14.4183 18 18 14.4183 18 10C18 5.58172 14.4183 2 10 2C5.58172 2 2 5.58172 2 10C2 14.4183 5.58172 18 10 18ZM13.4136 7.49172L9.77958 9.11113L11.1169 10.7404L13.4136 7.49172ZM14.6086 6.91002C14.7963 6.64443 14.5141 6.30062 14.217 6.43301L9.13566 8.69741C9.04649 8.73715 8.98611 8.81106 8.96017 8.89519C8.87264 8.90426 8.78843 8.94907 8.7321 9.02875L5.52075 13.5713C5.33299 13.8369 5.61521 14.1807 5.9123 14.0483L10.9937 11.7839C11.0828 11.7442 11.1432 11.6703 11.1691 11.5862C11.2567 11.5771 11.3409 11.5323 11.3972 11.4526L14.6086 6.91002ZM10.3497 11.3702L6.71575 12.9896L9.01238 9.74096L10.3497 11.3702Z" fill="#0C2739"/>
</svg>
