<svg width="20" height="20" viewBox="0 0 20 20" fill="none" xmlns="http://www.w3.org/2000/svg">
<path d="M15.2466 6.72868L11.5636 3.04569C11.5024 2.98442 11.4193 2.95 11.3326 2.95H6.14297C5.48511 2.95 4.95 3.48511 4.95 4.14297V15.857C4.95 16.5149 5.48511 17.05 6.14297 17.05H14.1493C14.8072 17.05 15.3423 16.5149 15.3423 15.857V6.95968C15.3423 6.87306 15.3079 6.78993 15.2466 6.72868ZM11.6594 6.09334V4.06544L14.2269 6.63293H12.1989C11.9014 6.63293 11.6594 6.39085 11.6594 6.09334ZM14.6889 15.857C14.6889 16.1545 14.4468 16.3966 14.1493 16.3966H6.14297C5.84549 16.3966 5.60338 16.1545 5.60338 15.857V4.14297C5.60338 3.84549 5.84549 3.60338 6.14297 3.60338H11.0059V6.0934C11.0059 6.75126 11.541 7.28637 12.1989 7.28637H14.6889V15.857Z" fill="#0C2739" stroke="#0C2739" stroke-width="0.1"/>
</svg>
