<svg width="20" height="20" viewBox="0 0 20 20" fill="none" xmlns="http://www.w3.org/2000/svg">
<path fill-rule="evenodd" clip-rule="evenodd" d="M11.6362 2.19713V4.86348C11.6362 5.26694 11.9696 5.59513 12.3795 5.59513H15.0889L11.6362 2.19713ZM14.8389 17.7115C15.2488 17.7115 15.5823 17.3833 15.5823 16.9798V6.28193H12.3795C11.5848 6.28193 10.9383 5.64566 10.9383 4.86355V1.71149H4.74343C4.33351 1.71149 4 2.03972 4 2.44314V16.9798C4 17.3833 4.33351 17.7115 4.74343 17.7115H14.8389ZM7.00011 9.74542H12.5821C12.7748 9.74542 12.931 9.89917 12.931 10.0888C12.931 10.2784 12.7748 10.4321 12.5821 10.4321H7.00011C6.80744 10.4321 6.65122 10.2784 6.65122 10.0888C6.65122 9.89917 6.80744 9.74542 7.00011 9.74542ZM12.5821 11.2793H7.00011C6.80744 11.2793 6.65122 11.433 6.65122 11.6226C6.65122 11.8123 6.80744 11.966 7.00011 11.966H12.5821C12.7748 11.966 12.931 11.8123 12.931 11.6226C12.931 11.433 12.7748 11.2793 12.5821 11.2793ZM7.00011 12.8131H12.5821C12.7748 12.8131 12.931 12.9669 12.931 13.1565C12.931 13.3461 12.7748 13.4999 12.5821 13.4999H7.00011C6.80744 13.4999 6.65122 13.3461 6.65122 13.1565C6.65122 12.9669 6.80744 12.8131 7.00011 12.8131ZM10.768 14.3465H7.00011C6.80744 14.3465 6.65122 14.5002 6.65122 14.6898C6.65122 14.8794 6.80744 15.0332 7.00011 15.0332H10.768C10.9607 15.0332 11.1168 14.8794 11.1168 14.6898C11.1168 14.5002 10.9607 14.3465 10.768 14.3465Z" fill="#0C2739"/>
</svg>
