<svg width="20" height="20" viewBox="0 0 20 20" fill="none" xmlns="http://www.w3.org/2000/svg">
<path d="M16.3616 16H3.67273C3.2826 16 2.90781 15.848 2.62789 15.5762L2.48731 15.4398C2.19763 15.1585 2.03355 14.7724 2.03217 14.3687L2.00224 5.65195C2.00081 5.23611 2.17208 4.83833 2.47515 4.55359L2.63139 4.40679C2.90954 4.14547 3.27683 4 3.65848 4H8.23577C8.52745 4 8.80459 4.12735 8.99457 4.34867L9.98283 5.5H16.3616C16.7517 5.5 17.1265 5.652 17.4064 5.92376L17.5448 6.05812C17.8358 6.3406 18 6.72884 18 7.13436V14.3656C18 14.7712 17.8358 15.1594 17.5448 15.4419L17.4064 15.5762C17.1265 15.848 16.7517 16 16.3616 16Z" stroke="#0C2739" stroke-width="0.8" stroke-linejoin="round"/>
</svg>
