<svg width="20" height="20" viewBox="0 0 20 20" fill="none" xmlns="http://www.w3.org/2000/svg">
<path d="M12.1625 10.0172C12.3494 10.2813 11.9266 10.549 11.7415 10.2849C10.5692 8.61738 9.40438 6.94628 8.21315 5.28956C7.99038 4.97869 7.61659 4.92479 7.29943 5.12784C6.98604 5.32909 6.8992 5.67768 7.11631 5.98675L10.6353 10.9911C10.8203 11.2534 10.3993 11.5229 10.2143 11.2588L7.39193 7.24456C7.16539 6.9337 6.78782 6.86003 6.46311 7.06667C6.14784 7.26613 6.06666 7.61113 6.28376 7.9184L9.12121 11.9542C9.30621 12.2183 8.88522 12.4861 8.70021 12.2219L6.63679 9.28762C6.41969 8.99114 6.05533 8.97496 5.76838 9.16364C5.48898 9.34872 5.39458 9.65598 5.6098 9.9327C6.83124 11.6703 8.48311 14.4069 9.79139 15.9271C10.3993 16.795 12.576 17.9863 13.5935 17.3448L15.3455 16.2272C16.5235 15.4761 16.5952 13.9182 16.4801 12.7035L15.808 7.08105C15.7664 6.73605 15.5512 6.4198 15.1642 6.44136C14.8659 6.45753 14.6564 6.67136 14.6639 6.96066L14.7338 10.6389C14.7376 10.8761 14.411 10.9767 14.2713 10.7772L10.4861 5.37401C10.2652 5.06135 9.89522 5.01104 9.57807 5.21229C9.26091 5.41174 9.17218 5.76214 9.38928 6.073L12.1625 10.0172ZM8.84747 5.3201C8.94186 5.11166 9.09855 4.93916 9.29678 4.81158C9.84425 4.4594 10.5277 4.56901 10.9052 5.10627L14.2127 9.82669L14.158 6.97144C14.1467 6.418 14.5658 5.99034 15.1359 5.95979C15.791 5.92386 16.2384 6.418 16.3101 7.02714L16.9841 12.6604C17.1163 14.0691 16.9822 15.7654 15.6286 16.6279L13.8748 17.7438C12.5911 18.5524 10.1369 17.2855 9.3704 16.1948L5.20013 10.2166C4.81124 9.71169 4.96415 9.10793 5.48331 8.76653C5.67021 8.64434 5.89486 8.56707 6.1233 8.55809L5.86277 8.18613C5.4852 7.64886 5.63057 7.01456 6.18371 6.66597C6.37816 6.54198 6.61225 6.47011 6.84634 6.46831L6.69531 6.25448C6.31774 5.71721 6.47066 5.07932 7.01814 4.72893C7.56939 4.37674 8.24524 4.48275 8.63036 5.01823L8.84747 5.3201Z" fill="#0C2739"/>
<path d="M15.4449 4.11101C14.6097 3.10604 13.579 2.26985 12.422 1.65987C12.2705 1.58001 12.0828 1.63804 12.0028 1.78964C11.923 1.9412 11.981 2.12887 12.1326 2.20883C13.2169 2.78051 14.1837 3.56434 14.9676 4.5076C15.0779 4.64024 15.2737 4.6567 15.4046 4.54792C15.5364 4.43846 15.5544 4.24284 15.4449 4.11101Z" fill="#0C2739"/>
<path d="M13.8632 4.9924C13.2925 4.36006 12.6241 3.81782 11.8865 3.38959C11.7383 3.30364 11.5484 3.35395 11.4623 3.50215C11.3763 3.65033 11.4267 3.84021 11.5749 3.92625C12.2562 4.32177 12.8741 4.82269 13.4024 5.40815C13.4824 5.49673 13.6017 5.52853 13.7099 5.50089C13.9329 5.44392 14.0208 5.16709 13.8632 4.9924Z" fill="#0C2739"/>
<path d="M6.34825 16.2219C5.83137 15.8973 5.34354 15.5195 4.89844 15.0991C4.45318 14.6786 4.04823 14.2132 3.69481 13.7158C3.59557 13.5762 3.40185 13.5434 3.26214 13.6426C3.12251 13.7419 3.08969 13.9356 3.18897 14.0753C3.94596 15.1405 4.91063 16.0519 6.01827 16.7474C6.0861 16.79 6.16394 16.8031 6.23707 16.7902C6.51436 16.7413 6.58963 16.3734 6.34825 16.2219Z" fill="#0C2739"/>
<path d="M7.03388 14.5514C6.38425 14.1055 5.806 13.5594 5.32335 12.9358C5.21855 12.8003 5.02377 12.7755 4.88806 12.8804C4.75258 12.9852 4.72773 13.1801 4.83262 13.3157C5.33485 13.9646 5.95451 14.5633 6.68276 15.063C6.82393 15.1599 7.01711 15.1242 7.11414 14.9828C7.21107 14.8415 7.17516 14.6484 7.03388 14.5514Z" fill="#0C2739"/>
</svg>
