<svg width="20" height="20" viewBox="0 0 20 20" fill="none" xmlns="http://www.w3.org/2000/svg">
<path fill-rule="evenodd" clip-rule="evenodd" d="M12.9795 2C13.0385 4.12737 11.5171 5.60325 9.9975 5.51069C9.74709 3.81297 11.5169 2 12.9795 2ZM3.43823 10.6497C3.43823 13.1253 5.40798 17.9862 7.78926 18H7.80483C8.39682 18 8.91875 17.8052 9.38004 17.633L9.38408 17.6315C9.72236 17.5047 10.0419 17.3852 10.2946 17.3852C10.7931 17.3852 11.0948 17.5134 11.4445 17.6622L11.4446 17.6622C11.7902 17.8091 12.182 17.9757 12.7363 17.9757C15.0018 17.9757 16.5618 13.7785 16.5618 13.583C16.5618 13.2842 16.3342 13.1473 16.1139 13.0147L16.1128 13.014L16.1121 13.0136C15.612 12.7127 14.5724 12.0873 14.5724 10.462C14.5724 9.08934 15.4909 8.39627 15.9945 8.01631L15.9947 8.01616L16.3471 7.75019L16.1022 7.38216C15.0567 5.81203 13.3176 5.68616 12.7441 5.68616H12.7395C11.9714 5.68616 11.3118 5.94844 10.7817 6.15947L10.771 6.1637C10.5251 6.26106 10.2499 6.37003 10.1321 6.37003C9.93251 6.37003 9.57364 6.23819 9.22664 6.11047C8.73042 5.92738 8.16783 5.72047 7.64095 5.72047C6.47183 5.72047 3.43823 6.60578 3.43823 10.6497Z" fill="black"/>
</svg>
