<svg width="20" height="20" viewBox="0 0 20 20" fill="none" xmlns="http://www.w3.org/2000/svg">
<path fill-rule="evenodd" clip-rule="evenodd" d="M17.7364 7.95547C17.005 5.18047 14.8201 2.99544 12.0452 2.2638L11.5891 4.99728C13.2076 5.51264 14.4877 6.79255 15.0031 8.41122L17.7364 7.95547ZM17.8932 8.6896L15.174 9.14296C15.2202 9.42256 15.2502 9.70757 15.2502 10C15.2502 10.2925 15.2202 10.5775 15.174 10.8571L17.8932 11.3106C17.9634 10.8842 18 10.4464 18 10C18 9.55372 17.9635 9.11598 17.8932 8.6896ZM17.7363 12.0448L15.003 11.5889C14.4877 13.2076 13.2076 14.4874 11.589 15.0028L12.0452 17.7362C14.82 17.0046 17.0048 14.8197 17.7363 12.0448ZM11.3109 17.8931L10.8571 15.1739C10.5776 15.2201 10.2926 15.2501 10.0001 15.2501C9.70767 15.2501 9.42273 15.22 9.14316 15.1738L8.68938 17.8932C9.11583 17.9634 9.55365 18 10 18C10.4464 18 10.8844 17.9634 11.3109 17.8931ZM7.95511 17.7363L8.41126 15.0028C6.79268 14.4874 5.51262 13.2076 4.99726 11.5889L2.2637 12.0448C2.99519 14.8197 5.18015 17.0047 7.95511 17.7363ZM2.10684 11.3107L4.82636 10.8571C4.78009 10.5775 4.75004 10.2925 4.75004 10C4.75004 9.70757 4.78013 9.42256 4.82636 9.14296L2.1068 8.68956C2.03654 9.11595 2 9.55371 2 10C2 10.4464 2.03656 10.8842 2.10684 11.3107ZM2.26365 7.95542L4.99726 8.41122C5.51262 6.79255 6.79268 5.51264 8.41126 4.99728L7.9551 2.26373C5.18008 2.99529 2.99509 5.18035 2.26365 7.95542ZM8.68936 2.10684L9.14316 4.82632C9.42273 4.78005 9.70767 4.74999 10.0001 4.74999C10.2926 4.74999 10.5776 4.78005 10.8571 4.82625L11.3109 2.10688C10.8844 2.03657 10.4465 2 10 2C9.55364 2 9.11582 2.03656 8.68936 2.10684ZM14.5002 10C14.5002 12.4815 12.4816 14.5001 10.0001 14.5001C7.51867 14.5001 5.50007 12.4815 5.50007 10C5.50007 7.5186 7.51867 5.50002 10.0001 5.50002C12.4816 5.50002 14.5002 7.5186 14.5002 10Z" fill="#0F1C30"/>
</svg>
