<svg width="20" height="20" viewBox="0 0 20 20" fill="none" xmlns="http://www.w3.org/2000/svg">
<path d="M17.1227 4.30074C16.5601 3.73771 15.7967 3.42149 15.0008 3.42176C14.2051 3.41988 13.4418 3.736 12.8804 4.29977L9.00679 8.17337C8.24039 8.94098 7.94739 10.0622 8.24032 11.1066C8.32609 11.4106 8.64211 11.5876 8.94616 11.5018C9.25022 11.4161 9.42718 11.1001 9.34141 10.796C9.16083 10.1501 9.34201 9.45706 9.81559 8.98221L13.6892 5.10917C14.4134 4.3848 15.5877 4.38467 16.3121 5.10891C17.0364 5.83311 17.0366 7.00743 16.3124 7.7318L12.4388 11.6054C12.1849 11.8596 11.8626 12.0343 11.511 12.1082C11.2017 12.1726 11.0032 12.4755 11.0676 12.7848C11.123 13.0507 11.3577 13.241 11.6294 13.2402C11.6694 13.2402 11.7093 13.236 11.7484 13.2276C12.3165 13.1078 12.8374 12.8252 13.2476 12.4142L17.1212 8.54121C18.2926 7.37064 18.2932 5.47215 17.1227 4.30074Z" fill="#0C2739"/>
<path d="M11.7431 8.90896C11.6573 8.6049 11.3413 8.42794 11.0373 8.51371C10.7332 8.59947 10.5562 8.91549 10.642 9.21955C10.8226 9.86543 10.6414 10.5585 10.1678 11.0333L6.29422 14.907C5.57001 15.6313 4.39569 15.6315 3.67132 14.9072C2.94694 14.183 2.94681 13.0087 3.67101 12.2843L7.54462 8.41015C7.79806 8.15603 8.12008 7.98131 8.47126 7.90734C8.78104 7.84537 8.98194 7.54403 8.91997 7.23428C8.858 6.92453 8.55666 6.7236 8.24691 6.78558C8.24312 6.78635 8.23937 6.78712 8.23561 6.78795C7.66739 6.90791 7.14629 7.19051 6.73582 7.60135L2.86222 11.4749C1.70003 12.6551 1.71457 14.5539 2.89469 15.7161C4.06194 16.8655 5.9356 16.8657 7.10302 15.7163L10.9766 11.8421C11.743 11.0745 12.036 9.95334 11.7431 8.90896Z" fill="#0C2739"/>
</svg>
