<svg width="20" height="20" viewBox="0 0 20 20" fill="none" xmlns="http://www.w3.org/2000/svg">
<path fill-rule="evenodd" clip-rule="evenodd" d="M3.18111 10.2915L5.66142 12.4116C5.74538 12.4834 5.75527 12.6097 5.6835 12.6936L5.5573 12.8413C5.48553 12.9252 5.35928 12.9351 5.27532 12.8633L2.25817 10.2843L2.17379 10.2122C2.08179 10.1336 2.08017 9.99188 2.17034 9.91116L2.25305 9.83712L5.27321 7.13341C5.35551 7.05974 5.48195 7.06673 5.55562 7.14902L5.68517 7.29373C5.75884 7.37603 5.75185 7.50247 5.66956 7.57614L3.30013 9.6973L17.8 9.6973C17.9105 9.6973 18 9.78684 18 9.8973V10.0915C18 10.202 17.9105 10.2915 17.8 10.2915L3.18111 10.2915Z" fill="#0C2739"/>
</svg>
