<svg width="20" height="20" viewBox="0 0 20 20" fill="none" xmlns="http://www.w3.org/2000/svg">
<path fill-rule="evenodd" clip-rule="evenodd" d="M12.3508 4.76509C12.0011 4.984 11.7045 5.27991 11.4852 5.62914C11.266 5.28193 10.97 4.98786 10.6215 4.77017C10.9711 4.55126 11.2678 4.25535 11.4871 3.90612C11.7062 4.25333 12.0023 4.5474 12.3508 4.76509ZM9.17603 5.23932C10.1913 5.23932 11.0174 6.05904 11.0174 7.0665C11.0174 7.3253 11.2272 7.53526 11.4861 7.53526C11.7451 7.53526 11.9549 7.3253 11.9549 7.0665C11.9549 6.05574 12.781 5.23346 13.7962 5.23346C14.0552 5.23346 14.265 5.02349 14.265 4.7647C14.265 4.50578 14.0552 4.29594 13.7962 4.29594C12.781 4.29594 11.9549 3.47622 11.9549 2.46876C11.9549 2.20984 11.7451 2 11.4861 2C11.2272 2 11.0174 2.20984 11.0174 2.46876C11.0174 3.47952 10.1913 4.3018 9.17603 4.3018C8.91712 4.3018 8.70728 4.51164 8.70728 4.77056C8.70728 5.02948 8.91712 5.23932 9.17603 5.23932ZM5.44123 8.51565C5.13 9.08065 4.66072 9.54696 4.09374 9.85645C4.66095 10.1668 5.1301 10.6344 5.44123 11.2006C5.75235 10.6344 6.2215 10.1668 6.78872 9.85645C6.22173 9.54696 5.75246 9.08065 5.44123 8.51565ZM5.90999 6.90186C5.90999 8.27237 7.03318 9.38726 8.41369 9.38726C8.67261 9.38726 8.88245 9.59723 8.88245 9.85602C8.88245 10.1149 8.67261 10.3248 8.41369 10.3248C7.03318 10.3248 5.90999 11.4432 5.90999 12.8179C5.90999 13.0767 5.70014 13.2866 5.44123 13.2866C5.18231 13.2866 4.97247 13.0767 4.97247 12.8179C4.97247 11.4432 3.84928 10.3248 2.46876 10.3248C2.20984 10.3248 2 10.1149 2 9.85602C2 9.59723 2.20984 9.38726 2.46876 9.38726C3.84928 9.38726 4.97247 8.27237 4.97247 6.90186C4.97247 6.64307 5.18231 6.43311 5.44123 6.43311C5.70014 6.43311 5.90999 6.64307 5.90999 6.90186ZM15.0156 12.019C14.3447 11.353 13.9753 10.4659 13.9753 9.52119C13.9753 9.26227 13.7653 9.05243 13.5066 9.05243C13.2476 9.05243 13.0378 9.26227 13.0378 9.52119C13.0378 10.4659 12.6683 11.353 11.9974 12.019C11.3262 12.6854 10.4329 13.0524 9.4817 13.0524C9.22278 13.0524 9.01294 13.2622 9.01294 13.5211C9.01294 13.7801 9.22278 13.9899 9.4817 13.9899C11.4424 13.9899 13.0378 15.5787 13.0378 17.5315C13.0378 17.7904 13.2476 18.0002 13.5066 18.0002C13.7653 18.0002 13.9753 17.7904 13.9753 17.5315C13.9753 15.5787 15.5706 13.9899 17.5313 13.9899C17.7902 13.9899 18 13.7801 18 13.5211C18 13.2622 17.7902 13.0524 17.5313 13.0524C16.5801 13.0524 15.6868 12.6854 15.0156 12.019ZM15.6523 13.5232C15.1903 13.3088 14.7645 13.0138 14.3936 12.6455C14.0214 12.276 13.7231 11.851 13.5065 11.3893C13.2899 11.851 12.9916 12.276 12.6194 12.6455L15.6523 13.5232ZM15.6523 13.5232C14.7101 13.9636 13.9472 14.7246 13.5065 15.6653C13.0659 14.7246 12.3029 13.9636 11.3606 13.5232C11.8226 13.3088 12.2484 13.0138 12.6193 12.6455L15.6523 13.5232Z" fill="#0C2739"/>
</svg>
