<svg width="20" height="19" viewBox="0 0 20 19" fill="none" xmlns="http://www.w3.org/2000/svg">
<path fill-rule="evenodd" clip-rule="evenodd" d="M4.32693 2.41345C2.33552 2.41345 0.721161 4.02781 0.721161 6.01922V13.2308C0.721161 15.2222 2.33552 16.8365 4.32693 16.8365H15.8654C17.8568 16.8365 19.4712 15.2222 19.4712 13.2308V6.01922C19.4712 4.02781 17.8568 2.41345 15.8654 2.41345H4.32693ZM4.32691 3.13461C2.73378 3.13461 1.44229 4.4261 1.44229 6.01923V13.2308C1.44229 14.8239 2.73378 16.1154 4.32691 16.1154H15.8654C17.4585 16.1154 18.75 14.8239 18.75 13.2308V6.01923C18.75 4.4261 17.4585 3.13461 15.8654 3.13461H4.32691ZM5.59207 6.64602H6.93753L7.5978 9.07533L8.33697 6.64602H9.68244V12.6923H8.67749V10.7738L8.73148 8.00809L7.86772 10.7655H7.31957L6.54303 8.11606L6.59701 10.7738V12.6923H5.59207V6.64602ZM15.8019 9.92164C15.8804 9.83648 15.8749 9.70381 15.7898 9.62532C15.7046 9.54684 15.5719 9.55226 15.4935 9.63742L13.5454 11.7514L13.5589 6.62846C13.5592 6.51264 13.4656 6.41851 13.3498 6.4182C13.2339 6.4179 13.1398 6.51154 13.1395 6.62735L13.126 11.7502L11.1892 9.62607C11.1111 9.54049 10.9785 9.53437 10.8929 9.61241C10.8073 9.69044 10.8012 9.82308 10.8793 9.90866L13.1793 12.4312C13.219 12.4746 13.275 12.4994 13.3337 12.4996C13.3925 12.4997 13.4487 12.4752 13.4885 12.432L15.8019 9.92164Z" fill="#0C2739"/>
</svg>
