<svg width="20" height="20" viewBox="0 0 20 20" fill="none" xmlns="http://www.w3.org/2000/svg">
<path fill-rule="evenodd" clip-rule="evenodd" d="M3.637 8.22526V5H3.60377L2.23702 5.49841V6.00125L3.05884 5.7022V8.22526H3.637ZM6.94199 6.04324C6.94199 5.77771 7.15725 5.56246 7.42277 5.56246H17.5192C17.7847 5.56246 18 5.77771 18 6.04324C18 6.30877 17.7847 6.52403 17.5192 6.52403H7.42277C7.15725 6.52403 6.94199 6.30877 6.94199 6.04324ZM6.94199 10.2963C6.94199 10.0308 7.15725 9.81554 7.42277 9.81554H17.5192C17.7847 9.81554 18 10.0308 18 10.2963C18 10.5619 17.7847 10.7771 17.5192 10.7771H7.42277C7.15725 10.7771 6.94199 10.5619 6.94199 10.2963ZM7.42277 14.0686C7.15725 14.0686 6.94199 14.2839 6.94199 14.5494C6.94199 14.8149 7.15725 15.0302 7.42277 15.0302H17.5192C17.7847 15.0302 18 14.8149 18 14.5494C18 14.2839 17.7847 14.0686 17.5192 14.0686H7.42277ZM4.24838 15.3256V15.7863H2.06645V15.392L3.11201 14.2601C3.19618 14.1685 3.26707 14.0858 3.32466 14.012C3.38225 13.9367 3.42877 13.868 3.46421 13.806C3.49966 13.7454 3.52476 13.6886 3.53953 13.6354C3.55577 13.5808 3.5639 13.5276 3.5639 13.4759C3.5639 13.4006 3.55282 13.3341 3.53067 13.2765C3.50999 13.2175 3.47972 13.1665 3.43985 13.1237C3.3985 13.0824 3.34976 13.0506 3.29365 13.0285C3.23753 13.0048 3.17551 12.993 3.10758 12.993C3.01897 12.993 2.94144 13.0056 2.87498 13.0307C2.81001 13.0558 2.75537 13.0912 2.71106 13.137C2.66676 13.1857 2.63279 13.2455 2.60917 13.3164C2.58701 13.3873 2.57594 13.4678 2.57594 13.5579H2C2 13.4161 2.02658 13.2825 2.07975 13.1569C2.13291 13.0299 2.20896 12.9192 2.30791 12.8247C2.4039 12.7287 2.5213 12.6534 2.66011 12.5987C2.79893 12.5441 2.95325 12.5168 3.12308 12.5168C3.28405 12.5168 3.4273 12.5396 3.55282 12.5854C3.67835 12.6312 3.78393 12.6947 3.86959 12.7759C3.95376 12.8586 4.018 12.9576 4.0623 13.0728C4.10661 13.1865 4.12876 13.312 4.12876 13.4493C4.12876 13.5542 4.11178 13.6546 4.07781 13.7506C4.04532 13.8466 3.99954 13.9418 3.94047 14.0363C3.87992 14.1294 3.80756 14.2246 3.72339 14.3221C3.64069 14.4181 3.54987 14.5178 3.45092 14.6211L2.78859 15.3256H4.24838Z" fill="#0C2739"/>
</svg>
