<svg width="20" height="20" viewBox="0 0 20 20" fill="none" xmlns="http://www.w3.org/2000/svg">
<mask id="path-1-inside-1" fill="white">
<path fill-rule="evenodd" clip-rule="evenodd" d="M2.3 18C2.13431 18 2 17.8657 2 17.7V2.3C2 2.13431 2.13431 2 2.3 2H17.7C17.8657 2 18 2.13431 18 2.3V17.7C18 17.8657 17.8657 18 17.7 18H2.3ZM3.3 17C3.13431 17 3 16.8657 3 16.7V5H17V16.7C17 16.8657 16.8657 17 16.7 17H3.3ZM17 4V3.3C17 3.13431 16.8657 3 16.7 3H3.3C3.13431 3 3 3.13431 3 3.3V4H17ZM5 15.2C5 15.3657 5.13431 15.5 5.3 15.5H5.7C5.86569 15.5 6 15.3657 6 15.2V14.8C6 14.6343 5.86569 14.5 5.7 14.5H5.3C5.13431 14.5 5 14.6343 5 14.8V15.2ZM6.3 13.5C6.13431 13.5 6 13.3657 6 13.2V12.8C6 12.6343 6.13431 12.5 6.3 12.5H6.7C6.86569 12.5 7 12.6343 7 12.8V13.2C7 13.3657 6.86569 13.5 6.7 13.5H6.3ZM5 11.2C5 11.3657 5.13431 11.5 5.3 11.5H5.7C5.86569 11.5 6 11.3657 6 11.2V10.8C6 10.6343 5.86569 10.5 5.7 10.5H5.3C5.13431 10.5 5 10.6343 5 10.8V11.2ZM6.3 9.5C6.13431 9.5 6 9.36569 6 9.2V8.8C6 8.63431 6.13431 8.5 6.3 8.5H6.7C6.86569 8.5 7 8.63431 7 8.8V9.2C7 9.36569 6.86569 9.5 6.7 9.5H6.3ZM5 7.2C5 7.36569 5.13431 7.5 5.3 7.5H5.7C5.86569 7.5 6 7.36569 6 7.2V6.8C6 6.63431 5.86569 6.5 5.7 6.5H5.3C5.13431 6.5 5 6.63431 5 6.8V7.2ZM7.3 7.5C7.13431 7.5 7 7.36569 7 7.2V6.8C7 6.63431 7.13431 6.5 7.3 6.5H14.7C14.8657 6.5 15 6.63431 15 6.8V7.2C15 7.36569 14.8657 7.5 14.7 7.5H7.3ZM8 9.2C8 9.36569 8.13431 9.5 8.3 9.5H10.2C10.3657 9.5 10.5 9.36569 10.5 9.2V8.8C10.5 8.63431 10.3657 8.5 10.2 8.5H8.3C8.13431 8.5 8 8.63431 8 8.8V9.2ZM11.8 9.5C11.6343 9.5 11.5 9.36569 11.5 9.2V8.8C11.5 8.63431 11.6343 8.5 11.8 8.5H14.7C14.8657 8.5 15 8.63431 15 8.8V9.2C15 9.36569 14.8657 9.5 14.7 9.5H11.8ZM7 11.2C7 11.3657 7.13431 11.5 7.3 11.5H14.7C14.8657 11.5 15 11.3657 15 11.2V10.8C15 10.6343 14.8657 10.5 14.7 10.5H7.3C7.13431 10.5 7 10.6343 7 10.8V11.2ZM8.3 13.5C8.13431 13.5 8 13.3657 8 13.2V12.8C8 12.6343 8.13431 12.5 8.3 12.5H10.2C10.3657 12.5 10.5 12.6343 10.5 12.8V13.2C10.5 13.3657 10.3657 13.5 10.2 13.5H8.3ZM11.5 13.2C11.5 13.3657 11.6343 13.5 11.8 13.5H14.7C14.8657 13.5 15 13.3657 15 13.2V12.8C15 12.6343 14.8657 12.5 14.7 12.5H11.8C11.6343 12.5 11.5 12.6343 11.5 12.8V13.2ZM7.3 15.5C7.13431 15.5 7 15.3657 7 15.2V14.8C7 14.6343 7.13431 14.5 7.3 14.5H14.7C14.8657 14.5 15 14.6343 15 14.8V15.2C15 15.3657 14.8657 15.5 14.7 15.5H7.3Z"/>
</mask>
<path fill-rule="evenodd" clip-rule="evenodd" d="M2.3 18C2.13431 18 2 17.8657 2 17.7V2.3C2 2.13431 2.13431 2 2.3 2H17.7C17.8657 2 18 2.13431 18 2.3V17.7C18 17.8657 17.8657 18 17.7 18H2.3ZM3.3 17C3.13431 17 3 16.8657 3 16.7V5H17V16.7C17 16.8657 16.8657 17 16.7 17H3.3ZM17 4V3.3C17 3.13431 16.8657 3 16.7 3H3.3C3.13431 3 3 3.13431 3 3.3V4H17ZM5 15.2C5 15.3657 5.13431 15.5 5.3 15.5H5.7C5.86569 15.5 6 15.3657 6 15.2V14.8C6 14.6343 5.86569 14.5 5.7 14.5H5.3C5.13431 14.5 5 14.6343 5 14.8V15.2ZM6.3 13.5C6.13431 13.5 6 13.3657 6 13.2V12.8C6 12.6343 6.13431 12.5 6.3 12.5H6.7C6.86569 12.5 7 12.6343 7 12.8V13.2C7 13.3657 6.86569 13.5 6.7 13.5H6.3ZM5 11.2C5 11.3657 5.13431 11.5 5.3 11.5H5.7C5.86569 11.5 6 11.3657 6 11.2V10.8C6 10.6343 5.86569 10.5 5.7 10.5H5.3C5.13431 10.5 5 10.6343 5 10.8V11.2ZM6.3 9.5C6.13431 9.5 6 9.36569 6 9.2V8.8C6 8.63431 6.13431 8.5 6.3 8.5H6.7C6.86569 8.5 7 8.63431 7 8.8V9.2C7 9.36569 6.86569 9.5 6.7 9.5H6.3ZM5 7.2C5 7.36569 5.13431 7.5 5.3 7.5H5.7C5.86569 7.5 6 7.36569 6 7.2V6.8C6 6.63431 5.86569 6.5 5.7 6.5H5.3C5.13431 6.5 5 6.63431 5 6.8V7.2ZM7.3 7.5C7.13431 7.5 7 7.36569 7 7.2V6.8C7 6.63431 7.13431 6.5 7.3 6.5H14.7C14.8657 6.5 15 6.63431 15 6.8V7.2C15 7.36569 14.8657 7.5 14.7 7.5H7.3ZM8 9.2C8 9.36569 8.13431 9.5 8.3 9.5H10.2C10.3657 9.5 10.5 9.36569 10.5 9.2V8.8C10.5 8.63431 10.3657 8.5 10.2 8.5H8.3C8.13431 8.5 8 8.63431 8 8.8V9.2ZM11.8 9.5C11.6343 9.5 11.5 9.36569 11.5 9.2V8.8C11.5 8.63431 11.6343 8.5 11.8 8.5H14.7C14.8657 8.5 15 8.63431 15 8.8V9.2C15 9.36569 14.8657 9.5 14.7 9.5H11.8ZM7 11.2C7 11.3657 7.13431 11.5 7.3 11.5H14.7C14.8657 11.5 15 11.3657 15 11.2V10.8C15 10.6343 14.8657 10.5 14.7 10.5H7.3C7.13431 10.5 7 10.6343 7 10.8V11.2ZM8.3 13.5C8.13431 13.5 8 13.3657 8 13.2V12.8C8 12.6343 8.13431 12.5 8.3 12.5H10.2C10.3657 12.5 10.5 12.6343 10.5 12.8V13.2C10.5 13.3657 10.3657 13.5 10.2 13.5H8.3ZM11.5 13.2C11.5 13.3657 11.6343 13.5 11.8 13.5H14.7C14.8657 13.5 15 13.3657 15 13.2V12.8C15 12.6343 14.8657 12.5 14.7 12.5H11.8C11.6343 12.5 11.5 12.6343 11.5 12.8V13.2ZM7.3 15.5C7.13431 15.5 7 15.3657 7 15.2V14.8C7 14.6343 7.13431 14.5 7.3 14.5H14.7C14.8657 14.5 15 14.6343 15 14.8V15.2C15 15.3657 14.8657 15.5 14.7 15.5H7.3Z" fill="#0C2739" stroke="white" stroke-width="0.26" mask="url(#path-1-inside-1)"/>
</svg>
