<svg width="20" height="20" viewBox="0 0 20 20" fill="none" xmlns="http://www.w3.org/2000/svg">
<path d="M15.0174 3.61114L15.0174 3.61115L16.3888 4.98199C17.0971 5.69082 17.097 6.83994 16.3889 7.54811L7.54858 16.3884C7.20808 16.7289 6.74664 16.92 6.26522 16.92H3.63145C3.32707 16.92 3.08 16.6729 3.08 16.3686V13.7341C3.08 13.2534 3.2711 12.7919 3.61161 12.4514L12.4519 3.61114C13.1601 2.90295 14.3092 2.90295 15.0174 3.61114ZM14.2376 4.39087L14.2376 4.3908C13.9594 4.11339 13.5098 4.11339 13.2317 4.3908L13.2316 4.39087L12.0451 5.57736L11.9886 5.63393L12.0451 5.6905L14.3095 7.95487L14.3661 8.01144L14.4226 7.95487L15.6091 6.76838L15.6092 6.76831C15.8866 6.49019 15.8866 6.04057 15.6092 5.76245L15.6091 5.76237L14.2376 4.39087ZM13.5298 8.84774L13.5863 8.79117L13.5298 8.7346L11.2654 6.47023L11.2088 6.41366L11.1523 6.47023L4.39134 13.2311C4.25762 13.3649 4.1829 13.5456 4.1829 13.7341V15.7371V15.8171H4.2629H6.26522C6.45435 15.8171 6.6351 15.7424 6.76885 15.6087L13.5298 8.84774Z" fill="#0C2739" stroke="white" stroke-width="0.16"/>
</svg>
