<svg width="20" height="20" viewBox="0 0 20 20" fill="none" xmlns="http://www.w3.org/2000/svg">
<path fill-rule="evenodd" clip-rule="evenodd" d="M12.9323 3.58308C12.9523 3.62342 12.9793 3.66117 13.0131 3.69458L16.2406 6.88C16.2749 6.91384 16.3136 6.94055 16.3547 6.96013C16.3677 6.97879 16.3824 6.99664 16.3987 7.01346L16.9598 7.59011C17.1169 7.75163 17.2383 7.93953 17.2965 8.1182C17.3531 8.29214 17.3447 8.43609 17.2823 8.55611C17.2082 8.69872 17.1023 8.80301 16.9134 8.89221C16.6227 9.02944 16.2125 8.92967 15.8497 8.61513L15.2538 8.09866C15.2039 8.0554 15.1467 8.02606 15.0869 8.01028C14.9274 7.89375 14.7026 7.90354 14.5537 8.04387L11.3471 11.0645C11.2353 11.1699 11.1944 11.3222 11.2261 11.4619C11.2103 11.5308 11.2118 11.6047 11.234 11.6772C11.6445 13.0192 11.764 13.9496 11.6057 14.7617C11.4654 15.4816 11.0972 16.1558 10.4184 16.9709L3.04225 9.64758C3.945 8.91001 4.66739 8.52322 5.43459 8.39395C6.22526 8.26073 7.12025 8.39122 8.38626 8.80418C8.55057 8.94648 8.79939 8.93958 8.9555 8.78347L12.1156 5.6234C12.2789 5.46007 12.2789 5.19525 12.1156 5.03192C12.1019 5.01822 12.0874 5.00567 12.0724 4.99427C12.0604 4.97081 12.0459 4.94815 12.029 4.92664L11.5414 4.30697C11.2444 3.92958 11.1642 3.51511 11.3151 3.23126C11.4132 3.04678 11.5224 2.94603 11.6683 2.87874C11.7912 2.82211 11.9354 2.82059 12.1064 2.88539C12.2821 2.95196 12.464 3.08214 12.6179 3.24678L12.9323 3.58308ZM13.8202 3.31584C13.8079 3.29755 13.7939 3.28 13.7784 3.26337L13.229 2.6756C13.0093 2.44054 12.7246 2.22507 12.4028 2.10316C12.0763 1.97948 11.6921 1.94668 11.3181 2.11908C10.9866 2.27192 10.7498 2.51263 10.5765 2.83864C10.2024 3.54241 10.4893 4.32264 10.884 4.82424L11.2573 5.29868L8.57119 7.9848C7.29136 7.57342 6.26397 7.40593 5.29561 7.56909C4.27132 7.74167 3.37345 8.27371 2.34916 9.13572C2.31707 9.16272 2.29006 9.19351 2.26823 9.22689C2.21467 9.24743 2.16448 9.27939 2.12144 9.32274C1.95869 9.48666 1.95964 9.75148 2.12357 9.91422L5.85989 13.6238L2.92685 16.5569C2.76351 16.7202 2.76351 16.985 2.92685 17.1483C3.09018 17.3117 3.355 17.3117 3.51833 17.1483L6.4535 14.2132L10.1453 17.8786C10.3092 18.0413 10.5741 18.0404 10.7368 17.8764C10.7391 17.8742 10.7413 17.8719 10.7435 17.8695C10.746 17.8669 10.7485 17.8642 10.751 17.8615C10.7629 17.8508 10.7743 17.8393 10.7851 17.8271C11.6731 16.8252 12.228 15.9413 12.4267 14.9217C12.6194 13.9332 12.4661 12.8737 12.0655 11.537L14.8822 8.88356L15.3018 9.24721C15.784 9.66527 16.5498 9.9889 17.2705 9.64864C17.6044 9.49102 17.8561 9.26589 18.0245 8.94197C18.2144 8.57658 18.1999 8.1913 18.0919 7.85934C17.9854 7.5321 17.7837 7.23741 17.5593 7.0068L16.9983 6.43015C16.9626 6.39349 16.9218 6.36476 16.8782 6.34401C16.8637 6.32308 16.847 6.3032 16.8282 6.28465L13.8202 3.31584Z" fill="#0C2739"/>
</svg>
