<svg width="20" height="20" viewBox="0 0 20 20" fill="none" xmlns="http://www.w3.org/2000/svg">
<path fill-rule="evenodd" clip-rule="evenodd" d="M2.36957 5C2.16546 5 2 5.16546 2 5.36957C2 5.57367 2.16546 5.73913 2.36957 5.73913H17.8913C18.0954 5.73913 18.2609 5.57367 18.2609 5.36957C18.2609 5.16546 18.0954 5 17.8913 5H2.36957ZM7.01753 8.27629C7.01753 8.07218 7.18299 7.90672 7.3871 7.90672H17.8914C18.0955 7.90672 18.261 8.07218 18.261 8.27629C18.261 8.48039 18.0955 8.64585 17.8914 8.64585H7.3871C7.18299 8.64585 7.01753 8.48039 7.01753 8.27629ZM9.98527 10.8135C9.78116 10.8135 9.6157 10.979 9.6157 11.1831C9.6157 11.3872 9.78116 11.5526 9.98527 11.5526H17.8912C18.0953 11.5526 18.2607 11.3872 18.2607 11.1831C18.2607 10.979 18.0953 10.8135 17.8912 10.8135H9.98527ZM7.01753 14.0898C7.01753 13.8857 7.18299 13.7202 7.3871 13.7202H17.8914C18.0955 13.7202 18.261 13.8857 18.261 14.0898C18.261 14.2939 18.0955 14.4594 17.8914 14.4594H7.3871C7.18299 14.4594 7.01753 14.2939 7.01753 14.0898ZM3.10347 8.36691C2.61074 8.08776 2 8.4437 2 9.01001V13.5264C2 14.0927 2.61074 14.4487 3.10347 14.1695L7.08942 11.9113C7.58914 11.6282 7.58914 10.9082 7.08942 10.6251L3.10347 8.36691ZM2.73913 9.01001L6.72508 11.2682L2.73913 13.5264V9.01001Z" fill="#0C2739"/>
</svg>
