<svg width="20" height="20" viewBox="0 0 20 20" fill="none" xmlns="http://www.w3.org/2000/svg">
<path d="M5.47766 19.352C5.90945 19.7838 6.47703 20 7.04439 20C7.61174 20 8.1791 19.7838 8.61111 19.352L13.9815 13.9813L19.352 8.61111C20.216 7.74708 20.216 6.34169 19.352 5.47766L13.9718 0.0976705C13.8415 -0.0325568 13.6306 -0.0325568 13.5004 0.0976705L11.4941 2.10419C11.3694 1.87241 11.1981 1.66618 10.9845 1.49439C10.2676 0.917925 9.2258 0.91548 8.50689 1.48817C8.06087 1.84329 7.78686 2.37109 7.75486 2.93623C7.72263 3.50269 7.93398 4.05694 8.33399 4.45762C8.47222 4.5954 8.62778 4.71118 8.79645 4.80163L6.78949 6.80882L4.43317 9.16491C4.34628 9.2518 4.31428 9.37914 4.34961 9.4967C4.38495 9.61426 4.48229 9.70293 4.60251 9.72716C4.90341 9.78827 5.16676 9.95005 5.36388 10.1947C5.74656 10.6703 5.74811 11.3619 5.3681 11.839C5.12787 12.141 4.78519 12.3193 4.40384 12.3408C4.02982 12.3617 3.65848 12.2219 3.39224 11.9557C3.20957 11.773 3.08645 11.5443 3.03578 11.2943C3.01156 11.1741 2.92289 11.0768 2.80533 11.0412C2.68777 11.0059 2.56021 11.0379 2.47354 11.1248L0.0976705 13.5004C-0.0325568 13.6306 -0.0325568 13.8415 0.0976705 13.9718L5.47766 19.352ZM9.71982 4.57273C9.68427 4.45517 9.58693 4.3665 9.4667 4.34206C9.21669 4.29139 8.98802 4.1685 8.80512 3.98582C8.53911 3.71959 8.39866 3.35091 8.42022 2.97378C8.44177 2.59243 8.61978 2.24998 8.92201 2.00974C9.39892 1.62951 10.0905 1.63084 10.5663 2.01397C10.8112 2.21109 10.9728 2.47421 11.0339 2.77533C11.0581 2.89556 11.1468 2.99289 11.2643 3.02823C11.3819 3.06379 11.5094 3.03156 11.5961 2.94467L13.7358 0.804809L18.8806 5.94923C19.1731 6.24169 19.3342 6.63059 19.3342 7.04439C19.3342 7.45818 19.1731 7.84708 18.8806 8.13976L13.6969 13.3233L11.8717 11.4979C12.0615 11.4054 12.2359 11.281 12.3879 11.129C12.7771 10.7399 12.9824 10.201 12.9511 9.65071C12.9199 9.10113 12.6535 8.58822 12.2199 8.24288C11.521 7.68597 10.5081 7.68841 9.81183 8.2491C9.58382 8.43244 9.40492 8.65578 9.28203 8.90868L7.45707 7.08372L9.63626 4.90452C9.72316 4.81785 9.75516 4.69007 9.71982 4.57273ZM2.57643 11.9648C2.66688 12.1335 2.78266 12.2893 2.92067 12.4273C3.32113 12.8277 3.87826 13.04 4.4414 13.0066C5.00675 12.9746 5.53455 12.7006 5.8899 12.2546C6.46258 11.5354 6.45992 10.4934 5.88367 9.77694C5.71189 9.56337 5.50566 9.39181 5.27387 9.26736L7.06483 7.4764L9.20469 9.61626C9.27714 9.68893 9.38381 9.71516 9.48115 9.68582C9.57915 9.65627 9.65293 9.57537 9.67315 9.47515C9.73693 9.16113 9.90539 8.8869 10.1603 8.68178C10.6561 8.2831 11.3766 8.2811 11.8744 8.67711C12.1888 8.92757 12.3744 9.28425 12.3968 9.68182C12.4193 10.0745 12.2728 10.4585 11.9955 10.7359C11.8052 10.9259 11.5668 11.0545 11.3059 11.1072C11.2057 11.1277 11.1248 11.2014 11.0952 11.2992C11.0654 11.3972 11.0921 11.5037 11.1648 11.5759L13.3044 13.7158L8.13976 18.8806C7.84731 19.1731 7.4584 19.3342 7.04439 19.3342C6.63037 19.3342 6.24169 19.1731 5.94901 18.8806L0.804809 13.7362L2.57643 11.9648Z" fill="#0C2739"/>
</svg>
