<svg width="15" height="16" viewBox="0 0 15 16" fill="none" xmlns="http://www.w3.org/2000/svg">
<path d="M9.38755 5.16118C9.38755 5.29763 9.44112 5.42849 9.53649 5.52497C9.63186 5.62145 9.7612 5.67565 9.89607 5.67565H15V0.516826C15 0.379755 14.9462 0.248299 14.8504 0.151375C14.7546 0.0544512 14.6246 0 14.4891 0C14.3537 0 14.2237 0.0544512 14.1279 0.151375C14.0321 0.248299 13.9783 0.379755 13.9783 0.516826V3.88682C13.0216 2.46955 11.6268 1.41385 10.0128 0.885516C8.39879 0.357179 6.65704 0.386122 5.06107 0.967799C3.46509 1.54948 2.10527 2.65094 1.19514 4.09924C0.285011 5.54753 -0.123877 7.26061 0.0326835 8.96949C0.189244 10.6784 0.902385 12.2862 2.06012 13.5406C3.21786 14.795 4.75462 15.6249 6.42908 15.8999C8.10355 16.1749 9.82088 15.8795 11.3114 15.0601C12.8019 14.2406 13.9812 12.9435 14.6641 11.3725C14.7147 11.2451 14.7142 11.1028 14.6629 10.9757C14.6117 10.8487 14.5135 10.7467 14.3892 10.6915C14.265 10.6364 14.1244 10.6322 13.9972 10.6801C13.87 10.7279 13.7662 10.8239 13.7077 10.9478C13.115 12.3132 12.0886 13.4394 10.7912 14.1474C9.49384 14.8554 7.99988 15.1048 6.54644 14.856C5.09301 14.6071 3.76336 13.8743 2.76853 12.7738C1.7737 11.6733 1.17069 10.2681 1.05519 8.78141C0.939693 7.29467 1.31833 5.8115 2.13101 4.56728C2.94368 3.32306 4.14384 2.38908 5.54101 1.91357C6.93817 1.43806 8.4523 1.44826 9.84307 1.94256C11.2339 2.43686 12.4216 3.38693 13.2178 4.642H9.90074C9.83317 4.64137 9.76616 4.65437 9.70361 4.68023C9.64107 4.7061 9.58425 4.74432 9.53647 4.79266C9.48869 4.841 9.45091 4.89848 9.42534 4.96176C9.39977 5.02503 9.38692 5.09283 9.38755 5.16118Z" fill="black"/>
</svg>
