<svg width="20" height="20" viewBox="0 0 20 20" fill="none" xmlns="http://www.w3.org/2000/svg">
<path fill-rule="evenodd" clip-rule="evenodd" d="M10 18C14.4183 18 18 14.4183 18 10C18 5.58172 14.4183 2 10 2C5.58172 2 2 5.58172 2 10C2 14.4183 5.58172 18 10 18ZM7.83937 7.75637C8.36723 7.6896 8.77542 7.23896 8.77542 6.69298C8.77542 6.10097 8.29551 5.62106 7.7035 5.62106C7.1115 5.62106 6.63158 6.10097 6.63158 6.69298C6.63158 7.18563 6.96392 7.60065 7.41664 7.72609V12.6047C6.96392 12.7302 6.63158 13.1452 6.63158 13.6378C6.63158 14.2298 7.1115 14.7098 7.7035 14.7098C8.29551 14.7098 8.77542 14.2298 8.77542 13.6378C8.77542 13.1918 8.50296 12.8093 8.11537 12.6479L8.43379 11.6926C8.56746 11.2916 8.93958 11.0186 9.36221 11.0114L11.4959 10.9753C11.9229 10.968 12.3239 10.7689 12.5878 10.4331L12.7191 10.266C12.8567 10.0909 12.9511 9.88589 12.9948 9.66753L13.1822 8.73027C13.754 8.70739 14.2105 8.23662 14.2105 7.65922C14.2105 7.06721 13.7306 6.5873 13.1386 6.5873C12.5466 6.5873 12.0667 7.06721 12.0667 7.65922C12.0667 8.1196 12.3569 8.51218 12.7644 8.66401L12.5802 9.58463C12.5496 9.73794 12.4833 9.88189 12.3867 10.0048L12.2554 10.1719C12.0701 10.4077 11.7886 10.5475 11.4888 10.5526L9.35504 10.5888C8.75312 10.599 8.22313 10.9878 8.03276 11.559L7.83937 12.1391L7.83937 7.75637ZM8.37282 6.69298C8.37282 7.06263 8.07316 7.3623 7.7035 7.3623C7.33385 7.3623 7.03418 7.06263 7.03418 6.69298C7.03418 6.32332 7.33385 6.02366 7.7035 6.02366C8.07316 6.02366 8.37282 6.32332 8.37282 6.69298ZM13.8079 7.65922C13.8079 8.02888 13.5083 8.32854 13.1386 8.32854C12.7689 8.32854 12.4693 8.02888 12.4693 7.65922C12.4693 7.28957 12.7689 6.9899 13.1386 6.9899C13.5083 6.9899 13.8079 7.28957 13.8079 7.65922ZM7.7035 14.3072C8.07316 14.3072 8.37282 14.0075 8.37282 13.6378C8.37282 13.2682 8.07316 12.9685 7.7035 12.9685C7.33385 12.9685 7.03418 13.2682 7.03418 13.6378C7.03418 14.0075 7.33385 14.3072 7.7035 14.3072Z" fill="#0C2739"/>
</svg>
