<svg width="20" height="20" viewBox="0 0 20 20" fill="none" xmlns="http://www.w3.org/2000/svg">
<path d="M17.7714 17.0555L13.6607 13.0105C14.7372 11.8409 15.3986 10.2942 15.3986 8.59215C15.3981 4.95118 12.3991 2 8.69939 2C4.9997 2 2.00073 4.95118 2.00073 8.59215C2.00073 12.2331 4.9997 15.1843 8.69939 15.1843C10.2979 15.1843 11.764 14.6314 12.9157 13.7122L17.0424 17.7732C17.2434 17.9713 17.5699 17.9713 17.771 17.7732C17.9725 17.5751 17.9725 17.2536 17.7714 17.0555ZM8.69939 14.1701C5.56905 14.1701 3.03142 11.6728 3.03142 8.59215C3.03142 5.51155 5.56905 3.01424 8.69939 3.01424C11.8298 3.01424 14.3674 5.51155 14.3674 8.59215C14.3674 11.6728 11.8298 14.1701 8.69939 14.1701Z" fill="#0C2739"/>
</svg>
