<svg width="20" height="20" viewBox="0 0 20 20" fill="none" xmlns="http://www.w3.org/2000/svg">
<path fill-rule="evenodd" clip-rule="evenodd" d="M13.937 2.17488C14.0222 2.15261 14.1128 2.14672 14.2037 2.15924C14.4787 2.19761 14.7047 2.39795 14.7763 2.66688L16.1933 7.98787C16.2403 8.16434 16.2156 8.35175 16.1244 8.50886C15.4971 9.59274 13.9695 9.99211 13.2353 10.1841C12.4911 10.3786 11.7297 10.386 10.9933 10.3931L10.992 10.3931C10.3088 10.3999 9.66382 10.4063 9.08342 10.558C8.07361 10.822 7.16419 11.5526 6.69007 12.2139L8.11671 17.5712C8.16537 17.7539 8.05652 17.9408 7.87359 17.9886C7.69065 18.0364 7.50291 17.9271 7.45426 17.7444L4.08802 5.10357C4.03936 4.92086 4.14821 4.73397 4.33115 4.68615C4.51408 4.63832 4.70182 4.74767 4.75047 4.93038L4.85107 5.30814C5.49289 4.70708 6.35032 4.15827 7.3122 3.90681C8.05635 3.71226 8.81798 3.70476 9.55442 3.69768L9.55494 3.69767C10.2381 3.69095 10.8834 3.68461 11.4641 3.53281C11.9766 3.39883 13.1769 3.08501 13.5203 2.49227C13.6132 2.33188 13.7645 2.21997 13.937 2.17488Z" fill="#0C2739"/>
</svg>
