<svg width="20" height="20" viewBox="0 0 20 20" fill="none" xmlns="http://www.w3.org/2000/svg">
<path fill-rule="evenodd" clip-rule="evenodd" d="M16.9675 7.42236C17.4756 7.49622 17.8364 7.75244 17.9576 8.12537C18.0787 8.49829 17.9374 8.91772 17.5698 9.276L14.5734 12.1968L15.2808 16.3212C15.3713 16.8486 15.217 17.1648 15.0719 17.337C15.0211 17.3973 14.9633 17.4495 14.8998 17.4931C14.7769 17.5774 14.6327 17.6295 14.4758 17.6453C14.4418 17.6488 14.4072 17.6505 14.3721 17.6505C14.372 17.6505 14.372 17.6505 14.3719 17.6505C14.1606 17.6505 13.9359 17.5887 13.704 17.4668L10 15.5195L6.29626 17.4667C6.06421 17.5886 5.83948 17.6505 5.62817 17.6505C5.34729 17.6505 5.09875 17.5392 4.92834 17.337C4.78308 17.1647 4.62891 16.8486 4.71936 16.3212L5.42688 12.1968L2.4303 9.276C2.06262 8.91772 1.92126 8.49829 2.04236 8.12537C2.16345 7.75244 2.52441 7.49622 3.03259 7.42236L7.17371 6.82056L9.02551 3.06836C9.25269 2.60791 9.60791 2.34375 10 2.34375C10.3921 2.34375 10.7473 2.60791 10.9745 3.06824L12.8265 6.82056L16.9675 7.42236Z" fill="#0C2739"/>
</svg>
