<svg width="15" height="14" viewBox="0 0 15 14" fill="none" xmlns="http://www.w3.org/2000/svg">
<path d="M14.375 6.5625C14.375 6.64538 14.3421 6.72487 14.2835 6.78347C14.2249 6.84208 14.1454 6.875 14.0625 6.875H10.4081C11.3929 7.53414 11.875 8.35922 11.875 9.375C11.8845 9.91946 11.7613 10.458 11.516 10.9442C11.2707 11.4304 10.9107 11.8494 10.467 12.1652C9.6307 12.7841 8.46602 13.125 7.1875 13.125C5.10906 13.125 3.2568 12.012 2.68313 10.4184C2.65505 10.3404 2.65911 10.2544 2.6944 10.1794C2.72969 10.1044 2.79334 10.0465 2.87133 10.0184C2.94932 9.99036 3.03527 9.99442 3.11027 10.0297C3.18527 10.065 3.24317 10.1287 3.27125 10.2066C3.75727 11.557 5.36773 12.5 7.1875 12.5C9.20961 12.5 11.25 11.5337 11.25 9.375C11.25 8.3018 10.5595 7.50641 9.07969 6.875H0.3125C0.22962 6.875 0.150134 6.84208 0.0915292 6.78347C0.0329241 6.72487 0 6.64538 0 6.5625C0 6.47962 0.0329241 6.40013 0.0915292 6.34153C0.150134 6.28292 0.22962 6.25 0.3125 6.25H14.0625C14.1454 6.25 14.2249 6.28292 14.2835 6.34153C14.3421 6.40013 14.375 6.47962 14.375 6.5625ZM3.90672 4.37523C3.95764 4.37519 4.00779 4.3627 4.05278 4.33886C4.09778 4.31502 4.13628 4.28055 4.16493 4.23845C4.19357 4.19634 4.2115 4.14788 4.21715 4.09727C4.2228 4.04666 4.216 3.99543 4.19734 3.94805C4.10088 3.68466 4.05512 3.4054 4.0625 3.125C4.0625 1.74648 5.46438 0.625 7.1875 0.625C8.78695 0.625 10.1227 1.58344 10.2944 2.85438C10.2993 2.8955 10.3124 2.93522 10.3329 2.97125C10.3533 3.00727 10.3807 3.03887 10.4135 3.06421C10.4462 3.08954 10.4837 3.10811 10.5237 3.11884C10.5637 3.12956 10.6055 3.13223 10.6465 3.12668C10.6876 3.12113 10.7271 3.10747 10.7628 3.0865C10.7985 3.06554 10.8297 3.03768 10.8546 3.00455C10.8794 2.97142 10.8975 2.93368 10.9076 2.89352C10.9178 2.85336 10.9198 2.81159 10.9137 2.77062C10.7002 1.19117 9.09844 0 7.1875 0C5.11977 0 3.4375 1.40188 3.4375 3.125C3.4297 3.48392 3.49026 3.84105 3.61594 4.17734C3.63896 4.23569 3.67901 4.28576 3.73086 4.32106C3.78272 4.35635 3.84399 4.37522 3.90672 4.37523Z" fill="#0C2739"/>
</svg>
