<svg width="20" height="20" viewBox="0 0 20 20" fill="none" xmlns="http://www.w3.org/2000/svg">
<path fill-rule="evenodd" clip-rule="evenodd" d="M10.3353 18C14.6043 18 18.065 14.4183 18.065 10C18.065 5.58172 14.6043 2 10.3353 2C6.06632 2 2.60563 5.58172 2.60563 10C2.60563 11.9363 3.27483 13.7605 4.44923 15.1862L2.61133 15.2178C2.2772 15.2235 2.00168 15.4991 1.99594 15.8332C1.9902 16.1673 2.25641 16.4335 2.59053 16.4278L6.01286 16.369C6.34698 16.3632 6.6225 16.0877 6.62824 15.7536L6.68706 12.3313C6.6928 11.9971 6.42659 11.7309 6.09247 11.7367C5.75834 11.7424 5.48282 12.0179 5.47708 12.352L5.44033 14.4902C4.39316 13.2693 3.79481 11.6856 3.79481 10C3.79481 6.26146 6.72308 3.23077 10.3353 3.23077C13.9475 3.23077 16.8758 6.26146 16.8758 10C16.8758 13.7385 13.9475 16.7692 10.3353 16.7692C10.0069 16.7692 9.74071 17.0447 9.74071 17.3846C9.74071 17.7245 10.0069 18 10.3353 18ZM10.3351 5.93906C10.6635 5.93906 10.9297 6.21458 10.9297 6.55445V10.5656L12.8607 12.5642C13.0929 12.8045 13.0929 13.1942 12.8607 13.4345C12.6285 13.6748 12.2521 13.6748 12.0199 13.4345L9.91467 11.2557C9.80317 11.1403 9.74052 10.9837 9.74052 10.8205V6.55445C9.74052 6.21458 10.0067 5.93906 10.3351 5.93906Z" fill="#0C2739"/>
</svg>
