<svg width="20" height="20" viewBox="0 0 20 20" fill="none" xmlns="http://www.w3.org/2000/svg">
<path d="M4.66675 16.2223C4.66675 17.2046 5.46229 18.0001 6.44454 18.0001H13.5557C14.5379 18.0001 15.3334 17.2046 15.3334 16.2223V6.55567C15.3334 6.00338 14.8857 5.55566 14.3334 5.55566H5.66675C5.11446 5.55566 4.66675 6.00338 4.66675 6.55566V16.2223Z" fill="#0F1C30"/>
<path d="M13.1112 2.88888L12.808 2.58575C12.433 2.2107 11.9243 2 11.3938 2H8.60623C8.07581 2 7.56712 2.2107 7.19205 2.58575L6.88892 2.88888H4.66673C4.1758 2.88888 3.77783 3.28685 3.77783 3.77777C3.77783 4.26869 4.1758 4.66667 4.66673 4.66667H15.3334C15.8243 4.66667 16.2222 4.26869 16.2222 3.77777C16.2222 3.28685 15.8243 2.88888 15.3334 2.88888H13.1112Z" fill="#0F1C30"/>
</svg>
