<svg width="17" height="15" viewBox="0 0 17 15" fill="none" xmlns="http://www.w3.org/2000/svg">
<path d="M15.4409 0H0.584981C0.323935 0 0.110352 0.238508 0.110352 0.530018C0.110352 0.821529 0.323935 1.06004 0.584981 1.06004H15.4409C15.7019 1.06004 15.9155 0.821529 15.9155 0.530018C15.9155 0.238508 15.7019 0 15.4409 0Z" fill="#0C2739"/>
<path d="M11.891 4.39889H0.622555C0.340843 4.39889 0.110352 4.6374 0.110352 4.92891C0.110352 5.22042 0.340843 5.45893 0.622555 5.45893H11.891C12.1728 5.45893 12.4032 5.22042 12.4032 4.92891C12.4032 4.6374 12.1728 4.39889 11.891 4.39889Z" fill="#0C2739"/>
<path d="M0.110352 9.57254C0.110352 9.27915 0.348191 9.04131 0.64158 9.04131H3.96944C4.26283 9.04131 4.50067 9.27915 4.50067 9.57254C4.50067 9.86593 4.26283 10.1038 3.96944 10.1038H0.64158C0.348191 10.1038 0.110352 9.86593 0.110352 9.57254Z" fill="#0C2739"/>
<path d="M0.110352 13.7785C0.110352 13.4851 0.348191 13.2472 0.64158 13.2472H4.84751C5.1409 13.2472 5.37873 13.4851 5.37873 13.7785C5.37873 14.0719 5.1409 14.3097 4.84751 14.3097H0.64158C0.34819 14.3097 0.110352 14.0719 0.110352 13.7785Z" fill="#0C2739"/>
<path d="M12.9887 14.402C12.8389 14.402 12.6892 14.3451 12.5754 14.2305C12.3469 14.002 12.3469 13.6316 12.5754 13.4031L14.6956 11.2829L12.5746 9.16194C12.3461 8.93347 12.3461 8.56308 12.5746 8.3346C12.8031 8.10613 13.1735 8.10613 13.4019 8.3346L15.9362 10.8689C16.1647 11.0973 16.1647 11.4677 15.9362 11.6962L13.4019 14.2305C13.2881 14.3451 13.1384 14.402 12.9887 14.402Z" fill="#0C2739"/>
<path d="M10.0643 14.402C10.2134 14.402 10.3624 14.3451 10.4757 14.2305C10.7032 14.002 10.7032 13.6316 10.4757 13.4031L8.36495 11.2829L10.4765 9.16194C10.704 8.93347 10.704 8.56308 10.4765 8.3346C10.2491 8.10613 9.88031 8.10613 9.65285 8.3346L7.12984 10.8689C6.90238 11.0973 6.90238 11.4677 7.12984 11.6962L9.65285 14.2305C9.7662 14.3451 9.91525 14.402 10.0643 14.402Z" fill="#0C2739"/>
</svg>
