<svg width="20" height="20" viewBox="0 0 20 20" fill="none" xmlns="http://www.w3.org/2000/svg">
<path fill-rule="evenodd" clip-rule="evenodd" d="M17.2 10C17.2 13.9764 13.9764 17.2 10 17.2C6.02355 17.2 2.8 13.9764 2.8 10C2.8 6.02355 6.02355 2.8 10 2.8C13.9764 2.8 17.2 6.02355 17.2 10ZM18 10C18 14.4183 14.4183 18 10 18C5.58172 18 2 14.4183 2 10C2 5.58172 5.58172 2 10 2C14.4183 2 18 5.58172 18 10ZM6.6 9.3C6.26863 9.3 6 9.56863 6 9.9C6 10.2314 6.26863 10.5 6.6 10.5H13.4C13.7314 10.5 14 10.2314 14 9.9C14 9.56863 13.7314 9.3 13.4 9.3H6.6Z" fill="#0C2739"/>
</svg>
