<svg width="20" height="20" viewBox="0 0 20 20" fill="none" xmlns="http://www.w3.org/2000/svg">
<path fill-rule="evenodd" clip-rule="evenodd" d="M17.8473 15.388L10.9755 3.48567C10.7719 3.13302 10.4072 2.92249 10 2.92249C9.59278 2.92249 9.22813 3.13302 9.02453 3.48567L2.15272 15.388C1.94909 15.7406 1.94909 16.1617 2.15272 16.5144C2.35631 16.867 2.72097 17.0775 3.12819 17.0775H16.8718C17.279 17.0775 17.6437 16.867 17.8473 16.5144C18.0509 16.1617 18.0509 15.7406 17.8473 15.388ZM17.0344 16.045C17.0142 16.0801 16.9661 16.1389 16.8718 16.1389H3.12819C3.03387 16.1389 2.98581 16.0801 2.96562 16.045C2.94541 16.01 2.91847 15.939 2.96562 15.8573L9.83741 3.95499C9.88456 3.87333 9.9595 3.86111 9.99997 3.86111C10.0405 3.86111 10.1154 3.8733 10.1625 3.95499L17.0344 15.8573C17.0816 15.939 17.0546 16.01 17.0344 16.045ZM10.4697 7.1913H9.53103V12.1975H10.4697V7.1913ZM10.6257 13.7602C10.6257 14.1058 10.3455 14.3859 9.99991 14.3859C9.6543 14.3859 9.37413 14.1058 9.37413 13.7602C9.37413 13.4146 9.6543 13.1344 9.99991 13.1344C10.3455 13.1344 10.6257 13.4146 10.6257 13.7602Z" fill="#0C2739"/>
</svg>
