<svg width="24" height="24" viewBox="0 0 24 24" fill="none" xmlns="http://www.w3.org/2000/svg">
<path d="M20 21H4C2.89543 21 2 20.1046 2 19V5C2 3.89543 2.89543 3 4 3H20C21.1046 3 22 3.89543 22 5V19C22 20.1046 21.1046 21 20 21ZM4 7C3.44772 7 3 7.44772 3 8V19C3 19.5523 3.44772 20 4 20H20C20.5523 20 21 19.5523 21 19V8C21 7.44772 20.5523 7 20 7H4Z" fill="url(#paint0_radial)"/>
<rect x="11" y="11" width="12" height="12" rx="6" fill="url(#paint1_radial)"/>
<path d="M19.423 14.6847L18.8841 14.1566L20.4252 14.155L20.4245 13.5714L17.8938 13.574V16.0517H18.4894V14.5951L19.0019 15.0974C19.3985 15.486 19.6687 15.9811 19.7783 16.5202C19.8879 17.0592 19.8321 17.6179 19.6179 18.1259C19.4038 18.6339 19.0408 19.0683 18.5748 19.3742C18.1089 19.6802 17.5609 19.844 17 19.845L17.001 20.4286C17.6796 20.4274 18.3426 20.2292 18.9063 19.859C19.47 19.4889 19.9092 18.9633 20.1683 18.3488C20.4275 17.7342 20.495 17.0582 20.3623 16.4061C20.2297 15.7539 19.9028 15.1549 19.423 14.6847Z" fill="white" stroke="white" stroke-width="0.25"/>
<path d="M17.0001 14.155L16.9991 13.5714C16.3205 13.5726 15.6575 13.7708 15.0938 14.1409C14.5301 14.5111 14.0909 15.0366 13.8318 15.6512C13.5726 16.2658 13.5051 16.9418 13.6378 17.5939C13.7704 18.246 14.0973 18.845 14.5771 19.3153L15.1177 19.845H13.5753V20.4286H16.1063V17.9483H15.5107V19.4049L14.9982 18.9026C14.6016 18.5139 14.3315 18.0188 14.2218 17.4798C14.1122 16.9408 14.168 16.382 14.3822 15.8741C14.5964 15.3661 14.9593 14.9317 15.4253 14.6257C15.8912 14.3198 16.4392 14.156 17.0001 14.155Z" fill="white" stroke="white" stroke-width="0.25"/>
<defs>
<radialGradient id="paint0_radial" cx="0" cy="0" r="1" gradientUnits="userSpaceOnUse" gradientTransform="translate(18.7222 -0.021575) rotate(129.467) scale(25.6088 25.8726)">
<stop offset="0.3043" stop-color="#B958F0"/>
<stop offset="0.8153" stop-color="#0C68FF"/>
</radialGradient>
<radialGradient id="paint1_radial" cx="0" cy="0" r="1" gradientUnits="userSpaceOnUse" gradientTransform="translate(21.0333 8.98562) rotate(126.54) scale(16.4042 16.156)">
<stop offset="0.3043" stop-color="#B958F0"/>
<stop offset="0.8153" stop-color="#0C68FF"/>
</radialGradient>
</defs>
</svg>
