<svg width="12" height="12" viewBox="0 0 12 12" fill="none" xmlns="http://www.w3.org/2000/svg">
<path fill-rule="evenodd" clip-rule="evenodd" d="M0.0112463 8.56901C0.0111106 8.56502 0.0110511 8.56102 0.0110642 8.55703C0.0110723 8.55455 0.011109 8.55206 0.0111743 8.54958C0.0141819 8.41524 0.0862178 8.3031 0.18966 8.24034L3.71682 5.24632C3.87675 5.11393 4.11594 5.128 4.24833 5.28793C4.38072 5.44786 4.36665 5.68705 4.20672 5.81944L1.40606 8.18946L11.6021 8.22273C11.8147 8.22343 11.9737 8.39673 11.973 8.5961C11.9723 8.80875 11.799 8.96768 11.5997 8.96703L1.40584 8.93376L4.18881 11.3086C4.34787 11.4421 4.36038 11.6814 4.22695 11.8404C4.09352 11.9995 3.85423 12.012 3.69518 11.8786L0.170576 8.86013C0.0780963 8.79348 0.0149262 8.68632 0.0112463 8.56901Z" fill="#0C2739"/>
<path fill-rule="evenodd" clip-rule="evenodd" d="M0.401302 3.0292C0.201936 3.02855 0.0286308 3.18748 0.0279369 3.40014C0.0272429 3.61279 0.199507 3.77285 0.398873 3.7735L10.5959 3.80678L7.79319 6.19C7.69994 6.25615 7.65972 6.36235 7.65937 6.46867C7.65911 6.54842 7.68539 6.64154 7.75163 6.70822C7.88402 6.86814 8.12321 6.88222 8.28314 6.74982L11.855 3.73109C11.911 3.68408 11.9489 3.62316 11.9689 3.55728C11.9823 3.5199 11.9897 3.48011 11.9899 3.43917C11.9903 3.30532 11.9188 3.18321 11.8074 3.11721L8.30478 0.117592C8.14572 -0.015839 7.90644 -0.00332859 7.77301 0.15573C7.63958 0.314789 7.65209 0.554071 7.81115 0.687502L10.5942 3.06246L0.401302 3.0292Z" fill="#0C2739"/>
</svg>
