<svg width="20" height="20" viewBox="0 0 20 20" fill="none" xmlns="http://www.w3.org/2000/svg">
<path d="M5 8.025H8.33333C8.89847 8.025 9.35833 7.56514 9.35833 7V5C9.35833 4.43486 8.89847 3.975 8.33333 3.975H5C4.43486 3.975 3.975 4.43486 3.975 5V7C3.975 7.56514 4.43486 8.025 5 8.025ZM4.69167 5C4.69167 4.82984 4.83044 4.69167 5 4.69167H8.33333C8.50289 4.69167 8.64167 4.82984 8.64167 5V7C8.64167 7.17016 8.50289 7.30833 8.33333 7.30833H5C4.83044 7.30833 4.69167 7.17016 4.69167 7V5ZM11.6666 16.025H15C15.5651 16.025 16.025 15.5651 16.025 15V13C16.025 12.4349 15.5651 11.975 15 11.975H11.6666C11.1015 11.975 10.6416 12.4349 10.6416 13V15C10.6416 15.5651 11.1015 16.025 11.6666 16.025ZM11.3583 13C11.3583 12.8298 11.4971 12.6917 11.6666 12.6917H15C15.1695 12.6917 15.3083 12.8298 15.3083 13V15C15.3083 15.1702 15.1695 15.3083 15 15.3083H11.6666C11.4971 15.3083 11.3583 15.1702 11.3583 15V13ZM11.6666 10.6917H15C15.5651 10.6917 16.025 10.2318 16.025 9.66667V5C16.025 4.43486 15.5651 3.975 15 3.975H11.6666C11.1015 3.975 10.6416 4.43486 10.6416 5V9.66667C10.6416 10.2318 11.1015 10.6917 11.6666 10.6917ZM11.3583 5C11.3583 4.82984 11.4971 4.69167 11.6666 4.69167H15C15.1695 4.69167 15.3083 4.82984 15.3083 5V9.66667C15.3083 9.83683 15.1695 9.975 15 9.975H11.6666C11.4971 9.975 11.3583 9.83683 11.3583 9.66667V5ZM5 16.025H8.33333C8.89847 16.025 9.35833 15.5651 9.35833 15V10.3333C9.35833 9.76819 8.89847 9.30833 8.33333 9.30833H5C4.43486 9.30833 3.975 9.76819 3.975 10.3333V15C3.975 15.5651 4.43486 16.025 5 16.025ZM4.69167 10.3333C4.69167 10.1632 4.83044 10.025 5 10.025H8.33333C8.50289 10.025 8.64167 10.1632 8.64167 10.3333V15C8.64167 15.1702 8.50289 15.3083 8.33333 15.3083H5C4.83044 15.3083 4.69167 15.1702 4.69167 15V10.3333ZM3.66667 18.025H16.3333C17.2665 18.025 18.025 17.2658 18.025 16.3333V3.66667C18.025 2.7342 17.2665 1.975 16.3333 1.975H3.66667C2.73352 1.975 1.975 2.7342 1.975 3.66667V16.3333C1.975 17.2658 2.73352 18.025 3.66667 18.025ZM2.69167 3.66667C2.69167 3.12914 3.12914 2.69167 3.66667 2.69167H16.3333C16.8709 2.69167 17.3083 3.12914 17.3083 3.66667V16.3333C17.3083 16.8709 16.8709 17.3083 16.3333 17.3083H3.66667C3.12914 17.3083 2.69167 16.8709 2.69167 16.3333V3.66667Z" fill="#0C2739" stroke="black" stroke-width="0.05"/>
</svg>
