<svg width="16" height="16" viewBox="0 0 16 16" fill="none" xmlns="http://www.w3.org/2000/svg">
<path d="M1.33331 3.80834C1.33331 3.546 1.54598 3.33334 1.80831 3.33334H6.66665V2C6.66665 1.63181 6.96512 1.33334 7.33331 1.33334V1.33334C7.7015 1.33334 7.99998 1.63181 7.99998 2V14C7.99998 14.3682 7.7015 14.6667 7.33331 14.6667V14.6667C6.96512 14.6667 6.66665 14.3682 6.66665 14V12H4.47498C4.21264 12 3.99998 11.7873 3.99998 11.525V10.475C3.99998 10.2127 4.21264 10 4.47498 10H6.66665V8.66667H3.14165C2.87931 8.66667 2.66665 8.454 2.66665 8.19167V7.14167C2.66665 6.87933 2.87931 6.66667 3.14165 6.66667H6.66665V5.33334H1.80831C1.54598 5.33334 1.33331 5.12067 1.33331 4.85834V3.80834ZM9.33331 3.80834C9.33331 3.546 9.54598 3.33334 9.80831 3.33334H10.8583C11.1206 3.33334 11.3333 3.546 11.3333 3.80834V4.85834C11.3333 5.12067 11.1206 5.33334 10.8583 5.33334H9.80831C9.54598 5.33334 9.33331 5.12067 9.33331 4.85834V3.80834ZM9.33331 7.14167C9.33331 6.87933 9.54598 6.66667 9.80831 6.66667H12.1916C12.454 6.66667 12.6666 6.87933 12.6666 7.14167V8.19167C12.6666 8.454 12.454 8.66667 12.1916 8.66667H9.80831C9.54598 8.66667 9.33331 8.454 9.33331 8.19167V7.14167ZM9.33331 10.475C9.33331 10.2127 9.54598 10 9.80831 10H14.1916C14.454 10 14.6666 10.2127 14.6666 10.475V11.525C14.6666 11.7873 14.454 12 14.1916 12H9.80831C9.54598 12 9.33331 11.7873 9.33331 11.525V10.475Z" fill="#161721"/>
</svg>
