<svg width="24" height="24" viewBox="0 0 24 24" fill="none" xmlns="http://www.w3.org/2000/svg">
<path d="M12.8137 3.45676C12.8168 3.04255 12.4835 2.70428 12.0693 2.70119C11.6551 2.69811 11.3168 3.03139 11.3137 3.44559L11.2556 11.2556L3.44559 11.3137C3.03139 11.3168 2.69811 11.6551 2.70119 12.0693C2.70428 12.4835 3.04255 12.8168 3.45675 12.8137L11.2444 12.7557L11.1865 20.5434C11.1834 20.9576 11.5167 21.2959 11.9309 21.299C12.3451 21.3021 12.6833 20.9688 12.6864 20.5546L12.7446 12.7446L20.5546 12.6864C20.9688 12.6833 21.3021 12.3451 21.299 11.9309C21.2959 11.5167 20.9576 11.1834 20.5434 11.1865L12.7557 11.2444L12.8137 3.45676Z" fill="#161721"/>
</svg>
