<svg width="19" height="19" viewBox="0 0 19 19" fill="none" xmlns="http://www.w3.org/2000/svg">
<path d="M17.6999 8.49988H10.5V1.29984C10.5 0.803154 10.0967 0.399902 9.59989 0.399902C9.1032 0.399902 8.69995 0.803154 8.69995 1.29984V8.49988H1.49992C1.00323 8.49988 0.599976 8.90313 0.599976 9.39982C0.599976 9.89668 1.00323 10.2999 1.49992 10.2999H8.69995V17.4998C8.69995 17.9967 9.1032 18.3999 9.59989 18.3999C10.0967 18.3999 10.5 17.9967 10.5 17.4998V10.2999H17.6999C18.1967 10.2999 18.6 9.89668 18.6 9.39982C18.6 8.90313 18.1967 8.49988 17.6999 8.49988Z" fill="#0C2739"/>
</svg>
