<svg width="24" height="24" viewBox="0 0 24 24" fill="none" xmlns="http://www.w3.org/2000/svg">
<path fill-rule="evenodd" clip-rule="evenodd" d="M12.8136 3.45666C12.8167 3.04246 12.4834 2.70418 12.0692 2.7011C11.655 2.69802 11.3167 3.0313 11.3137 3.4455L11.2555 11.2555L3.4455 11.3137C3.0313 11.3167 2.69802 11.655 2.7011 12.0692C2.70418 12.4834 3.04246 12.8167 3.45666 12.8136L11.2444 12.7556L11.1864 20.5433C11.1833 20.9575 11.5166 21.2958 11.9308 21.2989C12.345 21.302 12.6833 20.9687 12.6863 20.5545L12.7445 12.7445L20.5545 12.6863C20.9687 12.6833 21.302 12.345 21.2989 11.9308C21.2958 11.5166 20.9575 11.1833 20.5433 11.1864L12.7556 11.2444L12.8136 3.45666Z" fill="#161721"/>
</svg>
