<svg width="24" height="24" viewBox="0 0 24 24" fill="none" xmlns="http://www.w3.org/2000/svg">
<path d="M18.9687 8.13787C19.1553 7.93431 19.1415 7.61802 18.938 7.43143C18.7344 7.24483 18.4181 7.25858 18.2315 7.46214L18.9687 8.13787ZM12.0001 15L11.6315 15.3379C11.7262 15.4412 11.8599 15.5 12.0001 15.5C12.1403 15.5 12.274 15.4412 12.3687 15.3379L12.0001 15ZM5.76868 7.46214C5.58208 7.25858 5.2658 7.24483 5.06224 7.43143C4.85868 7.61802 4.84493 7.93431 5.03152 8.13786L5.76868 7.46214ZM18.2315 7.46214L11.6315 14.6621L12.3687 15.3379L18.9687 8.13787L18.2315 7.46214ZM12.3687 14.6621L5.76868 7.46214L5.03152 8.13786L11.6315 15.3379L12.3687 14.6621Z" fill="#0C2739"/>
</svg>