<svg width="20" height="20" viewBox="0 0 20 20" fill="none" xmlns="http://www.w3.org/2000/svg">
<path d="M3.45285 13.487C3.16955 13.7892 3.18486 14.2639 3.48704 14.5472C3.78923 14.8305 4.26386 14.8151 4.54715 14.513L3.45285 13.487ZM9.625 8L10.1722 7.48704C10.0304 7.33581 9.83231 7.25 9.625 7.25C9.41769 7.25 9.21963 7.33581 9.07785 7.48704L9.625 8ZM14.7028 14.513C14.9861 14.8151 15.4608 14.8305 15.763 14.5472C16.0651 14.2639 16.0805 13.7892 15.7972 13.487L14.7028 14.513ZM4.54715 14.513L10.1722 8.51296L9.07785 7.48704L3.45285 13.487L4.54715 14.513ZM9.07785 8.51296L14.7028 14.513L15.7972 13.487L10.1722 7.48704L9.07785 8.51296Z" fill="#0D273A"/>
</svg>
