<svg width="16" height="9" viewBox="0 0 16 9" fill="none" xmlns="http://www.w3.org/2000/svg">
<path d="M1.03133 7.66214C0.844729 7.8657 0.858481 8.18198 1.06204 8.36858C1.2656 8.55517 1.58188 8.54142 1.76848 8.33786L1.03133 7.66214ZM7.9999 0.799999L8.36848 0.462137C8.27377 0.358823 8.14005 0.299999 7.9999 0.299999C7.85975 0.299999 7.72603 0.358823 7.63132 0.462137L7.9999 0.799999ZM14.2313 8.33786C14.4179 8.54142 14.7342 8.55517 14.9378 8.36858C15.1413 8.18198 15.1551 7.8657 14.9685 7.66214L14.2313 8.33786ZM1.76848 8.33786L8.36848 1.13786L7.63132 0.462137L1.03133 7.66214L1.76848 8.33786ZM7.63132 1.13786L14.2313 8.33786L14.9685 7.66214L8.36848 0.462137L7.63132 1.13786Z" fill="#0C2739"/>
</svg>
