<svg width="20" height="20" viewBox="0 0 20 20" fill="none" xmlns="http://www.w3.org/2000/svg">
<path d="M8.26224 14.3686C8.46579 14.5552 8.78208 14.5414 8.96867 14.3379C9.15527 14.1343 9.14152 13.818 8.93796 13.6314L8.26224 14.3686ZM1.4001 7.4L1.06224 7.03142C0.958921 7.12613 0.900098 7.25985 0.900098 7.4C0.900098 7.54015 0.958921 7.67387 1.06224 7.76858L1.4001 7.4ZM8.93796 1.16858C9.14152 0.98198 9.15527 0.665697 8.96867 0.462137C8.78208 0.258578 8.46579 0.244826 8.26224 0.431422L8.93796 1.16858ZM8.93796 13.6314L1.73796 7.03142L1.06224 7.76858L8.26224 14.3686L8.93796 13.6314ZM1.73796 7.76858L8.93796 1.16858L8.26224 0.431422L1.06224 7.03142L1.73796 7.76858Z" fill="#0C2739"/>
</svg>
