<svg width="15" height="18" viewBox="0 0 15 18" fill="none" xmlns="http://www.w3.org/2000/svg">
<path fill-rule="evenodd" clip-rule="evenodd" d="M0.431413 7.46224C0.244817 7.6658 0.258569 7.98209 0.462128 8.16868C0.665688 8.35528 0.981971 8.34153 1.16857 8.13797L6.99997 1.77644L6.99997 16.9C6.99997 17.1761 7.22383 17.4 7.49997 17.4C7.77611 17.4 7.99997 17.1761 7.99997 16.9L7.99997 1.99457L13.6314 8.13797C13.818 8.34153 14.1343 8.35528 14.3379 8.16868C14.5414 7.98208 14.5552 7.6658 14.3686 7.46224L7.76857 0.262241C7.67386 0.158928 7.54014 0.100105 7.39999 0.100105C7.25984 0.100105 7.12612 0.158928 7.03141 0.262241L0.431413 7.46224Z" fill="#0C2739"/>
</svg>
