<svg width="24" height="24" viewBox="0 0 24 24" fill="none" xmlns="http://www.w3.org/2000/svg">
<path d="M15.2622 18.3686C15.4658 18.5552 15.7821 18.5414 15.9687 18.3379C16.1553 18.1343 16.1415 17.818 15.938 17.6314L15.2622 18.3686ZM8.4001 11.4L8.06224 11.0314C7.95892 11.1261 7.9001 11.2598 7.9001 11.4C7.9001 11.5402 7.95892 11.6739 8.06224 11.7686L8.4001 11.4ZM15.938 5.16858C16.1415 4.98198 16.1553 4.6657 15.9687 4.46214C15.7821 4.25858 15.4658 4.24483 15.2622 4.43142L15.938 5.16858ZM15.938 17.6314L8.73796 11.0314L8.06224 11.7686L15.2622 18.3686L15.938 17.6314ZM8.73796 11.7686L15.938 5.16858L15.2622 4.43142L8.06224 11.0314L8.73796 11.7686Z" fill="#0C2739"/>
</svg>