<svg width="24" height="24" viewBox="0 0 24 24" fill="none" xmlns="http://www.w3.org/2000/svg">
<path d="M8.73776 4.43143C8.53421 4.24483 8.21792 4.25858 8.03133 4.46214C7.84473 4.6657 7.85848 4.98198 8.06204 5.16858L8.73776 4.43143ZM15.5999 11.4L15.9378 11.7686C16.0411 11.6739 16.0999 11.5402 16.0999 11.4C16.0999 11.2599 16.0411 11.1261 15.9378 11.0314L15.5999 11.4ZM8.06204 17.6314C7.85848 17.818 7.84473 18.1343 8.03133 18.3379C8.21792 18.5414 8.53421 18.5552 8.73776 18.3686L8.06204 17.6314ZM8.06204 5.16858L15.262 11.7686L15.9378 11.0314L8.73776 4.43143L8.06204 5.16858ZM15.262 11.0314L8.06204 17.6314L8.73776 18.3686L15.9378 11.7686L15.262 11.0314Z" fill="#0C2739"/>
</svg>
