<svg width="16" height="16" viewBox="0 0 16 16" fill="none" xmlns="http://www.w3.org/2000/svg">
<path fill-rule="evenodd" clip-rule="evenodd" d="M10.3437 11.8132C10.1484 12.0085 10.1484 12.325 10.3437 12.5203C10.539 12.7156 10.8555 12.7156 11.0508 12.5203L15.1869 8.38425C15.2113 8.35984 15.2326 8.33353 15.2509 8.30581C15.3653 8.13256 15.3606 7.90379 15.2367 7.73514C15.2218 7.71487 15.2052 7.69546 15.1869 7.67713L11.0508 3.54107C10.8555 3.34581 10.539 3.34581 10.3437 3.54107C10.1484 3.73633 10.1484 4.05292 10.3437 4.24818L13.6262 7.53068L2.16664 7.53068C1.8905 7.53068 1.66665 7.75454 1.66665 8.03068C1.66665 8.30682 1.8905 8.53068 2.16664 8.53068L13.6262 8.53068L10.3437 11.8132Z" fill="#161721"/>
</svg>
