<svg width="20" height="20" viewBox="0 0 20 20" fill="none" xmlns="http://www.w3.org/2000/svg">
<path d="M7.51296 2.15286C7.21077 1.86956 6.73614 1.88487 6.45285 2.18706C6.16955 2.48924 6.18486 2.96387 6.48704 3.24717L7.51296 2.15286ZM15 10.2L15.513 10.7472C15.6642 10.6054 15.75 10.4073 15.75 10.2C15.75 9.99271 15.6642 9.79464 15.513 9.65286L15 10.2ZM6.48704 17.1529C6.18486 17.4362 6.16955 17.9108 6.45285 18.213C6.73614 18.5152 7.21077 18.5305 7.51296 18.2472L6.48704 17.1529ZM6.48704 3.24717L14.487 10.7472L15.513 9.65286L7.51296 2.15286L6.48704 3.24717ZM14.487 9.65286L6.48704 17.1529L7.51296 18.2472L15.513 10.7472L14.487 9.65286Z" fill="#0D273A"/>
</svg>
