<svg width="15" height="18" viewBox="0 0 15 18" fill="none" xmlns="http://www.w3.org/2000/svg">
<path fill-rule="evenodd" clip-rule="evenodd" d="M14.5686 10.5378C14.7552 10.3342 14.7414 10.0179 14.5379 9.83132C14.3343 9.64472 14.018 9.65847 13.8314 9.86203L8.00003 16.2236L8.00003 1.10004C8.00003 0.823894 7.77617 0.600036 7.50003 0.600036C7.22389 0.600036 7.00003 0.823894 7.00003 1.10004L7.00003 16.0054L1.36858 9.86203C1.18199 9.65847 0.865704 9.64472 0.662144 9.83132C0.458585 10.0179 0.444833 10.3342 0.631429 10.5378L7.23143 17.7378C7.32614 17.8411 7.45985 17.8999 7.60001 17.8999C7.74016 17.8999 7.87388 17.8411 7.96858 17.7378L14.5686 10.5378Z" fill="#0C2739"/>
</svg>
