<svg width="24" height="24" viewBox="0 0 24 24" fill="none" xmlns="http://www.w3.org/2000/svg">
<path fill-rule="evenodd" clip-rule="evenodd" d="M17.6738 9.18851C17.9667 9.4814 18.4415 9.4814 18.7344 9.18851C19.0273 8.89561 19.0273 8.42074 18.7344 8.12785L12.5303 1.92376C12.3839 1.77731 12.192 1.70409 12 1.70409C11.8081 1.70409 11.6161 1.77731 11.4697 1.92376L5.26559 8.12785C4.97269 8.42074 4.97269 8.89561 5.26559 9.18851C5.55848 9.4814 6.03335 9.4814 6.32625 9.18851L11.25 4.26475L11.25 21.4541C11.25 21.8683 11.5858 22.2041 12 22.2041C12.4142 22.2041 12.75 21.8683 12.75 21.4541L12.75 4.26474L17.6738 9.18851Z" fill="#4154FF"/>
</svg>
