<svg width="20" height="20" viewBox="0 0 20 20" fill="none" xmlns="http://www.w3.org/2000/svg">
<path d="M14.9687 1.13787C15.1553 0.934306 15.1415 0.618022 14.938 0.431426C14.7344 0.24483 14.4181 0.258581 14.2315 0.462141L14.9687 1.13787ZM8.0001 8L7.63152 8.33786C7.72623 8.44118 7.85994 8.5 8.0001 8.5C8.14025 8.5 8.27397 8.44118 8.36867 8.33786L8.0001 8ZM1.76868 0.46214C1.58208 0.258581 1.2658 0.244829 1.06224 0.431425C0.858677 0.618022 0.844926 0.934305 1.03152 1.13786L1.76868 0.46214ZM14.2315 0.462141L7.63152 7.66214L8.36867 8.33786L14.9687 1.13787L14.2315 0.462141ZM8.36867 7.66214L1.76868 0.46214L1.03152 1.13786L7.63152 8.33786L8.36867 7.66214Z" fill="#0C2739"/>
</svg>
