<svg width="24" height="24" viewBox="0 0 24 24" fill="none" xmlns="http://www.w3.org/2000/svg">
<path fill-rule="evenodd" clip-rule="evenodd" d="M6.32624 14.7197C6.03335 14.4268 5.55848 14.4268 5.26558 14.7197C4.97269 15.0126 4.97269 15.4874 5.26558 15.7803L11.4697 21.9844C11.6161 22.1309 11.8081 22.2041 12 22.2041C12.192 22.2041 12.3839 22.1309 12.5303 21.9844L18.7344 15.7803C19.0273 15.4874 19.0273 15.0126 18.7344 14.7197C18.4415 14.4268 17.9667 14.4268 17.6738 14.7197L12.75 19.6434L12.75 2.45409C12.75 2.03988 12.4142 1.70409 12 1.70409C11.5858 1.70409 11.25 2.03988 11.25 2.45409L11.25 19.6435L6.32624 14.7197Z" fill="#161721"/>
</svg>
