<svg width="20" height="20" viewBox="0 0 20 20" fill="none" xmlns="http://www.w3.org/2000/svg">
<path d="M1.73776 0.431426C1.53421 0.24483 1.21792 0.258581 1.03133 0.462141C0.844729 0.6657 0.858481 0.981984 1.06204 1.16858L1.73776 0.431426ZM8.5999 7.4L8.93776 7.76858C9.04108 7.67388 9.0999 7.54016 9.0999 7.4C9.0999 7.25985 9.04108 7.12613 8.93776 7.03143L8.5999 7.4ZM1.06204 13.6314C0.858481 13.818 0.844729 14.1343 1.03133 14.3379C1.21792 14.5414 1.53421 14.5552 1.73776 14.3686L1.06204 13.6314ZM1.06204 1.16858L8.26204 7.76858L8.93776 7.03143L1.73776 0.431426L1.06204 1.16858ZM8.26204 7.03143L1.06204 13.6314L1.73776 14.3686L8.93776 7.76858L8.26204 7.03143Z" fill="#0C2739"/>
</svg>
