<svg width="24" height="24" viewBox="0 0 24 24" fill="none" xmlns="http://www.w3.org/2000/svg">
<path d="M5.03133 14.6621C4.84473 14.8657 4.85848 15.182 5.06204 15.3686C5.2656 15.5552 5.58188 15.5414 5.76848 15.3379L5.03133 14.6621ZM11.9999 7.8L12.3685 7.46214C12.2738 7.35882 12.1401 7.3 11.9999 7.3C11.8597 7.3 11.726 7.35882 11.6313 7.46214L11.9999 7.8ZM18.2313 15.3379C18.4179 15.5414 18.7342 15.5552 18.9378 15.3686C19.1413 15.182 19.1551 14.8657 18.9685 14.6621L18.2313 15.3379ZM5.76848 15.3379L12.3685 8.13786L11.6313 7.46214L5.03133 14.6621L5.76848 15.3379ZM11.6313 8.13786L18.2313 15.3379L18.9685 14.6621L12.3685 7.46214L11.6313 8.13786Z" fill="#0C2739"/>
</svg>