<svg width="10" height="17" viewBox="0 0 10 17" fill="none" xmlns="http://www.w3.org/2000/svg">
<path fill-rule="evenodd" clip-rule="evenodd" d="M1.69279 6.35557C1.5373 6.5252 1.54876 6.78877 1.71839 6.94427C1.88802 7.09977 2.15159 7.08831 2.30709 6.91867L4.74994 4.25375L7.19279 6.91868L7.34637 6.7779L7.19279 6.91868C7.34829 7.08831 7.61186 7.09977 7.78149 6.94427L7.64072 6.7907L7.78149 6.94427C7.95113 6.78877 7.96259 6.5252 7.80709 6.35557L5.05709 3.35557C4.97817 3.26948 4.86674 3.22046 4.74994 3.22046C4.63315 3.22046 4.52171 3.26948 4.44279 3.35557L1.69279 6.35557Z" fill="white"/>
<path fill-rule="evenodd" clip-rule="evenodd" d="M8.05729 10.0852C8.21278 9.91559 8.20132 9.65202 8.03169 9.49653C7.86206 9.34103 7.59849 9.35249 7.44299 9.52212L5.00014 12.1871L2.55729 9.52212L2.40371 9.6629L2.55729 9.52212C2.40179 9.35249 2.13822 9.34103 1.96859 9.49653L2.10936 9.6501L1.96859 9.49653C1.79896 9.65202 1.78749 9.91559 1.94299 10.0852L4.69299 13.0852C4.77191 13.1713 4.88335 13.2203 5.00014 13.2203C5.11693 13.2203 5.22837 13.1713 5.30729 13.0852L8.05729 10.0852Z" fill="white"/>
</svg>
