<svg width="16" height="16" viewBox="0 0 16 16" fill="none" xmlns="http://www.w3.org/2000/svg">
<g clip-path="url(#clip0_2000_566)">
<path d="M2.5581 3.0909C2.83354 2.94948 3.05389 2.77777 3.2008 2.64645C3.20998 2.64645 3.20998 2.63635 3.21916 2.63635C3.38442 2.49494 3.48542 2.41413 3.60477 2.35353C3.70577 2.30302 3.85267 2.25251 4.07302 2.25251C4.29337 2.25251 4.44028 2.29292 4.54127 2.35353C4.66063 2.41413 4.76162 2.49494 4.92689 2.63635C4.93607 2.63635 4.93607 2.64645 4.94525 2.64645C5.10133 2.77777 5.3125 2.94948 5.58794 3.0909C5.89093 3.24241 6.23063 3.33332 6.65298 3.33332C7.07532 3.33332 7.41503 3.24241 7.71801 3.0909C7.99345 2.94948 8.2138 2.77777 8.3607 2.64645C8.36989 2.64645 8.36989 2.63635 8.37907 2.63635C8.54433 2.49494 8.64533 2.41413 8.76468 2.35353C8.86568 2.30302 9.01258 2.25251 9.23293 2.25251C9.45328 2.25251 9.60018 2.29292 9.70118 2.35353C9.82053 2.41413 9.92153 2.49494 10.0868 2.63635C10.096 2.63635 10.096 2.64645 10.1052 2.64645C10.2612 2.77777 10.4724 2.94948 10.7479 3.0909C11.0508 3.24241 11.3905 3.33332 11.8129 3.33332C12.1434 3.33332 12.4189 3.28282 12.6667 3.18181V1.36363C12.5015 1.50504 12.4005 1.58585 12.2811 1.64645C12.1801 1.69696 12.0332 1.74746 11.8129 1.74746C11.5925 1.74746 11.4456 1.70706 11.3446 1.64645C11.2253 1.58585 11.1243 1.50504 10.959 1.36363C10.9498 1.36363 10.9498 1.35353 10.9407 1.35353C10.7846 1.22221 10.5734 1.05049 10.298 0.909081C9.99498 0.757566 9.65527 0.666656 9.23293 0.666656C8.81059 0.666656 8.47088 0.757566 8.1679 0.909081C7.89246 1.05049 7.6721 1.22221 7.5252 1.35353C7.51602 1.35353 7.51602 1.36363 7.50684 1.36363C7.34158 1.50504 7.24058 1.58585 7.12122 1.64645C7.02023 1.69696 6.87333 1.74746 6.65298 1.74746C6.43262 1.74746 6.28572 1.70706 6.18473 1.64645C6.06537 1.58585 5.96438 1.50504 5.79911 1.36363C5.78993 1.36363 5.78993 1.35353 5.78075 1.35353C5.62467 1.22221 5.4135 1.05049 5.13806 0.909081C4.83507 0.757566 4.49536 0.666656 4.07302 0.666656C3.65068 0.666656 3.31097 0.757566 3.00799 0.909081C2.73255 1.05049 2.5122 1.22221 2.36529 1.35353C2.35611 1.35353 2.35611 1.36363 2.34693 1.36363C2.18167 1.50504 2.08067 1.58585 1.96132 1.64645C1.86032 1.69696 1.71342 1.74746 1.49307 1.74746C1.27272 1.74746 1.12581 1.70706 1.02482 1.64645C0.914644 1.59595 0.813649 1.51514 0.666748 1.39393V3.20201C0.905463 3.29292 1.1809 3.33332 1.49307 3.33332C1.91541 3.33332 2.2643 3.24241 2.5581 3.0909Z" fill="#161721"/>
<path d="M2.5581 7.0909C2.83354 6.94948 3.05389 6.77777 3.2008 6.64645C3.20998 6.64645 3.20998 6.63635 3.21916 6.63635C3.38442 6.49494 3.48542 6.41413 3.60477 6.35353C3.70577 6.30302 3.85267 6.25251 4.07302 6.25251C4.29337 6.25251 4.44028 6.29292 4.54127 6.35353C4.66063 6.41413 4.76162 6.49494 4.92689 6.63635C4.93607 6.63635 4.93607 6.64645 4.94525 6.64645C5.10133 6.77777 5.3125 6.94948 5.58794 7.0909C5.89093 7.24241 6.23063 7.33332 6.65298 7.33332C7.07532 7.33332 7.41503 7.24241 7.71801 7.0909C7.99345 6.94948 8.2138 6.77777 8.3607 6.64645C8.36989 6.64645 8.36989 6.63635 8.37907 6.63635C8.54433 6.49494 8.64533 6.41413 8.76468 6.35353C8.86568 6.30302 9.01258 6.25251 9.23293 6.25251C9.45328 6.25251 9.60018 6.29292 9.70118 6.35353C9.82053 6.41413 9.92153 6.49494 10.0868 6.63635C10.096 6.63635 10.096 6.64645 10.1052 6.64645C10.2612 6.77777 10.4724 6.94948 10.7479 7.0909C11.0508 7.24241 11.3905 7.33332 11.8129 7.33332C12.1434 7.33332 12.4189 7.28282 12.6667 7.18181V5.36363C12.5015 5.50504 12.4005 5.58585 12.2811 5.64645C12.1801 5.69696 12.0332 5.74746 11.8129 5.74746C11.5925 5.74746 11.4456 5.70706 11.3446 5.64645C11.2253 5.58585 11.1243 5.50504 10.959 5.36363C10.9498 5.36363 10.9498 5.35353 10.9407 5.35353C10.7846 5.22221 10.5734 5.05049 10.298 4.90908C9.99498 4.75757 9.65527 4.66666 9.23293 4.66666C8.81059 4.66666 8.47088 4.75757 8.1679 4.90908C7.89246 5.05049 7.6721 5.22221 7.5252 5.35353C7.51602 5.35353 7.51602 5.36363 7.50684 5.36363C7.34158 5.50504 7.24058 5.58585 7.12122 5.64645C7.02023 5.69696 6.87333 5.74746 6.65298 5.74746C6.43262 5.74746 6.28572 5.70706 6.18473 5.64645C6.06537 5.58585 5.96438 5.50504 5.79911 5.36363C5.78993 5.36363 5.78993 5.35353 5.78075 5.35353C5.62467 5.22221 5.4135 5.05049 5.13806 4.90908C4.83507 4.75757 4.49536 4.66666 4.07302 4.66666C3.65068 4.66666 3.31097 4.75757 3.00799 4.90908C2.73255 5.05049 2.5122 5.22221 2.36529 5.35353C2.35611 5.35353 2.35611 5.36363 2.34693 5.36363C2.18167 5.50504 2.08067 5.58585 1.96132 5.64645C1.86032 5.69696 1.71342 5.74746 1.49307 5.74746C1.27272 5.74746 1.12581 5.70706 1.02482 5.64645C0.914644 5.59595 0.813649 5.51514 0.666748 5.39393V7.20201C0.905463 7.29292 1.1809 7.33332 1.49307 7.33332C1.91541 7.32322 2.2643 7.23231 2.5581 7.0909Z" fill="#161721"/>
<path d="M7.42137 9.35352C7.41233 9.35352 7.41233 9.36363 7.40329 9.36363C7.24053 9.50504 7.14106 9.58585 7.02351 9.64645C6.92404 9.69696 6.77937 9.74746 6.56235 9.74746C6.34533 9.74746 6.20066 9.70706 6.10119 9.64645C5.98364 9.58585 5.88418 9.50504 5.72141 9.36363C5.71237 9.36363 5.71237 9.35352 5.70333 9.35352C5.54961 9.22221 5.34163 9.0505 5.07036 8.90908C4.77197 8.75757 4.4374 8.66666 4.02145 8.66666C3.60551 8.66666 3.27094 8.75757 2.97254 8.90908C2.70127 9.0505 2.48426 9.22221 2.33958 9.35352C2.33054 9.35352 2.33054 9.36363 2.3215 9.36363C2.15873 9.50504 2.05927 9.58585 1.94172 9.64645C1.84225 9.69696 1.69757 9.74746 1.48056 9.74746C1.26354 9.74746 1.11886 9.70706 1.0194 9.64645C0.910891 9.59595 0.811425 9.51514 0.666748 9.39393V11.202C0.901849 11.2929 1.17312 11.3333 1.48056 11.3333C1.89651 11.3333 2.23107 11.2424 2.52947 11.0909C2.80074 10.9495 3.01776 10.7778 3.16243 10.6465C3.17147 10.6465 3.17147 10.6364 3.18052 10.6364C3.34328 10.4949 3.44274 10.4141 3.5603 10.3535C3.65976 10.303 3.80444 10.2525 4.02145 10.2525C4.23847 10.2525 4.38315 10.2929 4.48261 10.3535C4.60016 10.4141 4.69963 10.4949 4.86239 10.6364C4.87143 10.6364 4.87143 10.6465 4.88048 10.6465C5.0342 10.7778 5.24217 10.9495 5.51344 11.0909C5.81184 11.2424 6.1464 11.3333 6.56235 11.3333C6.75224 11.3333 6.92404 11.3131 7.07776 11.2828C7.17723 10.3434 7.49371 9.54544 8.00008 8.93938C7.75594 9.0707 7.56605 9.23231 7.42137 9.35352Z" fill="#161721"/>
<path d="M13.9487 8.00974V8.98362C13.3427 8.4772 12.5221 8.20452 11.5431 8.19478H11.5338C9.3986 8.19478 8.00932 9.49978 8 11.7008C8 13.9017 9.38928 15.197 11.5338 15.197C11.5431 15.197 11.5431 15.197 11.5524 15.197C12.5315 15.197 13.352 14.9243 13.958 14.4179V15.3333H16V8H13.9487V8.00974ZM14.014 11.8955C13.9207 11.8955 13.8275 11.9053 13.7343 11.915C13.2308 11.9734 12.7459 12.1877 12.3823 12.548L12.373 12.5578L12.3636 12.5675C11.9347 12.9863 11.7016 13.5609 11.7016 14.1549H11.3473C11.3473 13.5609 11.1142 12.9863 10.6853 12.5675L10.676 12.5578L10.6667 12.548C10.2378 12.1293 9.64103 11.8955 9.03496 11.8955V11.5547C9.64103 11.5547 10.2378 11.3209 10.6667 10.9022L10.676 10.8924L10.6853 10.8827C11.1142 10.4639 11.3473 9.88933 11.3473 9.29526H11.7016C11.7016 9.88933 11.9347 10.4639 12.3636 10.8827L12.373 10.8924L12.3823 10.9022C12.7459 11.2528 13.2214 11.4768 13.7343 11.5352C13.8275 11.5449 13.9207 11.5547 14.014 11.5547V11.8955Z" fill="#161721"/>
</g>
<defs>
<clipPath id="clip0_2000_566">
<rect width="16" height="16" fill="white"/>
</clipPath>
</defs>
</svg>
