<svg width="18" height="18" xmlns="http://www.w3.org/2000/svg" fill="none">
    <path fill-rule="evenodd" clip-rule="evenodd"
        d="m14.5687,4.76426c0.1302,0.13017 0.1302,0.34123 0,0.4714l-7.33332,7.33334c-0.06252,0.0625 -0.1473,0.0976 -0.23571,0.0976c-0.0884,0 -0.17319,-0.0351 -0.2357,-0.0976l-3.33333,-3.33334c-0.13018,-0.13017 -0.13018,-0.34123 0,-0.4714c0.13017,-0.13018 0.34123,-0.13018 0.4714,0l3.09763,3.09764l7.09763,-7.09764c0.1302,-0.13018 0.3412,-0.13018 0.4714,0z"
        fill="#000000" stroke="#000000" stroke-width="0.5" stroke-linecap="round" stroke-linejoin="round" id="svg_2" />
    <path id="svg_3"
        d="m0.5,3c0,-1.35845 1.14155,-2.5 2.5,-2.5l12,0c1.35845,0 2.5,1.14155 2.5,2.5l0,12c0,1.35845 -1.14155,2.5 -2.5,2.5l-12,0c-1.35845,0 -2.5,-1.14155 -2.5,-2.5l0,-12z"
        opacity="undefined" stroke="#000000" />

</svg>

