<svg width="24" height="24" viewBox="0 0 24 24" fill="none" xmlns="http://www.w3.org/2000/svg">
<path fill-rule="evenodd" clip-rule="evenodd" d="M21.5303 5.53034C21.8232 5.23744 21.8232 4.76257 21.5303 4.46968C21.2374 4.17678 20.7626 4.17678 20.4697 4.46968L11.0811 13.8582L8.6 10.55C8.35147 10.2186 7.88137 10.1515 7.55 10.4C7.21863 10.6485 7.15147 11.1186 7.4 11.45L10.3923 15.4397C10.4051 15.4574 10.4188 15.4747 10.4334 15.4914C10.4908 15.5577 10.5577 15.6117 10.6305 15.6529C10.7288 15.7086 10.8369 15.7403 10.9464 15.7481C11.0569 15.7561 11.1695 15.7397 11.2755 15.6978C11.3526 15.6674 11.4256 15.6238 11.4911 15.5669C11.508 15.5522 11.5242 15.537 11.5395 15.5212L21.5303 5.53034Z" fill="#161721"/>
<path fill-rule="evenodd" clip-rule="evenodd" d="M7.75 6.5C6.50736 6.5 5.5 7.50736 5.5 8.75V16.75C5.5 17.9926 6.50736 19 7.75 19H15.75C16.9926 19 18 17.9926 18 16.75V11.5312C18 11.117 18.3358 10.7812 18.75 10.7812C19.1642 10.7812 19.5 11.117 19.5 11.5312V16.75C19.5 18.8211 17.8211 20.5 15.75 20.5H7.75C5.67893 20.5 4 18.8211 4 16.75V8.75C4 6.67893 5.67893 5 7.75 5H13.75C14.1642 5 14.5 5.33579 14.5 5.75C14.5 6.16421 14.1642 6.5 13.75 6.5H7.75Z" fill="#161721"/>
</svg>
