<svg width="11" height="11" viewBox="0 0 11 11" fill="none" xmlns="http://www.w3.org/2000/svg">
<path fill-rule="evenodd" clip-rule="evenodd" d="M5.78237 1.00701C4.72072 1.00701 3.86008 1.83832 3.86008 2.8638C3.86008 3.88928 4.72072 4.72059 5.78237 4.72059C6.84402 4.72059 7.70466 3.88928 7.70466 2.8638C7.70466 1.83832 6.84402 1.00701 5.78237 1.00701ZM3.12388 2.8638C3.12388 1.44559 4.31413 0.295898 5.78237 0.295898C7.25061 0.295898 8.44086 1.44559 8.44086 2.8638C8.44086 4.28201 7.25061 5.4317 5.78237 5.4317C4.31413 5.4317 3.12388 4.28201 3.12388 2.8638ZM1.61215 7.68505C2.11071 7.20348 2.78691 6.93293 3.49198 6.93293H8.07276C8.77783 6.93293 9.45403 7.20348 9.95259 7.68505C10.4512 8.16663 10.7312 8.81978 10.7312 9.50083V9.60701C10.7312 9.80337 10.5664 9.96256 10.3631 9.96256C10.1599 9.96256 9.99505 9.80337 9.99505 9.60701V9.50083C9.99505 9.00838 9.79252 8.5361 9.43202 8.18789C9.07153 7.83967 8.58258 7.64404 8.07276 7.64404H3.49198C2.98216 7.64404 2.49322 7.83967 2.13272 8.18789C1.77222 8.5361 1.56969 9.00838 1.56969 9.50083V10.607C1.56969 10.8034 1.40489 10.9626 1.20159 10.9626C0.998299 10.9626 0.833496 10.8034 0.833496 10.607V9.50083C0.833496 8.81978 1.11359 8.16663 1.61215 7.68505Z" fill="#898989"/>
</svg>
