<svg width="24" height="24" viewBox="0 0 24 24" fill="none" xmlns="http://www.w3.org/2000/svg">
<path fill-rule="evenodd" clip-rule="evenodd" d="M20.3999 11.3C20.3999 11.5761 20.176 11.8 19.8999 11.8L4.0999 11.8C3.82376 11.8 3.5999 11.5761 3.5999 11.3C3.5999 11.0239 3.82376 10.8 4.0999 10.8L19.8999 10.8C20.176 10.8 20.3999 11.0239 20.3999 11.3Z" fill="#0C2739"/>
<path fill-rule="evenodd" clip-rule="evenodd" d="M11.1686 18.3379C10.982 18.5414 10.6657 18.5552 10.4622 18.3686L3.26218 11.7686C3.15887 11.6739 3.10005 11.5401 3.10005 11.4C3.10005 11.2598 3.15887 11.1261 3.26218 11.0314L10.4622 4.43142C10.6657 4.24482 10.982 4.25858 11.1686 4.46213C11.3552 4.66569 11.3415 4.98198 11.1379 5.16857L4.33999 11.4L11.1379 17.6314C11.3415 17.818 11.3552 18.1343 11.1686 18.3379Z" fill="#0C2739"/>
</svg>
