<svg width="20" height="20" viewBox="0 0 20 20" fill="none" xmlns="http://www.w3.org/2000/svg">
<path d="M17.3333 9.00016H4.03367L9.12633 4.1495C9.393 3.8955 9.40333 3.4735 9.14933 3.20683C8.89567 2.9405 8.47367 2.92983 8.20667 3.18383L2.39067 8.72383C2.139 8.97583 2 9.3105 2 9.66683C2 10.0228 2.139 10.3578 2.40233 10.6208L8.207 16.1495C8.336 16.2725 8.50133 16.3335 8.66667 16.3335C8.84267 16.3335 9.01867 16.2642 9.14967 16.1265C9.40367 15.8598 9.39333 15.4382 9.12667 15.1842L4.01267 10.3335H17.3333C17.7013 10.3335 18 10.0348 18 9.66683C18 9.29883 17.7013 9.00016 17.3333 9.00016V9.00016Z" fill="#0C2739"/>
</svg>
