<svg width="24" height="24" viewBox="0 0 24 24" fill="none" xmlns="http://www.w3.org/2000/svg">
<path fill-rule="evenodd" clip-rule="evenodd" d="M9.23441 6.28033C9.52731 5.98744 9.52731 5.51256 9.23441 5.21967C8.94152 4.92678 8.46665 4.92678 8.17375 5.21967L1.96967 11.4238C1.82322 11.5702 1.75 11.7621 1.75 11.9541C1.75 12.146 1.82322 12.338 1.96967 12.4844L8.17375 18.6885C8.46665 18.9814 8.94152 18.9814 9.23441 18.6885C9.52731 18.3956 9.52731 17.9207 9.23441 17.6279L4.31066 12.7041H21.5C21.9142 12.7041 22.25 12.3683 22.25 11.9541C22.25 11.5399 21.9142 11.2041 21.5 11.2041H4.31064L9.23441 6.28033Z" fill="#161721"/>
</svg>
