<svg width="20" height="20" viewBox="0 0 20 20" fill="none" xmlns="http://www.w3.org/2000/svg">
<line x1="19.8999" y1="11.3" x2="4.0999" y2="11.3" stroke="#0C2739" stroke-linecap="round"/>
<path d="M10.4622 18.3686C10.6657 18.5552 10.982 18.5414 11.1686 18.3379C11.3552 18.1343 11.3415 17.818 11.1379 17.6314L10.4622 18.3686ZM3.60005 11.4L3.26219 11.0314C3.15887 11.1261 3.10005 11.2598 3.10005 11.4C3.10005 11.5402 3.15887 11.6739 3.26219 11.7686L3.60005 11.4ZM11.1379 5.16858C11.3415 4.98198 11.3552 4.6657 11.1686 4.46214C10.982 4.25858 10.6657 4.24483 10.4622 4.43142L11.1379 5.16858ZM11.1379 17.6314L3.93791 11.0314L3.26219 11.7686L10.4622 18.3686L11.1379 17.6314ZM3.93791 11.7686L11.1379 5.16858L10.4622 4.43142L3.26219 11.0314L3.93791 11.7686Z" fill="#0C2739"/>
</svg>
