<svg width="24" height="24" viewBox="0 0 24 24" fill="none" xmlns="http://www.w3.org/2000/svg">
<path fill-rule="evenodd" clip-rule="evenodd" d="M12 2C12.4142 2 12.75 2.33579 12.75 2.75V3.06035C14.3578 3.23435 15.8015 3.96135 16.8891 5.04845C18.146 6.2947 18.92 8.02421 18.92 9.94V14.3424C20.0716 14.4625 20.97 15.4368 20.97 16.62C20.97 17.8842 19.9442 18.91 18.68 18.91H15.7591C15.415 20.6778 13.8608 22 12 22C10.1389 22 8.58661 20.6705 8.24157 18.91H5.32004C4.05582 18.91 3.03003 17.8842 3.03003 16.62C3.03003 15.4368 3.92851 14.4625 5.08002 14.3424V9.94C5.08002 6.37926 7.77847 3.43479 11.25 3.06022V2.75C11.25 2.33579 11.5858 2 12 2ZM12 4.53C11.9608 4.53 11.9224 4.527 11.8848 4.52121C8.94308 4.58266 6.58002 6.99182 6.58002 9.94V15.08C6.58002 15.4942 6.24423 15.83 5.83002 15.83H5.32004C4.88424 15.83 4.53003 16.1842 4.53003 16.62C4.53003 17.0558 4.88425 17.41 5.32004 17.41H18.68C19.1158 17.41 19.47 17.0558 19.47 16.62C19.47 16.1842 19.1158 15.83 18.68 15.83H18.17C17.7558 15.83 17.42 15.4942 17.42 15.08V9.94C17.42 8.43638 16.8145 7.08636 15.8321 6.1127L15.8297 6.11033C14.8695 5.15014 13.5619 4.55144 12.1152 4.52121C12.0776 4.527 12.0392 4.53 12 4.53ZM12 20.5C10.9766 20.5 10.1062 19.8384 9.79362 18.92H14.2077C13.8965 19.8422 13.026 20.5 12 20.5Z" fill="#161721"/>
</svg>
