<svg width="24" height="24" viewBox="0 0 24 24" fill="none" xmlns="http://www.w3.org/2000/svg">
<path d="M13.5 4.18C13.224 4.18 13 3.956 13 3.68V2C13 1.449 12.551 1 12 1C11.449 1 11 1.449 11 2V3.68C11 3.956 10.776 4.18 10.5 4.18C10.224 4.18 10 3.957 10 3.68V2C10 0.897 10.897 0 12 0C13.103 0 14 0.897 14 2V3.68C14 3.957 13.776 4.18 13.5 4.18Z" fill="#0C2739"/>
<path d="M12 24C10.07 24 8.5 22.43 8.5 20.5C8.5 20.224 8.724 20 9 20C9.276 20 9.5 20.224 9.5 20.5C9.5 21.878 10.622 23 12 23C13.378 23 14.5 21.878 14.5 20.5C14.5 20.224 14.724 20 15 20C15.276 20 15.5 20.224 15.5 20.5C15.5 22.43 13.93 24 12 24Z" fill="#0C2739"/>
<path d="M20.5 21H3.5C2.673 21 2 20.327 2 19.5C2 19.061 2.191 18.646 2.525 18.36C4.101 17.028 5 15.09 5 13.038V10C5 6.14 8.14 3 12 3C15.86 3 19 6.14 19 10V13.038C19 15.091 19.899 17.028 21.467 18.353C21.809 18.646 22 19.061 22 19.5C22 20.327 21.328 21 20.5 21ZM12 4C8.691 4 6 6.691 6 10V13.038C6 15.386 4.972 17.601 3.179 19.117C3.064 19.215 3 19.354 3 19.5C3 19.776 3.224 20 3.5 20H20.5C20.776 20 21 19.776 21 19.5C21 19.354 20.936 19.215 20.825 19.12C19.029 17.601 18 15.385 18 13.038V10C18 6.691 15.309 4 12 4Z" fill="#0C2739"/>
</svg>
