<svg width="24" height="24" viewBox="0 0 24 24" fill="none" xmlns="http://www.w3.org/2000/svg">
<path fill-rule="evenodd" clip-rule="evenodd" d="M9.16286 15.677C9.16286 14.4349 8.56008 13.3337 7.6311 12.6498C6.97622 12.2995 6.26896 12.0537 5.53713 11.9228C5.49375 11.9213 5.45018 11.9205 5.40643 11.9205C3.33181 11.9205 1.64999 13.6023 1.64999 15.677C1.64999 17.7516 3.33181 19.4334 5.40643 19.4334C7.48105 19.4334 9.16286 17.7516 9.16286 15.677ZM0.149994 15.677C0.149994 14.4803 0.549864 13.3771 1.22327 12.4935L6.64059 3.83449C7.96631 2.34219 10.5198 3.28139 10.454 5.23797L10.4877 6.94412C11.5395 6.40085 12.8109 6.41276 13.8531 6.97985L13.9699 5.22988C13.9042 3.28459 16.4577 2.3508 17.7834 3.8345L22.7287 12.4317C23.3895 13.3106 23.7811 14.4033 23.7811 15.5876C23.7811 18.4906 21.4277 20.844 18.5246 20.844C15.6702 20.844 13.3472 18.5687 13.2702 15.7329L13.2681 15.7375L13.2697 15.7141C13.2687 15.6721 13.2682 15.6299 13.2682 15.5876C13.2682 15.3043 13.2906 15.0262 13.3338 14.7551L13.5135 12.0636C12.6732 11.3218 11.3619 11.3771 10.5919 12.2297L10.6537 15.3635C10.6598 15.4672 10.6629 15.5717 10.6629 15.677C10.6629 15.7113 10.6625 15.7456 10.6619 15.7797L10.6628 15.8272L10.6609 15.8232C10.5834 18.6586 8.26058 20.9334 5.40643 20.9334C2.50338 20.9334 0.149994 18.58 0.149994 15.677ZM10.556 10.4102C11.5186 9.93911 12.6538 9.92487 13.6268 10.3675L13.7323 8.78762C12.8963 7.79137 11.3509 7.79805 10.5244 8.80766L10.556 10.4102ZM5.70018 10.4286C6.71327 10.4844 7.6499 10.8271 8.4302 11.3768C8.6531 11.4995 8.87083 11.6323 9.08263 11.7749L8.95353 5.22756L8.95488 5.18761C8.96252 4.96017 8.8434 4.75817 8.55113 4.65063C8.28531 4.55282 8.02247 4.5948 7.82739 4.76567L4.3572 10.3124C4.80914 10.3157 5.25818 10.3549 5.70018 10.4286ZM19.6908 10.1587C18.0442 10.1238 16.4312 10.5819 15.0578 11.4509L15.4716 5.2546L15.4691 5.17923C15.4618 4.96312 15.5745 4.76318 15.8702 4.65502C16.1314 4.55945 16.3891 4.59741 16.5824 4.75499L19.6908 10.1587ZM18.5246 19.344C16.45 19.344 14.7682 17.6622 14.7682 15.5876C14.7682 13.5129 16.45 11.8311 18.5246 11.8311C20.5993 11.8311 22.2811 13.5129 22.2811 15.5876C22.2811 17.6622 20.5993 19.344 18.5246 19.344ZM18.681 12.8204C20.2451 12.8204 21.4777 14.1191 21.4777 15.6757C21.4777 16.0899 21.1419 16.4257 20.7277 16.4257C20.3135 16.4257 19.9777 16.0899 19.9777 15.6757C19.9777 14.9073 19.3771 14.3204 18.681 14.3204C18.2668 14.3204 17.931 13.9846 17.931 13.5704C17.931 13.1562 18.2668 12.8204 18.681 12.8204ZM8.2281 15.6833C8.2281 14.1251 6.99803 12.8203 5.43139 12.8203C5.01718 12.8203 4.68139 13.1561 4.68139 13.5703C4.68139 13.9846 5.01718 14.3203 5.43139 14.3203C6.12496 14.3203 6.7281 14.9081 6.7281 15.6833C6.7281 16.0975 7.06389 16.4333 7.4781 16.4333C7.89232 16.4333 8.2281 16.0975 8.2281 15.6833Z" fill="#161721"/>
</svg>
