<svg width="24" height="24" viewBox="0 0 24 24" fill="none" xmlns="http://www.w3.org/2000/svg">
<g clip-path="url(#clip0_2180_145555)">
<path fill-rule="evenodd" clip-rule="evenodd" d="M14.3778 8H9.62206L9.38639 7.33325C9.11136 6.5551 8.36919 6 7.49994 6C6.59875 6 5.83435 6.59681 5.58535 7.41904L5.43033 7.93093L4.9185 8.08616C4.42787 8.23496 3.99676 8.57129 3.72157 9.04071L2.96445 10.4317C3.58623 10.1543 4.27507 10 4.99994 10C7.23125 10 9.12119 11.4616 9.76458 13.4796L10.0084 13.8143C10.1021 12.7968 10.958 12 11.9999 12C13.0419 12 13.8977 12.7968 13.9914 13.8143L14.2353 13.4796C14.8787 11.4616 16.7686 10 18.9999 10C19.7676 10 20.4948 10.173 21.1448 10.4821L20.3764 9.03689C20.0875 8.5462 19.628 8.20167 19.1084 8.06542L18.574 7.92531L18.4082 7.3984C18.1526 6.58671 17.3935 6 16.4999 6C15.6307 6 14.8885 6.5551 14.6135 7.33325L14.3778 8ZM21.2501 8.55L23.3501 12.5L23.3336 12.5044L23.3355 12.5078C23.346 12.526 23.3564 12.5443 23.3667 12.5627C23.3767 12.5807 23.3867 12.5986 23.3965 12.6167C23.5366 12.8746 23.6547 13.1463 23.7482 13.4291C23.9115 13.9231 23.9999 14.4512 23.9999 15C23.9999 17.7614 21.7614 20 18.9999 20C16.8186 20 14.9635 18.6031 14.2804 16.6551C14.1484 16.2788 14.0602 15.882 14.0218 15.4707C13.789 15.7902 13.4823 16.0524 13.1268 16.2323C12.7882 16.4035 12.4053 16.5 11.9999 16.5C11.5946 16.5 11.2117 16.4035 10.8731 16.2323C10.5176 16.0524 10.2109 15.7902 9.97807 15.4707C9.97681 15.4842 9.9755 15.4977 9.97412 15.5112C9.93382 15.9081 9.84712 16.2912 9.71952 16.6551C9.03641 18.6031 7.18131 20 4.99994 20C2.23852 20 -6.10352e-05 17.7614 -6.10352e-05 15C-6.10352e-05 13.9423 0.32833 12.9614 0.888711 12.1535L2.85013 8.55C3.2499 7.85949 3.88742 7.35389 4.62827 7.1292C5.00143 5.89701 6.14593 5 7.49994 5C8.80616 5 9.9174 5.83481 10.3292 7H13.6706C14.0825 5.83481 15.1937 5 16.4999 5C17.8425 5 18.9791 5.88196 19.362 7.09812C20.1496 7.30463 20.8307 7.82554 21.2501 8.55ZM22.9965 14.832C22.9084 12.7008 21.1528 11 18.9999 11C16.7908 11 14.9999 12.7909 14.9999 15C14.9999 16.1875 15.5174 17.2542 16.3392 17.9868C16.9562 18.5367 17.7447 18.8984 18.6143 18.9816C18.7412 18.9938 18.8698 19 18.9999 19C21.2091 19 22.9999 17.2091 22.9999 15C22.9999 14.9437 22.9988 14.8877 22.9965 14.832ZM0.999939 15C0.999939 17.2091 2.7908 19 4.99994 19C7.20908 19 8.99994 17.2091 8.99994 15C8.99994 12.7909 7.20908 11 4.99994 11C2.7908 11 0.999939 12.7909 0.999939 15ZM11.9999 15C12.5522 15 12.9999 14.5523 12.9999 14C12.9999 13.4477 12.5522 13 11.9999 13C11.4477 13 10.9999 13.4477 10.9999 14C10.9999 14.5523 11.4477 15 11.9999 15Z" fill="#031533"/>
<path fill-rule="evenodd" clip-rule="evenodd" d="M7.45448 14C7.75573 14 7.99994 14.2442 7.99994 14.5455C7.99994 16.4533 6.45329 18 4.54539 18C4.24415 18 3.99994 17.7558 3.99994 17.4545C3.99994 17.1533 4.24415 16.9091 4.54539 16.9091C5.85079 16.9091 6.90903 15.8509 6.90903 14.5455C6.90903 14.2442 7.15324 14 7.45448 14Z" fill="#031533"/>
<path fill-rule="evenodd" clip-rule="evenodd" d="M21.4545 14C21.7557 14 21.9999 14.2442 21.9999 14.5455C21.9999 16.4533 20.4533 18 18.5454 18C18.2441 18 17.9999 17.7558 17.9999 17.4545C17.9999 17.1533 18.2441 16.9091 18.5454 16.9091C19.8508 16.9091 20.909 15.8509 20.909 14.5455C20.909 14.2442 21.1532 14 21.4545 14Z" fill="#031533"/>
</g>
<defs>
<clipPath id="clip0_2180_145555">
<rect width="24" height="24" fill="white"/>
</clipPath>
</defs>
</svg>
