<svg width="24" height="24" viewBox="0 0 24 24" fill="none" xmlns="http://www.w3.org/2000/svg">
<path fill-rule="evenodd" clip-rule="evenodd" d="M4.62834 7.12909C5.00153 5.89696 6.146 5 7.49998 5C8.80618 5 9.91741 5.83479 10.3293 6.99996H13.6706C14.0825 5.83479 15.1937 5 16.4999 5C17.8425 5 18.9791 5.88196 19.362 7.09812C20.1495 7.30466 20.8306 7.82555 21.25 8.54996L23.35 12.5L23.333 12.5033C23.7572 13.238 24 14.0907 24 15C24 17.7614 21.7614 20 19 20C16.3973 20 14.2591 18.0114 14.0218 15.4708C13.5673 16.0946 12.831 16.5001 12 16.5001C11.169 16.5001 10.4327 16.0946 9.97813 15.4707C9.7409 18.0114 7.60268 20 5 20C2.23858 20 0 17.7614 0 15C0 13.9431 0.327932 12.9628 0.887597 12.1553L2.84998 8.54996C3.24979 7.85938 3.88739 7.35375 4.62834 7.12909ZM13.0001 14C13.0001 14.5523 12.5524 15 12.0001 15C11.4479 15 11.0001 14.5523 11.0001 14C11.0001 13.4477 11.4479 13 12.0001 13C12.5524 13 13.0001 13.4477 13.0001 14ZM19.0003 18.5C20.9333 18.5 22.5003 16.933 22.5003 15C22.5003 13.067 20.9333 11.5 19.0003 11.5C17.0673 11.5 15.5003 13.067 15.5003 15C15.5003 16.933 17.0673 18.5 19.0003 18.5ZM8.50015 15.0001C8.50015 16.9331 6.93314 18.5001 5.00015 18.5001C3.06715 18.5001 1.50015 16.9331 1.50015 15.0001C1.50015 13.0671 3.06715 11.5001 5.00015 11.5001C6.93314 11.5001 8.50015 13.0671 8.50015 15.0001Z" fill="#0C2739"/>
</svg>
