<svg width="24" height="24" viewBox="0 0 24 24" fill="none" xmlns="http://www.w3.org/2000/svg">
<path d="M2.64906 2.79864C2.55553 2.79743 2.46288 2.81671 2.37759 2.85513C2.29231 2.89354 2.21648 2.95016 2.15541 3.02101C2.09434 3.09186 2.04953 3.17522 2.02411 3.26524C1.99869 3.35526 1.99329 3.44974 2.00829 3.54207L4.7285 20.0555C4.76238 20.2575 4.86639 20.4412 5.02225 20.5742C5.17811 20.7073 5.37586 20.7811 5.58076 20.7828H18.6307C18.7842 20.7848 18.9334 20.7315 19.051 20.6327C19.1686 20.5339 19.2468 20.3961 19.2714 20.2445L21.9917 3.54527C22.0066 3.45295 22.0012 3.35847 21.9758 3.26847C21.9503 3.17847 21.9055 3.09513 21.8444 3.02429C21.7834 2.95346 21.7075 2.89686 21.6223 2.85845C21.537 2.82005 21.4443 2.80078 21.3508 2.802L2.64906 2.79864ZM14.1034 14.7335H9.93815L8.81035 8.84141H15.1126L14.1034 14.7335Z" fill="#161721"/>
<path d="M21.1102 8.83374H15.1011L14.0926 14.7212H9.93079L5.0166 20.5542C5.17236 20.6889 5.37094 20.7637 5.57683 20.7654H18.6196C18.773 20.7674 18.9221 20.7142 19.0396 20.6155C19.1571 20.5168 19.2353 20.3791 19.2599 20.2276L21.1103 8.83374H21.1102Z" fill="#161721"/>
</svg>
