<svg width="24" height="24" viewBox="0 0 24 24" fill="none" xmlns="http://www.w3.org/2000/svg">
<g clip-path="url(#clip0_2_1158)">
<path d="M0.778819 1.00006C0.666585 0.998613 0.555395 1.02175 0.453056 1.06785C0.350717 1.11395 0.259712 1.1819 0.186432 1.26692C0.113151 1.35194 0.0593725 1.45197 0.0288723 1.55999C-0.00162793 1.66801 -0.00811005 1.7814 0.0098812 1.89219L3.27416 21.7084C3.31482 21.9509 3.43963 22.1713 3.62667 22.331C3.8137 22.4906 4.051 22.5792 4.29688 22.5812H19.9569C20.1412 22.5836 20.3202 22.5196 20.4613 22.4011C20.6024 22.2825 20.6963 22.1172 20.7257 21.9353L23.9901 1.89603C24.0081 1.78525 24.0016 1.67187 23.971 1.56387C23.9405 1.45587 23.8867 1.35585 23.8134 1.27085C23.7402 1.18585 23.6491 1.11793 23.5468 1.07184C23.4445 1.02576 23.3333 1.00264 23.2211 1.0041L0.778819 1.00006ZM14.5241 15.3221H9.52579L8.17241 8.25144H15.7352L14.5241 15.3221Z" fill="#2684FF"/>
<path d="M22.9325 8.24219H15.7216L14.5114 15.3072H9.51712L3.62006 22.3068C3.80697 22.4684 4.04526 22.5583 4.29234 22.5603H19.9437C20.1279 22.5627 20.3068 22.4989 20.4478 22.3804C20.5888 22.2619 20.6826 22.0968 20.7121 21.915L22.9327 8.24219H22.9325Z" fill="url(#paint0_linear_2_1158)"/>
</g>
<defs>
<linearGradient id="paint0_linear_2_1158" x1="24.5999" y1="10.2207" x2="16.2702" y2="22.048" gradientUnits="userSpaceOnUse">
<stop offset="0.18" stop-color="#0052CC"/>
<stop offset="1" stop-color="#2684FF"/>
</linearGradient>
<clipPath id="clip0_2_1158">
<rect width="24" height="24" fill="white"/>
</clipPath>
</defs>
</svg>
