<svg width="24" height="24" viewBox="0 0 24 24" fill="none" xmlns="http://www.w3.org/2000/svg">
<path fill-rule="evenodd" clip-rule="evenodd" d="M6.76003 3C6.34028 3 6 3.35028 6 3.78238V11.0846C6 11.0905 6.00006 11.0964 6.00019 11.1023C6.00006 11.1081 6 11.1139 6 11.1197V20.24C6 20.6597 6.33347 21 6.74483 21H13.2C16.0795 21 18.4138 18.6181 18.4138 15.6798C18.4138 13.458 17.079 11.5542 15.183 10.758C16.0767 9.9456 16.6404 8.7573 16.6404 7.43349C16.6404 4.98494 14.7121 3 12.3336 3H6.76003ZM7.52005 10.3022V4.56476H12.3336C13.8726 4.56476 15.1203 5.84913 15.1203 7.43349C15.1203 9.01784 13.8726 10.3022 12.3336 10.3022H7.52005ZM7.48965 19.4799V11.8797H13.2C15.2568 11.8797 16.9241 13.5811 16.9241 15.6798C16.9241 17.7786 15.2568 19.4799 13.2 19.4799H7.48965Z" fill="#161721"/>
</svg>
