<svg width="17" height="16" viewBox="0 0 17 16" fill="none" xmlns="http://www.w3.org/2000/svg">
<path d="M10.5466 4.81323C10.2704 4.81323 10.0466 5.03709 10.0466 5.31323C10.0466 5.58938 10.2704 5.81323 10.5466 5.81323H12.6199C12.8961 5.81323 13.1199 5.58938 13.1199 5.31323C13.1199 5.03709 12.8961 4.81323 12.6199 4.81323H10.5466Z" fill="currentColor"/>
<path d="M10.0466 8.07324C10.0466 7.7971 10.2704 7.57324 10.5466 7.57324H12.6199C12.8961 7.57324 13.1199 7.7971 13.1199 8.07324C13.1199 8.34938 12.8961 8.57324 12.6199 8.57324H10.5466C10.2704 8.57324 10.0466 8.34938 10.0466 8.07324Z" fill="currentColor"/>
<path d="M10.5466 10.3399C10.2704 10.3399 10.0466 10.5638 10.0466 10.8399C10.0466 11.1161 10.2704 11.3399 10.5466 11.3399H12.6199C12.8961 11.3399 13.1199 11.1161 13.1199 10.8399C13.1199 10.5638 12.8961 10.3399 12.6199 10.3399H10.5466Z" fill="currentColor"/>
<path fill-rule="evenodd" clip-rule="evenodd" d="M6.55593 1.63401C7.54686 1.92577 8.25999 2.4238 8.68578 2.77987H13.2933C14.3196 2.77987 15.1666 3.61389 15.1666 4.64653V11.4999C15.1666 12.5294 14.3227 13.3732 13.2933 13.3732H8.50767C8.5025 13.3733 8.49733 13.3733 8.49217 13.3732H3.70658C2.67711 13.3732 1.83325 12.5294 1.83325 11.4999V4.64653C1.83325 3.61705 2.67711 2.77319 3.70658 2.77319H3.89325V2.57989C3.89325 1.92053 4.43101 1.37011 5.11049 1.39354C5.52799 1.40819 6.02412 1.4739 6.55593 1.63401ZM4.89325 2.57989C4.89325 2.46592 4.98219 2.38971 5.07603 2.39295C5.41805 2.40497 5.82819 2.45911 6.26897 2.59195L6.27217 2.5929C7.06012 2.82465 7.63874 3.21514 7.99992 3.51033V11.5209C7.65963 11.2226 7.22498 10.9262 6.68297 10.704L6.68189 10.7035C6.07564 10.4565 5.50352 10.3758 5.06489 10.3539L5.05809 10.3536C4.97243 10.3505 4.89325 10.2765 4.89325 10.1732V2.57989ZM8.99992 12.3732V3.77987H13.2933C13.7736 3.77987 14.1666 4.1725 14.1666 4.64653V11.4999C14.1666 11.9771 13.7704 12.3732 13.2933 12.3732H8.99992ZM7.45084 12.3732C7.16768 12.1051 6.7902 11.8289 6.30413 11.6294C5.83181 11.4371 5.37861 11.371 5.01782 11.3528C4.37212 11.3272 3.89325 10.7888 3.89325 10.1732V3.77319H3.70658C3.22939 3.77319 2.83325 4.16933 2.83325 4.64653V11.4999C2.83325 11.9771 3.22939 12.3732 3.70658 12.3732H7.45084Z" fill="currentColor"/>
</svg>
