<svg width="24" height="24" viewBox="0 0 24 24" fill="none" xmlns="http://www.w3.org/2000/svg">
<path fill-rule="evenodd" clip-rule="evenodd" d="M8 3.75C6.75736 3.75 5.75 4.75736 5.75 6V19.5426L11.5641 15.3897C11.8248 15.2034 12.1752 15.2034 12.4359 15.3897L18.25 19.5426V6C18.25 4.75736 17.2426 3.75 16 3.75H8ZM4.25 6C4.25 3.92893 5.92893 2.25 8 2.25H16C18.0711 2.25 19.75 3.92893 19.75 6V21C19.75 21.2809 19.593 21.5383 19.3432 21.6669C19.0934 21.7954 18.7927 21.7736 18.5641 21.6103L12 16.9217L5.43593 21.6103C5.20732 21.7736 4.90662 21.7954 4.65681 21.6669C4.40701 21.5383 4.25 21.2809 4.25 21V6Z" fill="#161721"/>
</svg>
