<svg width="24" height="24" viewBox="0 0 24 24" fill="none" xmlns="http://www.w3.org/2000/svg">
<path fill-rule="evenodd" clip-rule="evenodd" d="M9.5 5C9.5 5.55228 9.05228 6 8.5 6C7.94772 6 7.5 5.55228 7.5 5C7.5 4.44772 7.94772 4 8.5 4C9.05228 4 9.5 4.44772 9.5 5ZM9.25 7.38555C10.2643 7.06698 11 6.11941 11 5C11 3.61929 9.88071 2.5 8.5 2.5C7.11929 2.5 6 3.61929 6 5C6 6.11941 6.73572 7.06698 7.75 7.38555V16.6145C6.73572 16.933 6 17.8806 6 19C6 20.3807 7.11929 21.5 8.5 21.5C9.88071 21.5 11 20.3807 11 19C11 17.8806 10.2643 16.933 9.25 16.6145V15C9.25 13.7574 10.2574 12.75 11.5 12.75H13.5C15.0188 12.75 16.25 11.5188 16.25 10V7.38555C17.2643 7.06698 18 6.11941 18 5C18 3.61929 16.8807 2.5 15.5 2.5C14.1193 2.5 13 3.61929 13 5C13 6.11941 13.7357 7.06698 14.75 7.38555V10C14.75 10.6904 14.1904 11.25 13.5 11.25H11.5C10.6558 11.25 9.87675 11.529 9.25 11.9997V7.38555ZM15.5 6C16.0523 6 16.5 5.55228 16.5 5C16.5 4.44772 16.0523 4 15.5 4C14.9477 4 14.5 4.44772 14.5 5C14.5 5.55228 14.9477 6 15.5 6ZM9.5 19C9.5 19.5523 9.05228 20 8.5 20C7.94772 20 7.5 19.5523 7.5 19C7.5 18.4477 7.94772 18 8.5 18C9.05228 18 9.5 18.4477 9.5 19Z" fill="#161721"/>
</svg>
