<svg width="24" height="24" viewBox="0 0 24 24" fill="none" xmlns="http://www.w3.org/2000/svg">
<path fill-rule="evenodd" clip-rule="evenodd" d="M11.5907 6.14001L12.9503 7.49968C13.2432 7.79257 13.2432 8.26745 12.9503 8.56034C12.6575 8.85324 12.1826 8.85324 11.8897 8.56035L9.24967 5.92035C9.15126 5.82193 9.08592 5.70298 9.05364 5.57728C9.02587 5.46916 9.02257 5.35606 9.04373 5.24675C9.07119 5.10493 9.13983 4.9695 9.24967 4.85967L11.8897 2.21967C12.1826 1.92678 12.6575 1.92678 12.9503 2.21967C13.2432 2.51257 13.2432 2.98744 12.9503 3.28033L11.5907 4.64001L15.77 4.64001C17.7442 4.64001 19.35 6.24579 19.35 8.22001V17.1482C20.3123 17.4961 21 18.4177 21 19.5C21 20.8807 19.8807 22 18.5 22C17.1193 22 16 20.8807 16 19.5C16 18.3441 16.7844 17.3714 17.85 17.0853V8.22001C17.85 7.07423 16.9158 6.14001 15.77 6.14001L11.5907 6.14001ZM18.4051 18.5044C17.8973 18.5522 17.5 18.9797 17.5 19.5C17.5 20.0523 17.9477 20.5 18.5 20.5C19.0523 20.5 19.5 20.0523 19.5 19.5C19.5 19.0197 19.1614 18.6184 18.7098 18.522C18.674 18.5273 18.6373 18.53 18.6 18.53C18.5326 18.53 18.4672 18.5211 18.4051 18.5044ZM8 19.5C8 18.3806 7.26428 17.433 6.25 17.1144L6.25 8.88553C7.26428 8.56697 8 7.6194 8 6.49998C8 5.11927 6.88071 3.99998 5.5 3.99998C4.11929 3.99998 3 5.11927 3 6.49998C3 7.6194 3.73572 8.56697 4.75 8.88553L4.75 17.1144C3.73572 17.433 3 18.3806 3 19.5C3 20.8807 4.11929 22 5.5 22C6.88071 22 8 20.8807 8 19.5ZM5.5 18.5C6.05228 18.5 6.5 18.9477 6.5 19.5C6.5 20.0523 6.05228 20.5 5.5 20.5C4.94772 20.5 4.5 20.0523 4.5 19.5C4.5 18.9477 4.94772 18.5 5.5 18.5ZM6.5 6.49998C6.5 5.9477 6.05228 5.49998 5.5 5.49998C4.94772 5.49998 4.5 5.9477 4.5 6.49998C4.5 7.05227 4.94772 7.49998 5.5 7.49998C6.05228 7.49998 6.5 7.05227 6.5 6.49998Z" fill="#161721"/>
</svg>
