<svg width="20" height="20" viewBox="0 0 20 20" fill="none" xmlns="http://www.w3.org/2000/svg">
<path fill-rule="evenodd" clip-rule="evenodd" d="M7.55 3.775C7.55 4.67909 6.87407 5.42531 5.99999 5.53588L5.99999 12.7933L6.32021 11.8326C6.63545 10.8869 7.51306 10.243 8.50979 10.2261L12.043 10.1662C12.5394 10.1578 13.0057 9.92624 13.3125 9.53582L13.5299 9.25911C13.6898 9.05553 13.7996 8.81717 13.8504 8.56329L14.1553 7.03883C13.4806 6.78743 13 6.13734 13 5.37501C13 4.3947 13.7947 3.60001 14.775 3.60001C15.7553 3.60001 16.55 4.3947 16.55 5.37501C16.55 6.33112 15.794 7.11067 14.8472 7.14856L14.5368 8.70057C14.4645 9.06215 14.3081 9.40164 14.0803 9.69159L13.8629 9.9683C13.426 10.5243 12.7619 10.8541 12.0549 10.8661L8.52166 10.926C7.82183 10.9378 7.20563 11.3899 6.98429 12.0539L6.45702 13.6358C7.09882 13.9031 7.55 14.5364 7.55 15.275C7.55 16.2553 6.75531 17.05 5.775 17.05C4.79469 17.05 4 16.2553 4 15.275C4 14.4592 4.55033 13.772 5.29999 13.5643L5.29999 5.48573C4.55033 5.27802 4 4.59078 4 3.775C4 2.79469 4.79469 2 5.775 2C6.75531 2 7.55 2.79469 7.55 3.775ZM5.775 4.88333C6.38712 4.88333 6.88333 4.38712 6.88333 3.775C6.88333 3.16288 6.38712 2.66667 5.775 2.66667C5.16288 2.66667 4.66667 3.16288 4.66667 3.775C4.66667 4.38712 5.16288 4.88333 5.775 4.88333ZM14.775 6.48334C15.3871 6.48334 15.8833 5.98712 15.8833 5.37501C15.8833 4.76289 15.3871 4.26667 14.775 4.26667C14.1629 4.26667 13.6667 4.76289 13.6667 5.37501C13.6667 5.98712 14.1629 6.48334 14.775 6.48334ZM6.88333 15.275C6.88333 15.8871 6.38712 16.3833 5.775 16.3833C5.16288 16.3833 4.66667 15.8871 4.66667 15.275C4.66667 14.6629 5.16288 14.1667 5.775 14.1667C6.38712 14.1667 6.88333 14.6629 6.88333 15.275Z" fill="#0C2739"/>
</svg>
