<svg width="24" height="24" viewBox="0 0 24 24" fill="none" xmlns="http://www.w3.org/2000/svg">
<path fill-rule="evenodd" clip-rule="evenodd" d="M6.5999 4.2C6.5999 3.53726 7.13716 3 7.7999 3C8.46264 3 8.9999 3.53726 8.9999 4.2C8.9999 4.86274 8.46264 5.4 7.7999 5.4C7.13716 5.4 6.5999 4.86274 6.5999 4.2ZM7.7999 1.8C6.47442 1.8 5.3999 2.87452 5.3999 4.2C5.3999 5.31832 6.16479 6.258 7.19995 6.52441V17.4756C6.16479 17.742 5.3999 18.6817 5.3999 19.8C5.3999 21.1255 6.47442 22.2 7.7999 22.2C9.12539 22.2 10.1999 21.1255 10.1999 19.8C10.1999 18.6817 9.43506 17.7421 8.39995 17.4756V15.6C8.39995 14.6059 9.20579 13.8 10.1999 13.8H13.2012C14.8585 13.8 16.2 12.4564 16.2 10.8V6.52438C17.2351 6.25794 17.9999 5.31829 17.9999 4.2C17.9999 2.87452 16.9254 1.8 15.5999 1.8C14.2744 1.8 13.1999 2.87452 13.1999 4.2C13.1999 5.31832 13.9648 6.258 15 6.52441V10.8C15 11.7945 14.1949 12.6 13.2012 12.6H10.1999C9.52454 12.6 8.90132 12.8232 8.39995 13.1997V6.52438C9.43506 6.25794 10.1999 5.31829 10.1999 4.2C10.1999 2.87452 9.12539 1.8 7.7999 1.8ZM14.3999 4.2C14.3999 3.53726 14.9372 3 15.5999 3C16.2626 3 16.7999 3.53726 16.7999 4.2C16.7999 4.86274 16.2626 5.4 15.5999 5.4C14.9372 5.4 14.3999 4.86274 14.3999 4.2ZM6.5999 19.8C6.5999 19.1373 7.13716 18.6 7.7999 18.6C8.46264 18.6 8.9999 19.1373 8.9999 19.8C8.9999 20.4627 8.46264 21 7.7999 21C7.13716 21 6.5999 20.4627 6.5999 19.8Z" fill="#0C2739"/>
</svg>
