<svg width="24" height="24" viewBox="0 0 24 24" fill="none" xmlns="http://www.w3.org/2000/svg">
<path fill-rule="evenodd" clip-rule="evenodd" d="M5.03223 2.63214C5.50107 2.16329 6.13696 1.8999 6.8 1.8999H14.8C14.9519 1.8999 15.0955 1.96895 15.1904 2.08755L19.9904 8.08755C20.0614 8.17621 20.1 8.28637 20.1 8.3999V19.1999C20.1 19.8629 19.8366 20.4988 19.3678 20.9677C18.8989 21.4365 18.263 21.6999 17.6 21.6999H6.8C6.13696 21.6999 5.50107 21.4365 5.03223 20.9677C4.56339 20.4988 4.3 19.8629 4.3 19.1999V4.3999C4.3 3.73686 4.56339 3.10098 5.03223 2.63214ZM6.8 2.8999C6.40217 2.8999 6.02064 3.05794 5.73934 3.33924C5.45803 3.62055 5.3 4.00208 5.3 4.3999V19.1999C5.3 19.5977 5.45803 19.9793 5.73934 20.2606C6.02064 20.5419 6.40217 20.6999 6.8 20.6999H17.6C17.9978 20.6999 18.3794 20.5419 18.6607 20.2606C18.942 19.9793 19.1 19.5977 19.1 19.1999V8.8999H14.7996C14.667 8.8999 14.5398 8.84722 14.446 8.75344C14.3523 8.65967 14.2996 8.53248 14.2996 8.39987L14.3 2.8999H6.8ZM15.2999 3.82518L18.5597 7.8999H15.2996L15.2999 3.82518Z" fill="#0C2739"/>
<path fill-rule="evenodd" clip-rule="evenodd" d="M12.5335 11.4668V9.16676C12.5335 8.8538 12.2798 8.6001 11.9668 8.6001C11.6538 8.6001 11.4001 8.8538 11.4001 9.16676L11.4001 11.4668L9.16667 11.4668C8.85371 11.4668 8.6 11.7205 8.6 12.0334C8.6 12.3464 8.85371 12.6001 9.16667 12.6001H11.4001V14.8334C11.4001 15.1464 11.6538 15.4001 11.9668 15.4001C12.2798 15.4001 12.5335 15.1464 12.5335 14.8334V12.6001L14.8333 12.6001C15.1463 12.6001 15.4 12.3464 15.4 12.0334C15.4 11.7205 15.1463 11.4668 14.8333 11.4668L12.5335 11.4668ZM8.2667 16.8334C8.2667 16.5205 8.52041 16.2668 8.83337 16.2668H14.9C15.213 16.2668 15.4667 16.5205 15.4667 16.8334C15.4667 17.1464 15.213 17.4001 14.9 17.4001H8.83337C8.52041 17.4001 8.2667 17.1464 8.2667 16.8334Z" fill="#0C2739"/>
</svg>
