<svg width="24" height="24" viewBox="0 0 24 24" fill="none" xmlns="http://www.w3.org/2000/svg">
<path d="M5.99976 17.0502C7.14088 17.2818 7.99976 18.2907 7.99976 19.5002C7.99976 20.8809 6.88047 22.0002 5.49976 22.0002C4.11904 22.0002 2.99976 20.8809 2.99976 19.5002C2.99976 18.2907 3.85864 17.2818 4.99976 17.0502V7.95017C3.85864 7.71854 2.99976 6.70966 2.99976 5.50018C2.99976 4.11947 4.11904 3.00018 5.49976 3.00018C6.88047 3.00018 7.99976 4.11947 7.99976 5.50018C7.99976 6.70966 7.14088 7.71854 5.99976 7.95017V17.0502Z" fill="#0C2739"/>
<path d="M18.525 14.5C18.525 15.6184 17.6184 16.525 16.5 16.525C15.3816 16.525 14.475 15.6184 14.475 14.5C14.475 13.3816 15.3816 12.475 16.5 12.475C17.6184 12.475 18.525 13.3816 18.525 14.5Z" fill="#0C2739" stroke="#0C2739" stroke-width="0.95"/>
<path d="M5.94334 7.82952C5.84917 7.58467 5.57433 7.46252 5.32948 7.55669C5.08464 7.65086 4.96249 7.9257 5.05666 8.17055L5.94334 7.82952ZM15 14.975C15.2623 14.975 15.475 14.7624 15.475 14.5C15.475 14.2377 15.2623 14.025 15 14.025V14.975ZM5.05666 8.17055L5.94125 10.4705L6.82793 10.1295L5.94334 7.82952L5.05666 8.17055ZM12.5 14.975H15V14.025H12.5V14.975ZM5.94125 10.4705C6.98503 13.1843 9.59237 14.975 12.5 14.975V14.025C9.98545 14.025 7.7306 12.4764 6.82793 10.1295L5.94125 10.4705Z" fill="#0C2739"/>
</svg>
