<svg width="24" height="24" viewBox="0 0 24 24" fill="none" xmlns="http://www.w3.org/2000/svg">
<path d="M6 17.0503C7.14112 17.2819 8 18.2908 8 19.5002C8 20.881 6.88071 22.0002 5.5 22.0002C4.11929 22.0002 3 20.881 3 19.5002C3 18.2908 3.85888 17.2819 5 17.0503V8.01169C4.99982 8.00396 4.99982 7.99624 5 7.98855V7.95023C3.85888 7.7186 3 6.70972 3 5.50024C3 4.11953 4.11929 3.00024 5.5 3.00024C6.88071 3.00024 8 4.11953 8 5.50024C8 6.7043 7.14881 7.70954 6.01534 7.94707L6.85127 10.1205C7.75022 12.4578 9.9958 14 12.5 14H14.05C14.2816 12.8589 15.2905 12 16.5 12C17.8807 12 19 13.1193 19 14.5C19 15.8807 17.8807 17 16.5 17C15.2905 17 14.2817 16.1411 14.05 15H12.5C9.65549 15 7.09736 13.2923 6 10.6834V17.0503Z" fill="#0C2739"/>
</svg>
