<svg width="24" height="24" viewBox="0 0 24 24" fill="none" xmlns="http://www.w3.org/2000/svg">
<path fill-rule="evenodd" clip-rule="evenodd" d="M9.5 19C9.5 18.4477 9.05228 18 8.5 18C7.94772 18 7.5 18.4477 7.5 19C7.5 19.5523 7.94772 20 8.5 20C9.05228 20 9.5 19.5523 9.5 19ZM9.25 16.6145C10.2643 16.933 11 17.8806 11 19C11 20.3807 9.88071 21.5 8.5 21.5C7.11929 21.5 6 20.3807 6 19C6 17.8806 6.73572 16.933 7.75 16.6145V7.38555C6.73572 7.06698 6 6.11941 6 5C6 3.61929 7.11929 2.5 8.5 2.5C9.88071 2.5 11 3.61929 11 5C11 6.11941 10.2643 7.06698 9.25 7.38555V9C9.25 10.2426 10.2574 11.25 11.5 11.25H15.1145C15.433 10.2357 16.3806 9.5 17.5 9.5C18.8807 9.5 20 10.6193 20 12C20 13.3807 18.8807 14.5 17.5 14.5C16.3806 14.5 15.433 13.7643 15.1145 12.75H11.5C10.6558 12.75 9.87675 12.471 9.25 12.0003V16.6145ZM17.5 11C18.0523 11 18.5 11.4477 18.5 12C18.5 12.5523 18.0523 13 17.5 13C16.9477 13 16.5 12.5523 16.5 12C16.5 11.4477 16.9477 11 17.5 11ZM9.5 5C9.5 4.44772 9.05228 4 8.5 4C7.94772 4 7.5 4.44772 7.5 5C7.5 5.55228 7.94772 6 8.5 6C9.05228 6 9.5 5.55228 9.5 5Z" fill="#161721"/>
</svg>
