<svg width="25" height="25" viewBox="0 0 25 25" fill="none" xmlns="http://www.w3.org/2000/svg">
<g clip-path="url(#clip0)">
<path d="M21 5H5C3.89543 5 3 5.89543 3 7V17C3 18.1046 3.89543 19 5 19H21C22.1046 19 23 18.1046 23 17V7C23 5.89543 22.1046 5 21 5Z" stroke="black" stroke-linecap="round" stroke-linejoin="round"/>
<path d="M17 19V3C17 2.46957 16.7893 1.96086 16.4142 1.58579C16.0391 1.21071 15.5304 1 15 1H11C10.4696 1 9.96086 1.21071 9.58579 1.58579C9.21071 1.96086 9 2.46957 9 3V19" stroke="black" stroke-linecap="round" stroke-linejoin="round"/>
</g>
<defs>
<clipPath id="clip0">
<rect width="24" height="24" fill="white" transform="translate(0.623291 0.0921631)"/>
</clipPath>
</defs>
</svg>
