<svg width="24" height="24" viewBox="0 0 24 24" fill="none" xmlns="http://www.w3.org/2000/svg">
<path fill-rule="evenodd" clip-rule="evenodd" d="M3.5 5.82001C3.5 4.53581 4.54263 3.5 5.82001 3.5H18.18C19.4642 3.5 20.5 4.54263 20.5 5.82001V10C20.5 10.4142 20.8358 10.75 21.25 10.75C21.6642 10.75 22 10.4142 22 10V5.82001C22 3.71739 20.2958 2 18.18 2H5.82001C3.71739 2 2 3.7042 2 5.82001V14.359V14.361V18.18C2 20.2826 3.7042 22 5.82001 22H10.5C10.9142 22 11.25 21.6642 11.25 21.25C11.25 20.8358 10.9142 20.5 10.5 20.5H5.82001C4.53581 20.5 3.5 19.4574 3.5 18.18V14.6707L6.81033 11.3603C7.11589 11.0548 7.61748 11.0532 7.92501 11.3557L10.9587 14.5191C11.2454 14.8181 11.7202 14.828 12.0191 14.5413C12.3181 14.2546 12.328 13.7798 12.0413 13.4809L9.0013 10.3109L8.99032 10.2997C8.09743 9.40678 6.64256 9.40678 5.74967 10.2997L3.5 12.5493V5.82001ZM15.15 6.91003C14.31 6.91003 13.63 7.59002 13.63 8.43002C13.63 9.27002 14.31 9.95004 15.15 9.95004C15.99 9.95004 16.67 9.27002 16.67 8.43002C16.67 7.59002 15.98 6.91003 15.15 6.91003ZM18.5 13C15.4624 13 13 15.4624 13 18.5C13 21.5376 15.4624 24 18.5 24C21.5376 24 24 21.5376 24 18.5C24 15.4624 21.5376 13 18.5 13ZM17.95 21.25C17.95 20.9462 18.1962 20.7 18.5 20.7C18.8038 20.7 19.05 20.9462 19.05 21.25C19.05 21.5538 18.8038 21.8 18.5 21.8C18.1962 21.8 17.95 21.5538 17.95 21.25ZM17.95 19.0642C17.95 19.3601 18.1962 19.6 18.5 19.6C18.8038 19.6 19.05 19.3601 19.05 19.0642V15.7357C19.05 15.4398 18.8038 15.2 18.5 15.2C18.1962 15.2 17.95 15.4398 17.95 15.7357V19.0642Z" fill="#161721"/>
</svg>
