<svg width="24" height="24" viewBox="0 0 24 24" fill="none" xmlns="http://www.w3.org/2000/svg">
<g clip-path="url(#clip0_761_1283)">
<path fill-rule="evenodd" clip-rule="evenodd" d="M2.90039 7.46495C2.90039 5.45332 4.52675 3.82697 6.53838 3.82697H17.4586C19.471 3.82697 21.0943 5.45321 21.1056 7.46071L21.1056 7.46495L21.1056 11.5802C20.6455 11.2218 20.1425 10.9157 19.6056 10.6712V9.94774H4.40039V18.3671C4.40039 19.5503 5.35517 20.5051 6.53838 20.5051H9.6263C9.86077 21.0407 10.156 21.5436 10.5033 22.0051H6.53838C4.52675 22.0051 2.90039 20.3788 2.90039 18.3671V9.19774V7.46495ZM4.40039 8.44774H19.6056V7.46716C19.5978 6.28077 18.6403 5.32697 17.4586 5.32697H6.53838C5.35517 5.32697 4.40039 6.28175 4.40039 7.46495V8.44774Z" fill="white"/>
<path fill-rule="evenodd" clip-rule="evenodd" d="M21.3124 18.675L20.9999 18.4938C20.6999 18.3188 20.5186 18.0063 20.5186 17.6563C20.5186 17.3063 20.6999 16.9938 20.9999 16.825L21.3186 16.6438C21.5436 16.5125 21.6999 16.3063 21.7624 16.0563C21.8249 15.8063 21.7936 15.55 21.6624 15.3313L21.0186 14.2188C20.7499 13.7563 20.1561 13.6 19.6999 13.8688L19.3811 14.05C19.0811 14.225 18.7186 14.225 18.4186 14.05C18.1186 13.875 17.9374 13.5625 17.9374 13.2125V12.8438C17.9374 12.3125 17.5061 11.8813 16.9749 11.8813H15.6874C15.1561 11.8813 14.7249 12.3125 14.7249 12.8438V13.2125C14.7249 13.5625 14.5436 13.875 14.2436 14.05C13.9436 14.225 13.5811 14.225 13.2811 14.05L12.9624 13.8688C12.5061 13.6063 11.9186 13.7625 11.6436 14.2188L11.0061 15.325C10.7436 15.7813 10.8999 16.3688 11.3624 16.6438L11.6749 16.825C11.9749 17 12.1561 17.3125 12.1561 17.6563C12.1561 18 11.9749 18.3188 11.6749 18.4875L11.3499 18.6688C10.8936 18.9375 10.7374 19.525 10.9999 19.9875L11.6436 21.1C11.7749 21.325 11.9811 21.4813 12.2311 21.55C12.4811 21.6188 12.7374 21.5813 12.9624 21.45L13.2811 21.2688C13.5811 21.0938 13.9436 21.0938 14.2436 21.2688C14.5436 21.4438 14.7249 21.7563 14.7249 22.1063V22.475C14.7249 23.0063 15.1561 23.4375 15.6874 23.4375H16.9749C17.5061 23.4375 17.9374 23.0063 17.9374 22.475V22.1063C17.9374 21.7563 18.1186 21.4438 18.4186 21.2688C18.7186 21.0938 19.0811 21.0938 19.3811 21.2688L19.6999 21.45C20.1561 21.7125 20.7436 21.5563 21.0186 21.0938L21.6624 19.9875C21.9249 19.5313 21.7749 18.9438 21.3061 18.6688L21.3124 18.675ZM14.269 17.6563C14.269 16.5125 15.2003 15.5813 16.344 15.5813C17.4878 15.5813 18.419 16.5125 18.419 17.6563C18.419 18.8 17.4878 19.7313 16.344 19.7313C15.2003 19.7313 14.269 18.8 14.269 17.6563Z" fill="white"/>
</g>
<defs>
<clipPath id="clip0_761_1283">
<rect width="24" height="24" fill="white"/>
</clipPath>
</defs>
</svg>
