<svg width="24" height="24" viewBox="0 0 24 24" fill="none" xmlns="http://www.w3.org/2000/svg">
<path fill-rule="evenodd" clip-rule="evenodd" d="M8.00004 1.5C8.27619 1.5 8.50004 1.72386 8.50004 2V3.5H15.5V2C15.5 1.72386 15.7238 1.5 16 1.5C16.2761 1.5 16.5 1.72386 16.5 2V3.5H19C20.3807 3.5 21.5 4.61929 21.5 6V20C21.5 21.3807 20.3807 22.5 19 22.5H5C3.61929 22.5 2.5 21.3807 2.5 20V6C2.5 4.61929 3.61929 3.5 5 3.5H7.50004V2C7.50004 1.72386 7.7239 1.5 8.00004 1.5ZM7.50004 4.5H5C4.17157 4.5 3.5 5.17157 3.5 6V9.5H20.5V6C20.5 5.17157 19.8284 4.5 19 4.5H16.5V6C16.5 6.27614 16.2761 6.5 16 6.5C15.7238 6.5 15.5 6.27614 15.5 6V4.5H8.50004V6C8.50004 6.27614 8.27619 6.5 8.00004 6.5C7.7239 6.5 7.50004 6.27614 7.50004 6V4.5ZM20.5 10.5H3.5V20C3.5 20.8284 4.17157 21.5 5 21.5H19C19.8284 21.5 20.5 20.8284 20.5 20V10.5Z" fill="#0C2739"/>
</svg>
