<svg width="24" height="24" viewBox="0 0 24 24" fill="none" xmlns="http://www.w3.org/2000/svg">
<path fill-rule="evenodd" clip-rule="evenodd" d="M8.23561 2.7449C8.23561 2.33069 7.89982 1.9949 7.48561 1.9949C7.0714 1.9949 6.73561 2.33069 6.73561 2.7449V3.82698H6.53799C4.52636 3.82698 2.9 5.45333 2.9 7.46496V9.19775V18.3671C2.9 20.3788 4.52636 22.0051 6.53799 22.0051H17.4672C19.4789 22.0051 21.1052 20.3788 21.1052 18.3671L21.1052 7.46496L21.1052 7.46072C21.0939 5.45322 19.4706 3.82698 17.4582 3.82698H17.2606V2.7449C17.2606 2.33069 16.9248 1.9949 16.5106 1.9949C16.0964 1.9949 15.7606 2.33069 15.7606 2.7449V3.82698H8.23561V2.7449ZM4.4 9.94775V18.3671C4.4 19.5503 5.35478 20.5051 6.53799 20.5051H17.4672C18.6504 20.5051 19.6052 19.5503 19.6052 18.3671V9.94775H4.4ZM19.6052 8.44775H4.4V7.46496C4.4 6.28176 5.35478 5.32698 6.53799 5.32698H6.73561V6.35489C6.73561 6.7691 7.0714 7.10489 7.48561 7.10489C7.89982 7.10489 8.23561 6.7691 8.23561 6.35489V5.32698H15.7606V6.35489C15.7606 6.7691 16.0964 7.10489 16.5106 7.10489C16.9248 7.10489 17.2606 6.7691 17.2606 6.35489V5.32698H17.4582C18.6399 5.32698 19.5974 6.28078 19.6052 7.46717V8.44775Z" fill="#161721"/>
</svg>
