<svg width="24" height="24" viewBox="0 0 24 24" fill="none" xmlns="http://www.w3.org/2000/svg">
<path fill-rule="evenodd" clip-rule="evenodd" d="M3 2.5C2.72386 2.5 2.5 2.72386 2.5 3V10C2.5 10.2761 2.72386 10.5 3 10.5H10C10.2761 10.5 10.5 10.2761 10.5 10V3C10.5 2.72386 10.2761 2.5 10 2.5H3ZM3.5 9.5V3.5H9.5V9.5H3.5ZM14 2.5C13.7239 2.5 13.5 2.72386 13.5 3V10C13.5 10.2761 13.7239 10.5 14 10.5H21C21.2761 10.5 21.5 10.2761 21.5 10V3C21.5 2.72386 21.2761 2.5 21 2.5H14ZM14.5 9.5V3.5H20.5V9.5H14.5ZM13.5 14C13.5 13.7239 13.7239 13.5 14 13.5H21C21.2761 13.5 21.5 13.7239 21.5 14V21C21.5 21.2761 21.2761 21.5 21 21.5H14C13.7239 21.5 13.5 21.2761 13.5 21V14ZM14.5 14.5V20.5H20.5V14.5H14.5ZM3 13.5C2.72386 13.5 2.5 13.7239 2.5 14V21C2.5 21.2761 2.72386 21.5 3 21.5H10C10.2761 21.5 10.5 21.2761 10.5 21V14C10.5 13.7239 10.2761 13.5 10 13.5H3ZM3.5 20.5V14.5H9.5V20.5H3.5Z" fill="#898989"/>
</svg>
