<svg width="24" height="24" viewBox="0 0 24 24" fill="none" xmlns="http://www.w3.org/2000/svg">
<path fill-rule="evenodd" clip-rule="evenodd" d="M5.32001 4.39001C4.80421 4.39001 4.39 4.80423 4.39 5.32001V8.67999C4.39 9.19577 4.80421 9.60999 5.32001 9.60999H8.67999C9.19579 9.60999 9.61 9.19577 9.61 8.67999V5.32001C9.61 4.80423 9.19579 4.39001 8.67999 4.39001H5.32001ZM2.89 5.32001C2.89 3.97578 3.9758 2.89001 5.32001 2.89001H8.67999C10.0242 2.89001 11.11 3.97578 11.11 5.32001V8.67999C11.11 10.0242 10.0242 11.11 8.67999 11.11H5.32001C3.9758 11.11 2.89 10.0242 2.89 8.67999V5.32001Z" fill="#161721"/>
<path fill-rule="evenodd" clip-rule="evenodd" d="M15.32 4.39001C14.8042 4.39001 14.39 4.80423 14.39 5.32001V8.67999C14.39 9.19577 14.8042 9.60999 15.32 9.60999H18.68C19.1958 9.60999 19.61 9.19577 19.61 8.67999V5.32001C19.61 4.80423 19.1958 4.39001 18.68 4.39001H15.32ZM12.89 5.32001C12.89 3.97578 13.9758 2.89001 15.32 2.89001H18.68C20.0242 2.89001 21.11 3.97578 21.11 5.32001V8.67999C21.11 10.0242 20.0242 11.11 18.68 11.11H15.32C13.9758 11.11 12.89 10.0242 12.89 8.67999V5.32001Z" fill="#161721"/>
<path fill-rule="evenodd" clip-rule="evenodd" d="M5.32001 14.39C4.80421 14.39 4.39 14.8042 4.39 15.32V18.68C4.39 19.1958 4.80421 19.61 5.32001 19.61H8.67999C9.19579 19.61 9.61 19.1958 9.61 18.68V15.32C9.61 14.8042 9.19579 14.39 8.67999 14.39H5.32001ZM2.89 15.32C2.89 13.9758 3.9758 12.89 5.32001 12.89H8.67999C10.0242 12.89 11.11 13.9758 11.11 15.32V18.68C11.11 20.0242 10.0242 21.11 8.67999 21.11H5.32001C3.9758 21.11 2.89 20.0242 2.89 18.68V15.32Z" fill="#161721"/>
<path fill-rule="evenodd" clip-rule="evenodd" d="M15.32 14.39C14.8042 14.39 14.39 14.8042 14.39 15.32V18.68C14.39 19.1958 14.8042 19.61 15.32 19.61H18.68C19.1958 19.61 19.61 19.1958 19.61 18.68V15.32C19.61 14.8042 19.1958 14.39 18.68 14.39H15.32ZM12.89 15.32C12.89 13.9758 13.9758 12.89 15.32 12.89H18.68C20.0242 12.89 21.11 13.9758 21.11 15.32V18.68C21.11 20.0242 20.0242 21.11 18.68 21.11H15.32C13.9758 21.11 12.89 20.0242 12.89 18.68V15.32Z" fill="#161721"/>
</svg>
