<svg width="18" height="18" viewBox="0 0 18 18" fill="none" xmlns="http://www.w3.org/2000/svg">
<path fill-rule="evenodd" clip-rule="evenodd" d="M13.0111 2.46433H5.45483C3.97136 2.46433 2.76877 3.66692 2.76877 5.15039V15.3927H13.0111C14.4945 15.3927 15.6971 14.1901 15.6971 12.7066V5.15039C15.6971 3.66692 14.4945 2.46433 13.0111 2.46433ZM5.45483 1.38696C3.37635 1.38696 1.69141 3.0719 1.69141 5.15039V16.4701H13.0111C15.0896 16.4701 16.7745 14.7851 16.7745 12.7066V5.15039C16.7745 3.0719 15.0896 1.38696 13.0111 1.38696H5.45483Z" fill="#B0BACA"/>
<path d="M10.6705 5.62967V6.51172C10.0971 6.05306 9.32092 5.80608 8.39477 5.79726H8.38595C6.36605 5.79726 5.05179 6.97921 5.04297 8.97265C5.04297 10.9661 6.35723 12.1392 8.38595 12.1392C8.39477 12.1392 8.39477 12.1392 8.40359 12.1392C9.32974 12.1392 10.1059 11.8922 10.6793 11.4336V12.2627H12.611V5.62085H10.6705V5.62967ZM10.7322 9.14906C10.644 9.14906 10.5558 9.15788 10.4676 9.1667C9.99128 9.21962 9.53261 9.41367 9.18861 9.74003L9.17979 9.74885L9.17097 9.75767C8.76523 10.137 8.54472 10.6574 8.54472 11.1954H8.20954C8.20954 10.6574 7.98902 10.137 7.58328 9.75767L7.57446 9.74885L7.56564 9.74003C7.15989 9.36075 6.59538 9.14906 6.02205 9.14906V8.84034C6.59538 8.84034 7.15989 8.62865 7.56564 8.24936L7.57446 8.24055L7.58328 8.23172C7.98902 7.85244 8.20954 7.33203 8.20954 6.79398H8.54472C8.54472 7.33203 8.76523 7.85244 9.17097 8.23172L9.17979 8.24055L9.18861 8.24936C9.53261 8.5669 9.98246 8.76978 10.4676 8.8227C10.5558 8.83152 10.644 8.84034 10.7322 8.84034V9.14906Z" fill="#B0BACA"/>
</svg>
