<svg width="24" height="28" viewBox="0 0 24 28" fill="none" xmlns="http://www.w3.org/2000/svg">
<circle cx="12" cy="16" r="11" stroke="#8D98FF" stroke-width="2"/>
<mask id="path-2-inside-1_2379_21202" fill="white">
<path fill-rule="evenodd" clip-rule="evenodd" d="M12.4757 19.5249L11.0462 20.9544L6.40008 16.3083L7.82964 14.8788L11.0462 18.0953L17.4792 11.6622L18.9088 13.0918L12.4757 19.5249Z"/>
</mask>
<path fill-rule="evenodd" clip-rule="evenodd" d="M12.4757 19.5249L11.0462 20.9544L6.40008 16.3083L7.82964 14.8788L11.0462 18.0953L17.4792 11.6622L18.9088 13.0918L12.4757 19.5249Z" fill="white"/>
<path d="M12.4757 19.5249L13.1828 20.232L12.4757 19.5249ZM11.0462 20.9544L10.3391 21.6615L11.0462 22.3686L11.7533 21.6615L11.0462 20.9544ZM6.40008 16.3083L5.69297 15.6012L4.98586 16.3083L5.69297 17.0154L6.40008 16.3083ZM7.82964 14.8788L8.53675 14.1717L7.82964 13.4646L7.12254 14.1717L7.82964 14.8788ZM11.0462 18.0953L10.3391 18.8024L11.0462 19.5095L11.7533 18.8024L11.0462 18.0953ZM17.4792 11.6622L18.1863 10.9551L17.4792 10.248L16.7721 10.9551L17.4792 11.6622ZM18.9088 13.0918L19.6159 13.7989L20.323 13.0918L19.6159 12.3847L18.9088 13.0918ZM11.7686 18.8177L10.3391 20.2473L11.7533 21.6615L13.1828 20.232L11.7686 18.8177ZM11.7533 20.2473L7.10718 15.6012L5.69297 17.0154L10.3391 21.6615L11.7533 20.2473ZM7.10718 17.0154L8.53675 15.5859L7.12254 14.1717L5.69297 15.6012L7.10718 17.0154ZM7.12254 15.5859L10.3391 18.8024L11.7533 17.3882L8.53675 14.1717L7.12254 15.5859ZM11.7533 18.8024L18.1863 12.3693L16.7721 10.9551L10.3391 17.3882L11.7533 18.8024ZM16.7721 12.3693L18.2017 13.7989L19.6159 12.3847L18.1863 10.9551L16.7721 12.3693ZM18.2017 12.3847L11.7686 18.8177L13.1828 20.232L19.6159 13.7989L18.2017 12.3847Z" fill="#8D98FF" mask="url(#path-2-inside-1_2379_21202)"/>
</svg>
