<svg width="24" height="24" viewBox="0 0 24 24" fill="none" xmlns="http://www.w3.org/2000/svg">
<path fill-rule="evenodd" clip-rule="evenodd" d="M2 12C2 17.5243 6.47568 22 12 22C17.5243 22 22 17.5243 22 12C22 6.47568 17.5243 2 12 2C6.47568 2 2 6.47568 2 12ZM17.0303 8.46967C17.3232 8.76256 17.3232 9.23744 17.0303 9.53033L10.6018 15.9589C10.4919 16.0687 10.3565 16.1374 10.2147 16.1648C9.9783 16.2106 9.72415 16.142 9.5411 15.9589L9.53938 15.9572L6.96967 13.3875C6.67678 13.0946 6.67678 12.6197 6.96967 12.3268C7.26256 12.0339 7.73744 12.0339 8.03033 12.3268L10.0714 14.3679L15.9697 8.46967C16.2626 8.17678 16.7374 8.17678 17.0303 8.46967Z" fill="#161721"/>
</svg>
