<svg width="24" height="24" viewBox="0 0 24 24" fill="none" xmlns="http://www.w3.org/2000/svg">
<path fill-rule="evenodd" clip-rule="evenodd" d="M0.472861 16.9665C0.767506 16.6754 1.24237 16.6782 1.5335 16.9729L4.99184 20.4729C5.28297 20.7676 5.28012 21.2425 4.98547 21.5336C4.69083 21.8247 4.21596 21.8219 3.92483 21.5272L0.466498 18.0271C0.175367 17.7325 0.178216 17.2576 0.472861 16.9665Z" fill="#161721"/>
<path fill-rule="evenodd" clip-rule="evenodd" d="M13.1553 12.303C13.4482 12.5959 13.4482 13.0708 13.1553 13.3637L4.98867 21.5304C4.69577 21.8233 4.2209 21.8233 3.92801 21.5304C3.63511 21.2375 3.63511 20.7626 3.92801 20.4697L12.0947 12.303C12.3876 12.0102 12.8624 12.0102 13.1553 12.303Z" fill="#161721"/>
<path fill-rule="evenodd" clip-rule="evenodd" d="M7.625 3.5C6.38236 3.5 5.375 4.50736 5.375 5.75V13.5C5.375 13.9142 5.03921 14.25 4.625 14.25C4.21079 14.25 3.875 13.9142 3.875 13.5V5.75C3.875 3.67893 5.55393 2 7.625 2H20.125C22.1961 2 23.875 3.67893 23.875 5.75V18.25C23.875 20.3211 22.1961 22 20.125 22H10.5C10.0858 22 9.75 21.6642 9.75 21.25C9.75 20.8358 10.0858 20.5 10.5 20.5H20.125C21.3676 20.5 22.375 19.4926 22.375 18.25V5.75C22.375 4.50736 21.3676 3.5 20.125 3.5H7.625Z" fill="#161721"/>
</svg>
