<svg width="24" height="24" viewBox="0 0 24 24" fill="none" xmlns="http://www.w3.org/2000/svg">
<circle cx="12" cy="12" r="11" stroke="#555" stroke-width="2"/>
<mask id="path-2-inside-1_2379_18972" fill="white">
<path fill-rule="evenodd" clip-rule="evenodd" d="M12.4757 15.5249L11.0462 16.9544L6.40008 12.3083L7.82964 10.8788L11.0462 14.0953L17.4792 7.66222L18.9088 9.09178L12.4757 15.5249Z"/>
</mask>
<path fill-rule="evenodd" clip-rule="evenodd" d="M12.4757 15.5249L11.0462 16.9544L6.40008 12.3083L7.82964 10.8788L11.0462 14.0953L17.4792 7.66222L18.9088 9.09178L12.4757 15.5249Z" fill="white"/>
<path d="M12.4757 15.5249L13.1828 16.232L12.4757 15.5249ZM11.0462 16.9544L10.3391 17.6615L11.0462 18.3686L11.7533 17.6615L11.0462 16.9544ZM6.40008 12.3083L5.69297 11.6012L4.98586 12.3083L5.69297 13.0154L6.40008 12.3083ZM7.82964 10.8788L8.53675 10.1717L7.82964 9.46455L7.12254 10.1717L7.82964 10.8788ZM11.0462 14.0953L10.3391 14.8024L11.0462 15.5095L11.7533 14.8024L11.0462 14.0953ZM17.4792 7.66222L18.1863 6.95511L17.4792 6.24801L16.7721 6.95511L17.4792 7.66222ZM18.9088 9.09178L19.6159 9.79889L20.323 9.09178L19.6159 8.38468L18.9088 9.09178ZM11.7686 14.8177L10.3391 16.2473L11.7533 17.6615L13.1828 16.232L11.7686 14.8177ZM11.7533 16.2473L7.10718 11.6012L5.69297 13.0154L10.3391 17.6615L11.7533 16.2473ZM7.10718 13.0154L8.53675 11.5859L7.12254 10.1717L5.69297 11.6012L7.10718 13.0154ZM7.12254 11.5859L10.3391 14.8024L11.7533 13.3882L8.53675 10.1717L7.12254 11.5859ZM11.7533 14.8024L18.1863 8.36933L16.7721 6.95511L10.3391 13.3882L11.7533 14.8024ZM16.7721 8.36933L18.2017 9.79889L19.6159 8.38468L18.1863 6.95511L16.7721 8.36933ZM18.2017 8.38468L11.7686 14.8177L13.1828 16.232L19.6159 9.79889L18.2017 8.38468Z" fill="#555" mask="url(#path-2-inside-1_2379_18972)"/>
</svg>
