<svg width="20" height="18" viewBox="0 0 20 18" fill="none" xmlns="http://www.w3.org/2000/svg">
<path fill-rule="evenodd" clip-rule="evenodd" d="M2.10015 2.59998C2.10015 1.21926 3.21944 0.0999756 4.60015 0.0999756H17.4002C18.7809 0.0999756 19.9002 1.21926 19.9002 2.59998V15.4C19.9002 16.7807 18.7809 17.9 17.4002 17.9H8.60015C8.32401 17.9 8.10015 17.6761 8.10015 17.4C8.10015 17.1238 8.32401 16.9 8.60015 16.9H17.4002C18.2286 16.9 18.9002 16.2284 18.9002 15.4V2.59998C18.9002 1.77155 18.2286 1.09998 17.4002 1.09998H4.60015C3.77172 1.09998 3.10015 1.77155 3.10015 2.59998V12C3.10015 12.2761 2.87629 12.5 2.60015 12.5C2.32401 12.5 2.10015 12.2761 2.10015 12V2.59998ZM11.3701 11.0636C11.5559 11.268 11.5408 11.5842 11.3365 11.7699L4.73649 17.7699C4.54578 17.9433 4.25452 17.9433 4.06381 17.7699L1.06381 15.0427C0.859485 14.8569 0.844427 14.5407 1.03018 14.3364C1.21593 14.132 1.53216 14.117 1.73649 14.3027L4.40015 16.7242L10.6638 11.03C10.8681 10.8443 11.1844 10.8593 11.3701 11.0636Z" fill="#0C2739"/>
</svg>
