<svg width="24" height="24" viewBox="0 0 24 24" fill="none" xmlns="http://www.w3.org/2000/svg">
<path fill-rule="evenodd" clip-rule="evenodd" d="M12 3.5C7.30558 3.5 3.5 7.30558 3.5 12C3.5 16.6944 7.30558 20.5 12 20.5C16.6944 20.5 20.5 16.6944 20.5 12C20.5 7.30558 16.6944 3.5 12 3.5ZM2 12C2 6.47715 6.47715 2 12 2C17.5228 2 22 6.47715 22 12C22 17.5228 17.5228 22 12 22C6.47715 22 2 17.5228 2 12ZM16.4228 14.0956C16.5447 13.6997 16.3225 13.28 15.9267 13.1581L12.9637 12.2462L12.8448 7.64476C12.8341 7.23069 12.4898 6.90368 12.0757 6.91437C11.6616 6.92507 11.3346 7.26941 11.3453 7.68349L11.4777 12.8077C11.4783 12.9723 11.5336 13.1304 11.6309 13.2585C11.728 13.386 11.865 13.4812 12.0227 13.526L15.4854 14.5918C15.8813 14.7136 16.301 14.4915 16.4228 14.0956Z" fill="#161721"/>
</svg>
