<svg width="24" height="24" viewBox="0 0 24 24" fill="none" xmlns="http://www.w3.org/2000/svg">
<path fill-rule="evenodd" clip-rule="evenodd" d="M19.5535 5.86066C19.7488 5.6654 19.7488 5.34882 19.5535 5.15356C19.3582 4.9583 19.0417 4.95829 18.8464 5.15356L12.6 11.4L6.35355 5.15356C6.15829 4.9583 5.84171 4.9583 5.64645 5.15356C5.45118 5.34882 5.45118 5.6654 5.64645 5.86066L11.8929 12.1071L5.97705 18.0229C5.78179 18.2182 5.78179 18.5347 5.97705 18.73C6.17231 18.9253 6.4889 18.9253 6.68416 18.73L12.6 12.8142L18.5158 18.73C18.7111 18.9253 19.0276 18.9253 19.2229 18.73C19.4182 18.5347 19.4182 18.2182 19.2229 18.0229L13.3071 12.1071L19.5535 5.86066Z" fill="#0C2739"/>
</svg>
