<svg width="24" height="24" viewBox="0 0 24 24" fill="none" xmlns="http://www.w3.org/2000/svg">
<path fill-rule="evenodd" clip-rule="evenodd" d="M18.5343 6.43637C18.825 6.14131 18.8214 5.66645 18.5264 5.37574C18.2313 5.08504 17.7564 5.08857 17.4657 5.38364L12 10.9314L6.53426 5.38364C6.24356 5.08857 5.7687 5.08504 5.47363 5.37574C5.17857 5.66645 5.17503 6.14131 5.46574 6.43637L10.9471 12L5.46574 17.5636C5.17503 17.8587 5.17857 18.3336 5.47363 18.6243C5.7687 18.915 6.24356 18.9114 6.53426 18.6164L12 13.0686L17.4657 18.6164C17.7564 18.9114 18.2313 18.915 18.5264 18.6243C18.8214 18.3336 18.825 17.8587 18.5343 17.5636L13.0529 12L18.5343 6.43637Z" fill="#161721"/>
</svg>
