<svg width="24" height="24" viewBox="0 0 24 24" fill="none" xmlns="http://www.w3.org/2000/svg">
  <path fill="currentColor" d="M10.9,5.6c2,0,4.2,1.2,4.4,4l0.1,1.5l1.5-0.1c0.1,0,0.1,0,0.2,0c0.7,0,1.4,0.3,2,0.8l0,0l0,0l0,0
    c0,0,0.1,0.1,0.2,0.2c0.2,0.2,0.3,0.4,0.5,0.6c0.4,0.7,0.7,1.4,0.7,2.1c0,0.9-0.3,1.8-0.9,2.5c-0.3,0.4-1.1,1.2-2.1,1.2
    c-1.7,0-3.4,0-5.1,0c-1.7,0-3.4,0-5,0l0,0l0,0c-0.1,0-0.1,0-0.2,0c-0.6,0-1.1-0.1-1.6-0.4c-0.9-0.5-1.6-1.5-1.8-2.5
    c-0.4-1.8,0.5-3.6,2-4.3l0.9-0.4l0-0.9c0-1.3,0.5-2.5,1.4-3.2C8.6,6,9.7,5.6,10.9,5.6L10.9,5.6 M10.9,4.1c0,0-0.1,0-0.1,0
    C9.4,4.1,8,4.6,6.9,5.6C5.8,6.5,5,8,5,9.9c-2.2,1-3.4,3.5-2.9,6c0.3,1.4,1.2,2.8,2.6,3.5c0.9,0.5,1.7,0.6,2.3,0.6c0.1,0,0.2,0,0.3,0
    c1.7,0,3.4,0,5,0l0,0c1.7,0,3.4,0,5.1,0h0c1.4,0,2.5-0.8,3.3-1.8c0.8-1,1.2-2.3,1.2-3.5c0-1.3-0.4-2.3-0.9-2.9
    c-0.2-0.3-0.5-0.6-0.6-0.8c-0.1-0.1-0.2-0.2-0.2-0.2c0,0-0.1-0.1-0.1-0.1c0,0,0,0,0,0c0,0,0,0,0,0c0,0,0,0,0,0
    c-0.8-0.7-1.9-1.1-3-1.1c-0.1,0-0.2,0-0.3,0C16.5,5.9,13.7,4.1,10.9,4.1L10.9,4.1z"/>
</svg>
