<svg width="24" height="24" viewBox="0 0 24 24" fill="none" xmlns="http://www.w3.org/2000/svg">
<path fill-rule="evenodd" clip-rule="evenodd" d="M16.812 9.47823C16.5334 5.81106 13.6059 4.00465 10.7987 4.05638C9.38492 4.08243 7.95827 4.57331 6.8662 5.55694C5.76673 6.54723 5.04772 8.00081 5.00072 9.86132C2.82479 10.8594 1.62176 13.3759 2.11485 15.8184L2.11504 15.8194C2.40549 17.2484 3.341 18.6233 4.67924 19.3575L4.6799 19.3579C5.79012 19.9656 6.82929 19.9631 7.32696 19.9299C9.00998 19.9249 10.6929 19.9175 12.3764 19.9101L12.3896 19.91C14.0859 19.9025 15.7829 19.895 17.4822 19.89L17.4834 19.89C18.8666 19.8837 20.0066 19.1159 20.7738 18.1326C21.539 17.1519 22 15.8792 22 14.68C22 13.4269 21.5543 12.4266 21.1078 11.739C20.8842 11.3947 20.6573 11.1238 20.4783 10.9316C20.3886 10.8353 20.3104 10.7582 20.25 10.7012C20.2197 10.6726 20.1941 10.6492 20.1741 10.6312C20.1576 10.6164 20.1357 10.5972 20.1383 10.5995C20.1326 10.5944 20.1267 10.5894 20.1209 10.5844C19.2109 9.82421 18.041 9.38712 16.812 9.47823ZM7.87007 6.6715C7.08886 7.37514 6.53294 8.43779 6.49982 9.91679L6.4996 9.92677L6.49953 9.92677C6.48003 10.4729 6.16449 10.9915 5.62409 11.2257C4.12947 11.9125 3.21961 13.7097 3.5851 15.5212C3.79476 16.5519 4.47904 17.5366 5.4005 18.0423C6.17003 18.4634 6.8932 18.4571 7.24658 18.4319C7.26363 18.4307 7.28071 18.4301 7.2978 18.43C8.98842 18.425 10.6791 18.4175 12.3717 18.4101L12.3829 18.41C14.0789 18.4025 15.7768 18.395 17.4772 18.39C17.4774 18.39 17.4776 18.39 17.4778 18.39L17.48 19.14L17.4766 18.39C17.4768 18.39 17.477 18.39 17.4772 18.39C18.2738 18.3861 19.0185 17.9439 19.5912 17.2099C20.166 16.4731 20.5 15.5208 20.5 14.68C20.5 12.9454 19.2923 11.8539 19.1515 11.7292C19.154 11.7313 19.1566 11.7334 19.1592 11.7356L19.64 11.16L19.1417 11.7206C19.1429 11.7216 19.1444 11.7229 19.1461 11.7244C19.1476 11.7258 19.1494 11.7274 19.1515 11.7292C18.4969 11.1854 17.6922 10.9066 16.8853 10.9772L16.879 10.9777L16.879 10.9777C16.1334 11.0365 15.3886 10.5177 15.3223 9.67903L15.3214 9.66715L15.3215 9.66714C15.1465 6.88786 13.0151 5.51579 10.8263 5.55612C9.73011 5.57632 8.663 5.95731 7.87007 6.6715Z" fill="#161721"/>
</svg>
