<svg width="24" height="24" viewBox="0 0 24 24" fill="none" xmlns="http://www.w3.org/2000/svg">
<path fill-rule="evenodd" clip-rule="evenodd" d="M5.5 6V18C5.5 19.3807 6.61929 20.5 8 20.5H10.75C11.1642 20.5 11.5 20.8358 11.5 21.25C11.5 21.6642 11.1642 22 10.75 22H8C5.79086 22 4 20.2091 4 18V6C4 3.79086 5.79086 2 8 2H13.8488C14.5899 2 15.3048 2.27433 15.8557 2.77012L19.0069 5.6062C19.639 6.17513 20 6.98563 20 7.83609V14.168C20 14.5823 19.6642 14.918 19.25 14.918C18.8358 14.918 18.5 14.5823 18.5 14.168V8.83997H14.35C13.9358 8.83997 13.6 8.50418 13.6 8.08997V3.5H8C6.61929 3.5 5.5 4.61929 5.5 6ZM18.0034 6.72115C18.1926 6.89137 18.3332 7.10484 18.4156 7.33997H15.1V4.10805L18.0034 6.72115ZM16.3303 18.9304C16.6232 18.6375 16.6232 18.1626 16.3303 17.8697C16.0374 17.5768 15.5626 17.5768 15.2697 17.8697L13.7697 19.3697C13.4768 19.6626 13.4768 20.1375 13.7697 20.4304L15.2697 21.9304C15.5626 22.2232 16.0374 22.2232 16.3303 21.9304C16.6232 21.6375 16.6232 21.1626 16.3303 20.8697L15.3606 19.9L16.3303 18.9304ZM20.7697 21.9304C20.4768 21.6375 20.4768 21.1626 20.7697 20.8697L21.7393 19.9L20.7697 18.9304C20.4768 18.6375 20.4768 18.1626 20.7697 17.8697C21.0626 17.5768 21.5374 17.5768 21.8303 17.8697L23.3303 19.3697C23.6232 19.6626 23.6232 20.1375 23.3303 20.4304L21.8303 21.9304C21.5374 22.2232 21.0626 22.2232 20.7697 21.9304ZM19.7322 17.6627C19.822 17.2584 19.5671 16.8578 19.1627 16.7679C18.7584 16.678 18.3577 16.933 18.2679 17.3373L17.2679 21.8373C17.178 22.2416 17.4329 22.6423 17.8373 22.7321C18.2416 22.822 18.6423 22.567 18.7321 22.1627L19.7322 17.6627Z" fill="#161721"/>
<path fill-rule="evenodd" clip-rule="evenodd" d="M8 16.25C8 15.8358 8.33579 15.5 8.75 15.5H15.25C15.6642 15.5 16 15.8358 16 16.25C16 16.6642 15.6642 17 15.25 17H8.75C8.33579 17 8 16.6642 8 16.25Z" fill="#161721"/>
<path fill-rule="evenodd" clip-rule="evenodd" d="M8 13.25C8 12.8358 8.33579 12.5 8.75 12.5H13.25C13.6642 12.5 14 12.8358 14 13.25C14 13.6642 13.6642 14 13.25 14H8.75C8.33579 14 8 13.6642 8 13.25Z" fill="#161721"/>
</svg>
