<svg width="24" height="24" viewBox="0 0 24 24" fill="none" xmlns="http://www.w3.org/2000/svg">
<path fill-rule="evenodd" clip-rule="evenodd" d="M6.5 7.25C6.5 5.73122 7.73122 4.5 9.25 4.5H9.75C10.1642 4.5 10.5 4.83579 10.5 5.25C10.5 5.66421 10.1642 6 9.75 6H9.25C8.55964 6 8 6.55964 8 7.25V9.864C8 10.7082 7.61431 11.4873 6.98228 12C7.61431 12.5127 8 13.2918 8 14.136V16.75C8 17.4404 8.55964 18 9.25 18H9.75C10.1642 18 10.5 18.3358 10.5 18.75C10.5 19.1642 10.1642 19.5 9.75 19.5H9.25C7.73122 19.5 6.5 18.2688 6.5 16.75V14.136C6.5 13.6149 6.17678 13.1485 5.6889 12.9656L4.98666 12.7022C4.69393 12.5925 4.5 12.3126 4.5 12C4.5 11.6874 4.69393 11.4075 4.98666 11.2978L5.6889 11.0344C6.17678 10.8515 6.5 10.3851 6.5 9.864V7.25Z" fill="#161721"/>
<path fill-rule="evenodd" clip-rule="evenodd" d="M17.5 16.75C17.5 18.2688 16.2688 19.5 14.75 19.5L14.25 19.5C13.8358 19.5 13.5 19.1642 13.5 18.75C13.5 18.3358 13.8358 18 14.25 18L14.75 18C15.4404 18 16 17.4404 16 16.75L16 14.136C16 13.2918 16.3857 12.5127 17.0177 12C16.3857 11.4873 16 10.7082 16 9.864L16 7.25C16 6.55964 15.4404 6 14.75 6L14.25 6C13.8358 6 13.5 5.66421 13.5 5.25C13.5 4.83579 13.8358 4.5 14.25 4.5L14.75 4.5C16.2688 4.5 17.5 5.73122 17.5 7.25L17.5 9.864C17.5 10.3851 17.8232 10.8515 18.3111 11.0344L19.0133 11.2978C19.3061 11.4075 19.5 11.6874 19.5 12C19.5 12.3126 19.3061 12.5925 19.0133 12.7022L18.3111 12.9656C17.8232 13.1485 17.5 13.6149 17.5 14.136L17.5 16.75Z" fill="#161721"/>
</svg>
