<svg width="20" height="20" viewBox="0 0 20 20" fill="none" xmlns="http://www.w3.org/2000/svg">
<path fill-rule="evenodd" clip-rule="evenodd" d="M10 18C14.4183 18 18 14.4183 18 10C18 5.58172 14.4183 2 10 2C5.58172 2 2 5.58172 2 10C2 14.4183 5.58172 18 10 18ZM7.29254 12.6425C7.36492 12.7059 7.45362 12.7371 7.54168 12.7371C7.65058 12.7371 7.75882 12.6898 7.83507 12.5977C7.97274 12.4313 7.95341 12.1814 7.79147 12.0396L5.64519 10.1593L7.79147 8.27908C7.95341 8.13745 7.97274 7.88756 7.83507 7.72097C7.69718 7.5546 7.45427 7.53449 7.29254 7.67634L4.80197 9.85795C4.71628 9.93329 4.66666 10.0433 4.66666 10.1593C4.66666 10.2755 4.71606 10.3856 4.80197 10.4609L7.29254 12.6425ZM12.4583 12.7371C12.3494 12.7371 12.2412 12.6898 12.1652 12.5977C12.0273 12.4313 12.0468 12.1814 12.2085 12.0396L14.3548 10.1593L12.2085 8.27908C12.0468 8.13745 12.0273 7.88756 12.1652 7.72097C12.3028 7.5546 12.546 7.53449 12.7075 7.67634L15.198 9.85795C15.2839 9.93329 15.3333 10.0433 15.3333 10.1593C15.3333 10.2755 15.2839 10.3856 15.198 10.4609L12.7075 12.6425C12.6351 12.7059 12.5464 12.7371 12.4583 12.7371ZM9.03855 14.3647C9.06539 14.3705 9.09203 14.3733 9.11844 14.3733C9.29649 14.3733 9.45629 14.2454 9.49452 14.0589L11.0467 6.47765C11.0905 6.26355 10.9574 6.05365 10.7495 6.00858C10.5413 5.96351 10.3373 6.10049 10.2935 6.31437L8.74129 13.8956C8.69748 14.1095 8.83064 14.3196 9.03855 14.3647Z" fill="#0F1C30"/>
</svg>
