<svg width="24" height="24" viewBox="0 0 24 24" fill="none" xmlns="http://www.w3.org/2000/svg">
<path d="M8.80788 19.304C8.08254 19.304 7.52788 19.1174 7.14388 18.744C6.75988 18.3707 6.56788 17.832 6.56788 17.128V14.056C6.56788 13.5867 6.48254 13.24 6.31188 13.016C6.15188 12.792 5.86388 12.6374 5.44788 12.552L4.99988 12.44V11.848L5.44788 11.736C5.86388 11.6507 6.15188 11.496 6.31188 11.272C6.48254 11.048 6.56788 10.7014 6.56788 10.232V7.17603C6.56788 6.46136 6.77054 5.9227 7.17588 5.56003C7.59188 5.1867 8.13588 5.00003 8.80788 5.00003H9.75188V6.02403H8.93588C8.61588 6.02403 8.35454 6.13603 8.15188 6.36003C7.95988 6.57336 7.86388 6.89336 7.86388 7.32003V10.456C7.86388 10.8507 7.78921 11.176 7.63988 11.432C7.49054 11.6774 7.29854 11.864 7.06388 11.992C6.83988 12.1094 6.61588 12.168 6.39188 12.168V12.104C6.61588 12.104 6.83988 12.168 7.06388 12.296C7.29854 12.424 7.49054 12.616 7.63988 12.872C7.78921 13.128 7.86388 13.448 7.86388 13.832V16.984C7.86388 17.4107 7.95988 17.7307 8.15188 17.944C8.35454 18.1574 8.61588 18.264 8.93588 18.264H9.75188V19.304H8.80788Z" fill="#898989"/>
<path d="M15.116 19.304H14.172V18.264H15.004C15.3133 18.264 15.564 18.1574 15.756 17.944C15.9587 17.7307 16.06 17.4107 16.06 16.984V13.832C16.06 13.448 16.1347 13.128 16.284 12.872C16.444 12.616 16.636 12.424 16.86 12.296C17.084 12.168 17.308 12.104 17.532 12.104V12.168C17.308 12.168 17.084 12.1094 16.86 11.992C16.636 11.864 16.444 11.6774 16.284 11.432C16.1347 11.176 16.06 10.8507 16.06 10.456V7.32003C16.06 6.89336 15.9587 6.57336 15.756 6.36003C15.564 6.13603 15.3133 6.02403 15.004 6.02403H14.172V5.00003H15.116C15.788 5.00003 16.3267 5.1867 16.732 5.56003C17.148 5.9227 17.356 6.46136 17.356 7.17603V10.232C17.356 10.7014 17.436 11.048 17.596 11.272C17.7667 11.496 18.0653 11.6507 18.492 11.736L18.924 11.848V12.44L18.492 12.552C18.0653 12.6374 17.7667 12.792 17.596 13.016C17.436 13.24 17.356 13.5867 17.356 14.056V17.128C17.356 17.832 17.164 18.3707 16.78 18.744C16.396 19.1174 15.8413 19.304 15.116 19.304Z" fill="#898989"/>
</svg>
