<svg width="20" height="20" viewBox="0 0 20 20" fill="none" xmlns="http://www.w3.org/2000/svg">
<path fill-rule="evenodd" clip-rule="evenodd" d="M14.5144 15.372C14.6706 15.5282 14.6706 15.7815 14.5144 15.9377L13.2828 17.1693C13.1266 17.3255 12.8734 17.3255 12.7172 17.1693C12.561 17.0131 12.561 16.7598 12.7172 16.6036L13.9487 15.372C14.105 15.2158 14.3582 15.2158 14.5144 15.372Z" fill="white"/>
<path fill-rule="evenodd" clip-rule="evenodd" d="M12.7179 16.6033C12.8744 16.4475 13.1277 16.4481 13.2835 16.6047L14.5151 17.8423C14.671 17.9989 14.6703 18.2521 14.5137 18.4079C14.3572 18.5638 14.1039 18.5632 13.9481 18.4066L12.7165 17.169C12.5606 17.0124 12.5613 16.7591 12.7179 16.6033Z" fill="white"/>
<path fill-rule="evenodd" clip-rule="evenodd" d="M17.6616 15.372C17.8178 15.2158 18.071 15.2158 18.2272 15.372L19.4588 16.6036C19.6151 16.7598 19.6151 17.0131 19.4589 17.1693C19.3026 17.3255 19.0494 17.3255 18.8932 17.1693L17.6616 15.9377C17.5054 15.7815 17.5053 15.5283 17.6616 15.372Z" fill="white"/>
<path fill-rule="evenodd" clip-rule="evenodd" d="M19.4582 16.6033C19.6148 16.7591 19.6154 17.0124 19.4595 17.169L18.2279 18.4066C18.0721 18.5632 17.8188 18.5638 17.6622 18.4079C17.5057 18.2521 17.505 17.9988 17.6609 17.8423L18.8925 16.6047C19.0483 16.4481 19.3016 16.4475 19.4582 16.6033Z" fill="white"/>
<path fill-rule="evenodd" clip-rule="evenodd" d="M16.5646 14.6096C16.7803 14.6571 16.9167 14.8705 16.8691 15.0863L16.0521 18.7931C16.0045 19.0088 15.7911 19.1451 15.5753 19.0976C15.3596 19.05 15.2233 18.8366 15.2708 18.6209L16.0879 14.9141C16.1354 14.6983 16.3489 14.562 16.5646 14.6096Z" fill="white"/>
<path fill-rule="evenodd" clip-rule="evenodd" d="M6.50001 2.4001C5.61635 2.4001 4.90001 3.11644 4.90001 4.0001V16.0001C4.90001 16.8838 5.61635 17.6001 6.50001 17.6001H10.5C10.7209 17.6001 10.9 17.7792 10.9 18.0001C10.9 18.221 10.7209 18.4001 10.5 18.4001H6.50001C5.17452 18.4001 4.10001 17.3256 4.10001 16.0001V4.0001C4.10001 2.67461 5.17452 1.6001 6.50001 1.6001H12.1C12.2228 1.6001 12.3387 1.65645 12.4145 1.75297L16.8145 7.35297C16.8699 7.42344 16.9 7.51047 16.9 7.6001V12.3001C16.9 12.521 16.7209 12.7001 16.5 12.7001C16.2791 12.7001 16.1 12.521 16.1 12.3001V7.73844L11.9056 2.4001H6.50001Z" fill="white"/>
<path fill-rule="evenodd" clip-rule="evenodd" d="M12.1 1.6001C12.3209 1.6001 12.5 1.77918 12.5 2.0001V7.2001H16.5C16.7209 7.2001 16.9 7.37918 16.9 7.6001C16.9 7.82101 16.7209 8.0001 16.5 8.0001H12.1C11.8791 8.0001 11.7 7.82101 11.7 7.6001V2.0001C11.7 1.77918 11.8791 1.6001 12.1 1.6001Z" fill="white"/>
<path fill-rule="evenodd" clip-rule="evenodd" d="M7.10001 10.5602C7.10001 10.3392 7.27909 10.1602 7.50001 10.1602H13.5C13.7209 10.1602 13.9 10.3392 13.9 10.5602C13.9 10.7811 13.7209 10.9602 13.5 10.9602H7.50001C7.27909 10.9602 7.10001 10.7811 7.10001 10.5602Z" fill="white"/>
<path fill-rule="evenodd" clip-rule="evenodd" d="M7.10001 12.9601C7.10001 12.7391 7.27909 12.5601 7.50001 12.5601H11.5C11.7209 12.5601 11.9 12.7391 11.9 12.9601C11.9 13.181 11.7209 13.3601 11.5 13.3601H7.50001C7.27909 13.3601 7.10001 13.181 7.10001 12.9601Z" fill="white"/>
</svg>
