<svg width="24" height="24" viewBox="0 0 24 24" fill="none" xmlns="http://www.w3.org/2000/svg">
<path fill-rule="evenodd" clip-rule="evenodd" d="M22 2.60001C22 2.18579 21.6642 1.85001 21.25 1.85001C20.8358 1.85001 20.5 2.18579 20.5 2.60001L20.5 21.4C20.5 21.8142 20.8358 22.15 21.25 22.15C21.6642 22.15 22 21.8142 22 21.4L22 2.60001ZM16.5291 12.5316L12.5303 16.5303C12.2374 16.8232 11.7626 16.8232 11.4697 16.5303C11.1768 16.2374 11.1768 15.7626 11.4697 15.4697L14.1893 12.75L2.75 12.75C2.33578 12.75 2 12.4142 2 12C2 11.5858 2.33579 11.25 2.75 11.25L14.1893 11.25L11.4697 8.53033C11.1768 8.23744 11.1768 7.76256 11.4697 7.46967C11.7626 7.17678 12.2374 7.17678 12.5303 7.46967L16.5303 11.4697C16.8232 11.7626 16.8232 12.2374 16.5303 12.5303" fill="#161721"/>
</svg>
