<svg width="22" height="22" viewBox="0 0 22 22" fill="none" xmlns="http://www.w3.org/2000/svg">
<path fill-rule="evenodd" clip-rule="evenodd" d="M12.3672 4.27234C12.1862 4.10648 11.9051 4.1187 11.7392 4.29964C11.5734 4.48058 11.5856 4.76173 11.7665 4.92759L17.4212 10.1111H3.97765C3.73219 10.1111 3.5332 10.3101 3.5332 10.5555C3.5332 10.801 3.73219 11 3.97765 11H17.2273L11.7665 16.0057C11.5856 16.1715 11.5734 16.4527 11.7392 16.6336C11.9051 16.8146 12.1862 16.8268 12.3672 16.6609L18.7672 10.7943C18.859 10.7101 18.9113 10.5912 18.9113 10.4666C18.9113 10.3421 18.859 10.2232 18.7672 10.139L12.3672 4.27234Z" fill="#898989"/>
<path fill-rule="evenodd" clip-rule="evenodd" d="M21.2221 1.22217C21.4675 1.22217 21.6665 1.42115 21.6665 1.66661V20.3333C21.6665 20.5787 21.4675 20.7777 21.2221 20.7777C20.9766 20.7777 20.7776 20.5787 20.7776 20.3333V1.66661C20.7776 1.42115 20.9766 1.22217 21.2221 1.22217Z" fill="#898989"/>
</svg>
