<svg width="32" height="32" viewBox="0 0 32 32" fill="none" xmlns="http://www.w3.org/2000/svg">
<path d="M0 4C0 1.79086 1.79086 0 4 0H28C30.2091 0 32 1.79086 32 4V28C32 30.2091 30.2091 32 28 32H4C1.79086 32 0 30.2091 0 28V4Z" fill="#F4F5F7"/>
<rect width="32" height="32" rx="4" fill="#0C2739"/>
<path d="M7.12536 18.6988H6.26525V19.9438H5.6122V18.6988H3V18.2008L5.73166 14.2249H6.26525V18.1526H7.12536V18.6988ZM5.6122 18.1526V15.3414L3.67694 18.1526H5.6122Z" fill="white"/>
<path d="M11.5662 19.3896V19.9438H8.40446V19.3896H9.65481V15.0442L8.49206 15.7912V15.1566L9.94151 14.2249H10.3158V19.3896H11.5662Z" fill="white"/>
<path d="M14.3186 14.5622C14.1062 14.5622 13.939 14.6238 13.8169 14.747C13.7001 14.8648 13.6417 15.071 13.6417 15.3655V15.9036H14.6212V16.4177H13.6417V19.9438H12.9966V16.4177H12.2161V15.9036H12.9966V15.2851C12.9966 14.8621 13.1001 14.5435 13.3072 14.3293C13.5196 14.1098 13.8142 14 14.1912 14C14.377 14 14.5575 14.0241 14.7327 14.0723V14.6265C14.5841 14.5837 14.446 14.5622 14.3186 14.5622Z" fill="white"/>
<path d="M18.9539 14.0321V19.9438H18.3168V19.2129C18.2 19.4645 18.0221 19.66 17.7832 19.7992C17.5496 19.9331 17.2762 20 16.9629 20C16.6125 20 16.3019 19.9116 16.0311 19.7349C15.7657 19.5582 15.5586 19.3119 15.4099 18.996C15.2613 18.6747 15.1869 18.3052 15.1869 17.8876C15.1869 17.4699 15.2586 17.1058 15.402 16.7952C15.5506 16.4793 15.7604 16.2356 16.0311 16.0643C16.3019 15.8929 16.6125 15.8072 16.9629 15.8072C17.2762 15.8072 17.5496 15.8768 17.7832 16.0161C18.0168 16.1499 18.192 16.34 18.3088 16.5863V14.0321H18.9539ZM17.0903 19.4618C17.4832 19.4618 17.7859 19.328 17.9982 19.0602C18.2106 18.7871 18.3168 18.4016 18.3168 17.9036C18.3168 17.411 18.2106 17.0308 17.9982 16.7631C17.7859 16.49 17.4832 16.3534 17.0903 16.3534C16.6975 16.3534 16.3895 16.4873 16.1665 16.755C15.9488 17.0228 15.84 17.4003 15.84 17.8876C15.84 18.3855 15.9488 18.7738 16.1665 19.0522C16.3895 19.3253 16.6975 19.4618 17.0903 19.4618Z" fill="white"/>
<path d="M22.8293 17.004C23.2009 17.1058 23.4876 17.2825 23.6894 17.5341C23.8965 17.7805 24 18.0776 24 18.4257C24 18.913 23.8168 19.2985 23.4505 19.5823C23.0841 19.8608 22.5904 20 21.9692 20C21.348 20 20.8542 19.8608 20.4879 19.5823C20.1215 19.2985 19.9383 18.913 19.9383 18.4257C19.9383 18.0776 20.0419 17.7778 20.2489 17.5261C20.4613 17.2744 20.7507 17.1004 21.117 17.004C20.7772 16.9023 20.5171 16.7363 20.3365 16.506C20.156 16.2704 20.0658 15.9946 20.0658 15.6787C20.0658 15.3735 20.1454 15.1084 20.3047 14.8835C20.464 14.6533 20.687 14.4766 20.9737 14.3534C21.2657 14.2249 21.5975 14.1606 21.9692 14.1606C22.3408 14.1606 22.67 14.2249 22.9567 14.3534C23.2487 14.4766 23.4744 14.6533 23.6337 14.8835C23.7929 15.1084 23.8726 15.3735 23.8726 15.6787C23.8726 15.9946 23.7797 16.2704 23.5938 16.506C23.4133 16.7363 23.1585 16.9023 22.8293 17.004ZM20.7188 15.7269C20.7188 16.0321 20.8303 16.2811 21.0533 16.4739C21.2816 16.6613 21.5869 16.7764 21.9692 16.8193C22.3514 16.7764 22.6541 16.6613 22.8771 16.4739C23.1054 16.2811 23.2195 16.0321 23.2195 15.7269C23.2195 15.411 23.108 15.162 22.885 14.9799C22.6674 14.7979 22.3621 14.7068 21.9692 14.7068C21.5763 14.7068 21.2683 14.7979 21.0453 14.9799C20.8277 15.162 20.7188 15.411 20.7188 15.7269ZM21.9692 19.4538C22.4152 19.4538 22.7576 19.3628 22.9965 19.1807C23.2355 18.9987 23.3549 18.7336 23.3549 18.3855C23.3549 18.0696 23.2275 17.8179 22.9726 17.6305C22.7231 17.4378 22.3886 17.3199 21.9692 17.2771C21.5497 17.3199 21.2126 17.4378 20.9577 17.6305C20.7082 17.8179 20.5834 18.0696 20.5834 18.3855C20.5834 18.7336 20.7029 18.9987 20.9418 19.1807C21.1807 19.3628 21.5232 19.4538 21.9692 19.4538Z" fill="white"/>
<rect x="25" y="19" width="4" height="1" fill="white"/>
</svg>
