<svg width="24" height="24" viewBox="0 0 24 24" fill="none" xmlns="http://www.w3.org/2000/svg">
<path d="M0 4C0 1.79086 1.79086 0 4 0H20C22.2091 0 24 1.79086 24 4V20C24 22.2091 22.2091 24 20 24H4C1.79086 24 0 22.2091 0 20V4Z" fill="white"/>
<path fill-rule="evenodd" clip-rule="evenodd" d="M4 0C1.79086 0 0 1.79086 0 4V20C0 22.2091 1.79086 24 4 24H20C22.2091 24 24 22.2091 24 20V4C24 1.79086 22.2091 0 20 0H4ZM10.739 10.9217C10.5797 10.9217 10.4542 10.9679 10.3627 11.0602C10.2751 11.1486 10.2313 11.3032 10.2313 11.5241V11.9277H10.9659V12.3133H10.2313V14.9578H9.74744V12.3133H9.16208V11.9277H9.74744V11.4639C9.74744 11.1466 9.82509 10.9076 9.98039 10.747C10.1397 10.5823 10.3607 10.5 10.6434 10.5C10.7828 10.5 10.9182 10.5181 11.0496 10.5542V10.9699C10.9381 10.9378 10.8345 10.9217 10.739 10.9217ZM4.69894 14.0241H5.34402V13.6145H4.69894V10.6687H4.29874L2.25 13.6506V14.0241H4.20915V14.9578H4.69894V14.0241ZM4.20915 11.506V13.6145H2.75771L4.20915 11.506ZM8.67463 14.9578V14.5422H7.73687V10.6687H7.45614L6.36905 11.3675V11.8434L7.24111 11.2831V14.5422H6.30334V14.9578H8.67463ZM14.2154 14.9578V10.5241H13.7316V12.4398C13.644 12.255 13.5126 12.1124 13.3374 12.012C13.1622 11.9076 12.9571 11.8554 12.7222 11.8554C12.4594 11.8554 12.2264 11.9197 12.0233 12.0482C11.8203 12.1767 11.663 12.3594 11.5515 12.5964C11.444 12.8293 11.3902 13.1024 11.3902 13.4157C11.3902 13.7289 11.446 14.006 11.5575 14.247C11.6689 14.4839 11.8242 14.6687 12.0233 14.8012C12.2264 14.9337 12.4594 15 12.7222 15C12.9571 15 13.1622 14.9498 13.3374 14.8494C13.5166 14.745 13.65 14.5984 13.7376 14.4096V14.9578H14.2154ZM13.4987 14.2952C13.3394 14.496 13.1124 14.5964 12.8178 14.5964C12.5231 14.5964 12.2921 14.494 12.1249 14.2892C11.9616 14.0803 11.88 13.7892 11.88 13.4157C11.88 13.0502 11.9616 12.7671 12.1249 12.5663C12.2921 12.3655 12.5231 12.2651 12.8178 12.2651C13.1124 12.2651 13.3394 12.3675 13.4987 12.5723C13.658 12.7731 13.7376 13.0582 13.7376 13.4277C13.7376 13.8012 13.658 14.0904 13.4987 14.2952ZM17.122 12.753C17.4007 12.8293 17.6157 12.9618 17.7671 13.1506C17.9224 13.3353 18 13.5582 18 13.8193C18 14.1847 17.8626 14.4739 17.5879 14.6867C17.3131 14.8956 16.9428 15 16.4769 15C16.011 15 15.6407 14.8956 15.3659 14.6867C15.0911 14.4739 14.9538 14.1847 14.9538 13.8193C14.9538 13.5582 15.0314 13.3333 15.1867 13.1446C15.346 12.9558 15.563 12.8253 15.8378 12.753C15.5829 12.6767 15.3878 12.5522 15.2524 12.3795C15.117 12.2028 15.0493 11.996 15.0493 11.759C15.0493 11.5301 15.1091 11.3313 15.2285 11.1627C15.348 10.99 15.5152 10.8574 15.7303 10.7651C15.9493 10.6687 16.1981 10.6205 16.4769 10.6205C16.7556 10.6205 17.0025 10.6687 17.2175 10.7651C17.4365 10.8574 17.6058 10.99 17.7252 11.1627C17.8447 11.3313 17.9044 11.5301 17.9044 11.759C17.9044 11.996 17.8347 12.2028 17.6954 12.3795C17.56 12.5522 17.3689 12.6767 17.122 12.753ZM15.5391 11.7952C15.5391 12.0241 15.6227 12.2108 15.79 12.3554C15.9612 12.496 16.1902 12.5823 16.4769 12.6145C16.7636 12.5823 16.9906 12.496 17.1578 12.3554C17.329 12.2108 17.4146 12.0241 17.4146 11.7952C17.4146 11.5582 17.331 11.3715 17.1638 11.2349C17.0005 11.0984 16.7715 11.0301 16.4769 11.0301C16.1822 11.0301 15.9513 11.0984 15.784 11.2349C15.6207 11.3715 15.5391 11.5582 15.5391 11.7952ZM16.4769 14.5904C16.8114 14.5904 17.0682 14.5221 17.2474 14.3855C17.4266 14.249 17.5162 14.0502 17.5162 13.7892C17.5162 13.5522 17.4206 13.3635 17.2295 13.2229C17.0423 13.0783 16.7915 12.99 16.4769 12.9578C16.1623 12.99 15.9094 13.0783 15.7183 13.2229C15.5312 13.3635 15.4376 13.5522 15.4376 13.7892C15.4376 14.0502 15.5272 14.249 15.7064 14.3855C15.8856 14.5221 16.1424 14.5904 16.4769 14.5904ZM21.75 14.25H18.75V15H21.75V14.25Z" fill="#0C2739"/>
</svg>
