<svg width="24" height="24" viewBox="0 0 24 24" fill="none" xmlns="http://www.w3.org/2000/svg">
<path d="M13.2 12C13.8365 12 14.447 12.2529 14.8971 12.7029C15.3472 13.153 15.6 13.7635 15.6 14.4V16.2C15.6 18.6648 13.0944 20.4 9.00002 20.4C4.90562 20.4 2.40002 18.6648 2.40002 16.2V14.4C2.40002 13.7635 2.65288 13.153 3.10297 12.7029C3.55306 12.2529 4.1635 12 4.80002 12H13.2ZM13.2 13.2H4.80002C4.48176 13.2 4.17654 13.3264 3.9515 13.5515C3.72645 13.7765 3.60002 14.0817 3.60002 14.4V16.2C3.60002 17.8884 5.49482 19.2 9.00002 19.2C12.5052 19.2 14.4 17.8884 14.4 16.2V14.4C14.4 14.0817 14.2736 13.7765 14.0486 13.5515C13.8235 13.3264 13.5183 13.2 13.2 13.2ZM19.2 12C19.8365 12 20.447 12.2529 20.8971 12.7029C21.3472 13.153 21.6 13.7635 21.6 14.4V15C21.6 17.5068 19.7184 19.2 16.2 19.2C16.0308 19.2 15.864 19.1964 15.7032 19.188C15.9497 18.9025 16.1601 18.5877 16.3296 18.2508L16.446 17.9952H16.4928C19.1712 17.9172 20.4 16.752 20.4 15V14.4C20.4 14.0817 20.2736 13.7765 20.0486 13.5515C19.8235 13.3264 19.5183 13.2 19.2 13.2H16.5948C16.4378 12.7573 16.1956 12.3497 15.882 12H19.2ZM9.00002 2.4C9.55158 2.4 10.0977 2.50864 10.6073 2.71971C11.1169 2.93078 11.5799 3.24015 11.9699 3.63015C12.3599 4.02016 12.6692 4.48316 12.8803 4.99273C13.0914 5.5023 13.2 6.04845 13.2 6.6C13.2 7.15155 13.0914 7.69771 12.8803 8.20727C12.6692 8.71684 12.3599 9.17984 11.9699 9.56985C11.5799 9.95986 11.1169 10.2692 10.6073 10.4803C10.0977 10.6914 9.55158 10.8 9.00002 10.8C7.88612 10.8 6.81783 10.3575 6.03018 9.56985C5.24252 8.7822 4.80002 7.71391 4.80002 6.6C4.80002 5.48609 5.24252 4.41781 6.03018 3.63015C6.81783 2.8425 7.88612 2.4 9.00002 2.4ZM17.4 4.8C18.1957 4.8 18.9587 5.11607 19.5213 5.67868C20.084 6.24129 20.4 7.00435 20.4 7.8C20.4 8.59565 20.084 9.35871 19.5213 9.92132C18.9587 10.4839 18.1957 10.8 17.4 10.8C16.6044 10.8 15.8413 10.4839 15.2787 9.92132C14.7161 9.35871 14.4 8.59565 14.4 7.8C14.4 7.00435 14.7161 6.24129 15.2787 5.67868C15.8413 5.11607 16.6044 4.8 17.4 4.8ZM9.00002 3.6C8.20437 3.6 7.44131 3.91607 6.8787 4.47868C6.31609 5.04129 6.00002 5.80435 6.00002 6.6C6.00002 7.39565 6.31609 8.15871 6.8787 8.72132C7.44131 9.28393 8.20437 9.6 9.00002 9.6C9.79567 9.6 10.5587 9.28393 11.1213 8.72132C11.684 8.15871 12 7.39565 12 6.6C12 5.80435 11.684 5.04129 11.1213 4.47868C10.5587 3.91607 9.79567 3.6 9.00002 3.6ZM17.4 6C16.9226 6 16.4648 6.18964 16.1272 6.52721C15.7897 6.86478 15.6 7.32261 15.6 7.8C15.6 8.27739 15.7897 8.73523 16.1272 9.07279C16.4648 9.41036 16.9226 9.6 17.4 9.6C17.8774 9.6 18.3353 9.41036 18.6728 9.07279C19.0104 8.73523 19.2 8.27739 19.2 7.8C19.2 7.32261 19.0104 6.86478 18.6728 6.52721C18.3353 6.18964 17.8774 6 17.4 6Z" fill="black"/>
</svg>
