<svg width="24" height="24" viewBox="0 0 24 24" fill="none" xmlns="http://www.w3.org/2000/svg">
<path fill-rule="evenodd" clip-rule="evenodd" d="M6.57001 7.81998C6.57001 6.5663 7.58631 5.54999 8.84 5.54999C10.0937 5.54999 11.11 6.5663 11.11 7.81998C11.11 9.07367 10.0937 10.09 8.84 10.09C7.58631 10.09 6.57001 9.07367 6.57001 7.81998ZM8.84 4.04999C6.75788 4.04999 5.07001 5.73787 5.07001 7.81998C5.07001 9.9021 6.75788 11.59 8.84 11.59C10.9221 11.59 12.61 9.9021 12.61 7.81998C12.61 5.73787 10.9221 4.04999 8.84 4.04999ZM3.5 17.48C3.5 15.8942 4.78421 14.61 6.37 14.61H11.79C13.3758 14.61 14.66 15.8942 14.66 17.48V19.2C14.66 19.6142 14.9958 19.95 15.41 19.95C15.8242 19.95 16.16 19.6142 16.16 19.2V17.48C16.16 15.0658 14.2042 13.11 11.79 13.11H6.37C3.95578 13.11 2 15.0658 2 17.48V19.2C2 19.6142 2.33579 19.95 2.75 19.95C3.16421 19.95 3.5 19.6142 3.5 19.2V17.48ZM16.38 7.96997C15.5571 7.96997 14.89 8.63707 14.89 9.45997C14.89 10.2829 15.5571 10.95 16.38 10.95C17.2029 10.95 17.87 10.2829 17.87 9.45997C17.87 8.63706 17.2029 7.96997 16.38 7.96997ZM13.39 9.45997C13.39 7.80863 14.7287 6.46997 16.38 6.46997C18.0313 6.46997 19.37 7.80864 19.37 9.45997C19.37 11.1113 18.0313 12.45 16.38 12.45C14.7287 12.45 13.39 11.1113 13.39 9.45997ZM17.02 13.19C16.6058 13.19 16.27 13.5258 16.27 13.94C16.27 14.3542 16.6058 14.69 17.02 14.69H18.56C19.6258 14.69 20.49 15.5542 20.49 16.62V17.9C20.49 18.3142 20.8258 18.65 21.24 18.65C21.6542 18.65 21.99 18.3142 21.99 17.9V16.62C21.99 14.7258 20.4542 13.19 18.56 13.19H17.02Z" fill="#161721"/>
</svg>
