<svg width="24" height="24" viewBox="0 0 24 24" fill="none" xmlns="http://www.w3.org/2000/svg">
<g clip-path="url(#clip0_914_95676)">
<path d="M0.870168 18.2568C0.622168 18.6388 0.340168 19.1318 0.107168 19.5018C0.00487978 19.674 -0.0257108 19.8795 0.0219815 20.074C0.0696739 20.2685 0.191835 20.4365 0.362168 20.5418L5.32717 23.5958C5.41347 23.6491 5.50951 23.6846 5.60969 23.7004C5.70987 23.7161 5.81218 23.7118 5.91066 23.6876C6.00913 23.6634 6.10181 23.6198 6.18328 23.5594C6.26474 23.499 6.33337 23.423 6.38517 23.3358C6.58417 23.0038 6.83917 22.5728 7.11817 22.1148C9.08517 18.8678 11.0632 19.2618 14.6262 20.9688L19.5832 23.3058C19.6755 23.3498 19.7757 23.3749 19.8779 23.3794C19.9801 23.3839 20.0821 23.3679 20.178 23.3323C20.2739 23.2967 20.3616 23.2422 20.436 23.172C20.5104 23.1018 20.57 23.0174 20.6112 22.9238L22.9752 17.5778C23.0552 17.3943 23.06 17.1868 22.9886 16.9997C22.9171 16.8127 22.7752 16.6612 22.5932 16.5778C20.9346 15.7984 19.2796 15.0114 17.6282 14.2168C10.9112 10.9698 5.22417 11.1848 0.870168 18.2568ZM23.1312 5.74284C23.3802 5.33783 23.6622 4.86784 23.8952 4.49284C23.9955 4.32107 24.0249 4.11695 23.9771 3.92386C23.9293 3.73077 23.8081 3.56394 23.6392 3.45884L18.6752 0.403835C18.5889 0.350588 18.4928 0.315054 18.3926 0.299307C18.2925 0.28356 18.1902 0.287913 18.0917 0.312114C17.9932 0.336314 17.9005 0.379878 17.8191 0.440264C17.7376 0.50065 17.669 0.576651 17.6172 0.663835C17.3769 1.0748 17.1322 1.48316 16.8832 1.88883C14.9172 5.13484 12.9382 4.73884 9.37517 3.03484L4.43717 0.693835C4.34489 0.649993 4.24476 0.625103 4.14269 0.620637C4.04063 0.616172 3.93871 0.632222 3.84295 0.667838C3.7472 0.703454 3.65956 0.757912 3.58523 0.827991C3.51089 0.89807 3.45136 0.982347 3.41017 1.07583L1.04617 6.42183C0.966129 6.60533 0.961311 6.81291 1.03275 6.99992C1.10419 7.18693 1.24618 7.33844 1.42817 7.42183C2.46717 7.91183 4.53317 8.88883 6.39317 9.78284C13.0912 13.0288 18.7852 12.8118 23.1312 5.74284Z" fill="black"/>
</g>
<defs>
<clipPath id="clip0_914_95676">
<rect width="24" height="24" fill="white"/>
</clipPath>
</defs>
</svg>
