<svg width="24" height="24" viewBox="0 0 24 24" fill="none" xmlns="http://www.w3.org/2000/svg">
<mask id="path-1-inside-1_529_126832" fill="white">
<path fill-rule="evenodd" clip-rule="evenodd" d="M11.1041 2.91666C11.1041 1.85812 10.246 1 9.18745 1C8.12891 1 7.27079 1.85812 7.27079 2.91666H5.83329C5.56866 2.91666 5.35413 3.13119 5.35413 3.39583V4.83333C5.35413 5.3626 5.78319 5.79166 6.31246 5.79166H12.0625C12.5917 5.79166 13.0208 5.3626 13.0208 4.83333V3.39583C13.0208 3.13119 12.8063 2.91666 12.5416 2.91666H11.1041Z"/>
</mask>
<path d="M11.1041 2.91666H10.4333V3.5875H11.1041V2.91666ZM7.27079 2.91666V3.5875H7.94162V2.91666H7.27079ZM9.18745 1.67083C9.87551 1.67083 10.4333 2.22861 10.4333 2.91666H11.775C11.775 1.48763 10.6165 0.329168 9.18745 0.329168V1.67083ZM7.94162 2.91666C7.94162 2.22861 8.4994 1.67083 9.18745 1.67083V0.329168C7.75842 0.329168 6.59996 1.48763 6.59996 2.91666H7.94162ZM5.83329 3.5875H7.27079V2.24583H5.83329V3.5875ZM6.02496 3.39583C6.02496 3.50169 5.93915 3.5875 5.83329 3.5875V2.24583C5.19817 2.24583 4.68329 2.7607 4.68329 3.39583H6.02496ZM6.02496 4.83333V3.39583H4.68329V4.83333H6.02496ZM6.31246 5.12083C6.15368 5.12083 6.02496 4.99211 6.02496 4.83333H4.68329C4.68329 5.73309 5.4127 6.46249 6.31246 6.46249V5.12083ZM12.0625 5.12083H6.31246V6.46249H12.0625V5.12083ZM12.35 4.83333C12.35 4.99211 12.2212 5.12083 12.0625 5.12083V6.46249C12.9622 6.46249 13.6916 5.73309 13.6916 4.83333H12.35ZM12.35 3.39583V4.83333H13.6916V3.39583H12.35ZM12.5416 3.5875C12.4358 3.5875 12.35 3.50168 12.35 3.39583H13.6916C13.6916 2.7607 13.1767 2.24583 12.5416 2.24583V3.5875ZM11.1041 3.5875H12.5416V2.24583H11.1041V3.5875Z" fill="#4A4A4A" mask="url(#path-1-inside-1_529_126832)"/>
<path d="M20.2083 23.5208H12.5416C12.0124 23.5208 11.5833 23.0918 11.5833 22.5625V12.9792C11.5833 12.4499 12.0124 12.0208 12.5416 12.0208H18.052C18.3537 12.0208 18.6377 12.1628 18.8187 12.4042L20.9749 15.2792C21.0994 15.4451 21.1666 15.6468 21.1666 15.8542V22.5625C21.1666 23.0918 20.7376 23.5208 20.2083 23.5208Z" stroke="#4A4A4A" stroke-width="0.958332"/>
<line x1="13.0209" y1="16.8125" x2="19.7292" y2="16.8125" stroke="#4A4A4A" stroke-width="0.958332"/>
<line x1="13.0209" y1="19.6875" x2="19.7292" y2="19.6875" stroke="#4A4A4A" stroke-width="0.958332"/>
<path d="M16.8541 10.1041V6.27082C16.8541 5.21227 15.996 4.35416 14.9375 4.35416H12.5416" stroke="#4A4A4A" stroke-width="0.958332"/>
<path d="M5.35416 4.35416H3.91666C2.85812 4.35416 2 5.21228 2 6.27082V18.7291C2 19.7877 2.85812 20.6458 3.91666 20.6458H9.66666" stroke="#4A4A4A" stroke-width="0.958332"/>
</svg>
