<svg width="20" height="20" viewBox="0 0 20 20" fill="none" xmlns="http://www.w3.org/2000/svg">
<path fill-rule="evenodd" clip-rule="evenodd" d="M7.70291 2H15.141C15.8389 2 16.4058 2.56686 16.4058 3.2648V13.9369C16.4058 14.6349 15.8389 15.2017 15.141 15.2017C14.8952 15.2017 14.6986 15.0051 14.6986 14.7594C14.6986 14.5136 14.8952 14.317 15.141 14.317C15.3507 14.317 15.5211 14.1466 15.5211 13.9369V3.2648C15.5211 3.05509 15.3507 2.8847 15.141 2.8847H7.70291C7.4932 2.8847 7.32281 3.05509 7.32281 3.2648C7.32281 3.51055 7.12621 3.70715 6.88046 3.70715C6.63471 3.70715 6.43811 3.51055 6.43811 3.2648C6.43811 2.56686 7.00498 2 7.70291 2ZM4.85879 4.79834H12.2968C12.9915 4.79834 13.5584 5.3652 13.5616 6.06314V16.7353C13.5616 17.4332 12.9948 18.0001 12.2968 18.0001H4.85879C4.16086 18.0001 3.59399 17.4332 3.59399 16.7353V6.06314C3.59399 5.3652 4.16086 4.79834 4.85879 4.79834ZM12.2936 17.1121C12.5033 17.1121 12.6737 16.9417 12.6737 16.732V6.06314C12.6737 5.85343 12.5033 5.68304 12.2936 5.68304H4.85551C4.64581 5.68304 4.47542 5.85343 4.47542 6.06314V16.732C4.47542 16.9417 4.64581 17.1121 4.85551 17.1121H12.2936Z" fill="#0C2739"/>
</svg>
