<svg width="24" height="24" viewBox="0 0 24 24" fill="none" xmlns="http://www.w3.org/2000/svg">
<path fill-rule="evenodd" clip-rule="evenodd" d="M4.43243 5.5C3.98622 5.5 3.55829 5.67726 3.24277 5.99277C2.92726 6.30829 2.75 6.73622 2.75 7.18243V8.20544H21.25V7.18243C21.25 6.73622 21.0727 6.30829 20.7572 5.99277C20.4417 5.67726 20.0138 5.5 19.5676 5.5H4.43243ZM22.75 8.95466V7.18243C22.75 6.3384 22.4147 5.52893 21.8179 4.93211C21.2211 4.33529 20.4116 4 19.5676 4H4.43243C3.5884 4 2.77893 4.33529 2.18211 4.93211C1.58529 5.52893 1.25 6.3384 1.25 7.18243V15.6473C1.25 16.4913 1.58529 17.3008 2.18211 17.8976C2.77893 18.4944 3.5884 18.8297 4.43243 18.8297H19.5676C19.9839 18.8294 20.3969 18.7479 20.7821 18.5898L20.7875 18.5875C21.5642 18.2616 22.1818 17.6439 22.5078 16.8673L22.51 16.8618C22.6681 16.4766 22.7496 16.0643 22.75 15.6479L22.75 8.95623C22.75 8.95597 22.75 8.95571 22.75 8.95544C22.75 8.95518 22.75 8.95492 22.75 8.95466ZM21.25 9.70544H2.75V15.6473C2.75 16.0935 2.92726 16.5214 3.24277 16.837C3.55829 17.1525 3.98622 17.3297 4.43243 17.3297H19.5669C19.7874 17.3295 20.0057 17.2866 20.2098 17.2032C20.6219 17.0294 20.9498 16.7015 21.1235 16.2894C21.2069 16.0854 21.2498 15.8671 21.25 15.6467V9.70544ZM4.88243 14.7392C4.88243 14.325 5.21822 13.9892 5.63243 13.9892H6.71351C7.12773 13.9892 7.46351 14.325 7.46351 14.7392C7.46351 15.1534 7.12773 15.4892 6.71351 15.4892H5.63243C5.21822 15.4892 4.88243 15.1534 4.88243 14.7392Z" fill="#161721"/>
</svg>
