<svg width="24" height="24" viewBox="0 0 24 24" fill="none" xmlns="http://www.w3.org/2000/svg">
<path fill-rule="evenodd" clip-rule="evenodd" d="M12 3.25C12.2667 3.25 12.5134 3.39168 12.6478 3.6221L15.681 8.82184L20.4955 4.44504C20.7334 4.22878 21.0826 4.18819 21.3638 4.34413C21.6449 4.50007 21.7954 4.81786 21.7379 5.13416L19.7379 16.1342C19.6731 16.4908 19.3625 16.75 19 16.75H5C4.63753 16.75 4.32693 16.4908 4.26209 16.1342L2.26209 5.13416C2.20458 4.81786 2.35507 4.50007 2.63621 4.34413C2.91735 4.18819 3.26661 4.22878 3.5045 4.44504L8.31898 8.82184L11.3522 3.6221C11.4866 3.39168 11.7332 3.25 12 3.25ZM12 5.48848L9.14783 10.3779C9.0338 10.5734 8.83758 10.7069 8.61389 10.7413C8.3902 10.7757 8.16295 10.7072 7.99549 10.555L4.13402 7.04453L5.62593 15.25H18.3741L19.866 7.04453L16.0045 10.555C15.837 10.7072 15.6098 10.7757 15.3861 10.7413C15.1624 10.7069 14.9662 10.5734 14.8522 10.3779L12 5.48848ZM4.25 18.5C4.25 18.0858 4.58578 17.75 5 17.75H19C19.4142 17.75 19.75 18.0858 19.75 18.5C19.75 18.9142 19.4142 19.25 19 19.25H5C4.58578 19.25 4.25 18.9142 4.25 18.5Z" fill="#161721"/>
</svg>
