<svg width="24" height="24" viewBox="0 0 24 24" fill="none" xmlns="http://www.w3.org/2000/svg">
<path d="M6.60001 13.16C6.30001 13.16 6.00001 13.04 5.79001 12.82C5.67001 12.7 5.59001 12.58 5.54001 12.44C5.48001 12.3 5.45001 12.15 5.45001 12C5.45001 11.85 5.48001 11.7 5.54001 11.56C5.60001 11.41 5.68001 11.28 5.79001 11.18C5.89001 11.08 6.02 10.99 6.16 10.94C6.37 10.85 6.59999 10.82 6.82999 10.87C6.89999 10.88 6.96999 10.91 7.04999 10.94C7.10999 10.96 7.18 11 7.25 11.04C7.31 11.08 7.37001 11.13 7.42001 11.18C7.52001 11.3 7.61001 11.41 7.67001 11.56C7.73001 11.7 7.75 11.85 7.75 12C7.75 12.31 7.63 12.6 7.41 12.82C7.31 12.92 7.18001 13.01 7.04001 13.06C6.90001 13.11 6.76001 13.16 6.60001 13.16Z" fill="#161721"/>
<path d="M6.60001 19.32C6.30001 19.32 6.00001 19.2 5.79001 18.98C5.57001 18.76 5.44 18.47 5.44 18.16C5.44 17.86 5.57001 17.56 5.79001 17.35C6.22001 16.91 6.99001 16.91 7.42001 17.35C7.64001 17.56 7.76001 17.86 7.76001 18.16C7.76001 18.47 7.64001 18.76 7.42001 18.98C7.32001 19.08 7.18999 19.18 7.04999 19.23C6.89999 19.3 6.76001 19.32 6.60001 19.32Z" fill="#161721"/>
<path fill-rule="evenodd" clip-rule="evenodd" d="M1.98999 5.74001C1.98999 3.67579 3.6658 2 5.73001 2H18.26C20.3242 2 22 3.6758 22 5.74001V5.94C22 8.00422 20.3242 9.67999 18.26 9.67999H5.73001C3.66581 9.67999 1.98999 8.00423 1.98999 5.94V5.74001ZM5.73001 3.5C4.49422 3.5 3.48999 4.50422 3.48999 5.74001V5.94C3.48999 7.17578 4.49421 8.17999 5.73001 8.17999H18.26C19.4958 8.17999 20.5 7.17579 20.5 5.94V5.74001C20.5 4.50421 19.4958 3.5 18.26 3.5H5.73001ZM14.33 5.83002C14.33 5.4158 14.6658 5.08002 15.08 5.08002H18.17C18.5842 5.08002 18.92 5.4158 18.92 5.83002C18.92 6.24423 18.5842 6.58002 18.17 6.58002H15.08C14.6658 6.58002 14.33 6.24423 14.33 5.83002ZM5.79001 6.63998C6.00001 6.85998 6.30001 6.98999 6.60001 6.98999C6.91001 6.98999 7.2 6.86998 7.41 6.63998C7.63 6.41998 7.75 6.12999 7.75 5.82999C7.75 5.51999 7.63 5.22998 7.41 5.00998C7.37321 4.96583 7.33099 4.93251 7.28735 4.89806C7.27168 4.8857 7.25584 4.87319 7.23999 4.85999C7.20499 4.84499 7.17249 4.82748 7.14 4.80998C7.1075 4.79248 7.07501 4.77498 7.04001 4.75998C7.01977 4.7542 6.99869 4.74758 6.97726 4.74085C6.92458 4.7243 6.86977 4.70709 6.82001 4.69998C6.59001 4.64998 6.35999 4.67998 6.14999 4.75998C6.00999 4.80998 5.88 4.90998 5.78 5.00998C5.67 5.10998 5.59 5.23999 5.53 5.37999C5.47 5.52999 5.44 5.67999 5.44 5.82999C5.44 6.12999 5.57001 6.41998 5.79001 6.63998Z" fill="#161721"/>
<path fill-rule="evenodd" clip-rule="evenodd" d="M1.98999 11.94C1.98999 9.8758 3.6658 8.20001 5.73001 8.20001H18.26C20.3242 8.20001 22 9.87581 22 11.94V12.14C22 14.2042 20.3242 15.88 18.26 15.88H5.73001C3.66581 15.88 1.98999 14.2042 1.98999 12.14V11.94ZM5.73001 9.70001C4.49422 9.70001 3.48999 10.7042 3.48999 11.94V12.14C3.48999 13.3758 4.49421 14.38 5.73001 14.38H18.26C19.4958 14.38 20.5 13.3758 20.5 12.14V11.94C20.5 10.7042 19.4958 9.70001 18.26 9.70001H5.73001ZM14.33 12.03C14.33 11.6158 14.6658 11.28 15.08 11.28H18.17C18.5842 11.28 18.92 11.6158 18.92 12.03C18.92 12.4442 18.5842 12.78 18.17 12.78H15.08C14.6658 12.78 14.33 12.4442 14.33 12.03ZM5.79001 12.84C6.00001 13.06 6.30001 13.19 6.60001 13.19C6.91001 13.19 7.2 13.07 7.41 12.84C7.63 12.62 7.75 12.33 7.75 12.03C7.75 11.72 7.63 11.43 7.41 11.21C7.37321 11.1658 7.33099 11.1325 7.28735 11.0981C7.27168 11.0857 7.25584 11.0732 7.23999 11.06C7.20499 11.045 7.17249 11.0275 7.14 11.01C7.1075 10.9925 7.07501 10.975 7.04001 10.96C7.01977 10.9542 6.99869 10.9476 6.97726 10.9409C6.92458 10.9243 6.86977 10.9071 6.82001 10.9C6.59001 10.85 6.35999 10.88 6.14999 10.96C6.00999 11.01 5.88 11.11 5.78 11.21C5.67 11.31 5.59 11.44 5.53 11.58C5.47 11.73 5.44 11.88 5.44 12.03C5.44 12.33 5.57001 12.62 5.79001 12.84Z" fill="#161721"/>
<path fill-rule="evenodd" clip-rule="evenodd" d="M1.98999 18.14C1.98999 16.0758 3.6658 14.4 5.73001 14.4H18.26C20.3242 14.4 22 16.0758 22 18.14V18.34C22 20.4042 20.3242 22.08 18.26 22.08H5.73001C3.66581 22.08 1.98999 20.4043 1.98999 18.34V18.14ZM5.73001 15.9C4.49422 15.9 3.48999 16.9042 3.48999 18.14V18.34C3.48999 19.5758 4.49421 20.58 5.73001 20.58H18.26C19.4958 20.58 20.5 19.5758 20.5 18.34V18.14C20.5 16.9042 19.4958 15.9 18.26 15.9H5.73001ZM14.33 18.23C14.33 17.8158 14.6658 17.48 15.08 17.48H18.17C18.5842 17.48 18.92 17.8158 18.92 18.23C18.92 18.6443 18.5842 18.98 18.17 18.98H15.08C14.6658 18.98 14.33 18.6443 14.33 18.23ZM5.79001 19.04C6.00001 19.26 6.30001 19.39 6.60001 19.39C6.91001 19.39 7.2 19.27 7.41 19.04C7.63 18.82 7.75 18.53 7.75 18.23C7.75 17.92 7.63 17.63 7.41 17.41C7.37321 17.3659 7.33099 17.3325 7.28735 17.2981C7.27168 17.2857 7.25584 17.2732 7.23999 17.26C7.20499 17.245 7.17249 17.2275 7.14 17.21C7.1075 17.1925 7.07501 17.175 7.04001 17.16C7.01977 17.1542 6.99869 17.1476 6.97726 17.1409C6.92458 17.1243 6.86977 17.1071 6.82001 17.1C6.59001 17.05 6.35999 17.08 6.14999 17.16C6.00999 17.21 5.88 17.31 5.78 17.41C5.67 17.51 5.59 17.64 5.53 17.78C5.47 17.93 5.44 18.08 5.44 18.23C5.44 18.53 5.57001 18.82 5.79001 19.04Z" fill="#161721"/>
</svg>
