<svg width="20" height="20" viewBox="0 0 20 20" fill="none" xmlns="http://www.w3.org/2000/svg">
<path d="M14.3429 3.92857H14.4429V3.82857V2.68571C14.4429 2.36223 14.7051 2.1 15.0286 2.1C15.3521 2.1 15.6143 2.36223 15.6143 2.68571V3.83882V3.93022L15.7053 3.93842C16.9357 4.0493 17.9 5.08352 17.9 6.34286V7.94286V9.31429V15.4857C17.9 16.8191 16.8191 17.9 15.4857 17.9H4.51429C3.18091 17.9 2.1 16.8191 2.1 15.4857V9.31429V7.94286V6.34286C2.1 5.08352 3.06428 4.0493 4.29469 3.93842L4.38571 3.93022V3.83882V2.68571C4.38571 2.36223 4.64795 2.1 4.97143 2.1C5.29491 2.1 5.55714 2.36223 5.55714 2.68571V3.82857V3.92857H5.65714H9.31429H9.41429V3.82857V2.68571C9.41429 2.36223 9.67652 2.1 10 2.1C10.3235 2.1 10.5857 2.36223 10.5857 2.68571V3.82857V3.92857H10.6857H14.3429ZM3.27143 7.94286V8.04286H3.37143H16.6286H16.7286V7.94286V6.34286C16.7286 5.65645 16.1721 5.1 15.4857 5.1L15.0286 5.1H10H4.97143L4.51429 5.1C3.82787 5.1 3.27143 5.65645 3.27143 6.34286V7.94286ZM3.37143 9.21429H3.27143V9.31429V15.4857C3.27143 16.1721 3.82787 16.7286 4.51429 16.7286H15.4857C16.1721 16.7286 16.7286 16.1721 16.7286 15.4857V9.31429V9.21429H16.6286H3.37143Z" fill="#0C2739" stroke="white" stroke-width="0.2"/>
</svg>
