<svg width="24" height="24" viewBox="0 0 24 24" fill="none" xmlns="http://www.w3.org/2000/svg">
<path fill-rule="evenodd" clip-rule="evenodd" d="M7.75 1C7.33579 1 7 1.33579 7 1.75V4.08002H2.75C2.33579 4.08002 2 4.4158 2 4.83002C2 5.24423 2.33579 5.58002 2.75 5.58002H4.05994V17.17C4.05994 19.2842 5.77572 21 7.88994 21H8.96991C9.38412 21 9.71991 20.6642 9.71991 20.25C9.71991 19.8358 9.38412 19.5 8.96991 19.5H7.88994C6.60416 19.5 5.55994 18.4558 5.55994 17.17V5.58002H16.39V10C16.39 10.4142 16.7257 10.75 17.14 10.75C17.5542 10.75 17.89 10.4142 17.89 10V5.58002H19.19C19.6042 5.58002 19.94 5.24423 19.94 4.83002C19.94 4.4158 19.6042 4.08002 19.19 4.08002H14.66V1.75C14.66 1.33579 14.3242 1 13.91 1H7.75ZM8.5 4.08V2.5H13.16V4.08H8.5ZM14.7264 14.114C16.8726 12.8749 19.6169 13.6102 20.856 15.7564C22.0951 17.9026 21.3598 20.6469 19.2136 21.886C17.0674 23.1251 14.3231 22.3898 13.084 20.2436C11.8449 18.0974 12.5802 15.3531 14.7264 14.114ZM22.155 15.0064C20.5017 12.1428 16.84 11.1616 13.9764 12.8149C11.1128 14.4683 10.1316 18.13 11.7849 20.9936C13.4382 23.8572 17.0999 24.8384 19.9636 23.1851C22.8272 21.5317 23.8083 17.87 22.155 15.0064ZM17.8391 15.9097C17.8354 15.4955 17.4965 15.1628 17.0823 15.1666C16.6681 15.1704 16.3354 15.5092 16.3392 15.9234L16.3609 18.2976C16.3597 18.3652 16.3676 18.432 16.384 18.4962C16.4044 18.5765 16.4377 18.6517 16.4817 18.7193C16.5509 18.8262 16.6476 18.9161 16.7657 18.9771C16.8064 18.9983 16.8494 19.0159 16.8941 19.0294L18.8178 19.6568C19.2116 19.7852 19.6349 19.5701 19.7634 19.1763C19.8918 18.7825 19.6767 18.3591 19.2829 18.2307L17.8561 17.7654L17.8391 15.9097Z" fill="black"/>
</svg>
