<svg width="24" height="24" viewBox="0 0 24 24" fill="none" xmlns="http://www.w3.org/2000/svg">
<path fill-rule="evenodd" clip-rule="evenodd" d="M12 4.75C7.44365 4.75 3.75 8.44365 3.75 13C3.75 13.0748 3.751 13.1493 3.75297 13.2236C5.0559 13.7228 6.40608 13.4065 7.7344 12.6511C9.19976 11.8177 10.5097 10.5159 11.4472 9.4932L12.1262 8.75247L12.6432 9.61414C13.2927 10.6967 14.5984 11.8031 16.1563 12.5467C17.5201 13.1976 18.9784 13.5239 20.2416 13.3766C20.2472 13.2518 20.25 13.1263 20.25 13C20.25 8.44365 16.5564 4.75 12 4.75ZM2.25 13C2.25 12.9255 2.25084 12.8512 2.2525 12.777C2.10816 12.8097 1.98954 12.8686 1.9047 12.9358C1.77656 13.0372 1.75 13.1311 1.75 13.1868V16.8132C1.75 16.8689 1.77656 16.9628 1.9047 17.0642C2.03409 17.1666 2.24207 17.25 2.5 17.25H3.5V18.75H2.5C1.43061 18.75 0.25 18.0371 0.25 16.8132V13.1868C0.25 11.9986 1.36282 11.292 2.40629 11.2518C3.23008 6.70128 7.21199 3.25 12 3.25C16.7874 3.25 20.7689 6.70037 21.5934 11.25H22C23.1045 11.25 23.75 12.2898 23.75 13.2308V16.7692C23.75 17.7102 23.1045 18.75 22 18.75H20.5V17.25H22C22.0122 17.25 22.0606 17.2459 22.125 17.1666C22.1907 17.0858 22.25 16.9478 22.25 16.7692V13.2308C22.25 13.0522 22.1907 12.9142 22.125 12.8334C22.0606 12.7541 22.0122 12.75 22 12.75H21.7469C21.7489 12.8331 21.75 12.9164 21.75 13C21.75 13.3707 21.7293 13.7369 21.6889 14.0973L21.6301 14.6215L21.117 14.7435C19.2962 15.1762 17.2521 14.7319 15.5102 13.9004C14.1025 13.2285 12.808 12.264 11.9188 11.1786C11.0062 12.1143 9.81721 13.1922 8.47592 13.955C6.79069 14.9134 4.73786 15.4393 2.6862 14.3874L2.31375 14.1965L2.28072 13.7792C2.26036 13.522 2.25 13.2621 2.25 13ZM9 17C9.55229 17 10 16.5523 10 16C10 15.4477 9.55229 15 9 15C8.44771 15 8 15.4477 8 16C8 16.5523 8.44771 17 9 17ZM16 16C16 16.5523 15.5523 17 15 17C14.4477 17 14 16.5523 14 16C14 15.4477 14.4477 15 15 15C15.5523 15 16 15.4477 16 16ZM13 18.75C12.4477 18.75 12 19.1977 12 19.75C12 20.3023 12.4477 20.75 13 20.75H15C15.5523 20.75 16 20.3023 16 19.75C16 19.1977 15.5523 18.75 15 18.75H13Z" fill="#161721"/>
<path d="M21 11.5C21 13 21 14.8476 21 15.2857C21 19.5462 16.9706 23 12 23C7.02944 23 3 19.5462 3 15.2857C3 14.8954 3 12 3.09906 14.1372" stroke="#161721" stroke-width="1.5"/>
<path d="M15 19.75H17C19.2091 19.75 21 17.9591 21 15.75V14.75" stroke="#161721"/>
<path d="M23 15V12C23 5.92487 18.0751 1 12 1V1C5.92487 1 1 5.92487 1 12V15" stroke="#1D1E2B" stroke-width="1.5"/>
</svg>
