<svg width="20" height="20" viewBox="0 0 20 20" fill="none" xmlns="http://www.w3.org/2000/svg">
<path d="M2.49533 3.08815L2.49533 3.08816L4.66438 5.25723C4.74626 5.3391 4.85359 5.38004 4.96101 5.38004L2.49533 3.08815ZM2.49533 3.08815C2.33141 2.92441 2.33141 2.65883 2.49533 2.49508L2.49534 2.49507M2.49533 3.08815L2.49534 2.49507M2.49534 2.49507C2.65908 2.33116 2.92449 2.33114 3.08842 2.49507L3.08842 2.49508L5.25765 4.66414L5.25765 4.66415M2.49534 2.49507L5.25765 4.66415M5.25765 4.66415C5.42156 4.82789 5.42157 5.09346 5.25766 5.25721L5.25765 4.66415ZM12.8478 12.6258L12.8478 12.6258L16.3685 11.1321L16.426 11.1077L16.3675 11.0857L7.95214 7.92038L7.90052 7.90097L7.91994 7.95258L11.0854 16.3679L11.1074 16.4264L11.1318 16.3688L12.6255 12.8482C12.6681 12.7481 12.7477 12.6682 12.8478 12.6258ZM7.33018 6.78999L7.33019 6.78999L17.7033 10.6919C17.8638 10.7523 17.9715 10.9043 17.9749 11.0757L17.9749 11.0758C17.9788 11.2472 17.8773 11.4036 17.7195 11.4705L13.3415 13.3279L13.3321 13.3319L13.3282 13.3412L11.471 17.7193C11.4049 17.8745 11.2527 17.9748 11.0846 17.9748H11.0756C10.9044 17.9712 10.7522 17.8637 10.692 17.7032L10.692 17.7032L6.79013 7.33041C6.73208 7.17605 6.76965 7.00257 6.88611 6.88594C7.00255 6.76952 7.17653 6.73211 7.33018 6.78999ZM17.7293 11.4935C17.8964 11.4226 18.004 11.2569 17.9999 11.0752L13.3512 13.3509L17.7293 11.4935ZM11.9146 3.11772L11.9146 3.1177C12.0782 2.95382 12.3436 2.95378 12.5077 3.11773C12.6714 3.28148 12.6714 3.54707 12.5077 3.71081L10.3387 5.87984C10.2564 5.96177 10.1494 6.00269 10.042 6.00269C9.93475 6.00269 9.82742 5.96176 9.74536 5.8797C9.58161 5.71595 9.58161 5.45036 9.74536 5.28661L11.9146 3.11772ZM3.11771 11.9144L3.11772 11.9144L5.28677 9.74536C5.45051 9.58162 5.71593 9.58159 5.88005 9.74538C6.04395 9.90912 6.04395 10.1747 5.88004 10.3384L5.88003 10.3384L3.71098 12.5075C3.62894 12.5896 3.52178 12.6303 3.41435 12.6303C3.30691 12.6303 3.19959 12.5895 3.11774 12.5075L3.11771 12.5075C2.9538 12.3438 2.9538 12.0782 3.11771 11.9144ZM8.23203 4.5088C8.23203 4.7405 8.04429 4.92824 7.81259 4.92824C7.58089 4.92824 7.39315 4.7405 7.39315 4.5088V2.44444C7.39315 2.21274 7.58089 2.025 7.81259 2.025C8.04429 2.025 8.23203 2.21274 8.23203 2.44444V4.5088ZM4.48869 7.39315C4.72039 7.39315 4.90813 7.58089 4.90813 7.8126C4.90813 8.0443 4.72039 8.23204 4.48869 8.23204H2.44444C2.21274 8.23204 2.025 8.0443 2.025 7.8126C2.025 7.58089 2.21274 7.39315 2.44444 7.39315H4.48869Z" fill="#0C2739" stroke="white" stroke-width="0.05"/>
</svg>
