<svg width="24" height="24" viewBox="0 0 24 24" fill="none" xmlns="http://www.w3.org/2000/svg">
<path fill-rule="evenodd" clip-rule="evenodd" d="M6 1.75C4.48122 1.75 3.25 2.98122 3.25 4.5V19C3.25 20.5188 4.48122 21.75 6 21.75H12.5C12.9142 21.75 13.25 21.4142 13.25 21C13.25 20.5858 12.9142 20.25 12.5 20.25H6C5.30964 20.25 4.75 19.6904 4.75 19V4.5C4.75 3.80964 5.30964 3.25 6 3.25H13.0522C13.4272 3.25 13.7823 3.41828 14.0197 3.70845L17.4674 7.92238C17.6502 8.14571 17.75 8.42537 17.75 8.71393V10.5C17.75 10.9142 18.0858 11.25 18.5 11.25C18.9142 11.25 19.25 10.9142 19.25 10.5V8.71393C19.25 8.07911 19.0304 7.46384 18.6284 6.97252L15.1806 2.7586C14.6583 2.12022 13.8771 1.75 13.0522 1.75H6ZM12.5511 12.0087C12.8321 11.7043 12.8131 11.2299 12.5087 10.9489C12.2044 10.6679 11.7299 10.6869 11.4489 10.9913L9.05165 13.5883C8.992 13.6521 8.94558 13.7238 8.91239 13.7999C8.82244 14.0062 8.82971 14.2447 8.93421 14.4458C8.96924 14.5132 9.01515 14.5764 9.07183 14.6325L11.4697 17.0303C11.7626 17.3232 12.2374 17.3232 12.5303 17.0303C12.8232 16.7374 12.8232 16.2626 12.5303 15.9697L11.4106 14.85H16.8C18.4317 14.85 19.65 16.1099 19.65 17.55C19.65 18.9802 18.3671 20.25 16.8 20.25C16.3858 20.25 16.05 20.5858 16.05 21C16.05 21.4142 16.3858 21.75 16.8 21.75C19.1329 21.75 21.15 19.8698 21.15 17.55C21.15 15.2401 19.2182 13.35 16.8 13.35H11.313L12.5511 12.0087Z" fill="#161721"/>
</svg>
