<svg width="24" height="25" viewBox="0 0 24 25" fill="none" xmlns="http://www.w3.org/2000/svg">
<path fill-rule="evenodd" clip-rule="evenodd" d="M4.7998 2.42773C4.13676 2.42773 3.50088 2.69113 3.03204 3.15997C2.5632 3.62881 2.2998 4.26469 2.2998 4.92773V19.7277C2.2998 20.3908 2.5632 21.0267 3.03204 21.4955C3.50088 21.9643 4.13676 22.2277 4.7998 22.2277H10V21.2277H4.7998C4.40198 21.2277 4.02045 21.0697 3.73914 20.7884C3.45784 20.5071 3.2998 20.1256 3.2998 19.7277V4.92773C3.2998 4.52991 3.45784 4.14838 3.73914 3.86707C4.02045 3.58577 4.40198 3.42773 4.7998 3.42773H12.2998L12.2994 8.9277C12.2994 9.06032 12.3521 9.1875 12.4458 9.28128C12.5396 9.37505 12.6668 9.42773 12.7994 9.42773H17.0998V12.5277H18.0998V8.92773C18.0998 8.8142 18.0612 8.70404 17.9902 8.61539L13.1902 2.61539C13.0954 2.49678 12.9517 2.42773 12.7998 2.42773H4.7998ZM16.5595 8.42773L13.2997 4.35301L13.2994 8.42773H16.5595Z" fill="#0C2739"/>
<path d="M13.6665 22.611C13.5012 22.611 13.3626 22.555 13.2506 22.443C13.1389 22.3314 13.0831 22.193 13.0831 22.0277C13.0831 21.8624 13.1389 21.724 13.2506 21.6124C13.3626 21.5004 13.5012 21.4444 13.6665 21.4444H17.2248C17.8373 21.4444 18.3695 21.2499 18.8214 20.861C19.2737 20.4721 19.4998 19.986 19.4998 19.4027C19.4998 18.8194 19.2737 18.3333 18.8214 17.9444C18.3695 17.5555 17.8373 17.361 17.2248 17.361H13.5498L14.6581 18.4694C14.7651 18.5763 14.8186 18.7124 14.8186 18.8777C14.8186 19.043 14.7651 19.1791 14.6581 19.286C14.5512 19.393 14.4151 19.4464 14.2498 19.4464C14.0845 19.4464 13.9484 19.393 13.8415 19.286L11.7415 17.186C11.6831 17.1277 11.6417 17.0645 11.6172 16.9964C11.5931 16.9284 11.5811 16.8555 11.5811 16.7777C11.5811 16.6999 11.5931 16.627 11.6172 16.5589C11.6417 16.4909 11.6831 16.4277 11.7415 16.3694L13.8415 14.2694C13.9484 14.1624 14.0845 14.1089 14.2498 14.1089C14.4151 14.1089 14.5512 14.1624 14.6581 14.2694C14.7651 14.3763 14.8186 14.5124 14.8186 14.6777C14.8186 14.843 14.7651 14.9791 14.6581 15.086L13.5498 16.1944H17.2248C18.1679 16.1944 18.9773 16.5006 19.6532 17.1131C20.3287 17.7256 20.6665 18.4888 20.6665 19.4027C20.6665 20.3166 20.3287 21.0798 19.6532 21.6923C18.9773 22.3048 18.1679 22.611 17.2248 22.611H13.6665Z" fill="black"/>
</svg>
