<svg width="16" height="16" viewBox="0 0 16 16" fill="none" xmlns="http://www.w3.org/2000/svg">
<path fill-rule="evenodd" clip-rule="evenodd" d="M3.50014 1.80029C3.64691 1.71537 3.81725 1.66667 3.99998 1.66667H4.74072V1H3.99998C3.69691 1 3.41179 1.0812 3.16627 1.22325L3.50014 1.80029ZM5.48146 1.66667H6.96294V1H5.48146V1.66667ZM7.70368 1.66667H9.18517V1H7.70368V1.66667ZM9.92591 1.66667H10.6666C10.8494 1.66667 11.0197 1.71537 11.1665 1.80029L11.5004 1.22325C11.2548 1.0812 10.9697 1 10.6666 1H9.92591V1.66667ZM2.99998 2.66667C2.99998 2.48394 3.04869 2.31359 3.1336 2.16683L2.55656 1.83296C2.41451 2.07847 2.33331 2.36359 2.33331 2.66667V3.28889H2.99998V2.66667ZM11.533 2.16683C11.6179 2.31359 11.6666 2.48394 11.6666 2.66667V3.28889H12.3333V2.66667C12.3333 2.36359 12.2521 2.07847 12.1101 1.83296L11.533 2.16683ZM2.99998 5.15556V3.91111H2.33331V5.15556H2.99998ZM11.6666 3.91111V5.15556H12.3333V3.91111H11.6666ZM11.6666 6.67839C11.8937 6.69441 12.1163 6.72669 12.3333 6.77406V5.77778H11.6666V6.67839ZM2.99998 7.02222V5.77778H2.33331V7.02222H2.99998ZM2.99998 8.88889V7.64444H2.33331V8.88889H2.99998ZM2.99998 10.7556V9.51111H2.33331V10.7556H2.99998ZM2.99998 12V11.3778H2.33331V12C2.33331 12.3031 2.41451 12.5882 2.55656 12.8337L3.1336 12.4998C3.04869 12.3531 2.99998 12.1827 2.99998 12ZM3.99998 13C3.81725 13 3.64691 12.9513 3.50014 12.8664L3.16627 13.4434C3.41179 13.5855 3.69691 13.6667 3.99998 13.6667H4.74072V13H3.99998ZM6.96294 13H5.48146V13.6667H6.96294V13Z" fill="#0C2739"/>
<path fill-rule="evenodd" clip-rule="evenodd" d="M9.43196 15.0667C8.91231 15.0662 8.47957 14.6677 8.4364 14.1497L8.01923 9.14362H13.3141L12.8969 14.1497C12.8538 14.6677 12.421 15.0662 11.9014 15.0667C11.901 15.0667 11.9007 15.0667 11.9004 15.0667H9.43295C9.43262 15.0667 9.43229 15.0667 9.43196 15.0667Z" fill="#0C2739"/>
<line x1="7.40002" y1="8.13333" x2="13.9334" y2="8.13333" stroke="#0C2739" stroke-width="0.8"/>
<line x1="9.73334" y1="7.66671" x2="11.6" y2="7.66671" stroke="#0C2739" stroke-width="0.8"/>
</svg>
