<svg width="24" height="24" viewBox="0 0 24 24" fill="none" xmlns="http://www.w3.org/2000/svg">
  <path fill-rule="evenodd" clip-rule="evenodd" d="M3.03204 2.63214C3.50088 2.16329 4.13676 1.8999 4.7998 1.8999H12.7998C12.9517 1.8999 13.0954 1.96895 13.1902 2.08755L17.9902 8.08755C18.0612 8.17621 18.0998 8.28637 18.0998 8.3999V10.9999H17.0998V8.8999H12.7994C12.6668 8.8999 12.5396 8.84722 12.4458 8.75344C12.3521 8.65967 12.2994 8.53248 12.2994 8.39987L12.2998 2.8999H4.7998C4.40198 2.8999 4.02045 3.05794 3.73914 3.33924C3.45784 3.62055 3.2998 4.00208 3.2998 4.3999V19.1999C3.2998 19.5977 3.45784 19.9793 3.73914 20.2606C4.02045 20.5419 4.40198 20.6999 4.7998 20.6999H10V21.6999H4.7998C4.13676 21.6999 3.50088 21.4365 3.03204 20.9677C2.5632 20.4988 2.2998 19.8629 2.2998 19.1999V4.3999C2.2998 3.73686 2.5632 3.10098 3.03204 2.63214ZM13.2997 3.82518L16.5595 7.8999H13.2994L13.2997 3.82518ZM20.1083 21.1082C19.0694 22.1471 17.8111 22.6666 16.3333 22.6666C15.1222 22.6666 14.0389 22.311 13.0833 21.5999C12.1278 20.8888 11.4889 19.9499 11.1667 18.7832C11.1049 18.2182 11.8948 18.0208 12.1061 18.5486L12.2 18.7832C12.5 19.6499 13.0333 20.3471 13.8 20.8749C14.5667 21.4027 15.4111 21.6666 16.3333 21.6666C17.5444 21.6666 18.5694 21.2471 19.4083 20.4082C20.2472 19.5694 20.6667 18.5444 20.6667 17.3332C20.6667 16.1221 20.2472 15.0971 19.4083 14.2582C18.5694 13.4194 17.5444 12.9999 16.3333 12.9999C15.4667 12.9999 14.7056 13.2055 14.05 13.6166C13.3944 14.0277 12.8556 14.5666 12.4333 15.2332H15.2333C15.9997 15.2332 15.9997 16.2332 15.2333 16.2332H11V11.9999C10.9997 11.2499 12 11.2499 12 11.9999V14.1499C12.5222 13.4832 13.1389 12.9582 13.85 12.5749C14.5611 12.1916 15.3889 11.9999 16.3333 11.9999C17.8111 11.9999 19.0694 12.5194 20.1083 13.5582C21.1472 14.5971 21.6667 15.8555 21.6667 17.3332C21.6667 18.811 21.1472 20.0694 20.1083 21.1082Z" fill="#1D1E2B"/>
</svg>
