<svg width="24" height="24" viewBox="0 0 24 24" fill="none" xmlns="http://www.w3.org/2000/svg">
<path fill-rule="evenodd" clip-rule="evenodd" d="M5.5 18V6C5.5 4.61929 6.61929 3.5 8 3.5H13.6V8.08997C13.6 8.50418 13.9358 8.83997 14.35 8.83997H18.5V14.168C18.5 14.5823 18.8358 14.918 19.25 14.918C19.6642 14.918 20 14.5823 20 14.168V7.83609C20 6.98563 19.639 6.17513 19.0069 5.6062L15.8557 2.77012C15.3048 2.27433 14.5899 2 13.8488 2H8C5.79086 2 4 3.79086 4 6V18C4 20.2091 5.79086 22 8 22H10.75C11.1642 22 11.5 21.6642 11.5 21.25C11.5 20.8358 11.1642 20.5 10.75 20.5H8C6.61929 20.5 5.5 19.3807 5.5 18ZM18.4156 7.33997C18.3332 7.10484 18.1926 6.89137 18.0034 6.72115L15.1 4.10805V7.33997H18.4156Z" fill="#161721"/>
<mask id="path-2-inside-1_57_807" fill="white">
<path fill-rule="evenodd" clip-rule="evenodd" d="M18.5003 17.1665H18.3591L18.3591 16.3358C18.3591 15.0336 17.3022 13.9766 16 13.9766C14.6978 13.9766 13.6409 15.0336 13.6409 16.3358L13.6409 17.1665H13.5003C13.0401 17.1665 12.667 17.5396 12.667 17.9998V21.3332C12.667 21.7934 13.0401 22.1665 13.5003 22.1665H18.5003C18.9606 22.1665 19.3337 21.7934 19.3337 21.3332V17.9998C19.3337 17.5396 18.9606 17.1665 18.5003 17.1665ZM14.585 16.3358V17.1665H17.415L17.415 16.3357C17.415 15.555 16.7807 14.9207 16 14.9207C15.2193 14.9207 14.585 15.555 14.585 16.3358Z"/>
</mask>
<path fill-rule="evenodd" clip-rule="evenodd" d="M18.5003 17.1665H18.3591L18.3591 16.3358C18.3591 15.0336 17.3022 13.9766 16 13.9766C14.6978 13.9766 13.6409 15.0336 13.6409 16.3358L13.6409 17.1665H13.5003C13.0401 17.1665 12.667 17.5396 12.667 17.9998V21.3332C12.667 21.7934 13.0401 22.1665 13.5003 22.1665H18.5003C18.9606 22.1665 19.3337 21.7934 19.3337 21.3332V17.9998C19.3337 17.5396 18.9606 17.1665 18.5003 17.1665ZM14.585 16.3358V17.1665H17.415L17.415 16.3357C17.415 15.555 16.7807 14.9207 16 14.9207C15.2193 14.9207 14.585 15.555 14.585 16.3358Z" fill="#161721"/>
<path d="M18.3591 17.1665L17.3591 17.1665L17.3591 18.1665H18.3591V17.1665ZM18.3591 16.3358L19.3591 16.3358V16.3358H18.3591ZM13.6409 16.3358L12.6409 16.3358L12.6409 16.3358L13.6409 16.3358ZM13.6409 17.1665V18.1665H14.6409L14.6409 17.1665L13.6409 17.1665ZM14.585 17.1665H13.585V18.1665H14.585V17.1665ZM14.585 16.3358L13.585 16.3358V16.3358H14.585ZM17.415 17.1665V18.1665H18.415L18.415 17.1665L17.415 17.1665ZM17.415 16.3357L18.415 16.3358L18.415 16.3357L17.415 16.3357ZM16 14.9207L16 13.9207L16 13.9207L16 14.9207ZM18.3591 18.1665H18.5003V16.1665H18.3591V18.1665ZM17.3591 16.3357L17.3591 17.1665L19.3591 17.1665L19.3591 16.3358L17.3591 16.3357ZM16 14.9766C16.7499 14.9766 17.3591 15.5859 17.3591 16.3358H19.3591C19.3591 14.4813 17.8544 12.9766 16 12.9766V14.9766ZM14.6409 16.3358C14.6409 15.5859 15.2501 14.9766 16 14.9766V12.9766C14.1456 12.9766 12.6409 14.4813 12.6409 16.3358L14.6409 16.3358ZM14.6409 17.1665L14.6409 16.3358L12.6409 16.3358L12.6409 17.1665L14.6409 17.1665ZM13.5003 18.1665H13.6409V16.1665H13.5003V18.1665ZM13.667 17.9998C13.667 18.0919 13.5924 18.1665 13.5003 18.1665V16.1665C12.4878 16.1665 11.667 16.9873 11.667 17.9998H13.667ZM13.667 21.3332V17.9998H11.667V21.3332H13.667ZM13.5003 21.1665C13.5924 21.1665 13.667 21.2411 13.667 21.3332H11.667C11.667 22.3457 12.4878 23.1665 13.5003 23.1665V21.1665ZM18.5003 21.1665H13.5003V23.1665H18.5003V21.1665ZM18.3337 21.3332C18.3337 21.2411 18.4083 21.1665 18.5003 21.1665V23.1665C19.5128 23.1665 20.3337 22.3457 20.3337 21.3332H18.3337ZM18.3337 17.9998V21.3332H20.3337V17.9998H18.3337ZM18.5003 18.1665C18.4083 18.1665 18.3337 18.0919 18.3337 17.9998H20.3337C20.3337 16.9873 19.5128 16.1665 18.5003 16.1665V18.1665ZM15.585 17.1665V16.3358H13.585V17.1665H15.585ZM17.415 16.1665H14.585V18.1665H17.415V16.1665ZM16.415 16.3357L16.415 17.1665L18.415 17.1665L18.415 16.3358L16.415 16.3357ZM16 15.9207C16.2284 15.9207 16.415 16.1073 16.415 16.3358L18.415 16.3357C18.415 15.0027 17.333 13.9207 16 13.9207V15.9207ZM15.585 16.3358C15.585 16.1073 15.7715 15.9207 16 15.9207L16 13.9207C14.667 13.9207 13.585 15.0027 13.585 16.3358L15.585 16.3358Z" fill="#161721" mask="url(#path-2-inside-1_57_807)"/>
</svg>
