<svg width="12" height="12" viewBox="0 0 12 12" fill="none" xmlns="http://www.w3.org/2000/svg">
<path fill-rule="evenodd" clip-rule="evenodd" d="M2.75024 3V9C2.75024 9.69036 3.30989 10.25 4.00024 10.25L4.125 10.25C4.33211 10.25 4.5 10.4179 4.5 10.625C4.5 10.8321 4.33211 11 4.125 11L4.00024 11C2.89567 11 2.00024 10.1046 2.00024 9V3C2.00024 1.89543 2.89567 1 4.00024 1H6.92464C7.2952 1 7.65265 1.13717 7.92809 1.38506L9.50369 2.8031C9.81976 3.08757 10.0002 3.49281 10.0002 3.91804V5.83402C10.0002 6.04113 9.83235 6.20902 9.62525 6.20902C9.41814 6.20902 9.25025 6.04113 9.25025 5.83402V4.41998H7.17525C6.96814 4.41998 6.80025 4.25209 6.80025 4.04498V1.75H4.00024C3.30989 1.75 2.75024 2.30964 2.75024 3ZM9.00197 3.36057C9.09654 3.44568 9.16683 3.55242 9.20804 3.66998H7.55025V2.05402L9.00197 3.36057Z" fill="#DCE2EC"/>
<path fill-rule="evenodd" clip-rule="evenodd" d="M4.81548 10.1677L7.34721 5.76959C7.56601 5.3268 8.18219 5.3268 8.40098 5.76959L10.9327 10.1677C11.1381 10.5782 10.8479 11.0625 10.4058 11.0625L5.34236 11.0625C4.90031 11.0625 4.61455 10.5736 4.81548 10.1677ZM7.875 7.36562C8.00444 7.36562 8.10938 7.47055 8.10938 7.59999V8.74375C8.10938 8.87319 8.00444 8.97812 7.875 8.97812C7.74556 8.97812 7.64062 8.87319 7.64062 8.74375V7.59999C7.64062 7.47055 7.74556 7.36562 7.875 7.36562ZM7.875 9.83749C8.00444 9.83749 8.10938 9.73255 8.10938 9.60311C8.10938 9.47367 8.00444 9.36874 7.875 9.36874C7.74556 9.36874 7.64062 9.47367 7.64062 9.60311C7.64062 9.73255 7.74556 9.83749 7.875 9.83749Z" fill="#FF4848"/>
</svg>
