<svg width="24" height="24" viewBox="0 0 24 24" fill="none" xmlns="http://www.w3.org/2000/svg">
<path fill-rule="evenodd" clip-rule="evenodd" d="M17.4999 23C20.5375 23 22.9999 20.5376 22.9999 17.5C22.9999 14.4624 20.5375 12 17.4999 12C14.4624 12 11.9999 14.4624 11.9999 17.5C11.9999 20.5376 14.4624 23 17.4999 23ZM13.4755 17.1792C13.5187 17.2379 13.5762 17.3131 13.6477 17.4001C13.829 17.6206 14.0984 17.9151 14.4494 18.2093C15.1528 18.7988 16.1692 19.3754 17.4544 19.3754C18.7395 19.3754 19.7559 18.7988 20.4593 18.2093C20.8103 17.9151 21.0797 17.6206 21.261 17.4001C21.3325 17.3131 21.39 17.2379 21.4332 17.1792C21.39 17.1204 21.3325 17.0452 21.261 16.9583C21.0797 16.7378 20.8103 16.4433 20.4593 16.1491C19.7559 15.5595 18.7395 14.9829 17.4544 14.9829C16.1692 14.9829 15.1528 15.5595 14.4494 16.1491C14.0984 16.4433 13.829 16.7378 13.6477 16.9583C13.5762 17.0452 13.5187 17.1204 13.4755 17.1792ZM21.7447 17.1792C21.9601 17.0421 21.9601 17.042 21.96 17.0419L21.9599 17.0416L21.9594 17.0409L21.9581 17.0389L21.9538 17.0323L21.9383 17.009C21.9249 16.9891 21.9055 16.9608 21.88 16.9252C21.829 16.854 21.754 16.7537 21.6556 16.6339C21.459 16.3948 21.1677 16.0763 20.7874 15.7576C20.0282 15.1214 18.8995 14.4722 17.4544 14.4722C16.0092 14.4722 14.8805 15.1214 14.1213 15.7576C13.741 16.0763 13.4498 16.3948 13.2532 16.6339C13.1547 16.7537 13.0797 16.854 13.0287 16.9252C13.0032 16.9608 12.9838 16.9891 12.9704 17.009L12.9549 17.0323L12.9506 17.0389L12.9493 17.0409L12.9488 17.0416L12.9487 17.0419C12.9486 17.042 12.9486 17.0421 13.164 17.1792L12.9486 17.0421C12.8953 17.1257 12.8953 17.2326 12.9486 17.3163L13.164 17.1792C12.9486 17.3163 12.9486 17.3164 12.9487 17.3165L12.9488 17.3167L12.9493 17.3174L12.9506 17.3194L12.9549 17.326L12.9704 17.3494C12.9838 17.3692 13.0032 17.3976 13.0287 17.4332C13.0797 17.5043 13.1547 17.6047 13.2532 17.7244C13.4498 17.9636 13.741 18.282 14.1213 18.6007C14.8805 19.237 16.0092 19.8862 17.4544 19.8862C18.8995 19.8862 20.0282 19.237 20.7874 18.6007C21.1677 18.282 21.459 17.9636 21.6556 17.7244C21.754 17.6047 21.829 17.5043 21.88 17.4332C21.9055 17.3976 21.9249 17.3692 21.9383 17.3494L21.9538 17.326L21.9581 17.3194L21.9594 17.3174L21.9599 17.3167L21.96 17.3165C21.9601 17.3164 21.9601 17.3163 21.7447 17.1792ZM21.7447 17.1792L21.9601 17.3163C22.0134 17.2326 22.0134 17.1257 21.9601 17.0421L21.7447 17.1792ZM17.4541 16.2087C16.9182 16.2087 16.4837 16.6432 16.4837 17.1792C16.4837 17.7151 16.9182 18.1496 17.4541 18.1496C17.9901 18.1496 18.4246 17.7151 18.4246 17.1792C18.4246 16.6432 17.9901 16.2087 17.4541 16.2087ZM15.9729 17.1792C15.9729 16.3611 16.6361 15.698 17.4541 15.698C18.2722 15.698 18.9353 16.3611 18.9353 17.1792C18.9353 17.9972 18.2722 18.6604 17.4541 18.6604C16.6361 18.6604 15.9729 17.9972 15.9729 17.1792Z" fill="#0C2739"/>
<path fill-rule="evenodd" clip-rule="evenodd" d="M6.79974 1.90002C6.1367 1.90002 5.50082 2.16342 5.03198 2.63226C4.56314 3.1011 4.29974 3.73698 4.29974 4.40002V19.2C4.29974 19.8631 4.56314 20.499 5.03198 20.9678C5.50082 21.4366 6.1367 21.7 6.79974 21.7H12.5389C12.2764 21.3903 12.0424 21.0556 11.8409 20.7H6.79974C6.40192 20.7 6.02039 20.542 5.73908 20.2607C5.45778 19.9794 5.29974 19.5978 5.29974 19.2V4.40002C5.29974 4.0022 5.45778 3.62067 5.73908 3.33936C6.02039 3.05806 6.40192 2.90002 6.79974 2.90002H14.2997L14.2994 8.39999C14.2993 8.53261 14.352 8.65979 14.4458 8.75357C14.5396 8.84734 14.6667 8.90002 14.7994 8.90002H19.0997V11.1984C19.4449 11.2857 19.7791 11.4007 20.0997 11.5408V8.40002C20.0997 8.28649 20.0611 8.17633 19.9902 8.08768L15.1902 2.08768C15.0953 1.96907 14.9516 1.90002 14.7997 1.90002H6.79974ZM12.0871 13.9H8.39974C8.1236 13.9 7.89974 14.1239 7.89974 14.4C7.89974 14.6762 8.1236 14.9 8.39974 14.9H11.5408C11.694 14.5495 11.8771 14.2151 12.0871 13.9ZM11.1105 16.3H8.39974C8.1236 16.3 7.89974 16.5239 7.89974 16.8C7.89974 17.0762 8.1236 17.3 8.39974 17.3H11.003C11.0133 16.9595 11.0497 16.6255 11.1105 16.3ZM18.5594 7.90002L15.2996 3.8253L15.2994 7.90002H18.5594Z" fill="#0C2739"/>
</svg>
