<svg width="24" height="24" viewBox="0 0 24 24" fill="none" xmlns="http://www.w3.org/2000/svg">
<path fill-rule="evenodd" clip-rule="evenodd" d="M9.49984 12.1666C9.0396 12.1666 8.6665 12.5397 8.6665 13V16.3333C8.6665 16.7935 9.0396 17.1666 9.49984 17.1666H14.4998C14.9601 17.1666 15.3332 16.7935 15.3332 16.3333V13C15.3332 12.5397 14.9601 12.1666 14.4998 12.1666H14.0832V10.6391C14.0832 10.1331 13.8414 9.66714 13.4451 9.33687C13.051 9.00844 12.5303 8.8335 11.9998 8.8335C11.4694 8.8335 10.9487 9.00844 10.5546 9.33687C10.1583 9.66714 9.9165 10.1331 9.9165 10.6391V12.1666H9.49984ZM11.9998 9.66683C11.6462 9.66683 11.3191 9.78454 11.0881 9.97705C10.8593 10.1677 10.7498 10.4083 10.7498 10.6391V12.1666H13.2498V10.6391C13.2498 10.4083 13.1404 10.1677 12.9116 9.97705C12.6806 9.78454 12.3534 9.66683 11.9998 9.66683Z" fill="#0C2739"/>
<path fill-rule="evenodd" clip-rule="evenodd" d="M6.7998 1.8999C6.13676 1.8999 5.50088 2.16329 5.03204 2.63214C4.5632 3.10098 4.2998 3.73686 4.2998 4.3999V19.1999C4.2998 19.8629 4.5632 20.4988 5.03204 20.9677C5.50088 21.4365 6.13676 21.6999 6.7998 21.6999H17.5998C18.2628 21.6999 18.8987 21.4365 19.3676 20.9677C19.8364 20.4988 20.0998 19.8629 20.0998 19.1999V8.3999C20.0998 8.28637 20.0612 8.17621 19.9902 8.08755L15.1902 2.08755C15.0954 1.96895 14.9517 1.8999 14.7998 1.8999H6.7998ZM5.73914 3.33924C6.02045 3.05794 6.40198 2.8999 6.7998 2.8999H14.2998L14.2994 8.39987C14.2994 8.53248 14.3521 8.65967 14.4458 8.75344C14.5396 8.84722 14.6668 8.8999 14.7994 8.8999H19.0998V19.1999C19.0998 19.5977 18.9418 19.9793 18.6605 20.2606C18.3792 20.5419 17.9976 20.6999 17.5998 20.6999H6.7998C6.40198 20.6999 6.02045 20.5419 5.73914 20.2606C5.45784 19.9793 5.2998 19.5977 5.2998 19.1999V4.3999C5.2998 4.00208 5.45784 3.62055 5.73914 3.33924ZM18.5595 7.8999L15.2997 3.82518L15.2994 7.8999H18.5595Z" fill="#0C2739"/>
</svg>
