<svg width="16" height="20" viewBox="0 0 16 20" fill="none" xmlns="http://www.w3.org/2000/svg">
<path fill-rule="evenodd" clip-rule="evenodd" d="M1.5 4V16C1.5 17.3807 2.61929 18.5 4 18.5H9.75C10.1642 18.5 10.5 18.8358 10.5 19.25C10.5 19.6642 10.1642 20 9.75 20H4C1.79086 20 0 18.2091 0 16V4C0 1.79086 1.79086 0 4 0H9.84879C10.5899 0 11.3048 0.274331 11.8557 0.770118L15.0069 3.6062C15.639 4.17513 16 4.98563 16 5.83609V11.168C16 11.5823 15.6642 11.918 15.25 11.918C14.8358 11.918 14.5 11.5823 14.5 11.168V6.83997H10.35C9.93579 6.83997 9.60001 6.50418 9.60001 6.08997V1.5H4C2.61929 1.5 1.5 2.61929 1.5 4ZM14.0034 4.72115C14.1926 4.89137 14.3332 5.10484 14.4156 5.33997H11.1V2.10805L14.0034 4.72115Z" fill="#161721"/>
<path d="M4 14.25C4 13.8358 4.33579 13.5 4.75 13.5H11.25C11.6642 13.5 12 13.8358 12 14.25C12 14.6642 11.6642 15 11.25 15H4.75C4.33579 15 4 14.6642 4 14.25Z" fill="#161721"/>
<path d="M4.75 10.5C4.33579 10.5 4 10.8358 4 11.25C4 11.6642 4.33579 12 4.75 12H9.25C9.66421 12 10 11.6642 10 11.25C10 10.8358 9.66421 10.5 9.25 10.5H4.75Z" fill="#161721"/>
</svg>
