<svg width="25" height="24" viewBox="0 0 25 24" fill="none" xmlns="http://www.w3.org/2000/svg">
<path fill-rule="evenodd" clip-rule="evenodd" d="M6 6.00012V18.0001C6 19.3808 7.11929 20.5001 8.5 20.5001H14.25C14.6642 20.5001 15 20.8359 15 21.2501C15 21.6643 14.6642 22.0001 14.25 22.0001H8.5C6.29086 22.0001 4.5 20.2093 4.5 18.0001V6.00012C4.5 3.79098 6.29086 2.00012 8.5 2.00012H14.3488C15.0899 2.00012 15.8048 2.27445 16.3557 2.77024L19.5069 5.60633C20.139 6.17525 20.5 6.98575 20.5 7.83621V13.1682C20.5 13.5824 20.1642 13.9182 19.75 13.9182C19.3358 13.9182 19 13.5824 19 13.1682V8.84009H14.85C14.4358 8.84009 14.1 8.5043 14.1 8.09009V3.50012H8.5C7.11929 3.50012 6 4.61941 6 6.00012ZM18.5034 6.72127C18.6926 6.89149 18.8332 7.10496 18.9156 7.34009H15.6V4.10817L18.5034 6.72127Z" fill="#161721"/>
<path d="M8.5 16.2501C8.5 15.8359 8.83579 15.5001 9.25 15.5001H15.75C16.1642 15.5001 16.5 15.8359 16.5 16.2501C16.5 16.6643 16.1642 17.0001 15.75 17.0001H9.25C8.83579 17.0001 8.5 16.6643 8.5 16.2501Z" fill="#161721"/>
<path d="M9.25 12.5001C8.83579 12.5001 8.5 12.8359 8.5 13.2501C8.5 13.6643 8.83579 14.0001 9.25 14.0001H13.75C14.1642 14.0001 14.5 13.6643 14.5 13.2501C14.5 12.8359 14.1642 12.5001 13.75 12.5001H9.25Z" fill="#161721"/>
</svg>
