<svg width="25" height="24" viewBox="0 0 25 24" fill="none" xmlns="http://www.w3.org/2000/svg">
<path fill-rule="evenodd" clip-rule="evenodd" d="M5.53224 2.63223C6.00108 2.16339 6.63696 1.89999 7.3 1.89999H15.3C15.4519 1.89999 15.5955 1.96904 15.6904 2.08765L20.4904 8.08765C20.5614 8.1763 20.6 8.28646 20.6 8.39999V19.2C20.6 19.863 20.3366 20.4989 19.8678 20.9678C19.3989 21.4366 18.763 21.7 18.1 21.7H7.3C6.63696 21.7 6.00108 21.4366 5.53224 20.9678C5.06339 20.4989 4.8 19.863 4.8 19.2V4.39999C4.8 3.73695 5.0634 3.10107 5.53224 2.63223ZM7.3 2.89999C6.90218 2.89999 6.52065 3.05803 6.23934 3.33933C5.95804 3.62064 5.8 4.00217 5.8 4.39999V19.2C5.8 19.5978 5.95804 19.9794 6.23934 20.2607C6.52065 20.542 6.90218 20.7 7.3 20.7H18.1C18.4978 20.7 18.8794 20.542 19.1607 20.2607C19.442 19.9794 19.6 19.5978 19.6 19.2V8.89999H15.2996C15.167 8.89999 15.0398 8.84731 14.946 8.75354C14.8523 8.65976 14.7996 8.53258 14.7996 8.39996L14.8 2.89999H7.3ZM15.7999 3.82527L19.0597 7.89999H15.7996L15.7999 3.82527Z" fill="#0C2739"/>
<mask id="path-2-outside-1_2764_175431" maskUnits="userSpaceOnUse" x="8.5" y="8" width="8" height="8" fill="black">
<rect fill="white" x="8.5" y="8" width="8" height="8"/>
<path fill-rule="evenodd" clip-rule="evenodd" d="M12.6334 9.16667C12.6334 9.07462 12.5588 9 12.4667 9C12.3747 9 12.3 9.07462 12.3 9.16667V11.8667L9.66667 11.8667C9.57462 11.8667 9.5 11.9413 9.5 12.0333C9.5 12.1254 9.57462 12.2 9.66667 12.2L12.3 12.2V14.8333C12.3 14.9254 12.3747 15 12.4667 15C12.5588 15 12.6334 14.9254 12.6334 14.8333V12.2L15.3333 12.2C15.4254 12.2 15.5 12.1254 15.5 12.0333C15.5 11.9413 15.4254 11.8667 15.3333 11.8667L12.6334 11.8667V9.16667Z"/>
</mask>
<path fill-rule="evenodd" clip-rule="evenodd" d="M12.6334 9.16667C12.6334 9.07462 12.5588 9 12.4667 9C12.3747 9 12.3 9.07462 12.3 9.16667V11.8667L9.66667 11.8667C9.57462 11.8667 9.5 11.9413 9.5 12.0333C9.5 12.1254 9.57462 12.2 9.66667 12.2L12.3 12.2V14.8333C12.3 14.9254 12.3747 15 12.4667 15C12.5588 15 12.6334 14.9254 12.6334 14.8333V12.2L15.3333 12.2C15.4254 12.2 15.5 12.1254 15.5 12.0333C15.5 11.9413 15.4254 11.8667 15.3333 11.8667L12.6334 11.8667V9.16667Z" fill="#0C2739"/>
<path d="M12.3 11.8667V12.2667H12.7V11.8667H12.3ZM9.66667 11.8667L9.66667 11.4667H9.66667V11.8667ZM9.66667 12.2L9.66667 11.8H9.66667V12.2ZM12.3 12.2H12.7V11.8L12.3 11.8V12.2ZM12.6334 12.2V11.8H12.2334V12.2H12.6334ZM15.3333 12.2V12.6V12.2ZM15.3333 11.8667V12.2667V11.8667ZM12.6334 11.8667H12.2334V12.2667L12.6334 12.2667V11.8667ZM12.4667 9.4C12.3378 9.4 12.2334 9.29553 12.2334 9.16667H13.0334C13.0334 8.85371 12.7797 8.6 12.4667 8.6V9.4ZM12.7 9.16667C12.7 9.29553 12.5956 9.4 12.4667 9.4V8.6C12.1538 8.6 11.9 8.85371 11.9 9.16667H12.7ZM12.7 11.8667V9.16667H11.9V11.8667H12.7ZM9.66667 12.2667L12.3 12.2667V11.4667L9.66667 11.4667L9.66667 12.2667ZM9.9 12.0333C9.9 12.1622 9.79553 12.2667 9.66667 12.2667V11.4667C9.35371 11.4667 9.1 11.7204 9.1 12.0333H9.9ZM9.66667 11.8C9.79553 11.8 9.9 11.9045 9.9 12.0333H9.1C9.1 12.3463 9.35371 12.6 9.66667 12.6V11.8ZM12.3 11.8L9.66667 11.8L9.66667 12.6L12.3 12.6V11.8ZM12.7 14.8333V12.2H11.9V14.8333H12.7ZM12.4667 14.6C12.5956 14.6 12.7 14.7045 12.7 14.8333H11.9C11.9 15.1463 12.1538 15.4 12.4667 15.4V14.6ZM12.2334 14.8333C12.2334 14.7045 12.3378 14.6 12.4667 14.6V15.4C12.7797 15.4 13.0334 15.1463 13.0334 14.8333H12.2334ZM12.2334 12.2V14.8333H13.0334V12.2H12.2334ZM15.3333 11.8L12.6334 11.8V12.6L15.3333 12.6V11.8ZM15.1 12.0333C15.1 11.9045 15.2045 11.8 15.3333 11.8V12.6C15.6463 12.6 15.9 12.3463 15.9 12.0333H15.1ZM15.3333 12.2667C15.2045 12.2667 15.1 12.1622 15.1 12.0333H15.9C15.9 11.7204 15.6463 11.4667 15.3333 11.4667V12.2667ZM12.6334 12.2667L15.3333 12.2667V11.4667L12.6334 11.4667V12.2667ZM12.2334 9.16667V11.8667H13.0334V9.16667H12.2334Z" fill="#0C2739" mask="url(#path-2-outside-1_2764_175431)"/>
<g clip-path="url(#clip0_2764_175431)">
<path fill-rule="evenodd" clip-rule="evenodd" d="M9.1667 16.8333C9.1667 16.7413 9.24132 16.6667 9.33337 16.6667H15.4C15.4921 16.6667 15.5667 16.7413 15.5667 16.8333C15.5667 16.9254 15.4921 17 15.4 17H9.33337C9.24132 17 9.1667 16.9254 9.1667 16.8333Z" fill="#0C2739" stroke="#0C2739" stroke-width="0.8" stroke-linecap="round"/>
</g>
<defs>
<clipPath id="clip0_2764_175431">
<rect width="8" height="8" fill="white" transform="translate(8.5 13)"/>
</clipPath>
</defs>
</svg>
