<svg width="24" height="24" viewBox="0 0 24 24" fill="none" xmlns="http://www.w3.org/2000/svg">
<path fill-rule="evenodd" clip-rule="evenodd" d="M5.5 18V6C5.5 4.61929 6.61929 3.5 8 3.5H13.6V8.08997C13.6 8.50418 13.9358 8.83997 14.35 8.83997H18.5V10.168C18.5 10.5823 18.8358 10.918 19.25 10.918C19.6642 10.918 20 10.5823 20 10.168V7.83609C20 6.98563 19.639 6.17513 19.0069 5.6062L15.8557 2.77012C15.3048 2.27433 14.5899 2 13.8488 2H8C5.79086 2 4 3.79086 4 6V18C4 20.2091 5.79086 22 8 22H10.75C11.1642 22 11.5 21.6642 11.5 21.25C11.5 20.8358 11.1642 20.5 10.75 20.5H8C6.61929 20.5 5.5 19.3807 5.5 18ZM18.4156 7.33997C18.3332 7.10484 18.1926 6.89137 18.0034 6.72115L15.1 4.10805V7.33997H18.4156Z" fill="#161721"/>
<path fill-rule="evenodd" clip-rule="evenodd" d="M12 17.5C12 14.4624 14.4624 12 17.5 12C20.5376 12 23 14.4624 23 17.5C23 20.5376 20.5376 23 17.5 23C14.4624 23 12 20.5376 12 17.5ZM17.0053 18.5853C16.9878 18.823 17.1833 19.0182 17.4216 19.0182H17.5238C17.7033 19.0182 17.8463 18.8724 17.8581 18.6933C17.8643 18.5961 17.8798 18.505 17.9047 18.4203C17.9295 18.3356 17.9667 18.2524 18.0163 18.1708C18.069 18.0892 18.1419 18.0029 18.2349 17.9119C18.3806 17.7801 18.5279 17.6373 18.6767 17.4835C18.8287 17.3297 18.9651 17.165 19.086 16.9892C19.207 16.8104 19.3062 16.6221 19.3837 16.4243C19.4612 16.2235 19.5 16.0101 19.5 15.7841C19.5 15.5017 19.455 15.2506 19.3651 15.0309C19.2752 14.8113 19.145 14.6245 18.9744 14.4707C18.8039 14.317 18.5946 14.2009 18.3465 14.1224C18.1016 14.0408 17.8225 14 17.5093 14C17.2271 14 16.9636 14.0392 16.7186 14.1177C16.4767 14.193 16.2659 14.3044 16.086 14.4519C15.9093 14.5963 15.7682 14.7736 15.6628 14.9839C15.6179 15.0733 15.5824 15.1676 15.556 15.2667C15.4949 15.4969 15.6946 15.6947 15.9328 15.6947C16.169 15.6947 16.3413 15.4893 16.4546 15.2821L16.4581 15.2757C16.5233 15.1565 16.6085 15.0592 16.714 14.9839C16.8225 14.9054 16.945 14.8489 17.0814 14.8144C17.2209 14.7767 17.3636 14.7579 17.5093 14.7579C17.8721 14.7579 18.1512 14.8489 18.3465 15.0309C18.5419 15.2098 18.6395 15.4703 18.6395 15.8124C18.6395 15.9693 18.6101 16.1184 18.5512 16.2596C18.4922 16.4008 18.4163 16.5358 18.3233 16.6644C18.2333 16.79 18.1326 16.9108 18.0209 17.0269C17.9124 17.143 17.8054 17.256 17.7 17.3658C17.545 17.5102 17.4209 17.6357 17.3279 17.7424C17.2349 17.846 17.1636 17.9558 17.114 18.072C17.0643 18.1849 17.0318 18.3152 17.0163 18.4627C17.0122 18.5007 17.0085 18.5416 17.0053 18.5853ZM17.0209 20.115C16.9341 20.2154 16.8907 20.341 16.8907 20.4916C16.8907 20.636 16.9341 20.7568 17.0209 20.8541C17.1109 20.9514 17.2442 21 17.4209 21C17.5977 21 17.731 20.9514 17.8209 20.8541C17.914 20.7568 17.9605 20.636 17.9605 20.4916C17.9605 20.341 17.914 20.2154 17.8209 20.115C17.731 20.0146 17.5977 19.9644 17.4209 19.9644C17.2442 19.9644 17.1109 20.0146 17.0209 20.115Z" fill="#161721"/>
</svg>
