<svg width="24" height="24" viewBox="0 0 24 24" fill="none" xmlns="http://www.w3.org/2000/svg">
<path fill-rule="evenodd" clip-rule="evenodd" d="M5.03228 2.63214C5.50112 2.16329 6.13701 1.8999 6.80005 1.8999H14.8C14.9519 1.8999 15.0956 1.96895 15.1905 2.08755L19.9905 8.08755C20.0614 8.17621 20.1 8.28637 20.1 8.3999V19.1999C20.1 19.8629 19.8367 20.4988 19.3678 20.9677C18.899 21.4365 18.2631 21.6999 17.6 21.6999H6.80005C6.13701 21.6999 5.50112 21.4365 5.03228 20.9677C4.56344 20.4988 4.30005 19.8629 4.30005 19.1999V4.3999C4.30005 3.73686 4.56344 3.10098 5.03228 2.63214ZM6.80005 2.8999C6.40222 2.8999 6.02069 3.05794 5.73939 3.33924C5.45808 3.62055 5.30005 4.00208 5.30005 4.3999V19.1999C5.30005 19.5977 5.45808 19.9793 5.73939 20.2606C6.02069 20.5419 6.40222 20.6999 6.80005 20.6999H17.6C17.9979 20.6999 18.3794 20.5419 18.6607 20.2606C18.942 19.9793 19.1 19.5977 19.1 19.1999V8.8999H14.7997C14.667 8.8999 14.5399 8.84722 14.4461 8.75344C14.3523 8.65967 14.2997 8.53248 14.2997 8.39987L14.3 2.8999H6.80005ZM15.3 3.82518L18.5597 7.8999H15.2997L15.3 3.82518Z" fill="#0C2739"/>
<mask id="path-2-inside-1_1281_82378" fill="white">
<path fill-rule="evenodd" clip-rule="evenodd" d="M12 9.66683C11.6464 9.66683 11.3192 9.78454 11.0882 9.97705C10.8594 10.1677 10.75 10.4083 10.75 10.6391V12.1666H13.25V10.6391C13.25 10.4083 13.1406 10.1677 12.9118 9.97705C12.6808 9.78454 12.3536 9.66683 12 9.66683ZM9.91667 10.6391V12.1666H9.5C9.03976 12.1666 8.66667 12.5397 8.66667 13V16.3333C8.66667 16.7935 9.03976 17.1666 9.5 17.1666H14.5C14.9602 17.1666 15.3333 16.7935 15.3333 16.3333V13C15.3333 12.5397 14.9602 12.1666 14.5 12.1666H14.0833V10.6391C14.0833 10.1331 13.8416 9.66714 13.4453 9.33687C13.0511 9.00844 12.5305 8.8335 12 8.8335C11.4695 8.8335 10.9489 9.00844 10.5547 9.33687C10.1584 9.66714 9.91667 10.1331 9.91667 10.6391Z"/>
</mask>
<path fill-rule="evenodd" clip-rule="evenodd" d="M12 9.66683C11.6464 9.66683 11.3192 9.78454 11.0882 9.97705C10.8594 10.1677 10.75 10.4083 10.75 10.6391V12.1666H13.25V10.6391C13.25 10.4083 13.1406 10.1677 12.9118 9.97705C12.6808 9.78454 12.3536 9.66683 12 9.66683ZM9.91667 10.6391V12.1666H9.5C9.03976 12.1666 8.66667 12.5397 8.66667 13V16.3333C8.66667 16.7935 9.03976 17.1666 9.5 17.1666H14.5C14.9602 17.1666 15.3333 16.7935 15.3333 16.3333V13C15.3333 12.5397 14.9602 12.1666 14.5 12.1666H14.0833V10.6391C14.0833 10.1331 13.8416 9.66714 13.4453 9.33687C13.0511 9.00844 12.5305 8.8335 12 8.8335C11.4695 8.8335 10.9489 9.00844 10.5547 9.33687C10.1584 9.66714 9.91667 10.1331 9.91667 10.6391Z" fill="#0C2739"/>
<path d="M11.0882 9.97705L10.448 9.20883L10.448 9.20883L11.0882 9.97705ZM10.75 12.1666H9.75V13.1666H10.75V12.1666ZM13.25 12.1666V13.1666H14.25V12.1666H13.25ZM12.9118 9.97705L12.2716 10.7453L12.2716 10.7453L12.9118 9.97705ZM9.91667 12.1666V13.1666H10.9167V12.1666H9.91667ZM14.0833 12.1666H13.0833V13.1666H14.0833V12.1666ZM13.4453 9.33687L12.8051 10.1051L12.8051 10.1051L13.4453 9.33687ZM10.5547 9.33687L11.1949 10.1051L10.5547 9.33687ZM11.7284 10.7453C11.7639 10.7157 11.8589 10.6668 12 10.6668V8.66683C11.4339 8.66683 10.8746 8.8534 10.448 9.20883L11.7284 10.7453ZM11.75 10.6391C11.75 10.6832 11.7393 10.717 11.7292 10.7374C11.7191 10.7577 11.7132 10.7579 11.7284 10.7453L10.448 9.20883C10.0172 9.56786 9.75 10.0793 9.75 10.6391H11.75ZM11.75 12.1666V10.6391H9.75V12.1666H11.75ZM13.25 11.1666H10.75V13.1666H13.25V11.1666ZM12.25 10.6391V12.1666H14.25V10.6391H12.25ZM12.2716 10.7453C12.2868 10.7579 12.2809 10.7577 12.2708 10.7374C12.2607 10.717 12.25 10.6832 12.25 10.6391H14.25C14.25 10.0793 13.9828 9.56786 13.552 9.20883L12.2716 10.7453ZM12 10.6668C12.1411 10.6668 12.2361 10.7157 12.2716 10.7453L13.552 9.20883C13.1254 8.8534 12.5661 8.66683 12 8.66683V10.6668ZM10.9167 12.1666V10.6391H8.91667V12.1666H10.9167ZM9.5 13.1666H9.91667V11.1666H9.5V13.1666ZM9.66667 13C9.66667 13.092 9.59205 13.1666 9.5 13.1666V11.1666C8.48748 11.1666 7.66667 11.9874 7.66667 13H9.66667ZM9.66667 16.3333V13H7.66667V16.3333H9.66667ZM9.5 16.1666C9.59205 16.1666 9.66667 16.2412 9.66667 16.3333H7.66667C7.66667 17.3458 8.48748 18.1666 9.5 18.1666V16.1666ZM14.5 16.1666H9.5V18.1666H14.5V16.1666ZM14.3333 16.3333C14.3333 16.2412 14.408 16.1666 14.5 16.1666V18.1666C15.5125 18.1666 16.3333 17.3458 16.3333 16.3333H14.3333ZM14.3333 13V16.3333H16.3333V13H14.3333ZM14.5 13.1666C14.408 13.1666 14.3333 13.092 14.3333 13H16.3333C16.3333 11.9874 15.5125 11.1666 14.5 11.1666V13.1666ZM14.0833 13.1666H14.5V11.1666H14.0833V13.1666ZM13.0833 10.6391V12.1666H15.0833V10.6391H13.0833ZM12.8051 10.1051C13.0009 10.2683 13.0833 10.4639 13.0833 10.6391H15.0833C15.0833 9.80234 14.6823 9.06601 14.0854 8.56865L12.8051 10.1051ZM12 9.8335C12.3184 9.8335 12.6068 9.93987 12.8051 10.1051L14.0854 8.56865C13.4955 8.07702 12.7425 7.8335 12 7.8335V9.8335ZM11.1949 10.1051C11.3932 9.93987 11.6816 9.8335 12 9.8335V7.8335C11.2575 7.8335 10.5045 8.07702 9.91456 8.56865L11.1949 10.1051ZM10.9167 10.6391C10.9167 10.4639 10.9991 10.2683 11.1949 10.1051L9.91456 8.56865C9.31772 9.06601 8.91667 9.80234 8.91667 10.6391H10.9167Z" fill="#0C2739" mask="url(#path-2-inside-1_1281_82378)"/>
</svg>
