<svg width="24" height="24" viewBox="0 0 24 24" fill="none" xmlns="http://www.w3.org/2000/svg">
<path fill-rule="evenodd" clip-rule="evenodd" d="M7.17181 3.5C6.47918 3.5 5.64825 4.22726 5.52576 5.50345C5.51567 5.60861 5.51038 5.71748 5.51038 5.82999V18.16C5.51038 19.6214 6.4248 20.49 7.17181 20.49H16.8282C17.5849 20.49 18.4896 19.6319 18.4896 18.16V9.23999H13.95C13.5358 9.23999 13.2 8.9042 13.2 8.48999V3.86107V3.5H7.17181ZM17.9437 7.40028C18.0245 7.50376 18.0979 7.61754 18.1627 7.73999H14.7V3.701C14.8561 3.79875 15.0067 3.93391 15.1445 4.11027L17.9437 7.40028ZM4 5.82999C4 3.88794 5.26323 2 7.17181 2H14.0289C14.9396 2 15.7624 2.45452 16.337 3.18972L19.1362 6.47973C19.7044 7.20697 20 8.15456 20 9.12V18.16C20 20.0881 18.7499 21.99 16.8282 21.99H7.17181C5.26054 21.99 4 20.0786 4 18.16V5.82999ZM11.9 15.75C11.4858 15.75 11.15 15.4142 11.15 15V13.25H9.39999C8.98578 13.25 8.64999 12.9142 8.64999 12.5C8.64999 12.0858 8.98578 11.75 9.39999 11.75H11.15V10C11.15 9.58579 11.4858 9.25 11.9 9.25C12.3142 9.25 12.65 9.58579 12.65 10V11.75H14.4C14.8142 11.75 15.15 12.0858 15.15 12.5C15.15 12.9142 14.8142 13.25 14.4 13.25H12.65V15C12.65 15.4142 12.3142 15.75 11.9 15.75ZM9.39999 16.75C8.98578 16.75 8.64999 17.0858 8.64999 17.5C8.64999 17.9142 8.98578 18.25 9.39999 18.25H14.4C14.8142 18.25 15.15 17.9142 15.15 17.5C15.15 17.0858 14.8142 16.75 14.4 16.75H9.39999Z" fill="#161721"/>
</svg>
