<svg width="16" height="16" viewBox="0 0 16 16" fill="none" xmlns="http://www.w3.org/2000/svg">
<path d="M2.15392 14.7246C2.0735 14.8564 1.86509 14.8053 1.8684 14.651C1.95567 10.5877 5.03122 9.0124 5.03122 9.0124L4.75994 7.99997C4.71849 7.84526 4.88457 7.71752 5.02346 7.7973L8.05649 9.53941C8.17622 9.60818 8.21753 9.76099 8.14876 9.88072L6.39865 12.9274C6.31868 13.0666 6.11026 13.0394 6.0687 12.8843L5.79813 11.8745C5.79813 11.8745 3.5706 12.4025 2.15392 14.7246Z" fill="#4154FF"/>
<path fill-rule="evenodd" clip-rule="evenodd" d="M12.6867 4.32016L10.8333 2.12683C10.4533 1.6335 9.90666 1.3335 9.30666 1.3335H4.76666C3.49999 1.3335 2.66666 2.5935 2.66666 3.88683V8.16683C2.66666 8.44297 2.89051 8.66683 3.16666 8.66683C3.4428 8.66683 3.66666 8.44297 3.66666 8.16683V3.88683C3.66666 3.8135 3.66666 3.74016 3.67999 3.66683C3.75999 2.8135 4.31332 2.3335 4.76666 2.3335H8.79999V5.66016C8.79999 5.9335 9.02666 6.16016 9.29999 6.16016H12.26V12.1068C12.26 13.0868 11.66 13.6602 11.16 13.6602H7.16666C6.89051 13.6602 6.66666 13.884 6.66666 14.1602C6.66666 14.4363 6.89051 14.6602 7.16666 14.6602H11.16C12.4333 14.6602 13.26 13.3935 13.26 12.1068V6.08016C13.26 5.4335 13.0667 4.80683 12.6867 4.32016ZM9.79999 2.50016C9.88666 2.56016 9.96666 2.64016 10.0467 2.74016L11.9 4.9335C11.9533 5.00016 12 5.08016 12.0467 5.16016H9.79999V2.50016Z" fill="#161721"/>
</svg>
