<svg width="16" height="17" viewBox="0 0 16 17" fill="none" xmlns="http://www.w3.org/2000/svg">
<path fill-rule="evenodd" clip-rule="evenodd" d="M3.66797 4.49992V12.4999C3.66797 13.4204 4.41416 14.1666 5.33464 14.1666H9.16797C9.44411 14.1666 9.66797 14.3904 9.66797 14.6666C9.66797 14.9427 9.44411 15.1666 9.16797 15.1666H5.33464C3.86188 15.1666 2.66797 13.9727 2.66797 12.4999V4.49992C2.66797 3.02716 3.86188 1.83325 5.33464 1.83325H9.23383C9.72791 1.83325 10.2045 2.01614 10.5718 2.34666L12.6726 4.23739C13.094 4.61667 13.3346 5.157 13.3346 5.72398V9.27861C13.3346 9.55476 13.1108 9.77861 12.8346 9.77861C12.5585 9.77861 12.3346 9.55476 12.3346 9.27861V6.39323H9.56797C9.29183 6.39323 9.06797 6.16937 9.06797 5.89323V2.83325H5.33464C4.41416 2.83325 3.66797 3.57944 3.66797 4.49992ZM12.0036 4.98068C12.1297 5.09416 12.2234 5.23648 12.2784 5.39323H10.068V3.23862L12.0036 4.98068Z" fill="#C4CDDB"/>
<path d="M5.33464 11.3333C5.33464 11.0571 5.55849 10.8333 5.83464 10.8333H10.168C10.4441 10.8333 10.668 11.0571 10.668 11.3333C10.668 11.6094 10.4441 11.8333 10.168 11.8333H5.83464C5.55849 11.8333 5.33464 11.6094 5.33464 11.3333Z" fill="#C4CDDB"/>
<path d="M5.83464 8.83325C5.55849 8.83325 5.33464 9.05711 5.33464 9.33325C5.33464 9.60939 5.55849 9.83325 5.83464 9.83325H8.83464C9.11078 9.83325 9.33463 9.60939 9.33463 9.33325C9.33463 9.05711 9.11078 8.83325 8.83464 8.83325H5.83464Z" fill="#C4CDDB"/>
<path d="M13.168 11.6667C13.168 11.3934 12.9413 11.1667 12.668 11.1667C12.3946 11.1667 12.168 11.3934 12.168 11.6667V12.6667H11.168C10.8946 12.6667 10.668 12.8934 10.668 13.1667C10.668 13.4401 10.8946 13.6667 11.168 13.6667H12.168V14.6667C12.168 14.9401 12.3946 15.1667 12.668 15.1667C12.9413 15.1667 13.168 14.9401 13.168 14.6667V13.6667H14.168C14.4413 13.6667 14.668 13.4401 14.668 13.1667C14.668 12.8934 14.4413 12.6667 14.168 12.6667H13.168V11.6667Z" fill="#C4CDDB"/>
</svg>
