<svg width="32" height="32" viewBox="0 0 32 32" fill="none" xmlns="http://www.w3.org/2000/svg">
<path fill-rule="evenodd" clip-rule="evenodd" d="M9.06649 2.53333C8.18243 2.53333 7.33459 2.88451 6.70946 3.50964C6.08434 4.13476 5.73315 4.9826 5.73315 5.86666V25.6C5.73315 26.484 6.08434 27.3319 6.70946 27.957C7.33459 28.5821 8.18243 28.9333 9.06649 28.9333H16.7187C16.3687 28.5203 16.0567 28.0741 15.788 27.6H9.06649C8.53605 27.6 8.02735 27.3893 7.65227 27.0142C7.2772 26.6391 7.06649 26.1304 7.06649 25.6V5.86666C7.06649 5.33623 7.2772 4.82752 7.65227 4.45244C8.02735 4.07737 8.53605 3.86666 9.06649 3.86666H19.0664L19.066 11.1999C19.066 11.3768 19.1362 11.5463 19.2612 11.6714C19.3862 11.7964 19.5558 11.8667 19.7326 11.8667H25.4665V14.9311C25.9267 15.0476 26.3723 15.2009 26.7998 15.3877V11.2C26.7998 11.0486 26.7483 10.9017 26.6537 10.7835L20.2537 2.78353C20.1272 2.62538 19.9357 2.53333 19.7332 2.53333H9.06649ZM16.1163 18.5333H11.1998C10.8316 18.5333 10.5332 18.8318 10.5332 19.2C10.5332 19.5682 10.8316 19.8667 11.1998 19.8667H15.3879C15.5921 19.3993 15.8363 18.9534 16.1163 18.5333ZM14.8141 21.7333H11.1998C10.8316 21.7333 10.5332 22.0318 10.5332 22.4C10.5332 22.7682 10.8316 23.0667 11.1998 23.0667H14.6708C14.6845 22.6126 14.7332 22.1673 14.8141 21.7333ZM24.7461 10.5333L20.3997 5.10036L20.3993 10.5333H24.7461Z" fill="#0C2739"/>
<path fill-rule="evenodd" clip-rule="evenodd" d="M23.3333 30.6667C27.3834 30.6667 30.6667 27.3834 30.6667 23.3333C30.6667 19.2832 27.3834 16 23.3333 16C19.2832 16 16 19.2832 16 23.3333C16 27.3834 19.2832 30.6667 23.3333 30.6667ZM22.6737 24.7804C22.6504 25.0973 22.911 25.3575 23.2287 25.3575H23.3651C23.6044 25.3575 23.7951 25.1633 23.8109 24.9245C23.8191 24.7947 23.8398 24.6734 23.8729 24.5604C23.9059 24.4474 23.9556 24.3365 24.0217 24.2278C24.092 24.119 24.1891 24.0039 24.3132 23.8825C24.5075 23.7068 24.7039 23.5164 24.9023 23.3114C25.1049 23.1063 25.2868 22.8866 25.4481 22.6523C25.6093 22.4138 25.7416 22.1627 25.845 21.8991C25.9483 21.6313 26 21.3468 26 21.0455C26 20.6689 25.9401 20.3342 25.8202 20.0412C25.7003 19.7483 25.5266 19.4994 25.2992 19.2943C25.0718 19.0893 24.7928 18.9345 24.462 18.8299C24.1354 18.7211 23.7633 18.6667 23.3457 18.6667C22.9695 18.6667 22.6181 18.719 22.2915 18.8236C21.969 18.924 21.6879 19.0726 21.4481 19.2692C21.2124 19.4617 21.0243 19.6981 20.8837 19.9785C20.8239 20.0977 20.7765 20.2234 20.7414 20.3556C20.6598 20.6625 20.9261 20.9262 21.2437 20.9262C21.5586 20.9262 21.7884 20.6525 21.9395 20.3761L21.9442 20.3676C22.031 20.2086 22.1447 20.0789 22.2853 19.9785C22.43 19.8739 22.5933 19.7985 22.7752 19.7525C22.9612 19.7023 23.1514 19.6772 23.3457 19.6772C23.8295 19.6772 24.2016 19.7985 24.462 20.0412C24.7225 20.2798 24.8527 20.6271 24.8527 21.0832C24.8527 21.2924 24.8134 21.4911 24.7349 21.6794C24.6563 21.8677 24.555 22.0477 24.431 22.2192C24.3111 22.3866 24.1767 22.5477 24.0279 22.7025C23.8832 22.8574 23.7406 23.008 23.6 23.1544C23.3933 23.3469 23.2279 23.5143 23.1039 23.6566C22.9798 23.7947 22.8848 23.9411 22.8186 24.0959C22.7525 24.2466 22.709 24.4202 22.6884 24.6169C22.6829 24.6676 22.678 24.7222 22.6737 24.7804ZM22.6946 26.82C22.5788 26.9539 22.5209 27.1213 22.5209 27.3221C22.5209 27.5146 22.5788 27.6757 22.6946 27.8054C22.8145 27.9351 22.9922 28 23.2279 28C23.4636 28 23.6413 27.9351 23.7612 27.8054C23.8853 27.6757 23.9473 27.5146 23.9473 27.3221C23.9473 27.1213 23.8853 26.9539 23.7612 26.82C23.6413 26.6861 23.4636 26.6191 23.2279 26.6191C22.9922 26.6191 22.8145 26.6861 22.6946 26.82Z" fill="#0C2739"/>
</svg>
