<svg width="24" height="24" viewBox="0 0 24 24" fill="none" xmlns="http://www.w3.org/2000/svg">
<path fill-rule="evenodd" clip-rule="evenodd" d="M9.49984 12.1671C9.0396 12.1671 8.6665 12.5402 8.6665 13.0004V16.3338C8.6665 16.794 9.0396 17.1671 9.49984 17.1671H14.4998C14.9601 17.1671 15.3332 16.794 15.3332 16.3338V13.0004C15.3332 12.5402 14.9601 12.1671 14.4998 12.1671H14.0832V10.6395C14.0832 10.1336 13.8414 9.66762 13.4451 9.33736C13.051 9.00893 12.5303 8.83398 11.9998 8.83398C11.4694 8.83398 10.9487 9.00893 10.5546 9.33736C10.1583 9.66762 9.9165 10.1336 9.9165 10.6395V12.1671H9.49984ZM11.9998 9.66732C11.6462 9.66732 11.3191 9.78503 11.0881 9.97754C10.8593 10.1682 10.7498 10.4088 10.7498 10.6395V12.1671H13.2498V10.6395C13.2498 10.4088 13.1404 10.1682 12.9116 9.97754C12.6806 9.78503 12.3534 9.66732 11.9998 9.66732Z" fill="#0C2739"/>
<path fill-rule="evenodd" clip-rule="evenodd" d="M6.7998 1.90039C6.13676 1.90039 5.50088 2.16378 5.03204 2.63262C4.5632 3.10146 4.2998 3.73735 4.2998 4.40039V19.2004C4.2998 19.8634 4.5632 20.4993 5.03204 20.9682C5.50088 21.437 6.13676 21.7004 6.7998 21.7004H17.5998C18.2628 21.7004 18.8987 21.437 19.3676 20.9682C19.8364 20.4993 20.0998 19.8634 20.0998 19.2004V8.40039C20.0998 8.28685 20.0612 8.1767 19.9902 8.08804L15.1902 2.08804C15.0954 1.96944 14.9517 1.90039 14.7998 1.90039H6.7998ZM5.73914 3.33973C6.02045 3.05843 6.40198 2.90039 6.7998 2.90039H14.2998L14.2994 8.40036C14.2994 8.53297 14.3521 8.66016 14.4458 8.75393C14.5396 8.84771 14.6668 8.90039 14.7994 8.90039H19.0998V19.2004C19.0998 19.5982 18.9418 19.9797 18.6605 20.2611C18.3792 20.5424 17.9976 20.7004 17.5998 20.7004H6.7998C6.40198 20.7004 6.02045 20.5424 5.73914 20.2611C5.45784 19.9797 5.2998 19.5982 5.2998 19.2004V4.40039C5.2998 4.00257 5.45784 3.62103 5.73914 3.33973ZM18.5595 7.90039L15.2997 3.82567L15.2994 7.90039H18.5595Z" fill="#0C2739"/>
</svg>
