<svg width="24" height="24" viewBox="0 0 24 24" fill="none" xmlns="http://www.w3.org/2000/svg">
<path fill-rule="evenodd" clip-rule="evenodd" d="M10.4995 14.2667C10.4995 14.0658 10.5333 13.8728 10.5956 13.6932C10.8331 13.0083 11.4838 12.5167 12.2495 12.5167C13.216 12.5167 13.9995 13.3002 13.9995 14.2667C13.9995 14.4724 13.964 14.6699 13.8987 14.8533C13.6576 15.5313 13.0102 16.0167 12.2495 16.0167C11.283 16.0167 10.4995 15.2332 10.4995 14.2667ZM12.2495 14.0167C12.138 14.0167 12.0436 14.0896 12.0113 14.1904C12.0036 14.2144 11.9995 14.2401 11.9995 14.2667C11.9995 14.4047 12.1114 14.5167 12.2495 14.5167C12.3561 14.5167 12.447 14.45 12.483 14.3561C12.4937 14.3283 12.4995 14.2982 12.4995 14.2667C12.4995 14.1286 12.3876 14.0167 12.2495 14.0167Z" fill="#161721"/>
<path fill-rule="evenodd" clip-rule="evenodd" d="M7.75345 12.1427C8.82252 10.8545 10.4184 10 12.2282 10C14.0376 10 15.6292 10.8499 16.7026 12.1423C17.7072 13.355 17.7088 15.1764 16.7038 16.3897C15.6348 17.6778 14.0382 18.5333 12.2282 18.5333C10.4189 18.5333 8.82726 17.6834 7.75382 16.391C6.74905 15.1781 6.74853 13.3558 7.75345 12.1427ZM8.90793 13.1004C8.36331 13.7582 8.36334 14.7751 8.90799 15.433C9.72412 16.4154 10.9066 17.0333 12.2282 17.0333C13.5496 17.0333 14.7366 16.411 15.5486 15.4328C16.0933 14.7752 16.0933 13.7585 15.5485 13.1004C14.7323 12.1179 13.5498 11.5 12.2282 11.5C10.9066 11.5 9.71992 12.1221 8.90793 13.1004Z" fill="#161721"/>
<path fill-rule="evenodd" clip-rule="evenodd" d="M7.15 3.5C6.40546 3.5 5.5 4.35204 5.5 5.82999V18.16C5.5 19.6214 6.40813 20.49 7.15 20.49H16.74C17.4915 20.49 18.39 19.6319 18.39 18.16V9.12C18.39 8.4457 18.1834 7.83301 17.8478 7.40028L15.0678 4.11027C14.7385 3.68578 14.3354 3.5 13.96 3.5H7.15ZM4 5.82999C4 3.88794 5.25455 2 7.15 2H13.96C14.8644 2 15.6815 2.45452 16.2522 3.18972M16.2522 3.18972L19.0322 6.47973C19.5964 7.20697 19.89 8.15456 19.89 9.12V18.16C19.89 20.0881 18.6485 21.99 16.74 21.99H7.15C5.25187 21.99 4 20.0786 4 18.16V5.82999" fill="#161721"/>
<path fill-rule="evenodd" clip-rule="evenodd" d="M13.95 2.5C14.3642 2.5 14.7 2.83579 14.7 3.25V7.73999H18.5C18.9142 7.73999 19.25 8.07578 19.25 8.48999C19.25 8.9042 18.9142 9.23999 18.5 9.23999H13.95C13.5357 9.23999 13.2 8.9042 13.2 8.48999V3.25C13.2 2.83579 13.5357 2.5 13.95 2.5Z" fill="#161721"/>
</svg>
