<svg width="24" height="24" viewBox="0 0 24 24" fill="none" xmlns="http://www.w3.org/2000/svg">
<path fill-rule="evenodd" clip-rule="evenodd" d="M7.15 3.5C6.40546 3.5 5.5 4.35204 5.5 5.82999V18.16C5.5 19.6214 6.40813 20.49 7.15 20.49H16.74C17.4915 20.49 18.39 19.6319 18.39 18.16V9.12C18.39 8.4457 18.1834 7.83301 17.8478 7.40028L15.0678 4.11027C14.7385 3.68578 14.3354 3.5 13.96 3.5H7.15ZM4 5.82999C4 3.88794 5.25455 2 7.15 2H13.96C14.8644 2 15.6815 2.45452 16.2522 3.18972M16.2522 3.18972L19.0322 6.47973C19.5964 7.20697 19.89 8.15456 19.89 9.12V18.16C19.89 20.0881 18.6485 21.99 16.74 21.99H7.15C5.25187 21.99 4 20.0786 4 18.16V5.82999" fill="#161721"/>
<path fill-rule="evenodd" clip-rule="evenodd" d="M8 16.25C8 15.8358 8.33579 15.5 8.75 15.5H15.25C15.6642 15.5 16 15.8358 16 16.25C16 16.6642 15.6642 17 15.25 17H8.75C8.33579 17 8 16.6642 8 16.25Z" fill="#161721"/>
<path fill-rule="evenodd" clip-rule="evenodd" d="M8 13.25C8 12.8358 8.33579 12.5 8.75 12.5H13.25C13.6642 12.5 14 12.8358 14 13.25C14 13.6642 13.6642 14 13.25 14H8.75C8.33579 14 8 13.6642 8 13.25Z" fill="#161721"/>
<path fill-rule="evenodd" clip-rule="evenodd" d="M13.95 2.5C14.3642 2.5 14.7 2.83579 14.7 3.25V7.73999H18.5C18.9142 7.73999 19.25 8.07578 19.25 8.48999C19.25 8.9042 18.9142 9.23999 18.5 9.23999H13.95C13.5358 9.23999 13.2 8.9042 13.2 8.48999V3.25C13.2 2.83579 13.5358 2.5 13.95 2.5Z" fill="#161721"/>
</svg>
