<svg width="17" height="21" viewBox="0 0 17 21" fill="none" xmlns="http://www.w3.org/2000/svg">
<path fill-rule="evenodd" clip-rule="evenodd" d="M1.03228 1.63214C1.50112 1.16329 2.13701 0.899902 2.80005 0.899902H10.8C10.9519 0.899902 11.0956 0.968947 11.1905 1.08755L15.9905 7.08755C16.0614 7.17621 16.1 7.28637 16.1 7.3999V18.1999C16.1 18.8629 15.8367 19.4988 15.3678 19.9677C14.899 20.4365 14.2631 20.6999 13.6 20.6999H2.80005C2.13701 20.6999 1.50112 20.4365 1.03228 19.9677C0.563441 19.4988 0.300049 18.8629 0.300049 18.1999V3.3999C0.300049 2.73686 0.563441 2.10098 1.03228 1.63214ZM2.80005 1.8999C2.40222 1.8999 2.02069 2.05794 1.73939 2.33924C1.45808 2.62055 1.30005 3.00208 1.30005 3.3999V18.1999C1.30005 18.5977 1.45808 18.9793 1.73939 19.2606C2.02069 19.5419 2.40222 19.6999 2.80005 19.6999H13.6C13.9979 19.6999 14.3794 19.5419 14.6607 19.2606C14.942 18.9793 15.1 18.5977 15.1 18.1999V7.8999H10.7997C10.667 7.8999 10.5399 7.84722 10.4461 7.75344C10.3523 7.65967 10.2997 7.53248 10.2997 7.39987L10.3 1.8999H2.80005ZM11.3 2.82518L14.5597 6.8999H11.2997L11.3 2.82518ZM3.90005 13.3999C3.90005 13.1238 4.12391 12.8999 4.40005 12.8999H9.20005C9.47619 12.8999 9.70005 13.1238 9.70005 13.3999C9.70005 13.676 9.47619 13.8999 9.20005 13.8999H4.40005C4.12391 13.8999 3.90005 13.676 3.90005 13.3999ZM3.90005 15.7999C3.90005 15.5238 4.12391 15.2999 4.40005 15.2999H11.6C11.8762 15.2999 12.1 15.5238 12.1 15.7999C12.1 16.076 11.8762 16.2999 11.6 16.2999H4.40005C4.12391 16.2999 3.90005 16.076 3.90005 15.7999Z" fill="#0C2739"/>
</svg>
