<svg width="24" height="24" xmlns="http://www.w3.org/2000/svg" viewBox="0 0 16 20">
  <path d="M15.01,3.61L11.86,.77c-.55-.5-1.27-.77-2.01-.77H4C1.79,0,0,1.79,0,4v12c0,2.21,1.79,4,4,4H12c2.21,0,4-1.79,4-4V5.84c0-.85-.36-1.66-.99-2.23Zm-3.91-1.5l2.9,2.61c.19,.17,.33,.38,.41,.62h-3.32V2.11Zm3.4,9.06v4.83c0,1.38-1.12,2.5-2.5,2.5H4c-1.38,0-2.5-1.12-2.5-2.5V4c0-1.38,1.12-2.5,2.5-2.5h5.6V6.09c0,.41,.34,.75,.75,.75h4.15v4.33Z"/>
  <path d="M4,14.25c0-.41,.34-.75,.75-.75h6.5c.41,0,.75,.34,.75,.75s-.34,.75-.75,.75H4.75c-.41,0-.75-.34-.75-.75Z"/>
  <path d="M4.75,10.5c-.41,0-.75,.34-.75,.75s.34,.75,.75,.75h4.5c.41,0,.75-.34,.75-.75s-.34-.75-.75-.75H4.75Z"/>
</svg>