<svg width="24" height="24" viewBox="0 0 24 24" fill="none" xmlns="http://www.w3.org/2000/svg">
<path fill-rule="evenodd" clip-rule="evenodd" d="M16.25 3.19L19.03 6.48C19.6 7.21 19.89 8.15 19.89 9.12V18.16C19.89 20.09 18.65 21.99 16.74 21.99H7.15C5.25 21.99 4 20.08 4 18.16V5.83C4 3.89 5.25 2 7.15 2H13.96C14.86 2 15.68 2.45 16.25 3.19ZM15.07 4.11C14.95 3.96 14.83 3.84 14.7 3.75V7.74H18.07C18 7.62 17.93 7.5 17.85 7.4L15.07 4.11ZM16.74 20.49C17.49 20.49 18.39 19.63 18.39 18.16V9.24H13.95C13.54 9.24 13.2 8.9 13.2 8.49V3.5H7.15C6.47 3.5 5.64 4.22 5.52 5.5C5.5 5.61 5.5 5.72 5.5 5.83V18.16C5.5 19.62 6.41 20.49 7.15 20.49H16.74ZM13.25 12.5H8.75C8.34 12.5 8 12.84 8 13.25C8 13.66 8.34 14 8.75 14H13.25C13.66 14 14 13.66 14 13.25C14 12.84 13.66 12.5 13.25 12.5ZM8 16.25C8 16.66 8.34 17 8.75 17H15.25C15.66 17 16 16.66 16 16.25C16 15.84 15.66 15.5 15.25 15.5H8.75C8.34 15.5 8 15.84 8 16.25Z" fill="#161721"/>
</svg>
