<svg width="24" height="24" viewBox="0 0 24 24" fill="none" xmlns="http://www.w3.org/2000/svg">
<path fill-rule="evenodd" clip-rule="evenodd" d="M5.03204 2.63223C5.50088 2.16339 6.13676 1.89999 6.7998 1.89999H14.7998C14.9517 1.89999 15.0954 1.96904 15.1902 2.08765L19.9902 8.08765C20.0612 8.1763 20.0998 8.28646 20.0998 8.39999V19.2C20.0998 19.863 19.8364 20.4989 19.3676 20.9678C18.8987 21.4366 18.2628 21.7 17.5998 21.7H6.7998C6.13676 21.7 5.50088 21.4366 5.03204 20.9678C4.5632 20.4989 4.2998 19.863 4.2998 19.2V4.39999C4.2998 3.73695 4.5632 3.10107 5.03204 2.63223ZM6.7998 2.89999C6.40198 2.89999 6.02045 3.05803 5.73914 3.33933C5.45784 3.62064 5.2998 4.00217 5.2998 4.39999V19.2C5.2998 19.5978 5.45784 19.9794 5.73914 20.2607C6.02045 20.542 6.40198 20.7 6.7998 20.7H17.5998C17.9976 20.7 18.3792 20.542 18.6605 20.2607C18.9418 19.9794 19.0998 19.5978 19.0998 19.2V8.89999H14.7994C14.6668 8.89999 14.5396 8.84731 14.4458 8.75354C14.3521 8.65976 14.2994 8.53258 14.2994 8.39996L14.2998 2.89999H6.7998ZM15.2997 3.82527L18.5595 7.89999H15.2994L15.2997 3.82527ZM7.8998 14.4C7.8998 14.1239 8.12366 13.9 8.3998 13.9H13.1998C13.4759 13.9 13.6998 14.1239 13.6998 14.4C13.6998 14.6761 13.4759 14.9 13.1998 14.9H8.3998C8.12366 14.9 7.8998 14.6761 7.8998 14.4ZM7.8998 16.8C7.8998 16.5239 8.12366 16.3 8.3998 16.3H15.5998C15.8759 16.3 16.0998 16.5239 16.0998 16.8C16.0998 17.0761 15.8759 17.3 15.5998 17.3H8.3998C8.12366 17.3 7.8998 17.0761 7.8998 16.8Z" fill="#0C2739"/>
</svg>
