<svg width="24" height="24" viewBox="0 0 24 24" fill="none" xmlns="http://www.w3.org/2000/svg">
	<path fill="none" d="M13.2,8.5v-5h-6c-0.7,0-1.5,0.7-1.6,2c0,0.1,0,0.2,0,0.3v12.3c0,1.5,0.9,2.3,1.7,2.3h9.6
		c0.8,0,1.7-0.9,1.7-2.3V9.2H14C13.5,9.2,13.2,8.9,13.2,8.5z M16,16.2c0,0.4-0.3,0.8-0.8,0.8H8.8C8.3,17,8,16.7,8,16.2
		s0.3-0.8,0.8-0.8h6.5C15.7,15.5,16,15.8,16,16.2z M13.2,14H8.8C8.3,14,8,13.7,8,13.2s0.3-0.8,0.8-0.8h4.5c0.4,0,0.8,0.3,0.8,0.8
		S13.7,14,13.2,14z"/>
	<path fill="none" d="M17.8,7.4l-2.8-3.3C15,4,14.8,3.8,14.7,3.8v4h3.4C18,7.6,17.9,7.5,17.8,7.4z"/>
	<path fill="currentColor" d="M13.2,12.5H8.8c-0.4,0-0.8,0.3-0.8,0.8S8.3,14,8.8,14h4.5c0.4,0,0.8-0.3,0.8-0.8S13.7,12.5,13.2,12.5z"/>
	<path fill="currentColor" d="M8,16.2C8,16.7,8.3,17,8.8,17h6.5c0.4,0,0.8-0.3,0.8-0.8s-0.3-0.8-0.8-0.8H8.8C8.3,15.5,8,15.8,8,16.2z"/>
	<path fill="currentColor" d="M19,6.5l-2.8-3.3C15.7,2.5,14.9,2,14,2H7.2C5.3,2,4,3.9,4,5.8v12.3C4,20.1,5.3,22,7.2,22h9.6
		c1.9,0,3.2-1.9,3.2-3.8v-9C19.9,8.2,19.6,7.2,19,6.5z M14.7,3.8C14.8,3.8,15,4,15.1,4.1l2.8,3.3c0.1,0.1,0.2,0.2,0.2,0.3h-3.4V3.8z
		 M18.4,18.2c0,1.5-0.9,2.3-1.7,2.3H7.2c-0.7,0-1.7-0.9-1.7-2.3V5.8c0-0.1,0-0.2,0-0.3c0.1-1.3,0.9-2,1.6-2h6v5
		c0,0.4,0.3,0.8,0.8,0.8h4.4V18.2z"/>
</svg>
