<svg width="20" height="20" viewBox="0 0 20 20" fill="none" xmlns="http://www.w3.org/2000/svg">
<path fill-rule="evenodd" clip-rule="evenodd" d="M7.15789 3.57894C7.15789 4.45097 6.45097 5.15789 5.57894 5.15789C4.70692 5.15789 4 4.45097 4 3.57894C4 2.70692 4.70692 2 5.57894 2C6.45097 2 7.15789 2.70692 7.15789 3.57894ZM15.1928 3.57894C15.1928 4.45097 14.4859 5.15789 13.6139 5.15789C12.7418 5.15789 12.0349 4.45097 12.0349 3.57894C12.0349 2.70692 12.7418 2 13.6139 2C14.4859 2 15.1928 2.70692 15.1928 3.57894ZM5.57894 11.5789C6.45097 11.5789 7.15789 10.872 7.15789 10C7.15789 9.12797 6.45097 8.42106 5.57894 8.42106C4.70692 8.42106 4 9.12797 4 10C4 10.872 4.70692 11.5789 5.57894 11.5789ZM15.1928 10C15.1928 10.872 14.4859 11.5789 13.6139 11.5789C12.7418 11.5789 12.0349 10.872 12.0349 10C12.0349 9.12797 12.7418 8.42106 13.6139 8.42106C14.4859 8.42106 15.1928 9.12797 15.1928 10ZM5.57894 18C6.45097 18 7.15789 17.2931 7.15789 16.4211C7.15789 15.549 6.45097 14.8421 5.57894 14.8421C4.70692 14.8421 4 15.549 4 16.4211C4 17.2931 4.70692 18 5.57894 18ZM15.1928 16.4211C15.1928 17.2931 14.4859 18 13.6139 18C12.7418 18 12.0349 17.2931 12.0349 16.4211C12.0349 15.549 12.7418 14.8421 13.6139 14.8421C14.4859 14.8421 15.1928 15.549 15.1928 16.4211Z" fill="#0C2739"/>
</svg>
