<svg width="24" height="24" viewBox="0 0 24 24" fill="none" xmlns="http://www.w3.org/2000/svg">
<path fill-rule="evenodd" clip-rule="evenodd" d="M5.61936 4.79999C5.27729 4.79999 5 5.07728 5 5.41934C5 5.7614 5.27729 6.0387 5.61936 6.0387H18.6258C18.9679 6.0387 19.2452 5.7614 19.2452 5.41934C19.2452 5.07728 18.9679 4.79999 18.6258 4.79999H5.61936ZM5.61936 10.9935C5.27729 10.9935 5 11.2708 5 11.6129C5 11.9549 5.27729 12.2322 5.61936 12.2322H18.6258C18.9679 12.2322 19.2452 11.9549 19.2452 11.6129C19.2452 11.2708 18.9679 10.9935 18.6258 10.9935H5.61936ZM5 17.8064C5 17.4644 5.27729 17.1871 5.61936 17.1871H18.6258C18.9679 17.1871 19.2452 17.4644 19.2452 17.8064C19.2452 18.1485 18.9679 18.4258 18.6258 18.4258H5.61936C5.27729 18.4258 5 18.1485 5 17.8064Z" fill="#0C2739"/>
</svg>
