<svg width="20" height="20" viewBox="0 0 20 20" fill="none" xmlns="http://www.w3.org/2000/svg">
<path fill-rule="evenodd" clip-rule="evenodd" d="M3.63077 2C3.43642 2 3.23158 2.09209 3.06777 2.28865C2.9022 2.48735 2.8 2.77011 2.8 3.07692V9.72308C2.8 10.0299 2.9022 10.3127 3.06777 10.5113C3.23158 10.7079 3.43642 10.8 3.63077 10.8H4.24615C4.46707 10.8 4.64615 10.9791 4.64615 11.2C4.64615 11.4209 4.46707 11.6 4.24615 11.6H3.63077C3.17228 11.6 2.75102 11.3809 2.4532 11.0235C2.15714 10.6682 2 10.1997 2 9.72308V3.07692C2 2.60033 2.15714 2.13177 2.4532 1.77651C2.75102 1.41912 3.17228 1.2 3.63077 1.2H9.16923C9.62772 1.2 10.049 1.41912 10.3468 1.77651C10.6429 2.13177 10.8 2.60033 10.8 3.07692V3.81538C10.8 4.0363 10.6209 4.21538 10.4 4.21538C10.1791 4.21538 10 4.0363 10 3.81538V3.07692C10 2.77011 9.8978 2.48735 9.73223 2.28865C9.56842 2.09209 9.36358 2 9.16923 2H3.63077ZM7.07686 5.44615C6.68323 5.44615 6.24609 5.85692 6.24609 6.52308V13.1692C6.24609 13.8354 6.68323 14.2462 7.07686 14.2462H12.6153C13.009 14.2462 13.4461 13.8354 13.4461 13.1692V6.52308C13.4461 5.85692 13.009 5.44615 12.6153 5.44615H7.07686ZM5.44609 6.52308C5.44609 5.55786 6.11103 4.64615 7.07686 4.64615H12.6153C13.5812 4.64615 14.2461 5.55786 14.2461 6.52308V13.1692C14.2461 14.1344 13.5812 15.0462 12.6153 15.0462H7.07686C6.11103 15.0462 5.44609 14.1344 5.44609 13.1692V6.52308Z" fill="#0C2739"/>
<path fill-rule="evenodd" clip-rule="evenodd" d="M12.5 10C12.7761 10 13 10.2239 13 10.5V12L14.5 12C14.7761 12 15 12.2239 15 12.5C15 12.7761 14.7761 13 14.5 13H13V14.5C13 14.7761 12.7761 15 12.5 15C12.2239 15 12 14.7761 12 14.5V13H10.5C10.2239 13 10 12.7761 10 12.5C10 12.2239 10.2239 12 10.5 12L12 12V10.5C12 10.2239 12.2239 10 12.5 10Z" fill="#0C2739"/>
</svg>
