<svg width="24" height="24" viewBox="0 0 24 24" fill="none" xmlns="http://www.w3.org/2000/svg">
<path fill-rule="evenodd" clip-rule="evenodd" d="M5.29001 3.5C4.30422 3.5 3.5 4.30422 3.5 5.29001V15.52C3.5 16.0176 3.69848 16.4678 4.02032 16.7897C4.31321 17.0826 4.31321 17.5574 4.02032 17.8503C3.72743 18.1432 3.25255 18.1432 2.95966 17.8503C2.3615 17.2522 2 16.4224 2 15.52V5.29001C2 3.4758 3.4758 2 5.29001 2H15.52C16.5427 2 17.4618 2.46693 18.0686 3.20286C18.3322 3.52244 18.2867 3.99513 17.9671 4.25865C17.6475 4.52216 17.1749 4.47671 16.9113 4.15713C16.5781 3.75305 16.0773 3.5 15.52 3.5H5.29001ZM8.48001 6.69C7.49422 6.69 6.69 7.49422 6.69 8.48001V18.71C6.69 19.6958 7.49422 20.5 8.48001 20.5H18.71C19.6958 20.5 20.5 19.6958 20.5 18.71V8.48001C20.5 7.49422 19.6958 6.69 18.71 6.69H8.48001ZM5.19 8.48001C5.19 6.6658 6.6658 5.19 8.48001 5.19H18.71C20.5242 5.19 22 6.6658 22 8.48001V18.71C22 20.5242 20.5242 22 18.71 22H8.48001C6.6658 22 5.19 20.5242 5.19 18.71V8.48001ZM13.6038 10.36C14.018 10.36 14.3538 10.6958 14.3538 11.11V12.8539H16.11C16.5242 12.8539 16.86 13.1897 16.86 13.6039C16.86 14.0182 16.5242 14.3539 16.11 14.3539H14.3538V16.11C14.3538 16.5242 14.018 16.86 13.6038 16.86C13.1896 16.86 12.8538 16.5242 12.8538 16.11V14.3539H11.11C10.6958 14.3539 10.36 14.0182 10.36 13.6039C10.36 13.1897 10.6958 12.8539 11.11 12.8539H12.8538V11.11C12.8538 10.6958 13.1896 10.36 13.6038 10.36Z" fill="#161721"/>
</svg>
