<svg width="24" height="24" viewBox="0 0 24 24" fill="none" xmlns="http://www.w3.org/2000/svg">
<path fill-rule="evenodd" clip-rule="evenodd" d="M4.60166 3.43298C4.84736 3.13813 5.15463 3 5.44615 3H13.7538C14.0454 3 14.3526 3.13813 14.5983 3.43298C14.8467 3.73102 15 4.15517 15 4.61538V5.72308C15 6.05445 15.2686 6.32308 15.6 6.32308C15.9314 6.32308 16.2 6.05445 16.2 5.72308V4.61538C16.2 3.90049 15.9643 3.19765 15.5202 2.66476C15.0735 2.12868 14.4416 1.8 13.7538 1.8H5.44615C4.75842 1.8 4.12653 2.12868 3.67979 2.66476C3.23572 3.19765 3 3.90049 3 4.61538V14.5846C3 15.2995 3.23572 16.0023 3.67979 16.5352C4.12653 17.0713 4.75842 17.4 5.44615 17.4H6.36923C6.7006 17.4 6.96923 17.1314 6.96923 16.8C6.96923 16.4686 6.7006 16.2 6.36923 16.2H5.44615C5.15463 16.2 4.84736 16.0619 4.60166 15.767C4.35329 15.469 4.2 15.0448 4.2 14.5846V4.61538C4.2 4.15517 4.35329 3.73102 4.60166 3.43298ZM9.36914 9.78461C9.36914 8.78539 10.0248 8.16923 10.6153 8.16923H18.923C19.5134 8.16923 20.1691 8.78539 20.1691 9.78461V19.7538C20.1691 20.7531 19.5134 21.3692 18.923 21.3692H10.6153C10.0248 21.3692 9.36914 20.7531 9.36914 19.7538V9.78461ZM10.6153 6.96923C9.16654 6.96923 8.16914 8.3368 8.16914 9.78461V19.7538C8.16914 21.2017 9.16654 22.5692 10.6153 22.5692H18.923C20.3717 22.5692 21.3691 21.2017 21.3691 19.7538V9.78461C21.3691 8.3368 20.3717 6.96923 18.923 6.96923H10.6153ZM15.75 12C15.75 11.5858 15.4142 11.25 15 11.25C14.5858 11.25 14.25 11.5858 14.25 12V14.25H12C11.5858 14.25 11.25 14.5858 11.25 15C11.25 15.4142 11.5858 15.75 12 15.75H14.25V18C14.25 18.4142 14.5858 18.75 15 18.75C15.4142 18.75 15.75 18.4142 15.75 18V15.75H18C18.4142 15.75 18.75 15.4142 18.75 15C18.75 14.5858 18.4142 14.25 18 14.25L15.75 14.25V12Z" fill="#0C2739"/>
</svg>
