<svg width="20" height="20" viewBox="0 0 20 20" fill="none" xmlns="http://www.w3.org/2000/svg">
<path fill-rule="evenodd" clip-rule="evenodd" d="M4.53846 2.5C4.29552 2.5 4.03947 2.61511 3.83472 2.86082C3.62775 3.10918 3.5 3.46264 3.5 3.84615V12.1538C3.5 12.5374 3.62775 12.8908 3.83472 13.1392C4.03947 13.3849 4.29552 13.5 4.53846 13.5H5.30769C5.58383 13.5 5.80769 13.7239 5.80769 14C5.80769 14.2761 5.58383 14.5 5.30769 14.5H4.53846C3.96535 14.5 3.43877 14.2261 3.06649 13.7794C2.69643 13.3353 2.5 12.7496 2.5 12.1538V3.84615C2.5 3.25041 2.69643 2.66471 3.06649 2.22063C3.43878 1.7739 3.96535 1.5 4.53846 1.5H11.4615C12.0347 1.5 12.5612 1.7739 12.9335 2.22063C13.3036 2.66471 13.5 3.25041 13.5 3.84615V4.76923C13.5 5.04537 13.2761 5.26923 13 5.26923C12.7239 5.26923 12.5 5.04537 12.5 4.76923V3.84615C12.5 3.46264 12.3723 3.10918 12.1653 2.86082C11.9605 2.61511 11.7045 2.5 11.4615 2.5H4.53846ZM8.84608 6.80769C8.35404 6.80769 7.80762 7.32116 7.80762 8.15385V16.4615C7.80762 17.2942 8.35404 17.8077 8.84608 17.8077H15.7692C16.2612 17.8077 16.8076 17.2942 16.8076 16.4615V8.15385C16.8076 7.32116 16.2612 6.80769 15.7692 6.80769H8.84608ZM6.80762 8.15385C6.80762 6.94733 7.63878 5.80769 8.84608 5.80769H15.7692C16.9765 5.80769 17.8076 6.94733 17.8076 8.15385V16.4615C17.8076 17.6681 16.9765 18.8077 15.7692 18.8077H8.84608C7.63878 18.8077 6.80762 17.6681 6.80762 16.4615V8.15385Z" fill="black"/>
<path fill-rule="evenodd" clip-rule="evenodd" d="M12.5 10C12.7761 10 13 10.2239 13 10.5V12L14.5 12C14.7761 12 15 12.2239 15 12.5C15 12.7761 14.7761 13 14.5 13H13V14.5C13 14.7761 12.7761 15 12.5 15C12.2239 15 12 14.7761 12 14.5V13H10.5C10.2239 13 10 12.7761 10 12.5C10 12.2239 10.2239 12 10.5 12L12 12V10.5C12 10.2239 12.2239 10 12.5 10Z" fill="black"/>
</svg>
