<svg width="24" height="24" viewBox="0 0 24 24" fill="none" xmlns="http://www.w3.org/2000/svg">
<path fill-rule="evenodd" clip-rule="evenodd" d="M18.0803 2.21967C17.7874 1.92678 17.3126 1.92678 17.0197 2.21967L2.22966 17.0097C2.08951 17.1498 2.01053 17.3398 2.01 17.538L2 21.248C1.99947 21.4476 2.07852 21.6392 2.21967 21.7803C2.36082 21.9215 2.55241 22.0005 2.75202 22L6.46203 21.99C6.66024 21.9895 6.85018 21.9105 6.99034 21.7703L21.7803 6.98033C22.0732 6.68743 22.0732 6.21256 21.7803 5.91967L18.0803 2.21967ZM3.50203 20.498L3.50916 17.8515L14.7633 6.59734C14.7807 6.61912 14.7995 6.64016 14.8197 6.66034L17.3397 9.18032C17.3598 9.2005 17.3809 9.21928 17.4027 9.23668L6.14851 20.4908L3.50203 20.498ZM18.4567 8.18266L20.1893 6.45L17.55 3.81066L15.8173 5.54332C15.8391 5.56072 15.8602 5.5795 15.8803 5.59967L18.4003 8.11966C18.4205 8.13984 18.4393 8.16088 18.4567 8.18266Z" fill="#161721"/>
</svg>
