<svg width="24" height="24" viewBox="0 0 24 24" fill="none" xmlns="http://www.w3.org/2000/svg">
<path fill-rule="evenodd" clip-rule="evenodd" d="M17.3665 3.10259C18.2069 2.26223 19.5693 2.26223 20.4097 3.10259L20.9708 3.66371C21.8099 4.50463 21.8099 5.86595 20.9708 6.70687L7.43997 20.2381C7.38151 20.2965 7.30904 20.3388 7.22946 20.3608L3.17932 21.4828C3.01327 21.5288 2.83544 21.4819 2.71347 21.3601C2.59168 21.2381 2.5448 21.0603 2.59094 20.8943L3.71279 16.8441C3.73483 16.7646 3.77705 16.6921 3.83551 16.6336L17.3665 3.10259ZM17.5356 4.2859L4.59989 17.4801L3.73819 20.3356L7.12897 19.1962L19.7875 6.53783L20.2946 6.0307C20.7607 5.56354 20.7607 4.80723 20.2946 4.33988L19.7333 3.77877C19.2666 3.31198 18.5097 3.31198 18.0429 3.77877L17.5356 4.2859ZM9.5 20.5C9.22386 20.5 9 20.7239 9 21C9 21.2761 9.22386 21.5 9.5 21.5H20.5C20.7761 21.5 21 21.2761 21 21C21 20.7239 20.7761 20.5 20.5 20.5H9.5Z" fill="#0C2739"/>
</svg>
