<svg width="20" height="20" viewBox="0 0 20 20" fill="none" xmlns="http://www.w3.org/2000/svg">
<path d="M16.6667 4H3.33334C2.59797 4 2 4.59797 2 5.33334V14.6667C2 15.402 2.59797 16 3.33334 16H16.6667C17.402 16 18 15.402 18 14.6667V5.33334C18 4.59797 17.402 4 16.6667 4ZM3.33334 4.66666H16.6667C16.7158 4.66666 16.7591 4.68456 16.8052 4.69469C15.6508 5.75116 11.8232 9.25278 10.4838 10.4596C10.3789 10.554 10.21 10.6667 10 10.6667C9.79006 10.6667 9.62113 10.554 9.51597 10.4593C8.17663 9.25266 4.34878 5.75084 3.19463 4.69475C3.24081 4.68463 3.28419 4.66666 3.33334 4.66666ZM2.66666 14.6667V5.33334C2.66666 5.26803 2.68634 5.20878 2.70397 5.14909C3.58747 5.95772 6.25822 8.40097 7.98997 9.97575C6.26384 11.4585 3.59241 13.9912 2.70187 14.8404C2.68616 14.7837 2.66666 14.7283 2.66666 14.6667ZM16.6667 15.3333H3.33334C3.28009 15.3333 3.23275 15.3148 3.18303 15.3029C4.10325 14.4257 6.79169 11.8783 8.48747 10.4276C8.70853 10.6282 8.91047 10.811 9.06966 10.9544C9.34441 11.2025 9.666 11.3333 10 11.3333C10.334 11.3333 10.6556 11.2025 10.93 10.9548C11.0893 10.8113 11.2913 10.6282 11.5125 10.4276C13.2084 11.8782 15.8965 14.4253 16.817 15.3029C16.7673 15.3148 16.72 15.3333 16.6667 15.3333ZM17.3333 14.6667C17.3333 14.7283 17.3138 14.7837 17.2982 14.8404C16.4073 13.9908 13.7362 11.4583 12.0101 9.97578C13.7419 8.401 16.4122 5.95797 17.296 5.14903C17.3137 5.20872 17.3333 5.268 17.3333 5.33331V14.6667Z" fill="black"/>
</svg>
