<svg width="24" height="24" viewBox="0 0 24 24" fill="none" xmlns="http://www.w3.org/2000/svg">
<path fill-rule="evenodd" clip-rule="evenodd" d="M4.84311 5.77848C4.94251 5.75978 5.04508 5.75 5.15 5.75H18.85C18.9518 5.75 19.0516 5.75926 19.1484 5.777L12.8216 12.0577L12.8197 12.0597C12.3446 12.5347 11.6573 12.5398 11.1675 12.0569L11.1669 12.0562L4.84311 5.77848ZM3.65146 6.70911C3.55421 6.91954 3.5 7.15367 3.5 7.4V16.6C3.5 16.7427 3.51811 16.8811 3.55212 17.013L8.9166 11.9359L3.65146 6.70911ZM9.98164 12.9932L4.54747 18.1363C4.73433 18.2097 4.93763 18.25 5.15 18.25H18.85C19.0651 18.25 19.2701 18.2095 19.458 18.1357L14.0828 12.9193L13.8803 13.1203L13.8792 13.1215C12.8144 14.1851 11.1829 14.1798 10.1131 13.1237L10.1116 13.1223L9.98164 12.9932ZM20.5 16.6C20.5 16.741 20.4826 16.8776 20.4498 17.0079L15.1475 11.8624L20.3455 6.70217C20.4446 6.91393 20.5 7.15034 20.5 7.4V16.6ZM5.15 4.25C3.40376 4.25 2 5.66782 2 7.4V16.6C2 18.3462 3.41782 19.75 5.15 19.75H18.85C20.5942 19.75 22 18.3442 22 16.6V7.4C22 5.65375 20.5822 4.25 18.85 4.25H5.15Z" fill="#161721"/>
</svg>
