<svg width="24" height="24" viewBox="0 0 24 24" fill="none" xmlns="http://www.w3.org/2000/svg">
<path fill-rule="evenodd" clip-rule="evenodd" d="M3.5 12C3.5 7.30558 7.30558 3.5 12 3.5C16.6944 3.5 20.5 7.30558 20.5 12C20.5 16.6944 16.6944 20.5 12 20.5C7.30558 20.5 3.5 16.6944 3.5 12ZM12 2C6.47715 2 2 6.47715 2 12C2 17.5228 6.47715 22 12 22C17.5228 22 22 17.5228 22 12C22 6.47715 17.5228 2 12 2ZM16.8335 15.5386C17.0867 15.2108 17.0264 14.7398 16.6986 14.4865C16.3708 14.2333 15.8998 14.2936 15.6465 14.6214C15.5075 14.8013 14.204 16.3978 12.0045 16.39C9.89067 16.3722 8.6328 14.88 8.47803 14.6845C8.22093 14.3597 7.74923 14.3049 7.42447 14.562C7.09971 14.8191 7.04486 15.2908 7.30196 15.6155C7.52716 15.9 9.16871 17.8671 11.9939 17.89L11.9971 17.89C14.9366 17.9015 16.6325 15.7986 16.8335 15.5386ZM8.39999 8.73999C7.69999 8.73999 7.14 9.31 7.14 10C7.14 10.69 7.70999 11.26 8.39999 11.26C9.09999 11.26 9.66 10.69 9.66 10C9.66 9.31 9.09999 8.73999 8.39999 8.73999ZM14.34 10C14.34 9.31 14.9 8.73999 15.6 8.73999C16.29 8.73999 16.86 9.31 16.86 10C16.86 10.69 16.3 11.26 15.6 11.26C14.91 11.26 14.34 10.69 14.34 10Z" fill="#161721"/>
</svg>
