<svg width="24" height="24" viewBox="0 0 24 24" fill="none" xmlns="http://www.w3.org/2000/svg">
<path fill-rule="evenodd" clip-rule="evenodd" d="M6.44671 14.4363L9.17679 11.7062C9.46394 11.4191 9.46394 10.9535 9.17679 10.6663C8.88964 10.3792 8.42408 10.3792 8.13693 10.6663L4.21536 14.5879C4.06674 14.7365 3.99504 14.9329 4.00027 15.1277C4.00514 15.3092 4.07683 15.4892 4.21536 15.6278L8.13693 19.5493C8.42408 19.8364 8.88964 19.8364 9.17679 19.5493C9.46394 19.2621 9.46394 18.7966 9.17679 18.5094L6.5742 15.9069L16.4902 15.9069C18.4257 15.9069 20 14.3326 20 12.3971V7.43627C20 5.67654 18.5735 4.25 16.8137 4.25H13.5588C13.1527 4.25 12.8235 4.5792 12.8235 4.98529C12.8235 5.39139 13.1527 5.72059 13.5588 5.72059L16.8137 5.72059C17.7613 5.72059 18.5294 6.48873 18.5294 7.43627V12.3971C18.5294 13.5204 17.6135 14.4363 16.4902 14.4363L6.44671 14.4363Z" fill="#161721"/>
</svg>
