<svg width="24" height="24" viewBox="0 0 24 24" fill="none" xmlns="http://www.w3.org/2000/svg">
<path fill-rule="evenodd" clip-rule="evenodd" d="M1.5 6C1.5 3.51472 3.51472 1.5 6 1.5C8.48528 1.5 10.5 3.51472 10.5 6C10.5 8.48528 8.48528 10.5 6 10.5C3.51472 10.5 1.5 8.48528 1.5 6ZM6 2.5C4.067 2.5 2.5 4.067 2.5 6C2.5 7.933 4.067 9.5 6 9.5C7.933 9.5 9.5 7.933 9.5 6C9.5 4.067 7.933 2.5 6 2.5Z" fill="#0C2739"/>
<path fill-rule="evenodd" clip-rule="evenodd" d="M1.5 17.3334C1.5 14.8481 3.51472 12.8334 6 12.8334C8.48528 12.8334 10.5 14.8481 10.5 17.3334C10.5 19.8187 8.48528 21.8334 6 21.8334C3.51472 21.8334 1.5 19.8187 1.5 17.3334ZM6 13.8334C4.067 13.8334 2.5 15.4004 2.5 17.3334C2.5 19.2664 4.067 20.8334 6 20.8334C7.933 20.8334 9.5 19.2664 9.5 17.3334C9.5 15.4004 7.933 13.8334 6 13.8334Z" fill="#0C2739"/>
<path fill-rule="evenodd" clip-rule="evenodd" d="M12.8335 6C12.8335 3.51472 14.8482 1.5 17.3335 1.5C19.8188 1.5 21.8335 3.51472 21.8335 6C21.8335 8.48528 19.8188 10.5 17.3335 10.5C14.8482 10.5 12.8335 8.48528 12.8335 6ZM17.3335 2.5C15.4005 2.5 13.8335 4.067 13.8335 6C13.8335 7.933 15.4005 9.5 17.3335 9.5C19.2665 9.5 20.8335 7.933 20.8335 6C20.8335 4.067 19.2665 2.5 17.3335 2.5Z" fill="#0C2739"/>
<path fill-rule="evenodd" clip-rule="evenodd" d="M12.8335 17.3334C12.8335 14.8481 14.8482 12.8334 17.3335 12.8334C19.8188 12.8334 21.8335 14.8481 21.8335 17.3334C21.8335 19.8187 19.8188 21.8334 17.3335 21.8334C14.8482 21.8334 12.8335 19.8187 12.8335 17.3334ZM17.3335 13.8334C15.4005 13.8334 13.8335 15.4004 13.8335 17.3334C13.8335 19.2664 15.4005 20.8334 17.3335 20.8334C19.2665 20.8334 20.8335 19.2664 20.8335 17.3334C20.8335 15.4004 19.2665 13.8334 17.3335 13.8334Z" fill="#0C2739"/>
</svg>
