<svg width="24" height="24" viewBox="0 0 24 24" fill="none" xmlns="http://www.w3.org/2000/svg">
<path fill-rule="evenodd" clip-rule="evenodd" d="M20.5 6C20.5 6.27614 20.2761 6.5 20 6.5H4C3.72386 6.5 3.5 6.27614 3.5 6C3.5 5.72386 3.72386 5.5 4 5.5H20C20.2761 5.5 20.5 5.72386 20.5 6ZM20.5 12C20.5 12.2761 20.2761 12.5 20 12.5L8 12.5C7.72386 12.5 7.5 12.2761 7.5 12C7.5 11.7239 7.72386 11.5 8 11.5L20 11.5C20.2761 11.5 20.5 11.7239 20.5 12ZM21 18.5C21.2761 18.5 21.5 18.2761 21.5 18C21.5 17.7239 21.2761 17.5 21 17.5H12C11.7239 17.5 11.5 17.7239 11.5 18C11.5 18.2761 11.7239 18.5 12 18.5H21Z" fill="#0C2739"/>
<path d="M20 12.5V12.8V12.5ZM8 12.5V12.2V12.5ZM8 11.5V11.2V11.5ZM20 11.5V11.8V11.5ZM20 6.8C20.4418 6.8 20.8 6.44183 20.8 6H20.2C20.2 6.11046 20.1105 6.2 20 6.2V6.8ZM4 6.8H20V6.2H4V6.8ZM3.2 6C3.2 6.44183 3.55817 6.8 4 6.8V6.2C3.88954 6.2 3.8 6.11046 3.8 6H3.2ZM4 5.2C3.55817 5.2 3.2 5.55817 3.2 6H3.8C3.8 5.88954 3.88954 5.8 4 5.8V5.2ZM20 5.2H4V5.8H20V5.2ZM20.8 6C20.8 5.55817 20.4418 5.2 20 5.2V5.8C20.1105 5.8 20.2 5.88954 20.2 6H20.8ZM20 12.8C20.4418 12.8 20.8 12.4418 20.8 12H20.2C20.2 12.1105 20.1105 12.2 20 12.2V12.8ZM8 12.8L20 12.8V12.2L8 12.2V12.8ZM7.2 12C7.2 12.4418 7.55817 12.8 8 12.8V12.2C7.88954 12.2 7.8 12.1105 7.8 12H7.2ZM8 11.2C7.55817 11.2 7.2 11.5582 7.2 12H7.8C7.8 11.8895 7.88954 11.8 8 11.8V11.2ZM20 11.2L8 11.2V11.8L20 11.8V11.2ZM20.8 12C20.8 11.5582 20.4418 11.2 20 11.2V11.8C20.1105 11.8 20.2 11.8895 20.2 12H20.8ZM21.2 18C21.2 18.1105 21.1105 18.2 21 18.2V18.8C21.4418 18.8 21.8 18.4418 21.8 18H21.2ZM21 17.8C21.1105 17.8 21.2 17.8895 21.2 18H21.8C21.8 17.5582 21.4418 17.2 21 17.2V17.8ZM12 17.8H21V17.2H12V17.8ZM11.8 18C11.8 17.8895 11.8895 17.8 12 17.8V17.2C11.5582 17.2 11.2 17.5582 11.2 18H11.8ZM12 18.2C11.8895 18.2 11.8 18.1105 11.8 18H11.2C11.2 18.4418 11.5582 18.8 12 18.8V18.2ZM21 18.2H12V18.8H21V18.2Z" fill="black"/>
</svg>
