<svg width="24" height="24" viewBox="0 0 24 24" fill="none" xmlns="http://www.w3.org/2000/svg">
<path fill-rule="evenodd" clip-rule="evenodd" d="M18.75 7C18.75 7.41421 18.4142 7.75 18 7.75L6 7.75C5.58579 7.75 5.25 7.41421 5.25 7C5.25 6.58579 5.58579 6.25 6 6.25L18 6.25C18.4142 6.25 18.75 6.58579 18.75 7Z" fill="#161721"/>
<path fill-rule="evenodd" clip-rule="evenodd" d="M18.75 12C18.75 12.4142 18.4142 12.75 18 12.75L10 12.75C9.58579 12.75 9.25 12.4142 9.25 12C9.25 11.5858 9.58579 11.25 10 11.25L18 11.25C18.4142 11.25 18.75 11.5858 18.75 12Z" fill="#161721"/>
<path fill-rule="evenodd" clip-rule="evenodd" d="M18.75 17C18.75 17.4142 18.4142 17.75 18 17.75L13.5 17.75C13.0858 17.75 12.75 17.4142 12.75 17C12.75 16.5858 13.0858 16.25 13.5 16.25L18 16.25C18.4142 16.25 18.75 16.5858 18.75 17Z" fill="#161721"/>
</svg>
