<svg width="24" height="24" viewBox="0 0 24 24" fill="none" xmlns="http://www.w3.org/2000/svg">
<path d="M20.5 6C20.5 6.27614 20.2761 6.5 20 6.5H4C3.72386 6.5 3.5 6.27614 3.5 6C3.5 5.72386 3.72386 5.5 4 5.5H20C20.2761 5.5 20.5 5.72386 20.5 6Z" fill="#0C2739"/>
<path d="M20.5 12C20.5 12.2761 20.2761 12.5 20 12.5L8 12.5C7.72386 12.5 7.5 12.2761 7.5 12C7.5 11.7239 7.72386 11.5 8 11.5L20 11.5C20.2761 11.5 20.5 11.7239 20.5 12Z" fill="#0C2739"/>
<path d="M21 18.5C21.2761 18.5 21.5 18.2761 21.5 18C21.5 17.7239 21.2761 17.5 21 17.5H12C11.7239 17.5 11.5 17.7239 11.5 18C11.5 18.2761 11.7239 18.5 12 18.5H21Z" fill="#0C2739"/>
</svg>
