<svg width="24" height="24" viewBox="0 0 24 24" fill="none" xmlns="http://www.w3.org/2000/svg">
<path fill-rule="evenodd" clip-rule="evenodd" d="M22.75 19C23.1642 19 23.5 18.6642 23.5 18.25C23.5 17.8358 23.1642 17.5 22.75 17.5L17.5 17.5C17.0858 17.5 16.75 17.8358 16.75 18.25C16.75 18.6642 17.0858 19 17.5 19L22.75 19ZM8.0801 8.95239C7.78825 9.24424 7.78825 9.71742 8.0801 10.0093C8.37195 10.3011 8.84512 10.3011 9.13697 10.0093L11.235 7.91126L11.235 13.8929C11.235 14.3057 11.5696 14.6402 11.9823 14.6402C12.395 14.6402 12.7296 14.3057 12.7296 13.8929L12.7296 7.91133L14.8276 10.0093C15.1194 10.3011 15.5926 10.3011 15.8845 10.0093C16.1763 9.71744 16.1763 9.24426 15.8845 8.95242L12.5155 5.58345L12.5107 5.57864C12.2189 5.28679 11.7457 5.28679 11.4539 5.57864L8.0801 8.95239ZM15.25 18.25C15.25 18.6642 14.9142 19 14.5 19L9.25 19C8.83579 19 8.5 18.6642 8.5 18.25C8.5 17.8358 8.83579 17.5 9.25 17.5L14.5 17.5C14.9142 17.5 15.25 17.8358 15.25 18.25ZM6.25 19C6.66421 19 7 18.6642 7 18.25C7 17.8358 6.66421 17.5 6.25 17.5L0.999999 17.5C0.585786 17.5 0.249999 17.8358 0.249999 18.25C0.249999 18.6642 0.585786 19 0.999999 19L6.25 19Z" fill="#161721"/>
</svg>
