<svg width="24" height="24" viewBox="0 0 24 24" fill="none" xmlns="http://www.w3.org/2000/svg">
<path fill-rule="evenodd" clip-rule="evenodd" d="M1.25 4.99999C0.835786 4.99999 0.499999 5.33578 0.499999 5.74999C0.499999 6.16421 0.835786 6.49999 1.25 6.49999L6.5 6.49999C6.91421 6.49999 7.25 6.16421 7.25 5.74999C7.25 5.33578 6.91421 4.99999 6.5 4.99999L1.25 4.99999ZM15.9199 15.0476C16.2117 14.7557 16.2117 14.2826 15.9199 13.9907C15.6281 13.6989 15.1549 13.6989 14.863 13.9907L12.765 16.0887L12.765 10.1071C12.765 9.69433 12.4304 9.35974 12.0177 9.35974C11.605 9.35974 11.2704 9.69433 11.2704 10.1071L11.2704 16.0887L9.17242 13.9907C8.88057 13.6988 8.40739 13.6988 8.11554 13.9907C7.8237 14.2825 7.8237 14.7557 8.11554 15.0476L11.4845 18.4165L11.4893 18.4213C11.7811 18.7132 12.2543 18.7132 12.5461 18.4213L15.9199 15.0476ZM8.75 5.74999C8.75 5.33578 9.08579 4.99999 9.5 4.99999L14.75 4.99999C15.1642 4.99999 15.5 5.33578 15.5 5.74999C15.5 6.16421 15.1642 6.49999 14.75 6.49999L9.5 6.49999C9.08579 6.49999 8.75 6.16421 8.75 5.74999ZM17.75 4.99999C17.3358 4.99999 17 5.33578 17 5.74999C17 6.16421 17.3358 6.49999 17.75 6.49999L23 6.49999C23.4142 6.49999 23.75 6.16421 23.75 5.74999C23.75 5.33578 23.4142 4.99999 23 4.99999L17.75 4.99999Z" fill="#161721"/>
</svg>
