<svg width="20" height="20" viewBox="0 0 20 20" fill="none" xmlns="http://www.w3.org/2000/svg">
<path fill-rule="evenodd" clip-rule="evenodd" d="M1.31274 9.79999C1.44878 9.79999 1.57924 9.85403 1.67544 9.95022C1.77163 10.0464 1.82567 10.1769 1.82567 10.3129V14.1741H5.69121C5.82725 14.1741 5.95772 14.2282 6.05391 14.3244C6.1501 14.4205 6.20414 14.551 6.20414 14.6871C6.20414 14.8231 6.1501 14.9536 6.05391 15.0498C5.95772 15.1459 5.82725 15.2 5.69121 15.2H1.31274C1.1767 15.2 1.04623 15.1459 0.95004 15.0498C0.853846 14.9536 0.799805 14.8231 0.799805 14.6871V10.3129C0.799805 10.1769 0.853846 10.0464 0.95004 9.95022C1.04623 9.85403 1.1767 9.79999 1.31274 9.79999Z" fill="#0C2739"/>
<path fill-rule="evenodd" clip-rule="evenodd" d="M6.6396 9.36018C6.69038 9.41084 6.73067 9.47101 6.75816 9.53726C6.78565 9.60351 6.7998 9.67453 6.7998 9.74626C6.7998 9.81799 6.78565 9.88901 6.75816 9.95526C6.73067 10.0215 6.69038 10.0817 6.6396 10.1323L1.73187 15.0401C1.62948 15.1425 1.4906 15.2 1.3458 15.2C1.20099 15.2 1.06212 15.1425 0.959722 15.0401C0.857329 14.9377 0.799805 14.7988 0.799805 14.654C0.799805 14.5092 0.857329 14.3703 0.959722 14.2679L5.86745 9.36018C5.91811 9.3094 5.97828 9.26911 6.04453 9.24162C6.11078 9.21413 6.1818 9.19998 6.25353 9.19998C6.32525 9.19998 6.39627 9.21413 6.46252 9.24162C6.52877 9.26911 6.58895 9.3094 6.6396 9.36018Z" fill="#0C2739"/>
<path fill-rule="evenodd" clip-rule="evenodd" d="M14.6868 6.2C14.5507 6.2 14.4203 6.14596 14.3241 6.04976C14.2279 5.95357 14.1738 5.8231 14.1738 5.68706L14.1738 1.82586L10.3083 1.82586C10.1723 1.82586 10.0418 1.77182 9.9456 1.67563C9.84941 1.57943 9.79537 1.44897 9.79537 1.31293C9.79537 1.17689 9.84941 1.04642 9.9456 0.950229C10.0418 0.854035 10.1723 0.799994 10.3083 0.799994L14.6868 0.799994C14.8228 0.799994 14.9533 0.854036 15.0495 0.95023C15.1457 1.04642 15.1997 1.17689 15.1997 1.31293L15.1997 5.68706C15.1997 5.8231 15.1457 5.95357 15.0495 6.04976C14.9533 6.14596 14.8228 6.2 14.6868 6.2Z" fill="#0C2739"/>
<path fill-rule="evenodd" clip-rule="evenodd" d="M9.35991 6.63978C9.30913 6.58913 9.26884 6.52895 9.24135 6.46271C9.21386 6.39646 9.19971 6.32544 9.19971 6.25371C9.19971 6.18198 9.21386 6.11096 9.24135 6.04471C9.26884 5.97846 9.30913 5.91829 9.35991 5.86763L14.2676 0.959906C14.37 0.857512 14.5089 0.799989 14.6537 0.799989C14.7985 0.799989 14.9374 0.857512 15.0398 0.959906C15.1422 1.0623 15.1997 1.20117 15.1997 1.34598C15.1997 1.49079 15.1422 1.62966 15.0398 1.73205L10.1321 6.63978C10.0814 6.69057 10.0212 6.73086 9.95498 6.75835C9.88873 6.78584 9.81771 6.79999 9.74599 6.79999C9.67426 6.79999 9.60324 6.78584 9.53699 6.75835C9.47074 6.73086 9.41056 6.69057 9.35991 6.63978Z" fill="#0C2739"/>
</svg>
