<svg width="24" height="24" viewBox="0 0 24 24" fill="none" xmlns="http://www.w3.org/2000/svg">
<path fill-rule="evenodd" clip-rule="evenodd" d="M14.1939 4C13.7797 4 13.4439 4.33579 13.4439 4.75C13.4439 5.16421 13.7797 5.5 14.1939 5.5H17.1715L12.9268 9.74476C12.6339 10.0376 12.6339 10.5125 12.9268 10.8054C13.2197 11.0983 13.6945 11.0983 13.9874 10.8054L18.2322 6.56063V9.53831C18.2322 9.95252 18.568 10.2883 18.9822 10.2883C19.3964 10.2883 19.7322 9.95252 19.7322 9.53831V4.75471L19.7322 4.75C19.7322 4.46349 19.5716 4.21451 19.3354 4.08821C19.2302 4.03192 19.1099 4 18.9822 4H18.9822H14.1939ZM4.75001 13.4438C5.16422 13.4438 5.50001 13.7796 5.50001 14.1938L5.50001 17.1715L9.03769 13.6339C9.33059 13.341 9.80546 13.341 10.0984 13.6339C10.3912 13.9268 10.3912 14.4016 10.0984 14.6945L6.56071 18.2322L9.53831 18.2322C9.95252 18.2322 10.2883 18.568 10.2883 18.9822C10.2883 19.3964 9.95252 19.7322 9.53831 19.7322H4.75C4.33579 19.7322 4 19.3964 4 18.9822L4.00001 18.9781L4.00001 14.1938C4.00001 13.7796 4.3358 13.4438 4.75001 13.4438Z" fill="#161721"/>
</svg>
