<svg width="24" height="24" viewBox="0 0 24 24" fill="none" xmlns="http://www.w3.org/2000/svg">
<path fill-rule="evenodd" clip-rule="evenodd" d="M3.5 12C3.5 7.30558 7.30558 3.5 12 3.5C16.6944 3.5 20.5 7.30558 20.5 12C20.5 16.6944 16.6944 20.5 12 20.5C7.30558 20.5 3.5 16.6944 3.5 12ZM12 2C6.47715 2 2 6.47715 2 12C2 17.5228 6.47715 22 12 22C17.5228 22 22 17.5228 22 12C22 6.47715 17.5228 2 12 2ZM12.8405 12.8405L14.2429 9.75716L11.1595 11.1595L9.75717 14.2429L12.8405 12.8405ZM15.7049 10.1657C16.2353 8.97749 15.0225 7.76468 13.8343 8.29515L13.8343 8.29513L13.8295 8.2973L10.5095 9.8073L10.5095 9.80727L10.5028 9.81037C10.1932 9.95487 9.95487 10.1932 9.81037 10.5028L9.81034 10.5028L9.8073 10.5095L8.29833 13.8273C7.74802 15.0192 8.98078 16.252 10.1728 15.7017L13.4905 14.1927L13.4905 14.1927L13.4972 14.1896C13.8068 14.0451 14.0451 13.8068 14.1896 13.4972L14.1897 13.4972L14.1927 13.4905L15.7027 10.1705L15.7027 10.1705L15.7049 10.1657Z" fill="#161721"/>
</svg>
