<svg width="20" height="20" viewBox="0 0 20 20" fill="none" xmlns="http://www.w3.org/2000/svg">
<path fill-rule="evenodd" clip-rule="evenodd" d="M9.9999 18.832C14.8777 18.832 18.8319 14.8778 18.8319 9.99999C18.8319 5.12221 14.8777 1.16799 9.9999 1.16799C5.12212 1.16799 1.1679 5.12221 1.1679 9.99999C1.1679 14.8778 5.12212 18.832 9.9999 18.832ZM9.9999 19.6C15.3018 19.6 19.5999 15.3019 19.5999 9.99999C19.5999 4.69806 15.3018 0.399994 9.9999 0.399994C4.69797 0.399994 0.399902 4.69806 0.399902 9.99999C0.399902 15.3019 4.69797 19.6 9.9999 19.6ZM14.0962 6.99006L9.7354 8.93335L11.3402 10.8885L14.0962 6.99006ZM15.5302 6.29202C15.7555 5.97331 15.4168 5.56073 15.0603 5.71961L8.96269 8.43689C8.85569 8.48457 8.78323 8.57327 8.75211 8.67422C8.64707 8.68511 8.54601 8.73888 8.47842 8.83449L4.6248 14.2856C4.39949 14.6043 4.73815 15.0169 5.09466 14.858L11.1923 12.1407C11.2993 12.093 11.3718 12.0043 11.4029 11.9034C11.5079 11.8925 11.609 11.8387 11.6766 11.7431L15.5302 6.29202ZM10.4196 11.6443L6.05881 13.5875L8.81476 9.68914L10.4196 11.6443Z" fill="#0C2739"/>
</svg>
