<svg width="20" height="20" viewBox="0 0 20 20" fill="none" xmlns="http://www.w3.org/2000/svg">
<path d="M9.95785 7.93676C10.9219 7.93676 11.7065 8.73409 11.7065 9.71276C11.7065 10.6927 10.9219 11.4893 9.95785 11.4893C8.99359 11.4893 8.20977 10.6927 8.20977 9.71276C8.20977 8.73409 8.99359 7.93676 9.95785 7.93676ZM9.95785 6.98157C8.46719 6.98157 7.25439 8.20681 7.25439 9.71276C7.25439 11.2192 8.46719 12.4445 9.95785 12.4445C11.4489 12.4445 12.6617 11.2191 12.6617 9.71276C12.6617 8.20663 11.4489 6.98157 9.95785 6.98157Z" fill="#0C2739"/>
<path d="M10.0057 5.9552C10.4576 5.9552 10.9127 6.00444 11.3563 6.10097C12.6754 6.38808 14.0421 7.10399 15.4181 8.22701C16.0917 8.77616 16.5906 9.2574 16.9879 9.74149L17.0185 9.77491C17.0267 9.78327 17.0331 9.7966 17.0364 9.81189L17.032 9.86718C17.0286 9.87571 17.0242 9.88318 17.0185 9.88905L16.9888 9.92176C16.8404 10.1033 16.6711 10.2775 16.5131 10.4394C15.5353 11.4329 14.4983 12.2206 13.4313 12.7802C12.6294 13.1987 11.8932 13.4661 11.1787 13.5978C10.7803 13.6705 10.3821 13.7072 9.98652 13.7072C9.53017 13.7072 9.07755 13.6586 8.63204 13.5612C7.31258 13.2741 5.94583 12.5587 4.56983 11.4355C3.89766 10.888 3.39953 10.4074 2.99971 9.92176C2.94211 9.85171 2.94211 9.81136 3.00024 9.74078C3.13731 9.57296 3.28984 9.41243 3.47651 9.22327C4.45126 8.23128 5.48787 7.44372 6.55756 6.88319C7.36058 6.46364 8.09657 6.19626 8.80999 6.06613C9.20999 5.99271 9.61195 5.9552 10.0057 5.9552ZM10.0057 5C9.55559 5 9.09568 5.04249 8.63773 5.1264C7.83098 5.27342 7.00538 5.57102 6.11525 6.03626C4.95721 6.64337 3.84059 7.48994 2.79491 8.55376C2.591 8.76034 2.42122 8.93936 2.25998 9.13669C1.91313 9.55696 1.91278 10.105 2.26229 10.5292C2.70353 11.0654 3.24504 11.589 3.96646 12.1763C5.45925 13.395 6.96076 14.1754 8.42848 14.4949C8.93782 14.606 9.46208 14.6625 9.98617 14.6625C10.4379 14.6625 10.8969 14.6206 11.3502 14.5377C12.1604 14.3886 12.9853 14.0906 13.8731 13.6272C15.0297 13.0204 16.1463 12.1738 17.1936 11.1093C17.374 10.9251 17.5477 10.7449 17.7104 10.5479L17.7196 10.5378C17.8064 10.4442 17.8743 10.336 17.9214 10.2153L17.9724 10.0844L17.9838 9.94451L17.9883 9.88922L18 9.74682L17.9694 9.60709C17.9296 9.42594 17.8437 9.2606 17.7207 9.12745L17.7102 9.11572C17.2745 8.58861 16.7374 8.07039 16.0219 7.48675C14.528 6.26737 13.0265 5.48675 11.5595 5.16747C11.0479 5.05636 10.5254 5 10.0057 5Z" fill="#0C2739"/>
</svg>
