<svg width="24" height="24" viewBox="0 0 24 24" fill="none" xmlns="http://www.w3.org/2000/svg">
<path fill-rule="evenodd" clip-rule="evenodd" d="M2.64571 8.05208C4.90298 5.33206 8.24214 3.56 12 3.56C15.7573 3.56 19.0864 5.32157 21.3539 8.0516L21.3545 8.05234C23.2143 10.2973 23.2151 13.7017 21.3552 15.9469L21.3547 15.9474C19.0975 18.6674 15.7579 20.44 12 20.44C8.24269 20.44 4.91361 18.6784 2.64611 15.9484L2.64549 15.9477C0.785694 13.7026 0.785429 10.2977 2.64529 8.05258L2.64571 8.05208ZM3.80018 9.00978C2.40053 10.6997 2.40067 13.3005 3.8004 14.9905C5.81046 17.4103 8.73033 18.94 12 18.94C15.2699 18.94 18.2003 17.3996 20.2004 14.9895C21.5999 13.2996 21.5994 10.6992 20.1994 9.00925C18.1894 6.5896 15.2696 5.06 12 5.06C8.73021 5.06 5.80025 6.59982 3.80018 9.00978Z" fill="#161721"/>
<path fill-rule="evenodd" clip-rule="evenodd" d="M12 9.67C10.7132 9.67 9.67001 10.7132 9.67001 12C9.67001 13.2868 10.7132 14.33 12 14.33C13.2868 14.33 14.33 13.2868 14.33 12C14.33 10.7132 13.2868 9.67 12 9.67ZM8.17001 12C8.17001 9.88475 9.88474 8.17 12 8.17C14.1153 8.17 15.83 9.88475 15.83 12C15.83 14.1152 14.1153 15.83 12 15.83C9.88474 15.83 8.17001 14.1152 8.17001 12Z" fill="#161721"/>
</svg>
