<svg width="20" height="20" viewBox="0 0 20 20" fill="none" xmlns="http://www.w3.org/2000/svg">
<path fill-rule="evenodd" clip-rule="evenodd" d="M8.74999 17.9027C4.9275 17.3019 2 13.9901 2 10C2 5.58469 5.58469 2 10 2C14.4153 2 18 5.58469 18 10C18 13.9901 15.0725 17.3019 11.25 17.9027V12.3125H13.1141L13.4688 10H11.25V8.49934C11.25 7.8667 11.56 7.25001 12.5537 7.25001H13.5625V5.28123C13.5625 5.28123 12.647 5.12498 11.7717 5.12498C9.94432 5.12498 8.74999 6.2325 8.74999 8.23749V10H6.71872V12.3125H8.74999V17.9027ZM9.29509 17.9848L9.30501 17.9857L9.30101 17.9854L9.29509 17.9848ZM10.7332 17.9854L10.7292 17.9857L10.7392 17.9848L10.7332 17.9854ZM10.6843 17.9896L10.6741 17.9904L10.6885 17.9892L10.6843 17.9896ZM9.34576 17.9892L9.36016 17.9904L9.35 17.9896L9.34576 17.9892ZM9.36782 17.9911L9.38486 17.9925L9.37686 17.9919L9.36782 17.9911ZM10.6574 17.9919L10.6494 17.9925L10.6665 17.9911L10.6574 17.9919ZM10.6304 17.9938L10.6264 17.9941L10.6431 17.9928L10.6304 17.9938ZM9.39116 17.9928L9.40788 17.9941L9.4038 17.9938L9.39116 17.9928ZM10.6091 17.9957L10.5944 17.9967L10.6134 17.9954L10.6091 17.9957ZM9.42088 17.9954L9.43992 17.9967L9.42512 17.9957L9.42088 17.9954ZM10.5818 17.9973L10.5705 17.9981L10.5913 17.9966L10.5818 17.9973ZM9.44293 17.9966L9.46373 17.9981L9.45237 17.9973L9.44293 17.9966ZM9.46541 17.9983L9.48661 17.9997L9.47989 17.9993L9.46541 17.9983ZM10.5543 17.9993L10.5477 17.9997L10.5688 17.9983L10.5543 17.9993ZM10.5306 18.0009L10.512 18.0021L10.5319 18.0009L10.5493 17.9998L10.5306 18.0009ZM9.50237 18.0009L9.52229 18.0021L9.50373 18.0009L9.48501 17.9998L9.50237 18.0009ZM10.5063 18.0026L10.4925 18.0032L10.5146 18.002L10.5063 18.0026ZM9.51964 18.002L9.5418 18.0032L9.52796 18.0026L9.51964 18.002ZM9.5422 18.0033L9.56436 18.0046L9.55564 18.0041L9.5422 18.0033ZM10.4786 18.0041L10.4699 18.0046L10.492 18.0033L10.4786 18.0041ZM9.58208 18.0054L9.59968 18.0063L9.57984 18.0053L9.56144 18.0042L9.58208 18.0054ZM10.4543 18.0053L10.4346 18.0063L10.4521 18.0054L10.4728 18.0042L10.4543 18.0053ZM10.4304 18.0067L10.4151 18.0074L10.4369 18.0064L10.4304 18.0067ZM9.5974 18.0064L9.61908 18.0074L9.6038 18.0067L9.5974 18.0064ZM10.4027 18.008L10.3926 18.0084L10.4141 18.0074L10.4027 18.008ZM9.62017 18.0074L9.64177 18.0084L9.63153 18.008L9.62017 18.0074ZM10.3752 18.0091L10.37 18.0093L10.3908 18.0084L10.3752 18.0091ZM9.64345 18.0084L9.66417 18.0093L9.65905 18.0091L9.64345 18.0084ZM10.3541 18.0103L10.339 18.0109L10.3583 18.0101L10.3541 18.0103ZM9.67596 18.0101L9.69524 18.0109L9.68012 18.0103L9.67596 18.0101ZM10.3266 18.0111L10.3156 18.0115L10.3355 18.0108L10.3266 18.0111ZM9.69881 18.0108L9.71857 18.0115L9.70761 18.0111L9.69881 18.0108ZM9.72238 18.0119L9.74126 18.0124L9.7351 18.0123L9.72238 18.0119ZM10.2991 18.0123L10.293 18.0124L10.3118 18.0119L10.2991 18.0123ZM10.2751 18.0131L10.2635 18.0135L10.2758 18.0131L10.2857 18.0128L10.2751 18.0131ZM9.75847 18.0131L9.77079 18.0135L9.75919 18.0131L9.74855 18.0128L9.75847 18.0131ZM9.77778 18.0135L9.79506 18.014L9.7841 18.0137L9.77778 18.0135ZM10.2502 18.0137L10.2392 18.014L10.2565 18.0135L10.2502 18.0137ZM10.2227 18.0145L10.2159 18.0146L10.2328 18.0142L10.2227 18.0145ZM9.8014 18.0142L9.81836 18.0146L9.81148 18.0145L9.8014 18.0142ZM10.1961 18.0152L10.1939 18.0153L10.2061 18.0149L10.1961 18.0152ZM9.82808 18.0149L9.8404 18.0153L9.83824 18.0152L9.82808 18.0149ZM9.85706 18.0156L9.8709 18.0159L9.86098 18.0157L9.85706 18.0156ZM10.1732 18.0157L10.1633 18.0159L10.1772 18.0156L10.1732 18.0157ZM9.88037 18.016L9.89541 18.0162L9.88805 18.0161L9.88037 18.016ZM10.1462 18.0161L10.1388 18.0162L10.1538 18.016L10.1462 18.0161ZM9.90601 18.0163L9.91825 18.0165L9.91505 18.0164L9.90601 18.0163ZM10.1192 18.0164L10.116 18.0165L10.1282 18.0163L10.1192 18.0164ZM10.0958 18.0167H10.0886H10.0976H10.0958ZM9.93661 18.0167H9.94565H9.93845H9.93661ZM10.0693 18.0171H10.0615H10.075H10.0693ZM9.95926 18.0171H9.97278H9.96494H9.95926ZM10.0422 18.0171H10.0378H10.0504H10.0422ZM9.98386 18.0171H9.99642H9.9921H9.98386Z" fill="#0C2739"/>
</svg>
