<svg width="51" height="50" viewBox="0 0 51 50" fill="none" xmlns="http://www.w3.org/2000/svg">
<path fill-rule="evenodd" clip-rule="evenodd" d="M15.3958 7.29166C13.9628 7.29166 12.2436 8.80677 11.9901 11.4655C11.9692 11.6846 11.9583 11.9114 11.9583 12.1458V37.8333C11.9583 40.8779 13.8503 42.6875 15.3958 42.6875H35.375C36.9406 42.6875 38.8125 40.8997 38.8125 37.8333V19.25H29.5625C28.6995 19.25 28 18.5504 28 17.6875V8.01549V7.29166H15.3958ZM37.683 15.4172C37.8502 15.6328 38.002 15.8699 38.1362 16.125H31.125V7.81358C31.3932 8.00584 31.6516 8.2541 31.8913 8.56305L37.683 15.4172ZM8.83331 12.1458C8.83331 8.09986 11.447 4.16666 15.3958 4.16666H29.5833C31.4674 4.16666 33.1698 5.11356 34.3586 6.64524L40.1503 13.4994C41.3258 15.0145 41.9375 16.9887 41.9375 19V37.8333C41.9375 41.8503 39.351 45.8125 35.375 45.8125H15.3958C11.4414 45.8125 8.83331 41.8305 8.83331 37.8333V12.1458ZM22.4382 34.4383C24.1292 32.7473 26.8708 32.7473 28.5618 34.4383C29.172 35.0485 30.1613 35.0485 30.7715 34.4383C31.3817 33.8281 31.3817 32.8388 30.7715 32.2286C27.8601 29.3172 23.1398 29.3172 20.2285 32.2286C19.6183 32.8388 19.6183 33.8281 20.2285 34.4383C20.8387 35.0485 21.828 35.0485 22.4382 34.4383ZM23.4166 25C23.4166 26.1506 22.4839 27.0833 21.3333 27.0833C20.1827 27.0833 19.25 26.1506 19.25 25C19.25 23.8494 20.1827 22.9167 21.3333 22.9167C22.4839 22.9167 23.4166 23.8494 23.4166 25ZM29.6666 27.0833C30.8172 27.0833 31.75 26.1506 31.75 25C31.75 23.8494 30.8172 22.9167 29.6666 22.9167C28.5161 22.9167 27.5833 23.8494 27.5833 25C27.5833 26.1506 28.5161 27.0833 29.6666 27.0833Z" fill="white"/>
</svg>
