<?xml version="1.0" encoding="utf-8"?>
<!-- Generator: Adobe Illustrator 26.0.2, SVG Export Plug-In . SVG Version: 6.00 Build 0)  -->
<svg version="1.1" id="Layer_1" xmlns="http://www.w3.org/2000/svg" xmlns:xlink="http://www.w3.org/1999/xlink" x="0px" y="0px"
	 viewBox="0 0 24 24" style="enable-background:new 0 0 24 24;" xml:space="preserve">
<style type="text/css">
	.st0{fill-rule:evenodd;clip-rule:evenodd;fill:#0C2739;}
	.st1{fill:#0C2739;}
</style>
<path class="st0" d="M5,2.6c0.5-0.5,1.1-0.7,1.8-0.7h7c0.1,0,0.3,0.1,0.4,0.2l5.8,7c0.1,0.1,0.1,0.2,0.1,0.3v9.8
	c0,0.7-0.3,1.3-0.7,1.8c-0.5,0.5-1.1,0.7-1.8,0.7H6.8c-0.7,0-1.3-0.3-1.8-0.7c-0.5-0.5-0.7-1.1-0.7-1.8V4.4C4.3,3.7,4.6,3.1,5,2.6z
	 M6.8,2.9C6.4,2.9,6,3.1,5.7,3.3C5.5,3.6,5.3,4,5.3,4.4v14.8c0,0.4,0.2,0.8,0.4,1.1c0.3,0.3,0.7,0.4,1.1,0.4h10.8
	c0.4,0,0.8-0.2,1.1-0.4c0.3-0.3,0.4-0.7,0.4-1.1V9.6l-5.5-6.7H6.8z"/>
<path class="st0" d="M13.8,1.9c0.3,0,0.5,0.2,0.5,0.5v6.5h5.3c0.3,0,0.5,0.2,0.5,0.5c0,0.3-0.2,0.5-0.5,0.5h-5.8
	c-0.3,0-0.5-0.2-0.5-0.5v-7C13.3,2.1,13.5,1.9,13.8,1.9z"/>
<g>
	<path class="st1" d="M8.6,17.6v1.2H7.4v-1.2H8.6z"/>
	<path class="st1" d="M11,17.6v1.2H9.8v-1.2H11z"/>
	<path class="st1" d="M13.4,17.6v1.2h-1.2v-1.2H13.4z"/>
	<path class="st1" d="M13.7,19.4l2.6-8.1h0.9l-2.6,8.1H13.7z"/>
</g>
</svg>
