<svg width="20" height="20" viewBox="0 0 20 20" fill="none" xmlns="http://www.w3.org/2000/svg">
<path fill-rule="evenodd" clip-rule="evenodd" d="M15.7887 6.30175L11.5796 2.09262C11.5202 2.03331 11.4398 2 11.3559 2H5.4249C4.70462 2 4.11865 2.58597 4.11865 3.30625V16.6938C4.11865 17.414 4.70462 18 5.4249 18H14.575C15.2953 18 15.8813 17.414 15.8813 16.6938V6.52534C15.8813 6.4415 15.848 6.36103 15.7887 6.30175ZM11.6722 5.53525V3.07969L14.8017 6.20906H12.346C11.9744 6.20906 11.6722 5.90681 11.6722 5.53525ZM15.2488 16.6938C15.2488 17.0653 14.9466 17.3676 14.575 17.3676H5.4249C5.05337 17.3676 4.75109 17.0653 4.75109 16.6938V3.30625C4.75109 2.93472 5.05337 2.63244 5.4249 2.63244H11.0397V5.53531C11.0397 6.25559 11.6257 6.84156 12.3459 6.84156H15.2488V16.6938ZM12.5296 10.0312H7.47027C7.29565 10.0312 7.15405 10.1728 7.15405 10.3475C7.15405 10.5221 7.29565 10.6637 7.47027 10.6637H12.5296C12.7043 10.6637 12.8458 10.5221 12.8458 10.3475C12.8458 10.1728 12.7043 10.0312 12.5296 10.0312ZM7.47027 11.4438H12.5296C12.7043 11.4438 12.8458 11.5854 12.8458 11.7601C12.8458 11.9347 12.7043 12.0763 12.5296 12.0763H7.47027C7.29565 12.0763 7.15405 11.9347 7.15405 11.7601C7.15405 11.5854 7.29565 11.4438 7.47027 11.4438ZM12.5296 12.8564H7.47027C7.29565 12.8564 7.15405 12.998 7.15405 13.1727C7.15405 13.3473 7.29565 13.4889 7.47027 13.4889H12.5296C12.7043 13.4889 12.8458 13.3473 12.8458 13.1727C12.8458 12.998 12.7043 12.8564 12.5296 12.8564ZM7.47027 14.2686H10.8853C11.06 14.2686 11.2015 14.4101 11.2015 14.5848C11.2015 14.7594 11.06 14.901 10.8853 14.901H7.47027C7.29565 14.901 7.15405 14.7594 7.15405 14.5848C7.15405 14.4101 7.29565 14.2686 7.47027 14.2686Z" fill="#0C2739"/>
</svg>
