<svg width="24" height="24" viewBox="0 0 24 24" fill="none" xmlns="http://www.w3.org/2000/svg">
<path fill-rule="evenodd" clip-rule="evenodd" d="M5.51527 5.50345C5.63692 4.22726 6.46213 3.5 7.15 3.5H13.2V3.84744V8.48999C13.2 8.9042 13.5358 9.23999 13.95 9.23999H18.39V18.16C18.39 19.6319 17.4915 20.49 16.74 20.49H7.15C6.40813 20.49 5.5 19.6214 5.5 18.16V5.82999C5.5 5.71748 5.50525 5.60861 5.51527 5.50345ZM18.0654 7.73999C18.0009 7.61754 17.9281 7.50376 17.8478 7.40028L15.0678 4.11027C14.9528 3.96197 14.8287 3.84281 14.7 3.75052V7.73999H18.0654ZM7.15 2C5.25455 2 4 3.88794 4 5.82999V18.16C4 20.0786 5.25187 21.99 7.15 21.99H16.74C18.6485 21.99 19.89 20.0881 19.89 18.16V9.12C19.89 8.15456 19.5964 7.20697 19.0322 6.47973L16.2522 3.18972C15.6815 2.45452 14.8644 2 13.96 2H7.15Z" fill="#161721"/>
</svg>
