<svg width="24" height="24" viewBox="0 0 24 24" fill="none" xmlns="http://www.w3.org/2000/svg">
	<path fill="currentColor" d="M12,11.2c-0.5,0-0.8,0.3-0.8,0.8v1.5H9.8c-0.4,0-0.8,0.3-0.8,0.8S9.3,15,9.8,15h1.5v1.5c0,0.4,0.3,0.8,0.8,0.8
	s0.8-0.3,0.8-0.8V15h1.5c0.4,0,0.8-0.3,0.8-0.8s-0.3-0.8-0.8-0.8h-1.5c0,0,0-1.1,0-1.4C12.9,11.4,12.5,11.2,12,11.2z"/>
<path fill="currentColor" d="M19,6.5l-2.8-3.3C15.7,2.5,14.9,2,14,2H7.2C5.3,2,4,3.9,4,5.8v12.3c0,2,1.3,3.9,3.2,3.9h9.6
	c1.9,0,3.2-1.9,3.2-3.8v-9C19.9,8.2,19.6,7.2,19,6.5z M14.7,3.8c0.1,0,0.3,0.2,0.4,0.3l2.8,3.3c0.1,0.1,0.2,0.2,0.2,0.3h-3.4
	C14.7,7.7,14.7,3.8,14.7,3.8z M18.4,18.2c0,1.5-0.9,2.3-1.7,2.3H7.2c-0.7,0-1.7-0.9-1.7-2.3V5.8c0-0.1,0-0.2,0-0.3
	c0.1-1.3,0.9-2,1.6-2h6v5c0,0.4,0.3,0.8,0.8,0.8h4.5V18.2z"/>
</svg>
