<svg width="24" height="24" viewBox="0 0 24 24" fill="none" xmlns="http://www.w3.org/2000/svg">
<path fill-rule="evenodd" clip-rule="evenodd" d="M5.03228 2.63223C5.50112 2.16339 6.13701 1.89999 6.80005 1.89999H13.8C13.9489 1.89999 14.0901 1.96634 14.1851 2.08098L19.9851 9.08098C20.0594 9.17068 20.1 9.28351 20.1 9.39999V19.2C20.1 19.863 19.8367 20.4989 19.3678 20.9678C18.899 21.4366 18.2631 21.7 17.6 21.7H6.80005C6.13701 21.7 5.50112 21.4366 5.03228 20.9678C4.56344 20.4989 4.30005 19.863 4.30005 19.2V4.39999C4.30005 3.73695 4.56344 3.10107 5.03228 2.63223ZM6.80005 2.89999C6.40222 2.89999 6.02069 3.05803 5.73939 3.33933C5.45808 3.62064 5.30005 4.00217 5.30005 4.39999V19.2C5.30005 19.5978 5.45808 19.9793 5.73939 20.2607C6.02069 20.542 6.40222 20.7 6.80005 20.7H17.6C17.9979 20.7 18.3794 20.542 18.6607 20.2607C18.942 19.9793 19.1 19.5978 19.1 19.2V9.58022L13.565 2.89999H6.80005Z" fill="#0C2739"/>
<path fill-rule="evenodd" clip-rule="evenodd" d="M13.8 1.89999C14.0762 1.89999 14.3 2.12385 14.3 2.39999V8.89999H19.6C19.8762 8.89999 20.1 9.12385 20.1 9.39999C20.1 9.67614 19.8762 9.89999 19.6 9.89999H13.8C13.5239 9.89999 13.3 9.67614 13.3 9.39999V2.39999C13.3 2.12385 13.5239 1.89999 13.8 1.89999Z" fill="#0C2739"/>
</svg>
