<svg width="24" height="24" viewBox="0 0 24 24" fill="none" xmlns="http://www.w3.org/2000/svg">
<path fill-rule="evenodd" clip-rule="evenodd" d="M5.03228 2.63223C5.50112 2.16339 6.13701 1.9 6.80005 1.9H13.8C13.9489 1.9 14.0901 1.96635 14.1851 2.08099L19.9851 9.08099C20.0594 9.17069 20.1 9.28352 20.1 9.4V19.2C20.1 19.863 19.8367 20.4989 19.3678 20.9678C18.899 21.4366 18.2631 21.7 17.6 21.7H6.80005C6.13701 21.7 5.50112 21.4366 5.03228 20.9678C4.56344 20.4989 4.30005 19.863 4.30005 19.2V4.4C4.30005 3.73696 4.56344 3.10108 5.03228 2.63223ZM6.80005 2.9C6.40222 2.9 6.02069 3.05804 5.73939 3.33934C5.45808 3.62065 5.30005 4.00218 5.30005 4.4V19.2C5.30005 19.5978 5.45808 19.9794 5.73939 20.2607C6.02069 20.542 6.40222 20.7 6.80005 20.7H17.6C17.9979 20.7 18.3794 20.542 18.6607 20.2607C18.942 19.9794 19.1 19.5978 19.1 19.2V9.58023L13.565 2.9H6.80005Z" fill="#0C2739"/>
<path fill-rule="evenodd" clip-rule="evenodd" d="M13.8 1.9C14.0762 1.9 14.3 2.12386 14.3 2.4V8.9H19.6C19.8762 8.9 20.1 9.12386 20.1 9.4C20.1 9.67614 19.8762 9.9 19.6 9.9H13.8C13.5239 9.9 13.3 9.67614 13.3 9.4V2.4C13.3 2.12386 13.5239 1.9 13.8 1.9Z" fill="#0C2739"/>
<path d="M11.9998 9.5V18.5" stroke="#0C2739" stroke-width="0.95" stroke-linecap="round" stroke-linejoin="round"/>
<path d="M16.5002 14L7.50024 14" stroke="#0C2739" stroke-width="0.95" stroke-linecap="round" stroke-linejoin="round"/>
</svg>
