<svg xmlns="http://www.w3.org/2000/svg" width="15.8" height="19.8" viewBox="0 0 15.8 19.8"><path d="M5,2.63A2.51,2.51,0,0,1,6.8,1.9h7a.53.53,0,0,1,.39.18l5.8,7a.52.52,0,0,1,.11.32v9.8a2.49,2.49,0,0,1-2.5,2.5H6.8a2.49,2.49,0,0,1-2.5-2.5V4.4A2.51,2.51,0,0,1,5,2.63ZM6.8,2.9A1.5,1.5,0,0,0,5.3,4.4V19.2a1.5,1.5,0,0,0,1.5,1.5H17.6a1.5,1.5,0,0,0,1.5-1.5V9.58L13.56,2.9Z" transform="translate(-4.3 -1.9)" style="fill:#0c2739;fill-rule:evenodd"/><path d="M13.8,1.9a.5.5,0,0,1,.5.5V8.9h5.3a.5.5,0,0,1,0,1H13.8a.5.5,0,0,1-.5-.5v-7A.5.5,0,0,1,13.8,1.9Z" transform="translate(-4.3 -1.9)" style="fill:#0c2739;fill-rule:evenodd"/><path d="M8.58,17.62v1.2H7.38v-1.2Z" transform="translate(-4.3 -1.9)" style="fill:#0c2739"/><path d="M11,17.62v1.2H9.78v-1.2Z" transform="translate(-4.3 -1.9)" style="fill:#0c2739"/><path d="M13.38,17.62v1.2h-1.2v-1.2Z" transform="translate(-4.3 -1.9)" style="fill:#0c2739"/><path d="M14.4,19.39,17,11.31h.9l-2.6,8.08Z" transform="translate(-4.3 -1.9)" style="fill:#0c2739"/></svg>