<svg width="24" height="24" viewBox="0 0 24 24" fill="none" xmlns="http://www.w3.org/2000/svg">
<path fill-rule="evenodd" clip-rule="evenodd" d="M1.25 6C1.25 5.58579 1.58579 5.25 2 5.25H22C22.4142 5.25 22.75 5.58579 22.75 6C22.75 6.41421 22.4142 6.75 22 6.75H2C1.58579 6.75 1.25 6.41421 1.25 6ZM8.25 18C8.25 17.5858 8.51509 17.25 8.84211 17.25H15.1579C15.4849 17.25 15.75 17.5858 15.75 18C15.75 18.4142 15.4849 18.75 15.1579 18.75H8.84211C8.51509 18.75 8.25 18.4142 8.25 18ZM5.22581 11.25C4.82495 11.25 4.5 11.5858 4.5 12C4.5 12.4142 4.82495 12.75 5.22581 12.75H18.7742C19.175 12.75 19.5 12.4142 19.5 12C19.5 11.5858 19.175 11.25 18.7742 11.25H5.22581Z" fill="#161721"/>
</svg>
