<svg width="24" height="24" viewBox="0 0 24 24" fill="none" xmlns="http://www.w3.org/2000/svg">
<path fill-rule="evenodd" clip-rule="evenodd" d="M2.3999 6.7002C2.3999 6.42405 2.62376 6.2002 2.8999 6.2002H21.0999C21.376 6.2002 21.5999 6.42405 21.5999 6.7002C21.5999 6.97634 21.376 7.2002 21.0999 7.2002H2.8999C2.62376 7.2002 2.3999 6.97634 2.3999 6.7002ZM7.2002 11.5002C7.2002 11.2241 7.42405 11.0002 7.7002 11.0002H16.3002C16.5763 11.0002 16.8002 11.2241 16.8002 11.5002C16.8002 11.7763 16.5763 12.0002 16.3002 12.0002H7.7002C7.42405 12.0002 7.2002 11.7763 7.2002 11.5002ZM10.1001 15.8002C9.82396 15.8002 9.6001 16.0241 9.6001 16.3002C9.6001 16.5763 9.82396 16.8002 10.1001 16.8002H13.9001C14.1762 16.8002 14.4001 16.5763 14.4001 16.3002C14.4001 16.0241 14.1762 15.8002 13.9001 15.8002H10.1001Z" fill="#898989"/>
</svg>
