<svg width="24" height="24" viewBox="0 0 24 24" fill="none" xmlns="http://www.w3.org/2000/svg">
<path fill-rule="evenodd" clip-rule="evenodd" d="M4.37 3.78C4.37 3.62421 4.49421 3.5 4.64999 3.5H10.82C10.9758 3.5 11.1 3.62421 11.1 3.78V4.54515C11.1 4.54676 11.1 4.54837 11.1 4.54999V13.033C11.0984 13.1874 10.9748 13.31 10.82 13.31H4.64999C4.52029 13.31 4.41247 13.2239 4.38 13.1052V10.97C4.38 10.9281 4.37658 10.8871 4.37 10.8471V3.78ZM2.88 13.2202C2.87339 13.1577 2.87 13.0943 2.87 13.03V3.78C2.87 2.79579 3.66578 2 4.64999 2H10.82C11.8042 2 12.6 2.79579 12.6 3.78V3.79999H19.24C20.0103 3.79999 20.6625 4.20491 20.9598 4.81766C21.2677 5.45237 21.1479 6.23443 20.5258 6.76141L20.5241 6.76283L17.5162 9.33102C16.8579 9.89155 16.8579 10.7584 17.5162 11.3189L17.5181 11.3205L20.5281 13.9005C21.1443 14.43 21.2695 15.21 20.9593 15.8471C20.6606 16.4606 20.0069 16.86 19.24 16.86H11.85C11.4358 16.86 11.1 16.5242 11.1 16.11V14.7882C11.0088 14.8025 10.9153 14.81 10.82 14.81H4.64999C4.55819 14.81 4.46803 14.8031 4.38 14.7897V21.25C4.38 21.6642 4.04422 22 3.63 22C3.21579 22 2.88 21.6642 2.88 21.25V13.2202ZM12.6 13.0375V15.36H19.24C19.4831 15.36 19.5844 15.2444 19.6107 15.1904C19.6246 15.1617 19.6237 15.1433 19.6217 15.1334C19.6203 15.127 19.6127 15.0918 19.5516 15.0392L16.5437 12.461L16.5428 12.4602C15.1821 11.3008 15.1824 9.3484 16.5435 8.18917L19.5559 5.61713C19.6141 5.56797 19.6207 5.53561 19.6217 5.53045C19.6235 5.52163 19.6248 5.50256 19.6102 5.47232C19.5824 5.41507 19.4797 5.29999 19.24 5.29999H12.6V13.03C12.6 13.0325 12.6 13.035 12.6 13.0375Z" fill="#161721"/>
</svg>
