<svg width="24" height="24" viewBox="0 0 24 24" fill="none" xmlns="http://www.w3.org/2000/svg">
<path d="M11.25 22C11.11 22 10.97 21.98 10.83 21.93C10.25 21.75 9.88001 21.25 9.88001 20.66V15.02C9.87001 14.79 9.65001 14.59 9.38001 14.59L5.35001 14.54C4.83001 14.53 4.37001 14.25 4.14001 13.8C3.92001 13.37 3.96001 12.85 4.23001 12.45L10.98 2.60001C11.33 2.10001 11.95 1.88001 12.54 2.07001C13.12 2.25001 13.49 2.75001 13.49 3.34001V8.98001C13.5 9.21001 13.72 9.41001 13.99 9.41001L18.02 9.46001C18.51 9.46001 18.97 9.73001 19.21 10.17C19.44 10.6 19.42 11.12 19.15 11.53L12.4 21.4C12.13 21.78 11.71 22 11.26 22H11.25ZM5.65001 13.04L9.40001 13.09C10.49 13.11 11.37 13.97 11.37 15.02V20.22L17.72 10.95L13.97 10.9C12.88 10.88 12 10.02 12 8.97001V3.78001L5.65001 13.04Z" fill="#161721"/>
</svg>
