<svg width="14" height="12" viewBox="0 0 14 12" fill="none" xmlns="http://www.w3.org/2000/svg">
<path fill-rule="evenodd" clip-rule="evenodd" d="M4.77778 0.333344C4.34822 0.333344 4 0.681567 4 1.11112V3.77779C4 4.20734 4.34822 4.55557 4.77778 4.55557H6.66667V5.66668H3.88889C3.21387 5.66668 2.66667 6.21388 2.66667 6.8889V7.44446H0.777778C0.348223 7.44446 0 7.79268 0 8.22223V10.8889C0 11.3185 0.348223 11.6667 0.777778 11.6667H5.22222C5.65178 11.6667 6 11.3185 6 10.8889V8.22223C6 7.79268 5.65178 7.44446 5.22222 7.44446H3.33333V6.8889C3.33333 6.58208 3.58206 6.33334 3.88889 6.33334H7H10.1111C10.4179 6.33334 10.6667 6.58208 10.6667 6.8889V7.44446H8.77778C8.34822 7.44446 8 7.79268 8 8.22223V10.8889C8 11.3185 8.34822 11.6667 8.77778 11.6667H13.2222C13.6518 11.6667 14 11.3185 14 10.8889V8.22223C14 7.79268 13.6518 7.44446 13.2222 7.44446H11.3333V6.8889C11.3333 6.21388 10.7861 5.66668 10.1111 5.66668H7.33333V4.55557H9.22222C9.65178 4.55557 10 4.20734 10 3.77779V1.11112C10 0.681567 9.65178 0.333344 9.22222 0.333344H4.77778ZM4.66667 1.11112C4.66667 1.04976 4.71641 1.00001 4.77778 1.00001H9.22222C9.28359 1.00001 9.33333 1.04976 9.33333 1.11112V3.77779C9.33333 3.83915 9.28359 3.8889 9.22222 3.8889H4.77778C4.71641 3.8889 4.66667 3.83915 4.66667 3.77779V1.11112ZM0.666667 8.22223C0.666667 8.16087 0.716413 8.11112 0.777778 8.11112H5.22222C5.28359 8.11112 5.33333 8.16087 5.33333 8.22223V10.8889C5.33333 10.9503 5.28359 11 5.22222 11H0.777778C0.716413 11 0.666667 10.9503 0.666667 10.8889V8.22223ZM8.77778 8.11112C8.71641 8.11112 8.66667 8.16087 8.66667 8.22223V10.8889C8.66667 10.9503 8.71641 11 8.77778 11H13.2222C13.2836 11 13.3333 10.9503 13.3333 10.8889V8.22223C13.3333 8.16087 13.2836 8.11112 13.2222 8.11112H8.77778Z" fill="#0C2739"/>
</svg>
