<svg width="24" height="24" viewBox="0 0 24 24" fill="none" xmlns="http://www.w3.org/2000/svg">
<path fill-rule="evenodd" clip-rule="evenodd" d="M2 6.32001C2 4.76579 3.25578 3.51001 4.81 3.51001H10.84C11.8242 3.51001 12.7388 4.029 13.244 4.87567L13.894 5.96566C13.8941 5.96573 13.894 5.96559 13.894 5.96566C14.1288 6.35887 14.5543 6.60001 15.01 6.60001H18.84C20.5822 6.60001 22 8.01375 22 9.75V17.3C22 19.0442 20.5842 20.46 18.84 20.46H5.16C3.41579 20.46 2 19.0442 2 17.3L2 9.76481L2 9.76357L2 9.75M2 6.32001L2 9.71221ZM3.5 17.3C3.5 18.2158 4.24422 18.96 5.16 18.96H18.84C19.7558 18.96 20.5 18.2158 20.5 17.3V9.75C20.5 8.84624 19.7578 8.10001 18.84 8.10001H15.01C14.0258 8.10001 13.1112 7.58101 12.606 6.73435L11.956 5.64435C11.9559 5.64428 11.956 5.64442 11.956 5.64435C11.7212 5.25115 11.2957 5.01001 10.84 5.01001H4.81C4.08421 5.01001 3.5 5.59422 3.5 6.32001V17.3Z" fill="#161721"/>
<path fill-rule="evenodd" clip-rule="evenodd" d="M2 10.06C2 8.50578 3.25578 7.25 4.81 7.25H10.84C11.8242 7.25 12.7388 7.76899 13.244 8.61566L13.894 9.70565C13.8941 9.70572 13.894 9.70558 13.894 9.70565C14.1288 10.0989 14.5543 10.34 15.01 10.34H18.84C20.5822 10.34 22 11.7537 22 13.49C22 13.9042 21.6642 14.24 21.25 14.24C20.8358 14.24 20.5 13.9042 20.5 13.49C20.5 12.5862 19.7578 11.84 18.84 11.84H15.01C14.0258 11.84 13.1112 11.321 12.606 10.4743L11.956 9.38434C11.9559 9.38427 11.956 9.38441 11.956 9.38434C11.7212 8.99114 11.2957 8.75 10.84 8.75H4.81C4.08421 8.75 3.5 9.33421 3.5 10.06V13.14C3.5 13.5542 3.16421 13.89 2.75 13.89C2.33579 13.89 2 13.5542 2 13.14V10.06Z" fill="#161721"/>
</svg>
