<svg xmlns="http://www.w3.org/2000/svg" width="20.8" height="18.8" viewBox="0 0 20.8 18.8"><path d="M21,17a2,2,0,0,1-2,2H3a2,2,0,0,1-2-2V3A2,2,0,0,1,3,1H8l2,3h9a2,2,0,0,1,2,2Z" transform="translate(-0.6 -0.6)" style="fill:none;stroke:#0c2739;stroke-linecap:round;stroke-linejoin:round;stroke-width:0.800000011920929px"/><path d="M6.64,15.12v1.24H5.4V15.12Z" transform="translate(-0.6 -0.6)" style="fill:#0c2739"/><path d="M9.41,15.12v1.24H8.17V15.12Z" transform="translate(-0.6 -0.6)" style="fill:#0c2739"/><path d="M12.18,15.12v1.24H11V15.12Z" transform="translate(-0.6 -0.6)" style="fill:#0c2739"/><path d="M13.49,17l3.08-9.65h.9L14.38,17Z" transform="translate(-0.6 -0.6)" style="fill:#0c2739"/></svg>