<svg width="24" height="24" viewBox="0 0 24 24" fill="none" xmlns="http://www.w3.org/2000/svg">
	<path fill="currentColor" d="M18.8,6.6H15c-0.5,0-0.9-0.2-1.1-0.6l-0.6-1.1c-0.5-0.8-1.4-1.4-2.4-1.4h-6C3.3,3.5,2,4.8,2,6.3v3.4l0,0l0,0
		l0,0V10v3.1v4.2c0,1.7,1.4,3.2,3.2,3.2h13.7c1.7,0,3.2-1.4,3.2-3.2V9.8C22,8,20.6,6.6,18.8,6.6z M20.5,17.3c0,0.9-0.7,1.7-1.7,1.7
		H5.2c-0.9,0-1.7-0.7-1.7-1.7v-4.2V10c0-0.7,0.6-1.3,1.3-1.3h6c0.5,0,0.9,0.2,1.1,0.6l0.7,1.1c0.5,0.8,1.4,1.4,2.4,1.4h3.8
		c0.9,0,1.7,0.7,1.7,1.6V17.3z M20.5,10.8c-0.5-0.3-1-0.5-1.7-0.5H15c-0.5,0-0.9-0.2-1.1-0.6l-0.6-1.1c-0.5-0.8-1.4-1.4-2.4-1.4h-6
		C4.4,7.2,4,7.3,3.6,7.5V6.3C3.5,5.6,4.1,5,4.8,5h6c0.5,0,0.9,0.2,1.1,0.6l0.7,1.1C13.1,7.6,14,8.1,15,8.1h3.8c0.9,0,1.7,0.7,1.7,1.6
		V10.8z"/>
</svg>
