<svg width="24" height="24" viewBox="0 0 24 24" fill="none" xmlns="http://www.w3.org/2000/svg">
	<path fill="none" d="M18.8,8.1H15c-1,0-1.9-0.5-2.4-1.4L12,5.6C11.7,5.3,11.3,5,10.8,5h-6C4.1,5,3.5,5.6,3.5,6.3v11
		c0,0.9,0.7,1.7,1.7,1.7h13.7c0.9,0,1.7-0.7,1.7-1.7V9.8C20.5,8.8,19.8,8.1,18.8,8.1z"/>
	<path fill="currentColor" d="M18.8,6.6H15c-0.5,0-0.9-0.2-1.1-0.6l-0.6-1.1c-0.5-0.8-1.4-1.4-2.4-1.4h-6C3.3,3.5,2,4.8,2,6.3v3.4v0v0v7.5
		c0,1.7,1.4,3.2,3.2,3.2h13.7c1.7,0,3.2-1.4,3.2-3.2V9.8C22,8,20.6,6.6,18.8,6.6z M20.5,17.3c0,0.9-0.7,1.7-1.7,1.7H5.2
		c-0.9,0-1.7-0.7-1.7-1.7v-11C3.5,5.6,4.1,5,4.8,5h6c0.5,0,0.9,0.2,1.1,0.6l0.7,1.1C13.1,7.6,14,8.1,15,8.1h3.8
		c0.9,0,1.7,0.7,1.7,1.6V17.3z"/>
</svg>
