<?xml version="1.0" encoding="utf-8"?>
<!-- Generator: Adobe Illustrator 26.0.2, SVG Export Plug-In . SVG Version: 6.00 Build 0)  -->
<svg version="1.1" id="Layer_1" xmlns="http://www.w3.org/2000/svg" xmlns:xlink="http://www.w3.org/1999/xlink" x="0px" y="0px"
	 viewBox="0 0 22 20" style="enable-background:new 0 0 22 20;" xml:space="preserve">
<style type="text/css">
	.st0{fill:none;stroke:#0C2739;stroke-width:0.8;stroke-linecap:round;stroke-linejoin:round;}
	.st1{fill:#0C2739;}
</style>
<path class="st0" d="M21,17c0,0.5-0.2,1-0.6,1.4C20,18.8,19.5,19,19,19H3c-0.5,0-1-0.2-1.4-0.6C1.2,18,1,17.5,1,17V3
	c0-0.5,0.2-1,0.6-1.4C2,1.2,2.5,1,3,1h5l2,3h9c0.5,0,1,0.2,1.4,0.6C20.8,5,21,5.5,21,6V17z"/>
<g>
	<path class="st1" d="M6.6,15.1v1.2H5.4v-1.2H6.6z"/>
	<path class="st1" d="M9.4,15.1v1.2H8.2v-1.2H9.4z"/>
	<path class="st1" d="M12.2,15.1v1.2h-1.2v-1.2H12.2z"/>
	<path class="st1" d="M12.7,17l3.1-9.6h0.9L13.6,17H12.7z"/>
</g>
</svg>
