<svg width="16" height="16" viewBox="0 0 16 16" fill="none" xmlns="http://www.w3.org/2000/svg">
<path fill-rule="evenodd" clip-rule="evenodd" d="M2 14L2.00513 12.0969L10.0981 4.00393C10.1106 4.01959 10.1241 4.03472 10.1386 4.04923L11.9508 5.86138C11.9653 5.87588 11.9804 5.88939 11.9961 5.9019L3.90311 13.9949L2 14ZM12.754 5.14394L14 3.89797L12.102 2L10.8561 3.24597C10.8717 3.25848 10.8868 3.27199 10.9014 3.2865L12.7135 5.09864C12.728 5.11315 12.7415 5.12828 12.754 5.14394Z" fill="#161721"/>
<path d="M13.5371 10.6667C13.6337 10.8816 13.9344 10.8816 14.031 10.6667L14.2524 10.1741C14.2795 10.1138 14.3272 10.0653 14.3866 10.0378L14.8717 9.81304C15.0834 9.71494 15.0834 9.40954 14.8717 9.31144L14.3866 9.0867C14.3272 9.05914 14.2795 9.01073 14.2524 8.95034L14.031 8.45781C13.9344 8.24284 13.6337 8.24284 13.5371 8.45781L13.3157 8.95034C13.2886 9.01073 13.2409 9.05914 13.1815 9.0867L12.6964 9.31144C12.4847 9.40954 12.4847 9.71494 12.6964 9.81304L13.1815 10.0378C13.2409 10.0653 13.2886 10.1138 13.3157 10.1741L13.5371 10.6667Z" fill="#C95FFF"/>
<path d="M11.6812 12.1245C11.7778 11.9095 12.0785 11.9095 12.1751 12.1245L12.3964 12.617C12.4236 12.6774 12.4713 12.7258 12.5307 12.7534L13.0157 12.9781C13.2275 13.0762 13.2275 13.3816 13.0157 13.4797L12.5307 13.7044C12.4713 13.732 12.4236 13.7804 12.3964 13.8408L12.1751 14.3333C12.0785 14.5483 11.7778 14.5483 11.6812 14.3333L11.4599 13.8408C11.4327 13.7804 11.385 13.732 11.3256 13.7044L10.8405 13.4797C10.6288 13.3816 10.6288 13.0762 10.8405 12.9781L11.3256 12.7534C11.385 12.7258 11.4327 12.6774 11.4599 12.617L11.6812 12.1245Z" fill="#C95FFF"/>
<path d="M3.99867 5.99997C4.09527 6.21495 4.39603 6.21495 4.49263 5.99997L4.71395 5.50744C4.74108 5.44706 4.78876 5.39864 4.84823 5.37109L5.33325 5.14634C5.54495 5.04824 5.54495 4.74284 5.33325 4.64474L4.84823 4.42C4.78876 4.39244 4.74108 4.34403 4.71395 4.28364L4.49263 3.79112C4.39603 3.57614 4.09527 3.57614 3.99867 3.79112L3.77735 4.28364C3.75022 4.34403 3.70253 4.39244 3.64307 4.42L3.15804 4.64474C2.94634 4.74284 2.94634 5.04824 3.15804 5.14634L3.64307 5.37109C3.70253 5.39864 3.75022 5.44706 3.77735 5.50744L3.99867 5.99997Z" fill="#C95FFF"/>
<path fill-rule="evenodd" clip-rule="evenodd" d="M2.33325 13.6666C2.33325 13.4825 2.48249 13.3333 2.66659 13.3333H9.33325C9.51735 13.3333 9.66659 13.4825 9.66659 13.6666C9.66659 13.8507 9.51735 13.9999 9.33325 13.9999H2.66659C2.48249 13.9999 2.33325 13.8507 2.33325 13.6666Z" fill="#161721"/>
</svg>
