<?xml version="1.0" encoding="utf-8"?>
<!-- Generator: Adobe Illustrator 22.1.0, SVG Export Plug-In . SVG Version: 6.00 Build 0)  -->
<svg version="1.1" id="Layer_1" xmlns="http://www.w3.org/2000/svg" xmlns:xlink="http://www.w3.org/1999/xlink" x="0px" y="0px"
	 viewBox="0 0 32 32" style="enable-background:new 0 0 32 32;" xml:space="preserve">
<title>gerrit</title>
<path d="M16.9,3.6l-0.3-0.4c0,0,0.4-0.4,0.6-0.5C17.2,2.5,17.5,2,17.5,2L18,2.3c0,0-0.3,0.5-0.5,0.7S16.9,3.6,16.9,3.6L16.9,3.6z
	 M19,17.7c0,0-0.3-0.2-0.5-0.3c-0.2-0.1-0.4-0.2-0.6-0.3l0.3-0.8L17,15.7l-0.4,1.2c-0.2,0-1,0.1-2,0.5c-1.3,0.5-2.2,1.4-2.3,1.4
	L12.2,19l0.9,0l0,0c0,0,1-0.7,1.5-0.9c0.1,0,0.3-0.1,0.4-0.1c-0.3,0.1-0.6,0.3-0.8,0.4c-0.3,0.2-0.8,0.5-0.8,0.5L13.1,19l0.9,0l0,0
	c0,0,1.6-0.8,2.4-1l0.3-0.1c0.2,0,0.3-0.1,0.6-0.1c0.2,0,0.5,0,0.9,0.1c0.5,0.1,0.9,0.2,0.9,0.2l0.3,0.1L19,17.7L19,17.7L19,17.7z
	 M7,8L7,8L5.6,9.2v0c0,0.4,0.1,0.7,0.3,1c0.2,0.3,0.6,0.4,0.9,0.4h0.1c0.7,0,1.3-0.5,1.3-1.2C8.3,8.6,7.7,8,7,8L7,8z M6.9,10.4
	L6.9,10.4c-0.2,0-0.4,0-0.5-0.1c0.1,0,0.1,0,0.2,0c0.4,0,0.6-0.4,0.6-0.8c0-0.4-0.4-0.6-0.8-0.6C6.1,9,5.9,9.3,5.9,9.6
	c0-0.1-0.1-0.2-0.1-0.4L7,8.2c0.6,0.1,1.1,0.6,1,1.2C8,9.9,7.5,10.4,6.9,10.4L6.9,10.4z M19.4,5.4L19,5.2l-0.5,0.4l-0.5-0.4
	l-0.4,0.2L18,5.8l-0.6,0.4l0.4,0.2L18.4,6l0.5,0.4l0.4-0.2l-0.5-0.4L19.4,5.4z M32,26c-0.3-0.3-0.6-0.6-0.8-0.8
	c-0.6-0.7-1.3-1.3-1.9-2c-0.7-0.8-1.4-1.6-2.1-2.5c-0.3-0.4-0.6-0.8-0.9-1.2c-0.3-0.5-0.6-1.1-0.9-1.6c-0.3-0.6-0.5-1.2-0.8-1.8
	c0.3,0.3,0.6,0.6,0.9,0.9c0-0.3,0.1-0.6,0.1-0.9l0-0.4c0,0,0-0.1,0-0.1c0,0,0-0.1-0.1-0.1c-0.2-0.2-0.3-0.4-0.5-0.6
	c-0.3-0.2-0.5-0.5-0.8-0.7L24,14.1c0,0-0.1-0.1-0.1-0.1c0,0-0.1-0.1-0.1-0.2l-0.2-0.6c0.8,0.4,1.5,1,2.1,1.6c0-0.3,0-0.6,0-0.9
	c0-0.2,0-0.3,0-0.5c0,0,0-0.1,0-0.2c0,0,0,0-0.1-0.1c-0.1-0.2-0.3-0.3-0.5-0.4c-0.2-0.2-0.5-0.4-0.7-0.5c-0.2-0.2-0.4-0.3-0.6-0.5
	c0,0-0.1-0.1-0.1-0.1l0.1-0.1c0,0,0-0.1,0.1,0l0.2,0.1c0.5,0.2,1,0.5,1.5,0.8c-0.2-0.6-0.4-1.2-0.7-1.7c-0.5-1-1.2-2-2-2.8
	c-0.5-0.6-1-1.1-1.6-1.6c-0.3-0.2-0.6-0.5-0.9-0.7c-0.2-0.1-0.3-0.2-0.5-0.3c-0.1,0-0.1-0.1-0.2-0.1C19.5,5,19.2,4.8,19,4.6
	c0.3,0.1,0.6,0.3,0.9,0.4c-0.2-0.3-0.5-0.4-0.7-0.6c-0.4-0.2-0.9-0.4-1.3-0.5c0.2-0.2,0.3-0.3,0.5-0.5c0.2-0.2,0.3-0.3,0.4-0.5
	c0.2-0.2,0.3-0.4,0.5-0.6l-2.2-1.4C17,1.4,16.7,1.7,16.5,2c-0.2,0.3-0.5,0.5-0.8,0.7c-0.2,0.2-0.5,0.4-0.8,0.6
	c-0.1,0.1-0.1,0.1-0.2,0.2c0,0-0.1,0-0.2,0h-0.3c-0.4,0-0.8,0-1.2,0.1c-0.1,0-0.2,0-0.2,0l-0.2,0c-0.2,0-0.4,0-0.5,0
	c-0.4,0-0.8,0-1.2,0c-0.3,0-0.7,0.1-1,0.2C9.6,3.8,9.3,4,9.1,4.1C8.8,4.3,8.5,4.6,8.4,4.9C8.2,5.1,8.2,5.5,8.1,5.8
	c-0.2,0-0.4,0-0.5,0c-0.2,0-0.4,0-0.6,0.1C6.6,5.9,6.3,6,6,6.1c-0.7,0.2-1.3,0.5-1.8,1C3.9,7.3,3.7,7.6,3.5,7.9c0,0-0.1,0.1-0.1,0.1
	c0,0,0,0,0,0c0,0,0,0.1-0.1,0.1L3.1,8.4C2.9,8.8,2.7,9.2,2.6,9.6L2.5,9.8l0,0c0,0.1,0,0.2,0,0.3l0,0.1v0.1l-0.1,0
	c-0.2,0-0.4,0.1-0.5,0.1c-0.2,0.1-0.3,0.1-0.4,0.2c-0.1,0.1-0.3,0.2-0.4,0.3c-0.4,0.4-0.8,0.9-0.9,1.5c-0.1,0.5-0.2,1-0.1,1.5
	c0,0.1,0.1,0.2,0.1,0.3c0.1,0.1,0.3,0.2,0.4,0.1c0.2,0,0.3-0.2,0.5-0.2l0.4-0.2c0.6-0.3,1.2-0.6,1.9-0.7c0,0,0.1,0.1,0.2,0.1
	c0.1,0.1,0.1,0.1,0.2,0.1c0.1,0.1,0.3,0.2,0.4,0.2C4.6,13.8,5,13.9,5.4,14c0.7,0.1,1.4,0.2,2,0.2c0.3,0,0.6,0,0.8,0
	c0.3,0,0.6-0.1,0.9-0.1c0.3,0,0.7,0,1,0.1c0.3,0,0.7,0.1,1,0.1c0.7,0.1,1.4,0.2,2.1,0.4c-0.2,0.2-0.3,0.5-0.4,0.7c0,0-0.1,0-0.1,0
	c-0.1,0-0.1,0-0.2,0c-0.1,0-0.2,0-0.3,0c-0.3,0-0.6,0.1-0.8,0.2c-0.7,0.2-1.3,0.6-1.8,1.1C9.3,17,9,17.3,8.8,17.6
	c-0.1,0.1-0.1,0.2-0.2,0.3c0.1,0,0.3-0.1,0.4-0.1c0.1,0,0.2,0,0.2-0.1c0,0,0,0,0.1,0c0.3-0.3,0.6-0.5,0.9-0.8
	c0.2-0.1,0.3-0.2,0.5-0.3c0.2-0.1,0.5-0.2,0.7-0.2c-0.4,0.2-0.9,0.5-1.3,0.8c-0.2,0.2-0.4,0.4-0.7,0.6l0.9-0.1c0,0,0,0,0,0l0.2-0.1
	c0.2-0.1,0.3-0.2,0.5-0.2c0.3-0.2,0.6-0.3,1-0.5c0.3-0.1,0.6-0.2,1-0.3c0.3-0.1,0.6-0.1,0.9,0c0.5,0.1,0.9,0.3,1.3,0.6
	c0,0,0,0,0.1,0c0,0,0.1-0.1,0.1-0.1l-0.2-0.4c0,0,0-0.1-0.1-0.1l-0.2-0.1c-0.2-0.1-0.5-0.3-0.7-0.4c-0.1,0-0.1-0.1-0.1-0.1
	c0-0.1,0-0.1,0-0.2c0-0.1,0.1-0.2,0.2-0.3c0-0.1,0.1-0.1,0.1-0.2c0,0,0,0,0,0l0.2,0c0.3,0.1,0.6,0.2,0.9,0.3
	c0.4,0.1,0.7,0.2,1.1,0.2l0.1,0c-0.1,0-0.1-0.1-0.2-0.2c0,0,0-0.1-0.1-0.1l-0.1,0c-0.1,0-0.2,0-0.3-0.1c-0.3-0.1-0.7-0.2-1-0.3
	c-0.5-0.2-1-0.3-1.5-0.4c-0.7-0.1-1.3-0.3-2-0.4c-0.3-0.1-0.7-0.1-1-0.1c-0.3,0-0.7-0.1-1-0.1c-0.7,0-1.4,0.1-2.2,0.1
	c-0.5,0-1-0.1-1.5-0.1l-0.1,0c0.3-0.1,0.7-0.2,1-0.4c0.3-0.1,0.6-0.3,0.9-0.4C7.9,13,8.1,13,8.2,12.9c0.2-0.1,0.3-0.1,0.4-0.2
	c0.5-0.4,0.9-1,1.3-1.5c0.4-0.5,0.8-0.9,1.3-1.2c0.2-0.1,0.3-0.2,0.5-0.2c-0.4-0.6-0.7-1.2-0.8-1.9c0,0,0.1,0,0.1,0
	c0,0,0.1,0,0.1,0.1l0,0.2c0,0.1,0.1,0.2,0.1,0.3c0.1,0.3,0.2,0.5,0.3,0.7c0.3,0.5,0.6,1,1,1.5c0.7,0.9,1.5,1.7,2.3,2.6
	c0.2,0.2,0.4,0.4,0.5,0.7c0.2,0.2,0.4,0.5,0.6,0.7c0.2,0.2,0.3,0.4,0.5,0.6l0.1,0.2c0,0,0.1,0,0.1,0c0.8,0.4,1.6,0.8,2.4,1.2
	c0.6,0.3,1.2,0.6,1.8,0.8c0.3,0.1,0.6,0.3,0.9,0.4c0,0,0.1,0,0.1,0.1c0,0,0,0,0.1,0l0,0.1c0,0.1,0.1,0.2,0.1,0.3
	c0.1,0.2,0.1,0.4,0.2,0.6c0.4,1.2,0.9,2.4,1.5,3.6c0.5,0.9,1,1.7,1.5,2.6c0.5,0.9,1.1,1.8,1.6,2.7c0.4,0.7,0.9,1.4,1.3,2.1
	c0.2,0.3,0.4,0.6,0.6,0.9l0.1,0.1l1.3-1.9c0,0,0.1-0.1,0.1-0.1l-0.2-0.3c-0.4-0.6-0.8-1.2-1.2-1.8l-1.2-1.9l0.9,1.1l1.5,1.8
	c0.2,0.2,0.3,0.4,0.5,0.6c0.3-0.5,0.6-1.1,0.9-1.6C31.8,26.5,31.9,26.3,32,26L32,26z M16.2,2.6c0.4-0.3,0.8-0.8,1-1.2l1.6,1L19,2.5
	c-0.3,0.4-0.7,0.8-1,1.2c0,0-0.1,0.1-0.1,0.1c0,0-0.1,0.1-0.1,0.1l0,0.1c0,0-0.1,0-0.1,0c-0.2-0.1-0.4-0.1-0.6-0.1
	c-0.4-0.1-0.8-0.2-1.2-0.2c-0.3,0-0.5-0.1-0.8-0.1C15.4,3.2,15.8,2.9,16.2,2.6L16.2,2.6z M13.8,4.4c0.3-0.1,0.6-0.2,1-0.3
	c0.7-0.1,1.3-0.1,2-0.1c0.5,0.1,0.9,0.1,1.4,0.3L18,4.5l-0.3-0.1c-0.2,0-0.4-0.1-0.6-0.1c-0.3,0-0.7-0.1-1-0.1
	c-0.6,0-1.2,0.1-1.8,0.2c-0.4,0.1-0.8,0.3-1.2,0.4c-0.4,0.2-0.7,0.5-1,0.8c-0.2,0.2-0.3,0.4-0.5,0.6c-0.1,0.1-0.1,0.2-0.2,0.4
	c0,0.1-0.1,0.1-0.1,0.2l0,0.1c0,0,0,0,0,0.1l-0.1,0l-0.1,0c0.3-1,1-1.7,1.9-2.2C13.2,4.6,13.5,4.5,13.8,4.4L13.8,4.4z M8.6,4.9
	c0.4-0.5,0.9-0.9,1.5-1c0.7-0.1,1.4-0.2,2-0.1c-0.7,0.2-1.4,0.4-2,0.9C9.7,4.7,9.3,4.9,8.9,5.2C8.8,5.3,8.7,5.4,8.6,5.5
	c0,0-0.1,0.1-0.1,0.2c0,0,0,0,0,0.1H8.3c0-0.2,0.1-0.4,0.1-0.5C8.5,5.1,8.5,5,8.6,4.9L8.6,4.9z M9.8,5C9.6,5.1,9.4,5.4,9.2,5.6
	C9.2,5.7,9.1,5.8,9,5.8c-0.1,0.1-0.3,0-0.4,0C8.9,5.4,9.3,5.1,9.8,5L9.8,5z M3.1,8.8c0.1-0.2,0.2-0.4,0.4-0.6c0,0,0.1-0.1,0.1-0.1
	C3.6,8,3.7,8,3.7,7.9C4.1,7.6,4.6,7.3,5,7.1c0.2-0.1,0.4-0.3,0.7-0.4c0.2-0.1,0.5-0.2,0.8-0.3C6.9,6.2,7.3,6.1,7.8,6
	c0.2,0,0.5-0.1,0.7,0C8.1,6.2,7.7,6.5,7.2,6.7C6.8,7,6.3,7.2,5.8,7.5C5.4,7.7,5,8,4.5,8.2C4.1,8.5,3.6,8.8,3.2,9.1
	C3.1,9.1,3,9.2,2.9,9.3C2.9,9.1,3,8.9,3.1,8.8L3.1,8.8z M4.4,12.9c0,0.1-0.2,0.1-0.2,0.1c-0.1,0-0.2,0-0.4,0c-0.3,0-0.7,0.1-1,0.2
	c-0.6,0.2-1.2,0.5-1.8,0.8c-0.1,0.1-0.3,0.2-0.4,0.2c-0.1,0-0.2,0-0.2-0.1c0-0.1-0.1-0.2-0.1-0.3c0-0.2,0-0.3,0-0.5
	c0-0.4,0.1-0.9,0.3-1.3c0.1-0.3,0.3-0.5,0.5-0.8c0.2-0.2,0.4-0.5,0.7-0.6c0.5-0.2,1-0.3,1.6-0.3c0.1,0,0.2,0,0.3,0
	c0.1,0,0.3,0,0.4,0c0.1,0,0.2,0.1,0.2,0.2c0.1,0.1,0.1,0.3,0.1,0.4c0.1,0.3,0.2,0.7,0.2,1.1c0,0.2,0,0.3,0,0.5
	C4.5,12.7,4.5,12.8,4.4,12.9L4.4,12.9z M8.2,10.2c-0.3,0.2-0.5,0.3-0.8,0.4c-0.3,0.1-0.6,0.2-0.9,0.2c-0.1,0-0.3,0-0.4,0
	c-0.1,0-0.3,0-0.4-0.1c-0.3-0.1-0.5-0.2-0.8-0.3c-0.1-0.1-0.2-0.1-0.2-0.2c0-0.1,0-0.2,0-0.2c0-0.3,0.1-0.6,0.3-0.9
	c0.2-0.5,0.6-0.8,1.1-1c1.2-0.5,2.5,0,3.5,0.7l0.1,0.1C9.5,9.1,9.2,9.3,9,9.5C8.8,9.8,8.5,10,8.2,10.2L8.2,10.2z M11.1,7.7
	c-0.6-0.3-1.2-0.6-1.8-1c0.6,0.2,1.2,0.4,1.9,0.5c0.3,0,0.7,0.1,1,0.1c0.4,0,0.8,0,1.1-0.1C14,7,14.7,6.8,15.4,6.4
	c0.7-0.3,1.3-0.7,1.9-1.1c0.3-0.2,0.6-0.4,0.8-0.6c0,0,0.2-0.2,0.2-0.2l0.1,0L19.2,5c0.4,0.3,0.9,0.7,1.3,1
	c-1.2,0.4-2.4,0.8-3.7,1.2c-0.7,0.2-1.4,0.4-2.1,0.6c-0.6,0.1-1.1,0.2-1.7,0.3C12.4,8.1,11.7,7.9,11.1,7.7L11.1,7.7z M22.9,12.9
	c0.1,0,0.2,0.1,0.3,0.1l0.1,0c0,0,0,0,0.1,0l0,0.1c0.1,0.2,0.1,0.4,0.2,0.6c-0.2-0.2-0.4-0.3-0.6-0.5l-0.1-0.1c0,0-0.1,0,0-0.1
	L22.9,12.9L22.9,12.9z M22,14.8L22,14.8l0.1-0.1c0,0,0,0,0,0c0.2,0.1,0.3,0.1,0.5,0.2c0.3,0.1,0.6,0.3,0.9,0.5
	c0.1,0.1,0.3,0.2,0.4,0.3l0.2,0.1l0.1,0.1c0,0,0.1,0.1,0.1,0.1c0.1,0.4,0.3,0.8,0.4,1.1c0.1,0.3,0.2,0.5,0.3,0.8
	c-0.4-0.5-0.8-1-1.3-1.4c-0.5-0.5-0.9-0.9-1.4-1.3L22,14.8L22,14.8z M27,23.4l-0.2,0.1l0,0l0.1,0.1l0.4,0.6l1.2,1.9
	c0.4,0.6,0.8,1.3,1.2,1.9l0.4,0.6l0.1,0.2c0,0,0,0.1,0,0.1c-0.3,0.5-0.7,1-1,1.5c0,0-0.1,0.1-0.1,0.1c-0.3-0.5-0.6-1-1-1.5
	c-0.5-0.8-1.1-1.7-1.6-2.6c-0.6-0.9-1.1-1.9-1.7-2.9c-0.5-0.9-1-1.8-1.4-2.8c-0.4-0.9-0.8-1.9-1.1-2.8c0.6,0.3,1.3,0.5,2,0.7
	c0.2,0.1,0.4,0.1,0.6,0.2l0.1,0c0,0,0-0.1,0-0.1c0-0.1,0-0.2,0.1-0.3c0-0.2,0.1-0.3,0.1-0.5c0.3,0.6,0.6,1.1,0.9,1.6
	c0.3,0.4,0.6,0.8,0.9,1.2c0.7,0.9,1.4,1.7,2.2,2.5c0.6,0.7,1.2,1.3,1.9,2l0.5,0.5c0,0,0.1,0,0.1,0.1l0,0.1l-0.2,0.4l-0.8,1.4
	c-0.2-0.3-0.5-0.6-0.7-0.9l-1.5-1.8c-0.4-0.5-0.8-1-1.3-1.5L27,23.4L27,23.4z"/>
</svg>
