<svg width="24" height="24" viewBox="0 0 24 24" fill="none" xmlns="http://www.w3.org/2000/svg">
  <path d="M12 22C12 22 20 18 20 12V5L12 2L4 5V12C4 18 12 22 12 22Z" fill="currentColor"/>
  <path d="M15.8613 8.61116C16.0761 8.39638 16.4243 8.39638 16.6391 8.61117C16.8539 8.82595 16.8539 9.17419 16.6391 9.38898L11.1391 14.889C11.036 14.9921 10.8961 15.0501 10.7502 15.0501C10.6043 15.0501 10.4644 14.9921 10.3613 14.889L7.86129 12.389C7.6465 12.1742 7.6465 11.826 7.86129 11.6112C8.07607 11.3964 8.42432 11.3964 8.6391 11.6112L10.7502 13.7223L15.8613 8.61116Z" fill="white"/>
  <defs>
    <linearGradient id="paint0_linear_7723_88303" x1="1.95555" y1="24.2497" x2="19.0081" y2="24.0899" gradientUnits="userSpaceOnUse">
      <stop/>
      <stop offset="1" />
    </linearGradient>
  </defs>
</svg>
