<svg width="24" height="24" viewBox="0 0 24 24" fill="none" xmlns="http://www.w3.org/2000/svg">
<path fill-rule="evenodd" clip-rule="evenodd" d="M20 12C20 18 12 22 12 22C12 22 4 18 4 12V5L12 2L20 5V12ZM16.8104 8.46967C17.1033 8.76256 17.1033 9.23744 16.8104 9.53033L11.2904 15.0504C11.0721 15.2687 10.7527 15.3243 10.4829 15.2171C10.4359 15.1985 10.3905 15.1749 10.3473 15.1465C10.3058 15.119 10.2663 15.087 10.2297 15.0503L7.46967 12.2903C7.17678 11.9974 7.17678 11.5226 7.46967 11.2297C7.76256 10.9368 8.23744 10.9368 8.53033 11.2297L10.76 13.4594L15.7497 8.46967C16.0426 8.17678 16.5175 8.17678 16.8104 8.46967Z" fill="url(#paint0_linear_77_443)"/>
<defs>
<linearGradient id="paint0_linear_77_443" x1="1.95555" y1="24.2497" x2="19.0081" y2="24.0899" gradientUnits="userSpaceOnUse">
<stop stop-color="#4154FF"/>
<stop offset="1" stop-color="#8D98FF"/>
</linearGradient>
</defs>
</svg>
