<svg width="24" height="24" viewBox="0 0 24 24" fill="none" xmlns="http://www.w3.org/2000/svg">
<path d="M20 12C20 18 12 22 12 22C12 22 4 18 4 12V5L12 2L20 5V12Z" fill="#C4CDDB"/>
<mask id="path-2-inside-1_77_459" fill="white">
<path fill-rule="evenodd" clip-rule="evenodd" d="M11 17C11 16.4477 11.4477 16 12 16C12.5523 16 13 16.4477 13 17C13 17.5523 12.5523 18 12 18C11.4477 18 11 17.5523 11 17ZM11 13.026C11 13.5639 11.4477 14 12 14C12.5523 14 13 13.5639 13 13.026L13 6.97402C13 6.43609 12.5523 6 12 6C11.4477 6 11 6.43609 11 6.97402L11 13.026Z"/>
</mask>
<path fill-rule="evenodd" clip-rule="evenodd" d="M11 17C11 16.4477 11.4477 16 12 16C12.5523 16 13 16.4477 13 17C13 17.5523 12.5523 18 12 18C11.4477 18 11 17.5523 11 17ZM11 13.026C11 13.5639 11.4477 14 12 14C12.5523 14 13 13.5639 13 13.026L13 6.97402C13 6.43609 12.5523 6 12 6C11.4477 6 11 6.43609 11 6.97402L11 13.026Z" fill="white"/>
<path d="M12 15C10.8954 15 10 15.8954 10 17L12 17L12 15ZM14 17C14 15.8954 13.1046 15 12 15L12 17L14 17ZM12 19C13.1046 19 14 18.1046 14 17L12 17L12 19ZM10 17C10 18.1046 10.8954 19 12 19L12 17L10 17ZM12 13C11.9944 13 11.9922 12.9991 11.9917 12.9988C11.9906 12.9984 11.9902 12.998 11.9906 12.9984C11.991 12.9988 11.9934 13.0012 11.9958 13.0068C11.9971 13.0096 11.9982 13.013 11.999 13.0167C11.9997 13.0204 12 13.0237 12 13.026L10 13.026C10 14.1408 10.9204 15 12 15L12 13ZM12 13.026C12 13.0237 12.0003 13.0204 12.001 13.0167C12.0018 13.013 12.0029 13.0096 12.0042 13.0068C12.0066 13.0012 12.009 12.9988 12.0094 12.9984C12.0098 12.998 12.0094 12.9984 12.0083 12.9988C12.0078 12.9991 12.0056 13 12 13L12 15C13.0796 15 14 14.1408 14 13.026L12 13.026ZM12 6.97402L12 13.026L14 13.026L14 6.97402L12 6.97402ZM12 7C12.0056 7 12.0078 7.00095 12.0083 7.00115C12.0094 7.00161 12.0098 7.00203 12.0094 7.00163C12.009 7.00123 12.0066 6.9988 12.0042 6.9932C12.0029 6.99035 12.0018 6.987 12.001 6.98332C12.0003 6.97958 12 6.97634 12 6.97402L14 6.97402C14 5.85915 13.0796 5 12 5L12 7ZM12 6.97402C12 6.97634 11.9997 6.97958 11.999 6.98332C11.9982 6.987 11.9971 6.99035 11.9958 6.9932C11.9934 6.9988 11.991 7.00123 11.9906 7.00163C11.9902 7.00203 11.9906 7.00161 11.9917 7.00115C11.9922 7.00095 11.9944 7 12 7L12 5C10.9204 5 10 5.85915 10 6.97402L12 6.97402ZM12 13.026L12 6.97402L10 6.97402L10 13.026L12 13.026Z" fill="white" mask="url(#path-2-inside-1_77_459)"/>
</svg>
