<svg width="20" height="20" viewBox="0 0 20 20" fill="none" xmlns="http://www.w3.org/2000/svg">
<path d="M10 2C5.58 2 2 5.52 2 9.86133C2 13.3353 4.292 16.2813 7.47 17.32C7.87 17.394 8.01667 17.1507 8.01667 16.942C8.01667 16.7553 8.01 16.2607 8.00667 15.6053C5.78133 16.0793 5.312 14.5507 5.312 14.5507C4.948 13.6433 4.422 13.4007 4.422 13.4007C3.69733 12.9133 4.478 12.9233 4.478 12.9233C5.28133 12.978 5.70333 13.7333 5.70333 13.7333C6.41667 14.9353 7.576 14.588 8.03333 14.3873C8.10533 13.8787 8.31133 13.5327 8.54 13.336C6.76333 13.1393 4.896 12.4633 4.896 9.45133C4.896 8.59333 5.206 7.892 5.71933 7.342C5.62933 7.14333 5.35933 6.344 5.78933 5.26133C5.78933 5.26133 6.45933 5.05067 7.98933 6.06733C8.62933 5.89267 9.30933 5.806 9.98933 5.802C10.6693 5.806 11.3493 5.89267 11.9893 6.06733C13.5093 5.05067 14.1793 5.26133 14.1793 5.26133C14.6093 6.344 14.3393 7.14333 14.2593 7.342C14.7693 7.892 15.0793 8.59333 15.0793 9.45133C15.0793 12.4713 13.2093 13.136 11.4293 13.3293C11.7093 13.5653 11.9693 14.0473 11.9693 14.784C11.9693 15.836 11.9593 16.6813 11.9593 16.9367C11.9593 17.1427 12.0993 17.3887 12.5093 17.31C15.71 16.278 18 13.33 18 9.86133C18 5.52 14.418 2 10 2Z" fill="#0C2739"/>
</svg>
