<svg width="20" height="20" viewBox="0 0 20 20" fill="none" xmlns="http://www.w3.org/2000/svg">
<path fill-rule="evenodd" clip-rule="evenodd" d="M14.7204 2.83917L12.9459 8.30017L7.05388 8.30016H2.92488H2.92487L2.02987 11.0577C1.99006 11.1802 1.99004 11.3121 2.02983 11.4346C2.06962 11.5572 2.14717 11.6639 2.25137 11.7397L9.99987 17.3694L17.7484 11.7372C17.8526 11.6614 17.9301 11.5547 17.9699 11.4321C18.0097 11.3096 18.0097 11.1777 17.9699 11.0552L17.0749 8.30017L15.3004 2.83917C15.2091 2.55817 14.8116 2.55817 14.7204 2.83917ZM2.92488 8.30012H7.05363L5.27938 2.84162C5.18813 2.56062 4.79063 2.56062 4.69938 2.84162L2.92488 8.30012Z" fill="#0C2739"/>
</svg>
