<svg width="24" height="24" viewBox="0 0 24 24" fill="none" xmlns="http://www.w3.org/2000/svg">
<path d="M22.0396 9.9163L22.0104 9.84168L19.1834 2.46387C19.1259 2.31926 19.0241 2.1966 18.8925 2.11347C18.7609 2.03175 18.6073 1.99239 18.4526 2.00071C18.2979 2.00902 18.1495 2.06461 18.0273 2.15997C17.9066 2.25807 17.819 2.39099 17.7764 2.54065L15.8676 8.38061H8.13833L6.22953 2.54065C6.18814 2.39017 6.10034 2.25659 5.97863 2.15889C5.85651 2.06353 5.70807 2.00794 5.55335 1.99963C5.39864 1.99131 5.24509 2.03067 5.11345 2.11239C4.98219 2.19585 4.88044 2.31841 4.82254 2.46278L1.99016 9.83736L1.96204 9.91198C1.55508 10.9753 1.50485 12.1421 1.81891 13.2364C2.13298 14.3308 2.79432 15.2934 3.70321 15.979L3.71294 15.9866L3.7389 16.005L8.04533 19.23L10.1758 20.8424L11.4736 21.8223C11.6254 21.9375 11.8108 21.9999 12.0014 21.9999C12.192 21.9999 12.3773 21.9375 12.5291 21.8223L13.8269 20.8424L15.9574 19.23L20.2898 15.9855L20.3006 15.9769C21.2074 15.2911 21.8672 14.3295 22.1808 13.2366C22.4944 12.1437 22.4449 10.9786 22.0396 9.9163Z" fill="#171321"/>
</svg>
