<svg width="24" height="24" viewBox="0 0 24 24" fill="none" xmlns="http://www.w3.org/2000/svg">
<path fill-rule="evenodd" clip-rule="evenodd" d="M12 3.5C7.66176 3.5 4.0826 6.75 3.56445 10.9481C3.66545 10.9707 3.76336 11.0147 3.85139 11.0811C4.03255 11.2176 4.26911 11.2885 4.59338 11.2992C4.92837 11.3102 5.29117 11.2561 5.69972 11.1897L5.71141 11.1878L5.71142 11.1879L5.83269 11.1699C6.19537 11.1158 6.63935 11.0495 7.0783 11.0602L7.07923 11.0603C7.54747 11.0723 8.08958 11.1682 8.56873 11.4586L8.57555 11.4627L8.57553 11.4628C8.68754 11.5323 8.78463 11.6076 8.86201 11.6706C8.89828 11.7 8.93383 11.7298 8.9648 11.7557L8.9712 11.7611C9.00517 11.7895 9.03412 11.8136 9.06238 11.8365C9.18112 11.9323 9.22893 11.9538 9.25163 11.9605L9.26491 11.9644L9.26488 11.9645C9.26763 11.9654 9.28938 11.9698 9.32368 11.9576C9.35851 11.9451 9.37404 11.9269 9.37597 11.924C9.38097 11.9165 9.3861 11.9091 9.39136 11.9018C9.40682 11.8803 9.42288 11.8454 9.48661 11.6679L9.49075 11.6563L9.49076 11.6563C9.54055 11.5173 9.63208 11.2619 9.82011 11.0344C10.03 10.7765 10.2888 10.6331 10.4859 10.5435C10.5853 10.4983 10.6839 10.4605 10.7614 10.4309L10.7782 10.4245C10.8535 10.3958 10.9089 10.3748 10.9608 10.3523C11.4188 10.1519 11.7321 9.70031 11.7506 9.22119L11.7509 9.21347L11.7509 9.21347C11.7638 8.94866 11.7483 8.69093 11.7303 8.39199L11.7303 8.3919L11.7303 8.39177C11.7238 8.28351 11.7169 8.16983 11.711 8.04846C11.7011 7.86221 11.7112 7.66702 11.7186 7.52458V7.52456L11.7186 7.52453C11.7204 7.48964 11.722 7.45791 11.7232 7.43026C11.73 7.26439 11.7259 7.16532 11.7084 7.08505C11.6938 7.02298 11.6618 6.9544 11.5718 6.78395L11.5627 6.76682L11.5627 6.7668C11.485 6.61986 11.3605 6.3845 11.2979 6.10271L11.2937 6.08253C11.2032 5.6149 11.2618 5.02759 11.6656 4.56614L11.6751 4.55551C11.9042 4.30347 12.1813 4.14077 12.3592 4.03639L12.381 4.02356C12.589 3.9012 12.6843 3.83994 12.7531 3.76676C12.8176 3.69794 12.8732 3.62485 12.9193 3.54914C12.6174 3.51666 12.3106 3.5 12 3.5ZM10.2231 20.314C6.57112 19.5373 3.78655 16.4152 3.52079 12.5992C3.86481 12.7353 4.21673 12.7876 4.54415 12.7984C5.04418 12.8148 5.54389 12.7347 5.93449 12.6713L6.04204 12.6554C6.42658 12.5987 6.73947 12.5525 7.04091 12.5598C7.35068 12.5677 7.60725 12.631 7.7879 12.7394C7.84609 12.7758 7.88938 12.8121 7.96284 12.8738C8.00349 12.9078 8.05337 12.9497 8.12013 13.0036C8.27283 13.1269 8.50782 13.3038 8.82184 13.3976C9.48903 13.6039 10.2337 13.3306 10.6166 12.7671C10.7622 12.5608 10.8431 12.3313 10.8869 12.207L10.8869 12.207L10.8984 12.1747C10.9246 12.1017 10.9409 12.0594 10.9567 12.0259C10.968 12.0019 10.9747 11.9921 10.9762 11.9902L10.9762 11.9902L10.9835 11.9813C10.9835 11.9812 10.9846 11.9799 10.9876 11.9771C10.9908 11.9742 10.9965 11.9695 11.0057 11.9632C11.0253 11.9497 11.0562 11.9319 11.1066 11.909C11.1584 11.8855 11.2168 11.8626 11.2958 11.8325L11.317 11.8245C11.3862 11.7981 11.4732 11.765 11.5582 11.7282L11.5601 11.7274C12.5205 11.308 13.2062 10.3617 13.2493 9.28284C13.2663 8.92952 13.2436 8.55679 13.2243 8.23887V8.23886L13.2243 8.23884L13.2243 8.23867L13.2242 8.23807C13.2185 8.14448 13.2131 8.05565 13.2091 7.97347L13.2089 7.96953C13.2035 7.86907 13.208 7.77891 13.2144 7.65122L13.2144 7.65107L13.2144 7.65077C13.2168 7.6038 13.2194 7.55176 13.2219 7.49227C13.2299 7.29725 13.2342 7.03663 13.1722 6.75731L13.1722 6.75731L13.1712 6.75289C13.1091 6.48136 12.9867 6.25051 12.911 6.10767L12.8982 6.08358C12.8141 5.92426 12.7802 5.85123 12.7644 5.78672C12.7402 5.64955 12.7745 5.57978 12.7917 5.5573C12.8528 5.49279 12.9427 5.4334 13.1415 5.31647L13.1688 5.30043C13.345 5.19717 13.6177 5.03724 13.8467 4.79352L13.8472 4.79297C14.0961 4.52741 14.3007 4.2082 14.4306 3.85259C17.9406 4.89818 20.5 8.1502 20.5 12C20.5 13.3145 20.2016 14.5594 19.6688 15.6705C19.3583 15.574 19.0502 15.5531 18.7636 15.5671C18.4446 15.5827 18.0821 15.6515 17.7896 15.707L17.7895 15.707C17.6839 15.727 17.5873 15.7453 17.5053 15.7588L17.3979 15.7746C17.0133 15.8313 16.7003 15.8775 16.3988 15.8702C16.0892 15.8622 15.8327 15.7989 15.6521 15.6906C15.5939 15.6541 15.5506 15.6178 15.4772 15.5562C15.4365 15.5221 15.3866 15.4803 15.3199 15.4264C15.1672 15.3031 14.9322 15.1262 14.6182 15.0324C13.951 14.8261 13.2063 15.0994 12.8234 15.6629C12.6779 15.8692 12.5969 16.0986 12.5531 16.223L12.5416 16.2553C12.5154 16.3282 12.4991 16.3706 12.4833 16.4041C12.472 16.428 12.4652 16.4378 12.4638 16.4398L12.4638 16.4398L12.4565 16.4487C12.4565 16.4488 12.4554 16.4501 12.4524 16.4529C12.4492 16.4558 12.4435 16.4605 12.4343 16.4668C12.4147 16.4802 12.3837 16.498 12.3334 16.5209C12.2816 16.5445 12.2232 16.5673 12.1442 16.5974L12.123 16.6055C12.0538 16.6318 11.9668 16.665 11.8818 16.7018L11.8799 16.7026C10.9195 17.1219 10.2338 18.0683 10.1907 19.1471C10.1738 19.5005 10.1964 19.8732 10.2157 20.1911L10.2158 20.1913C10.2183 20.2332 10.2208 20.2742 10.2231 20.314ZM11.7263 20.4957C11.8172 20.4986 11.9084 20.5 12 20.5C14.7962 20.5 17.277 19.1498 18.8261 17.0659C18.6182 17.0769 18.4308 17.1129 18.1955 17.1581C18.063 17.1835 17.9153 17.2118 17.7403 17.2403L17.7286 17.2422L17.7286 17.2421L17.6073 17.2601C17.2446 17.3142 16.8006 17.3805 16.3617 17.3697L16.3608 17.3697C15.8925 17.3577 15.3504 17.2618 14.8713 16.9714L14.8644 16.9672L14.8645 16.9672C14.7525 16.8977 14.6554 16.8223 14.578 16.7594C14.5417 16.7299 14.5061 16.7002 14.4752 16.6742L14.4688 16.6689C14.4348 16.6405 14.4059 16.6163 14.3776 16.5935C14.2589 16.4977 14.2111 16.4762 14.1884 16.4695L14.1751 16.4656L14.1751 16.4655C14.1724 16.4646 14.1506 16.4601 14.1163 16.4724C14.0815 16.4849 14.066 16.5031 14.064 16.506C14.059 16.5135 14.0539 16.5209 14.0487 16.5282C14.0332 16.5497 14.0171 16.5846 13.9534 16.7621L13.9492 16.7737C13.8994 16.9126 13.8079 17.1681 13.6199 17.3956C13.41 17.6535 13.1512 17.7969 12.9541 17.8865C12.8547 17.9317 12.7561 17.9695 12.6786 17.999L12.6618 18.0054L12.6617 18.0055C12.5865 18.0341 12.5312 18.0552 12.4792 18.0777C12.0212 18.2781 11.7079 18.7296 11.6894 19.2088L11.6891 19.2165L11.6891 19.2165C11.6762 19.4813 11.6917 19.7391 11.7097 20.038C11.7163 20.1469 11.7231 20.2613 11.7291 20.3834C11.731 20.4214 11.7299 20.4589 11.7263 20.4957ZM2 12C2 6.47715 6.47715 2 12 2C17.5228 2 22 6.47715 22 12C22 17.5228 17.5228 22 12 22C6.47715 22 2 17.5228 2 12Z" fill="#161721"/>
</svg>
