<svg width="18" height="18" viewBox="0 0 18 18" fill="none" xmlns="http://www.w3.org/2000/svg">
<path fill-rule="evenodd" clip-rule="evenodd" d="M8.05413 1.13925C4.26321 1.5906 1.2944 4.72077 1.09411 8.58333H5.26492C5.40566 5.86946 6.38261 3.27007 8.05413 1.13925ZM9.94587 1.13925C11.6174 3.27007 12.5943 5.86946 12.7351 8.58333H16.9059C16.7056 4.72077 13.7368 1.5906 9.94587 1.13925ZM11.9006 8.58333C11.7522 5.90368 10.7334 3.3454 9 1.29751C7.26656 3.3454 6.24784 5.90368 6.09944 8.58333H11.9006ZM6.09945 9.41667H11.9006C11.7522 12.0963 10.7334 14.6546 9 16.7025C7.26656 14.6546 6.24784 12.0963 6.09945 9.41667ZM5.26492 9.41667H1.09411C1.2944 13.2792 4.26321 16.4094 8.05414 16.8607C6.38262 14.7299 5.40567 12.1305 5.26492 9.41667ZM9.94586 16.8607C11.6174 14.7299 12.5943 12.1305 12.7351 9.41667H16.9059C16.7056 13.2792 13.7368 16.4094 9.94586 16.8607ZM9 17.75C13.8325 17.75 17.75 13.8325 17.75 9C17.75 4.16751 13.8325 0.25 9 0.25C4.16751 0.25 0.25 4.16751 0.25 9C0.25 13.8325 4.16751 17.75 9 17.75Z" fill="#0C2739"/>
</svg>
