<svg width="20" height="20" viewBox="0 0 20 20" fill="none" xmlns="http://www.w3.org/2000/svg">
<path fill-rule="evenodd" clip-rule="evenodd" d="M9.05413 2.13925C5.26321 2.5906 2.2944 5.72077 2.09411 9.58333H6.26492C6.40566 6.86946 7.38261 4.27007 9.05413 2.13925ZM10.9459 2.13925C12.6174 4.27007 13.5943 6.86946 13.7351 9.58333H17.9059C17.7056 5.72077 14.7368 2.5906 10.9459 2.13925ZM12.9006 9.58333C12.7522 6.90368 11.7334 4.3454 10 2.29751C8.26656 4.3454 7.24784 6.90368 7.09944 9.58333H12.9006ZM7.09945 10.4167H12.9006C12.7522 13.0963 11.7334 15.6546 10 17.7025C8.26656 15.6546 7.24784 13.0963 7.09945 10.4167ZM6.26492 10.4167H2.09411C2.2944 14.2792 5.26321 17.4094 9.05414 17.8607C7.38262 15.7299 6.40567 13.1305 6.26492 10.4167ZM10.9459 17.8607C12.6174 15.7299 13.5943 13.1305 13.7351 10.4167H17.9059C17.7056 14.2792 14.7368 17.4094 10.9459 17.8607ZM10 18.75C14.8325 18.75 18.75 14.8325 18.75 10C18.75 5.16751 14.8325 1.25 10 1.25C5.16751 1.25 1.25 5.16751 1.25 10C1.25 14.8325 5.16751 18.75 10 18.75Z" fill="#0C2739"/>
</svg>
