<svg width="24" height="25" viewBox="0 0 24 25" fill="none" xmlns="http://www.w3.org/2000/svg">
<path fill-rule="evenodd" clip-rule="evenodd" d="M3.56445 10.9481C4.0826 6.75 7.66176 3.5 12 3.5C12.3106 3.5 12.6174 3.51666 12.9193 3.54914C12.8732 3.62485 12.8176 3.69794 12.7531 3.76676C12.6843 3.83994 12.589 3.9012 12.381 4.02356L12.3592 4.03639C12.1813 4.14077 11.9042 4.30347 11.6751 4.55551L11.6656 4.56614C11.2618 5.02759 11.2032 5.6149 11.2937 6.08253L11.2979 6.10271C11.3605 6.3845 11.485 6.61986 11.5627 6.7668L11.5627 6.76682L11.5718 6.78395C11.6618 6.9544 11.6938 7.02298 11.7084 7.08505C11.7259 7.16532 11.73 7.26439 11.7232 7.43026C11.722 7.45791 11.7204 7.48964 11.7186 7.52453L11.7186 7.52456V7.52458L11.7186 7.5246C11.7112 7.66703 11.7011 7.86222 11.711 8.04846C11.7169 8.16983 11.7238 8.28351 11.7303 8.39177L11.7303 8.3919L11.7303 8.39199C11.7483 8.69093 11.7638 8.94866 11.7509 9.21347L11.7509 9.21347L11.7506 9.22119C11.7321 9.70031 11.4188 10.1519 10.9608 10.3523C10.9089 10.3748 10.8535 10.3958 10.7782 10.4245L10.7614 10.4309C10.6839 10.4605 10.5853 10.4983 10.4859 10.5435C10.2888 10.6331 10.03 10.7765 9.82011 11.0344C9.63208 11.2619 9.54055 11.5173 9.49076 11.6563L9.49075 11.6563L9.48661 11.6679C9.42288 11.8454 9.40682 11.8803 9.39136 11.9018C9.3861 11.9091 9.38097 11.9165 9.37597 11.924C9.37404 11.9269 9.35851 11.9451 9.32368 11.9576C9.28938 11.9698 9.26763 11.9654 9.26488 11.9645L9.26491 11.9644L9.25163 11.9605C9.22893 11.9538 9.18112 11.9323 9.06238 11.8365C9.03412 11.8136 9.00517 11.7895 8.9712 11.7611L8.9648 11.7557C8.93383 11.7298 8.89828 11.7 8.86201 11.6706C8.78463 11.6076 8.68754 11.5323 8.57553 11.4628L8.57555 11.4627L8.56873 11.4586C8.08958 11.1682 7.54747 11.0723 7.07923 11.0603L7.0783 11.0602C6.63935 11.0495 6.19537 11.1158 5.83269 11.1699H5.83269L5.71142 11.1879L5.71141 11.1878L5.69972 11.1897C5.29117 11.2561 4.92837 11.3102 4.59338 11.2992C4.26911 11.2885 4.03255 11.2176 3.85139 11.0811C3.76336 11.0147 3.66545 10.9707 3.56445 10.9481ZM8.78792 19.8721C5.86152 18.6769 3.75047 15.8972 3.52079 12.5992C3.86481 12.7353 4.21673 12.7876 4.54415 12.7984C5.04418 12.8148 5.54389 12.7347 5.93449 12.6713L6.04204 12.6554C6.42658 12.5987 6.73947 12.5525 7.04091 12.5598C7.35068 12.5677 7.60725 12.631 7.7879 12.7394C7.84609 12.7758 7.88938 12.8121 7.96284 12.8738C8.00349 12.9078 8.05337 12.9497 8.12013 13.0036C8.27283 13.1269 8.50782 13.3038 8.82184 13.3976C9.48903 13.6039 10.2337 13.3306 10.6166 12.7671C10.7622 12.5608 10.8431 12.3313 10.8869 12.207L10.8869 12.207L10.8869 12.207L10.8984 12.1747C10.9246 12.1017 10.9409 12.0594 10.9567 12.0259C10.968 12.0019 10.9747 11.9921 10.9762 11.9902L10.9762 11.9902L10.9835 11.9813C10.9835 11.9812 10.9846 11.9799 10.9876 11.9771C10.9908 11.9742 10.9965 11.9695 11.0057 11.9632C11.0253 11.9497 11.0562 11.9319 11.1066 11.909C11.1584 11.8855 11.2168 11.8626 11.2958 11.8325L11.317 11.8245C11.3862 11.7981 11.4732 11.765 11.5582 11.7282L11.5601 11.7274C12.5205 11.308 13.2062 10.3617 13.2493 9.28284C13.2663 8.92952 13.2436 8.5568 13.2243 8.23889L13.2243 8.23887V8.23886L13.2243 8.23884L13.2243 8.23867L13.2242 8.23807L13.2242 8.23775C13.2185 8.14428 13.2131 8.05556 13.2091 7.97347L13.2089 7.96953C13.2035 7.86907 13.208 7.77891 13.2144 7.65122L13.2144 7.65107L13.2144 7.65077C13.2168 7.6038 13.2194 7.55176 13.2219 7.49227C13.2299 7.29725 13.2342 7.03663 13.1722 6.75731L13.1722 6.75731L13.1712 6.75289C13.1091 6.48137 12.9867 6.25052 12.911 6.10767L12.911 6.10767L12.8982 6.08358C12.8141 5.92426 12.7802 5.85123 12.7644 5.78672C12.7402 5.64955 12.7745 5.57978 12.7917 5.5573C12.8528 5.49279 12.9427 5.4334 13.1415 5.31647L13.1688 5.30044C13.345 5.19717 13.6177 5.03724 13.8467 4.79352L13.8472 4.79297C14.0961 4.52741 14.3007 4.2082 14.4306 3.85259C17.9406 4.89818 20.5 8.1502 20.5 12C20.5 13.2881 20.2135 14.5093 19.7007 15.6033L20.5914 17.1203C21.486 15.6226 22 13.8713 22 12C22 6.47715 17.5228 2 12 2C6.47715 2 2 6.47715 2 12C2 16.109 4.47825 19.6391 8.02159 21.1773L8.78792 19.8721Z" fill="#161721"/>
<path fill-rule="evenodd" clip-rule="evenodd" d="M9.38096 21.3354L14.4444 12.5392C14.882 11.6536 16.1144 11.6536 16.552 12.5392L21.6154 21.3354C22.0262 22.1564 21.4458 23.125 20.5617 23.125L10.4347 23.125C9.55063 23.125 8.97909 22.1472 9.38096 21.3354ZM15.5 15.7312C15.7589 15.7312 15.9688 15.9411 15.9688 16.2V18.4875C15.9688 18.7464 15.7589 18.9562 15.5 18.9562C15.2411 18.9562 15.0312 18.7464 15.0312 18.4875V16.2C15.0312 15.9411 15.2411 15.7312 15.5 15.7312ZM15.5 20.675C15.7589 20.675 15.9688 20.4651 15.9688 20.2062C15.9688 19.9473 15.7589 19.7375 15.5 19.7375C15.2411 19.7375 15.0312 19.9473 15.0312 20.2062C15.0312 20.4651 15.2411 20.675 15.5 20.675Z" fill="#FFC037"/>
</svg>
