<svg width="24" height="24" viewBox="0 0 24 24" fill="none" xmlns="http://www.w3.org/2000/svg">
<path fill-rule="evenodd" clip-rule="evenodd" d="M7.28999 7.93C7.28999 6.72602 8.26601 5.75 9.46999 5.75C10.674 5.75 11.65 6.72602 11.65 7.93C11.65 9.13398 10.674 10.11 9.46999 10.11C8.26601 10.11 7.28999 9.13398 7.28999 7.93ZM9.46999 4.25C7.43759 4.25 5.78999 5.89759 5.78999 7.93C5.78999 9.96241 7.43759 11.61 9.46999 11.61C11.5024 11.61 13.15 9.96241 13.15 7.93C13.15 5.89759 11.5024 4.25 9.46999 4.25ZM4.29999 17.33C4.29999 15.7956 5.54282 14.56 7.06999 14.56H12.34C13.3939 14.56 14.3072 15.1457 14.7764 16.0102C14.9739 16.3743 15.4292 16.5093 15.7933 16.3117C16.1574 16.1142 16.2923 15.6589 16.0948 15.2948C15.374 13.9666 13.9662 13.06 12.34 13.06H7.06999C4.71717 13.06 2.79999 14.9644 2.79999 17.33V19C2.79999 19.4142 3.13577 19.75 3.54999 19.75C3.9642 19.75 4.29999 19.4142 4.29999 19V17.33Z" fill="#161721"/>
<path fill-rule="evenodd" clip-rule="evenodd" d="M21.43 18.92C21.43 19.3343 21.0942 19.67 20.68 19.67L13.75 19.67C13.3358 19.67 13 19.3343 13 18.92C13 18.5058 13.3358 18.17 13.75 18.17L20.68 18.17C21.0942 18.17 21.43 18.5058 21.43 18.92Z" fill="#161721"/>
<path fill-rule="evenodd" clip-rule="evenodd" d="M21.3716 18.3909C21.6628 18.6835 21.6628 19.1565 21.3716 19.4491L19.2116 21.6191C18.9194 21.9127 18.4445 21.9138 18.1509 21.6216C17.8574 21.3293 17.8563 20.8545 18.1485 20.5609L19.7818 18.92L18.1485 17.2791C17.8563 16.9855 17.8574 16.5107 18.1509 16.2184C18.4445 15.9262 18.9194 15.9273 19.2116 16.2209L21.3716 18.3909Z" fill="#161721"/>
</svg>
