<svg width="24" height="24" viewBox="0 0 24 24" fill="none" xmlns="http://www.w3.org/2000/svg">
<path fill-rule="evenodd" clip-rule="evenodd" d="M11.4697 15.4397C11.7626 15.1468 12.2374 15.1468 12.5303 15.4397L15.1703 18.0797C15.4632 18.3725 15.4632 18.8474 15.1703 19.1403C14.8775 19.4332 14.4026 19.4332 14.1097 19.1403L11.4697 16.5003C11.1768 16.2074 11.1768 15.7326 11.4697 15.4397Z" fill="#161721"/>
<path fill-rule="evenodd" clip-rule="evenodd" d="M11.4697 21.7803C11.1768 21.4874 11.1768 21.0126 11.4697 20.7197L14.1097 18.0797C14.4026 17.7868 14.8775 17.7868 15.1703 18.0797C15.4632 18.3726 15.4632 18.8474 15.1703 19.1403L12.5303 21.7803C12.2374 22.0732 11.7626 22.0732 11.4697 21.7803Z" fill="#161721"/>
<path fill-rule="evenodd" clip-rule="evenodd" d="M9.24967 4.85964C9.54256 4.56675 10.0174 4.56674 10.3103 4.85964L12.9503 7.49964C13.2432 7.79253 13.2432 8.2674 12.9503 8.5603C12.6575 8.85319 12.1826 8.85319 11.8897 8.5603L9.24967 5.9203C8.95678 5.62741 8.95677 5.15253 9.24967 4.85964Z" fill="#161721"/>
<path fill-rule="evenodd" clip-rule="evenodd" d="M9.24967 5.92034C8.95677 5.62745 8.95678 5.15258 9.24967 4.85968L11.8897 2.21968C12.1826 1.92679 12.6575 1.92679 12.9503 2.21969C13.2432 2.51258 13.2432 2.98745 12.9503 3.28035L10.3103 5.92035C10.0174 6.21324 9.54256 6.21324 9.24967 5.92034Z" fill="#161721"/>
<path fill-rule="evenodd" clip-rule="evenodd" d="M9.53 5.38997C9.53 4.97575 9.86578 4.63997 10.28 4.63997L15.77 4.63997C17.7442 4.63997 19.35 6.24575 19.35 8.21997L19.35 15.78C19.35 16.1942 19.0142 16.53 18.6 16.53C18.1858 16.53 17.85 16.1942 17.85 15.78L17.85 8.21997C17.85 7.07419 16.9158 6.13997 15.77 6.13997L10.28 6.13997C9.86578 6.13997 9.53 5.80418 9.53 5.38997Z" fill="#161721"/>
<path fill-rule="evenodd" clip-rule="evenodd" d="M6.14001 15.78C6.14001 16.9258 7.07422 17.86 8.22 17.86L14.31 17.86C14.7242 17.86 15.06 18.1958 15.06 18.61C15.06 19.0242 14.7242 19.36 14.31 19.36L8.22 19.36C6.24578 19.36 4.64001 17.7542 4.64001 15.78L4.64001 8.22998C4.64001 7.81577 4.9758 7.47998 5.39001 7.47998C5.80423 7.47998 6.14001 7.81577 6.14001 8.22998L6.14001 15.78Z" fill="#161721"/>
<path d="M20.5 17C20.5 18.1046 19.6046 19 18.5 19C17.3954 19 16.5 18.1046 16.5 17C16.5 15.8954 17.3954 15 18.5 15C19.6046 15 20.5 15.8954 20.5 17Z" fill="#161721"/>
<path d="M7.5 6.5C7.5 7.60457 6.60457 8.5 5.5 8.5C4.39543 8.5 3.5 7.60457 3.5 6.5C3.5 5.39543 4.39543 4.5 5.5 4.5C6.60457 4.5 7.5 5.39543 7.5 6.5Z" fill="#161721"/>
</svg>
