<svg width="16" height="16" viewBox="0 0 16 16" fill="none" xmlns="http://www.w3.org/2000/svg">
<path fill-rule="evenodd" clip-rule="evenodd" d="M12.755 3.6371C12.7394 3.58072 12.7236 3.5671 12.7235 3.56708C12.7235 3.56705 12.7099 3.55125 12.6535 3.53566C12.5916 3.51854 12.4845 3.50419 12.3198 3.5172C11.9827 3.54384 11.5099 3.67635 10.9212 3.95277C10.3072 4.241 9.61979 4.6608 8.90374 5.19602C9.28409 5.52223 9.66474 5.8744 10.0404 6.25002C10.4161 6.62572 10.7683 7.00647 11.0946 7.3869C11.6298 6.67084 12.0496 5.9834 12.3379 5.36946C12.6143 4.78071 12.7468 4.30788 12.7734 3.9708C12.7864 3.80609 12.7721 3.69905 12.755 3.6371ZM5.36919 3.95277C5.98311 4.24101 6.67055 4.6608 7.3866 5.19602C7.00625 5.52223 6.6256 5.87439 6.24998 6.25001C5.87428 6.62572 5.52203 7.00646 5.19576 7.3869C4.66053 6.67084 4.24073 5.9834 3.95249 5.36947C3.67608 4.78072 3.54357 4.30788 3.51693 3.9708C3.50391 3.80609 3.51826 3.69906 3.53539 3.63711C3.55085 3.58119 3.56651 3.56733 3.5668 3.56708L3.5668 3.56708L3.5668 3.56708C3.56705 3.56679 3.58092 3.55113 3.63683 3.53567C3.69878 3.51854 3.80582 3.50419 3.97052 3.51721C4.3076 3.54384 4.78044 3.67636 5.36919 3.95277ZM2.89505 2.89533C3.71581 2.07457 5.85985 2.82079 8.14517 4.57905C10.4305 2.82079 12.5745 2.07456 13.3953 2.89532C14.2161 3.71609 13.4698 5.86015 11.7115 8.14549C13.4696 10.4307 14.2158 12.5746 13.3951 13.3953C12.5743 14.2161 10.4304 13.4699 8.14517 11.7118C5.85995 13.4699 3.71603 14.2161 2.89529 13.3953C2.07457 12.5746 2.8207 10.4307 4.5788 8.14548C2.82052 5.86015 2.07428 3.71609 2.89505 2.89533ZM9.36861 6.92177C9.77536 7.32852 10.1509 7.739 10.4924 8.14547C10.151 8.55185 9.7755 8.96223 9.36885 9.36888C8.96211 9.77562 8.55164 10.1512 8.14517 10.4927C7.7387 10.1512 7.32823 9.77563 6.92149 9.36889C6.51484 8.96223 6.13939 8.55185 5.79791 8.14547C6.13945 7.739 6.51499 7.32851 6.92174 6.92177C7.32839 6.51511 7.73878 6.13965 8.14517 5.79817C8.55156 6.13965 8.96195 6.51511 9.36861 6.92177ZM10.0406 10.0406C9.66491 10.4163 9.28418 10.7686 8.90376 11.0948C9.61971 11.63 10.3071 12.0497 10.9209 12.3379C11.5097 12.6143 11.9825 12.7468 12.3196 12.7734C12.4843 12.7865 12.5913 12.7721 12.6533 12.755C12.7097 12.7394 12.7233 12.7236 12.7233 12.7236C12.7233 12.7236 12.7391 12.7099 12.7547 12.6535C12.7718 12.5916 12.7862 12.4846 12.7732 12.3199C12.7465 11.9828 12.614 11.5099 12.3376 10.9212C12.0494 10.3073 11.6297 9.62001 11.0946 8.90406C10.7684 9.28439 10.4162 9.66503 10.0406 10.0406ZM6.24974 10.0406C6.62543 10.4163 7.00616 10.7686 7.38658 11.0948C6.67063 11.63 5.98328 12.0497 5.36943 12.3379C4.78068 12.6143 4.30785 12.7468 3.97077 12.7734C3.80606 12.7865 3.69902 12.7721 3.63707 12.755C3.58069 12.7394 3.56707 12.7236 3.56705 12.7236C3.56702 12.7235 3.55122 12.7099 3.53563 12.6535C3.51851 12.5916 3.50416 12.4846 3.51717 12.3199C3.54381 11.9828 3.67632 11.5099 3.95274 10.9212C4.24093 10.3073 4.66065 9.62 5.19578 8.90406C5.52198 9.28439 5.87413 9.66503 6.24974 10.0406ZM7.99999 9.00001C8.55227 9.00001 8.99999 8.55229 8.99999 8.00001C8.99999 7.44772 8.55227 7.00001 7.99999 7.00001C7.44771 7.00001 6.99999 7.44772 6.99999 8.00001C6.99999 8.55229 7.44771 9.00001 7.99999 9.00001Z" fill="#161721"/>
</svg>
