<svg width="24" height="24" viewBox="0 0 24 24" fill="none" xmlns="http://www.w3.org/2000/svg">
<path fill="currentColor" d="M21.8,15.9l-2.6-2.6c0,0,0,0,0,0C19,13.1,18.8,13,18.6,13c-0.2,0-0.4,0.1-0.5,0.2l-2.6,2.6
	c-0.3,0.3-0.3,0.8,0,1.1c0.3,0.3,0.8,0.3,1.1,0l1.3-1.3V17c0,1.2-1,2.2-2.2,2.2h-7c-1.1,0-2-0.8-2.2-1.9c1-0.3,1.7-1.3,1.7-2.4
	c0-1.1-0.7-2.1-1.7-2.4V8c0-1.2,1-2.2,2.2-2.2h7c1,0,1.9,0.7,2.2,1.7L16,9.1c-0.2,0.2-0.2,0.5,0,0.7l2.1,2.1c0.2,0.2,0.5,0.2,0.7,0
	L21,9.9c0.2-0.2,0.2-0.5,0-0.7l-1.7-1.7c-0.3-1.8-1.8-3.2-3.7-3.2h-7C6.5,4.2,4.9,5.9,4.9,8v4.6c-1,0.3-1.8,1.3-1.8,2.4
	c0,1.1,0.8,2.1,1.8,2.4c0.2,1.9,1.8,3.4,3.7,3.4h7c2.1,0,3.8-1.7,3.8-3.8v-1.4l1.4,1.4c0.3,0.3,0.8,0.3,1.1,0
	C22.1,16.6,22.1,16.2,21.8,15.9z"/>
</svg>
