<svg width="24" height="24" viewBox="0 0 24 24" fill="none" xmlns="http://www.w3.org/2000/svg">
<path fill-rule="evenodd" clip-rule="evenodd" d="M1.75 22C1.49112 22 1.26287 21.8688 1.12809 21.6693C1.04722 21.5496 1 21.4053 1 21.25V4.25C1 3.83579 1.33579 3.5 1.75 3.5C2.16421 3.5 2.5 3.83579 2.5 4.25L2.5 20.5H22.75C23.1642 20.5 23.5 20.8358 23.5 21.25C23.5 21.6642 23.1642 22 22.75 22H1.75ZM21.1002 6.69982C21.3486 6.36837 21.2813 5.89829 20.9498 5.64987C20.6184 5.40145 20.1483 5.46876 19.8999 5.80021L14.3302 13.2314L11.1919 10.0294C11.0399 9.87436 10.8283 9.79277 10.6116 9.80569C10.3949 9.81861 10.1945 9.92478 10.062 10.0968L4.90579 16.7924C4.65306 17.1206 4.71422 17.5915 5.0424 17.8442C5.37058 18.097 5.8415 18.0358 6.09423 17.7076L10.7243 11.6952L13.8706 14.9054C14.0238 15.0617 14.2375 15.1433 14.4558 15.1288C14.6741 15.1144 14.8752 15.0053 15.0064 14.8303L21.1002 6.69982Z" fill="#161721"/>
</svg>
