<svg width="16" height="16" viewBox="0 0 16 16" fill="none" xmlns="http://www.w3.org/2000/svg">
<path fill-rule="evenodd" clip-rule="evenodd" d="M1.85835 10.6667C1.85835 6.79764 4.53856 3.525 8.00001 3.525C11.4615 3.525 14.1417 6.79764 14.1417 10.6667C14.1417 10.7055 14.137 10.7432 14.1282 10.7793C14.3056 10.8718 14.4518 11.0159 14.5469 11.1917H14.6667C14.929 11.1917 15.1417 11.4043 15.1417 11.6667C15.1417 11.929 14.929 12.1417 14.6667 12.1417H14.5469C14.3778 12.4543 14.0471 12.6667 13.6667 12.6667C13.2863 12.6667 12.9555 12.4543 12.7865 12.1417H8.8802C8.71114 12.4543 8.38037 12.6667 8 12.6667C7.61963 12.6667 7.28886 12.4543 7.11979 12.1417H3.21354C3.04448 12.4543 2.71371 12.6667 2.33334 12.6667C1.95297 12.6667 1.6222 12.4543 1.45313 12.1417H1.33334C1.071 12.1417 0.858337 11.929 0.858337 11.6667C0.858337 11.4043 1.071 11.1917 1.33334 11.1917H1.45313C1.5482 11.0159 1.6944 10.8718 1.87179 10.7793C1.863 10.7432 1.85835 10.7055 1.85835 10.6667ZM2.79491 10.7793C2.97229 10.8718 3.11848 11.0159 3.21354 11.1917H7.11979C7.21486 11.0159 7.36106 10.8718 7.53845 10.7793C7.52967 10.7432 7.52501 10.7055 7.52501 10.6667C7.52501 9.48306 6.49656 8.475 5.16668 8.475C3.83681 8.475 2.80835 9.48306 2.80835 10.6667C2.80835 10.7055 2.80369 10.7432 2.79491 10.7793ZM12.7865 11.1917H8.8802C8.78514 11.0159 8.63895 10.8718 8.46157 10.7793C8.47036 10.7432 8.47501 10.7055 8.47501 10.6667C8.47501 8.90494 6.96614 7.525 5.16668 7.525C4.46953 7.525 3.81599 7.73213 3.27691 8.08833C4.10733 5.93032 5.94463 4.475 8.00001 4.475C10.7979 4.475 13.1917 7.17169 13.1917 10.6667C13.1917 10.7055 13.1963 10.7432 13.2051 10.7793C13.0277 10.8718 12.8815 11.0159 12.7865 11.1917Z" fill="#161721"/>
</svg>
