<svg width="24" height="24" viewBox="0 0 24 24" fill="none" xmlns="http://www.w3.org/2000/svg">
<path fill-rule="evenodd" clip-rule="evenodd" d="M12 4.25C6.61522 4.25 2.25 8.61522 2.25 14V15.5V15.5725C1.77187 15.7148 1.37937 16.0559 1.16841 16.5H0.75C0.335786 16.5 0 16.8358 0 17.25C0 17.6642 0.335786 18 0.75 18H1.16841C1.44927 18.5912 2.0519 19 2.75 19C3.4481 19 4.05073 18.5912 4.33159 18H10.1684C10.4493 18.5912 11.0519 19 11.75 19C12.4481 19 13.0507 18.5912 13.3316 18H19.1684C19.4493 18.5912 20.0519 19 20.75 19C21.4481 19 22.0507 18.5912 22.3316 18H23.25C23.6642 18 24 17.6642 24 17.25C24 16.8358 23.6642 16.5 23.25 16.5H22.3316C22.2003 16.2237 21.9988 15.9872 21.75 15.8137V14C21.75 8.61522 17.3848 4.25 12 4.25ZM4.33159 16.5H10.1684C10.3794 16.0559 10.7719 15.7148 11.25 15.5725V15.5C11.25 13.4289 9.57107 11.75 7.5 11.75C5.42893 11.75 3.75 13.4289 3.75 15.5V15.8137C3.99875 15.9872 4.20032 16.2237 4.33159 16.5ZM19.1684 16.5C19.3794 16.0559 19.7719 15.7148 20.25 15.5725V14C20.25 9.44365 16.5564 5.75 12 5.75C8.33047 5.75 5.2205 8.14576 4.1489 11.4585C5.05809 10.7038 6.22605 10.25 7.5 10.25C10.3995 10.25 12.75 12.6005 12.75 15.5V15.8137C12.9988 15.9872 13.2003 16.2237 13.3316 16.5H19.1684Z" fill="#161721"/>
</svg>
