<svg width="16" height="16" viewBox="0 0 16 16" fill="none" xmlns="http://www.w3.org/2000/svg">
<path fill-rule="evenodd" clip-rule="evenodd" d="M12.2786 1.02499C12.8033 1.02499 13.2286 1.45032 13.2286 1.97499L13.2286 2.97743L13.4215 3.1703L14.9064 4.65522L15.5781 5.32697L14.9064 5.99872L13.4215 7.48365L12.7497 8.1554L12.078 7.48365L10.593 5.99872L9.92129 5.32697L10.593 4.65522L12.078 3.1703L12.2786 2.96966V1.97499L2.95528 1.97499L2.95528 5.62247C4.10171 5.72616 5 6.6898 5 7.86324C5 9.03661 4.10182 10.0002 2.95548 10.104L2.95548 13.8217L12.2788 13.8217L12.2788 10.2912L11.1572 11.4128C10.9717 11.5983 10.6709 11.5983 10.4854 11.4128C10.2999 11.2273 10.2999 10.9266 10.4854 10.7411L12.4854 8.74109C12.6709 8.55559 12.9717 8.55559 13.1572 8.74109L15.1572 10.7411C15.3427 10.9266 15.3427 11.2273 15.1572 11.4128C14.9717 11.5983 14.6709 11.5983 14.4854 11.4128L13.2288 10.1562L13.2288 13.8217C13.2288 14.3464 12.8035 14.7717 12.2788 14.7717H2.95548C2.43081 14.7717 2.00548 14.3464 2.00548 13.8217L2.00548 9.98714C1.12872 9.67981 0.5 8.84495 0.5 7.86324C0.5 6.8816 1.12863 6.04679 2.00528 5.73941L2.00528 1.97499C2.00528 1.45032 2.43061 1.02499 2.95528 1.02499L12.2786 1.02499ZM4.05 7.86324C4.05 8.58121 3.46797 9.16324 2.75 9.16324C2.03203 9.16324 1.45 8.58121 1.45 7.86324C1.45 7.14527 2.03203 6.56324 2.75 6.56324C3.46797 6.56324 4.05 7.14527 4.05 7.86324ZM12.7497 6.8119L14.2346 5.32697L12.7497 3.84205L11.2648 5.32697L12.7497 6.8119Z" fill="#0C2739"/>
</svg>
