<svg width="16" height="16" viewBox="0 0 16 16" fill="none" xmlns="http://www.w3.org/2000/svg">
<path fill-rule="evenodd" clip-rule="evenodd" d="M9.33589 6.33589C9.15039 6.52138 8.84964 6.52138 8.66414 6.33589L6.66414 4.33589C6.47864 4.15039 6.47864 3.84963 6.66414 3.66413L8.66414 1.66413C8.84964 1.47863 9.15039 1.47863 9.33589 1.66413C9.52139 1.84963 9.52139 2.15039 9.33589 2.33588L8.14678 3.525H11.4035C12.1905 3.525 12.8285 4.163 12.8285 4.95V12C12.8285 12.0388 12.8239 12.0765 12.8151 12.1127C13.1351 12.2794 13.3535 12.6142 13.3535 13C13.3535 13.5523 12.9058 14 12.3535 14C11.8012 14 11.3535 13.5523 11.3535 13C11.3535 12.6142 11.572 12.2795 11.892 12.1127C11.8832 12.0766 11.8785 12.0388 11.8785 12V4.95C11.8785 4.68767 11.6659 4.475 11.4035 4.475H8.14676L9.33589 5.66413C9.52139 5.84963 9.52139 6.15039 9.33589 6.33589ZM4 4.00001C4 4.3858 3.78154 4.72056 3.46157 4.88734C3.47035 4.92345 3.47501 4.96118 3.47501 5V12.05C3.47501 12.3123 3.68768 12.525 3.95001 12.525H7.20675L6.01763 11.3359C5.83213 11.1504 5.83213 10.8496 6.01763 10.6641C6.20313 10.4786 6.50389 10.4786 6.68939 10.6641L8.68939 12.6641C8.87488 12.8496 8.87488 13.1504 8.68939 13.3359L6.68939 15.3359C6.50389 15.5214 6.20313 15.5214 6.01763 15.3359C5.83213 15.1504 5.83213 14.8496 6.01763 14.6641L7.20676 13.475H3.95001C3.163 13.475 2.52501 12.837 2.52501 12.05V5C2.52501 4.96119 2.52967 4.92346 2.53845 4.88735C2.21847 4.72058 2 4.3858 2 4.00001C2 3.44772 2.44772 3.00001 3 3.00001C3.55228 3.00001 4 3.44772 4 4.00001Z" fill="#161721"/>
</svg>
