<svg width="24" height="24" viewBox="0 0 24 24" fill="none" xmlns="http://www.w3.org/2000/svg">
<path fill-rule="evenodd" clip-rule="evenodd" d="M10 1.5C10.4142 1.5 10.75 1.82798 10.75 2.23256V3.49944C10.75 3.49962 10.75 3.49981 10.75 3.5V6.5C10.75 6.50035 10.75 6.50069 10.75 6.50104V9.99897L10.75 10V13L10.75 13.0012V16.4988L10.75 16.5V19.5L10.75 19.5013V21.7674C10.75 22.172 10.4142 22.5 10 22.5C9.58579 22.5 9.25 22.172 9.25 21.7674V20.5H6.75C6.19772 20.5 5.75 20.0523 5.75 19.5L5.75 16.5C5.75 15.9477 6.19772 15.5 6.75 15.5H9.25V14L4.75 14C4.19772 14 3.75 13.5523 3.75 13L3.75 10C3.75 9.44771 4.19772 9 4.75 9L9.25 9V7.5L2.75 7.5C2.19771 7.5 1.75 7.05228 1.75 6.5V3.5C1.75 2.94771 2.19772 2.5 2.75 2.5L9.25 2.5V2.23256C9.25 1.82798 9.58579 1.5 10 1.5ZM9.25 4L3.25 4L3.25 6L9.25 6L9.25 4ZM9.25 10.5L9.25 12.5L5.25 12.5V10.5L9.25 10.5ZM9.25 17H7.25L7.25 19H9.25L9.25 17ZM14.05 4V6H16.45V4H14.05ZM13.45 2.5C12.7873 2.5 12.25 2.94772 12.25 3.5V6.5C12.25 7.05228 12.7873 7.5 13.45 7.5H17.05C17.7127 7.5 18.25 7.05228 18.25 6.5V3.5C18.25 2.94772 17.7127 2.5 17.05 2.5H13.45ZM13.9643 12.5V10.5H18.5357V12.5H13.9643ZM12.25 10C12.25 9.44772 12.7617 9 13.3929 9H19.1071C19.7383 9 20.25 9.44772 20.25 10V13C20.25 13.5523 19.7383 14 19.1071 14H13.3929C12.7617 14 12.25 13.5523 12.25 13V10ZM13.9167 17V19H20.5833V17H13.9167ZM13.3611 15.5C12.7475 15.5 12.25 15.9477 12.25 16.5V19.5C12.25 20.0523 12.7475 20.5 13.3611 20.5H21.1389C21.7525 20.5 22.25 20.0523 22.25 19.5V16.5C22.25 15.9477 21.7525 15.5 21.1389 15.5H13.3611Z" fill="#161721"/>
</svg>
