<svg width="16" height="16" viewBox="0 0 16 16" fill="none" xmlns="http://www.w3.org/2000/svg">
<path fill-rule="evenodd" clip-rule="evenodd" d="M2.44442 2.33333V13.6667H13.5555V2.33333H2.44442ZM2.07405 1.33333C1.66495 1.33333 1.33331 1.63181 1.33331 2V14C1.33331 14.3682 1.66495 14.6667 2.07405 14.6667H13.9259C14.335 14.6667 14.6666 14.3682 14.6666 14V2C14.6666 1.63181 14.335 1.33333 13.9259 1.33333H2.07405Z" fill="black"/>
<path fill-rule="evenodd" clip-rule="evenodd" d="M11 6.33334L11 5L5 5L5 6.33334L11 6.33334ZM11.3333 7.33334C11.7015 7.33334 12 7.03486 12 6.66667L12 4.66667C12 4.29848 11.7015 4 11.3333 4L4.66667 4C4.29848 4 4 4.29848 4 4.66667L4 6.66667C4 7.03486 4.29848 7.33334 4.66667 7.33334L11.3333 7.33334Z" fill="black"/>
<path fill-rule="evenodd" clip-rule="evenodd" d="M11 11L11 9.66667L5 9.66667L5 11L11 11ZM11.3333 12C11.7015 12 12 11.7015 12 11.3333L12 9.33333C12 8.96514 11.7015 8.66667 11.3333 8.66667L4.66667 8.66667C4.29848 8.66667 4 8.96514 4 9.33333L4 11.3333C4 11.7015 4.29848 12 4.66667 12L11.3333 12Z" fill="black"/>
</svg>
