<svg width="16" height="16" viewBox="0 0 16 16" fill="none" xmlns="http://www.w3.org/2000/svg">
<path d="M7.33333 2.66667C5.86667 2.66667 4.66667 3.86667 4.66667 5.33334C4.66667 6.8 5.86667 8 7.33333 8C8.8 8 10 6.8 10 5.33334C10 3.86667 8.8 2.66667 7.33333 2.66667ZM7.33333 9.33334C4.4 9.33334 2 11.0333 2 12.5V13.3333H8.33333C8.13333 12.8 8 12.2667 8 11.6667C8 10.8667 8.2 10.1333 8.6 9.4C8.2 9.4 7.8 9.33334 7.33333 9.33334Z" fill="#161721"/>
<path fill-rule="evenodd" clip-rule="evenodd" d="M13.0367 11.436L11.6185 12.736C11.4932 12.8509 11.4847 13.0456 11.5996 13.1709C11.7144 13.2962 11.9091 13.3047 12.0344 13.1898L14.0668 11.3269C14.1304 11.2686 14.1666 11.1863 14.1666 11.1C14.1666 11.0137 14.1304 10.9314 14.0668 10.8731L12.0344 9.01016C11.9091 8.89529 11.7144 8.90376 11.5996 9.02907C11.4847 9.15438 11.4932 9.34908 11.6185 9.46395L13.0983 10.8204H9.25799C9.088 10.8204 8.9502 10.9582 8.9502 11.1282C8.9502 11.2982 9.088 11.436 9.25799 11.436H13.0367Z" fill="#161721"/>
</svg>
