<svg width="25" height="24" viewBox="0 0 25 24" fill="none" xmlns="http://www.w3.org/2000/svg">
<path fill-rule="evenodd" clip-rule="evenodd" d="M17.0711 4.88701C16.2004 5.24555 15.249 5.76198 14.2634 6.42284C15.0273 7.03635 15.7902 7.71917 16.5355 8.46447C17.2808 9.20977 17.9636 9.97266 18.5772 10.7366C19.238 9.75101 19.7544 8.79962 20.113 7.92887C20.5161 6.94987 20.6902 6.14401 20.6947 5.54646C20.6991 4.95633 20.5433 4.69404 20.4246 4.57537C20.306 4.4567 20.0437 4.30087 19.4535 4.30529C18.856 4.30978 18.0501 4.4839 17.0711 4.88701ZM21.4853 3.51471C20.0147 2.04409 16.5988 2.93811 13 5.47116C9.40116 2.93812 5.98533 2.04411 4.51471 3.51472C3.04409 4.98534 3.93811 8.40117 6.47115 12C3.93812 15.5988 3.0441 19.0147 4.51472 20.4853C5.98534 21.9559 9.40116 21.0619 13 18.5288C16.5988 21.0619 20.0147 21.9559 21.4853 20.4853C22.9559 19.0147 22.0619 15.5988 19.5288 12C22.0619 8.40117 22.9559 4.98533 21.4853 3.51471ZM5.88701 7.92888C6.24555 8.79962 6.76197 9.75102 7.42283 10.7366C8.03634 9.97266 8.71916 9.20976 9.46447 8.46446C10.2098 7.71916 10.9726 7.03635 11.7365 6.42284C10.751 5.76199 9.79961 5.24556 8.92887 4.88702C7.94988 4.48391 7.14401 4.30979 6.54647 4.30531C5.95633 4.30088 5.69404 4.45671 5.57537 4.57538C5.4567 4.69405 5.30087 4.95635 5.3053 5.54648C5.30978 6.14403 5.4839 6.94989 5.88701 7.92888ZM10.5251 9.52512C9.70746 10.3428 8.97543 11.1763 8.33642 12C8.97542 12.8237 9.70745 13.6572 10.5251 14.4749C11.3428 15.2925 12.1762 16.0246 13 16.6636C13.8237 16.0246 14.6572 15.2925 15.4749 14.4749C16.2925 13.6572 17.0246 12.8237 17.6636 12C17.0246 11.1763 16.2925 10.3428 15.4749 9.52513C14.6572 8.70746 13.8237 7.97543 13 7.33643C12.1763 7.97543 11.3428 8.70746 10.5251 9.52512ZM5.88702 16.0711C6.24556 15.2004 6.76198 14.249 7.42283 13.2635C8.03634 14.0273 8.71916 14.7902 9.46446 15.5355C10.2098 16.2808 10.9726 16.9637 11.7365 17.5772C10.751 18.238 9.79962 18.7544 8.92887 19.113C7.94988 19.5161 7.14402 19.6902 6.54647 19.6947C5.95634 19.6991 5.69405 19.5433 5.57538 19.4246C5.45671 19.3059 5.30088 19.0437 5.3053 18.4535C5.30979 17.856 5.4839 17.0501 5.88702 16.0711ZM17.0711 19.113C16.2004 18.7544 15.249 18.238 14.2634 17.5772C15.0273 16.9637 15.7902 16.2808 16.5355 15.5355C17.2808 14.7902 17.9636 14.0273 18.5771 13.2635C19.238 14.249 19.7544 15.2004 20.113 16.0711C20.5161 17.0501 20.6902 17.856 20.6947 18.4535C20.6991 19.0437 20.5433 19.306 20.4246 19.4246C20.3059 19.5433 20.0437 19.6991 19.4535 19.6947C18.856 19.6902 18.0501 19.5161 17.0711 19.113ZM13 13.5C13.8284 13.5 14.5 12.8284 14.5 12C14.5 11.1716 13.8284 10.5 13 10.5C12.1716 10.5 11.5 11.1716 11.5 12C11.5 12.8284 12.1716 13.5 13 13.5Z" fill="#161721"/>
</svg>
