<svg width="24" height="24" viewBox="0 0 24 24" fill="none" xmlns="http://www.w3.org/2000/svg">
<path fill-rule="evenodd" clip-rule="evenodd" d="M7.25 3.5C7.25 2.5335 8.0335 1.75 9 1.75H15C15.9665 1.75 16.75 2.5335 16.75 3.5V7.5C16.75 8.4665 15.9665 9.25 15 9.25H13V11.25H17C17.9665 11.25 18.75 12.0335 18.75 13V14.75H21C21.9665 14.75 22.75 15.5335 22.75 16.5V20.5C22.75 21.4665 21.9665 22.25 21 22.25H15C14.0335 22.25 13.25 21.4665 13.25 20.5V16.5C13.25 15.5335 14.0335 14.75 15 14.75H17.25V13C17.25 12.8619 17.1381 12.75 17 12.75H7C6.86193 12.75 6.75 12.8619 6.75 13V14.75H9C9.9665 14.75 10.75 15.5335 10.75 16.5V20.5C10.75 21.4665 9.9665 22.25 9 22.25H3C2.0335 22.25 1.25 21.4665 1.25 20.5V16.5C1.25 15.5335 2.0335 14.75 3 14.75H5.25V13C5.25 12.0335 6.0335 11.25 7 11.25H11.5V9.25H9C8.0335 9.25 7.25 8.4665 7.25 7.5V3.5ZM9 3.25C8.86193 3.25 8.75 3.36193 8.75 3.5V7.5C8.75 7.63807 8.86193 7.75 9 7.75H15C15.1381 7.75 15.25 7.63807 15.25 7.5V3.5C15.25 3.36193 15.1381 3.25 15 3.25H9ZM15 16.25C14.8619 16.25 14.75 16.3619 14.75 16.5V20.5C14.75 20.6381 14.8619 20.75 15 20.75H21C21.1381 20.75 21.25 20.6381 21.25 20.5V16.5C21.25 16.3619 21.1381 16.25 21 16.25H15ZM2.75 16.5C2.75 16.3619 2.86193 16.25 3 16.25H9C9.13807 16.25 9.25 16.3619 9.25 16.5V20.5C9.25 20.6381 9.13807 20.75 9 20.75H3C2.86193 20.75 2.75 20.6381 2.75 20.5V16.5Z" fill="#161721"/>
</svg>
