<svg width="24" height="24" viewBox="0 0 24 24" fill="none" xmlns="http://www.w3.org/2000/svg">
<path fill-rule="evenodd" clip-rule="evenodd" d="M19.1404 13.2197C19.4333 13.5126 19.4333 13.9874 19.1404 14.2803L16.5004 16.9203C16.2075 17.2132 15.7326 17.2132 15.4397 16.9203C15.1468 16.6275 15.1468 16.1526 15.4397 15.8597L18.0797 13.2197C18.3726 12.9268 18.8475 12.9268 19.1404 13.2197Z" fill="#161721"/>
<path fill-rule="evenodd" clip-rule="evenodd" d="M18.0797 13.2197C18.3726 12.9268 18.8474 12.9268 19.1403 13.2197L21.7803 15.8597C22.0732 16.1526 22.0732 16.6275 21.7803 16.9203C21.4874 17.2132 21.0125 17.2132 20.7197 16.9203L18.0797 14.2803C17.7868 13.9874 17.7868 13.5126 18.0797 13.2197Z" fill="#161721"/>
<path d="M5.60001 17.5C4.21929 17.5 3.10001 16.3807 3.10001 15C3.10001 13.6193 4.21929 12.5 5.60001 12.5C6.98072 12.5 8.10001 13.6193 8.10001 15C8.10001 16.3807 6.98072 17.5 5.60001 17.5Z" fill="#161721"/>
<rect x="21.35" y="9.5" width="4" height="4" rx="0.5" transform="rotate(135 21.35 9.5)" fill="#161721"/>
<path d="M18.6 10.5V8C18.6 6.34315 17.2568 5 15.6 5H8.59998C6.94312 5 5.59998 6.34315 5.59998 8V17C5.59998 18.6569 6.94312 20 8.59998 20H15.6C17.2568 20 18.6 18.6569 18.6 17V14.5" stroke="#161721" stroke-width="1.5" stroke-linecap="round"/>
</svg>
