<svg width="16" height="16" viewBox="0 0 16 16" fill="none" xmlns="http://www.w3.org/2000/svg">
<g clip-path="url(#clip0_508_36815)">
<path d="M4.35555 8.59306C4.35555 8.46189 4.46188 8.35556 4.59305 8.35556H11.4069C11.5381 8.35556 11.6444 8.46189 11.6444 8.59306V9.72445H12.3555V8.59445C12.3555 8.06978 11.9302 7.64445 11.4055 7.64445H8.35555V6.22223H7.64444V7.64445H4.59444C4.06977 7.64445 3.64444 8.06978 3.64444 8.59445V9.72445H4.35555V8.59306Z" fill="#161721"/>
<path d="M1.77777 10.6972H6.22222C6.33199 10.6972 6.43726 10.7408 6.51488 10.8185C6.5925 10.8961 6.63611 11.0013 6.63611 11.1111V13.7778C6.63611 13.8876 6.5925 13.9928 6.51488 14.0704C6.43726 14.1481 6.33199 14.1917 6.22222 14.1917H1.77777C1.668 14.1917 1.56273 14.1481 1.48511 14.0704C1.40749 13.9928 1.36389 13.8876 1.36389 13.7778V11.1111C1.36389 11.0013 1.40749 10.8961 1.48511 10.8185C1.56273 10.7408 1.668 10.6972 1.77777 10.6972Z" stroke="#161721" stroke-width="0.95"/>
<path d="M9.77777 10.6972H14.2222C14.332 10.6972 14.4373 10.7408 14.5149 10.8185C14.5925 10.8961 14.6361 11.0013 14.6361 11.1111V13.7778C14.6361 13.8876 14.5925 13.9928 14.5149 14.0704C14.4373 14.1481 14.332 14.1917 14.2222 14.1917H9.77777C9.668 14.1917 9.56273 14.1481 9.48511 14.0704C9.40749 13.9928 9.36389 13.8876 9.36389 13.7778V11.1111C9.36389 11.0013 9.40749 10.8961 9.48511 10.8185C9.56273 10.7408 9.668 10.6972 9.77777 10.6972Z" stroke="#161721" stroke-width="0.95"/>
<path d="M10.2222 5.30277H5.77777C5.668 5.30277 5.56273 5.25917 5.48511 5.18155C5.40749 5.10393 5.36389 4.99865 5.36389 4.88888V2.22222C5.36389 2.11245 5.40749 2.00717 5.48511 1.92955C5.56273 1.85193 5.668 1.80833 5.77777 1.80833H10.2222C10.332 1.80833 10.4373 1.85193 10.5149 1.92955C10.5925 2.00717 10.6361 2.11245 10.6361 2.22222V4.88888C10.6361 4.99865 10.5925 5.10393 10.5149 5.18155C10.4373 5.25917 10.332 5.30277 10.2222 5.30277Z" stroke="#161721" stroke-width="0.95"/>
</g>
<defs>
<clipPath id="clip0_508_36815">
<rect width="16" height="16" fill="white"/>
</clipPath>
</defs>
</svg>
