<svg width="24" height="18" viewBox="0 0 24 18" fill="none" xmlns="http://www.w3.org/2000/svg">
<path d="M22.0308 13.5146C21.1547 13.5146 20.411 14.0903 20.156 14.8828H13.875C13.6198 14.0903 12.8763 13.5146 12.0002 13.5146C11.1241 13.5146 10.3805 14.0903 10.1254 14.8828H3.8444C3.58919 14.0903 2.84575 13.5146 1.96963 13.5146C0.883636 13.5146 0 14.3985 0 15.4848C0 16.571 0.883679 17.455 1.96963 17.455C2.84575 17.455 3.58939 16.8792 3.8444 16.0867H10.1254C10.3807 16.8793 11.1241 17.455 12.0002 17.455C12.8763 17.455 13.62 16.8792 13.875 16.0867H20.1556C20.4108 16.8793 21.1543 17.455 22.0304 17.455C23.1164 17.455 24 16.571 24 15.4848C24.0003 14.3985 23.1163 13.5146 22.0304 13.5146H22.0308ZM1.96955 16.2511C1.54711 16.2511 1.20343 15.9073 1.20343 15.4848C1.20343 15.0622 1.54712 14.7184 1.96955 14.7184C2.39197 14.7184 2.73567 15.0622 2.73567 15.4848C2.73567 15.9073 2.39197 16.2511 1.96955 16.2511V16.2511ZM12 16.2511C11.5775 16.2511 11.2338 15.9073 11.2338 15.4848C11.2338 15.0622 11.5775 14.7184 12 14.7184C12.4224 14.7184 12.7661 15.0622 12.7661 15.4848C12.7661 15.9073 12.4224 16.2511 12 16.2511ZM22.0304 16.2511C21.6079 16.2511 21.2642 15.9073 21.2642 15.4848C21.2642 15.0622 21.6079 14.7184 22.0304 14.7184C22.4528 14.7184 22.7965 15.0622 22.7965 15.4848C22.7965 15.9073 22.4528 16.2511 22.0304 16.2511Z" fill="black"/>
<path d="M7.61655 9.95781H10.2566L11.4596 12.426C11.4618 12.4308 11.4657 12.4339 11.468 12.4386C11.4914 12.4836 11.5191 12.5259 11.5531 12.564C11.5592 12.5706 11.5661 12.5758 11.5725 12.5822C11.6008 12.611 11.6326 12.6372 11.6673 12.6604C11.6802 12.6688 11.6928 12.6767 11.7063 12.6844C11.7167 12.6901 11.7257 12.6979 11.7367 12.7032C11.7582 12.7137 11.7801 12.7187 11.8021 12.7266C11.8183 12.7321 11.8337 12.7394 11.8503 12.7434C11.8999 12.7563 11.9501 12.7644 11.9998 12.7644H12.0003H12.0008C12.0506 12.7644 12.1007 12.7565 12.1502 12.7434C12.1668 12.739 12.1823 12.7321 12.1981 12.7266C12.2202 12.7189 12.2425 12.7137 12.2637 12.7032C12.2746 12.6979 12.2835 12.6903 12.2941 12.6844C12.3075 12.677 12.3201 12.669 12.333 12.6601C12.3676 12.6369 12.3992 12.6112 12.4279 12.5822C12.4341 12.5759 12.4413 12.5709 12.4472 12.564C12.4816 12.5257 12.5095 12.4834 12.5327 12.4384C12.5349 12.4339 12.5387 12.431 12.5409 12.4261L13.7439 9.95798H16.384C17.4896 9.95798 18.3887 9.05844 18.3887 7.95283V2.55012C18.3887 1.44452 17.4894 0.544983 16.384 0.544983H7.61639C6.5111 0.544983 5.61182 1.44452 5.61182 2.55012V7.9524C5.61148 9.05818 6.51075 9.95772 7.61639 9.95772L7.61655 9.95781ZM6.81515 2.55026C6.81515 2.1084 7.17445 1.74897 7.61621 1.74897H16.3838C16.8257 1.74897 17.185 2.10838 17.185 2.55026V7.95254C17.185 8.39439 16.8257 8.75383 16.3838 8.75383H13.3678C13.356 8.75383 13.3451 8.75668 13.3335 8.75719C13.31 8.7587 13.2865 8.76004 13.2635 8.76424C13.2459 8.76743 13.2289 8.77213 13.212 8.77684C13.1918 8.78221 13.1715 8.78792 13.152 8.79531C13.1349 8.80186 13.1186 8.80992 13.1022 8.81798C13.0837 8.82705 13.0656 8.83629 13.0479 8.84738C13.0328 8.85695 13.0189 8.86753 13.0045 8.87845C12.9882 8.89104 12.9715 8.90381 12.9563 8.91842C12.9428 8.93101 12.9307 8.94462 12.9185 8.95856C12.9052 8.9735 12.8925 8.98845 12.8804 9.00457C12.8678 9.02221 12.857 9.04068 12.8465 9.05966C12.8402 9.07074 12.832 9.08032 12.8265 9.0919L12.0002 10.7887L11.1732 9.0919C11.1676 9.08065 11.1597 9.07125 11.1533 9.06016C11.1424 9.04085 11.1317 9.02187 11.1188 9.00407C11.1075 8.98845 11.0949 8.97451 11.0827 8.96023C11.0697 8.94529 11.0566 8.93068 11.0422 8.91707C11.0279 8.9038 11.0131 8.89205 10.9979 8.88046C10.9823 8.86837 10.9666 8.85661 10.9495 8.84603C10.9341 8.83646 10.918 8.82823 10.9018 8.82033C10.8834 8.81093 10.8647 8.80186 10.8451 8.79464C10.8283 8.78809 10.8108 8.78355 10.7935 8.77852C10.7737 8.77297 10.7541 8.7676 10.7336 8.76407C10.7135 8.76038 10.6931 8.7592 10.6725 8.75786C10.6587 8.75719 10.646 8.75383 10.6324 8.75383H7.61635C7.17462 8.75383 6.81529 8.39442 6.81529 7.95254V2.55026L6.81515 2.55026Z" fill="black"/>
</svg>
