<svg width="24" height="24" viewBox="0 0 24 24" fill="none" xmlns="http://www.w3.org/2000/svg">
<path fill-rule="evenodd" clip-rule="evenodd" d="M21.375 7.79001C21.375 5.99508 19.9199 4.54001 18.125 4.54001L13.575 4.54001C11.9386 4.54001 10.625 5.86799 10.625 7.48999L10.625 9.90531L8.88032 11.4363C8.71803 11.5787 8.62499 11.7841 8.62499 12C8.62499 12.2159 8.71803 12.4213 8.88032 12.5637L10.625 14.0947L10.625 16.51C10.625 18.1464 11.953 19.46 13.575 19.46L18.425 19.46C20.0492 19.46 21.375 18.1342 21.375 16.51L21.375 7.79001ZM18.125 6.04001C19.0915 6.04001 19.875 6.82351 19.875 7.79001L19.875 16.51C19.875 17.3058 19.2208 17.96 18.425 17.96L13.575 17.96C12.777 17.96 12.125 17.3136 12.125 16.51L12.125 13.755C12.125 13.5391 12.0319 13.3337 11.8697 13.1913L10.5121 12L11.8697 10.8087C12.0319 10.6663 12.125 10.4609 12.125 10.245L12.125 7.48999C12.125 6.69199 12.7714 6.04001 13.575 6.04001L18.125 6.04001ZM5.70501 20C5.70501 19.5637 5.35131 19.21 4.915 19.21C4.47871 19.21 4.12501 19.5637 4.12501 20C4.12501 20.4363 4.47871 20.79 4.915 20.79C5.35131 20.79 5.70501 20.4363 5.70501 20ZM4.16497 14.1644L4.16497 17.8356C3.2686 18.1462 2.62501 18.998 2.62501 20C2.62501 21.2647 3.65026 22.29 4.915 22.29C6.17973 22.29 7.20501 21.2647 7.20501 20C7.20501 18.9979 6.56138 18.1462 5.66497 17.8356L5.66497 14.1644C6.56138 13.8538 7.20501 13.0021 7.20501 12C7.20501 10.9979 6.56138 10.1462 5.66497 9.83562L5.66497 6.16438C6.56138 5.85381 7.20501 5.00207 7.20501 4C7.20501 2.73527 6.17973 1.70999 4.915 1.70999C3.65026 1.70999 2.62501 2.73528 2.62501 4C2.62501 5.00204 3.2686 5.85377 4.16497 6.16436L4.16497 9.83564C3.2686 10.1462 2.62501 10.998 2.62501 12C2.62501 13.002 3.2686 13.8538 4.16497 14.1644ZM4.915 3.20999C5.3513 3.20999 5.70501 3.56369 5.70501 4C5.70501 4.4363 5.3513 4.79001 4.915 4.79001C4.47871 4.79001 4.12501 4.43631 4.12501 4C4.12501 3.56368 4.47871 3.20999 4.915 3.20999ZM5.70501 12C5.70501 11.5637 5.3513 11.21 4.915 11.21C4.47871 11.21 4.12501 11.5637 4.12501 12C4.12501 12.4363 4.47871 12.79 4.915 12.79C5.3513 12.79 5.70501 12.4363 5.70501 12Z" fill="#161721"/>
</svg>
