<svg width="20" height="20" viewBox="0 0 20 20" fill="none" xmlns="http://www.w3.org/2000/svg">
<path d="M9.52151 13.4701C8.96083 13.4701 8.50006 13.0105 8.54417 12.4516C8.55119 12.3626 8.55904 12.2789 8.56772 12.2004C8.6042 11.8633 8.6808 11.5656 8.79754 11.3073C8.91427 11.0419 9.08208 10.7909 9.30096 10.5541C9.51984 10.3102 9.81167 10.0233 10.1765 9.69334C10.4245 9.44228 10.6762 9.18404 10.9316 8.91863C11.1943 8.65322 11.4314 8.37705 11.643 8.09011C11.8618 7.79601 12.0406 7.48756 12.1792 7.16476C12.3178 6.84196 12.3871 6.50123 12.3871 6.14257C12.3871 5.36068 12.1573 4.7653 11.6977 4.35642C11.238 3.94037 10.5814 3.73235 9.72777 3.73235C9.38486 3.73235 9.04925 3.77539 8.72093 3.86147C8.39991 3.94037 8.11172 4.06949 7.85636 4.24882C7.6083 4.42098 7.40766 4.64335 7.25445 4.91594C6.97935 5.39248 6.57368 5.87357 6.02343 5.87357C5.46297 5.87357 4.98714 5.40705 5.13948 4.86769C5.20062 4.65125 5.2818 4.44496 5.38304 4.24882C5.6311 3.76821 5.96306 3.36292 6.37893 3.03295C6.8021 2.69581 7.29822 2.44116 7.86731 2.269C8.44368 2.08967 9.06384 2 9.72777 2C10.4647 2 11.1213 2.09325 11.6977 2.27976C12.2814 2.45909 12.7738 2.7245 13.1751 3.07599C13.5764 3.42748 13.8828 3.85429 14.0944 4.35642C14.306 4.85855 14.4118 5.43241 14.4118 6.07801C14.4118 6.59449 14.3206 7.08227 14.1382 7.54136C13.9558 7.99328 13.7223 8.42367 13.4378 8.83255C13.1532 9.23425 12.8322 9.61085 12.4747 9.96234C12.1245 10.3138 11.7779 10.6402 11.435 10.9415C11.2161 11.1495 11.0447 11.3468 10.9207 11.5333C10.8039 11.7198 10.7164 11.9099 10.658 12.1036C10.5996 12.2972 10.5632 12.5053 10.5486 12.7276C10.5208 13.137 10.1941 13.4701 9.78378 13.4701H9.52151ZM8.27223 16.8379C8.27223 16.4936 8.37437 16.2067 8.57866 15.9771C8.79024 15.7476 9.10397 15.6328 9.51984 15.6328C9.9357 15.6328 10.2494 15.7476 10.461 15.9771C10.6799 16.2067 10.7893 16.4936 10.7893 16.8379C10.7893 17.1679 10.6799 17.4441 10.461 17.6664C10.2494 17.8888 9.9357 18 9.51984 18C9.10397 18 8.79024 17.8888 8.57866 17.6664C8.37437 17.4441 8.27223 17.1679 8.27223 16.8379Z" fill="#0C2739"/>
</svg>
