<svg width="24" height="24" viewBox="0 0 24 24" fill="none" xmlns="http://www.w3.org/2000/svg">
<path fill-rule="evenodd" clip-rule="evenodd" d="M11.9286 14.1028C12.3138 14.1028 12.626 13.7905 12.626 13.4054C12.626 12.9921 12.7191 12.6718 12.9052 12.4445C12.9776 12.3618 13.0707 12.2637 13.1845 12.15C13.3086 12.0261 13.4534 11.8866 13.6189 11.7316C13.7947 11.5663 13.9343 11.432 14.0377 11.3287C14.1411 11.2253 14.2911 11.0497 14.4876 10.8017C14.8289 10.3885 14.9995 9.87188 14.9995 9.25197C14.9995 8.3531 14.7099 7.65571 14.1308 7.15978C13.5516 6.65352 12.8018 6.40039 11.8814 6.40039C10.9609 6.40039 10.1905 6.66385 9.56993 7.19077C9.20369 7.50083 8.92874 7.88347 8.74506 8.33869C8.53778 8.85242 8.98447 9.34496 9.53844 9.34496C10.0146 9.34496 10.3756 8.94874 10.6607 8.56737C10.7098 8.50162 10.7651 8.44053 10.8265 8.3841C11.0954 8.13613 11.4263 8.01215 11.8193 8.01215C12.2123 8.01215 12.5329 8.1413 12.7811 8.3996C13.0294 8.64756 13.1535 8.96268 13.1535 9.34496C13.1535 9.72723 13.0345 10.0475 12.7967 10.3058L11.6642 11.4371C11.3333 11.7678 11.1161 12.0364 11.0126 12.243C10.9196 12.4393 10.873 12.7441 10.873 13.1574V13.2263C10.873 13.7103 11.2654 14.1028 11.7495 14.1028H11.9286ZM10.9351 17.2178C11.1729 17.4348 11.4522 17.5432 11.7728 17.5432C12.1037 17.5432 12.383 17.4296 12.6105 17.2023C12.8484 16.975 12.9673 16.7064 12.9673 16.3964C12.9673 16.0761 12.8484 15.8075 12.6105 15.5905C12.3726 15.3632 12.0882 15.2496 11.7573 15.2496C11.4367 15.2496 11.1574 15.3632 10.9196 15.5905C10.692 15.8178 10.5783 16.0916 10.5783 16.4119C10.5783 16.7219 10.6972 16.9905 10.9351 17.2178Z" fill="#161721"/>
</svg>
