<svg width="20" height="20" viewBox="0 0 20 20" fill="none" xmlns="http://www.w3.org/2000/svg">
<path fill-rule="evenodd" clip-rule="evenodd" d="M1.5 10C1.5 5.30558 5.30558 1.5 10 1.5C14.6944 1.5 18.5 5.30558 18.5 10C18.5 14.6944 14.6944 18.5 10 18.5C5.30558 18.5 1.5 14.6944 1.5 10ZM10 0C4.47715 0 0 4.47715 0 10C0 15.5228 4.47715 20 10 20C15.5228 20 20 15.5228 20 10C20 4.47715 15.5228 0 10 0ZM9.92909 12.1024C10.3143 12.1024 10.6265 11.7901 10.6265 11.405C10.6265 10.9917 10.7196 10.6714 10.9057 10.4441C10.9781 10.3615 11.0712 10.2633 11.185 10.1497C11.3091 10.0257 11.4539 9.88619 11.6193 9.73121C11.7951 9.5659 11.9348 9.43159 12.0382 9.32827C12.1416 9.22496 12.2916 9.04931 12.4881 8.80135C12.8294 8.38808 13 7.87149 13 7.25158C13 6.35271 12.7104 5.65531 12.1313 5.15939C11.5521 4.65313 10.8023 4.4 9.88186 4.4C8.96142 4.4 8.19093 4.66346 7.57041 5.19038C7.20417 5.50044 6.92922 5.88308 6.74554 6.3383C6.53826 6.85203 6.98495 7.34457 7.53892 7.34457C8.01507 7.34457 8.37607 6.94835 8.66115 6.56698C8.7103 6.50123 8.76557 6.44014 8.82697 6.38371C9.09586 6.13574 9.42681 6.01176 9.81981 6.01176C10.2128 6.01176 10.5334 6.14091 10.7816 6.39921C11.0298 6.64717 11.1539 6.96229 11.1539 7.34457C11.1539 7.72684 11.035 8.04713 10.7971 8.30542L9.66468 9.43676C9.33373 9.76737 9.11655 10.036 9.01313 10.2426C8.92005 10.4389 8.87351 10.7437 8.87351 11.157V11.2259C8.87351 11.7099 9.26593 12.1024 9.75 12.1024H9.92909ZM8.93556 15.2174C9.17343 15.4344 9.45267 15.5429 9.77327 15.5429C10.1042 15.5429 10.3835 15.4292 10.611 15.2019C10.8488 14.9746 10.9678 14.706 10.9678 14.396C10.9678 14.0757 10.8488 13.8071 10.611 13.5901C10.3731 13.3628 10.0887 13.2492 9.75776 13.2492C9.43715 13.2492 9.15792 13.3628 8.92005 13.5901C8.69252 13.8174 8.57876 14.0912 8.57876 14.4115C8.57876 14.7215 8.69769 14.9901 8.93556 15.2174Z" fill="#1D1E2B"/>
</svg>
