<svg width="16" height="22" viewBox="0 0 16 22" fill="none" xmlns="http://www.w3.org/2000/svg">
<path fill-rule="evenodd" clip-rule="evenodd" d="M8 1.5C4.19 1.5 1.5 4.243 1.5 7.619C1.5 9.155 2.132 10.191 2.925 11.179C3.097 11.394 3.272 11.601 3.452 11.814L3.548 11.926C3.758 12.176 3.975 12.434 4.178 12.7C4.582 13.231 4.961 13.828 5.173 14.534C5.22492 14.7228 5.20094 14.9244 5.10619 15.0958C5.01144 15.2672 4.85342 15.3947 4.66591 15.4511C4.47839 15.5075 4.27626 15.4883 4.10268 15.3977C3.92911 15.307 3.79787 15.1521 3.737 14.966C3.599 14.506 3.34 14.076 2.984 13.609C2.796 13.3662 2.60194 13.1281 2.402 12.895L2.31 12.785C2.13 12.573 1.94 12.349 1.755 12.118C0.87 11.016 0 9.651 0 7.618C0 3.363 3.415 0 8 0C12.585 0 16 3.362 16 7.619C16 9.651 15.13 11.016 14.245 12.119C14.06 12.349 13.87 12.573 13.69 12.786L13.598 12.895C13.388 13.143 13.193 13.376 13.016 13.609C12.66 14.076 12.401 14.507 12.263 14.966C12.2057 15.1566 12.0751 15.3166 11.8998 15.4108C11.7246 15.505 11.5191 15.5258 11.3285 15.4685C11.1379 15.4112 10.9779 15.2806 10.8837 15.1053C10.7895 14.9301 10.7687 14.7246 10.826 14.534C11.039 13.828 11.418 13.231 11.823 12.7C12.025 12.434 12.242 12.176 12.453 11.926L12.548 11.814C12.728 11.601 12.903 11.394 13.075 11.18C13.868 10.19 14.5 9.155 14.5 7.619C14.5 4.243 11.81 1.5 8 1.5ZM5.5 20.75C5.5 20.5511 5.57902 20.3603 5.71967 20.2197C5.86032 20.079 6.05109 20 6.25 20H9.75C9.94891 20 10.1397 20.079 10.2803 20.2197C10.421 20.3603 10.5 20.5511 10.5 20.75C10.5 20.9489 10.421 21.1397 10.2803 21.2803C10.1397 21.421 9.94891 21.5 9.75 21.5H6.25C6.05109 21.5 5.86032 21.421 5.71967 21.2803C5.57902 21.1397 5.5 20.9489 5.5 20.75ZM4.75 17C4.55109 17 4.36032 17.079 4.21967 17.2197C4.07902 17.3603 4 17.5511 4 17.75C4 17.9489 4.07902 18.1397 4.21967 18.2803C4.36032 18.421 4.55109 18.5 4.75 18.5H11.25C11.4489 18.5 11.6397 18.421 11.7803 18.2803C11.921 18.1397 12 17.9489 12 17.75C12 17.5511 11.921 17.3603 11.7803 17.2197C11.6397 17.079 11.4489 17 11.25 17H4.75Z" fill="#0C2739"/>
</svg>
