<svg width="24" height="24" viewBox="0 0 24 24" fill="none" xmlns="http://www.w3.org/2000/svg">
 <path fill="currentColor" d="M12,5.3c-0.4,0-0.8,0.3-0.8,0.8c0,0.4,0.3,0.8,0.8,0.8c1.5,0,2.7,1.2,2.7,2.7c0,0.4,0.3,0.8,0.8,0.8
		c0.4,0,0.8-0.3,0.8-0.8C16.2,7.2,14.3,5.3,12,5.3z"/>
	<path fill="currentColor" d="M10.4,2.4C7.7,3,5.5,5.2,4.9,7.9c-0.5,2.3,0.1,4.6,1.7,6.4c0.6,0.6,0.9,1.5,0.9,2.3v1.1c0,0.9,0.5,1.7,1.2,2.1
		c0.4,1.4,1.7,2.5,3.3,2.5s2.9-1.1,3.3-2.5c0.7-0.4,1.2-1.2,1.2-2.1v-1.1c0-0.8,0.3-1.6,0.9-2.3c1.2-1.3,1.8-3,1.8-4.8
		C19.2,4.9,15.1,1.5,10.4,2.4z M12,20.7c-0.9,0-1.7-0.7-1.9-1.6h3.8C13.7,20,12.9,20.7,12,20.7z M15,16.6v1.1H9v-1.1
		c0-0.2,0-0.3,0-0.5h6.2C15.1,16.2,15,16.4,15,16.6z M16.3,13.3c-0.4,0.4-0.6,0.9-0.8,1.3h-7c-0.2-0.5-0.5-0.9-0.8-1.3
		C6.5,11.9,6,10.1,6.4,8.2C6.9,6,8.6,4.3,10.8,3.8c3.7-0.8,7,2,7,5.6C17.8,10.9,17.2,12.2,16.3,13.3z"/>
</svg>
