<svg width="20" height="20" viewBox="0 0 20 20" fill="none" xmlns="http://www.w3.org/2000/svg">
<path d="M15.0578 6.81284L17.9468 9.17387C18.1256 9.3196 18.1513 9.58253 18.006 9.76067L18.006 9.76067L18.0058 9.76089C17.9234 9.86131 17.8034 9.9142 17.6823 9.9142C17.5893 9.9142 17.4962 9.88295 17.4191 9.82038L17.4188 9.82014L15.9835 8.64676V16.3946C15.9835 16.6249 15.7969 16.8117 15.5667 16.8117H4.43319C4.2031 16.8117 4.01606 16.6251 4.01606 16.3946V8.64694L2.58076 9.82032L2.58062 9.82043C2.50335 9.88337 2.40991 9.91438 2.3173 9.91438C2.19642 9.91438 2.0765 9.86137 1.99414 9.76106L1.99388 9.76074C1.84871 9.58244 1.87453 9.31991 2.05312 9.17395L9.52017 3.0712L9.52018 3.07119C9.79953 2.84295 10.2008 2.84292 10.48 3.0712C10.48 3.07121 10.48 3.07121 10.48 3.07121L12.2293 4.50116V4.48769L12.393 4.62285L13.0273 5.14667L13.0636 5.17666V5.18277L13.792 5.77812L13.7924 5.77844L14.9301 6.71795L14.9319 6.70998L15.0578 6.81284ZM4.85009 7.96519V15.9775H15.1498V7.96519L10.2081 3.92634L10.2081 3.92633C10.087 3.8273 9.91311 3.82729 9.79192 3.92634L4.85009 7.96519Z" fill="black" stroke="black" stroke-width="0.2"/>
</svg>
