<svg width="20" height="18" viewBox="0 0 20 18" fill="none" xmlns="http://www.w3.org/2000/svg">
<path d="M16.0251 5.22962L19.492 8.06291C19.6764 8.21321 19.7031 8.4846 19.553 8.66857L19.5529 8.66868C19.4678 8.77246 19.3439 8.82705 19.2189 8.82705C19.123 8.82705 19.027 8.79487 18.9471 8.7301L18.947 8.72998L17.1103 7.22848V16.6736C17.1103 16.9113 16.9177 17.104 16.6802 17.104H3.31993C3.08242 17.104 2.88937 16.9114 2.88937 16.6736V7.2287L1.0527 8.7302L1.05263 8.73025C0.972769 8.79531 0.876362 8.82727 0.780861 8.82727C0.656164 8.82727 0.532333 8.77259 0.447168 8.66886L0.447039 8.6687C0.297112 8.48456 0.323847 8.21357 0.508141 8.06295L9.46859 0.739645L9.4686 0.73964C9.77806 0.486799 10.2225 0.486787 10.5318 0.739649L12.7452 2.54903V2.53382L12.8271 2.6014L13.5883 3.22998L13.6065 3.24498V3.25252L14.5062 3.98795L14.5064 3.98811L15.9599 5.18839L15.9622 5.17819L16.0251 5.22962ZM3.7502 6.52504V16.243H16.2498V6.52504L10.2942 1.65741L10.3256 1.61894L10.2942 1.65741C10.123 1.5175 9.87731 1.51749 9.70611 1.65741L3.7502 6.52504Z" fill="#0C2739" stroke="#0C2739" stroke-width="0.1"/>
</svg>
