<svg width="24" height="24" viewBox="0 0 24 24" fill="none" xmlns="http://www.w3.org/2000/svg">
<path fill-rule="evenodd" clip-rule="evenodd" d="M10.5764 4.04223C11.4028 3.31258 12.5972 3.31258 13.4236 4.04223L13.425 4.04348L19.675 9.53348L19.6779 9.53595C20.1971 9.98746 20.5 10.6577 20.5 11.39V18.1C20.5 19.4612 19.4613 20.5 18.25 20.5H15.53V15.3C15.53 14.3358 14.7442 13.55 13.78 13.55H10.22C9.25576 13.55 8.46997 14.3358 8.46997 15.3V20.5H5.75C4.53873 20.5 3.5 19.4612 3.5 18.1V11.39C3.5 10.6577 3.8029 9.98747 4.32214 9.53596L10.575 4.04348L10.5764 4.04223ZM9.58439 2.91708C10.9777 1.68763 13.0223 1.68763 14.4156 2.91708L14.4164 2.91776L20.6621 8.40404L20.6636 8.40531C21.5234 9.15376 22 10.2429 22 11.39V18.1C22 20.2188 20.3587 22 18.25 22H5.75C3.64127 22 2 20.2188 2 18.1V11.39C2 10.2429 2.47657 9.15376 3.33641 8.40531L9.58362 2.91776L9.58439 2.91708ZM9.96997 15.3C9.96997 15.1642 10.0842 15.05 10.22 15.05H13.78C13.9158 15.05 14.03 15.1642 14.03 15.3V20.5H9.96997V15.3Z" fill="#161721"/>
</svg>
