<svg width="145" height="91" viewBox="0 0 145 91" fill="none" xmlns="http://www.w3.org/2000/svg">
<path d="M89.359 83.1998H58.75C56.24 83.1998 54.2 81.1598 54.2 78.6498V51.3498C54.2 48.8399 56.24 46.7998 58.75 46.7998H89.359C91.869 46.7998 93.909 48.8399 93.909 51.3498V78.6498C93.909 81.1598 91.869 83.1998 89.359 83.1998ZM58.75 49.2816C57.61 49.2816 56.6818 50.2098 56.6818 51.3498V78.6498C56.6818 79.7898 57.61 80.718 58.75 80.718H89.359C90.499 80.718 91.4272 79.7898 91.4272 78.6498V51.3498C91.4272 50.2098 90.499 49.2816 89.359 49.2816H58.75Z" fill="#2EA44F"/>
<path d="M92.6681 55.0726H55.4409C54.7559 55.0726 54.2 54.5166 54.2 53.8316C54.2 53.1467 54.7559 52.5907 55.4409 52.5907H92.6681C93.3531 52.5907 93.909 53.1467 93.909 53.8316C93.909 54.5166 93.3531 55.0726 92.6681 55.0726Z" fill="#2EA44F"/>
<path d="M86.8695 59.7998L71.7029 74.9664L63.1306 66.3941" stroke="#2EA44F" stroke-width="2" stroke-linecap="round" stroke-linejoin="round"/>
<path d="M120.072 16.473C122.03 19.2236 123.287 21.5985 121.515 25.5169C118.533 32.1079 108.216 28.1211 105.545 34.0271C103.378 38.8163 106.091 42.1409 107.468 44.3375" stroke="#C1C7D0" stroke-width="1.5" stroke-linejoin="round"/>
<path d="M1.79218 43.6099C2.34299 46.9412 3.12647 49.5113 7.14622 51.0401C13.9076 53.6115 18.4124 43.5094 24.4711 45.8136C29.3841 47.6821 29.8052 51.9519 30.3771 54.4811" stroke="#C1C7D0" stroke-width="1.5" stroke-linejoin="round"/>
<circle cx="112.756" cy="21.1258" r="3.25" transform="rotate(-3.4929 112.756 21.1258)" stroke="#C1C7D0" stroke-width="1.5"/>
<circle cx="123.459" cy="55.7322" r="3.25" transform="rotate(11.417 123.459 55.7322)" stroke="#C1C7D0" stroke-width="1.5"/>
<circle cx="21" cy="57" r="3.25" stroke="#C1C7D0" stroke-width="1.5"/>
<circle cx="37" cy="20" r="3.25" stroke="#C1C7D0" stroke-width="1.5"/>
<path d="M127.657 38.999C127.657 38.999 106.378 53.0165 104.376 58.7907C110.382 41.4682 119.391 35.7679 123.895 32.918L127.657 38.999Z" stroke="#C1C7D0" stroke-width="1.5" stroke-linejoin="round"/>
<path d="M24.0089 39.107C24.0089 39.107 45.8147 52.2907 48.0386 57.9832C41.3667 40.906 32.1447 35.5585 27.5334 32.885L24.0089 39.107Z" stroke="#C1C7D0" stroke-width="1.5" stroke-linejoin="round"/>
<path d="M133.071 23.1112C132.875 22.8517 132.535 22.7477 132.227 22.8536C131.92 22.9594 131.716 23.2511 131.722 23.5759L131.808 28.4793L127.172 30.0769C126.865 30.1827 126.66 30.4743 126.666 30.7992C126.672 31.1241 126.886 31.4083 127.197 31.5032L131.887 32.9361L131.974 37.8395C131.979 38.1644 132.194 38.4486 132.504 38.5436C132.815 38.6385 133.152 38.5226 133.338 38.2564L136.15 34.2386L140.84 35.6715C141.151 35.7664 141.488 35.6504 141.674 35.3842C141.86 35.118 141.854 34.7622 141.658 34.5027L138.706 30.5867L141.518 26.5688C141.705 26.3026 141.698 25.9467 141.503 25.6873C141.307 25.4278 140.967 25.3238 140.659 25.4297L136.023 27.0272L133.071 23.1112Z" stroke="#C1C7D0" stroke-width="1.5" stroke-linejoin="round"/>
<path d="M21.8531 22.2409C21.8919 21.9183 21.7185 21.6074 21.4236 21.4709C21.1288 21.3343 20.7796 21.4032 20.5586 21.6414L17.2236 25.237L12.7734 23.1763C12.4785 23.0398 12.1293 23.1087 11.9084 23.3469C11.6874 23.5851 11.645 23.9385 11.8032 24.2223L14.1923 28.5052L10.8573 32.1008C10.6363 32.339 10.5939 32.6924 10.7522 32.9762C10.9104 33.2599 11.2334 33.4095 11.5522 33.3466L16.3638 32.398L18.7528 36.6809C18.9111 36.9647 19.2341 37.1142 19.5529 37.0514C19.8717 36.9885 20.1137 36.7276 20.1524 36.405L20.7371 31.5358L25.5486 30.5872C25.8674 30.5243 26.1095 30.2633 26.1482 29.9407C26.1869 29.6181 26.0135 29.3073 25.7187 29.1707L21.2685 27.11L21.8531 22.2409Z" stroke="#C1C7D0" stroke-width="1.5" stroke-linejoin="round"/>
<line y1="-0.75" x2="34.0588" y2="-0.75" transform="matrix(-0.645942 -0.763386 0.885306 -0.465009 65 39)" stroke="#C1C7D0" stroke-width="1.5"/>
<line y1="-0.75" x2="34.0588" y2="-0.75" transform="matrix(0.645942 -0.763386 -0.885306 -0.465009 85 39)" stroke="#C1C7D0" stroke-width="1.5"/>
<line x1="74.2503" y1="38.9803" x2="75.2503" y2="0.980272" stroke="#C1C7D0" stroke-width="1.5"/>
</svg>
