<svg width="24" height="24" viewBox="0 0 24 24" fill="none" xmlns="http://www.w3.org/2000/svg">
<path fill-rule="evenodd" clip-rule="evenodd" d="M6.6 3C6.40811 3 6.25269 3.10426 6.15344 3.23659C6.05425 3.36884 6 3.54054 6 3.72C6 3.89946 6.05425 4.07116 6.15344 4.20341C6.25269 4.33574 6.40811 4.44 6.6 4.44H6.96V8.96622C6.96 9.52794 7.24073 10.0525 7.7081 10.3641L10.7747 12.4084L7.7081 14.4528C7.24073 14.7644 6.96 15.2889 6.96 15.8507V20.3769H6.6C6.40811 20.3769 6.25269 20.4811 6.15344 20.6135C6.05425 20.7457 6 20.9174 6 21.0969C6 21.2763 6.05425 21.448 6.15344 21.5803C6.25269 21.7126 6.40811 21.8169 6.6 21.8169H17.4C17.5919 21.8169 17.7473 21.7126 17.8466 21.5803C17.9457 21.448 18 21.2763 18 21.0969C18 20.9174 17.9457 20.7457 17.8466 20.6135C17.7473 20.4811 17.5919 20.3769 17.4 20.3769H17.04V15.8507C17.04 15.2889 16.7593 14.7644 16.2919 14.4528L13.2253 12.4084L16.2919 10.3641C16.7593 10.0525 17.04 9.52794 17.04 8.96622V4.44H17.4C17.5919 4.44 17.7473 4.33574 17.8466 4.20341C17.9457 4.07116 18 3.89946 18 3.72C18 3.54054 17.9457 3.36884 17.8466 3.23659C17.7473 3.10426 17.5919 3 17.4 3H6.6ZM8.4 8.96622V4.44H15.6V8.96622C15.6 9.04647 15.5599 9.1214 15.4931 9.16592L12 11.4947L8.50687 9.16592C8.4401 9.1214 8.4 9.04647 8.4 8.96622ZM8.50687 15.651L12 13.3222L15.4931 15.651C15.5599 15.6955 15.6 15.7704 15.6 15.8507V20.3769H8.4V15.8507C8.4 15.7704 8.4401 15.6955 8.50687 15.651Z" fill="#161721"/>
</svg>
