<svg width="32" height="32" viewBox="0 0 32 32" fill="none" xmlns="http://www.w3.org/2000/svg">
<path fill-rule="evenodd" clip-rule="evenodd" d="M8.5 4C8.22386 4 8 4.29848 8 4.66667C8 5.03486 8.22386 5.33333 8.5 5.33333H9.33333V11.9531C9.33333 12.6218 9.66754 13.2463 10.2239 13.6172L14.8991 16.7339L10.2239 19.8507C9.66754 20.2216 9.33333 20.8461 9.33333 21.5148V28.1346H8.5C8.22386 28.1346 8 28.433 8 28.8012C8 29.1694 8.22386 29.4679 8.5 29.4679H9.33333H22.6667H23.5C23.7761 29.4679 24 29.1694 24 28.8012C24 28.433 23.7761 28.1346 23.5 28.1346H22.6667V21.5148C22.6667 20.8461 22.3325 20.2216 21.7761 19.8507L17.1009 16.7339L21.7761 13.6172C22.3325 13.2463 22.6667 12.6218 22.6667 11.9531V5.33333H23.5C23.7761 5.33333 24 5.03486 24 4.66667C24 4.29848 23.7761 4 23.5 4H22.6667H9.33333H8.5ZM21.3333 28.1346V21.5148C21.3333 21.2919 21.2219 21.0838 21.0365 20.9601L16 17.6025L10.9635 20.9601C10.7781 21.0838 10.6667 21.2919 10.6667 21.5148V28.1346H21.3333ZM10.6667 11.9531V5.33333H21.3333V11.9531C21.3333 12.176 21.2219 12.3841 21.0365 12.5078L16 15.8654L10.9635 12.5078C10.7781 12.3841 10.6667 12.176 10.6667 11.9531Z" fill="#C1C7D0"/>
<path d="M9.33333 5.33333H9.58333V5.08333H9.33333V5.33333ZM10.2239 13.6172L10.0853 13.8252H10.0853L10.2239 13.6172ZM14.8991 16.7339L15.0377 16.942L15.3498 16.7339L15.0377 16.5259L14.8991 16.7339ZM10.2239 19.8507L10.0853 19.6427H10.0853L10.2239 19.8507ZM9.33333 28.1346V28.3846H9.58333V28.1346H9.33333ZM22.6667 28.1346H22.4167V28.3846H22.6667V28.1346ZM21.7761 19.8507L21.6374 20.0587V20.0587L21.7761 19.8507ZM17.1009 16.7339L16.9623 16.5259L16.6502 16.7339L16.9623 16.942L17.1009 16.7339ZM21.7761 13.6172L21.6374 13.4092L21.7761 13.6172ZM22.6667 5.33333V5.08333H22.4167V5.33333H22.6667ZM21.3333 28.1346V28.3846H21.5833V28.1346H21.3333ZM21.0365 20.9601L21.1751 20.7521L21.1751 20.7521L21.0365 20.9601ZM16 17.6025L16.1387 17.3945L16 17.302L15.8613 17.3945L16 17.6025ZM10.6667 28.1346H10.4167V28.3846H10.6667V28.1346ZM10.6667 5.33333V5.08333H10.4167V5.33333H10.6667ZM21.3333 5.33333H21.5833V5.08333H21.3333V5.33333ZM21.0365 12.5078L21.1751 12.7158H21.1751L21.0365 12.5078ZM16 15.8654L15.8613 16.0734L16 16.1659L16.1387 16.0734L16 15.8654ZM10.9635 12.5078L10.8249 12.7158L10.9635 12.5078ZM8.25 4.66667C8.25 4.53143 8.29142 4.41863 8.34645 4.34526C8.40141 4.27198 8.45826 4.25 8.5 4.25V3.75C8.2656 3.75 8.07245 3.87726 7.94645 4.04526C7.8205 4.21318 7.75 4.43371 7.75 4.66667H8.25ZM8.5 5.08333C8.45826 5.08333 8.40141 5.06136 8.34645 4.98807C8.29142 4.91471 8.25 4.8019 8.25 4.66667H7.75C7.75 4.89962 7.8205 5.12015 7.94645 5.28807C8.07245 5.45607 8.2656 5.58333 8.5 5.58333V5.08333ZM9.33333 5.08333H8.5V5.58333H9.33333V5.08333ZM9.58333 11.9531V5.33333H9.08333V11.9531H9.58333ZM10.3626 13.4092C9.87576 13.0846 9.58333 12.5382 9.58333 11.9531H9.08333C9.08333 12.7054 9.45931 13.4079 10.0853 13.8252L10.3626 13.4092ZM15.0377 16.5259L10.3626 13.4092L10.0853 13.8252L14.7604 16.942L15.0377 16.5259ZM14.7604 16.5259L10.0853 19.6427L10.3626 20.0587L15.0377 16.942L14.7604 16.5259ZM10.0853 19.6427C9.45931 20.06 9.08333 20.7625 9.08333 21.5148H9.58333C9.58333 20.9297 9.87576 20.3833 10.3626 20.0587L10.0853 19.6427ZM9.08333 21.5148V28.1346H9.58333V21.5148H9.08333ZM8.5 28.3846H9.33333V27.8846H8.5V28.3846ZM8.25 28.8012C8.25 28.666 8.29142 28.5532 8.34645 28.4798C8.40141 28.4065 8.45826 28.3846 8.5 28.3846V27.8846C8.2656 27.8846 8.07245 28.0118 7.94645 28.1798C7.8205 28.3477 7.75 28.5683 7.75 28.8012H8.25ZM8.5 29.2179C8.45826 29.2179 8.40141 29.1959 8.34645 29.1226C8.29142 29.0493 8.25 28.9365 8.25 28.8012H7.75C7.75 29.0342 7.8205 29.2547 7.94645 29.4226C8.07245 29.5906 8.2656 29.7179 8.5 29.7179V29.2179ZM9.33333 29.2179H8.5V29.7179H9.33333V29.2179ZM9.33333 29.7179H22.6667V29.2179H9.33333V29.7179ZM23.5 29.2179H22.6667V29.7179H23.5V29.2179ZM23.75 28.8012C23.75 28.9365 23.7086 29.0493 23.6536 29.1226C23.5986 29.1959 23.5417 29.2179 23.5 29.2179V29.7179C23.7344 29.7179 23.9276 29.5906 24.0536 29.4226C24.1795 29.2547 24.25 29.0342 24.25 28.8012H23.75ZM23.5 28.3846C23.5417 28.3846 23.5986 28.4065 23.6536 28.4798C23.7086 28.5532 23.75 28.666 23.75 28.8012H24.25C24.25 28.5683 24.1795 28.3477 24.0536 28.1798C23.9276 28.0118 23.7344 27.8846 23.5 27.8846V28.3846ZM22.6667 28.3846H23.5V27.8846H22.6667V28.3846ZM22.9167 28.1346V21.5148H22.4167V28.1346H22.9167ZM22.9167 21.5148C22.9167 20.7625 22.5407 20.06 21.9147 19.6427L21.6374 20.0587C22.1242 20.3833 22.4167 20.9297 22.4167 21.5148H22.9167ZM21.9147 19.6427L17.2396 16.5259L16.9623 16.942L21.6374 20.0587L21.9147 19.6427ZM21.6374 13.4092L16.9623 16.5259L17.2396 16.942L21.9147 13.8252L21.6374 13.4092ZM22.4167 11.9531C22.4167 12.5382 22.1242 13.0846 21.6374 13.4092L21.9147 13.8252C22.5407 13.4079 22.9167 12.7054 22.9167 11.9531H22.4167ZM22.4167 5.33333V11.9531H22.9167V5.33333H22.4167ZM23.5 5.08333H22.6667V5.58333H23.5V5.08333ZM23.75 4.66667C23.75 4.8019 23.7086 4.91471 23.6536 4.98807C23.5986 5.06136 23.5417 5.08333 23.5 5.08333V5.58333C23.7344 5.58333 23.9276 5.45607 24.0536 5.28807C24.1795 5.12015 24.25 4.89962 24.25 4.66667H23.75ZM23.5 4.25C23.5417 4.25 23.5986 4.27198 23.6536 4.34526C23.7086 4.41863 23.75 4.53143 23.75 4.66667H24.25C24.25 4.43371 24.1795 4.21318 24.0536 4.04526C23.9276 3.87726 23.7344 3.75 23.5 3.75V4.25ZM22.6667 4.25H23.5V3.75H22.6667V4.25ZM9.33333 4.25H22.6667V3.75H9.33333V4.25ZM8.5 4.25H9.33333V3.75H8.5V4.25ZM21.0833 21.5148V28.1346H21.5833V21.5148H21.0833ZM20.8978 21.1681C21.0137 21.2454 21.0833 21.3755 21.0833 21.5148H21.5833C21.5833 21.2083 21.4302 20.9221 21.1751 20.7521L20.8978 21.1681ZM15.8613 17.8105L20.8978 21.1681L21.1751 20.7521L16.1387 17.3945L15.8613 17.8105ZM11.1022 21.1681L16.1387 17.8105L15.8613 17.3945L10.8249 20.7521L11.1022 21.1681ZM10.9167 21.5148C10.9167 21.3755 10.9863 21.2454 11.1022 21.1681L10.8249 20.7521C10.5698 20.9221 10.4167 21.2083 10.4167 21.5148H10.9167ZM10.9167 28.1346V21.5148H10.4167V28.1346H10.9167ZM21.3333 27.8846H10.6667V28.3846H21.3333V27.8846ZM10.4167 5.33333V11.9531H10.9167V5.33333H10.4167ZM21.3333 5.08333H10.6667V5.58333H21.3333V5.08333ZM21.5833 11.9531V5.33333H21.0833V11.9531H21.5833ZM21.1751 12.7158C21.4302 12.5458 21.5833 12.2596 21.5833 11.9531H21.0833C21.0833 12.0924 21.0137 12.2225 20.8978 12.2998L21.1751 12.7158ZM16.1387 16.0734L21.1751 12.7158L20.8978 12.2998L15.8613 15.6574L16.1387 16.0734ZM10.8249 12.7158L15.8613 16.0734L16.1387 15.6574L11.1022 12.2998L10.8249 12.7158ZM10.4167 11.9531C10.4167 12.2596 10.5698 12.5458 10.8249 12.7158L11.1022 12.2998C10.9863 12.2225 10.9167 12.0924 10.9167 11.9531H10.4167Z" fill="#C1C7D0"/>
</svg>