<svg width="24" height="24" viewBox="0 0 24 24" fill="none" xmlns="http://www.w3.org/2000/svg">
<path fill-rule="evenodd" clip-rule="evenodd" d="M5 3.5C4.60218 3.5 4.22064 3.65804 3.93934 3.93934C3.65804 4.22064 3.5 4.60218 3.5 5V19C3.5 19.3978 3.65804 19.7794 3.93934 20.0607C4.22064 20.342 4.60218 20.5 5 20.5H6.5V13C6.5 12.7239 6.72386 12.5 7 12.5H17C17.2761 12.5 17.5 12.7239 17.5 13V20.5H19C19.3978 20.5 19.7794 20.342 20.0607 20.0607C20.342 19.7794 20.5 19.3978 20.5 19V8.20711L15.7929 3.5H7.5V7.5H15C15.2761 7.5 15.5 7.72386 15.5 8C15.5 8.27614 15.2761 8.5 15 8.5H7C6.72386 8.5 6.5 8.27614 6.5 8V3.5H5ZM7 2.5H5C4.33696 2.5 3.70107 2.76339 3.23223 3.23223C2.76339 3.70107 2.5 4.33696 2.5 5V19C2.5 19.663 2.76339 20.2989 3.23223 20.7678C3.70107 21.2366 4.33696 21.5 5 21.5H7H17H19C19.663 21.5 20.2989 21.2366 20.7678 20.7678C21.2366 20.2989 21.5 19.663 21.5 19V8C21.5 7.86739 21.4473 7.74021 21.3536 7.64645L16.3536 2.64645C16.2598 2.55268 16.1326 2.5 16 2.5H7ZM7.5 13.5V20.5H16.5V13.5H7.5Z" fill="#0C2739"/>
</svg>
