<svg width="24" height="25" viewBox="0 0 24 25" fill="none" xmlns="http://www.w3.org/2000/svg">
<path fill-rule="evenodd" clip-rule="evenodd" d="M2.90039 4.96676C2.90039 4.2726 3.56686 3.6001 4.53372 3.6001H19.4671C20.4339 3.6001 21.1004 4.2726 21.1004 4.96676V11.9612C21.4587 12.1273 21.7941 12.3346 22.1004 12.577V4.96676C22.1004 3.59906 20.8566 2.6001 19.4671 2.6001H4.53372C3.14418 2.6001 1.90039 3.59906 1.90039 4.96676V15.1001V18.0334C1.90039 19.4011 3.14418 20.4001 4.53372 20.4001H15.8709C15.5122 20.1119 15.1941 19.7753 14.9265 19.4001H4.53372C3.56686 19.4001 2.90039 18.7276 2.90039 18.0334V15.3072L8.40039 9.8072L14.0989 15.5057C14.1741 15.1327 14.2909 14.7747 14.4442 14.4368L8.75394 8.74654C8.66018 8.65278 8.533 8.6001 8.40039 8.6001C8.26778 8.6001 8.14061 8.65278 8.04684 8.74654L2.90039 13.893V4.96676ZM12.5 8.50007C12.5 7.7821 13.082 7.20007 13.8 7.20007C14.518 7.20007 15.1 7.7821 15.1 8.50007C15.1 9.21804 14.518 9.80007 13.8 9.80007C13.082 9.80007 12.5 9.21804 12.5 8.50007ZM13.8 6.20007C12.5297 6.20007 11.5 7.22982 11.5 8.50007C11.5 9.77033 12.5297 10.8001 13.8 10.8001C15.0703 10.8001 16.1 9.77033 16.1 8.50007C16.1 7.22982 15.0703 6.20007 13.8 6.20007Z" fill="#878D95"/>
<path fill-rule="evenodd" clip-rule="evenodd" d="M19 21.5C21.7614 21.5 24 19.2614 24 16.5C24 13.7386 21.7614 11.5 19 11.5C16.2386 11.5 14 13.7386 14 16.5C14 19.2614 16.2386 21.5 19 21.5ZM18.5679 13.0385H19.4344V17.8557H18.5679V13.0385ZM19.0007 19.9615C19.3197 19.9615 19.5784 19.6919 19.5784 19.3594C19.5784 19.0268 19.3197 18.7572 19.0007 18.7572C18.6817 18.7572 18.4231 19.0268 18.4231 19.3594C18.4231 19.6919 18.6817 19.9615 19.0007 19.9615Z" fill="#878D95"/>
</svg>
