<svg width="24" height="24" viewBox="0 0 24 24" fill="none" xmlns="http://www.w3.org/2000/svg">
<path fill-rule="evenodd" clip-rule="evenodd" d="M5.82001 3.5C4.54263 3.5 3.5 4.53581 3.5 5.82001V15.6394L5.74967 13.3897C6.64256 12.4968 8.09743 12.4968 8.99032 13.3897L9.89032 14.2897C10.1974 14.5968 10.7026 14.5968 11.0097 14.2897L14.9997 10.2997C15.8926 9.40678 17.3474 9.40678 18.2403 10.2997L20.5 12.5594V5.82001C20.5 4.54263 19.4642 3.5 18.18 3.5H5.82001ZM6.81033 14.4504L3.5 17.7607V18.18C3.5 19.4574 4.53581 20.5 5.82001 20.5H18.18C19.4558 20.5 20.5 19.4558 20.5 18.18V14.6807L17.1797 11.3603C16.8726 11.0532 16.3674 11.0532 16.0603 11.3603L12.0703 15.3504L11.5529 14.833L12.0703 15.3504C11.1774 16.2432 9.72255 16.2432 8.82966 15.3504L7.92966 14.4504C7.62255 14.1433 7.11744 14.1433 6.81033 14.4504ZM2 5.82001V17.45V18.18C2 20.2826 3.7042 22 5.82001 22H18.18C20.2842 22 22 20.2842 22 18.18V5.82001C22 3.71739 20.2958 2 18.18 2H5.82001C3.71739 2 2 3.7042 2 5.82001ZM6.63 7.43002C6.63 6.59002 7.30999 5.91003 8.14999 5.91003C8.97999 5.91003 9.67001 6.59002 9.67001 7.43002C9.67001 8.27002 8.98999 8.95004 8.14999 8.95004C7.30999 8.95004 6.63 8.27002 6.63 7.43002Z" fill="#161721"/>
</svg>
