<svg width="20" height="20" viewBox="0 0 20 20" fill="none" xmlns="http://www.w3.org/2000/svg">
<path d="M17.4118 17H2.58824C1.68824 17 1 16.3 1 15.3846V4.61538C1 3.7 1.68824 3 2.58824 3H17.4118C18.3118 3 19 3.7 19 4.61538V15.3846C19 16.3 18.3118 17 17.4118 17ZM2.58824 4.07692C2.27059 4.07692 2.05882 4.29231 2.05882 4.61538V15.3846C2.05882 15.7077 2.27059 15.9231 2.58824 15.9231H17.4118C17.7294 15.9231 17.9412 15.7077 17.9412 15.3846V4.61538C17.9412 4.29231 17.7294 4.07692 17.4118 4.07692H2.58824Z" fill="#0C2739"/>
<path d="M13 9C11.9 9 11 8.1 11 7C11 5.9 11.9 5 13 5C14.1 5 15 5.9 15 7C15 8.1 14.1 9 13 9ZM13 6C12.45 6 12 6.45 12 7C12 7.55 12.45 8 13 8C13.55 8 14 7.55 14 7C14 6.45 13.55 6 13 6Z" fill="#0C2739"/>
<path d="M15.2606 17L6.65141 8.54696L1.73944 13.2983L1 12.5249L6.65141 7L16 16.2265L15.2606 17Z" fill="#0C2739"/>
<path d="M18.3226 14L15.2742 11.4857L12.7339 13.6L12 12.6857L15.2742 10L19 13.0857L18.3226 14Z" fill="#0C2739"/>
</svg>
