<svg width="24" height="24" viewBox="0 0 24 24" fill="none" xmlns="http://www.w3.org/2000/svg">
<path fill-rule="evenodd" clip-rule="evenodd" d="M20.5007 18.1534C20.5272 18.7478 20.3172 19.3285 19.9166 19.7684C19.5199 20.2042 18.9682 20.4667 18.3803 20.5L5.6197 20.5C5.03179 20.4667 4.4801 20.2042 4.08335 19.7684C3.68277 19.3285 3.47275 18.7478 3.49925 18.1534C3.49974 18.1423 3.49999 18.1311 3.49999 18.12L3.49999 12C3.49999 11.5858 3.1642 11.25 2.74999 11.25C2.33578 11.25 1.99999 11.5858 1.99999 12L1.99999 18.1042C1.96073 19.0887 2.31056 20.0495 2.97424 20.7783C3.64188 21.5116 4.57277 21.9505 5.56323 21.9991C5.57548 21.9997 5.58773 22 5.59999 22L18.4 22C18.4122 22 18.4245 21.9997 18.4367 21.9991C19.4272 21.9505 20.3581 21.5116 21.0257 20.7783C21.6894 20.0495 22.0392 19.0887 22 18.1042L22 12C22 11.5858 21.6642 11.25 21.25 11.25C20.8358 11.25 20.5 11.5858 20.5 12L20.5 18.12C20.5 18.1311 20.5002 18.1423 20.5007 18.1534ZM11.4685 15.5292L7.46965 11.5303C7.17676 11.2374 7.17676 10.7626 7.46965 10.4697C7.76254 10.1768 8.23742 10.1768 8.53031 10.4697L11.25 13.1893L11.25 2.75C11.25 2.33579 11.5858 2 12 2C12.4142 2 12.75 2.33579 12.75 2.75L12.75 13.1893L15.4696 10.4697C15.7625 10.1768 16.2374 10.1768 16.5303 10.4697C16.8232 10.7626 16.8232 11.2374 16.5303 11.5303L12.5303 15.5303C12.2374 15.8232 11.7625 15.8232 11.4696 15.5303" fill="#161721"/>
</svg>
