<svg width="16" height="16" viewBox="0 0 16 16" fill="none" xmlns="http://www.w3.org/2000/svg">
<path fill-rule="evenodd" clip-rule="evenodd" d="M8.33341 2.00008C8.33341 1.81599 8.18418 1.66675 8.00008 1.66675C7.81599 1.66675 7.66675 1.81599 7.66675 2.00008V9.72883L4.90229 6.96437C4.77211 6.8342 4.56106 6.8342 4.43088 6.96437C4.30071 7.09454 4.30071 7.3056 4.43088 7.43577L7.76422 10.7691C7.89439 10.8993 8.10545 10.8993 8.23562 10.7691L11.569 7.43578C11.6991 7.3056 11.6991 7.09455 11.569 6.96437C11.4388 6.8342 11.2277 6.8342 11.0976 6.96437L8.33341 9.72851V2.00008ZM2.00008 9.66675C2.18418 9.66675 2.33341 9.81599 2.33341 10.0001V12.6667C2.33341 12.932 2.43877 13.1863 2.62631 13.3739C2.81384 13.5614 3.0682 13.6667 3.33341 13.6667H12.6667C12.932 13.6667 13.1863 13.5614 13.3739 13.3739C13.5614 13.1863 13.6667 12.932 13.6667 12.6667V10.0001C13.6667 9.81599 13.816 9.66675 14.0001 9.66675C14.1842 9.66675 14.3334 9.81599 14.3334 10.0001V12.6667C14.3334 13.1088 14.1578 13.5327 13.8453 13.8453C13.5327 14.1578 13.1088 14.3334 12.6667 14.3334H3.33341C2.89139 14.3334 2.46746 14.1578 2.1549 13.8453C1.84234 13.5327 1.66675 13.1088 1.66675 12.6667V10.0001C1.66675 9.81599 1.81599 9.66675 2.00008 9.66675Z" fill="#0C2739"/>
</svg>
