<svg width="16" height="16" viewBox="0 0 16 16" fill="none" xmlns="http://www.w3.org/2000/svg">
  <path fill-rule="evenodd" clip-rule="evenodd" d="M14.6666 7.99992C14.6666 11.6818 11.6819 14.6666 7.99998 14.6666C4.31808 14.6666 1.33331 11.6818 1.33331 7.99992C1.33331 4.31802 4.31808 1.33325 7.99998 1.33325C11.6819 1.33325 14.6666 4.31802 14.6666 7.99992ZM7.99998 4.99992C7.81588 4.99992 7.66665 5.14916 7.66665 5.33325C7.66665 5.51735 7.81588 5.66659 7.99998 5.66659H8.00665C8.19074 5.66659 8.33998 5.51735 8.33998 5.33325C8.33998 5.14916 8.19074 4.99992 8.00665 4.99992H7.99998ZM8.33998 7.33325C8.33998 7.14916 8.19074 6.99992 8.00665 6.99992C7.82255 6.99992 7.67331 7.14916 7.67331 7.33325L7.67331 10.6666C7.67331 10.8507 7.82255 10.9999 8.00665 10.9999C8.19074 10.9999 8.33998 10.8507 8.33998 10.6666L8.33998 7.33325Z" fill="#0C2739"/>
</svg>
