<svg width="24" height="24" viewBox="0 0 24 24" fill="none" xmlns="http://www.w3.org/2000/svg">
<path fill-rule="evenodd" clip-rule="evenodd" d="M3.5 12C3.5 7.30558 7.30558 3.5 12 3.5C16.6944 3.5 20.5 7.30558 20.5 12C20.5 16.6944 16.6944 20.5 12 20.5C7.30558 20.5 3.5 16.6944 3.5 12ZM12 2C6.47715 2 2 6.47715 2 12C2 17.5228 6.47715 22 12 22C17.5228 22 22 17.5228 22 12C22 6.47715 17.5228 2 12 2ZM12.0193 8.0385C12.5822 8.0385 13.0385 7.58217 13.0385 7.01925C13.0385 6.45633 12.5822 6 12.0193 6C11.4563 6 11 6.45633 11 7.01925C11 7.58217 11.4563 8.0385 12.0193 8.0385ZM12.0193 9.62854C12.5822 9.62854 13.0385 10.0849 13.0385 10.6478V16.9808C13.0385 17.5437 12.5822 18 12.0193 18C11.4563 18 11 17.5437 11 16.9808V10.6478C11 10.0849 11.4563 9.62854 12.0193 9.62854Z" fill="#161721"/>
</svg>
