<svg width="16" height="16" viewBox="0 0 16 16" fill="none" xmlns="http://www.w3.org/2000/svg">
<path fill-rule="evenodd" clip-rule="evenodd" d="M14.6666 7.99998C14.6666 11.6819 11.6819 14.6666 7.99998 14.6666C4.31808 14.6666 1.33331 11.6819 1.33331 7.99998C1.33331 4.31808 4.31808 1.33331 7.99998 1.33331C11.6819 1.33331 14.6666 4.31808 14.6666 7.99998ZM7.99998 4.99998C7.81588 4.99998 7.66665 5.14922 7.66665 5.33331C7.66665 5.51741 7.81588 5.66665 7.99998 5.66665H8.00665C8.19074 5.66665 8.33998 5.51741 8.33998 5.33331C8.33998 5.14922 8.19074 4.99998 8.00665 4.99998H7.99998ZM8.33998 7.33331C8.33998 7.14922 8.19074 6.99998 8.00665 6.99998C7.82255 6.99998 7.67331 7.14922 7.67331 7.33331L7.67331 10.6666C7.67331 10.8507 7.82255 11 8.00665 11C8.19074 11 8.33998 10.8507 8.33998 10.6666L8.33998 7.33331Z" fill="#0C2739"/>
</svg>
