<svg width="20" height="20" viewBox="0 0 20 20" fill="none" xmlns="http://www.w3.org/2000/svg">
<path fill-rule="evenodd" clip-rule="evenodd" d="M10 2.08333C5.62775 2.08333 2.08333 5.62775 2.08333 10C2.08333 14.3723 5.62775 17.9167 10 17.9167C14.3723 17.9167 17.9167 14.3723 17.9167 10C17.9167 5.62775 14.3723 2.08333 10 2.08333ZM1.25 10C1.25 5.16751 5.16751 1.25 10 1.25C14.8325 1.25 18.75 5.16751 18.75 10C18.75 14.8325 14.8325 18.75 10 18.75C5.16751 18.75 1.25 14.8325 1.25 10Z" fill="#031533"/>
<path fill-rule="evenodd" clip-rule="evenodd" d="M10.0083 13.75C9.7782 13.75 9.59166 13.5635 9.59166 13.3333L9.59166 9.16667C9.59166 8.93655 9.7782 8.75 10.0083 8.75C10.2384 8.75 10.425 8.93655 10.425 9.16667L10.425 13.3333C10.425 13.5635 10.2384 13.75 10.0083 13.75Z" fill="#031533"/>
<path fill-rule="evenodd" clip-rule="evenodd" d="M10.425 6.66659C10.425 6.8967 10.2384 7.08325 10.0083 7.08325L9.99999 7.08325C9.76987 7.08325 9.58332 6.8967 9.58332 6.66659C9.58332 6.43647 9.76987 6.24992 9.99999 6.24992L10.0083 6.24992C10.2384 6.24992 10.425 6.43647 10.425 6.66659Z" fill="#031533"/>
</svg>
