<svg width="24" height="24" viewBox="0 0 24 24" fill="none" xmlns="http://www.w3.org/2000/svg">
<path fill-rule="evenodd" clip-rule="evenodd" d="M6 2.5C3.79086 2.5 2 4.29086 2 6.5V17.5C2 19.7091 3.79086 21.5 6 21.5H11.75H12H14.25C14.6642 21.5 15 21.1642 15 20.75C15 20.3358 14.6642 20 14.25 20H12V4L14.25 4C14.6642 4 15 3.66421 15 3.25C15 2.83579 14.6642 2.5 14.25 2.5H12H11.75H6ZM17 20.75C17 21.1642 17.3358 21.5 17.75 21.5H18C18.2794 21.5 18.5522 21.4713 18.8154 21.4168C19.221 21.3328 19.4025 20.8863 19.2439 20.5037C19.0852 20.1211 18.6436 19.952 18.2311 19.9896C18.1552 19.9965 18.0781 20 18 20H17.75C17.3358 20 17 20.3358 17 20.75ZM21.25 7.875C21.6642 7.875 22 7.53922 22 7.125V6.5C22 6.22058 21.9713 5.94784 21.9168 5.68458C21.8328 5.27897 21.3863 5.09748 21.0037 5.25614C20.6211 5.41481 20.452 5.85638 20.4896 6.26889C20.4965 6.34482 20.5 6.4219 20.5 6.5V7.125C20.5 7.53922 20.8358 7.875 21.25 7.875ZM17 3.25C17 2.83579 17.3358 2.5 17.75 2.5H18C18.2794 2.5 18.5522 2.52865 18.8154 2.58318C19.221 2.66719 19.4025 3.1137 19.2439 3.49632C19.0852 3.87894 18.6436 4.04797 18.2311 4.01045C18.1552 4.00354 18.0781 4 18 4H17.75C17.3358 4 17 3.66421 17 3.25ZM21.25 10.625C21.6642 10.625 22 10.9608 22 11.375V12.625C22 13.0392 21.6642 13.375 21.25 13.375C20.8358 13.375 20.5 13.0392 20.5 12.625V11.375C20.5 10.9608 20.8358 10.625 21.25 10.625ZM21.25 16.125C21.6642 16.125 22 16.4608 22 16.875V17.5C22 17.7794 21.9713 18.0522 21.9168 18.3154C21.8328 18.721 21.3863 18.9025 21.0037 18.7439C20.6211 18.5852 20.452 18.1436 20.4896 17.7311C20.4965 17.6552 20.5 17.5781 20.5 17.5V16.875C20.5 16.4608 20.8358 16.125 21.25 16.125Z" fill="#161721"/>
</svg>
