<svg width="24" height="24" viewBox="0 0 24 24" fill="none" xmlns="http://www.w3.org/2000/svg">
<path fill-rule="evenodd" clip-rule="evenodd" d="M11.5064 8.24442C11.5033 8.65862 11.8366 8.99689 12.2508 8.99998C12.665 9.00306 13.0033 8.66978 13.0064 8.25558L12.9954 6.51468H14.8054C15.2196 6.5116 15.5529 6.18449 15.5498 5.77029C15.5467 5.35608 15.2084 5.01164 14.7942 5.01473L13.0065 5.01472L12.9952 3.22703C12.9983 2.81283 12.665 2.47455 12.2508 2.47147C11.8366 2.46839 11.4983 2.80167 11.4952 3.21587L11.5064 5.01472L9.69639 5.01472C9.28219 5.01781 8.94891 5.35608 8.95199 5.77029C8.95507 6.18449 9.29335 6.51777 9.70755 6.51468H11.4952L11.5064 8.24442ZM7.25 5H7C4.79086 5 3 6.79086 3 9V11.5V13V15.5C3 17.7091 4.79086 19.5 7 19.5H11.5H13H17.5C19.7091 19.5 21.5 17.7091 21.5 15.5V13V11.5V9C21.5 6.79086 19.7091 5 17.5 5H17.25C16.8358 5 16.5 5.33578 16.5 5.75C16.5 6.16421 16.8358 6.5 17.25 6.5H17.5C18.8807 6.5 20 7.61929 20 9V11.5H16.5H13H11.5H8H4.5V9C4.5 7.61929 5.61929 6.5 7 6.5H7.25C7.66421 6.5 8 6.16421 8 5.75C8 5.33578 7.66421 5 7.25 5ZM17.5 18L15 18H10L7 18C5.61929 18 4.5 16.8807 4.5 15.5V13H11.5H13H20V15.5C20 16.8807 18.8807 18 17.5 18Z" fill="#161721"/>
</svg>
