<svg width="24" height="24" viewBox="0 0 24 24" fill="none" xmlns="http://www.w3.org/2000/svg">
<path fill-rule="evenodd" clip-rule="evenodd" d="M18.5498 15V17.5C18.5498 18.8807 17.4305 20 16.0498 20H13.5498V13H13.55V11.5H13.5498V4.5L16.0498 4.5C17.4305 4.5 18.5498 5.61929 18.5498 7V10H18.55V15H18.5498ZM20.0498 11.5V13V17.5C20.0498 19.7091 18.2589 21.5 16.0498 21.5H13.5498H12.0498H9.5498C7.34066 21.5 5.5498 19.7091 5.5498 17.5V17.25C5.5498 16.8358 5.88559 16.5 6.2998 16.5C6.71402 16.5 7.0498 16.8358 7.0498 17.25V17.5C7.0498 18.8807 8.16909 20 9.5498 20H12.0498V16.5V13V11.5V8V4.5H9.5498C8.16909 4.5 7.0498 5.61929 7.0498 7V7.25C7.0498 7.66421 6.71402 8 6.2998 8C5.88559 8 5.5498 7.66421 5.5498 7.25V7C5.5498 4.79086 7.34067 3 9.5498 3H12.0498H13.5498H16.0498C18.2589 3 20.0498 4.79086 20.0498 7V11.5ZM7.0434 14.773C7.04648 15.1872 6.7132 15.5255 6.299 15.5285C5.8848 15.5316 5.54652 15.1983 5.54344 14.7841L5.55444 13.0432H3.74442C3.33022 13.0402 2.99694 12.7131 3.00002 12.2989C3.0031 11.8847 3.34138 11.5402 3.75558 11.5433H5.54327L5.5546 9.7556C5.55152 9.3414 5.8848 9.00312 6.299 9.00004C6.7132 8.99696 7.05148 9.33023 7.05456 9.74443L7.0434 11.5433L8.85342 11.5433C9.26762 11.5464 9.6009 11.8846 9.59781 12.2989C9.59473 12.7131 9.25645 13.0463 8.84225 13.0432L7.05456 13.0432L7.0434 14.773Z" fill="#161721"/>
</svg>
