<svg width="24" height="24" viewBox="0 0 24 24" fill="none" xmlns="http://www.w3.org/2000/svg">
<path d="M21.5 6.5V4.83333C21.5 4.3918 21.4184 3.97032 21.2703 3.58467L20.3368 3.94321C20.4414 4.21555 20.5 4.51557 20.5 4.83333V6.5H21.5Z" fill="#0C2739"/>
<path d="M7.25 1.5H5.66667C5.2269 1.5 4.80806 1.59436 4.42744 1.7649L4.83634 2.67749C5.0918 2.56302 5.37157 2.5 5.66667 2.5L7.25 2.5V1.5Z" fill="#0C2739"/>
<path d="M21.5 18.1667C21.5 20.0076 20.0822 21.5 18.3333 21.5H5.66667C3.91777 21.5 2.5 20.0076 2.5 18.1667V9.83333H3.5L3.5 10.5L20.5 10.5V9.83333H21.5V18.1667Z" fill="#0C2739"/>
<path d="M2.5 6.5V4.83333C2.5 4.3918 2.58155 3.97032 2.72967 3.58467L3.66319 3.94321C3.55859 4.21555 3.5 4.51558 3.5 4.83333L3.5 6.5H2.5Z" fill="#0C2739"/>
<path d="M10.4167 1.5H13.5833V2.5L10.4167 2.5V1.5Z" fill="#0C2739"/>
<path d="M16.75 1.5H18.3333C18.7731 1.5 19.1919 1.59436 19.5726 1.7649L19.1637 2.67749C18.9082 2.56302 18.6284 2.5 18.3333 2.5L16.75 2.5V1.5Z" fill="#0C2739"/>
</svg>
