<svg width="24" height="24" viewBox="0 0 24 24" fill="none" xmlns="http://www.w3.org/2000/svg">
<path fill-rule="evenodd" clip-rule="evenodd" d="M4.5 14L4.5 13L4.5 11.5V10L4.5 7C4.5 5.61929 5.61929 4.5 7 4.5L9.5 4.5L9.5 10V11.5V13V14L9.5 20H7C5.61929 20 4.5 18.8807 4.5 17.5L4.5 14ZM3 11.5V13V17.5C3 19.7091 4.79086 21.5 7 21.5H9.5H11H13.5C15.7091 21.5 17.5 19.7091 17.5 17.5V17.25C17.5 16.8358 17.1642 16.5 16.75 16.5C16.3358 16.5 16 16.8358 16 17.25V17.5C16 18.8807 14.8807 20 13.5 20H11V16.5V13V11.5V8L11 4.5H13.5C14.8807 4.5 16 5.61929 16 7V7.25C16 7.66421 16.3358 8 16.75 8C17.1642 8 17.5 7.66421 17.5 7.25V7C17.5 4.79086 15.7091 3 13.5 3H11H9.5H7C4.79086 3 3 4.79086 3 7V11.5ZM16.0064 14.773C16.0033 15.1872 16.3366 15.5255 16.7508 15.5285C17.165 15.5316 17.5033 15.1983 17.5064 14.7841L17.4954 13.0432H19.3054C19.7196 13.0402 20.0529 12.7131 20.0498 12.2989C20.0467 11.8847 19.7084 11.5402 19.2942 11.5433H17.5065L17.4952 9.7556C17.4983 9.3414 17.165 9.00312 16.7508 9.00004C16.3366 8.99696 15.9983 9.33023 15.9952 9.74443L16.0064 11.5433L14.1964 11.5433C13.7822 11.5464 13.4489 11.8846 13.452 12.2989C13.4551 12.7131 13.7934 13.0463 14.2076 13.0432L15.9952 13.0432L16.0064 14.773Z" fill="#161721"/>
</svg>
