<svg width="24" height="24" viewBox="0 0 24 24" fill="none" xmlns="http://www.w3.org/2000/svg">
<path d="M21.5 4.83333V13.1667L20.5 13.1667V12.5L3.5 12.5V13.1667H2.5V4.83333C2.5 2.99238 3.91776 1.5 5.66667 1.5H18.3333C20.0822 1.5 21.5 2.99238 21.5 4.83333Z" fill="#0C2739"/>
<path d="M2.5 16.5V18.1667C2.5 18.6082 2.58155 19.0297 2.72967 19.4153L3.66318 19.0568C3.55859 18.7845 3.5 18.4844 3.5 18.1667L3.5 16.5H2.5Z" fill="#0C2739"/>
<path d="M16.75 21.5H18.3333C18.7731 21.5 19.1919 21.4056 19.5726 21.2351L19.1637 20.3225C18.9082 20.437 18.6284 20.5 18.3333 20.5H16.75V21.5Z" fill="#0C2739"/>
<path d="M21.5 16.5V18.1667C21.5 18.6082 21.4184 19.0297 21.2703 19.4153L20.3368 19.0568C20.4414 18.7845 20.5 18.4844 20.5 18.1667V16.5H21.5Z" fill="#0C2739"/>
<path d="M13.5833 21.5H10.4167V20.5H13.5833V21.5Z" fill="#0C2739"/>
<path d="M7.25 21.5H5.66667C5.2269 21.5 4.80806 21.4056 4.42744 21.2351L4.83634 20.3225C5.0918 20.437 5.37157 20.5 5.66667 20.5H7.25V21.5Z" fill="#0C2739"/>
</svg>
