<svg width="24" height="24" viewBox="0 0 24 24" fill="none" xmlns="http://www.w3.org/2000/svg">
<path fill-rule="evenodd" clip-rule="evenodd" d="M7 6.5L10 6.5H15L17.5 6.5C18.8807 6.5 20 7.61929 20 9V11.5L15 11.5L13 11.5H11.5L10 11.5L4.5 11.5V9C4.5 7.61929 5.61929 6.5 7 6.5ZM7 5H11.5H13H17.5C19.7091 5 21.5 6.79086 21.5 9V11.5V13V15.5C21.5 17.7091 19.7091 19.5 17.5 19.5H17.25C16.8358 19.5 16.5 19.1642 16.5 18.75C16.5 18.3358 16.8358 18 17.25 18H17.5C18.8807 18 20 16.8807 20 15.5V13H13H11.5H4.5V15.5C4.5 16.8807 5.61929 18 7 18H7.25C7.66421 18 8 18.3358 8 18.75C8 19.1642 7.66421 19.5 7.25 19.5H7C4.79086 19.5 3 17.7091 3 15.5V13V11.5V9C3 6.79086 4.79086 5 7 5ZM11.5064 21.2444C11.5033 21.6586 11.8366 21.9969 12.2508 22C12.665 22.0031 13.0033 21.6698 13.0064 21.2556L12.9954 19.5147H14.8054C15.2196 19.5116 15.5529 19.1845 15.5498 18.7703C15.5467 18.3561 15.2084 18.0116 14.7942 18.0147H13.0065L12.9952 16.227C12.9983 15.8128 12.665 15.4746 12.2508 15.4715C11.8366 15.4684 11.4983 15.8017 11.4952 16.2159L11.5064 18.0147L9.69639 18.0147C9.28219 18.0178 8.94891 18.3561 8.95199 18.7703C8.95507 19.1845 9.29335 19.5178 9.70755 19.5147L11.4952 19.5147L11.5064 21.2444Z" fill="#161721"/>
</svg>
