<svg width="24" height="24" viewBox="0 0 24 24" fill="none" xmlns="http://www.w3.org/2000/svg">
<path d="M5.33333 2H13.6667V3H13V20H13.6667V21H5.33333C3.49238 21 2 19.5822 2 17.8333V5.16667C2 3.41777 3.49238 2 5.33333 2Z" fill="#0C2739"/>
<path d="M17 21H18.6667C19.1082 21 19.5297 20.9184 19.9153 20.7703L19.5568 19.8368C19.2845 19.9414 18.9844 20 18.6667 20H17V21Z" fill="#0C2739"/>
<path d="M22 6.75V5.16667C22 4.7269 21.9056 4.30806 21.7351 3.92744L20.8225 4.33634C20.937 4.5918 21 4.87157 21 5.16667V6.75H22Z" fill="#0C2739"/>
<path d="M17 2H18.6667C19.1082 2 19.5297 2.08155 19.9153 2.22967L19.5568 3.16319C19.2844 3.05859 18.9844 3 18.6667 3H17V2Z" fill="#0C2739"/>
<path d="M22 9.91667V13.0833H21V9.91667H22Z" fill="#0C2739"/>
<path d="M22 16.25V17.8333C22 18.2731 21.9056 18.6919 21.7351 19.0726L20.8225 18.6637C20.937 18.4082 21 18.1284 21 17.8333V16.25H22Z" fill="#0C2739"/>
</svg>
