<svg width="24" height="24" viewBox="0 0 24 24" fill="none" xmlns="http://www.w3.org/2000/svg">
<path d="M7 2H5.33333C4.8918 2 4.47032 2.08156 4.08467 2.22967L4.44321 3.16319C4.71555 3.05859 5.01557 3 5.33333 3L7 3V2Z" fill="#0C2739"/>
<path d="M2 16.25V17.8333C2 18.2731 2.09436 18.6919 2.2649 19.0726L3.17749 18.6637C3.06303 18.4082 3 18.1284 3 17.8333L3 16.25H2Z" fill="#0C2739"/>
<path d="M10.3333 2V3H11L11 20H10.3333L10.3333 21H18.6667C20.5076 21 22 19.5822 22 17.8333L22 5.16667C22 3.41776 20.5076 2 18.6667 2H10.3333Z" fill="#0C2739"/>
<path d="M7 21H5.33334C4.8918 21 4.47032 20.9184 4.08467 20.7703L4.44321 19.8368C4.71555 19.9414 5.01558 20 5.33334 20H7V21Z" fill="#0C2739"/>
<path d="M2 13.0833V9.91667H3L3 13.0833H2Z" fill="#0C2739"/>
<path d="M2 6.75V5.16667C2 4.7269 2.09436 4.30806 2.2649 3.92745L3.17749 4.33634C3.06302 4.5918 3 4.87157 3 5.16667L3 6.75H2Z" fill="#0C2739"/>
</svg>
