<svg width="24" height="24" viewBox="0 0 24 24" fill="none" xmlns="http://www.w3.org/2000/svg">
<path fill-rule="evenodd" clip-rule="evenodd" d="M18 21.5C20.2091 21.5 22 19.7091 22 17.5L22 6.5C22 4.29086 20.2091 2.5 18 2.5L12.25 2.5L12 2.5L9.75 2.5C9.33579 2.5 9 2.83579 9 3.25C9 3.66421 9.33579 4 9.75 4L12 4L12 20L9.75 20C9.33579 20 9 20.3358 9 20.75C9 21.1642 9.33579 21.5 9.75 21.5L12 21.5L12.25 21.5L18 21.5ZM7 3.25C7 2.83579 6.66422 2.5 6.25 2.5L6 2.5C5.72058 2.5 5.44784 2.52865 5.18458 2.58318C4.77897 2.66718 4.59747 3.1137 4.75614 3.49632C4.91481 3.87894 5.35638 4.04797 5.76889 4.01045C5.84482 4.00354 5.9219 4 6 4L6.25 4C6.66421 4 7 3.66421 7 3.25ZM2.75 16.125C2.33579 16.125 2 16.4608 2 16.875L2 17.5C2 17.7794 2.02865 18.0522 2.08318 18.3154C2.16718 18.721 2.6137 18.9025 2.99632 18.7439C3.37894 18.5852 3.54797 18.1436 3.51044 17.7311C3.50354 17.6552 3.5 17.5781 3.5 17.5L3.5 16.875C3.5 16.4608 3.16421 16.125 2.75 16.125ZM7 20.75C7 21.1642 6.66421 21.5 6.25 21.5L6 21.5C5.72057 21.5 5.44784 21.4713 5.18457 21.4168C4.77897 21.3328 4.59747 20.8863 4.75614 20.5037C4.9148 20.1211 5.35637 19.952 5.76888 19.9896C5.84482 19.9965 5.9219 20 6 20L6.25 20C6.66421 20 7 20.3358 7 20.75ZM2.75 13.375C2.33579 13.375 2 13.0392 2 12.625L2 11.375C2 10.9608 2.33579 10.625 2.75 10.625C3.16421 10.625 3.5 10.9608 3.5 11.375L3.5 12.625C3.5 13.0392 3.16421 13.375 2.75 13.375ZM2.75 7.875C2.33579 7.875 2 7.53921 2 7.125L2 6.5C2 6.22057 2.02865 5.94784 2.08318 5.68458C2.16718 5.27897 2.6137 5.09747 2.99632 5.25614C3.37894 5.4148 3.54797 5.85637 3.51045 6.26888C3.50354 6.34482 3.5 6.4219 3.5 6.5L3.5 7.125C3.5 7.53921 3.16421 7.875 2.75 7.875Z" fill="#161721"/>
</svg>
