<svg width="24" height="24" viewBox="0 0 24 24" fill="none" xmlns="http://www.w3.org/2000/svg">
<path fill-rule="evenodd" clip-rule="evenodd" d="M21.5 6C21.5 3.79086 19.7091 2 17.5 2L6.5 2C4.29086 2 2.5 3.79086 2.5 6L2.5 11.75L2.5 12L2.5 14.25C2.5 14.6642 2.83579 15 3.25 15C3.66422 15 4 14.6642 4 14.25L4 12L20 12L20 14.25C20 14.6642 20.3358 15 20.75 15C21.1642 15 21.5 14.6642 21.5 14.25L21.5 12L21.5 11.75L21.5 6ZM3.25 17C2.83579 17 2.5 17.3358 2.5 17.75L2.5 18C2.5 18.2794 2.52865 18.5522 2.58318 18.8154C2.66718 19.221 3.1137 19.4025 3.49632 19.2439C3.87894 19.0852 4.04797 18.6436 4.01045 18.2311C4.00354 18.1552 4 18.0781 4 18L4 17.75C4 17.3358 3.66421 17 3.25 17ZM16.125 21.25C16.125 21.6642 16.4608 22 16.875 22L17.5 22C17.7794 22 18.0522 21.9713 18.3154 21.9168C18.721 21.8328 18.9025 21.3863 18.7439 21.0037C18.5852 20.6211 18.1436 20.452 17.7311 20.4896C17.6552 20.4965 17.5781 20.5 17.5 20.5L16.875 20.5C16.4608 20.5 16.125 20.8358 16.125 21.25ZM20.75 17C21.1642 17 21.5 17.3358 21.5 17.75L21.5 18C21.5 18.2794 21.4713 18.5522 21.4168 18.8154C21.3328 19.221 20.8863 19.4025 20.5037 19.2439C20.1211 19.0852 19.952 18.6436 19.9896 18.2311C19.9965 18.1552 20 18.0781 20 18L20 17.75C20 17.3358 20.3358 17 20.75 17ZM13.375 21.25C13.375 21.6642 13.0392 22 12.625 22L11.375 22C10.9608 22 10.625 21.6642 10.625 21.25C10.625 20.8358 10.9608 20.5 11.375 20.5L12.625 20.5C13.0392 20.5 13.375 20.8358 13.375 21.25ZM7.875 21.25C7.875 21.6642 7.53921 22 7.125 22L6.5 22C6.22057 22 5.94784 21.9713 5.68458 21.9168C5.27897 21.8328 5.09747 21.3863 5.25614 21.0037C5.41481 20.6211 5.85637 20.452 6.26889 20.4896C6.34482 20.4965 6.4219 20.5 6.5 20.5L7.125 20.5C7.53921 20.5 7.875 20.8358 7.875 21.25Z" fill="#161721"/>
</svg>
