<svg width="24" height="24" viewBox="0 0 24 24" fill="none" xmlns="http://www.w3.org/2000/svg">
<path fill-rule="evenodd" clip-rule="evenodd" d="M2.5 18C2.5 20.2091 4.29086 22 6.5 22L17.5 22C19.7091 22 21.5 20.2091 21.5 18L21.5 12.25L21.5 12L21.5 9.75C21.5 9.33579 21.1642 9 20.75 9C20.3358 9 20 9.33579 20 9.75L20 12L4 12L4 9.75C4 9.33579 3.66421 9 3.25 9C2.83579 9 2.5 9.33579 2.5 9.75L2.5 12L2.5 12.25L2.5 18ZM20.75 7C21.1642 7 21.5 6.66421 21.5 6.25L21.5 6C21.5 5.72057 21.4713 5.44784 21.4168 5.18458C21.3328 4.77897 20.8863 4.59747 20.5037 4.75614C20.1211 4.9148 19.952 5.35637 19.9896 5.76888C19.9965 5.84482 20 5.9219 20 6L20 6.25C20 6.66421 20.3358 7 20.75 7ZM7.875 2.75C7.875 2.33578 7.53921 2 7.125 2L6.5 2C6.22058 2 5.94784 2.02865 5.68458 2.08318C5.27897 2.16718 5.09747 2.6137 5.25614 2.99631C5.41481 3.37893 5.85638 3.54797 6.26889 3.51044C6.34482 3.50354 6.4219 3.5 6.5 3.5L7.125 3.5C7.53921 3.5 7.875 3.16421 7.875 2.75ZM3.25 7C2.83579 7 2.5 6.66421 2.5 6.25L2.5 6C2.5 5.72057 2.52865 5.44784 2.58318 5.18457C2.66718 4.77897 3.1137 4.59747 3.49632 4.75614C3.87894 4.9148 4.04797 5.35637 4.01045 5.76888C4.00354 5.84482 4 5.9219 4 6L4 6.25C4 6.66421 3.66421 7 3.25 7ZM10.625 2.75C10.625 2.33578 10.9608 2 11.375 2L12.625 2C13.0392 2 13.375 2.33578 13.375 2.75C13.375 3.16421 13.0392 3.5 12.625 3.5L11.375 3.5C10.9608 3.5 10.625 3.16421 10.625 2.75ZM16.125 2.75C16.125 2.33579 16.4608 2 16.875 2L17.5 2C17.7794 2 18.0522 2.02865 18.3154 2.08317C18.721 2.16718 18.9025 2.6137 18.7439 2.99632C18.5852 3.37894 18.1436 3.54797 17.7311 3.51044C17.6552 3.50354 17.5781 3.5 17.5 3.5L16.875 3.5C16.4608 3.5 16.125 3.16421 16.125 2.75Z" fill="#161721"/>
</svg>
