<svg width="20" height="20" viewBox="0 0 20 20" fill="none" xmlns="http://www.w3.org/2000/svg">
<path fill-rule="evenodd" clip-rule="evenodd" d="M14 2.8H6C4.23269 2.8 2.8 4.23269 2.8 6V14C2.8 15.7673 4.23269 17.2 6 17.2H14C15.7673 17.2 17.2 15.7673 17.2 14V6C17.2 4.23269 15.7673 2.8 14 2.8ZM6 2C3.79086 2 2 3.79086 2 6V14C2 16.2091 3.79086 18 6 18H14C16.2091 18 18 16.2091 18 14V6C18 3.79086 16.2091 2 14 2H6ZM15.3 5.4C15.3 5.89706 14.8971 6.3 14.4 6.3C13.9029 6.3 13.5 5.89706 13.5 5.4C13.5 4.90294 13.9029 4.5 14.4 4.5C14.8971 4.5 15.3 4.90294 15.3 5.4ZM13.2 10C13.2 11.7673 11.7673 13.2 10 13.2C8.23269 13.2 6.8 11.7673 6.8 10C6.8 8.23269 8.23269 6.8 10 6.8C11.7673 6.8 13.2 8.23269 13.2 10ZM14 10C14 12.2091 12.2091 14 10 14C7.79086 14 6 12.2091 6 10C6 7.79086 7.79086 6 10 6C12.2091 6 14 7.79086 14 10Z" fill="#0C2739"/>
</svg>
