<svg width="24" height="24" viewBox="0 0 24 24" fill="none" xmlns="http://www.w3.org/2000/svg">
<path fill-rule="evenodd" clip-rule="evenodd" d="M5 3.5H12C12.8284 3.5 13.5 4.17157 13.5 5V9H12C10.3431 9 9 10.3431 9 12V13.5H5C4.17157 13.5 3.5 12.8284 3.5 12V5C3.5 4.17157 4.17157 3.5 5 3.5ZM9 15H5C3.34315 15 2 13.6569 2 12V5C2 3.34315 3.34315 2 5 2H12C13.6569 2 15 3.34315 15 5V9H19C20.6569 9 22 10.3431 22 12V19C22 20.6569 20.6569 22 19 22H12C10.3431 22 9 20.6569 9 19V15ZM15 10.5H19C19.8284 10.5 20.5 11.1716 20.5 12V19C20.5 19.8284 19.8284 20.5 19 20.5H12C11.1716 20.5 10.5 19.8284 10.5 19V15H12C13.6569 15 15 13.6569 15 12V10.5ZM13.5 10.5V12C13.5 12.8284 12.8284 13.5 12 13.5H10.5V12C10.5 11.1716 11.1716 10.5 12 10.5H13.5Z" fill="#161721"/>
</svg>
