<svg width="24" height="24" viewBox="0 0 24 24" fill="none" xmlns="http://www.w3.org/2000/svg">
<path fill-rule="evenodd" clip-rule="evenodd" d="M7.64562 7.70604C7.8062 7.58295 8.02514 7.56879 8.20026 7.67014L21.7066 15.4879C21.8816 15.5891 21.9783 15.7858 21.9518 15.9862C21.9253 16.1865 21.7808 16.3513 21.5855 16.4036L15.1991 18.1148L15.1509 18.1862L12.2875 22.9497C12.1841 23.1216 11.988 23.2151 11.7893 23.1872C11.5906 23.1592 11.4279 23.0152 11.376 22.8215L7.46682 8.23229C7.41445 8.03685 7.48503 7.82912 7.64562 7.70604ZM8.74565 9.14127L12.0371 21.4252L14.3006 17.6598C14.3051 17.6523 14.3098 17.6449 14.3147 17.6377L14.4748 17.4005C14.5422 17.3006 14.6434 17.2285 14.7598 17.1973L20.1626 15.7496L8.74565 9.14127Z" fill="#0C2739"/>
<path d="M9.65606 4.59048C9.65606 4.92227 9.38722 5.19112 9.05543 5.19112C8.72365 5.19112 8.45481 4.92227 8.45481 4.59048V1.80064C8.45481 1.46884 8.72365 1.2 9.05543 1.2C9.38722 1.2 9.65606 1.46884 9.65606 1.80064V4.59048Z" fill="#0C2739"/>
<path d="M4.56346 8.45472C4.89524 8.45472 5.16408 8.72356 5.16408 9.05536C5.16408 9.38715 4.89524 9.65599 4.56346 9.65599H1.80082C1.46904 9.65599 1.2002 9.38715 1.2002 9.05536C1.2002 8.72356 1.46904 8.45472 1.80082 8.45472H4.56346Z" fill="#0C2739"/>
<path d="M5.20176 5.80169C5.048 5.80169 4.89424 5.74307 4.777 5.62583L1.84571 2.69447C1.61098 2.45998 1.61098 2.07966 1.84571 1.84517C2.08019 1.61044 2.46027 1.61044 2.69499 1.84517L5.62652 4.77652C5.86125 5.01101 5.86125 5.39134 5.62652 5.62583C5.50904 5.74307 5.35552 5.80169 5.20176 5.80169Z" fill="#0C2739"/>
<path d="M12.0683 6.64316C12.222 6.64316 12.3753 6.58454 12.493 6.46729L15.4243 3.53594C15.6588 3.30145 15.6588 2.92113 15.4243 2.68664C15.1894 2.45191 14.8093 2.45191 14.575 2.68664L11.6435 5.61775C11.409 5.85224 11.409 6.23257 11.6435 6.46705C11.761 6.58454 11.9148 6.64316 12.0683 6.64316Z" fill="#0C2739"/>
<path d="M2.68681 14.5748L5.6181 11.6435C5.85259 11.409 6.23266 11.409 6.46763 11.6435C6.70235 11.878 6.70235 12.2583 6.46763 12.4928L3.53634 15.4241C3.41885 15.5416 3.26534 15.6 3.11158 15.6C2.95782 15.6 2.80406 15.5416 2.68681 15.4241C2.45209 15.1896 2.45209 14.8093 2.68681 14.5748Z" fill="#0C2739"/>
</svg>
