<svg width="24" height="24" viewBox="0 0 24 24" fill="none" xmlns="http://www.w3.org/2000/svg">
<path fill-rule="evenodd" clip-rule="evenodd" d="M1.5 4C1.5 2.61929 2.61929 1.5 4 1.5H12C13.3807 1.5 14.5 2.61929 14.5 4V8.5H19.3684C20.7492 8.5 21.8684 9.61929 21.8684 11V19C21.8684 20.3807 20.7492 21.5 19.3684 21.5H11.3684C9.98773 21.5 8.86844 20.3807 8.86844 19V14.5H4C2.61929 14.5 1.5 13.3807 1.5 12V4ZM9.86844 14.5V19C9.86844 19.8284 10.54 20.5 11.3684 20.5H19.3684C20.1969 20.5 20.8684 19.8284 20.8684 19V11C20.8684 10.1716 20.1969 9.5 19.3684 9.5H14.5V12C14.5 13.3807 13.3807 14.5 12 14.5H9.86844ZM13.5 9.5V12C13.5 12.8284 12.8284 13.5 12 13.5H9.86844V11C9.86844 10.1716 10.54 9.5 11.3684 9.5H13.5ZM13.5 8.5H11.3684C9.98773 8.5 8.86844 9.61929 8.86844 11V13.5H4C3.17157 13.5 2.5 12.8284 2.5 12V4C2.5 3.17157 3.17157 2.5 4 2.5H12C12.8284 2.5 13.5 3.17157 13.5 4V8.5Z" fill="#0C2739"/>
</svg>
