<svg width="24" height="24" viewBox="0 0 24 24" fill="none" xmlns="http://www.w3.org/2000/svg">
<path fill-rule="evenodd" clip-rule="evenodd" d="M3.40139 2.54074C3.10849 2.24785 2.63362 2.24785 2.34073 2.54074C2.04783 2.83364 2.04783 3.30851 2.34073 3.6014L4.8156 6.07628C5.10849 6.36917 5.58337 6.36917 5.87626 6.07628C6.16915 5.78338 6.16915 5.30851 5.87626 5.01562L3.40139 2.54074ZM4.26383 10.9638C4.67804 10.9638 5.01383 10.628 5.01383 10.2138C5.01383 9.79962 4.67804 9.46383 4.26383 9.46383L0.763826 9.46383C0.349612 9.46383 0.0138254 9.79962 0.0138256 10.2138C0.0138255 10.628 0.349612 10.9638 0.763826 10.9638L4.26383 10.9638ZM8.29784 7.52456C8.01625 7.41323 7.69533 7.48215 7.48429 7.69928C7.27324 7.91641 7.21346 8.23915 7.33273 8.51747L13.6967 23.3667C13.8193 23.6529 14.1061 23.8336 14.4172 23.8206C14.7283 23.8077 14.9991 23.6039 15.0975 23.3085L17.1049 17.2864L23.4842 14.9362C23.776 14.8287 23.9712 14.5522 23.9749 14.2412C23.9785 13.9302 23.7899 13.6493 23.5007 13.5349L8.29784 7.52456ZM14.2983 20.9627L9.42067 9.58144L21.1225 14.2077L16.2481 16.0036C16.0343 16.0823 15.8679 16.254 15.7959 16.4701L14.2983 20.9627ZM10.0138 0.213861C10.428 0.21386 10.7638 0.549647 10.7638 0.963861L10.7638 4.46386C10.7638 4.87807 10.428 5.21386 10.0138 5.21386C9.5996 5.21386 9.26382 4.87807 9.26382 4.46386L9.26382 0.963861C9.26382 0.549647 9.5996 0.213861 10.0138 0.213861ZM7.1137 14.3848C7.40659 14.0919 7.40659 13.617 7.1137 13.3241C6.8208 13.0312 6.34593 13.0312 6.05304 13.3241L3.57816 15.799C3.28527 16.0919 3.28527 16.5668 3.57816 16.8597C3.87106 17.1526 4.34593 17.1525 4.63882 16.8597L7.1137 14.3848ZM16.6596 3.77818C16.9525 4.07107 16.9525 4.54595 16.6596 4.83884L14.1848 7.31372C13.8919 7.60661 13.417 7.60661 13.1241 7.31372C12.8312 7.02082 12.8312 6.54595 13.1241 6.25305L15.599 3.77818C15.8919 3.48529 16.3667 3.48529 16.6596 3.77818Z" fill="#161721"/>
</svg>
