<svg width="24" height="24" viewBox="0 0 24 24" fill="none" xmlns="http://www.w3.org/2000/svg">
<path fill-rule="evenodd" clip-rule="evenodd" d="M9.5 6C9.5 5.58579 9.83579 5.25 10.25 5.25H18.75C19.1642 5.25 19.5 5.58579 19.5 6C19.5 6.41421 19.1642 6.75 18.75 6.75H15L10.625 17.25H13.75C14.1642 17.25 14.5 17.5858 14.5 18C14.5 18.4142 14.1642 18.75 13.75 18.75H5.25C4.83579 18.75 4.5 18.4142 4.5 18C4.5 17.5858 4.83579 17.25 5.25 17.25H9L13.375 6.75H10.25C9.83579 6.75 9.5 6.41421 9.5 6Z" fill="#161721"/>
</svg>
