<svg width="16" height="16" viewBox="0 0 16 16" fill="none" xmlns="http://www.w3.org/2000/svg">
<path d="M0 0V16H16V0H0ZM2.482 2.0725H5.8155V3.2965H4.888V7.482H5.8155V8.7035H2.482V7.482H3.4455V3.2965H2.482V2.0725ZM9.8515 2.0725H11.3335V6.406C11.3335 6.8155 11.297 7.1485 11.185 7.4455C11.0815 7.72476 10.917 7.9774 10.7035 8.185C10.518 8.3705 10.261 8.5575 9.9635 8.6305C9.65705 8.75302 9.33004 8.81598 9 8.816C8.482 8.816 8.0365 8.704 7.7035 8.5185C7.38095 8.33545 7.09267 8.09775 6.8515 7.816L7.779 6.7795C7.9635 7.001 8.149 7.1495 8.3335 7.2615C8.518 7.371 8.7395 7.446 8.9635 7.446C9.224 7.446 9.443 7.3705 9.63 7.1855C9.776 7.001 9.8515 6.74 9.8515 6.334V2.0725ZM1.482 13H7.482V14H1.482V13Z" fill="#161721"/>
</svg>
