<svg width="24" height="24" viewBox="0 0 24 24" fill="none" xmlns="http://www.w3.org/2000/svg">
<path d="M21.3333 5.33333H2.66659C2.31296 5.33333 1.97382 5.47381 1.72378 5.72386C1.47373 5.97391 1.33325 6.31304 1.33325 6.66667V17.3333C1.33325 17.687 1.47373 18.0261 1.72378 18.2761C1.97382 18.5262 2.31296 18.6667 2.66659 18.6667H21.3333C21.6869 18.6667 22.026 18.5262 22.2761 18.2761C22.5261 18.0261 22.6666 17.687 22.6666 17.3333V6.66667C22.6666 6.31304 22.5261 5.97391 22.2761 5.72386C22.026 5.47381 21.6869 5.33333 21.3333 5.33333V5.33333ZM21.3333 17.3333H2.66659V6.66667H21.3333V17.3333Z" fill="#0C2739"/>
<path d="M4.66675 8.66667H6.00008V10H4.66675V8.66667Z" fill="#0C2739"/>
<path d="M7.33325 8.66667H8.66659V10H7.33325V8.66667Z" fill="#0C2739"/>
<path d="M10 8.66667H11.3333V10H10V8.66667Z" fill="#0C2739"/>
<path d="M12.6667 8.66667H14.0001V10H12.6667V8.66667Z" fill="#0C2739"/>
<path d="M15.3333 8.66667H16.6666V10H15.3333V8.66667Z" fill="#0C2739"/>
<path d="M18 8.66667H19.3333V10H18V8.66667Z" fill="#0C2739"/>
<path d="M4.66675 11.3333H6.00008V12.6667H4.66675V11.3333Z" fill="#0C2739"/>
<path d="M7.33325 11.3333H8.66659V12.6667H7.33325V11.3333Z" fill="#0C2739"/>
<path d="M10 11.3333H11.3333V12.6667H10V11.3333Z" fill="#0C2739"/>
<path d="M12.6667 11.3333H14.0001V12.6667H12.6667V11.3333Z" fill="#0C2739"/>
<path d="M15.3333 11.3333H16.6666V12.6667H15.3333V11.3333Z" fill="#0C2739"/>
<path d="M18 11.3333H19.3333V12.6667H18V11.3333Z" fill="#0C2739"/>
<path d="M18 14.6667H19.2933V16H18V14.6667Z" fill="#0C2739"/>
<path d="M4.66675 14.6667H6.00008V16H4.66675V14.6667Z" fill="#0C2739"/>
<path d="M7.41992 14.6667H16.5866V16H7.41992V14.6667Z" fill="#0C2739"/>
</svg>
