<svg width="24" height="24" viewBox="0 0 24 24" fill="none" xmlns="http://www.w3.org/2000/svg">
<path fill-rule="evenodd" clip-rule="evenodd" d="M2.375 5H21.625C21.9897 5 22.3394 5.1475 22.5973 5.41005C22.8551 5.6726 23 6.0287 23 6.4V17.6C23 17.9713 22.8551 18.3274 22.5973 18.5899C22.3394 18.8525 21.9897 19 21.625 19H2.375C2.01033 19 1.66059 18.8525 1.40273 18.5899C1.14487 18.3274 1 17.9713 1 17.6V6.4C1 6.0287 1.14487 5.6726 1.40273 5.41005C1.66059 5.1475 2.01033 5 2.375 5ZM2.375 17.6H21.625V6.4H2.375V17.6ZM5.41666 8.39999C5.00245 8.39999 4.66666 8.73578 4.66666 9.14999C4.66666 9.56421 5.00245 9.89999 5.41666 9.89999C5.83088 9.89999 6.16666 9.56421 6.16666 9.14999C6.16666 8.73578 5.83088 8.39999 5.41666 8.39999ZM8.08334 8.39999C7.66912 8.39999 7.33334 8.73578 7.33334 9.14999C7.33334 9.56421 7.66912 9.89999 8.08334 9.89999C8.49755 9.89999 8.83334 9.56421 8.83334 9.14999C8.83334 8.73578 8.49755 8.39999 8.08334 8.39999ZM10 9.14999C10 8.73578 10.3358 8.39999 10.75 8.39999C11.1642 8.39999 11.5 8.73578 11.5 9.14999C11.5 9.56421 11.1642 9.89999 10.75 9.89999C10.3358 9.89999 10 9.56421 10 9.14999ZM13.4167 8.39999C13.0025 8.39999 12.6667 8.73578 12.6667 9.14999C12.6667 9.56421 13.0025 9.89999 13.4167 9.89999C13.8309 9.89999 14.1667 9.56421 14.1667 9.14999C14.1667 8.73578 13.8309 8.39999 13.4167 8.39999ZM15.3333 9.14999C15.3333 8.73578 15.6691 8.39999 16.0833 8.39999C16.4975 8.39999 16.8333 8.73578 16.8333 9.14999C16.8333 9.56421 16.4975 9.89999 16.0833 9.89999C15.6691 9.89999 15.3333 9.56421 15.3333 9.14999ZM18.75 8.39999C18.3358 8.39999 18 8.73578 18 9.14999C18 9.56421 18.3358 9.89999 18.75 9.89999C19.1642 9.89999 19.5 9.56421 19.5 9.14999C19.5 8.73578 19.1642 8.39999 18.75 8.39999ZM4.66666 11.8167C4.66666 11.4024 5.00245 11.0667 5.41666 11.0667C5.83088 11.0667 6.16666 11.4024 6.16666 11.8167C6.16666 12.2309 5.83088 12.5667 5.41666 12.5667C5.00245 12.5667 4.66666 12.2309 4.66666 11.8167ZM8.08334 11.0667C7.66912 11.0667 7.33334 11.4024 7.33334 11.8167C7.33334 12.2309 7.66912 12.5667 8.08334 12.5667C8.49755 12.5667 8.83334 12.2309 8.83334 11.8167C8.83334 11.4024 8.49755 11.0667 8.08334 11.0667ZM10 11.8167C10 11.4024 10.3358 11.0667 10.75 11.0667C11.1642 11.0667 11.5 11.4024 11.5 11.8167C11.5 12.2309 11.1642 12.5667 10.75 12.5667C10.3358 12.5667 10 12.2309 10 11.8167ZM13.4167 11.0667C13.0025 11.0667 12.6667 11.4024 12.6667 11.8167C12.6667 12.2309 13.0025 12.5667 13.4167 12.5667C13.8309 12.5667 14.1667 12.2309 14.1667 11.8167C14.1667 11.4024 13.8309 11.0667 13.4167 11.0667ZM15.3333 11.8167C15.3333 11.4024 15.6691 11.0667 16.0833 11.0667C16.4975 11.0667 16.8333 11.4024 16.8333 11.8167C16.8333 12.2309 16.4975 12.5667 16.0833 12.5667C15.6691 12.5667 15.3333 12.2309 15.3333 11.8167ZM18.75 11.0667C18.3358 11.0667 18 11.4024 18 11.8167C18 12.2309 18.3358 12.5667 18.75 12.5667C19.1642 12.5667 19.5 12.2309 19.5 11.8167C19.5 11.4024 19.1642 11.0667 18.75 11.0667ZM18 14.8275C18 14.4257 18.3257 14.1 18.7275 14.1C19.1293 14.1 19.455 14.4257 19.455 14.8275V14.8725C19.455 15.2743 19.1293 15.6 18.7275 15.6C18.3257 15.6 18 15.2743 18 14.8725V14.8275ZM5.41666 14.1C5.00245 14.1 4.66666 14.4358 4.66666 14.85C4.66666 15.2642 5.00245 15.6 5.41666 15.6C5.83088 15.6 6.16666 15.2642 6.16666 14.85C6.16666 14.4358 5.83088 14.1 5.41666 14.1ZM7 14.85C7 14.4358 7.33579 14.1 7.75 14.1H16.25C16.6642 14.1 17 14.4358 17 14.85C17 15.2642 16.6642 15.6 16.25 15.6H7.75C7.33579 15.6 7 15.2642 7 14.85Z" fill="#161721"/>
</svg>
