<svg width="20" height="20" viewBox="0 0 20 20" fill="none" xmlns="http://www.w3.org/2000/svg">
<path fill-rule="evenodd" clip-rule="evenodd" d="M3.13721 14.1837L2.66668 13.1878C2.24001 12.2101 2 11.1331 2 10C2 8.86697 2.24001 7.78999 2.66668 6.8123L3.33339 5.55314C3.6742 4.90269 4.38027 4.3193 4.88259 3.90426C5.06485 3.75367 5.22029 3.62524 5.32172 3.52382L6.81242 2.66666C7.79011 2.24 8.86715 2 10.0003 2C11.1334 2 12.2105 2.24 13.1881 2.66666L13.8099 2.91304C15.0005 3.52382 15.3338 3.90477 16.4767 5.33333L17.3339 6.8123C17.7526 7.77173 17.9915 8.82676 18.0003 9.93658C17.9608 12.577 16.6928 14.9144 14.7518 16.3838L13.3483 17.2362C12.3205 17.7238 11.1747 17.9972 9.96638 18C8.84566 17.9953 7.78036 17.7558 6.81242 17.3334L5.56986 16.6856C4.59219 16.0405 3.76075 15.1856 3.13721 14.1837ZM17.0876 8.14753C16.4188 5.59258 14.4081 3.58185 11.8532 2.91304L11.4127 5.55314C12.8514 6.01124 13.9893 7.14893 14.4474 8.58775L17.0876 8.14753ZM10.0003 14.0001C12.2061 14.0001 14.0004 12.2058 14.0004 10C14.0004 7.79431 12.2061 6.00002 10.0003 6.00002C7.79448 6.00002 6.00014 7.79431 6.00014 10C6.00014 12.2058 7.79448 14.0001 10.0003 14.0001ZM11.2005 2.77366C10.809 2.70882 10.4099 2.66666 10.0003 2.66666C9.59067 2.66666 9.19153 2.70882 8.80005 2.77369L9.2385 5.40117C9.48701 5.36005 9.7403 5.33333 10.0003 5.33333C10.2603 5.33333 10.5135 5.36005 10.7621 5.40111L11.2005 2.77366ZM8.58792 5.55314L8.14734 2.91304C5.59244 3.58188 3.58171 5.59258 2.91297 8.14753L5.55319 8.58775C6.0113 7.14893 7.14915 6.01124 8.58792 5.55314ZM2.77365 8.80012C2.70881 9.19153 2.66668 9.59053 2.66668 10C2.66668 10.4096 2.70884 10.8086 2.77371 11.2001L5.40128 10.7619C5.36015 10.5133 5.33343 10.26 5.33343 10C5.33343 9.74007 5.36018 9.48672 5.40128 9.23819L2.77365 8.80012ZM2.913 11.8526C3.58174 14.4075 5.59244 16.4182 8.14734 17.087L8.58792 14.4469C7.14915 13.9888 6.0113 12.8512 5.55319 11.4124L2.913 11.8526ZM8.80005 17.2264C9.19153 17.2913 9.59067 17.3334 10.0003 17.3334C10.4099 17.3334 10.809 17.2913 11.2005 17.2264L10.7621 14.599C10.5135 14.6401 10.2603 14.6668 10.0003 14.6668C9.7403 14.6668 9.48701 14.64 9.2385 14.5989L8.80005 17.2264ZM11.4126 14.4469L11.8532 17.087C14.4081 16.4182 16.4188 14.4075 17.0876 11.8527L14.4474 11.4124C13.9893 12.8512 12.8514 13.9888 11.4126 14.4469ZM14.5993 10.7619L17.2268 11.2001C17.2917 10.8086 17.3339 10.4096 17.3339 10C17.3339 9.59053 17.2918 9.19153 17.2269 8.80012L14.5993 9.23819C14.6404 9.48672 14.6671 9.74007 14.6671 10C14.6671 10.26 14.6404 10.5133 14.5993 10.7619Z" fill="#0F1C30"/>
</svg>
