<svg width="24" height="24" viewBox="0 0 24 24" fill="none" xmlns="http://www.w3.org/2000/svg">
<path fill-rule="evenodd" clip-rule="evenodd" d="M12.5763 8.69797C11.5433 8.51089 10.4329 8.82777 9.6303 9.63032C8.82776 10.4329 8.51089 11.5433 8.69797 12.5763L8.69876 12.5807L8.69875 12.5807C8.81356 13.2368 9.12498 13.8743 9.6303 14.3797C10.137 14.8863 10.7648 15.1963 11.4277 15.3109L11.4336 15.3119L11.4336 15.312C12.4666 15.4991 13.5771 15.1822 14.3796 14.3797C15.179 13.5803 15.4912 12.4695 15.3111 11.4286C15.1962 10.7728 14.8848 10.1355 14.3796 9.63032C13.8729 9.12361 13.2452 8.8136 12.5822 8.69901L12.5763 8.69799L12.5763 8.69797ZM12.8407 7.22144C11.3345 6.94966 9.72634 7.41296 8.56964 8.56966C7.41275 9.72655 6.94951 11.3351 7.22158 12.8414C7.38708 13.7846 7.83553 14.7062 8.56964 15.4403C9.3022 16.1729 10.2133 16.6227 11.1693 16.7885C12.6754 17.0603 14.2836 16.597 15.4403 15.4403C16.6008 14.2799 17.0486 12.6709 16.789 11.172L16.7887 11.1707C16.6236 10.2267 16.175 9.30433 15.4403 8.56966C14.7078 7.83712 13.7967 7.38728 12.8407 7.22144Z" fill="#161721"/>
<path fill-rule="evenodd" clip-rule="evenodd" d="M15.7809 12.0062C16.0317 11.9138 16.3127 11.9619 16.5185 12.1325C17.9202 13.2938 19.3217 14.465 20.713 15.6362C20.9792 15.8603 21.0563 16.238 20.8993 16.5485C20.4335 17.4692 19.8171 18.3231 19.0622 19.0784C18.3117 19.8394 17.4551 20.4456 16.5386 20.9092C16.2261 21.0673 15.8459 20.9881 15.6225 20.7185C14.4639 19.3201 13.2951 17.9216 12.1262 16.5329C11.9533 16.3274 11.9034 16.0451 11.9955 15.7928C12.0876 15.5405 12.3076 15.3567 12.5723 15.3109C13.2352 15.1963 13.863 14.8863 14.3697 14.3797C14.875 13.8743 15.1864 13.2368 15.3013 12.5807C15.3473 12.3174 15.53 12.0985 15.7809 12.0062ZM16.422 14.0017C16.1877 14.5229 15.8574 15.0133 15.4304 15.4403C15.0049 15.8658 14.5192 16.1959 13.9994 16.4303C14.7956 17.3791 15.5908 18.3315 16.382 19.2846C16.9657 18.9367 17.5089 18.5175 17.9959 18.0235L17.9997 18.0196L17.9997 18.0196C18.4993 17.5201 18.9259 16.9717 19.276 16.3876C18.3276 15.5906 17.3752 14.7943 16.422 14.0017Z" fill="#161721"/>
<path fill-rule="evenodd" clip-rule="evenodd" d="M7.46143 3.09075C7.77388 2.9327 8.15411 3.01186 8.37751 3.28148C9.53616 4.67986 10.7049 6.07837 11.8738 7.46702C12.0468 7.67252 12.0966 7.95483 12.0045 8.20716C11.9124 8.45948 11.6924 8.64329 11.4277 8.68904C10.7648 8.80362 10.137 9.11362 9.63032 9.62031C9.125 10.1256 8.81358 10.7632 8.69876 11.4193C8.65269 11.6826 8.46997 11.9014 8.21915 11.9938C7.96832 12.0862 7.6873 12.038 7.48148 11.8675C6.08126 10.7073 4.67046 9.53664 3.27945 8.3758C3.01137 8.15208 2.93314 7.77297 3.09075 7.46141C3.55688 6.54 4.17392 5.68538 4.92966 4.92964C5.68541 4.1739 6.54003 3.55688 7.46143 3.09075ZM7.61869 4.71623C7.03595 5.06589 6.48885 5.49178 5.99032 5.9903C5.49137 6.48925 5.06518 7.03685 4.71535 7.62014C5.66478 8.41148 6.62204 9.20652 7.57774 9.99901C7.812 9.47753 8.14246 8.98684 8.56966 8.55965C8.99513 8.13417 9.48084 7.80409 10.0006 7.56962C9.20467 6.62117 8.40965 5.669 7.61869 4.71623Z" fill="#161721"/>
<path fill-rule="evenodd" clip-rule="evenodd" d="M15.6362 3.28702C15.8603 3.02081 16.238 2.94368 16.5485 3.10076C17.4692 3.5665 18.3231 4.18291 19.0784 4.93778C19.8394 5.68833 20.4456 6.54495 20.9092 7.46144C21.0673 7.77388 20.9881 8.15412 20.7185 8.37751C19.3201 9.53617 17.9216 10.7049 16.5329 11.8738C16.3274 12.0468 16.0451 12.0966 15.7928 12.0045C15.5405 11.9124 15.3567 11.6924 15.3109 11.4277C15.1963 10.7648 14.8863 10.137 14.3796 9.63035C13.8743 9.12501 13.2367 8.81358 12.5807 8.69877C12.3174 8.6527 12.0985 8.46998 12.0062 8.21916C11.9138 7.96833 11.9619 7.68731 12.1325 7.48149C13.2938 6.07987 14.465 4.67837 15.6362 3.28702ZM16.3876 4.72403C15.5906 5.67238 14.7943 6.62478 14.0017 7.57808C14.5229 7.81233 15.0133 8.14269 15.4403 8.56969C15.8658 8.99516 16.1959 9.48086 16.4303 10.0006C17.3791 9.20445 18.3315 8.40921 19.2846 7.61802C18.9367 7.03431 18.5175 6.49114 18.0235 6.00414L18.0196 6.00036L18.0196 6.00034C17.5201 5.50076 16.9717 5.07411 16.3876 4.72403Z" fill="#161721"/>
<path fill-rule="evenodd" clip-rule="evenodd" d="M8.20716 11.9955C8.45948 12.0876 8.64329 12.3076 8.68903 12.5723C8.80362 13.2352 9.11362 13.863 9.62032 14.3697C10.1257 14.875 10.7632 15.1864 11.4193 15.3012C11.6826 15.3473 11.9014 15.53 11.9938 15.7809C12.0862 16.0317 12.038 16.3127 11.8675 16.5185C10.7073 17.9187 9.53667 19.3295 8.37582 20.7205C8.1521 20.9886 7.77299 21.0669 7.46144 20.9092C6.54003 20.4431 5.68541 19.8261 4.92966 19.0703C4.17392 18.3146 3.55688 17.46 3.09075 16.5386C2.9327 16.2261 3.01186 15.8459 3.28148 15.6225C4.67986 14.4639 6.07836 13.2951 7.46702 12.1262C7.67252 11.9533 7.95483 11.9034 8.20716 11.9955ZM4.71623 16.3813C5.06589 16.9641 5.49179 17.5112 5.99032 18.0097C6.48927 18.5086 7.03687 18.9348 7.62016 19.2846C8.4115 18.3352 9.20653 17.378 9.99902 16.4223C9.47754 16.188 8.98686 15.8575 8.55966 15.4303C8.13419 15.0049 7.8041 14.5192 7.56962 13.9994C6.62118 14.7953 5.669 15.5904 4.71623 16.3813Z" fill="#161721"/>
<path fill-rule="evenodd" clip-rule="evenodd" d="M12 3.5C7.30558 3.5 3.5 7.30558 3.5 12C3.5 16.6944 7.30558 20.5 12 20.5C16.6944 20.5 20.5 16.6944 20.5 12C20.5 7.30558 16.6944 3.5 12 3.5ZM2 12C2 6.47715 6.47715 2 12 2C17.5228 2 22 6.47715 22 12C22 17.5228 17.5228 22 12 22C6.47715 22 2 17.5228 2 12Z" fill="#161721"/>
</svg>
