<svg width="24" height="24" viewBox="0 0 24 24" fill="none" xmlns="http://www.w3.org/2000/svg">
<path fill-rule="evenodd" clip-rule="evenodd" d="M11.24 6.08337C11.24 5.66916 11.5758 5.33337 11.99 5.33337C14.2928 5.33337 16.17 7.20775 16.17 9.50339C16.17 9.9176 15.8342 10.2534 15.42 10.2534C15.0058 10.2534 14.67 9.9176 14.67 9.50339C14.67 8.03903 13.4672 6.83337 11.99 6.83337C11.5758 6.83337 11.24 6.49759 11.24 6.08337Z" fill="#161721"/>
<path fill-rule="evenodd" clip-rule="evenodd" d="M10.4475 2.40909C15.0509 1.45282 19.25 4.92566 19.25 9.48341C19.25 11.243 18.6154 12.9387 17.455 14.2567C16.8523 14.9538 16.54 15.7722 16.54 16.5734V17.6534C16.54 18.5615 16.0408 19.3287 15.3161 19.7337C14.8997 21.1429 13.5969 22.2334 12 22.2334C10.4104 22.2334 9.11282 21.1422 8.688 19.7393C7.95489 19.3359 7.45999 18.5553 7.45999 17.6534V16.5734C7.45999 15.7727 7.14128 14.9396 6.58108 14.3135L6.58005 14.3123C5.02722 12.5696 4.42823 10.2352 4.91621 7.92828M10.7525 3.87774C8.59421 4.32716 6.84222 6.06972 6.38378 8.2385C5.9918 10.0915 6.47282 11.9372 7.69997 13.3145L7.14001 13.8134L7.69894 13.3133C8.49874 14.2072 8.95999 15.3941 8.95999 16.5734V17.6534C8.95999 18.0514 9.21381 18.3777 9.56056 18.4897C9.82531 18.5753 10.021 18.8003 10.0688 19.0744C10.2307 20.0015 11.0403 20.7334 12 20.7334C12.9724 20.7334 13.777 19.9996 13.9302 19.0801C13.9757 18.8073 14.1676 18.5817 14.4296 18.493C14.7921 18.3703 15.04 18.0441 15.04 17.6534V16.5734C15.04 15.3755 15.507 14.2149 16.323 13.2725L16.3273 13.2675C17.2454 12.2258 17.75 10.8826 17.75 9.48341C17.75 5.88126 14.429 3.11423 10.7525 3.87774ZM10.4475 2.40909C7.70598 2.97977 5.49778 5.17721 4.91621 7.92828Z" fill="#161721"/>
<path fill-rule="evenodd" clip-rule="evenodd" d="M8.16003 18.4234C8.16003 18.0092 8.49582 17.6734 8.91003 17.6734H15.08C15.4942 17.6734 15.83 18.0092 15.83 18.4234C15.83 18.8376 15.4942 19.1734 15.08 19.1734H8.91003C8.49582 19.1734 8.16003 18.8376 8.16003 18.4234Z" fill="#161721"/>
<path fill-rule="evenodd" clip-rule="evenodd" d="M7.65784 15.3334C7.65784 14.9192 7.99362 14.5834 8.40784 14.5834H15.6432C16.0574 14.5834 16.3932 14.9192 16.3932 15.3334C16.3932 15.7476 16.0574 16.0834 15.6432 16.0834H8.40784C7.99362 16.0834 7.65784 15.7476 7.65784 15.3334Z" fill="#161721"/>
</svg>
