<svg width="16" height="16" viewBox="0 0 16 16" fill="none" xmlns="http://www.w3.org/2000/svg">
<g clip-path="url(#clip0_455_45667)">
<path fill-rule="evenodd" clip-rule="evenodd" d="M7.99999 2.44444C7.77498 2.44444 7.59258 2.26204 7.59258 2.03704V0.407407C7.59258 0.182403 7.77498 0 7.99999 0C8.22499 0 8.4074 0.182403 8.4074 0.407407V2.03704C8.4074 2.26204 8.22499 2.44444 7.99999 2.44444ZM11.786 3.88486C11.6269 3.72576 11.6269 3.4678 11.786 3.3087L12.9383 2.15638C13.0974 1.99728 13.3554 1.99728 13.5145 2.15638C13.6736 2.31548 13.6736 2.57344 13.5145 2.73254L12.3621 3.88486C12.203 4.04396 11.9451 4.04396 11.786 3.88486ZM4.214 3.88486C4.3731 3.72576 4.3731 3.4678 4.214 3.3087L3.06167 2.15638C2.90257 1.99728 2.64462 1.99728 2.48551 2.15638C2.32641 2.31548 2.32641 2.57344 2.48551 2.73254L3.63784 3.88486C3.79694 4.04396 4.05489 4.04396 4.214 3.88486ZM12.8889 6.92593C12.8889 6.70092 13.0713 6.51852 13.2963 6.51852H14.9259C15.1509 6.51852 15.3333 6.70092 15.3333 6.92593C15.3333 7.15093 15.1509 7.33333 14.9259 7.33333H13.2963C13.0713 7.33333 12.8889 7.15093 12.8889 6.92593ZM3.1111 6.92593C3.1111 6.70092 2.9287 6.51852 2.70369 6.51852H1.07406C0.849059 6.51852 0.666656 6.70092 0.666656 6.92593C0.666656 7.15093 0.849059 7.33333 1.07406 7.33333H2.70369C2.9287 7.33333 3.1111 7.15093 3.1111 6.92593ZM11.2593 7.33383L11.2592 7.33333C11.2592 5.53329 9.80003 4.07407 7.99999 4.07407C6.19995 4.07407 4.74073 5.53329 4.74073 7.33333C4.74073 7.63247 4.78082 7.92095 4.85544 8.19431C4.8594 8.2088 4.86296 8.2234 4.86611 8.23809C4.91991 8.48904 4.99671 8.78387 5.10632 9.1127C5.27762 9.6266 5.73989 10.4704 6.20332 11.2428C6.42727 11.6161 6.63924 11.9528 6.79534 12.1963L6.81199 12.2222H9.17782L9.19724 12.1908C9.35429 11.9363 9.56759 11.5861 9.79304 11.2028C10.2584 10.4116 10.7284 9.55725 10.9026 9.08715C11.0443 8.70507 11.1304 8.34257 11.1825 8.04382C11.1842 8.03399 11.1861 8.02418 11.1881 8.01441C11.2342 7.7973 11.2588 7.57156 11.2592 7.33927L11.2593 7.33383ZM11.2593 7.33656L11.2593 7.33878L11.2593 7.33927L11.2593 7.34375L11.2594 7.34655L11.2594 7.34803L11.2593 7.33927L11.2593 7.33656ZM9.62967 13.037H6.37036C6.37036 13.037 4.74073 10.5926 4.33332 9.37037C4.21362 9.01127 4.12909 8.68733 4.0694 8.4089C3.97585 8.06626 3.92592 7.70563 3.92592 7.33333C3.92592 5.08328 5.74994 3.25926 7.99999 3.25926C10.25 3.25926 12.0741 5.08328 12.0741 7.33333L12.0741 7.34071C12.0735 7.62974 12.0429 7.91171 11.9852 8.18365C11.9264 8.52106 11.8288 8.93296 11.6667 9.37037C11.2592 10.4694 9.62967 13.037 9.62967 13.037ZM6.37036 13.8519V14.6667C6.37036 15.1167 6.73517 15.4815 7.18517 15.4815H8.8148C9.26481 15.4815 9.62962 15.1167 9.62962 14.6667V13.8519H6.37036Z" fill="#878D95"/>
</g>
<defs>
<clipPath id="clip0_455_45667">
<rect width="16" height="16" fill="white"/>
</clipPath>
</defs>
</svg>
