<svg width="24" height="24" viewBox="0 0 24 24" fill="none" xmlns="http://www.w3.org/2000/svg">
<g clip-path="url(#clip0_57_2361)">
<path fill-rule="evenodd" clip-rule="evenodd" d="M16.7468 17.0282C16.7281 17.0548 16.7093 17.0815 16.6899 17.1083V17.1173H7.29374C7.26759 17.0837 7.24299 17.0485 7.21865 17.0137C7.1843 16.9646 7.15047 16.9163 7.11356 16.8741C5.71721 15.3066 5.16767 13.2075 5.6091 11.1175C6.1226 8.64909 8.13155 6.65816 10.5909 6.14466C12.5639 5.73025 14.5728 6.21673 16.1223 7.46894C17.6538 8.71215 18.5276 10.5499 18.5276 12.5138C18.5276 14.1084 17.9511 15.6309 16.9061 16.82C16.8469 16.8858 16.7973 16.9563 16.7468 17.0282ZM11.9783 10.1265C13.3116 10.1265 14.3926 11.2076 14.3926 12.5319C14.3926 12.9012 14.6989 13.2075 15.0683 13.2075C15.4376 13.2075 15.7439 12.9012 15.7439 12.5319C15.7439 10.4598 14.0503 8.77521 11.9783 8.77521C11.6089 8.77521 11.3026 9.08151 11.3026 9.45087C11.3026 9.82023 11.6089 10.1265 11.9783 10.1265ZM7.8523 18.4596C7.87932 18.6037 7.89734 18.7569 7.89734 18.901V19.892H16.0773V18.901C16.0773 18.7903 16.0932 18.6742 16.1088 18.5609L16.1088 18.5609C16.1135 18.5268 16.1182 18.4929 16.1223 18.4596H7.8523ZM8.41079 21.2433C8.58196 21.4415 8.77114 21.6217 9.00537 21.7568C9.40175 23.0631 10.6269 24 11.9873 24C13.3476 24 14.5908 23.0541 14.9782 21.7478C15.2124 21.6217 15.3926 21.4415 15.5637 21.2433H8.41079Z" fill="#161721"/>
<path fill-rule="evenodd" clip-rule="evenodd" d="M12 0.25C12.4142 0.25 12.75 0.585786 12.75 1V3.5C12.75 3.91421 12.4142 4.25 12 4.25C11.5858 4.25 11.25 3.91421 11.25 3.5V1C11.25 0.585786 11.5858 0.25 12 0.25Z" fill="#161721"/>
<path fill-rule="evenodd" clip-rule="evenodd" d="M3.69107 3.69111C3.98397 3.39821 4.45884 3.39821 4.75174 3.69111L6.5303 5.46967C6.82319 5.76256 6.82319 6.23744 6.5303 6.53033C6.23741 6.82322 5.76253 6.82322 5.46964 6.53033L3.69107 4.75177C3.39818 4.45887 3.39818 3.984 3.69107 3.69111Z" fill="#161721"/>
<path fill-rule="evenodd" clip-rule="evenodd" d="M0.25 12C0.25 11.5858 0.585786 11.25 1 11.25H3.5C3.91421 11.25 4.25 11.5858 4.25 12C4.25 12.4142 3.91421 12.75 3.5 12.75H1C0.585786 12.75 0.25 12.4142 0.25 12Z" fill="#161721"/>
<path fill-rule="evenodd" clip-rule="evenodd" d="M19.75 12C19.75 11.5858 20.0858 11.25 20.5 11.25L23 11.25C23.4142 11.25 23.75 11.5858 23.75 12C23.75 12.4142 23.4142 12.75 23 12.75L20.5 12.75C20.0858 12.75 19.75 12.4142 19.75 12Z" fill="#161721"/>
<path fill-rule="evenodd" clip-rule="evenodd" d="M20.3089 3.69111C20.6018 3.984 20.6018 4.45888 20.3089 4.75177L18.5304 6.53033C18.2375 6.82322 17.7626 6.82322 17.4697 6.53033C17.1768 6.23743 17.1768 5.76256 17.4697 5.46967L19.2483 3.6911C19.5412 3.39821 20.0161 3.39821 20.3089 3.69111Z" fill="#161721"/>
</g>
<defs>
<clipPath id="clip0_57_2361">
<rect width="24" height="24" fill="white"/>
</clipPath>
</defs>
</svg>
