<svg width="24" height="24" viewBox="0 0 24 24" fill="none" xmlns="http://www.w3.org/2000/svg">
<path fill-rule="evenodd" clip-rule="evenodd" d="M21.6954 11.9819C21.892 11.6145 22 11.208 22 10.7819C22 9.3619 20.84 8.2019 19.41 8.2019H16.84C17.56 5.3719 17.1 3.4619 15.44 2.5119C15.05 2.2919 13.73 1.7419 12.77 2.1419C12.35 2.3219 12.06 2.6619 11.93 3.1719C11.9197 3.21166 11.9095 3.25136 11.8993 3.29098C11.601 4.44726 11.3181 5.54404 10.68 6.4819C10.25 7.11191 9.61 7.8519 8.86 8.11191C8.32 7.22191 7.35 6.61191 6.24 6.61191H2.75C2.34 6.61191 2 6.95191 2 7.36191V21.2419C2 21.6519 2.34 21.9919 2.75 21.9919H6.24C7.63 21.9919 8.79 21.0619 9.17 19.7919L10.67 20.2819C11.44 20.5419 12.24 20.6719 13.05 20.6719H18.18C19.61 20.6719 20.78 19.5119 20.78 18.0919C20.78 18.0119 20.78 17.9319 20.77 17.8419C21.52 17.3719 22 16.5519 22 15.6419C22 15.2019 21.89 14.7819 21.69 14.4119C21.89 14.0419 22 13.6319 22 13.2019C22 12.7758 21.892 12.3496 21.6954 11.9819ZM6.24 20.5019C7.11 20.5019 7.81 19.8019 7.81 18.9319V9.69191C7.81 8.82191 7.11 8.1219 6.24 8.1219H3.5V20.5019H6.24ZM20.5 13.2219C20.5 12.9419 20.4 12.6919 20.22 12.4919V12.5119C19.96 12.2219 19.96 11.7919 20.22 11.5019C20.4 11.3019 20.5 11.0519 20.5 10.7919C20.5 10.1919 20.01 9.71191 19.41 9.71191H15.84C15.6 9.71191 15.37 9.59191 15.23 9.40191C15.08 9.21191 15.05 8.96191 15.12 8.7319C15.97 6.1219 15.82 4.4719 14.69 3.8219C14.3 3.5919 13.54 3.4319 13.35 3.5319C13.06 4.8219 12.73 6.1419 11.92 7.3319C11.14 8.4819 10.25 9.24191 9.32 9.55191V18.2719L11.14 18.8719C11.77 19.0819 12.41 19.1819 13.05 19.1819H18.18C18.79 19.1819 19.28 18.7019 19.28 18.1019C19.28 17.9719 19.25 17.8519 19.2 17.7319C19.11 17.5319 19.12 17.3119 19.21 17.1119C19.3 16.9119 19.47 16.7719 19.68 16.7119C20.16 16.5819 20.49 16.1419 20.49 15.6619C20.49 15.3919 20.4 15.1419 20.22 14.9419C19.96 14.6519 19.96 14.2219 20.22 13.9319C20.4 13.7319 20.5 13.4819 20.5 13.2219ZM4.88 17.9519C4.88 17.5219 5.23 17.1719 5.66 17.1719C6.09 17.1719 6.44 17.5219 6.44 17.9519C6.44 18.3819 6.09 18.7319 5.66 18.7319C5.23 18.7319 4.88 18.3819 4.88 17.9519Z" fill="#161721"/>
</svg>
