<svg width="24" height="24" viewBox="0 0 24 24" fill="none" xmlns="http://www.w3.org/2000/svg">
<path fill-rule="evenodd" clip-rule="evenodd" d="M9.68265 5V9H4.02265C3.73274 8.99672 3.44558 9.0565 3.18108 9.17522C2.91657 9.29393 2.68103 9.46873 2.49079 9.68751C2.30055 9.90629 2.16014 10.1638 2.07931 10.4423C1.99847 10.7207 1.97914 11.0134 2.02265 11.3L3.40265 20.3C3.47497 20.7769 3.71721 21.2116 4.08474 21.524C4.45227 21.8364 4.92032 22.0055 5.40265 22H16.6826V11C16.6826 11 15 10.4423 14 7C13 3.55775 12.6826 2 12.6826 2C11.887 2 11.1239 2.31607 10.5613 2.87868C9.99872 3.44129 9.68265 4.20435 9.68265 5ZM19.6826 22C20.2131 22 20.7218 21.7893 21.0969 21.4142C21.4719 21.0391 21.6826 20.5304 21.6826 20V13C21.6826 12.4696 21.4719 11.9609 21.0969 11.5858C20.7218 11.2107 20.2131 11 19.6826 11H18V22H19.6826Z" fill="#0C2739"/>
</svg>
