<svg width="24" height="24" viewBox="0 0 24 24" fill="none" xmlns="http://www.w3.org/2000/svg">
<path fill-rule="evenodd" clip-rule="evenodd" d="M21.25 10.7811C21.25 11.2411 21.07 11.6711 20.78 11.9911C21.08 12.3211 21.25 12.7611 21.25 13.2211C21.25 13.6811 21.07 14.1111 20.78 14.4311C21.08 14.7611 21.25 15.1911 21.25 15.6611C21.25 16.5011 20.68 17.2111 19.89 17.4311C19.98 17.6411 20.03 17.8611 20.03 18.1011C20.03 19.1111 19.2 19.9311 18.18 19.9311H13.05C12.32 19.9311 11.6 19.8111 10.91 19.5811L10.02 19.2911C10.04 19.1711 10.06 19.0511 10.06 18.9311V9.69109C10.06 9.25109 9.97 8.84109 9.84 8.45109C10.43 8.05109 10.92 7.46109 11.3 6.91109C12.0346 5.82383 12.3471 4.59266 12.6603 3.35853C12.6669 3.33272 12.6734 3.30691 12.68 3.28109C12.91 2.36109 14.53 2.85109 15.07 3.16109C17.06 4.30109 16.42 7.17109 15.84 8.95109H19.41C20.42 8.95109 21.25 9.77109 21.25 10.7811ZM2.75 7.37109H6.24C7.52 7.37109 8.56 8.41109 8.56 9.69109V18.9311C8.56 20.2111 7.52 21.2511 6.24 21.2511H2.75V7.37109ZM4.88 17.9511C4.88 18.3811 5.23 18.7311 5.66 18.7311C6.09 18.7311 6.44 18.3811 6.44 17.9511C6.44 17.5211 6.09 17.1711 5.66 17.1711C5.23 17.1711 4.88 17.5211 4.88 17.9511Z" fill="#161721"/>
</svg>
