<svg width="18" height="23" viewBox="0 0 18 23" fill="none" xmlns="http://www.w3.org/2000/svg">
<mask id="path-1-outside-1" maskUnits="userSpaceOnUse" x="0" y="0" width="18" height="23" fill="black">
<rect fill="white" width="18" height="23"/>
<path d="M7.70694 3.53661C7.70694 3.71173 7.8489 3.85369 8.02401 3.85369C8.19913 3.85369 8.34109 3.71173 8.34109 3.53661V1.31708C8.34109 1.14196 8.19913 1 8.02401 1C7.8489 1 7.70694 1.14196 7.70694 1.31708V3.53661Z"/>
<path d="M10.6537 4.89778C10.5299 4.77396 10.5299 4.5732 10.6537 4.44937L12.4473 2.65571C12.5712 2.53189 12.7719 2.53189 12.8958 2.65571C13.0196 2.77954 13.0196 2.9803 12.8958 3.10413L11.1021 4.89778C10.9783 5.02161 10.7775 5.02161 10.6537 4.89778Z"/>
<path fill-rule="evenodd" clip-rule="evenodd" d="M13.2982 21.5365L13.3493 21.4876C13.5988 21.9888 14.1163 22.3333 14.7143 22.3333H15.4762C16.3178 22.3333 17 21.651 17 20.8095V14.7142C17 13.8727 16.3178 13.1904 15.4762 13.1904H14.7143C14.1528 13.1904 13.6623 13.4941 13.3979 13.9461C13.3807 13.9397 13.359 13.9315 13.3332 13.9217C13.2606 13.894 13.1558 13.853 13.0282 13.8001C12.7726 13.6944 12.4265 13.5418 12.0636 13.3545C11.6999 13.1668 11.3233 12.9462 11.0048 12.7052C10.6831 12.4618 10.4367 12.2093 10.3132 11.9624C10.1894 11.7147 10.1306 11.3444 10.1099 10.893C10.0921 10.5034 10.1031 10.0754 10.1142 9.64604L10.119 9.45697C10.1308 8.9708 10.1374 8.48738 10.091 8.08807C10.0677 7.88791 10.0303 7.70045 9.96939 7.53991C9.90865 7.37978 9.81977 7.23382 9.68571 7.13328C9.44072 6.94953 9.13334 6.91434 8.83318 6.95722C8.53224 7.00021 8.21778 7.12389 7.93008 7.28651C7.64152 7.44961 7.37087 7.65695 7.15799 7.87618C6.94873 8.09169 6.77942 8.33502 6.71997 8.5728C6.67737 8.7432 6.65442 9.01267 6.64207 9.32011C6.62951 9.63267 6.62748 10.0008 6.63147 10.3775C6.63946 11.1313 6.67163 11.9272 6.69349 12.3978C6.69882 12.5126 6.60544 12.6061 6.49258 12.6016C5.95635 12.5804 4.9929 12.5464 4.12446 12.5369C3.69056 12.5321 3.278 12.5335 2.95348 12.5458C2.7915 12.5519 2.64855 12.5609 2.53457 12.5737C2.47765 12.5801 2.42536 12.5877 2.38019 12.597C2.33811 12.6057 2.28984 12.6183 2.24815 12.6391C2.11859 12.7039 1.97946 12.8346 1.85202 12.9772C1.71987 13.1251 1.5835 13.3051 1.46056 13.4895C1.33768 13.6738 1.22553 13.8666 1.14327 14.0406C1.06527 14.2056 1 14.3823 1 14.5238C1 14.5875 1.01743 14.734 1.04304 14.9219C1.06967 15.1173 1.10781 15.3752 1.15401 15.6748C1.24645 16.2742 1.37161 17.043 1.50267 17.8174C1.63373 18.5919 1.77082 19.3728 1.88716 19.9962C2.00189 20.611 2.48171 21.5551 2.53457 21.7137C2.74924 22.3578 2.99926 22.5083 4.01026 22.7105C4.26962 22.7624 4.86142 22.7857 5.58398 22.7946C6.31559 22.8035 7.20441 22.7976 8.07404 22.7856C9.22735 22.7698 10.3417 22.7438 11.0201 22.7279L11.0248 22.7278C11.3707 22.7197 11.6024 22.7142 11.6667 22.7142C11.7605 22.7142 11.8562 22.6762 11.9349 22.6368C12.0194 22.5946 12.1113 22.5367 12.2045 22.4715C12.3913 22.3407 12.5996 22.1688 12.7921 22.0004C12.9853 21.8314 13.166 21.6627 13.2982 21.5365ZM7.4313 8.14157C7.24174 8.33678 7.12534 8.52203 7.08955 8.6652C7.05754 8.79325 7.03511 9.02681 7.02271 9.3354C7.01052 9.63886 7.00845 9.9998 7.0124 10.3735C7.02032 11.1206 7.05225 11.9112 7.07403 12.3801C7.08964 12.716 6.81548 12.9956 6.47755 12.9823C5.94234 12.9611 4.98321 12.9273 4.12029 12.9178C3.68851 12.9131 3.28319 12.9145 2.96793 12.9265C2.81002 12.9324 2.67761 12.941 2.57703 12.9523C2.52668 12.9579 2.48689 12.964 2.45722 12.9701C2.43314 12.9751 2.42153 12.9788 2.41852 12.9798C2.3576 13.0103 2.25864 13.0939 2.13608 13.231C2.01823 13.3629 1.89269 13.5281 1.77753 13.7008C1.66232 13.8737 1.56018 14.05 1.48768 14.2034C1.41093 14.3657 1.38095 14.4748 1.38095 14.5238C1.38095 14.5553 1.39328 14.6707 1.4205 14.8704C1.4467 15.0627 1.48445 15.3181 1.53051 15.6167C1.6226 16.2138 1.74744 16.9807 1.87828 17.7539C2.00913 18.5271 2.20127 19.3756 2.31708 19.9962C2.43449 20.6254 2.76133 21.1338 2.8037 21.261C2.96793 21.7137 3.19122 22.1582 4.08498 22.337C4.30181 22.3803 4.85286 22.4046 5.58864 22.4137C6.31536 22.4226 7.20035 22.4166 8.06882 22.4047C9.20973 22.3891 10.3273 22.363 11.011 22.3471C11.3639 22.3388 11.6017 22.3333 11.6667 22.3333C11.6667 22.3333 11.6755 22.3322 11.6909 22.3273C11.7096 22.3213 11.734 22.3113 11.7645 22.2961C11.8258 22.2655 11.9006 22.2191 11.986 22.1594C12.1563 22.0402 12.3527 21.8787 12.5412 21.7137C12.729 21.5495 12.9054 21.3848 13.0351 21.261C13.0999 21.1991 13.1529 21.1476 13.1896 21.1117L13.2155 21.0862C13.1991 20.9964 13.1905 20.904 13.1905 20.8095V14.7142C13.1905 14.5695 13.2106 14.4295 13.2483 14.2969L13.1973 14.2776C13.1218 14.2488 13.0138 14.2065 12.8825 14.1521C12.6202 14.0436 12.2639 13.8866 11.8888 13.693C11.5144 13.4998 11.1171 13.2679 10.7749 13.009C10.4359 12.7524 10.1347 12.4573 9.97249 12.1328C9.81061 11.809 9.75038 11.3698 9.72937 10.9104C9.71086 10.506 9.72233 10.063 9.73339 9.63514L9.73815 9.44768C9.7501 8.95767 9.75544 8.50061 9.71258 8.13207C9.69122 7.9483 9.6587 7.79498 9.6132 7.67501C9.56754 7.55463 9.51357 7.48036 9.45714 7.43804C9.32119 7.33607 9.12856 7.29984 8.88706 7.33434C8.64634 7.36873 8.37746 7.47124 8.11754 7.61815C7.85849 7.76457 7.61723 7.95009 7.4313 8.14157ZM15.4762 21.9523C16.1074 21.9523 16.619 21.4406 16.619 20.8095V14.7142C16.619 14.083 16.1074 13.5714 15.4762 13.5714H14.7143C14.0831 13.5714 13.5714 14.083 13.5714 14.7142V20.8095C13.5714 21.4406 14.0831 21.9523 14.7143 21.9523H15.4762Z"/>
<path d="M12.1464 7.02444C11.9713 7.02444 11.8293 7.1664 11.8293 7.34152C11.8293 7.51664 12.1464 7.6586 12.1464 7.6586H14.683C14.8581 7.6586 15.0001 7.51664 15.0001 7.34152C15.0001 7.1664 14.8581 7.02444 14.683 7.02444H12.1464Z"/>
<path d="M5.58048 5.0291C5.45666 5.15292 5.25589 5.15292 5.13207 5.0291L3.36094 3.25798C3.23712 3.13415 3.23712 2.93339 3.36094 2.80956C3.48477 2.68574 3.68553 2.68574 3.80936 2.80956L5.58048 4.58068C5.70431 4.70451 5.70431 4.90527 5.58048 5.0291Z"/>
<path d="M4.53661 7.65855C4.71173 7.65855 4.85369 7.51659 4.85369 7.34147C4.85369 7.16635 4.71173 7.02439 4.53661 7.02439H2.31708C2.14196 7.02439 2 7.16635 2 7.34147C2 7.51659 2.14196 7.65855 2.31708 7.65855H4.53661Z"/>
</mask>
<path d="M7.70694 3.53661C7.70694 3.71173 7.8489 3.85369 8.02401 3.85369C8.19913 3.85369 8.34109 3.71173 8.34109 3.53661V1.31708C8.34109 1.14196 8.19913 1 8.02401 1C7.8489 1 7.70694 1.14196 7.70694 1.31708V3.53661Z" fill="#0C2739"/>
<path d="M10.6537 4.89778C10.5299 4.77396 10.5299 4.5732 10.6537 4.44937L12.4473 2.65571C12.5712 2.53189 12.7719 2.53189 12.8958 2.65571C13.0196 2.77954 13.0196 2.9803 12.8958 3.10413L11.1021 4.89778C10.9783 5.02161 10.7775 5.02161 10.6537 4.89778Z" fill="#0C2739"/>
<path fill-rule="evenodd" clip-rule="evenodd" d="M13.2982 21.5365L13.3493 21.4876C13.5988 21.9888 14.1163 22.3333 14.7143 22.3333H15.4762C16.3178 22.3333 17 21.651 17 20.8095V14.7142C17 13.8727 16.3178 13.1904 15.4762 13.1904H14.7143C14.1528 13.1904 13.6623 13.4941 13.3979 13.9461C13.3807 13.9397 13.359 13.9315 13.3332 13.9217C13.2606 13.894 13.1558 13.853 13.0282 13.8001C12.7726 13.6944 12.4265 13.5418 12.0636 13.3545C11.6999 13.1668 11.3233 12.9462 11.0048 12.7052C10.6831 12.4618 10.4367 12.2093 10.3132 11.9624C10.1894 11.7147 10.1306 11.3444 10.1099 10.893C10.0921 10.5034 10.1031 10.0754 10.1142 9.64604L10.119 9.45697C10.1308 8.9708 10.1374 8.48738 10.091 8.08807C10.0677 7.88791 10.0303 7.70045 9.96939 7.53991C9.90865 7.37978 9.81977 7.23382 9.68571 7.13328C9.44072 6.94953 9.13334 6.91434 8.83318 6.95722C8.53224 7.00021 8.21778 7.12389 7.93008 7.28651C7.64152 7.44961 7.37087 7.65695 7.15799 7.87618C6.94873 8.09169 6.77942 8.33502 6.71997 8.5728C6.67737 8.7432 6.65442 9.01267 6.64207 9.32011C6.62951 9.63267 6.62748 10.0008 6.63147 10.3775C6.63946 11.1313 6.67163 11.9272 6.69349 12.3978C6.69882 12.5126 6.60544 12.6061 6.49258 12.6016C5.95635 12.5804 4.9929 12.5464 4.12446 12.5369C3.69056 12.5321 3.278 12.5335 2.95348 12.5458C2.7915 12.5519 2.64855 12.5609 2.53457 12.5737C2.47765 12.5801 2.42536 12.5877 2.38019 12.597C2.33811 12.6057 2.28984 12.6183 2.24815 12.6391C2.11859 12.7039 1.97946 12.8346 1.85202 12.9772C1.71987 13.1251 1.5835 13.3051 1.46056 13.4895C1.33768 13.6738 1.22553 13.8666 1.14327 14.0406C1.06527 14.2056 1 14.3823 1 14.5238C1 14.5875 1.01743 14.734 1.04304 14.9219C1.06967 15.1173 1.10781 15.3752 1.15401 15.6748C1.24645 16.2742 1.37161 17.043 1.50267 17.8174C1.63373 18.5919 1.77082 19.3728 1.88716 19.9962C2.00189 20.611 2.48171 21.5551 2.53457 21.7137C2.74924 22.3578 2.99926 22.5083 4.01026 22.7105C4.26962 22.7624 4.86142 22.7857 5.58398 22.7946C6.31559 22.8035 7.20441 22.7976 8.07404 22.7856C9.22735 22.7698 10.3417 22.7438 11.0201 22.7279L11.0248 22.7278C11.3707 22.7197 11.6024 22.7142 11.6667 22.7142C11.7605 22.7142 11.8562 22.6762 11.9349 22.6368C12.0194 22.5946 12.1113 22.5367 12.2045 22.4715C12.3913 22.3407 12.5996 22.1688 12.7921 22.0004C12.9853 21.8314 13.166 21.6627 13.2982 21.5365ZM7.4313 8.14157C7.24174 8.33678 7.12534 8.52203 7.08955 8.6652C7.05754 8.79325 7.03511 9.02681 7.02271 9.3354C7.01052 9.63886 7.00845 9.9998 7.0124 10.3735C7.02032 11.1206 7.05225 11.9112 7.07403 12.3801C7.08964 12.716 6.81548 12.9956 6.47755 12.9823C5.94234 12.9611 4.98321 12.9273 4.12029 12.9178C3.68851 12.9131 3.28319 12.9145 2.96793 12.9265C2.81002 12.9324 2.67761 12.941 2.57703 12.9523C2.52668 12.9579 2.48689 12.964 2.45722 12.9701C2.43314 12.9751 2.42153 12.9788 2.41852 12.9798C2.3576 13.0103 2.25864 13.0939 2.13608 13.231C2.01823 13.3629 1.89269 13.5281 1.77753 13.7008C1.66232 13.8737 1.56018 14.05 1.48768 14.2034C1.41093 14.3657 1.38095 14.4748 1.38095 14.5238C1.38095 14.5553 1.39328 14.6707 1.4205 14.8704C1.4467 15.0627 1.48445 15.3181 1.53051 15.6167C1.6226 16.2138 1.74744 16.9807 1.87828 17.7539C2.00913 18.5271 2.20127 19.3756 2.31708 19.9962C2.43449 20.6254 2.76133 21.1338 2.8037 21.261C2.96793 21.7137 3.19122 22.1582 4.08498 22.337C4.30181 22.3803 4.85286 22.4046 5.58864 22.4137C6.31536 22.4226 7.20035 22.4166 8.06882 22.4047C9.20973 22.3891 10.3273 22.363 11.011 22.3471C11.3639 22.3388 11.6017 22.3333 11.6667 22.3333C11.6667 22.3333 11.6755 22.3322 11.6909 22.3273C11.7096 22.3213 11.734 22.3113 11.7645 22.2961C11.8258 22.2655 11.9006 22.2191 11.986 22.1594C12.1563 22.0402 12.3527 21.8787 12.5412 21.7137C12.729 21.5495 12.9054 21.3848 13.0351 21.261C13.0999 21.1991 13.1529 21.1476 13.1896 21.1117L13.2155 21.0862C13.1991 20.9964 13.1905 20.904 13.1905 20.8095V14.7142C13.1905 14.5695 13.2106 14.4295 13.2483 14.2969L13.1973 14.2776C13.1218 14.2488 13.0138 14.2065 12.8825 14.1521C12.6202 14.0436 12.2639 13.8866 11.8888 13.693C11.5144 13.4998 11.1171 13.2679 10.7749 13.009C10.4359 12.7524 10.1347 12.4573 9.97249 12.1328C9.81061 11.809 9.75038 11.3698 9.72937 10.9104C9.71086 10.506 9.72233 10.063 9.73339 9.63514L9.73815 9.44768C9.7501 8.95767 9.75544 8.50061 9.71258 8.13207C9.69122 7.9483 9.6587 7.79498 9.6132 7.67501C9.56754 7.55463 9.51357 7.48036 9.45714 7.43804C9.32119 7.33607 9.12856 7.29984 8.88706 7.33434C8.64634 7.36873 8.37746 7.47124 8.11754 7.61815C7.85849 7.76457 7.61723 7.95009 7.4313 8.14157ZM15.4762 21.9523C16.1074 21.9523 16.619 21.4406 16.619 20.8095V14.7142C16.619 14.083 16.1074 13.5714 15.4762 13.5714H14.7143C14.0831 13.5714 13.5714 14.083 13.5714 14.7142V20.8095C13.5714 21.4406 14.0831 21.9523 14.7143 21.9523H15.4762Z" fill="#0C2739"/>
<path d="M12.1464 7.02444C11.9713 7.02444 11.8293 7.1664 11.8293 7.34152C11.8293 7.51664 12.1464 7.6586 12.1464 7.6586H14.683C14.8581 7.6586 15.0001 7.51664 15.0001 7.34152C15.0001 7.1664 14.8581 7.02444 14.683 7.02444H12.1464Z" fill="#0C2739"/>
<path d="M5.58048 5.0291C5.45666 5.15292 5.25589 5.15292 5.13207 5.0291L3.36094 3.25798C3.23712 3.13415 3.23712 2.93339 3.36094 2.80956C3.48477 2.68574 3.68553 2.68574 3.80936 2.80956L5.58048 4.58068C5.70431 4.70451 5.70431 4.90527 5.58048 5.0291Z" fill="#0C2739"/>
<path d="M4.53661 7.65855C4.71173 7.65855 4.85369 7.51659 4.85369 7.34147C4.85369 7.16635 4.71173 7.02439 4.53661 7.02439H2.31708C2.14196 7.02439 2 7.16635 2 7.34147C2 7.51659 2.14196 7.65855 2.31708 7.65855H4.53661Z" fill="#0C2739"/>
<path d="M7.70694 3.53661C7.70694 3.71173 7.8489 3.85369 8.02401 3.85369C8.19913 3.85369 8.34109 3.71173 8.34109 3.53661V1.31708C8.34109 1.14196 8.19913 1 8.02401 1C7.8489 1 7.70694 1.14196 7.70694 1.31708V3.53661Z" stroke="#0C2739" stroke-width="0.4" stroke-linecap="round" mask="url(#path-1-outside-1)"/>
<path d="M10.6537 4.89778C10.5299 4.77396 10.5299 4.5732 10.6537 4.44937L12.4473 2.65571C12.5712 2.53189 12.7719 2.53189 12.8958 2.65571C13.0196 2.77954 13.0196 2.9803 12.8958 3.10413L11.1021 4.89778C10.9783 5.02161 10.7775 5.02161 10.6537 4.89778Z" stroke="#0C2739" stroke-width="0.4" stroke-linecap="round" mask="url(#path-1-outside-1)"/>
<path fill-rule="evenodd" clip-rule="evenodd" d="M13.2982 21.5365L13.3493 21.4876C13.5988 21.9888 14.1163 22.3333 14.7143 22.3333H15.4762C16.3178 22.3333 17 21.651 17 20.8095V14.7142C17 13.8727 16.3178 13.1904 15.4762 13.1904H14.7143C14.1528 13.1904 13.6623 13.4941 13.3979 13.9461C13.3807 13.9397 13.359 13.9315 13.3332 13.9217C13.2606 13.894 13.1558 13.853 13.0282 13.8001C12.7726 13.6944 12.4265 13.5418 12.0636 13.3545C11.6999 13.1668 11.3233 12.9462 11.0048 12.7052C10.6831 12.4618 10.4367 12.2093 10.3132 11.9624C10.1894 11.7147 10.1306 11.3444 10.1099 10.893C10.0921 10.5034 10.1031 10.0754 10.1142 9.64604L10.119 9.45697C10.1308 8.9708 10.1374 8.48738 10.091 8.08807C10.0677 7.88791 10.0303 7.70045 9.96939 7.53991C9.90865 7.37978 9.81977 7.23382 9.68571 7.13328C9.44072 6.94953 9.13334 6.91434 8.83318 6.95722C8.53224 7.00021 8.21778 7.12389 7.93008 7.28651C7.64152 7.44961 7.37087 7.65695 7.15799 7.87618C6.94873 8.09169 6.77942 8.33502 6.71997 8.5728C6.67737 8.7432 6.65442 9.01267 6.64207 9.32011C6.62951 9.63267 6.62748 10.0008 6.63147 10.3775C6.63946 11.1313 6.67163 11.9272 6.69349 12.3978C6.69882 12.5126 6.60544 12.6061 6.49258 12.6016C5.95635 12.5804 4.9929 12.5464 4.12446 12.5369C3.69056 12.5321 3.278 12.5335 2.95348 12.5458C2.7915 12.5519 2.64855 12.5609 2.53457 12.5737C2.47765 12.5801 2.42536 12.5877 2.38019 12.597C2.33811 12.6057 2.28984 12.6183 2.24815 12.6391C2.11859 12.7039 1.97946 12.8346 1.85202 12.9772C1.71987 13.1251 1.5835 13.3051 1.46056 13.4895C1.33768 13.6738 1.22553 13.8666 1.14327 14.0406C1.06527 14.2056 1 14.3823 1 14.5238C1 14.5875 1.01743 14.734 1.04304 14.9219C1.06967 15.1173 1.10781 15.3752 1.15401 15.6748C1.24645 16.2742 1.37161 17.043 1.50267 17.8174C1.63373 18.5919 1.77082 19.3728 1.88716 19.9962C2.00189 20.611 2.48171 21.5551 2.53457 21.7137C2.74924 22.3578 2.99926 22.5083 4.01026 22.7105C4.26962 22.7624 4.86142 22.7857 5.58398 22.7946C6.31559 22.8035 7.20441 22.7976 8.07404 22.7856C9.22735 22.7698 10.3417 22.7438 11.0201 22.7279L11.0248 22.7278C11.3707 22.7197 11.6024 22.7142 11.6667 22.7142C11.7605 22.7142 11.8562 22.6762 11.9349 22.6368C12.0194 22.5946 12.1113 22.5367 12.2045 22.4715C12.3913 22.3407 12.5996 22.1688 12.7921 22.0004C12.9853 21.8314 13.166 21.6627 13.2982 21.5365ZM7.4313 8.14157C7.24174 8.33678 7.12534 8.52203 7.08955 8.6652C7.05754 8.79325 7.03511 9.02681 7.02271 9.3354C7.01052 9.63886 7.00845 9.9998 7.0124 10.3735C7.02032 11.1206 7.05225 11.9112 7.07403 12.3801C7.08964 12.716 6.81548 12.9956 6.47755 12.9823C5.94234 12.9611 4.98321 12.9273 4.12029 12.9178C3.68851 12.9131 3.28319 12.9145 2.96793 12.9265C2.81002 12.9324 2.67761 12.941 2.57703 12.9523C2.52668 12.9579 2.48689 12.964 2.45722 12.9701C2.43314 12.9751 2.42153 12.9788 2.41852 12.9798C2.3576 13.0103 2.25864 13.0939 2.13608 13.231C2.01823 13.3629 1.89269 13.5281 1.77753 13.7008C1.66232 13.8737 1.56018 14.05 1.48768 14.2034C1.41093 14.3657 1.38095 14.4748 1.38095 14.5238C1.38095 14.5553 1.39328 14.6707 1.4205 14.8704C1.4467 15.0627 1.48445 15.3181 1.53051 15.6167C1.6226 16.2138 1.74744 16.9807 1.87828 17.7539C2.00913 18.5271 2.20127 19.3756 2.31708 19.9962C2.43449 20.6254 2.76133 21.1338 2.8037 21.261C2.96793 21.7137 3.19122 22.1582 4.08498 22.337C4.30181 22.3803 4.85286 22.4046 5.58864 22.4137C6.31536 22.4226 7.20035 22.4166 8.06882 22.4047C9.20973 22.3891 10.3273 22.363 11.011 22.3471C11.3639 22.3388 11.6017 22.3333 11.6667 22.3333C11.6667 22.3333 11.6755 22.3322 11.6909 22.3273C11.7096 22.3213 11.734 22.3113 11.7645 22.2961C11.8258 22.2655 11.9006 22.2191 11.986 22.1594C12.1563 22.0402 12.3527 21.8787 12.5412 21.7137C12.729 21.5495 12.9054 21.3848 13.0351 21.261C13.0999 21.1991 13.1529 21.1476 13.1896 21.1117L13.2155 21.0862C13.1991 20.9964 13.1905 20.904 13.1905 20.8095V14.7142C13.1905 14.5695 13.2106 14.4295 13.2483 14.2969L13.1973 14.2776C13.1218 14.2488 13.0138 14.2065 12.8825 14.1521C12.6202 14.0436 12.2639 13.8866 11.8888 13.693C11.5144 13.4998 11.1171 13.2679 10.7749 13.009C10.4359 12.7524 10.1347 12.4573 9.97249 12.1328C9.81061 11.809 9.75038 11.3698 9.72937 10.9104C9.71086 10.506 9.72233 10.063 9.73339 9.63514L9.73815 9.44768C9.7501 8.95767 9.75544 8.50061 9.71258 8.13207C9.69122 7.9483 9.6587 7.79498 9.6132 7.67501C9.56754 7.55463 9.51357 7.48036 9.45714 7.43804C9.32119 7.33607 9.12856 7.29984 8.88706 7.33434C8.64634 7.36873 8.37746 7.47124 8.11754 7.61815C7.85849 7.76457 7.61723 7.95009 7.4313 8.14157ZM15.4762 21.9523C16.1074 21.9523 16.619 21.4406 16.619 20.8095V14.7142C16.619 14.083 16.1074 13.5714 15.4762 13.5714H14.7143C14.0831 13.5714 13.5714 14.083 13.5714 14.7142V20.8095C13.5714 21.4406 14.0831 21.9523 14.7143 21.9523H15.4762Z" stroke="#0C2739" stroke-width="0.4" stroke-linecap="round" mask="url(#path-1-outside-1)"/>
<path d="M12.1464 7.02444C11.9713 7.02444 11.8293 7.1664 11.8293 7.34152C11.8293 7.51664 12.1464 7.6586 12.1464 7.6586H14.683C14.8581 7.6586 15.0001 7.51664 15.0001 7.34152C15.0001 7.1664 14.8581 7.02444 14.683 7.02444H12.1464Z" stroke="#0C2739" stroke-width="0.4" stroke-linecap="round" mask="url(#path-1-outside-1)"/>
<path d="M5.58048 5.0291C5.45666 5.15292 5.25589 5.15292 5.13207 5.0291L3.36094 3.25798C3.23712 3.13415 3.23712 2.93339 3.36094 2.80956C3.48477 2.68574 3.68553 2.68574 3.80936 2.80956L5.58048 4.58068C5.70431 4.70451 5.70431 4.90527 5.58048 5.0291Z" stroke="#0C2739" stroke-width="0.4" stroke-linecap="round" mask="url(#path-1-outside-1)"/>
<path d="M4.53661 7.65855C4.71173 7.65855 4.85369 7.51659 4.85369 7.34147C4.85369 7.16635 4.71173 7.02439 4.53661 7.02439H2.31708C2.14196 7.02439 2 7.16635 2 7.34147C2 7.51659 2.14196 7.65855 2.31708 7.65855H4.53661Z" stroke="#0C2739" stroke-width="0.4" stroke-linecap="round" mask="url(#path-1-outside-1)"/>
</svg>
