<svg width="24" height="24" viewBox="0 0 24 24" fill="none" xmlns="http://www.w3.org/2000/svg">
<path fill-rule="evenodd" clip-rule="evenodd" d="M10.6826 9C10.6826 9.55228 10.2349 10 9.68265 10L4.02265 10.0001L4.01132 9.99994C3.86637 9.99829 3.72279 10.0282 3.59054 10.0875C3.45828 10.1469 3.34052 10.2343 3.24539 10.3437C3.15027 10.4531 3.08007 10.5818 3.03965 10.7211C2.99932 10.86 2.98973 11.0069 3.01132 11.1499L4.3911 20.1484L4.39134 20.1501C4.4275 20.3885 4.54863 20.6059 4.73239 20.7621C4.91615 20.9183 5.15018 21.0027 5.39134 21H15.6826V11.5808C15.4779 11.4366 15.2429 11.2423 14.9941 10.9825C14.3227 10.2814 13.5785 9.13361 13.0397 7.27897C12.5364 5.54629 12.2037 4.28391 11.996 3.45104C11.9693 3.3437 11.9446 3.2435 11.9219 3.15034C11.6797 3.24993 11.4572 3.39705 11.2684 3.58579C10.8934 3.96086 10.6826 4.46957 10.6826 5V9ZM3.40265 20.3L2.02265 11.3C1.97914 11.0134 1.99847 10.7207 2.07931 10.4423C2.16014 10.1638 2.30055 9.90629 2.49079 9.68751C2.68103 9.46873 2.91657 9.29393 3.18108 9.17522C3.44558 9.0565 3.73274 8.99672 4.02265 9H9.68265V5C9.68265 4.20435 9.99872 3.44129 10.5613 2.87868C11.1239 2.31607 11.887 2 12.6826 2C12.6826 2 13 3.55775 14 7C15 10.4423 16.6826 11 16.6826 11H19.6826C20.2131 11 20.7218 11.2107 21.0969 11.5858C21.4719 11.9609 21.6826 12.4696 21.6826 13V20C21.6826 20.5304 21.4719 21.0391 21.0969 21.4142C20.7218 21.7893 20.2131 22 19.6826 22H16.6826H16H5.40265C4.92032 22.0055 4.45227 21.8364 4.08474 21.524C3.71721 21.2116 3.47497 20.7769 3.40265 20.3ZM19.6826 21C19.9479 21 20.2022 20.8946 20.3898 20.7071C20.5773 20.5196 20.6826 20.2652 20.6826 20V13C20.6826 12.7348 20.5773 12.4804 20.3898 12.2929C20.2022 12.1054 19.9479 12 19.6826 12H17V21H19.6826Z" fill="#0C2739"/>
</svg>
