<svg width="18" height="17" viewBox="0 0 18 17" fill="none" xmlns="http://www.w3.org/2000/svg">
<mask id="path-1-outside-1" maskUnits="userSpaceOnUse" x="0" y="-0.0592041" width="18" height="18" fill="black">
<rect fill="white" y="-0.0592041" width="18" height="18"/>
<path fill-rule="evenodd" clip-rule="evenodd" d="M13.2982 15.5365L13.3493 15.4876C13.5988 15.9888 14.1163 16.3333 14.7143 16.3333H15.4762C16.3178 16.3333 17 15.651 17 14.8095V8.71423C17 7.87265 16.3178 7.19042 15.4762 7.19042H14.7143C14.1528 7.19042 13.6623 7.49408 13.3979 7.94613C13.3807 7.93971 13.359 7.93155 13.3332 7.92171C13.2606 7.89398 13.1558 7.85295 13.0282 7.80013C12.7726 7.69438 12.4265 7.54185 12.0636 7.3545C11.6999 7.16679 11.3233 6.94625 11.0048 6.70521C10.6831 6.46176 10.4367 6.2093 10.3132 5.96239C10.1894 5.71471 10.1306 5.34442 10.1099 4.89303C10.0921 4.50336 10.1031 4.07542 10.1142 3.64604L10.119 3.45697C10.1308 2.9708 10.1374 2.48738 10.091 2.08807C10.0677 1.88791 10.0303 1.70045 9.96939 1.53991C9.90865 1.37978 9.81977 1.23382 9.68571 1.13328C9.44072 0.949534 9.13334 0.914338 8.83318 0.957218C8.53224 1.00021 8.21778 1.12389 7.93008 1.28651C7.64152 1.44961 7.37087 1.65695 7.15799 1.87618C6.94873 2.09169 6.77942 2.33502 6.71997 2.5728C6.67737 2.7432 6.65442 3.01267 6.64207 3.32011C6.62951 3.63267 6.62748 4.00075 6.63147 4.37751C6.63946 5.1313 6.67163 5.92718 6.69349 6.39777C6.69882 6.51255 6.60544 6.60607 6.49258 6.60161C5.95635 6.58043 4.9929 6.5464 4.12446 6.53689C3.69056 6.53213 3.278 6.53346 2.95348 6.54577C2.7915 6.55192 2.64855 6.5609 2.53457 6.57368C2.47765 6.58007 2.42536 6.58768 2.38019 6.59701C2.33811 6.6057 2.28984 6.61826 2.24815 6.6391C2.11859 6.70388 1.97946 6.83458 1.85202 6.97719C1.71987 7.12508 1.5835 7.30511 1.46056 7.48952C1.33768 7.67385 1.22553 7.86655 1.14327 8.04056C1.06527 8.20558 1 8.38227 1 8.52376C1 8.58749 1.01743 8.73398 1.04304 8.92187C1.06967 9.11729 1.10781 9.37523 1.15401 9.67482C1.24645 10.2742 1.37161 11.043 1.50267 11.8174C1.63373 12.5919 1.77082 13.3728 1.88716 13.9962C2.00189 14.611 2.48171 15.5551 2.53457 15.7137C2.74924 16.3578 2.99926 16.5083 4.01026 16.7105C4.26962 16.7624 4.86142 16.7857 5.58398 16.7946C6.31559 16.8035 7.20441 16.7976 8.07404 16.7856C9.22735 16.7698 10.3417 16.7438 11.0201 16.7279L11.0248 16.7278C11.3707 16.7197 11.6024 16.7142 11.6667 16.7142C11.7605 16.7142 11.8562 16.6762 11.9349 16.6368C12.0194 16.5946 12.1113 16.5367 12.2045 16.4715C12.3913 16.3407 12.5996 16.1688 12.7921 16.0004C12.9853 15.8314 13.166 15.6627 13.2982 15.5365ZM7.4313 2.14157C7.24174 2.33678 7.12534 2.52203 7.08955 2.6652C7.05754 2.79325 7.03511 3.02681 7.02271 3.3354C7.01052 3.63886 7.00845 3.9998 7.0124 4.37348C7.02032 5.12056 7.05225 5.9112 7.07403 6.38009C7.08964 6.71596 6.81548 6.99562 6.47755 6.98227C5.94234 6.96113 4.98321 6.92727 4.12029 6.91782C3.68851 6.91308 3.28319 6.91449 2.96793 6.92645C2.81002 6.93244 2.67761 6.94098 2.57703 6.95226C2.52668 6.95791 2.48689 6.96397 2.45722 6.97009C2.43314 6.97506 2.42153 6.97882 2.41852 6.97984C2.3576 7.0103 2.25864 7.09388 2.13608 7.23103C2.01823 7.36291 1.89269 7.52811 1.77753 7.70084C1.66232 7.87366 1.56018 8.05 1.48768 8.20337C1.41093 8.36574 1.38095 8.47476 1.38095 8.52376C1.38095 8.55526 1.39328 8.67068 1.4205 8.87043C1.4467 9.06266 1.48445 9.31812 1.53051 9.61675C1.6226 10.2138 1.74744 10.9807 1.87828 11.7539C2.00913 12.5271 2.20127 13.3756 2.31708 13.9962C2.43449 14.6254 2.76133 15.1338 2.8037 15.261C2.96793 15.7137 3.19122 16.1582 4.08498 16.337C4.30181 16.3803 4.85286 16.4046 5.58864 16.4137C6.31536 16.4226 7.20035 16.4166 8.06882 16.4047C9.20973 16.3891 10.3273 16.363 11.011 16.3471C11.3639 16.3388 11.6017 16.3333 11.6667 16.3333C11.6667 16.3333 11.6755 16.3322 11.6909 16.3273C11.7096 16.3213 11.734 16.3114 11.7645 16.2961C11.8258 16.2655 11.9006 16.2191 11.986 16.1594C12.1563 16.0402 12.3527 15.8787 12.5412 15.7137C12.729 15.5495 12.9054 15.3848 13.0351 15.261C13.0999 15.1991 13.1529 15.1476 13.1896 15.1117L13.2155 15.0862C13.1991 14.9964 13.1905 14.904 13.1905 14.8095V8.71423C13.1905 8.56952 13.2106 8.42953 13.2483 8.29691L13.1973 8.27759C13.1218 8.24877 13.0138 8.20646 12.8825 8.15214C12.6202 8.04361 12.2639 7.88662 11.8888 7.69302C11.5144 7.49977 11.1171 7.26794 10.7749 7.00898C10.4359 6.75243 10.1347 6.45727 9.97249 6.13275C9.81061 5.809 9.75038 5.36977 9.72937 4.91044C9.71086 4.50603 9.72233 4.06295 9.73339 3.63514L9.73815 3.44768C9.7501 2.95767 9.75544 2.50061 9.71258 2.13207C9.69122 1.9483 9.6587 1.79498 9.6132 1.67501C9.56754 1.55463 9.51357 1.48036 9.45714 1.43804C9.32119 1.33607 9.12856 1.29984 8.88706 1.33434C8.64634 1.36873 8.37746 1.47124 8.11754 1.61815C7.85849 1.76457 7.61723 1.95009 7.4313 2.14157ZM15.4762 15.9523C16.1074 15.9523 16.619 15.4406 16.619 14.8095V8.71423C16.619 8.08305 16.1074 7.57137 15.4762 7.57137H14.7143C14.0831 7.57137 13.5714 8.08305 13.5714 8.71423V14.8095C13.5714 15.4406 14.0831 15.9523 14.7143 15.9523H15.4762Z"/>
</mask>
<path fill-rule="evenodd" clip-rule="evenodd" d="M13.2982 15.5365L13.3493 15.4876C13.5988 15.9888 14.1163 16.3333 14.7143 16.3333H15.4762C16.3178 16.3333 17 15.651 17 14.8095V8.71423C17 7.87265 16.3178 7.19042 15.4762 7.19042H14.7143C14.1528 7.19042 13.6623 7.49408 13.3979 7.94613C13.3807 7.93971 13.359 7.93155 13.3332 7.92171C13.2606 7.89398 13.1558 7.85295 13.0282 7.80013C12.7726 7.69438 12.4265 7.54185 12.0636 7.3545C11.6999 7.16679 11.3233 6.94625 11.0048 6.70521C10.6831 6.46176 10.4367 6.2093 10.3132 5.96239C10.1894 5.71471 10.1306 5.34442 10.1099 4.89303C10.0921 4.50336 10.1031 4.07542 10.1142 3.64604L10.119 3.45697C10.1308 2.9708 10.1374 2.48738 10.091 2.08807C10.0677 1.88791 10.0303 1.70045 9.96939 1.53991C9.90865 1.37978 9.81977 1.23382 9.68571 1.13328C9.44072 0.949534 9.13334 0.914338 8.83318 0.957218C8.53224 1.00021 8.21778 1.12389 7.93008 1.28651C7.64152 1.44961 7.37087 1.65695 7.15799 1.87618C6.94873 2.09169 6.77942 2.33502 6.71997 2.5728C6.67737 2.7432 6.65442 3.01267 6.64207 3.32011C6.62951 3.63267 6.62748 4.00075 6.63147 4.37751C6.63946 5.1313 6.67163 5.92718 6.69349 6.39777C6.69882 6.51255 6.60544 6.60607 6.49258 6.60161C5.95635 6.58043 4.9929 6.5464 4.12446 6.53689C3.69056 6.53213 3.278 6.53346 2.95348 6.54577C2.7915 6.55192 2.64855 6.5609 2.53457 6.57368C2.47765 6.58007 2.42536 6.58768 2.38019 6.59701C2.33811 6.6057 2.28984 6.61826 2.24815 6.6391C2.11859 6.70388 1.97946 6.83458 1.85202 6.97719C1.71987 7.12508 1.5835 7.30511 1.46056 7.48952C1.33768 7.67385 1.22553 7.86655 1.14327 8.04056C1.06527 8.20558 1 8.38227 1 8.52376C1 8.58749 1.01743 8.73398 1.04304 8.92187C1.06967 9.11729 1.10781 9.37523 1.15401 9.67482C1.24645 10.2742 1.37161 11.043 1.50267 11.8174C1.63373 12.5919 1.77082 13.3728 1.88716 13.9962C2.00189 14.611 2.48171 15.5551 2.53457 15.7137C2.74924 16.3578 2.99926 16.5083 4.01026 16.7105C4.26962 16.7624 4.86142 16.7857 5.58398 16.7946C6.31559 16.8035 7.20441 16.7976 8.07404 16.7856C9.22735 16.7698 10.3417 16.7438 11.0201 16.7279L11.0248 16.7278C11.3707 16.7197 11.6024 16.7142 11.6667 16.7142C11.7605 16.7142 11.8562 16.6762 11.9349 16.6368C12.0194 16.5946 12.1113 16.5367 12.2045 16.4715C12.3913 16.3407 12.5996 16.1688 12.7921 16.0004C12.9853 15.8314 13.166 15.6627 13.2982 15.5365ZM7.4313 2.14157C7.24174 2.33678 7.12534 2.52203 7.08955 2.6652C7.05754 2.79325 7.03511 3.02681 7.02271 3.3354C7.01052 3.63886 7.00845 3.9998 7.0124 4.37348C7.02032 5.12056 7.05225 5.9112 7.07403 6.38009C7.08964 6.71596 6.81548 6.99562 6.47755 6.98227C5.94234 6.96113 4.98321 6.92727 4.12029 6.91782C3.68851 6.91308 3.28319 6.91449 2.96793 6.92645C2.81002 6.93244 2.67761 6.94098 2.57703 6.95226C2.52668 6.95791 2.48689 6.96397 2.45722 6.97009C2.43314 6.97506 2.42153 6.97882 2.41852 6.97984C2.3576 7.0103 2.25864 7.09388 2.13608 7.23103C2.01823 7.36291 1.89269 7.52811 1.77753 7.70084C1.66232 7.87366 1.56018 8.05 1.48768 8.20337C1.41093 8.36574 1.38095 8.47476 1.38095 8.52376C1.38095 8.55526 1.39328 8.67068 1.4205 8.87043C1.4467 9.06266 1.48445 9.31812 1.53051 9.61675C1.6226 10.2138 1.74744 10.9807 1.87828 11.7539C2.00913 12.5271 2.20127 13.3756 2.31708 13.9962C2.43449 14.6254 2.76133 15.1338 2.8037 15.261C2.96793 15.7137 3.19122 16.1582 4.08498 16.337C4.30181 16.3803 4.85286 16.4046 5.58864 16.4137C6.31536 16.4226 7.20035 16.4166 8.06882 16.4047C9.20973 16.3891 10.3273 16.363 11.011 16.3471C11.3639 16.3388 11.6017 16.3333 11.6667 16.3333C11.6667 16.3333 11.6755 16.3322 11.6909 16.3273C11.7096 16.3213 11.734 16.3114 11.7645 16.2961C11.8258 16.2655 11.9006 16.2191 11.986 16.1594C12.1563 16.0402 12.3527 15.8787 12.5412 15.7137C12.729 15.5495 12.9054 15.3848 13.0351 15.261C13.0999 15.1991 13.1529 15.1476 13.1896 15.1117L13.2155 15.0862C13.1991 14.9964 13.1905 14.904 13.1905 14.8095V8.71423C13.1905 8.56952 13.2106 8.42953 13.2483 8.29691L13.1973 8.27759C13.1218 8.24877 13.0138 8.20646 12.8825 8.15214C12.6202 8.04361 12.2639 7.88662 11.8888 7.69302C11.5144 7.49977 11.1171 7.26794 10.7749 7.00898C10.4359 6.75243 10.1347 6.45727 9.97249 6.13275C9.81061 5.809 9.75038 5.36977 9.72937 4.91044C9.71086 4.50603 9.72233 4.06295 9.73339 3.63514L9.73815 3.44768C9.7501 2.95767 9.75544 2.50061 9.71258 2.13207C9.69122 1.9483 9.6587 1.79498 9.6132 1.67501C9.56754 1.55463 9.51357 1.48036 9.45714 1.43804C9.32119 1.33607 9.12856 1.29984 8.88706 1.33434C8.64634 1.36873 8.37746 1.47124 8.11754 1.61815C7.85849 1.76457 7.61723 1.95009 7.4313 2.14157ZM15.4762 15.9523C16.1074 15.9523 16.619 15.4406 16.619 14.8095V8.71423C16.619 8.08305 16.1074 7.57137 15.4762 7.57137H14.7143C14.0831 7.57137 13.5714 8.08305 13.5714 8.71423V14.8095C13.5714 15.4406 14.0831 15.9523 14.7143 15.9523H15.4762Z" fill="#0C2739"/>
<path fill-rule="evenodd" clip-rule="evenodd" d="M13.2982 15.5365L13.3493 15.4876C13.5988 15.9888 14.1163 16.3333 14.7143 16.3333H15.4762C16.3178 16.3333 17 15.651 17 14.8095V8.71423C17 7.87265 16.3178 7.19042 15.4762 7.19042H14.7143C14.1528 7.19042 13.6623 7.49408 13.3979 7.94613C13.3807 7.93971 13.359 7.93155 13.3332 7.92171C13.2606 7.89398 13.1558 7.85295 13.0282 7.80013C12.7726 7.69438 12.4265 7.54185 12.0636 7.3545C11.6999 7.16679 11.3233 6.94625 11.0048 6.70521C10.6831 6.46176 10.4367 6.2093 10.3132 5.96239C10.1894 5.71471 10.1306 5.34442 10.1099 4.89303C10.0921 4.50336 10.1031 4.07542 10.1142 3.64604L10.119 3.45697C10.1308 2.9708 10.1374 2.48738 10.091 2.08807C10.0677 1.88791 10.0303 1.70045 9.96939 1.53991C9.90865 1.37978 9.81977 1.23382 9.68571 1.13328C9.44072 0.949534 9.13334 0.914338 8.83318 0.957218C8.53224 1.00021 8.21778 1.12389 7.93008 1.28651C7.64152 1.44961 7.37087 1.65695 7.15799 1.87618C6.94873 2.09169 6.77942 2.33502 6.71997 2.5728C6.67737 2.7432 6.65442 3.01267 6.64207 3.32011C6.62951 3.63267 6.62748 4.00075 6.63147 4.37751C6.63946 5.1313 6.67163 5.92718 6.69349 6.39777C6.69882 6.51255 6.60544 6.60607 6.49258 6.60161C5.95635 6.58043 4.9929 6.5464 4.12446 6.53689C3.69056 6.53213 3.278 6.53346 2.95348 6.54577C2.7915 6.55192 2.64855 6.5609 2.53457 6.57368C2.47765 6.58007 2.42536 6.58768 2.38019 6.59701C2.33811 6.6057 2.28984 6.61826 2.24815 6.6391C2.11859 6.70388 1.97946 6.83458 1.85202 6.97719C1.71987 7.12508 1.5835 7.30511 1.46056 7.48952C1.33768 7.67385 1.22553 7.86655 1.14327 8.04056C1.06527 8.20558 1 8.38227 1 8.52376C1 8.58749 1.01743 8.73398 1.04304 8.92187C1.06967 9.11729 1.10781 9.37523 1.15401 9.67482C1.24645 10.2742 1.37161 11.043 1.50267 11.8174C1.63373 12.5919 1.77082 13.3728 1.88716 13.9962C2.00189 14.611 2.48171 15.5551 2.53457 15.7137C2.74924 16.3578 2.99926 16.5083 4.01026 16.7105C4.26962 16.7624 4.86142 16.7857 5.58398 16.7946C6.31559 16.8035 7.20441 16.7976 8.07404 16.7856C9.22735 16.7698 10.3417 16.7438 11.0201 16.7279L11.0248 16.7278C11.3707 16.7197 11.6024 16.7142 11.6667 16.7142C11.7605 16.7142 11.8562 16.6762 11.9349 16.6368C12.0194 16.5946 12.1113 16.5367 12.2045 16.4715C12.3913 16.3407 12.5996 16.1688 12.7921 16.0004C12.9853 15.8314 13.166 15.6627 13.2982 15.5365ZM7.4313 2.14157C7.24174 2.33678 7.12534 2.52203 7.08955 2.6652C7.05754 2.79325 7.03511 3.02681 7.02271 3.3354C7.01052 3.63886 7.00845 3.9998 7.0124 4.37348C7.02032 5.12056 7.05225 5.9112 7.07403 6.38009C7.08964 6.71596 6.81548 6.99562 6.47755 6.98227C5.94234 6.96113 4.98321 6.92727 4.12029 6.91782C3.68851 6.91308 3.28319 6.91449 2.96793 6.92645C2.81002 6.93244 2.67761 6.94098 2.57703 6.95226C2.52668 6.95791 2.48689 6.96397 2.45722 6.97009C2.43314 6.97506 2.42153 6.97882 2.41852 6.97984C2.3576 7.0103 2.25864 7.09388 2.13608 7.23103C2.01823 7.36291 1.89269 7.52811 1.77753 7.70084C1.66232 7.87366 1.56018 8.05 1.48768 8.20337C1.41093 8.36574 1.38095 8.47476 1.38095 8.52376C1.38095 8.55526 1.39328 8.67068 1.4205 8.87043C1.4467 9.06266 1.48445 9.31812 1.53051 9.61675C1.6226 10.2138 1.74744 10.9807 1.87828 11.7539C2.00913 12.5271 2.20127 13.3756 2.31708 13.9962C2.43449 14.6254 2.76133 15.1338 2.8037 15.261C2.96793 15.7137 3.19122 16.1582 4.08498 16.337C4.30181 16.3803 4.85286 16.4046 5.58864 16.4137C6.31536 16.4226 7.20035 16.4166 8.06882 16.4047C9.20973 16.3891 10.3273 16.363 11.011 16.3471C11.3639 16.3388 11.6017 16.3333 11.6667 16.3333C11.6667 16.3333 11.6755 16.3322 11.6909 16.3273C11.7096 16.3213 11.734 16.3114 11.7645 16.2961C11.8258 16.2655 11.9006 16.2191 11.986 16.1594C12.1563 16.0402 12.3527 15.8787 12.5412 15.7137C12.729 15.5495 12.9054 15.3848 13.0351 15.261C13.0999 15.1991 13.1529 15.1476 13.1896 15.1117L13.2155 15.0862C13.1991 14.9964 13.1905 14.904 13.1905 14.8095V8.71423C13.1905 8.56952 13.2106 8.42953 13.2483 8.29691L13.1973 8.27759C13.1218 8.24877 13.0138 8.20646 12.8825 8.15214C12.6202 8.04361 12.2639 7.88662 11.8888 7.69302C11.5144 7.49977 11.1171 7.26794 10.7749 7.00898C10.4359 6.75243 10.1347 6.45727 9.97249 6.13275C9.81061 5.809 9.75038 5.36977 9.72937 4.91044C9.71086 4.50603 9.72233 4.06295 9.73339 3.63514L9.73815 3.44768C9.7501 2.95767 9.75544 2.50061 9.71258 2.13207C9.69122 1.9483 9.6587 1.79498 9.6132 1.67501C9.56754 1.55463 9.51357 1.48036 9.45714 1.43804C9.32119 1.33607 9.12856 1.29984 8.88706 1.33434C8.64634 1.36873 8.37746 1.47124 8.11754 1.61815C7.85849 1.76457 7.61723 1.95009 7.4313 2.14157ZM15.4762 15.9523C16.1074 15.9523 16.619 15.4406 16.619 14.8095V8.71423C16.619 8.08305 16.1074 7.57137 15.4762 7.57137H14.7143C14.0831 7.57137 13.5714 8.08305 13.5714 8.71423V14.8095C13.5714 15.4406 14.0831 15.9523 14.7143 15.9523H15.4762Z" stroke="#0C2739" stroke-width="0.4" stroke-linecap="round" mask="url(#path-1-outside-1)"/>
</svg>
