<svg width="24" height="24" viewBox="0 0 24 24" fill="none" xmlns="http://www.w3.org/2000/svg">
<path fill-rule="evenodd" clip-rule="evenodd" d="M16.1503 4.45033C17.0874 3.51322 18.6126 3.51322 19.5497 4.45033C20.4868 5.38743 20.4868 6.91257 19.5497 7.84967L14.1297 13.2697C13.1926 14.2068 11.6674 14.2068 10.7303 13.2697C10.4374 12.9768 9.96258 12.9768 9.66968 13.2697C9.37679 13.5626 9.37679 14.0374 9.66968 14.3303C11.1926 15.8532 13.6674 15.8532 15.1903 14.3303L20.6103 8.91033C22.1332 7.38744 22.1332 4.91256 20.6103 3.38967C19.0874 1.86677 16.6126 1.86677 15.0897 3.38967L12.8297 5.64966C12.5368 5.94255 12.5368 6.41743 12.8297 6.71032C13.1226 7.00322 13.5974 7.00322 13.8903 6.71032L16.1503 4.45033ZM9.87033 10.7303C10.8074 9.79322 12.3326 9.79322 13.2697 10.7303C13.5626 11.0232 14.0374 11.0232 14.3303 10.7303C14.6232 10.4374 14.6232 9.96256 14.3303 9.66967C12.8074 8.14677 10.3326 8.14677 8.80967 9.66967L3.38967 15.0897C1.86677 16.6126 1.86677 19.0874 3.38967 20.6103C4.91256 22.1332 7.38743 22.1332 8.91033 20.6103L11.1703 18.3503C11.4632 18.0574 11.4632 17.5826 11.1703 17.2897C10.8774 16.9968 10.4026 16.9968 10.1097 17.2897L7.84967 19.5497C6.91256 20.4868 5.38743 20.4868 4.45033 19.5497C3.51322 18.6125 3.51322 17.0874 4.45033 16.1503L9.87033 10.7303Z" fill="#161721"/>
</svg>
