<svg width="24" height="24" viewBox="0 0 24 24" fill="none" xmlns="http://www.w3.org/2000/svg">
<path fill-rule="evenodd" clip-rule="evenodd" d="M13.2351 4.41854C14.086 3.56511 15.2296 3.08943 16.4206 3.10018C17.6116 3.11093 18.7469 3.60714 19.5831 4.47559C20.4188 5.34342 20.8897 6.51357 20.8999 7.73309C20.9101 8.9526 20.4589 10.1309 19.6381 11.0135L19.6321 11.0198L17.2208 13.5238C17.2208 13.5238 17.2208 13.5238 17.2208 13.5238C16.7637 13.9987 16.2123 14.3672 15.6035 14.603C14.9946 14.8389 14.3433 14.9363 13.6941 14.888C13.0449 14.8397 12.4141 14.647 11.8447 14.3239C11.2753 14.0008 10.781 13.5553 10.3944 13.0186C10.233 12.7945 10.2838 12.482 10.5079 12.3206C10.7319 12.1592 11.0444 12.21 11.2058 12.4341C11.5096 12.8558 11.8961 13.2033 12.3381 13.4541C12.7801 13.7049 13.2679 13.8535 13.7683 13.8907C14.2687 13.9279 14.7713 13.853 15.2423 13.6706C15.7134 13.4881 16.1426 13.2019 16.5004 12.8303L18.9087 10.3293C19.5502 9.63796 19.908 8.70908 19.9 7.74146C19.8918 6.7724 19.5174 5.84901 18.8628 5.16922C18.2088 4.49005 17.3281 4.10841 16.4116 4.10014C15.4962 4.09188 14.6105 4.45663 13.9458 5.12211L12.5659 6.54678C12.3737 6.74513 12.0572 6.75019 11.8588 6.55806C11.6605 6.36594 11.6554 6.0494 11.8476 5.85105L13.2351 4.41854Z" fill="#0C2739"/>
<path fill-rule="evenodd" clip-rule="evenodd" d="M8.39642 9.39696C9.0053 9.1611 9.65659 9.06375 10.3058 9.11204C10.9551 9.16032 11.5858 9.35301 12.1553 9.6761C12.7247 9.99915 13.219 10.4447 13.6056 10.9814C13.767 11.2055 13.7162 11.518 13.4921 11.6794C13.268 11.8408 12.9555 11.79 12.7941 11.5659C12.4904 11.1442 12.1039 10.7967 11.6618 10.5459C11.2198 10.2951 10.7321 10.1465 10.2317 10.1093C9.73127 10.0721 9.22866 10.147 8.75765 10.3294C8.28657 10.5119 7.8573 10.7981 7.49957 11.1697L5.09127 13.6707C4.44975 14.362 4.09189 15.2909 4.09999 16.2585C4.1081 17.2276 4.48253 18.151 5.13713 18.8308C5.79113 19.51 6.67182 19.8916 7.58835 19.8999C8.50349 19.9081 9.38896 19.5436 10.0537 18.8784L11.425 17.4543C11.6166 17.2554 11.9331 17.2494 12.132 17.4409C12.3309 17.6325 12.3369 17.949 12.1454 18.1479L10.7649 19.5815C9.91398 20.435 8.7703 20.9106 7.57932 20.8998C6.38836 20.8891 5.25307 20.3929 4.4168 19.5244C3.58112 18.6566 3.11023 17.4864 3.10002 16.2669C3.08982 15.0474 3.54105 13.8691 4.36188 12.9865L4.36779 12.9802L6.77912 10.4762C7.23625 10.0013 7.78761 9.63281 8.39642 9.39696Z" fill="#0C2739"/>
</svg>
