<svg width="20" height="20" viewBox="0 0 20 20" fill="none" xmlns="http://www.w3.org/2000/svg">
<path fill-rule="evenodd" clip-rule="evenodd" d="M3.9218 2C2.75942 2 2 2.7642 2 3.76582C2 4.74635 2.73631 5.53157 3.87679 5.53157H3.89877C5.08336 5.53157 5.82072 4.74635 5.82072 3.76582C5.79874 2.7642 5.08344 2 3.9218 2ZM17.846 17.1468V11.2865C17.846 8.14753 16.1701 6.68732 13.9352 6.68732C12.1331 6.68732 11.3259 7.67839 10.8739 8.37448V6.92757H7.47735C7.52244 7.88642 7.47735 17.1468 7.47735 17.1468H10.8739V11.4397C10.8739 11.1342 10.8959 10.8288 10.9859 10.6105C11.2309 10.0005 11.7902 9.36847 12.7286 9.36847C13.9572 9.36847 14.4493 10.3059 14.4493 11.6791V17.1468H17.846ZM2.20018 17.1467H5.59752V6.92757H2.20018V17.1467Z" fill="#0C2739"/>
</svg>
