<svg width="20" height="20" viewBox="0 0 20 20" fill="none" xmlns="http://www.w3.org/2000/svg">
<path fill-rule="evenodd" clip-rule="evenodd" d="M16.6846 15.3968C16.6193 15.3224 16.5269 15.2495 16.4079 15.178C16.39 15.1663 16.3409 15.138 16.2609 15.0936C16.1807 15.0489 16.1167 15.0102 16.0688 14.9774C16.0213 14.9446 15.9588 14.8881 15.8813 14.8077C15.804 14.7275 15.7431 14.6425 15.6983 14.5533C15.6537 14.4641 15.6105 14.3436 15.5688 14.1918C15.5271 14.0399 15.5035 13.8718 15.4974 13.6873C15.4141 13.7584 15.368 13.8998 15.3591 14.1113C15.3501 14.3225 15.3948 14.5381 15.4931 14.7584C15.5912 14.9787 15.7385 15.1214 15.9349 15.187C16.1253 15.2526 16.2785 15.3223 16.3948 15.3967C16.5106 15.4712 16.5852 15.5559 16.618 15.6511C16.6507 15.7466 16.5955 15.8492 16.4528 15.9592C16.3098 16.0694 16.0807 16.1779 15.7653 16.2854C15.3308 16.434 15.0227 16.5607 14.8411 16.6647C14.6596 16.7689 14.3934 16.9669 14.0421 17.2584C13.8039 17.4548 13.5511 17.5606 13.2831 17.5755C13.0154 17.5904 12.798 17.4922 12.6315 17.281C12.4648 17.0697 12.411 16.7707 12.4706 16.3836C12.5837 15.6397 12.581 15.0593 12.462 14.6427C12.3667 14.3154 12.3457 14.0266 12.3995 13.7767C12.453 13.5269 12.5362 13.3812 12.6495 13.3394C12.7622 13.2976 12.8845 13.387 13.0154 13.6071C13.0271 13.6368 13.0541 13.6949 13.0956 13.7812C13.1372 13.8674 13.1714 13.9287 13.1984 13.9642C13.2252 13.9999 13.2653 14.0461 13.3189 14.1027C13.3724 14.1594 13.4398 14.1994 13.5199 14.2234C13.6002 14.2471 13.6938 14.262 13.8012 14.2679C14.0035 14.2738 14.1849 14.2322 14.3457 14.1429C14.5064 14.0537 14.6271 13.9539 14.7073 13.8438C14.7876 13.7336 14.8681 13.6281 14.9483 13.5268C15.0286 13.4255 15.0986 13.369 15.1582 13.357C15.2236 13.3453 15.2832 13.2798 15.3368 13.1606C15.3903 13.0416 15.426 12.8765 15.4439 12.6653C15.4619 12.4539 15.4469 12.2024 15.3994 11.9109C15.3101 11.3929 15.1328 10.8245 14.8681 10.2055C14.6031 9.58647 14.3072 9.1014 13.9798 8.75019C13.3905 8.12531 12.9949 7.47656 12.7923 6.80392C12.5842 6.09569 12.495 5.45879 12.5247 4.89332C12.5545 4.48855 12.4667 4.04957 12.2614 3.57634C12.0562 3.10318 11.7837 2.74159 11.4444 2.49161C11.2302 2.33097 10.9652 2.20748 10.65 2.12111C10.3345 2.03474 10.019 1.99469 9.70349 2.00056C9.3167 2.00056 9.00709 2.06301 8.77505 2.18807C8.29889 2.44405 7.98352 2.75501 7.82867 3.12107C7.67381 3.48706 7.60251 3.93793 7.61434 4.47363C7.63826 5.65214 7.68576 6.5747 7.75724 7.24127C7.67384 7.55083 7.30491 8.13106 6.65012 8.98219C6.53101 9.10131 6.41493 9.26198 6.30183 9.46433C6.18878 9.66675 6.09947 9.84834 6.03402 10.0089C5.96848 10.1696 5.88073 10.4017 5.77062 10.7053C5.66046 11.0088 5.58168 11.2231 5.53403 11.348C5.49237 11.4554 5.42686 11.5801 5.33764 11.7232C5.24833 11.8659 5.17675 12.0059 5.12331 12.1426C5.06987 12.2795 5.04004 12.4342 5.0341 12.6068C5.02815 12.7378 5.0341 12.851 5.05198 12.9461C5.07572 13.0891 5.12047 13.1337 5.18585 13.0802C5.45382 12.8778 5.79011 12.9968 6.19478 13.4374C6.48048 13.7469 6.98347 14.4671 7.70365 15.598C7.76315 15.6991 7.82263 15.8077 7.88214 15.9241C7.94181 16.04 7.99819 16.1946 8.05182 16.3881C8.10539 16.5818 8.12774 16.7557 8.11877 16.9106C8.10976 17.0654 8.0414 17.2083 7.91341 17.339C7.78542 17.4699 7.59345 17.5532 7.33755 17.5889C7.20059 17.6068 7.03557 17.595 6.84203 17.5532C6.64859 17.5115 6.40305 17.4431 6.10551 17.3479C5.8079 17.2528 5.58772 17.1872 5.44484 17.1514C5.23664 17.1037 4.94053 17.043 4.55656 16.9684C4.17261 16.8939 3.92106 16.8389 3.80205 16.8032C3.59969 16.7497 3.48962 16.6724 3.47179 16.5711C3.45391 16.4877 3.49556 16.345 3.59678 16.1427C3.69807 15.9403 3.74857 15.7944 3.74857 15.7052C3.75445 15.6396 3.75151 15.5744 3.73957 15.5088C3.72775 15.4433 3.71436 15.3927 3.69945 15.3569C3.68456 15.3213 3.65926 15.2677 3.62352 15.1962C3.58778 15.1248 3.56401 15.0711 3.5521 15.0356C3.44503 14.7855 3.43011 14.6156 3.50747 14.5265C3.56098 14.4491 3.68897 14.4194 3.89133 14.4373C4.19487 14.4671 4.44185 14.4223 4.63236 14.3033C4.94773 14.1069 5.04307 13.7914 4.91802 13.3568C4.91802 13.5592 4.88228 13.7108 4.81085 13.8122C4.73943 13.9133 4.61438 14.0175 4.43588 14.1247C4.33475 14.1843 4.1561 14.2199 3.90024 14.232C3.64435 14.2439 3.47464 14.2856 3.39133 14.357C3.33186 14.4106 3.30065 14.491 3.29764 14.5981C3.29471 14.7054 3.30818 14.8138 3.33789 14.9241C3.3676 15.0342 3.3974 15.1605 3.42711 15.3034C3.45691 15.4464 3.46873 15.5655 3.46285 15.6607C3.45691 15.726 3.40318 15.8884 3.30205 16.147C3.20092 16.406 3.1801 16.604 3.23961 16.7408C3.26941 16.8064 3.31991 16.8645 3.39136 16.915C3.46276 16.9656 3.56245 17.0087 3.69041 17.0446C3.81828 17.0803 3.93589 17.1086 4.04308 17.1293C4.15016 17.15 4.29894 17.1769 4.48939 17.2095C4.67986 17.2421 4.83162 17.2706 4.94472 17.2942C5.32567 17.3717 5.76012 17.4997 6.24823 17.6782C6.73627 17.8568 7.06656 17.9489 7.23918 17.9548C7.40585 17.9607 7.56502 17.9266 7.71684 17.8521C7.8686 17.7778 7.99803 17.693 8.1052 17.5977C8.21227 17.5024 8.3715 17.4131 8.58274 17.3299C8.79413 17.2465 9.0307 17.2019 9.29262 17.1959C9.41164 17.19 9.58426 17.1825 9.81041 17.1736C10.0366 17.1646 10.2062 17.1603 10.3193 17.1603C10.8311 17.1603 11.218 17.1631 11.4798 17.1691C11.6584 17.1752 11.7983 17.2034 11.8995 17.254C12.0007 17.3045 12.0663 17.3626 12.0959 17.428C12.1257 17.4936 12.175 17.5693 12.2435 17.6557C12.3118 17.742 12.3995 17.8119 12.5065 17.8654C12.7326 17.9727 12.9976 18.0158 13.3012 17.9949C13.6047 17.9742 13.8072 17.9161 13.9083 17.8209C14.0749 17.6602 14.2996 17.4696 14.5823 17.2495C14.865 17.0294 15.1197 16.8626 15.3457 16.7495C15.3933 16.7256 15.4736 16.6869 15.5867 16.6333C15.6997 16.5797 15.7949 16.5337 15.8722 16.4948C15.9496 16.4561 16.0435 16.407 16.1534 16.3475C16.2636 16.2879 16.3528 16.2329 16.4213 16.1823C16.4898 16.1316 16.5596 16.0737 16.6311 16.0081C16.7025 15.9427 16.7486 15.8773 16.7696 15.8118C16.7901 15.7463 16.7978 15.6793 16.7918 15.6109C16.7857 15.5426 16.7502 15.4713 16.6846 15.3968ZM11.8993 6.7678C11.9171 6.75598 11.9291 6.75148 11.935 6.75441C11.941 6.75742 11.9529 6.76936 11.9706 6.79016C11.9839 6.80551 11.9961 6.82011 12.0077 6.83387L12.0079 6.83409L12.0198 6.84826C12.0346 6.86596 12.0554 6.88988 12.0821 6.91959C12.1089 6.94939 12.1371 6.97316 12.1668 6.99101C12.2027 7.01478 12.2457 7.03126 12.2964 7.04014C12.347 7.04902 12.3857 7.0639 12.4126 7.0847C12.4395 7.10549 12.4589 7.13971 12.4705 7.18739C12.4823 7.25294 12.4723 7.31232 12.4396 7.36589C12.4066 7.41952 12.3636 7.44338 12.3099 7.43737C12.2028 7.41355 12.0867 7.31986 11.9618 7.15615C11.8369 6.99248 11.816 6.86305 11.8993 6.7678ZM10.7922 3.29944C10.8218 3.26075 10.8397 3.22951 10.8456 3.20575C10.8575 3.16991 10.859 3.13276 10.8501 3.09408C10.8412 3.0554 10.8441 3.01672 10.859 2.97803C10.8739 2.93935 10.9082 2.91702 10.9618 2.91108C11.0153 2.91108 11.0868 2.95577 11.176 3.04502C11.1938 3.05696 11.2221 3.07482 11.2606 3.09858C11.2993 3.12241 11.3261 3.14321 11.3409 3.16103C11.3558 3.17879 11.3632 3.19383 11.3632 3.20566C11.3513 3.23536 11.3246 3.25638 11.2831 3.2682C11.2416 3.28002 11.1967 3.28608 11.1492 3.28608C11.1017 3.28608 11.0747 3.28902 11.0689 3.29497C11.0212 3.31285 10.9766 3.33959 10.9349 3.37527C10.8932 3.41101 10.8605 3.43778 10.8367 3.45564C10.8127 3.47346 10.789 3.47346 10.7652 3.45564C10.7415 3.41989 10.7325 3.39459 10.7385 3.37977C10.7445 3.36495 10.7624 3.33812 10.7922 3.29944ZM6.47106 9.98208C6.51259 9.93452 6.54246 9.89584 6.56028 9.86604C6.57814 9.83624 6.59446 9.79605 6.60938 9.74552C6.62426 9.69486 6.63765 9.65762 6.64956 9.63385C6.66154 9.60993 6.67942 9.60105 6.70319 9.60699C6.71501 9.60405 6.72389 9.60993 6.73005 9.62484L6.73893 9.6472V9.674C6.73893 9.68301 6.7374 9.69483 6.73443 9.70974C6.73143 9.72475 6.72692 9.73811 6.72105 9.74993C6.71501 9.7619 6.7091 9.77979 6.70319 9.80353C6.69725 9.82729 6.69137 9.84815 6.6853 9.86597C6.66154 9.92564 6.62426 9.97908 6.57376 10.0267C6.52313 10.0743 6.48589 10.0952 6.46209 10.0892C6.42638 10.0774 6.42944 10.0415 6.47106 9.98208ZM12.3097 15.4906C12.2978 15.681 12.2576 15.9489 12.1891 16.2942C12.1207 16.6393 12.0774 16.8685 12.0595 16.9815C11.9345 16.9754 11.8632 16.9293 11.8453 16.843C11.8275 16.7566 11.8453 16.6452 11.8989 16.5082C12.0298 16.1092 12.098 15.8355 12.1041 15.6868C12.1162 15.413 12.0864 15.2582 12.0151 15.2226C11.9494 15.175 11.8483 15.2643 11.7114 15.4903C11.4493 15.9189 10.9227 16.1777 10.1311 16.2672C9.41699 16.3624 8.92297 16.2553 8.6491 15.9456C8.58959 15.9039 8.53008 15.8966 8.4706 15.9234C8.41109 15.95 8.37241 15.9784 8.35455 16.0079C8.34867 16.02 8.35455 16.0377 8.37244 16.0616C8.3903 16.0855 8.41856 16.1211 8.45725 16.1687C8.49593 16.2165 8.52717 16.264 8.55094 16.3118C8.78315 16.7164 8.76236 16.9901 8.48849 17.133C8.48849 16.8594 8.46766 16.6495 8.42604 16.5038C8.38435 16.3579 8.30111 16.1973 8.17606 16.0216C8.05113 15.8461 7.96482 15.7136 7.91726 15.6243C8.09575 15.6066 8.23119 15.5381 8.32347 15.419C8.41572 15.3 8.45734 15.172 8.44846 15.0351C8.43952 14.8982 8.38748 14.785 8.29223 14.6958C8.23866 14.6423 7.96182 14.4146 7.46189 14.0128C6.96199 13.6111 6.65244 13.3417 6.53345 13.2048C6.50953 13.181 6.4382 13.1215 6.31912 13.0262C6.20001 12.931 6.12558 12.8477 6.09587 12.7762C5.82203 12.1754 5.79233 11.6811 6.00656 11.2944L6.04224 11.2498C6.07195 11.2439 6.07495 11.2974 6.05113 11.4105C6.01544 11.5773 6.00359 11.7438 6.01544 11.9105C6.03921 12.2856 6.14638 12.5652 6.33682 12.7496C6.46187 12.8748 6.54812 12.8658 6.59577 12.7229C6.63152 12.6752 6.64784 12.4997 6.64484 12.196C6.64199 11.8926 6.6464 11.6872 6.65832 11.58C6.70597 11.2408 6.84735 10.8211 7.08241 10.3213C7.31748 9.82129 7.50357 9.55342 7.64045 9.51774C7.53328 9.34512 7.49907 9.15762 7.53778 8.95524C7.5764 8.75285 7.63901 8.58014 7.72525 8.43739C7.81147 8.29457 7.89937 8.12946 7.98856 7.94193C8.07787 7.75443 8.12249 7.58626 8.12249 7.43747C8.12249 7.39588 8.12556 7.36608 8.1315 7.34822C8.14932 7.29465 8.22375 7.3601 8.35468 7.54457C8.60466 7.91366 8.79216 8.13097 8.91718 8.19642C9.04811 8.26774 9.19387 8.26481 9.3546 8.18741C9.51527 8.11004 9.71316 7.98205 9.94831 7.80356C10.1833 7.62506 10.3842 7.49407 10.5509 7.41082C10.5689 7.40479 10.5971 7.39141 10.6359 7.37058C10.6744 7.34988 10.7042 7.3349 10.7249 7.32589C10.7456 7.31701 10.7725 7.30366 10.8053 7.28577C10.8378 7.26792 10.8631 7.25303 10.881 7.24109C10.8988 7.22911 10.9167 7.21572 10.9345 7.20084C10.9522 7.18589 10.9641 7.17113 10.9702 7.15622C10.9762 7.14133 10.9792 7.12798 10.9792 7.11603C10.9672 7.06243 10.942 7.02966 10.9032 7.01784C10.8645 7.00596 10.8125 7.01334 10.747 7.0402C10.6815 7.067 10.6085 7.10274 10.5282 7.14734C10.448 7.19196 10.3587 7.24256 10.2605 7.29912C10.1623 7.35569 10.0626 7.4077 9.96148 7.45539C9.86035 7.50304 9.75315 7.5447 9.64004 7.58044C9.52697 7.61609 9.41983 7.63701 9.31867 7.64295C9.06869 7.64892 8.86937 7.58357 8.72058 7.44657C8.62536 7.35719 8.57483 7.30069 8.56879 7.27689C8.56279 7.25316 8.58962 7.24721 8.6491 7.25904C8.97062 7.30072 9.20566 7.3066 9.35448 7.27689C9.50921 7.25316 9.7175 7.18464 9.97943 7.07153C10.0331 7.04777 10.1683 6.98967 10.3858 6.89742C10.6029 6.80529 10.7711 6.74128 10.8901 6.70554C10.9617 6.68765 11.0108 6.65941 11.0376 6.62073C11.0643 6.58205 11.0733 6.54631 11.0643 6.51353C11.0554 6.48086 11.036 6.45559 11.0064 6.43773C10.9407 6.40199 10.8813 6.42585 10.8279 6.50916C10.798 6.56272 10.7354 6.61488 10.6402 6.66542C10.5451 6.71608 10.4572 6.7547 10.3769 6.78146C10.2965 6.8082 10.1939 6.83947 10.0688 6.87515C9.94378 6.9109 9.87545 6.93172 9.86348 6.93766C9.53616 7.03879 9.23261 7.08348 8.95283 7.07153C8.82187 7.06566 8.71627 7.04624 8.63596 7.0135C8.55559 6.98085 8.50046 6.94217 8.47079 6.89745C8.44099 6.85289 8.39342 6.79632 8.32794 6.72783C8.2624 6.65935 8.18797 6.60134 8.1047 6.55365C8.04519 6.52395 8.02283 6.47038 8.03775 6.39302C8.05263 6.31565 8.09876 6.23522 8.17612 6.15192C8.18206 6.14591 8.2431 6.10879 8.35912 6.04031C8.47517 5.97183 8.55703 5.90187 8.60472 5.83045C8.65816 5.74714 8.75048 5.66077 8.88141 5.57146C8.88735 5.5477 8.89185 5.48225 8.89479 5.37511C8.89773 5.26804 8.86949 5.15196 8.80998 5.02697C8.75048 4.90192 8.67005 4.8395 8.56889 4.8395C8.42601 4.83356 8.32485 4.87518 8.26534 4.96449C8.20583 5.05368 8.17912 5.16385 8.18503 5.29478C8.19107 5.40782 8.21934 5.50745 8.26984 5.59382C8.32047 5.68019 8.36662 5.72338 8.40828 5.72338C8.4737 5.71734 8.49452 5.74108 8.47073 5.79471C8.43504 5.86025 8.38736 5.902 8.32788 5.91976C8.2861 5.93158 8.23994 5.89146 8.18944 5.79921C8.13881 5.70696 8.10016 5.59542 8.07339 5.46442C8.04666 5.33349 8.03615 5.22339 8.04219 5.13401C8.05401 4.94951 8.10307 4.77243 8.18944 4.60278C8.27581 4.43317 8.3993 4.3513 8.55994 4.35718C8.72662 4.36321 8.86064 4.46447 8.96177 4.66082C9.06306 4.8572 9.11062 5.12516 9.10468 5.46439C9.12257 5.50608 9.16866 5.52096 9.24312 5.50902C9.31739 5.49707 9.41567 5.49554 9.53766 5.50451C9.65959 5.51339 9.74737 5.5446 9.80097 5.5982C9.807 5.5982 9.80997 5.55348 9.80997 5.46427C9.70281 4.71442 9.96764 4.31562 10.6046 4.26796C10.6996 4.28585 10.78 4.30821 10.8454 4.33491C10.9111 4.36165 10.9807 4.4064 11.0552 4.46885C11.1298 4.5313 11.1921 4.62204 11.2427 4.74116C11.2933 4.86033 11.3335 5.00912 11.3633 5.18761V5.5179C11.3633 5.70834 11.3244 5.8155 11.2471 5.83933C11.1222 5.88095 11.033 5.87951 10.9795 5.83483C10.9259 5.79011 10.9317 5.71134 10.9973 5.59823C11.0567 5.44944 11.0449 5.2767 10.9615 5.08032C10.8783 4.88397 10.7264 4.79466 10.5063 4.81255C10.3574 4.81852 10.2503 4.89889 10.1848 5.05358C10.1193 5.20834 10.0956 5.36013 10.1134 5.50895C10.1313 5.65774 10.1639 5.73511 10.2117 5.74102C10.2473 5.74705 10.3531 5.79461 10.5287 5.88392C10.7045 5.9732 10.8369 6.02674 10.926 6.04459C11.1581 6.09213 11.2904 6.16655 11.3232 6.26778C11.356 6.36906 11.3426 6.51632 11.2831 6.70973C11.2235 6.90326 11.2057 7.06234 11.2297 7.18739C11.2535 7.31848 11.2982 7.43737 11.3637 7.54451C11.4292 7.65174 11.499 7.74987 11.5734 7.83921C11.6478 7.9283 11.7355 8.0951 11.8369 8.33907C11.9379 8.58318 12.0302 8.88966 12.1134 9.25869C12.1193 9.26463 12.1416 9.28546 12.1803 9.3212C12.2191 9.35688 12.2576 9.40151 12.2965 9.45507C12.3353 9.50867 12.3813 9.58156 12.4349 9.67381C12.4885 9.76613 12.5467 9.90153 12.6091 10.0802C12.6714 10.2586 12.7297 10.4641 12.7831 10.6961C12.8486 10.9701 12.8829 11.2882 12.8859 11.6516C12.8889 12.0145 12.9126 12.2631 12.9573 12.397C13.0021 12.5311 13.1166 12.5861 13.3011 12.5623C13.5332 12.5504 13.6822 12.4254 13.7473 12.1873C13.9438 11.4968 13.7833 10.6694 13.2654 9.7053C13.0689 9.3303 12.8994 9.08326 12.7564 8.96427C12.9647 9.08329 13.179 9.30641 13.3994 9.63388C13.6196 9.96129 13.7594 10.2679 13.8189 10.5534C13.8246 10.5833 13.8411 10.6622 13.8679 10.79C13.8946 10.918 13.9096 10.9925 13.9124 11.0132C13.9153 11.0341 13.9274 11.0951 13.948 11.1963C13.969 11.2975 13.9793 11.363 13.9793 11.3927C13.9793 11.4226 13.9822 11.4806 13.9883 11.5668C13.9944 11.6531 13.9928 11.7201 13.9838 11.7677C13.9748 11.8154 13.966 11.8794 13.957 11.9596C13.948 12.0399 13.9332 12.1173 13.9124 12.1918C13.8918 12.2662 13.8695 12.3482 13.8456 12.4373C14.1728 12.5802 14.3366 12.7051 14.3366 12.8123C14.2117 12.7111 14.033 12.6442 13.8008 12.6118C13.5685 12.5789 13.353 12.6101 13.1535 12.7054C12.9541 12.8006 12.8513 12.9583 12.8453 13.1784C12.6311 13.1784 12.4792 13.2319 12.3901 13.3392C12.2592 13.4939 12.1908 13.7036 12.1849 13.9686C12.1789 14.2333 12.201 14.5222 12.2516 14.8344C12.3025 15.1469 12.3217 15.3655 12.3097 15.4906ZM8.56904 5.14289C8.55115 5.13702 8.5363 5.11903 8.52448 5.08933C8.52448 5.03589 8.55119 5.0149 8.60478 5.02688C8.64053 5.0387 8.67483 5.08339 8.70748 5.16075C8.74022 5.23811 8.74766 5.32742 8.72984 5.42862C8.72984 5.44647 8.72096 5.45548 8.70298 5.45532C8.63743 5.45532 8.61367 5.39585 8.63155 5.27683C8.64935 5.18755 8.62852 5.14289 8.56904 5.14289ZM10.8814 5.28583L10.8637 5.31257C10.8161 5.34228 10.7925 5.34825 10.7925 5.33046C10.7685 5.16966 10.715 5.07741 10.6317 5.05358L10.596 5.03576C10.5543 5.00002 10.575 4.97919 10.6583 4.97325C10.6761 4.96728 10.7029 4.97616 10.7386 4.99999C10.7744 5.02385 10.8071 5.06106 10.8369 5.11165C10.8665 5.16231 10.8814 5.22026 10.8814 5.28583ZM8.80127 5.80352C8.80127 5.83927 8.81625 5.85415 8.84602 5.84824C8.86978 5.84824 8.89496 5.81994 8.92182 5.7634C8.94862 5.70699 8.99481 5.67575 9.06019 5.66971V5.66962H8.97088C8.85784 5.68747 8.80127 5.7321 8.80127 5.80352ZM9.73418 5.73667C9.68955 5.69205 9.63739 5.67854 9.57788 5.69643C9.72079 5.63097 9.81599 5.63692 9.86358 5.71431C9.88144 5.74999 9.87246 5.77686 9.83688 5.79462C9.81305 5.80065 9.77874 5.78123 9.73418 5.73667Z" fill="black"/>
</svg>
