<svg width="24" height="24" viewBox="0 0 24 24" fill="none" xmlns="http://www.w3.org/2000/svg">
<path fill-rule="evenodd" clip-rule="evenodd" d="M7.97409 4.7998C7.63203 4.7998 7.35473 5.0771 7.35473 5.41916C7.35473 5.76122 7.63203 6.03852 7.97409 6.03852H20.9805C21.3226 6.03852 21.5999 5.76122 21.5999 5.41916C21.5999 5.0771 21.3226 4.7998 20.9805 4.7998H7.97409ZM7.97409 10.9933C7.63203 10.9933 7.35473 11.2706 7.35473 11.6127C7.35473 11.9548 7.63203 12.2321 7.97409 12.2321H20.9805C21.3226 12.2321 21.5999 11.9548 21.5999 11.6127C21.5999 11.2706 21.3226 10.9933 20.9805 10.9933H7.97409ZM7.35473 17.8062C7.35473 17.4642 7.63203 17.1869 7.97409 17.1869H20.9805C21.3226 17.1869 21.5999 17.4642 21.5999 17.8062C21.5999 18.1483 21.3226 18.4256 20.9805 18.4256H7.97409C7.63203 18.4256 7.35473 18.1483 7.35473 17.8062ZM3.32894 6.65787C3.84203 6.65787 4.25797 6.24193 4.25797 5.72884C4.25797 5.21575 3.84203 4.79981 3.32894 4.79981C2.81584 4.79981 2.3999 5.21575 2.3999 5.72884C2.3999 6.24193 2.81584 6.65787 3.32894 6.65787ZM4.25797 11.9224C4.25797 12.4355 3.84203 12.8514 3.32894 12.8514C2.81584 12.8514 2.3999 12.4355 2.3999 11.9224C2.3999 11.4093 2.81584 10.9933 3.32894 10.9933C3.84203 10.9933 4.25797 11.4093 4.25797 11.9224ZM3.32894 19.0449C3.84203 19.0449 4.25797 18.629 4.25797 18.1159C4.25797 17.6028 3.84203 17.1869 3.32894 17.1869C2.81584 17.1869 2.3999 17.6028 2.3999 18.1159C2.3999 18.629 2.81584 19.0449 3.32894 19.0449Z" fill="#898989"/>
</svg>
