<svg width="24" height="24" viewBox="0 0 24 24" fill="none" xmlns="http://www.w3.org/2000/svg">
<path fill-rule="evenodd" clip-rule="evenodd" d="M3.75 9.75C3.75 5.2972 7.5472 1.5 12 1.5C16.4528 1.5 20.25 5.2972 20.25 9.75C20.25 11.879 18.9052 14.6221 16.2271 18.0316L15.8045 18.5614C15.7324 18.6506 15.6593 18.7402 15.5854 18.8302L15.1313 19.3759L14.6562 19.9322L14.1601 20.4991L13.643 21.0767C13.5551 21.1739 13.4663 21.2715 13.3766 21.3696L12.8281 21.9633L12.5459 22.2643C12.2498 22.5786 11.7502 22.5786 11.4541 22.2643C11.2642 22.0627 11.0779 21.863 10.895 21.6651L10.357 21.0767L9.83987 20.4991L9.34377 19.9322L8.86868 19.3759L8.41461 18.8302C8.34068 18.7402 8.26763 18.6506 8.19546 18.5614L7.77292 18.0316C5.09482 14.6221 3.75 11.879 3.75 9.75ZM18.75 9.75C18.75 6.12563 15.6244 3 12 3C8.37563 3 5.25 6.12563 5.25 9.75C5.25 11.4859 6.47894 13.9516 8.9479 17.0967L9.35914 17.6127C9.42949 17.6997 9.50075 17.7872 9.57292 17.8752L10.0168 18.4089C10.0926 18.4989 10.1693 18.5893 10.2469 18.6802L10.7234 19.2317L11.2217 19.7948L11.7418 20.3696L12 20.6497L12.5266 20.0745L13.0464 19.4934L13.5434 18.9246L14.0177 18.368C14.0948 18.2762 14.1711 18.185 14.2463 18.0943L14.6865 17.5562C14.8295 17.3788 14.9687 17.2036 15.1041 17.0304L15.4989 16.5172C15.7545 16.1791 15.9951 15.8494 16.2205 15.5281L16.5473 15.0525C17.967 12.9404 18.6989 11.2125 18.7474 9.88947L18.75 9.75Z" fill="white"/>
<path fill-rule="evenodd" clip-rule="evenodd" d="M7.5 9.75C7.5 7.26472 9.51472 5.25 12 5.25C14.4853 5.25 16.5 7.26472 16.5 9.75C16.5 12.2353 14.4853 14.25 12 14.25C9.51472 14.25 7.5 12.2353 7.5 9.75ZM15 9.75C15 8.09315 13.6569 6.75 12 6.75C10.3431 6.75 9 8.09315 9 9.75C9 11.4069 10.3431 12.75 12 12.75C13.6569 12.75 15 11.4069 15 9.75Z" fill="white"/>
</svg>
