<svg width="24" height="24" viewBox="0 0 24 24" fill="none" xmlns="http://www.w3.org/2000/svg">
<path fill-rule="evenodd" clip-rule="evenodd" d="M4.5 9.25C4.5 5.56694 7.6996 2.5 11.75 2.5C15.8004 2.5 19 5.56694 19 9.25C19 11.5673 17.8505 13.8748 16.2462 16.119C15.1988 17.5843 14.0244 18.9393 12.9102 20.2249L12.9101 20.2249C12.5142 20.6818 12.1258 21.1299 11.7535 21.571C11.3579 21.0978 10.9371 20.6099 10.5088 20.1132C10.2854 19.8542 10.0599 19.5928 9.83493 19.3298C8.95086 18.2965 8.05935 17.2234 7.26163 16.1117C5.65418 13.8716 4.5 11.5715 4.5 9.25ZM11.75 1C6.96384 1 3 4.64879 3 9.25C3 12.0515 4.38219 14.6719 6.04293 16.9862C6.8793 18.1518 7.80485 19.2644 8.6952 20.305C8.93025 20.5797 9.16193 20.8483 9.38885 21.1115L9.38895 21.1116C10.0293 21.8542 10.6316 22.5526 11.1643 23.2185C11.3061 23.3957 11.5203 23.4991 11.7472 23.5C11.9741 23.5008 12.1891 23.399 12.3321 23.2229C12.8151 22.6283 13.375 21.9816 13.9683 21.2961L13.9684 21.296C15.114 19.9726 16.3844 18.5051 17.4665 16.9913C19.1247 14.6717 20.5 12.0451 20.5 9.25C20.5 4.64879 16.5362 1 11.75 1ZM15.25 9.75C15.25 11.683 13.683 13.25 11.75 13.25C9.817 13.25 8.25 11.683 8.25 9.75C8.25 7.817 9.817 6.25 11.75 6.25C13.683 6.25 15.25 7.817 15.25 9.75ZM16.75 9.75C16.75 12.5114 14.5114 14.75 11.75 14.75C8.98858 14.75 6.75 12.5114 6.75 9.75C6.75 6.98858 8.98858 4.75 11.75 4.75C14.5114 4.75 16.75 6.98858 16.75 9.75Z" fill="#161721"/>
</svg>
