<svg width="24" height="24" viewBox="0 0 24 24" fill="none" xmlns="http://www.w3.org/2000/svg">
<path fill-rule="evenodd" clip-rule="evenodd" d="M12 3.52002C9.57418 3.52002 7.59998 5.49423 7.59998 7.92002V10.21H16.4V7.92002C16.4 5.49423 14.4258 3.52002 12 3.52002ZM6.09998 7.92002V10.296C4.33039 10.6734 3.01001 12.247 3.01001 14.12V18.11C3.01001 20.2742 4.7558 22.02 6.92001 22.02H17.09C19.2558 22.02 21 20.2626 21 18.11V14.12C21 12.2334 19.6666 10.6667 17.9 10.2941V7.92002C17.9 4.66581 15.2542 2.02002 12 2.02002C8.74575 2.02002 6.09998 4.66581 6.09998 7.92002ZM4.51001 14.12C4.51001 12.8452 5.50225 11.7961 6.76275 11.715C6.79137 11.7183 6.82047 11.72 6.84998 11.72H17.15C17.1806 11.72 17.2109 11.7182 17.2406 11.7146C18.4983 11.7923 19.5 12.8366 19.5 14.12V18.11C19.5 19.4373 18.4242 20.52 17.09 20.52H6.92001C5.58422 20.52 4.51001 19.4457 4.51001 18.11V14.12ZM12.75 16.7047C13.3583 16.4217 13.78 15.8051 13.78 15.09C13.78 14.1069 12.983 13.31 12 13.31C11.0169 13.31 10.22 14.1069 10.22 15.09C10.22 15.8051 10.6417 16.4218 11.25 16.7048V18.18C11.25 18.5942 11.5858 18.93 12 18.93C12.4142 18.93 12.75 18.5942 12.75 18.18V16.7047Z" fill="#161721"/>
</svg>
