<svg width="32" height="32" viewBox="0 0 32 32" fill="none" xmlns="http://www.w3.org/2000/svg">
<path fill-rule="evenodd" clip-rule="evenodd" d="M16 5.33341C14.8685 5.33341 13.8216 5.71009 13.0824 6.32612C12.3502 6.93625 12 7.70602 12 8.44452V13.3334H9.33337V8.44452C9.33337 6.82555 10.107 5.3344 11.3752 4.27753C12.6364 3.22658 14.3026 2.66675 16 2.66675C17.6975 2.66675 19.3637 3.22658 20.6249 4.27753C21.8931 5.3344 22.6667 6.82555 22.6667 8.44452V13.3334H20V8.44452C20 7.70602 19.6498 6.93625 18.9177 6.32612C18.1784 5.71009 17.1315 5.33341 16 5.33341ZM17.8666 20.7997C17.8666 21.6834 17.1503 22.3997 16.2666 22.3997C15.383 22.3997 14.6666 21.6834 14.6666 20.7997C14.6666 19.9161 15.383 19.1997 16.2666 19.1997C17.1503 19.1997 17.8666 19.9161 17.8666 20.7997ZM8.00003 14.9337H24C24.5891 14.9337 25.0667 15.4112 25.0667 16.0003V26.667C25.0667 27.2561 24.5891 27.7337 24 27.7337H8.00003C7.41093 27.7337 6.93337 27.2561 6.93337 26.667V16.0003C6.93337 15.4112 7.41093 14.9337 8.00003 14.9337ZM5.33337 16.0003C5.33337 14.5276 6.52727 13.3337 8.00003 13.3337H24C25.4728 13.3337 26.6667 14.5276 26.6667 16.0003V26.667C26.6667 28.1398 25.4728 29.3337 24 29.3337H8.00003C6.52727 29.3337 5.33337 28.1398 5.33337 26.667V16.0003Z" fill="white"/>
</svg>