<svg width="20" height="20" viewBox="0 0 20 20" fill="none" xmlns="http://www.w3.org/2000/svg">
<path fill-rule="evenodd" clip-rule="evenodd" d="M16.8149 10.0823H2.39995C2.28949 10.0823 2.19995 9.99276 2.19995 9.8823V9.64692C2.19995 9.53646 2.28949 9.44692 2.39995 9.44692H16.9317L14.5003 7.3686C14.4163 7.29683 14.4064 7.17059 14.4782 7.08662L14.6311 6.9077C14.7029 6.82374 14.8292 6.81385 14.9131 6.88562L18.0262 9.54659C18.1182 9.62523 18.1198 9.76691 18.0296 9.84763L14.9156 12.6354C14.8333 12.709 14.7068 12.702 14.6332 12.6198L14.4762 12.4444C14.4025 12.3621 14.4095 12.2356 14.4918 12.162L16.8149 10.0823Z" fill="#0C2739"/>
</svg>
