<svg width="24" height="24" viewBox="0 0 24 24" fill="none" xmlns="http://www.w3.org/2000/svg">
<path fill-rule="evenodd" clip-rule="evenodd" d="M17.3207 2.25C17.6144 2.25 17.8811 2.42144 18.0031 2.68865L18.8268 4.49392L20.6321 5.31768C20.8993 5.43961 21.0707 5.70629 21.0707 6C21.0707 6.29371 20.8993 6.56039 20.6321 6.68232L18.8268 7.50608L18.0031 9.31135C17.8811 9.57856 17.6144 9.75 17.3207 9.75C17.027 9.75 16.7603 9.57856 16.6384 9.31135L15.8147 7.50608L14.0094 6.68232C13.7422 6.56039 13.5707 6.29371 13.5707 6C13.5707 5.70629 13.7422 5.43961 14.0094 5.31768L15.8147 4.49392L16.6384 2.68865C16.7603 2.42144 17.027 2.25 17.3207 2.25ZM17.3207 4.80665L17.0631 5.37135C16.9881 5.53563 16.8564 5.66736 16.6921 5.74232L16.1274 6L16.6921 6.25768C16.8564 6.33264 16.9881 6.46437 17.0631 6.62865L17.3207 7.19335L17.5784 6.62865C17.6534 6.46437 17.7851 6.33264 17.9494 6.25768L18.5141 6L17.9494 5.74232C17.7851 5.66736 17.6534 5.53563 17.5784 5.37135L17.3207 4.80665Z" fill="#161721"/>
<path fill-rule="evenodd" clip-rule="evenodd" d="M9.11318 5.87262C9.40689 5.87262 9.67357 6.04406 9.7955 6.31127L11.5947 10.2543L15.5377 12.0535C15.8049 12.1754 15.9764 12.4421 15.9764 12.7358C15.9764 13.0295 15.8049 13.2962 15.5377 13.4181L11.5947 15.2174L9.7955 19.1604C9.67357 19.4276 9.40689 19.599 9.11318 19.599C8.81947 19.599 8.55279 19.4276 8.43086 19.1604L6.63162 15.2174L2.68862 13.4181C2.42141 13.2962 2.24997 13.0295 2.24997 12.7358C2.24997 12.4421 2.42141 12.1754 2.68862 12.0535L6.63162 10.2543L8.43086 6.31127C8.55279 6.04406 8.81947 5.87262 9.11318 5.87262ZM9.11318 8.42927L7.88003 11.1317C7.80506 11.296 7.67334 11.4277 7.50906 11.5027L4.80662 12.7358L7.50906 13.969C7.67334 14.0439 7.80506 14.1757 7.88003 14.34L9.11318 17.0424L10.3463 14.34C10.4213 14.1757 10.553 14.0439 10.7173 13.969L13.4197 12.7358L10.7173 11.5027C10.553 11.4277 10.4213 11.296 10.3463 11.1317L9.11318 8.42927Z" fill="#161721"/>
<path fill-rule="evenodd" clip-rule="evenodd" d="M17.7736 14.9293C18.0673 14.9293 18.334 15.1007 18.4559 15.3679L19.2796 17.1732L21.0849 17.9969C21.3521 18.1189 21.5236 18.3855 21.5236 18.6793C21.5236 18.973 21.3521 19.2397 21.0849 19.3616L19.2796 20.1853L18.4559 21.9906C18.334 22.2578 18.0673 22.4293 17.7736 22.4293C17.4798 22.4293 17.2132 22.2578 17.0912 21.9906L16.2675 20.1853L14.4622 19.3616C14.195 19.2397 14.0236 18.973 14.0236 18.6793C14.0236 18.3855 14.195 18.1189 14.4622 17.9969L16.2675 17.1732L17.0912 15.3679C17.2132 15.1007 17.4798 14.9293 17.7736 14.9293ZM17.7736 17.4859L17.5159 18.0506C17.4409 18.2149 17.3092 18.3466 17.1449 18.4216L16.5802 18.6793L17.1449 18.9369C17.3092 19.0119 17.4409 19.1436 17.5159 19.3079L17.7736 19.8726L18.0312 19.3079C18.1062 19.1436 18.2379 19.0119 18.4022 18.9369L18.9669 18.6793L18.4022 18.4216C18.2379 18.3466 18.1062 18.2149 18.0312 18.0506L17.7736 17.4859Z" fill="#161721"/>
</svg>
