<svg width="24" height="24" viewBox="0 0 24 24" fill="none" xmlns="http://www.w3.org/2000/svg">
<path d="M16.8659 8.00314C17.0438 8.39305 17.5977 8.39305 17.7756 8.00314L18.1832 7.10982C18.2332 7.0003 18.321 6.91248 18.4306 6.86251L19.3239 6.45488C19.7138 6.27696 19.7138 5.72304 19.3239 5.54512L18.4306 5.13749C18.321 5.08752 18.2332 4.9997 18.1832 4.89018L17.7756 3.99686C17.5977 3.60695 17.0438 3.60695 16.8659 3.99686L16.4582 4.89018C16.4083 4.9997 16.3204 5.08752 16.2109 5.13749L15.3176 5.54512C14.9277 5.72304 14.9277 6.27696 15.3176 6.45488L16.2109 6.86251C16.3204 6.91248 16.4083 7.0003 16.4582 7.10982L16.8659 8.00314Z" fill="#0C2739"/>
<path d="M8.6583 17.8522C8.83622 18.2421 9.39014 18.2421 9.56806 17.8522L10.9512 14.8211C11.0011 14.7116 11.0889 14.6238 11.1985 14.5738L14.2295 13.1907C14.6194 13.0128 14.6194 12.4589 14.2295 12.2809L11.1985 10.8978C11.0889 10.8479 11.0011 10.7601 10.9512 10.6505L9.56806 7.61949C9.39014 7.22957 8.83622 7.22957 8.6583 7.61949L7.2752 10.6505C7.22522 10.7601 7.13741 10.8479 7.02788 10.8978L3.99683 12.2809C3.60692 12.4589 3.60692 13.0128 3.99683 13.1907L7.02788 14.5738C7.13741 14.6238 7.22522 14.7116 7.2752 14.8211L8.6583 17.8522Z" fill="#0C2739"/>
<path d="M18.2284 16.6761C18.0505 16.2862 17.4966 16.2862 17.3187 16.6761L16.911 17.5694C16.8611 17.679 16.7733 17.7668 16.6637 17.8168L15.7704 18.2244C15.3805 18.4023 15.3805 18.9562 15.7704 19.1341L16.6637 19.5418C16.7733 19.5917 16.8611 19.6796 16.9111 19.7891L17.3187 20.6824C17.4966 21.0723 18.0505 21.0723 18.2284 20.6824L18.6361 19.7891C18.686 19.6796 18.7739 19.5917 18.8834 19.5418L19.7767 19.1341C20.1666 18.9562 20.1666 18.4023 19.7767 18.2244L18.8834 17.8168C18.7739 17.7668 18.686 17.679 18.6361 17.5694L18.2284 16.6761Z" fill="#0C2739"/>
</svg>
