<svg width="24" height="24" viewBox="0 0 24 24" fill="none" xmlns="http://www.w3.org/2000/svg">
<path d="M22 11.2996C21.6195 11.2996 21.2438 11.2693 20.8727 11.2238C18.8342 10.981 16.9178 10.086 15.4476 8.62453C15.4241 8.59924 15.4007 8.57902 15.3772 8.55373C13.6534 6.81416 12.7046 4.45259 12.7046 2H11.2954C11.2954 4.44754 10.3466 6.81416 8.62283 8.55373C8.59934 8.57902 8.57586 8.59924 8.55237 8.62453C6.81447 10.3489 4.45186 11.2946 2 11.2946V12.7054C4.44716 12.7054 6.81447 13.6511 8.55237 15.3755C8.57586 15.4008 8.59934 15.421 8.62283 15.4463C10.3466 17.1858 11.2954 19.5474 11.2954 22H12.7046C12.7046 19.5525 13.6534 17.1858 15.3772 15.4463C15.4007 15.421 15.4241 15.4008 15.4476 15.3755C16.9178 13.9191 18.8342 13.024 20.8727 12.7813C21.2438 12.7358 21.6195 12.7054 22 12.7054V11.2946V11.2996Z" fill="#161721"/>
</svg>
