<svg width="24" height="24" viewBox="0 0 24 24" fill="none" xmlns="http://www.w3.org/2000/svg">
<path d="M12 8C12 7.58579 12.3358 7.25 12.75 7.25H17.75C18.1642 7.25 18.5 7.58579 18.5 8C18.5 8.41421 18.1642 8.75 17.75 8.75H12.75C12.3358 8.75 12 8.41421 12 8Z" fill="black"/>
<path d="M12 12C12 11.5858 12.3358 11.25 12.75 11.25H17.75C18.1642 11.25 18.5 11.5858 18.5 12C18.5 12.4142 18.1642 12.75 17.75 12.75H12.75C12.3358 12.75 12 12.4142 12 12Z" fill="black"/>
<path d="M12.75 15.25C12.3358 15.25 12 15.5858 12 16C12 16.4142 12.3358 16.75 12.75 16.75H17.75C18.1642 16.75 18.5 16.4142 18.5 16C18.5 15.5858 18.1642 15.25 17.75 15.25H12.75Z" fill="black"/>
<circle cx="21" cy="4" r="3" fill="#161721"/>
<path fill-rule="evenodd" clip-rule="evenodd" d="M17.5351 2H4.38001C2.79579 2 1.5 3.29578 1.5 4.88V19.12C1.5 20.7042 2.79579 22 4.38 22H19.54C21.1242 22 22.42 20.7042 22.42 19.12V7.74062C21.9787 7.90823 21.5001 8 21 8C20.9733 8 20.9466 7.99974 20.92 7.99922V19.12C20.92 19.8758 20.2958 20.5 19.54 20.5H9.11002V3.5L17.0309 3.5C17.0984 2.95903 17.2739 2.45161 17.5351 2ZM7.61002 3.5H4.38001C3.62422 3.5 3 4.12422 3 4.88L3 19.12C3 19.8758 3.62422 20.5 4.38 20.5H7.61002V3.5Z" fill="#161721"/>
</svg>
