<svg width="24" height="24" viewBox="0 0 24 24" fill="none" xmlns="http://www.w3.org/2000/svg">
<path fill-rule="evenodd" clip-rule="evenodd" d="M20.92 4.88C20.92 4.12422 20.2958 3.5 19.54 3.5L9.11002 3.5V20.5H19.54C20.2958 20.5 20.92 19.8758 20.92 19.12V4.88ZM19.54 2L4.38001 2C2.79579 2 1.5 3.29578 1.5 4.88L1.5 19.12C1.5 20.7042 2.79579 22 4.38 22H19.54C21.1242 22 22.42 20.7042 22.42 19.12V4.88C22.42 3.29579 21.1242 2 19.54 2ZM4.38001 3.5H7.61002V20.5H4.38C3.62422 20.5 3 19.8758 3 19.12L3 4.88C3 4.12422 3.62422 3.5 4.38001 3.5Z" fill="#161721"/>
<path d="M12.7197 8.28033L16.1893 11.75L12.7197 15.2197C12.4268 15.5126 12.4268 15.9874 12.7197 16.2803C13.0126 16.5732 13.4874 16.5732 13.7803 16.2803L17.7803 12.2803C17.8169 12.2437 17.849 12.2043 17.8764 12.1627C18.0686 11.8716 18.0366 11.476 17.7803 11.2197L13.7803 7.21967C13.4874 6.92678 13.0126 6.92678 12.7197 7.21967C12.4268 7.51256 12.4268 7.98744 12.7197 8.28033Z" fill="#161721"/>
</svg>
