<svg width="24" height="24" viewBox="0 0 24 24" fill="none" xmlns="http://www.w3.org/2000/svg">
<path fill-rule="evenodd" clip-rule="evenodd" d="M4.84 3.51001C3.55421 3.51001 2.51001 4.55421 2.51001 5.84V18.17C2.51001 19.4558 3.55421 20.5 4.84 20.5H19.17C20.4558 20.5 21.5 19.4558 21.5 18.17V5.84C21.5 4.55421 20.4558 3.51001 19.17 3.51001H4.84ZM1.01001 5.84C1.01001 3.72578 2.72578 2.01001 4.84 2.01001H19.17C21.2842 2.01001 23 3.72578 23 5.84V18.17C23 20.2842 21.2842 22 19.17 22H4.84C2.72578 22 1.01001 20.2842 1.01001 18.17V5.84ZM16.25 7C16.6642 7 17 7.33579 17 7.75V14.3794L18.1597 13.2197C18.4526 12.9268 18.9275 12.9268 19.2204 13.2197C19.5133 13.5126 19.5133 13.9874 19.2204 14.2803L16.7504 16.7503C16.6468 16.8539 16.5205 16.9208 16.3876 16.9512C16.2855 16.9744 16.1795 16.9761 16.0768 16.9563C15.935 16.9288 15.7995 16.8602 15.6897 16.7503L13.2197 14.2803C12.9268 13.9874 12.9268 13.5126 13.2197 13.2197C13.5126 12.9268 13.9874 12.9268 14.2803 13.2197L15.5 14.4393V7.75C15.5 7.33579 15.8358 7 16.25 7ZM6.69416 7.71604C6.55845 7.3843 6.20698 7.19495 5.85529 7.26411C5.5036 7.33326 5.25 7.64159 5.25 8.00001V16C5.25 16.4142 5.58579 16.75 6 16.75C6.41421 16.75 6.75 16.4142 6.75 16V11.8142L7.55584 13.784C7.67115 14.0659 7.94546 14.25 8.25 14.25C8.55454 14.25 8.82885 14.0659 8.94416 13.784L9.75 11.8142V16C9.75 16.4142 10.0858 16.75 10.5 16.75C10.9142 16.75 11.25 16.4142 11.25 16V8.00001C11.25 7.64159 10.9964 7.33326 10.6447 7.26411C10.293 7.19495 9.94155 7.3843 9.80584 7.71604L8.25 11.5192L6.69416 7.71604Z" fill="#161721"/>
</svg>
