<svg width="24" height="24" viewBox="0 0 24 24" fill="none" xmlns="http://www.w3.org/2000/svg">
<path fill-rule="evenodd" clip-rule="evenodd" d="M4 3C1.79086 3 0 4.79086 0 7V17C0 19.2091 1.79086 21 4 21H20C22.2091 21 24 19.2091 24 17V7C24 4.79086 22.2091 3 20 3H4ZM6.3418 8H5V16.5312H6.05469V13.127L5.9668 9.6875L7.41406 14.1582H8.03516L9.61133 9.56445L9.52344 13.127V16.5312H10.5781V8H9.23047L7.73047 12.2656L6.3418 8ZM15.1329 8.13123C15.3538 8.13123 15.5329 8.31031 15.5329 8.53123L15.5329 14.5655L17.8501 12.2484C18.0063 12.0922 18.2595 12.0922 18.4158 12.2484C18.572 12.4046 18.572 12.6579 18.4158 12.8141L15.4158 15.8141C15.3407 15.8891 15.239 15.9312 15.1329 15.9312C15.0268 15.9312 14.9251 15.8891 14.8501 15.8141L11.8501 12.8141C11.6939 12.6579 11.6939 12.4046 11.8501 12.2484C12.0063 12.0922 12.2595 12.0922 12.4158 12.2484L14.7329 14.5655V8.53123C14.7329 8.31031 14.912 8.13123 15.1329 8.13123Z" fill="#0C2739"/>
</svg>
