<svg width="24" height="24" viewBox="0 0 24 24" fill="none" xmlns="http://www.w3.org/2000/svg">
<path fill-rule="evenodd" clip-rule="evenodd" d="M1.5 12C1.5 6.20086 6.20086 1.5 12 1.5C17.7991 1.5 22.5 6.20086 22.5 12C22.5 12.58 22.3301 13.4389 21.8058 14.1672C21.2631 14.9209 20.363 15.5 19 15.5C17.637 15.5 16.7369 14.9209 16.1942 14.1672C16.1443 14.0978 16.0976 14.0272 16.0539 13.9558C15.3262 15.4614 13.7844 16.5 12 16.5C9.51472 16.5 7.5 14.4853 7.5 12C7.5 9.51472 9.51472 7.5 12 7.5C13.4136 7.5 14.675 8.15183 15.5 9.17133V8C15.5 7.72386 15.7239 7.5 16 7.5C16.2761 7.5 16.5 7.72386 16.5 8V12C16.5 12.42 16.6301 13.0611 17.0058 13.5828C17.3631 14.0791 17.963 14.5 19 14.5C20.037 14.5 20.6369 14.0791 20.9942 13.5828C21.3699 13.0611 21.5 12.42 21.5 12C21.5 6.75314 17.2469 2.5 12 2.5C6.75314 2.5 2.5 6.75314 2.5 12C2.5 17.2469 6.75314 21.5 12 21.5C14.14 21.5 16.1133 20.7934 17.7006 19.6003C17.9213 19.4344 18.2348 19.4788 18.4007 19.6996C18.5666 19.9203 18.5222 20.2338 18.3014 20.3997C16.5467 21.7186 14.364 22.5 12 22.5C6.20086 22.5 1.5 17.7991 1.5 12ZM15.5 12C15.5 10.067 13.933 8.5 12 8.5C10.067 8.5 8.5 10.067 8.5 12C8.5 13.933 10.067 15.5 12 15.5C13.933 15.5 15.5 13.933 15.5 12Z" fill="black"/>
</svg>
