<svg width="24" height="24" viewBox="0 0 24 24" fill="none" xmlns="http://www.w3.org/2000/svg">
<path fill-rule="evenodd" clip-rule="evenodd" d="M12 21C15.5182 21 18.5648 18.9813 20.0449 16.0391C19.6721 16.1733 19.25 16.25 18.775 16.25C17.2854 16.25 16.3164 15.4959 15.7553 14.579C15.7447 14.5617 15.7343 14.5444 15.724 14.527C14.9144 15.7178 13.5485 16.5 12 16.5C9.51472 16.5 7.5 14.4853 7.5 12C7.5 9.51472 9.51472 7.5 12 7.5C13.1768 7.5 14.2481 7.95173 15.05 8.69126V8.5C15.05 8.08579 15.3858 7.75 15.8 7.75C16.2142 7.75 16.55 8.08579 16.55 8.5V12C16.55 12.4854 16.679 13.2148 17.0347 13.796C17.366 14.3374 17.8846 14.75 18.775 14.75C19.6654 14.75 20.1839 14.3374 20.5153 13.796C20.871 13.2148 21 12.4854 21 12C21 11.9987 21 11.9973 21 11.996C20.9978 7.02726 16.9692 3 12 3C7.02944 3 3 7.02944 3 12C3 16.9706 7.02944 21 12 21ZM22.5 12C22.5 6.20101 17.799 1.5 12 1.5C6.20101 1.5 1.5 6.20101 1.5 12C1.5 17.799 6.20101 22.5 12 22.5C17.799 22.5 22.5 17.799 22.5 12ZM12 15C13.6569 15 15 13.6569 15 12C15 10.3431 13.6569 9 12 9C10.3431 9 9 10.3431 9 12C9 13.6569 10.3431 15 12 15Z" fill="#161721"/>
</svg>
