<svg width="16" height="16" viewBox="0 0 16 16" fill="none" xmlns="http://www.w3.org/2000/svg">
<path d="M4 11.3668C4.76075 11.5212 5.33333 12.1938 5.33333 13.0001C5.33333 13.9206 4.58714 14.6668 3.66667 14.6668C2.74619 14.6668 2 13.9206 2 13.0001C2 12.1938 2.57259 11.5212 3.33333 11.3668V5.30012C2.57259 5.14569 2 4.47311 2 3.66679C2 2.74631 2.74619 2.00012 3.66667 2.00012C4.58714 2.00012 5.33333 2.74631 5.33333 3.66679C5.33333 4.47311 4.76075 5.14569 4 5.30012V11.3668Z" fill="#0C2739"/>
<path d="M12.1667 9.66667C12.1667 10.311 11.6444 10.8333 11 10.8333C10.3557 10.8333 9.83337 10.311 9.83337 9.66667C9.83337 9.02233 10.3557 8.5 11 8.5C11.6444 8.5 12.1667 9.02233 12.1667 9.66667Z" fill="#0C2739" stroke="#0C2739"/>
<path d="M4.13334 5.15388C4.03421 4.89615 3.74491 4.76757 3.48718 4.8667C3.22944 4.96583 3.10086 5.25513 3.19999 5.51286L4.13334 5.15388ZM10 10.1667C10.2761 10.1667 10.5 9.94285 10.5 9.66671C10.5 9.39056 10.2761 9.16671 10 9.16671V10.1667ZM3.19999 5.51286L3.78972 7.04616L4.72307 6.68718L4.13334 5.15388L3.19999 5.51286ZM8.33333 10.1667H10V9.16671H8.33333V10.1667ZM3.78972 7.04616C4.51281 8.92618 6.31906 10.1667 8.33333 10.1667V9.16671C6.73283 9.16671 5.29762 8.18101 4.72307 6.68718L3.78972 7.04616Z" fill="#0C2739"/>
</svg>
