<svg width="12" height="16" viewBox="0 0 12 16" fill="none" xmlns="http://www.w3.org/2000/svg">
<path d="M11.7295 12.5048C10.8611 12.8861 10.9323 13.7766 9.94584 15.0058C9.00766 16.1749 7.39481 16.3339 5.86116 15.3712C5.39262 15.0771 4.21575 14.746 3.65284 13.678C3.11341 12.6544 2.76878 10.2726 3.12603 8.9411C3.29975 8.2936 3.83462 7.74666 4.51166 7.40663C5.16091 7.08054 5.65909 6.87622 4.95187 5.71069C4.95187 5.71069 4.38384 6.01382 4.29744 6.31082C4.17634 6.72707 2.72025 7.77826 2.60612 7.94947C2.25106 8.48207 1.75328 8.64279 1.50212 8.77951C1.46159 8.55947 2.05803 8.25257 1.79744 8.18888C1.53684 8.12519 0.805562 8.51247 0.743531 8.34522C0.721594 8.28613 1.12516 8.16301 1.18362 8.05566C0.923031 7.99197 0.766687 7.86457 0.766687 7.86457C0.766687 7.86457 1.90169 7.76035 2.35916 7.82985C2.56778 7.52304 2.82822 6.92647 3.4015 6.38213C3.4015 6.38213 2.68706 6.46188 2.57509 6.51919C2.46309 6.57647 2.45528 6.9671 2.38497 6.98794C2.31466 7.00879 2.59331 6.31866 1.61228 6.55813C1.61228 6.55813 1.25028 6.92851 1.22375 7.58082C1.22375 7.58082 1.0415 7.39429 0.939781 7.12126C0.88625 6.97757 0.607844 7.22297 0.495406 7.14266C0.761594 6.96366 0.821594 6.66616 0.7845 6.31282C0.544875 6.36197 0.389 6.29563 0.28125 6.16291C0.756312 6.21907 1.15269 5.53304 1.51262 4.50322L1.0415 4.77629C1.25566 3.52885 2.19791 3.75369 2.84037 2.70435C2.63519 2.63322 2.46106 2.67654 2.31034 2.80607C2.59944 2.20107 3.18794 2.91901 3.70034 1.30247C3.81581 0.963287 4.03912 0.805193 4.33847 0.5291C4.56909 0.316318 4.74416 0.125693 5.14719 0.0169433C5.45131 -0.065088 6.65156 0.139256 7.06637 0.882725C7.42709 1.52929 7.24678 2.97557 6.69109 3.40857C6.69109 3.40857 6.60087 3.56372 6.76328 3.69363C6.92562 3.82354 7.22875 4.1591 7.57516 5.04676C7.72672 5.51226 8.56384 5.49419 9.41903 6.23032C9.43278 5.95897 9.58725 5.72835 9.73534 5.5176C9.92144 5.25272 10.1183 5.03926 10.2477 5.04219C10.7495 5.36969 9.95666 6.01019 9.95666 6.01019C10.0292 6.04785 10.1508 6.04926 10.3005 6.02997C10.1405 6.38507 9.62831 6.61279 9.43384 6.61151C8.96712 6.60835 7.83853 6.17979 7.11772 5.79913C6.9345 5.98241 6.75447 6.46113 6.53503 6.94476C6.31853 7.94788 7.55047 9.33188 5.17828 11.1233C4.87247 11.3542 4.65778 12.3548 4.67041 12.8913C4.69219 13.8153 5.16478 14.4635 5.99106 14.9337C7.45162 14.4496 6.59041 11.616 10.5475 10.9401C9.73847 11.7415 9.61878 12.4246 9.18087 13.3171C10.1206 13.1269 9.76087 12.7206 11.7295 12.5048Z" fill="#878D95"/>
</svg>
