<svg width="4" height="14" viewBox="0 0 4 14" fill="none" xmlns="http://www.w3.org/2000/svg">
<path fill-rule="evenodd" clip-rule="evenodd" d="M1.99984 11C2.73612 11 3.333 11.597 3.333 12.3334C3.333 13.0698 2.73612 13.6667 1.99984 13.6667C1.26356 13.6667 0.666687 13.0698 0.666687 12.3334C0.666687 11.597 1.26356 11 1.99984 11ZM2.0002 5.66683C2.73648 5.66683 3.33335 6.26379 3.33335 7.00018C3.33335 7.73657 2.73648 8.33353 2.0002 8.33353C1.26392 8.33353 0.667043 7.73657 0.667043 7.00018C0.667043 6.26379 1.26392 5.66683 2.0002 5.66683ZM3.33335 1.66677C3.33335 0.930376 2.73648 0.333414 2.0002 0.333414C1.26392 0.333414 0.667042 0.930376 0.667042 1.66677C0.667043 2.40316 1.26392 3.00012 2.0002 3.00012C2.73648 3.00012 3.33335 2.40316 3.33335 1.66677Z" fill="white"/>
</svg>
