<svg width="24" height="24" viewBox="0 0 24 24" fill="none" xmlns="http://www.w3.org/2000/svg">
<path fill-rule="evenodd" clip-rule="evenodd" d="M6.00005 11.9997C6.00005 13.1042 5.10461 13.9995 4.00003 13.9995C2.89544 13.9995 2 13.1042 2 11.9997C2 10.8953 2.89544 10 4.00003 10C5.10461 10 6.00005 10.8953 6.00005 11.9997ZM13.9999 12.0003C13.9999 13.1047 13.1044 14 11.9998 14C10.8953 14 9.99982 13.1047 9.99982 12.0003C9.99982 10.8958 10.8953 10.0005 11.9998 10.0005C13.1044 10.0005 13.9999 10.8958 13.9999 12.0003ZM20 14C21.1046 14 22 13.1047 22 12.0003C22 10.8958 21.1046 10.0005 20 10.0005C18.8954 10.0005 17.9999 10.8958 17.9999 12.0003C17.9999 13.1047 18.8954 14 20 14Z" fill="#0C2739"/>
</svg>
