<svg width="16" height="17" viewBox="0 0 16 17" fill="none" xmlns="http://www.w3.org/2000/svg">
<path fill-rule="evenodd" clip-rule="evenodd" d="M7.99981 12.4999C8.73609 12.4999 9.33297 13.0969 9.33297 13.8333C9.33297 14.5697 8.73609 15.1666 7.99981 15.1666C7.26353 15.1666 6.66666 14.5697 6.66666 13.8333C6.66666 13.0969 7.26353 12.4999 7.99981 12.4999ZM8.00017 7.16671C8.73645 7.16671 9.33332 7.76367 9.33332 8.50006C9.33332 9.23645 8.73645 9.83341 8.00017 9.83341C7.26389 9.83341 6.66701 9.23645 6.66701 8.50006C6.66701 7.76367 7.26389 7.16671 8.00017 7.16671ZM9.33332 3.16664C9.33332 2.43025 8.73645 1.83329 8.00017 1.83329C7.26389 1.83329 6.66701 2.43025 6.66701 3.16664C6.66701 3.90303 7.26389 4.5 8.00017 4.5C8.73645 4.5 9.33332 3.90303 9.33332 3.16664Z" fill="#C5CAD2"/>
</svg>
