<svg width="20" height="20" viewBox="0 0 20 20" fill="none" xmlns="http://www.w3.org/2000/svg">
<path fill-rule="evenodd" clip-rule="evenodd" d="M4.00005 1.99973C4.00005 3.10416 3.10461 3.99947 2.00003 3.99947C0.895443 3.99947 0 3.10416 0 1.99973C0 0.895311 0.895443 0 2.00003 0C3.10461 0 4.00005 0.895311 4.00005 1.99973ZM11.9999 2.00027C11.9999 3.10469 11.1044 4 9.99985 4C8.89526 4 7.99982 3.10469 7.99982 2.00027C7.99982 0.895845 8.89526 0.000533975 9.99985 0.000533975C11.1044 0.000533975 11.9999 0.895845 11.9999 2.00027ZM18 4C19.1046 4 20 3.10469 20 2.00027C20 0.895845 19.1046 0.000533975 18 0.000533975C16.8954 0.000533975 15.9999 0.895845 15.9999 2.00027C15.9999 3.10469 16.8954 4 18 4Z" fill="#0C2739"/>
</svg>
