<svg width="4" height="20" viewBox="0 0 4 20" fill="none" xmlns="http://www.w3.org/2000/svg">
<path fill-rule="evenodd" clip-rule="evenodd" d="M1.9997 15.9999C3.1042 15.9999 3.9995 16.8954 3.9995 18C3.9995 19.1046 3.1042 20 1.9997 20C0.8953 20 0 19.1046 0 18C0 16.8954 0.8953 15.9999 1.9997 15.9999ZM2.0003 8.0001C3.1047 8.0001 4 8.8956 4 10.0002C4 11.1047 3.1047 12.0002 2.0003 12.0002C0.8958 12.0002 0.000499725 11.1047 0.000499725 10.0002C0.000499725 8.8956 0.8958 8.0001 2.0003 8.0001ZM4 2C4 0.895401 3.1047 0 2.0003 0C0.8958 0 0.000499725 0.895401 0.000499725 2C0.000499725 3.1046 0.8958 4.0001 2.0003 4.0001C3.1047 4.0001 4 3.1046 4 2Z" fill="#0C2739"/>
</svg>
