<svg width="24" height="24" viewBox="0 0 24 24" fill="none" xmlns="http://www.w3.org/2000/svg">
<path fill-rule="evenodd" clip-rule="evenodd" d="M12.0003 6.00005C10.8958 6.00005 10.0005 5.10461 10.0005 4.00003C10.0005 2.89544 10.8958 2 12.0003 2C13.1047 2 14 2.89544 14 4.00003C14 5.10461 13.1047 6.00005 12.0003 6.00005ZM11.9997 13.9999C10.8953 13.9999 10 13.1044 10 11.9998C10 10.8953 10.8953 9.99982 11.9997 9.99982C13.1042 9.99982 13.9995 10.8953 13.9995 11.9998C13.9995 13.1044 13.1042 13.9999 11.9997 13.9999ZM10 20C10 21.1046 10.8953 22 11.9997 22C13.1042 22 13.9995 21.1046 13.9995 20C13.9995 18.8954 13.1042 17.9999 11.9997 17.9999C10.8953 17.9999 10 18.8954 10 20Z" fill="#161721"/>
</svg>
