<svg width="24" height="24" viewBox="0 0 24 24" fill="none" xmlns="http://www.w3.org/2000/svg">
<path fill-rule="evenodd" clip-rule="evenodd" d="M2.1 20.4H16.2273C17.3857 20.4 18.3273 19.4584 18.3273 18.3V14.4H17.1818V18.3C17.1818 18.8261 16.7534 19.2545 16.2273 19.2545H2.1C1.57385 19.2545 1.14545 18.8261 1.14545 18.3V7.41817H17.1818V10.8H18.3273V6.84544V5.69998C18.3273 4.54154 17.3857 3.59998 16.2273 3.59998H2.1C0.941564 3.59998 0 4.54154 0 5.69998V6.84544V18.3C0 19.4584 0.941564 20.4 2.1 20.4ZM1.14545 6.27271V5.69998C1.14545 5.17383 1.57385 4.74543 2.1 4.74543H16.2273C16.7534 4.74543 17.1818 5.17383 17.1818 5.69998V6.27271H1.14545ZM20.0463 9.24642C20.2416 9.05116 20.5582 9.05116 20.7535 9.24642L23.7535 12.2464C23.8472 12.3402 23.8999 12.4674 23.8999 12.6C23.8999 12.7326 23.8472 12.8598 23.7535 12.9535L20.7535 15.9535C20.5582 16.1488 20.2416 16.1488 20.0463 15.9535C19.8511 15.7583 19.8511 15.4417 20.0463 15.2464L22.1928 13.1H8.3999C8.12376 13.1 7.8999 12.8761 7.8999 12.6C7.8999 12.3238 8.12376 12.1 8.3999 12.1H22.1928L20.0463 9.95353C19.8511 9.75827 19.8511 9.44168 20.0463 9.24642Z" fill="#0C2739"/>
</svg>
