<svg width="24" height="24" viewBox="0 0 24 24" fill="none" xmlns="http://www.w3.org/2000/svg">
<path fill-rule="evenodd" clip-rule="evenodd" d="M0 6.98C0 4.79578 1.65607 3.03 3.70457 3.03H15.0527C17.102 3.03 18.7551 4.79567 18.7667 6.97576L18.7667 6.98L18.7667 9C18.7667 9.41421 18.4518 9.75 18.0633 9.75C17.6748 9.75 17.3599 9.41421 17.3599 9V6.98233C17.3517 5.6233 16.3229 4.53 15.0527 4.53H3.70457C2.43302 4.53 1.4068 5.62421 1.4068 6.98V18.06C1.4068 19.4158 2.43302 20.51 3.70457 20.51H15.0621C16.3337 20.51 17.3599 19.4158 17.3599 18.06V16C17.3599 15.5858 17.6748 15.25 18.0633 15.25C18.4518 15.25 18.7667 15.5858 18.7667 16V18.06C18.7667 20.2442 17.1106 22.01 15.0621 22.01H3.70457C1.65607 22.01 0 20.2442 0 18.06V6.98ZM21.0279 11.75H9.7069C9.31843 11.75 9.00351 12.0858 9.00351 12.5C9.00351 12.9142 9.31843 13.25 9.7069 13.25H21.3453L20.3549 14.3109C20.0809 14.6045 20.0819 15.0793 20.3572 15.3716C20.6325 15.6638 21.0779 15.6627 21.352 15.3691L23.3778 13.1991C23.6509 12.9065 23.6509 12.4335 23.3778 12.1409L23.2888 12.0456C23.2511 11.9929 23.2071 11.9458 23.1579 11.9054L21.352 9.9709C21.0779 9.67733 20.6325 9.67623 20.3572 9.96845C20.0819 10.2607 20.0809 10.7355 20.3549 11.0291L21.0279 11.75Z" fill="#161721"/>
</svg>
