<svg width="16" height="16" viewBox="0 0 16 16" fill="none" xmlns="http://www.w3.org/2000/svg">
<path fill-rule="evenodd" clip-rule="evenodd" d="M9 4.5H7V12.5H9V4.5ZM4 7.5H6V12.5H4V7.5ZM1 10.5H3V12.5H1V10.5Z" fill="#B0BACA"/>
<path fill-rule="evenodd" clip-rule="evenodd" d="M10 2.5H12V8.53544C11.2212 8.64684 10.5251 9.01461 10 9.55051V2.5Z" fill="#B0BACA"/>
<path fill-rule="evenodd" clip-rule="evenodd" d="M14.6793 12.5451L14.5392 12.4638C14.4048 12.3854 14.3235 12.2453 14.3235 12.0885C14.3235 11.9316 14.4048 11.7915 14.5392 11.7159L14.6821 11.6346C14.783 11.5758 14.853 11.4834 14.881 11.3713C14.909 11.2593 14.895 11.1444 14.8362 11.0463L14.5477 10.5477C14.4272 10.3404 14.1611 10.2704 13.9566 10.3908L13.8137 10.4721C13.6792 10.5505 13.5168 10.5505 13.3823 10.4721C13.2478 10.3936 13.1666 10.2536 13.1666 10.0967V9.93141C13.1666 9.69329 12.9733 9.5 12.7352 9.5H12.1581C11.92 9.5 11.7267 9.69329 11.7267 9.93141V10.0967C11.7267 10.2536 11.6454 10.3936 11.511 10.4721C11.3765 10.5505 11.214 10.5505 11.0796 10.4721L10.9367 10.3908C10.7322 10.2732 10.4689 10.3432 10.3456 10.5477L10.0599 11.0435C9.94222 11.248 10.0123 11.5114 10.2196 11.6346L10.3596 11.7159C10.4941 11.7943 10.5753 11.9344 10.5753 12.0885C10.5753 12.2425 10.4941 12.3854 10.3596 12.461L10.214 12.5423C10.0095 12.6627 9.93942 12.9261 10.0571 13.1334L10.3456 13.632C10.4044 13.7329 10.4969 13.8029 10.6089 13.8337C10.721 13.8645 10.8359 13.8477 10.9367 13.7889L11.0796 13.7076C11.214 13.6292 11.3765 13.6292 11.511 13.7076C11.6454 13.7861 11.7267 13.9261 11.7267 14.083V14.2483C11.7267 14.4864 11.92 14.6797 12.1581 14.6797H12.7352C12.9733 14.6797 13.1666 14.4864 13.1666 14.2483V14.083C13.1666 13.9261 13.2478 13.7861 13.3823 13.7076C13.5168 13.6292 13.6792 13.6292 13.8137 13.7076L13.9566 13.7889C14.1611 13.9065 14.4244 13.8365 14.5477 13.6292L14.8362 13.1334C14.9538 12.9289 14.8866 12.6655 14.6765 12.5423L14.6793 12.5451ZM11.5224 12.0885C11.5224 11.5758 11.9398 11.1584 12.4524 11.1584C12.9651 11.1584 13.3825 11.5758 13.3825 12.0885C13.3825 12.6011 12.9651 13.0185 12.4524 13.0185C11.9398 13.0185 11.5224 12.6011 11.5224 12.0885Z" fill="#B0BACA"/>
</svg>
