<svg width="24" height="24" viewBox="0 0 24 24" fill="none" xmlns="http://www.w3.org/2000/svg">
<line x1="4.1001" y1="11.5" x2="19.9001" y2="11.5" stroke="#0C2739" stroke-linecap="round"/>
<path d="M13.5378 4.43143C13.3343 4.24483 13.018 4.25858 12.8314 4.46214C12.6448 4.6657 12.6585 4.98198 12.8621 5.16858L13.5378 4.43143ZM20.4 11.4L20.7378 11.7686C20.8411 11.6739 20.9 11.5402 20.9 11.4C20.9 11.2599 20.8411 11.1261 20.7378 11.0314L20.4 11.4ZM12.8621 17.6314C12.6585 17.818 12.6448 18.1343 12.8314 18.3379C13.018 18.5414 13.3343 18.5552 13.5378 18.3686L12.8621 17.6314ZM12.8621 5.16858L20.0621 11.7686L20.7378 11.0314L13.5378 4.43143L12.8621 5.16858ZM20.0621 11.0314L12.8621 17.6314L13.5378 18.3686L20.7378 11.7686L20.0621 11.0314Z" fill="#0C2739"/>
</svg>
