<svg width="24" height="24" viewBox="0 0 24 24" fill="none" xmlns="http://www.w3.org/2000/svg">
<path fill-rule="evenodd" clip-rule="evenodd" d="M3.6001 11.5C3.6001 11.2239 3.82396 11 4.1001 11H19.9001C20.1762 11 20.4001 11.2239 20.4001 11.5C20.4001 11.7761 20.1762 12 19.9001 12H4.1001C3.82396 12 3.6001 11.7761 3.6001 11.5Z" fill="#0C2739"/>
<path fill-rule="evenodd" clip-rule="evenodd" d="M12.8314 4.46214C13.018 4.25858 13.3343 4.24483 13.5378 4.43143L20.7378 11.0314C20.8411 11.1261 20.9 11.2599 20.9 11.4C20.9 11.5402 20.8411 11.6739 20.7378 11.7686L13.5378 18.3686C13.3343 18.5552 13.018 18.5414 12.8314 18.3379C12.6448 18.1343 12.6585 17.818 12.8621 17.6314L19.66 11.4L12.8621 5.16858C12.6585 4.98199 12.6448 4.6657 12.8314 4.46214Z" fill="#0C2739"/>
</svg>
