<svg width="24" height="24" viewBox="0 0 24 24" fill="none" xmlns="http://www.w3.org/2000/svg">
<path fill-rule="evenodd" clip-rule="evenodd" d="M14.7656 17.6278C14.4727 17.9207 14.4727 18.3956 14.7656 18.6885C15.0585 18.9814 15.5334 18.9814 15.8262 18.6885L22.0303 12.4844C22.1768 12.338 22.25 12.146 22.25 11.9541C22.25 11.7621 22.1768 11.5702 22.0303 11.4237L15.8262 5.21966C15.5334 4.92676 15.0585 4.92676 14.7656 5.21966C14.4727 5.51255 14.4727 5.98742 14.7656 6.28032L19.6893 11.2041L2.5 11.2041C2.08579 11.2041 1.75 11.5399 1.75 11.9541C1.75 12.3683 2.08579 12.7041 2.5 12.7041L19.6894 12.7041L14.7656 17.6278Z" fill="#161721"/>
</svg>
