<svg width="24" height="22" viewBox="0 0 24 22" fill="none" xmlns="http://www.w3.org/2000/svg">
<path d="M17.657 5.343C16.146 3.832 14.137 3 12 3C9.863 3 7.854 3.832 6.343 5.343C4.832 6.854 4 8.863 4 11C4 13.137 4.832 15.146 6.343 16.657C7.854 18.168 9.863 19 12 19C14.137 19 16.146 18.168 17.657 16.657C19.168 15.146 20 13.137 20 11C20 8.863 19.168 6.854 17.657 5.343ZM18 11C18.0013 12.2459 17.6129 13.461 16.889 14.475L8.525 6.111C9.53903 5.38714 10.7541 4.99866 12 5C15.308 5 18 7.692 18 11ZM6 11C5.99866 9.75412 6.38714 8.53903 7.111 7.525L15.475 15.889C14.461 16.6129 13.2459 17.0013 12 17C8.692 17 6 14.308 6 11Z" fill="#0C2739"/>
</svg>
