<svg width="25" height="24" viewBox="0 0 25 24" fill="none" xmlns="http://www.w3.org/2000/svg">
<path fill-rule="evenodd" clip-rule="evenodd" d="M6.77641 5.71578C8.28685 4.33929 10.2954 3.5 12.5 3.5C17.1944 3.5 21 7.30558 21 12C21 14.2046 20.1607 16.2131 18.7842 17.7236L6.78138 5.72073C6.77973 5.71907 6.77807 5.71742 6.77641 5.71578ZM5.75983 6.82049C4.65623 8.25449 4 10.0506 4 12C4 16.6944 7.80558 20.5 12.5 20.5C14.4494 20.5 16.2455 19.8438 17.6795 18.7402L5.75983 6.82049ZM12.5 2C6.97715 2 2.5 6.47715 2.5 12C2.5 17.5228 6.97715 22 12.5 22C18.0228 22 22.5 17.5228 22.5 12C22.5 6.47715 18.0228 2 12.5 2Z" fill="#161721"/>
</svg>
