<svg width="18" height="18" viewBox="0 0 18 18" fill="none" xmlns="http://www.w3.org/2000/svg">
<path opacity="0.5" d="M9 0.875C4.5131 0.875 0.875 4.5131 0.875 9C0.875 13.4869 4.5131 17.125 9 17.125C13.4869 17.125 17.125 13.4869 17.125 9C17.125 4.5131 13.4869 0.875 9 0.875ZM9 15.2891C5.52752 15.2891 2.71094 12.4725 2.71094 9C2.71094 7.59475 3.17225 6.29619 3.95191 5.24941L12.7506 14.0481C11.7038 14.8278 10.4052 15.2891 9 15.2891ZM14.0481 12.7506L5.24941 3.95191C6.29619 3.17225 7.59475 2.71094 9 2.71094C12.4725 2.71094 15.2891 5.52752 15.2891 9C15.2891 10.4052 14.8278 11.7038 14.0481 12.7506Z" fill="#0C2739" stroke="#0C2739" stroke-width="0.5"/>
</svg>
