<svg width="24" height="24" viewBox="0 0 24 24" fill="none" xmlns="http://www.w3.org/2000/svg">
<g clip-path="url(#clip0_8560_84210)">
<path fill-rule="evenodd" clip-rule="evenodd" d="M23.5606 0.878855C23.2677 0.585955 22.7928 0.585955 22.4999 0.878855L0.939341 22.4395C0.646441 22.7324 0.646441 23.2073 0.939341 23.5002C1.23224 23.7931 1.7071 23.7931 2 23.5002L23.5606 1.93951C23.8535 1.64661 23.8535 1.17176 23.5606 0.878855Z" fill="#161721"/>
<path fill-rule="evenodd" clip-rule="evenodd" d="M1.5 5.5C1.5 3.42893 3.17893 1.75 5.25 1.75H15.5074C16.5019 1.75 17.4557 2.14509 18.159 2.84835L20.375 5.06438L19.3144 6.12504L17.0983 3.90901C17.0293 3.83994 16.9562 3.77583 16.8796 3.71689V7.18001C16.8796 7.8404 16.6173 8.47374 16.1503 8.94071C15.6833 9.40767 15.05 9.67001 14.3896 9.67001H7.58961C6.92922 9.67001 6.29588 9.40767 5.82891 8.94071C5.36195 8.47374 5.09961 7.8404 5.09961 7.18001V3.25495C3.92709 3.33233 3 4.3079 3 5.5V18.5C3 19.5694 3.74606 20.4646 4.7461 20.6934L3.58061 21.8588C2.34732 21.2447 1.5 19.9713 1.5 18.5V5.5ZM5.31078 22.25H19V22.2418C20.9545 22.1132 22.5 20.4871 22.5 18.5V8.74264C22.5 7.76414 22.1176 6.82507 21.4355 6.12526L20.3747 7.18607C20.7755 7.60445 21 8.16197 21 8.74264V18.5C21 19.6581 20.125 20.6119 19 20.7363V16C19 14.4812 17.7688 13.25 16.25 13.25H14.3108L12.8108 14.75H16.25C16.9404 14.75 17.5 15.3096 17.5 16V20.75H6.81077L5.31078 22.25ZM10.6894 14.75H7.75C7.05964 14.75 6.5 15.3096 6.5 16V18.9394L5 20.4395V16C5 14.4812 6.23122 13.25 7.75 13.25H12.1894L10.6894 14.75ZM15.3796 3.25H6.59961V7.18001C6.59961 7.44257 6.70391 7.69438 6.88957 7.88005C7.07523 8.06571 7.32704 8.17001 7.58961 8.17001H14.3896C14.6522 8.17001 14.904 8.06571 15.0896 7.88005C15.2753 7.69438 15.3796 7.44257 15.3796 7.18001V3.25ZM13.05 4.57001C13.4642 4.57001 13.8 4.9058 13.8 5.32001V6.35001C13.8 6.76422 13.4642 7.10001 13.05 7.10001C12.6358 7.10001 12.3 6.76422 12.3 6.35001V5.32001C12.3 4.9058 12.6358 4.57001 13.05 4.57001Z" fill="#161721"/>
</g>
<defs>
<clipPath id="clip0_8560_84210">
<rect width="24" height="24" fill="white"/>
</clipPath>
</defs>
</svg>
