<svg width="24" height="24" viewBox="0 0 24 24" fill="none" xmlns="http://www.w3.org/2000/svg">
<g clip-path="url(#clip0_914_95662)">
<path d="M4.45828 4.20824C5.20428 4.81424 5.48428 4.76824 6.88628 4.67424L20.1013 3.88124C20.3813 3.88124 20.1483 3.60124 20.0553 3.55524L17.8593 1.96824C17.4393 1.64224 16.8783 1.26824 15.8043 1.36124L3.00928 2.29524C2.54328 2.34124 2.44928 2.57524 2.63528 2.76124L4.45828 4.20824ZM5.25128 7.28824V21.1922C5.25128 21.9392 5.62428 22.2192 6.46528 22.1722L20.9883 21.3322C21.8293 21.2862 21.9233 20.7722 21.9233 20.1652V6.35424C21.9233 5.74824 21.6903 5.42124 21.1753 5.46724L5.99828 6.35424C5.43828 6.40124 5.25128 6.68124 5.25128 7.28724V7.28824ZM19.5883 8.03324C19.6813 8.45324 19.5883 8.87324 19.1683 8.92124L18.4683 9.06124V19.3252C17.8603 19.6522 17.3003 19.8392 16.8333 19.8392C16.0853 19.8392 15.8983 19.6052 15.3383 18.9062L10.7613 11.7202V18.6722L12.2093 19.0002C12.2093 19.0002 12.2093 19.8402 11.0413 19.8402L7.81928 20.0262C7.72628 19.8402 7.81928 19.3732 8.14628 19.2802L8.98628 19.0472V9.85424L7.82128 9.76024C7.72728 9.34024 7.96128 8.73424 8.61428 8.68724L12.0703 8.45424L16.8343 15.7332V9.29324L15.6193 9.15424C15.5263 8.64024 15.8993 8.26724 16.3663 8.22124L19.5883 8.03324ZM1.93528 1.03524L15.2453 0.0552402C16.8793 -0.0847598 17.3003 0.00824022 18.3273 0.75524L22.5763 3.74124C23.2763 4.25424 23.5103 4.39424 23.5103 4.95424V21.3322C23.5103 22.3582 23.1373 22.9662 21.8303 23.0582L6.37228 23.9922C5.39228 24.0392 4.92428 23.8992 4.41028 23.2452L1.28128 19.1852C0.721281 18.4382 0.488281 17.8792 0.488281 17.2252V2.66724C0.488281 1.82824 0.862281 1.12724 1.93528 1.03524Z" fill="black"/>
</g>
<defs>
<clipPath id="clip0_914_95662">
<rect width="24" height="24" fill="white"/>
</clipPath>
</defs>
</svg>
