<svg width="25" height="25" viewBox="0 0 25 25" fill="none" xmlns="http://www.w3.org/2000/svg">
<path d="M14.0625 4.35417C13.775 4.35417 13.5416 4.12083 13.5416 3.83333V2.08333C13.5416 1.50937 13.0739 1.04167 12.5 1.04167C11.926 1.04167 11.4583 1.50937 11.4583 2.08333V3.83333C11.4583 4.12083 11.225 4.35417 10.9375 4.35417C10.65 4.35417 10.4166 4.12187 10.4166 3.83333V2.08333C10.4166 0.934375 11.351 0 12.5 0C13.6489 0 14.5833 0.934375 14.5833 2.08333V3.83333C14.5833 4.12187 14.35 4.35417 14.0625 4.35417Z" fill="#0C2739"/>
<path d="M12.5 24.9999C10.4895 24.9999 8.85413 23.3645 8.85413 21.3541C8.85413 21.0666 9.08746 20.8333 9.37496 20.8333C9.66246 20.8333 9.89579 21.0666 9.89579 21.3541C9.89579 22.7895 11.0645 23.9583 12.5 23.9583C13.9354 23.9583 15.1041 22.7895 15.1041 21.3541C15.1041 21.0666 15.3375 20.8333 15.625 20.8333C15.9125 20.8333 16.1458 21.0666 16.1458 21.3541C16.1458 23.3645 14.5104 24.9999 12.5 24.9999Z" fill="#0C2739"/>
<path d="M21.3542 21.875H3.64587C2.78442 21.875 2.08337 21.174 2.08337 20.3125C2.08337 19.8552 2.28233 19.4229 2.63025 19.125C4.27192 17.7375 5.20837 15.7188 5.20837 13.5812V10.4167C5.20837 6.39583 8.47921 3.125 12.5 3.125C16.5209 3.125 19.7917 6.39583 19.7917 10.4167V13.5812C19.7917 15.7198 20.7282 17.7375 22.3615 19.1177C22.7178 19.4229 22.9167 19.8552 22.9167 20.3125C22.9167 21.174 22.2167 21.875 21.3542 21.875ZM12.5 4.16667C9.05317 4.16667 6.25004 6.96979 6.25004 10.4167V13.5812C6.25004 16.0271 5.17921 18.3344 3.3115 19.9135C3.19171 20.0156 3.12504 20.1604 3.12504 20.3125C3.12504 20.6 3.35837 20.8333 3.64587 20.8333H21.3542C21.6417 20.8333 21.875 20.6 21.875 20.3125C21.875 20.1604 21.8084 20.0156 21.6928 19.9167C19.8219 18.3344 18.75 16.026 18.75 13.5812V10.4167C18.75 6.96979 15.9469 4.16667 12.5 4.16667Z" fill="#0C2739"/>
</svg>
