<svg width="24" height="24" viewBox="0 0 24 24" fill="none" xmlns="http://www.w3.org/2000/svg">
<path fill-rule="evenodd" clip-rule="evenodd" d="M6.11002 3.22998C6.11002 3.0497 6.01297 2.88338 5.85603 2.79469C5.69908 2.70599 5.50654 2.70864 5.3521 2.80164L4.4221 3.36164C4.18553 3.50409 4.10923 3.81134 4.25168 4.04791C4.39413 4.28447 4.70138 4.36077 4.93795 4.21832L5.11002 4.1147V7.07998C5.11002 7.35612 5.33388 7.57998 5.61002 7.57998C5.88616 7.57998 6.11002 7.35612 6.11002 7.07998V3.22998ZM8.58003 5.16003C8.58003 4.74582 8.91582 4.41003 9.33003 4.41003H19.49C19.9042 4.41003 20.24 4.74582 20.24 5.16003C20.24 5.57425 19.9042 5.91003 19.49 5.91003H9.33003C8.91582 5.91003 8.58003 5.57425 8.58003 5.16003ZM4.8755 10.6166C5.04954 10.5515 5.24016 10.5475 5.41617 10.6047C5.53343 10.6795 5.62748 10.786 5.68716 10.9122C5.75232 11.05 5.77334 11.2045 5.74735 11.3547L5.7473 11.3547L5.74623 11.3614C5.7332 11.4434 5.70793 11.5092 5.56202 11.661C5.48245 11.7438 5.38023 11.8385 5.23834 11.9687L5.207 11.9974C5.07506 12.1183 4.91751 12.2627 4.73555 12.4376C4.22318 12.9193 3.82418 13.3492 3.58262 13.6108C3.44792 13.7568 3.41235 13.9686 3.492 14.1505C3.57165 14.3325 3.75142 14.45 3.95002 14.45H6.28002C6.55617 14.45 6.78002 14.2261 6.78002 13.95C6.78002 13.6738 6.55617 13.45 6.28002 13.45H5.1254C5.21934 13.3576 5.31848 13.2621 5.42248 13.1643L5.4225 13.1643L5.42648 13.1605C5.60042 12.9933 5.75065 12.8556 5.88336 12.734L5.88342 12.7339L5.88347 12.7339L5.91421 12.7057C6.05107 12.5802 6.1776 12.4637 6.28303 12.354C6.5064 12.1215 6.67577 11.8782 6.73327 11.522C6.79351 11.1698 6.74392 10.8077 6.59119 10.4847C6.43798 10.1607 6.18846 9.89193 5.87673 9.71509C5.85435 9.7024 5.83103 9.69145 5.80696 9.68234C5.39407 9.52612 4.93846 9.5253 4.52501 9.68003C4.11155 9.83476 3.76842 10.1345 3.55954 10.5234C3.42887 10.7667 3.52016 11.0698 3.76344 11.2005C4.00671 11.3311 4.30985 11.2398 4.44051 10.9966C4.53462 10.8214 4.68922 10.6863 4.8755 10.6166ZM4.06003 16.5C3.78389 16.5 3.56003 16.7239 3.56003 17C3.56003 17.2761 3.78389 17.5 4.06003 17.5H4.99967L4.5592 17.9337C4.41642 18.0743 4.37137 18.2866 4.44476 18.4731C4.51815 18.6596 4.69578 18.7842 4.8961 18.7898C5.00996 18.793 5.12202 18.819 5.22562 18.8663C5.32922 18.9137 5.42226 18.9813 5.49919 19.0653C5.57613 19.1493 5.63541 19.2479 5.6735 19.3552C5.7077 19.4516 5.72419 19.5533 5.72228 19.6554C5.68638 19.8006 5.60775 19.9321 5.4962 20.0326C5.37946 20.1378 5.23274 20.2035 5.07679 20.2208C4.96609 20.2234 4.85596 20.2035 4.75307 20.1624C4.64603 20.1196 4.54922 20.0547 4.46896 19.9719C4.27672 19.7737 3.96017 19.7688 3.76194 19.9611C3.5637 20.1533 3.55885 20.4699 3.75109 20.6681C3.92923 20.8518 4.1441 20.9958 4.38168 21.0909C4.61926 21.1859 4.87421 21.2298 5.12988 21.2196C5.13872 21.2193 5.14755 21.2187 5.15636 21.2178C5.5316 21.1829 5.88554 21.0278 6.16553 20.7756C6.44553 20.5233 6.63661 20.1874 6.71036 19.8178C6.71484 19.7954 6.71777 19.7727 6.71914 19.7498C6.73392 19.5024 6.69883 19.2545 6.61593 19.0208C6.53303 18.7872 6.40402 18.5726 6.23656 18.3898C6.1222 18.265 5.9915 18.1567 5.84829 18.0678L6.57085 17.3563C6.71545 17.2139 6.75964 16.9982 6.6827 16.8104C6.60576 16.6227 6.42296 16.5 6.22003 16.5H4.06003ZM9.33003 18.09C8.91582 18.09 8.58003 18.4258 8.58003 18.84C8.58003 19.2542 8.91582 19.59 9.33003 19.59H19.49C19.9042 19.59 20.24 19.2542 20.24 18.84C20.24 18.4258 19.9042 18.09 19.49 18.09H9.33003ZM8.58003 12C8.58003 11.5858 8.91582 11.25 9.33003 11.25H19.49C19.9042 11.25 20.24 11.5858 20.24 12C20.24 12.4142 19.9042 12.75 19.49 12.75H9.33003C8.91582 12.75 8.58003 12.4142 8.58003 12Z" fill="#161721"/>
</svg>
