<svg width="20" height="20" viewBox="0 0 20 20" fill="none" xmlns="http://www.w3.org/2000/svg">
<path d="M18 8V15.8656C18 16.2712 17.8358 16.6594 17.5448 16.9419L17.4064 17.0762C17.1265 17.348 16.7517 17.5 16.3616 17.5H3.67273C3.2826 17.5 2.90781 17.348 2.62789 17.0762L2.48731 16.9398C2.19763 16.6585 2.03355 16.2724 2.03217 15.8687L2 6.5M18 8L17.4064 7.42376C17.1265 7.152 16.7517 7 16.3616 7H9.98283L8.99457 5.84867C8.80459 5.62735 8.52745 5.5 8.23577 5.5H3.65848C3.27683 5.5 2.90954 5.64547 2.63139 5.90679L2 6.5M18 8V6.12132C18 5.7235 17.842 5.34196 17.5607 5.06066L17.4393 4.93934C17.158 4.65804 16.7765 4.5 16.3787 4.5H10L9.29687 3.4453C9.1114 3.1671 8.79917 3 8.46482 3H3.51969C2.697 3 2.02783 3.66264 2.01976 4.48529L2 6.5" stroke="#0C2739" stroke-width="0.8" stroke-linejoin="round"/>
</svg>
