<svg width="20" height="20" viewBox="0 0 20 20" fill="none" xmlns="http://www.w3.org/2000/svg">
<path d="M21.5999 9.60001V19.1656C21.5999 19.5712 21.4357 19.9594 21.1447 20.2419L20.8003 20.5762C20.5204 20.848 20.1456 21 19.7555 21H4.28551C3.89537 21 3.52059 20.848 3.24066 20.5762L2.89408 20.2398C2.6044 19.9585 2.44032 19.5724 2.43894 19.1687L2.3999 7.80001M21.5999 9.60001L20.8003 8.82377C20.5204 8.55201 20.1456 8.40001 19.7555 8.40001H11.9793L10.7335 6.94868C10.5435 6.72735 10.2664 6.60001 9.97473 6.60001H4.27126C3.88961 6.60001 3.52232 6.74548 3.24417 7.0068L2.3999 7.80001M21.5999 9.60001V7.22133C21.5999 6.8235 21.4419 6.44197 21.1606 6.16067L20.8392 5.83935C20.5579 5.55804 20.1764 5.40001 19.7786 5.40001H11.9999L11.0968 4.04531C10.9113 3.76711 10.5991 3.60001 10.2647 3.60001H3.92646C3.10378 3.60001 2.4346 4.26264 2.42653 5.08529L2.3999 7.80001" stroke="#0C2739" stroke-width="0.8" stroke-linejoin="round"/>
</svg>
