<svg width="24" height="24" viewBox="0 0 24 24" fill="none" xmlns="http://www.w3.org/2000/svg">
<path fill-rule="evenodd" clip-rule="evenodd" d="M20.64 3.75C20.64 3.33579 20.3042 3 19.89 3H16.81C16.3958 3 16.06 3.33579 16.06 3.75C16.06 4.16421 16.3958 4.5 16.81 4.5H18.0747L10.2243 12.2151C9.92887 12.5054 9.92474 12.9803 10.2151 13.2757C10.5054 13.5711 10.9803 13.5753 11.2757 13.2849L19.14 5.55624V6.83002C19.14 7.24423 19.4758 7.58002 19.89 7.58002C20.3042 7.58002 20.64 7.24423 20.64 6.83002V3.75ZM4.5 8.75C4.5 7.50736 5.50736 6.5 6.75 6.5H12.75C13.1642 6.5 13.5 6.16421 13.5 5.75C13.5 5.33579 13.1642 5 12.75 5H6.75C4.67893 5 3 6.67893 3 8.75V16.75C3 18.8211 4.67893 20.5 6.75 20.5H14.75C16.8211 20.5 18.5 18.8211 18.5 16.75V11.5312C18.5 11.117 18.1642 10.7812 17.75 10.7812C17.3358 10.7812 17 11.117 17 11.5312V16.75C17 17.9926 15.9926 19 14.75 19H6.75C5.50736 19 4.5 17.9926 4.5 16.75V8.75Z" fill="#161721"/>
</svg>
