<svg width="24" height="24" viewBox="0 0 24 24" fill="none" xmlns="http://www.w3.org/2000/svg">
<path d="M12.3723 2.39999C14.5626 2.39999 16.3445 4.18192 16.3445 6.37218C16.3445 8.37153 14.8596 10.0303 12.9348 10.3044V19.8375C12.9348 20.1482 12.683 20.4 12.3723 20.4C12.0616 20.4 11.8098 20.1482 11.8098 19.8375V10.3044C9.88496 10.0303 8.40011 8.37153 8.40011 6.37218C8.40011 4.18192 10.182 2.39999 12.3723 2.39999ZM12.3723 9.21941C13.9422 9.21941 15.2195 7.94216 15.2195 6.37222C15.2195 4.80228 13.9422 3.52499 12.3723 3.52499C10.8024 3.52499 9.52511 4.80224 9.52511 6.37218C9.52511 7.94212 10.8023 9.21941 12.3723 9.21941Z" fill="#0C2739"/>
</svg>
