<svg width="24" height="24" viewBox="0 0 24 24" fill="none" xmlns="http://www.w3.org/2000/svg">
<path fill-rule="evenodd" clip-rule="evenodd" d="M8.25 8.48999C8.25 6.41892 9.92893 4.73999 12 4.73999C14.0711 4.73999 15.75 6.41892 15.75 8.48999C15.75 10.5611 14.0711 12.24 12 12.24C9.92893 12.24 8.25 10.5611 8.25 8.48999ZM12 3.23999C9.1005 3.23999 6.75 5.5905 6.75 8.48999C6.75 11.1348 8.70578 13.3229 11.25 13.6868V20.01C11.25 20.4242 11.5858 20.76 12 20.76C12.4142 20.76 12.75 20.4242 12.75 20.01V13.6868C15.2942 13.3229 17.25 11.1348 17.25 8.48999C17.25 5.5905 14.8995 3.23999 12 3.23999Z" fill="#161721"/>
</svg>
