<svg width="24" height="24" viewBox="0 0 24 24" fill="none" xmlns="http://www.w3.org/2000/svg">
<path fill-rule="evenodd" clip-rule="evenodd" d="M5.5 18V6C5.5 4.61929 6.61929 3.5 8 3.5H13.6V8.08997C13.6 8.50418 13.9358 8.83997 14.35 8.83997H18.5V10.168C18.5 10.5823 18.8358 10.918 19.25 10.918C19.6642 10.918 20 10.5823 20 10.168V7.83609C20 6.98563 19.639 6.17513 19.0069 5.6062L15.8557 2.77012C15.3048 2.27433 14.5899 2 13.8488 2H8C5.79086 2 4 3.79086 4 6V18C4 20.2091 5.79086 22 8 22H10.75C11.1642 22 11.5 21.6642 11.5 21.25C11.5 20.8358 11.1642 20.5 10.75 20.5H8C6.61929 20.5 5.5 19.3807 5.5 18ZM18.4156 7.33997C18.3332 7.10484 18.1926 6.89137 18.0034 6.72115L15.1 4.10805V7.33997H18.4156Z" fill="#161721"/>
<mask id="path-2-inside-1_57_2229" fill="white">
<path fill-rule="evenodd" clip-rule="evenodd" d="M17.5 23C20.5376 23 23 20.5376 23 17.5C23 14.4624 20.5376 12 17.5 12C14.4624 12 12 14.4624 12 17.5C12 20.5376 14.4624 23 17.5 23ZM18 14.5C18 14.2239 17.7761 14 17.5 14C17.2239 14 17 14.2239 17 14.5V18C17 18.2761 17.2239 18.5 17.5 18.5H19.5C19.7761 18.5 20 18.2761 20 18C20 17.7239 19.7761 17.5 19.5 17.5H18V14.5Z"/>
</mask>
<path fill-rule="evenodd" clip-rule="evenodd" d="M17.5 23C20.5376 23 23 20.5376 23 17.5C23 14.4624 20.5376 12 17.5 12C14.4624 12 12 14.4624 12 17.5C12 20.5376 14.4624 23 17.5 23ZM18 14.5C18 14.2239 17.7761 14 17.5 14C17.2239 14 17 14.2239 17 14.5V18C17 18.2761 17.2239 18.5 17.5 18.5H19.5C19.7761 18.5 20 18.2761 20 18C20 17.7239 19.7761 17.5 19.5 17.5H18V14.5Z" fill="#161721"/>
<path d="M18 17.5H17V18.5H18V17.5ZM22 17.5C22 19.9853 19.9853 22 17.5 22V24C21.0899 24 24 21.0899 24 17.5H22ZM17.5 13C19.9853 13 22 15.0147 22 17.5H24C24 13.9101 21.0899 11 17.5 11V13ZM13 17.5C13 15.0147 15.0147 13 17.5 13V11C13.9101 11 11 13.9101 11 17.5H13ZM17.5 22C15.0147 22 13 19.9853 13 17.5H11C11 21.0899 13.9101 24 17.5 24V22ZM17.5 15C17.2239 15 17 14.7761 17 14.5H19C19 13.6716 18.3284 13 17.5 13V15ZM18 14.5C18 14.7761 17.7761 15 17.5 15V13C16.6716 13 16 13.6716 16 14.5H18ZM18 18V14.5H16V18H18ZM17.5 17.5C17.7761 17.5 18 17.7239 18 18H16C16 18.8284 16.6716 19.5 17.5 19.5V17.5ZM19.5 17.5H17.5V19.5H19.5V17.5ZM19 18C19 17.7239 19.2239 17.5 19.5 17.5V19.5C20.3284 19.5 21 18.8284 21 18H19ZM19.5 18.5C19.2239 18.5 19 18.2761 19 18H21C21 17.1716 20.3284 16.5 19.5 16.5V18.5ZM18 18.5H19.5V16.5H18V18.5ZM17 14.5V17.5H19V14.5H17Z" fill="#161721" mask="url(#path-2-inside-1_57_2229)"/>
</svg>
