<svg width="22" height="22" viewBox="0 0 22 22" fill="none" xmlns="http://www.w3.org/2000/svg">
<path d="M15.9498 11.0344C13.2351 11.0344 11.0342 13.2353 11.0342 15.95C11.0342 18.6604 13.2396 20.8656 15.9498 20.8656C18.6643 20.8656 20.8654 18.6645 20.8654 15.95C20.8654 13.2395 18.6603 11.0344 15.9498 11.0344ZM18.5021 16.7062H15.6662C15.6411 16.7062 15.6171 16.6963 15.5994 16.6786C15.5816 16.6608 15.5717 16.6368 15.5717 16.6117V12.6414C15.5717 12.6163 15.5816 12.5923 15.5994 12.5746C15.6171 12.5568 15.6411 12.5469 15.6662 12.5469H16.2334C16.2585 12.5469 16.2825 12.5568 16.3002 12.5746C16.318 12.5923 16.3279 12.6163 16.3279 12.6414V15.95H18.5021C18.5272 15.95 18.5513 15.9599 18.569 15.9777C18.5867 15.9954 18.5967 16.0194 18.5967 16.0445V16.6117C18.5967 16.6368 18.5867 16.6608 18.569 16.6786C18.5513 16.6963 18.5272 16.7062 18.5021 16.7062Z" fill="#0C2739"/>
<path fill-rule="evenodd" clip-rule="evenodd" d="M4.60717 2.4071C5.02533 1.98895 5.59247 1.75403 6.18383 1.75403H13.3185H13.319C13.4544 1.75403 13.5826 1.81561 13.6672 1.92139L17.9483 7.27275C18.0115 7.35182 18.046 7.45006 18.046 7.55133V15.4H17.1541V7.99727H13.3185C13.0723 7.99727 12.8726 7.79761 12.8726 7.55133V2.64592H6.18383C5.82901 2.64592 5.48873 2.78687 5.23784 3.03776C4.98694 3.28866 4.84599 3.62894 4.84599 3.98376V17.1838C4.84599 17.5386 4.98694 17.8789 5.23784 18.1298C5.48873 18.3806 5.82901 18.5216 6.18383 18.5216H15.8163C16.1711 18.5216 16.5114 18.3806 16.7623 18.1298C16.9122 17.9798 17.0229 17.7978 17.0877 17.6H18.0068C17.9239 18.0365 17.7116 18.4417 17.3929 18.7604C16.9748 19.1786 16.4076 19.4135 15.8163 19.4135H6.18383C5.59247 19.4135 5.02533 19.1786 4.60717 18.7604C4.18902 18.3423 3.9541 17.7751 3.9541 17.1838V3.98376C3.9541 3.3924 4.18902 2.82526 4.60717 2.4071ZM13.7645 7.10538H16.6722L13.7645 3.47074V7.10538ZM7.61072 14.5973C7.36443 14.5973 7.16478 14.797 7.16478 15.0433C7.16478 15.2896 7.36443 15.4892 7.61072 15.4892H14.0323C14.2786 15.4892 14.4783 15.2896 14.4783 15.0433C14.4783 14.797 14.2786 14.5973 14.0323 14.5973H7.61072ZM7.16478 12.9028C7.16478 12.6565 7.36443 12.4568 7.61072 12.4568H9.75126H11.8918C12.1381 12.4568 12.3378 12.6565 12.3378 12.9028C12.3378 13.1491 12.1381 13.3487 11.8918 13.3487H9.75126H7.61072C7.36443 13.3487 7.16478 13.1491 7.16478 12.9028Z" fill="#0C2739"/>
</svg>
