<svg width="24" height="24" viewBox="0 0 24 24" fill="none" xmlns="http://www.w3.org/2000/svg">
  <path fill="currentColor" d="M17.5,12c-3,0-5.5,2.5-5.5,5.5s2.5,5.5,5.5,5.5s5.5-2.5,5.5-5.5S20.5,12,17.5,12z M19.5,18.5h-2
    c-0.3,0-0.5-0.2-0.5-0.5v-3.5c0-0.3,0.2-0.5,0.5-0.5s0.5,0.2,0.5,0.5v3h1.5c0.3,0,0.5,0.2,0.5,0.5S19.8,18.5,19.5,18.5z"/>
  <path fill="none" d="M17.8,7.4l-2.8-3.3C15,4,14.8,3.8,14.7,3.8v4h3.4C18,7.6,17.9,7.5,17.8,7.4z"/>
  <path fill="currentColor" d="M19.9,9.1c0-1-0.3-1.9-0.9-2.6l-2.8-3.3C15.7,2.5,14.9,2,14,2H7.2C5.3,2,4,3.9,4,5.8v12.3C4,20.1,5.3,22,7.2,22
    h3.6c0.4,0,0.7-0.3,0.7-0.8l0,0c0-0.4-0.3-0.8-0.7-0.8H7.2c-0.7,0-1.7-0.9-1.7-2.3V5.8c0-0.1,0-0.2,0-0.3c0.1-1.3,0.9-2,1.6-2h6v5
    c0,0.4,0.3,0.8,0.8,0.8h4.4v0.9c0,0.4,0.3,0.7,0.7,0.7h0c0.4,0,0.8-0.3,0.8-0.7V9.1z M14.7,7.7v-4C14.8,3.8,15,4,15.1,4.1l2.8,3.3
    c0.1,0.1,0.2,0.2,0.2,0.3H14.7z"/>
</svg>
