<svg width="20" height="20" viewBox="0 0 20 20" fill="none" xmlns="http://www.w3.org/2000/svg">
<path d="M10.3102 1.89333C12.1943 1.89333 13.727 3.42603 13.727 5.31016C13.727 6.99834 12.4966 8.40387 10.8856 8.67825V17.5313C10.8856 17.849 10.628 18.1067 10.3102 18.1067C9.99241 18.1067 9.73479 17.849 9.73479 17.5313V8.67828C8.12375 8.40387 6.89338 6.99834 6.89338 5.31016C6.89338 3.42603 8.42604 1.89333 10.3102 1.89333ZM10.3102 7.57618C11.5596 7.57618 12.5762 6.55956 12.5762 5.31019C12.5762 4.06081 11.5596 3.04417 10.3102 3.04417C9.06083 3.04417 8.04421 4.06079 8.04421 5.31016C8.04421 6.55953 9.0608 7.57618 10.3102 7.57618Z" fill="black" stroke="#0C2739" stroke-width="0.213333"/>
</svg>
