<svg width="24" height="24" viewBox="0 0 24 24" fill="none" xmlns="http://www.w3.org/2000/svg">
<path fill-rule="evenodd" clip-rule="evenodd" d="M12 4.73999C9.92893 4.73999 8.25 6.41892 8.25 8.48999C8.25 10.5611 9.92893 12.24 12 12.24C14.0711 12.24 15.75 10.5611 15.75 8.48999C15.75 6.41892 14.0711 4.73999 12 4.73999ZM6.75 8.48999C6.75 5.5905 9.1005 3.23999 12 3.23999C14.8995 3.23999 17.25 5.5905 17.25 8.48999C17.25 11.1348 15.2942 13.3229 12.75 13.6868V20.01C12.75 20.4242 12.4142 20.76 12 20.76C11.5858 20.76 11.25 20.4242 11.25 20.01V13.6868C8.70578 13.3229 6.75 11.1348 6.75 8.48999ZM11.6889 6.84395C11.8027 6.44567 12.2178 6.21505 12.6161 6.32884C13.558 6.59798 14.25 7.46486 14.25 8.48999C14.25 8.9042 13.9142 9.23999 13.5 9.23999C13.0858 9.23999 12.75 8.9042 12.75 8.48999C12.75 8.15512 12.522 7.86199 12.204 7.77113C11.8057 7.65734 11.5751 7.24222 11.6889 6.84395Z" fill="#161721"/>
</svg>
