<svg width="24" height="24" viewBox="0 0 24 24" fill="none" xmlns="http://www.w3.org/2000/svg">
<path fill-rule="evenodd" clip-rule="evenodd" d="M15.5189 4.29971C15.5429 4.34811 15.5753 4.39341 15.6159 4.4335L19.4889 8.25601C19.53 8.29662 19.5764 8.32866 19.6258 8.35217C19.6414 8.37456 19.659 8.39597 19.6786 8.41616L20.3519 9.10814C20.5404 9.30197 20.6861 9.52745 20.7559 9.74185C20.8238 9.95058 20.8138 10.1233 20.7389 10.2673C20.6499 10.4385 20.5229 10.5636 20.2962 10.6707C19.9474 10.8353 19.4552 10.7156 19.0197 10.3382L18.3047 9.7184C18.2449 9.66649 18.1762 9.63128 18.1044 9.61234C17.913 9.4725 17.6433 9.48426 17.4646 9.65266L13.6167 13.2774C13.4825 13.4038 13.4334 13.5866 13.4714 13.7543C13.4525 13.837 13.4543 13.9256 13.4809 14.0126C13.9735 15.6231 14.117 16.7395 13.927 17.714C13.7586 18.5779 13.3168 19.3869 12.5022 20.3651L3.65084 11.5771C4.73414 10.692 5.60101 10.2279 6.52166 10.0727C7.47046 9.91289 8.54445 10.0695 10.0637 10.565C10.2608 10.7358 10.5594 10.7275 10.7467 10.5402L14.5388 6.74809C14.7348 6.55209 14.7348 6.23431 14.5388 6.03831C14.5224 6.02187 14.5051 6.00681 14.4871 5.99313C14.4726 5.96498 14.4552 5.93779 14.4349 5.91198L13.8498 5.16837C13.4934 4.71551 13.3972 4.21814 13.5783 3.87752C13.6959 3.65614 13.827 3.53524 14.0021 3.4545C14.1496 3.38654 14.3226 3.38472 14.5279 3.46248C14.7387 3.54236 14.957 3.69858 15.1417 3.89615L15.5189 4.29971ZM16.5844 3.97902C16.5696 3.95707 16.5529 3.936 16.5342 3.91606L15.875 3.21073C15.6114 2.92866 15.2696 2.67009 14.8835 2.5238C14.4917 2.37539 14.0307 2.33602 13.5819 2.54291C13.1841 2.72632 12.8999 3.01516 12.6919 3.40638C12.243 4.25091 12.5873 5.18717 13.0609 5.7891L13.5089 6.35843L10.2856 9.58177C8.74978 9.08812 7.51691 8.88713 6.35488 9.08292C5.12573 9.29001 4.04829 9.92847 2.81913 10.9629C2.78063 10.9953 2.74822 11.0322 2.72203 11.0723C2.65775 11.0969 2.59753 11.1353 2.54588 11.1873C2.35058 11.384 2.35172 11.7018 2.54842 11.8971L7.03202 16.3486L3.51236 19.8682C3.31636 20.0642 3.31636 20.382 3.51236 20.578C3.70836 20.774 4.02614 20.774 4.22214 20.578L7.74435 17.0558L12.1745 21.4543C12.3712 21.6496 12.689 21.6484 12.8843 21.4517C12.887 21.449 12.8897 21.4462 12.8923 21.4435C12.8954 21.4403 12.8984 21.437 12.9013 21.4338C12.9156 21.421 12.9293 21.4072 12.9423 21.3925C14.0079 20.1902 14.6737 19.1295 14.9122 17.9061C15.1435 16.7198 14.9594 15.4484 14.4788 13.8444L17.8588 10.6603L18.3622 11.0967C18.941 11.5983 19.8599 11.9867 20.7248 11.5784C21.1254 11.3892 21.4274 11.1191 21.6295 10.7304C21.8575 10.2919 21.84 9.82957 21.7104 9.43121C21.5826 9.03853 21.3405 8.6849 21.0713 8.40817L20.3981 7.71619C20.3553 7.67219 20.3064 7.63772 20.254 7.61282C20.2365 7.58771 20.2165 7.56384 20.194 7.54158L16.5844 3.97902Z" fill="#0C2739"/>
</svg>
