<svg width="27" height="22" viewBox="0 0 27 22" fill="none" xmlns="http://www.w3.org/2000/svg">
<path d="M0.290516 7.2786L12.8617 13.5642C12.9351 13.6009 13.0157 13.6192 13.0959 13.6192C13.176 13.6192 13.2567 13.6009 13.33 13.5642L25.9012 7.2786C26.0788 7.18955 26.1909 7.00832 26.1909 6.8098C26.1909 6.61127 26.0788 6.43004 25.9012 6.34099L13.33 0.0553919C13.1828 -0.018464 13.0089 -0.018464 12.8612 0.0553919L0.289992 6.34099C0.112948 6.43004 0.000854492 6.61127 0.000854492 6.8098C0.000854492 7.00832 0.112948 7.18955 0.290516 7.2786ZM12.5866 1.36443C12.9072 1.20414 13.2845 1.20414 13.6051 1.36443L24.0884 6.60609C24.2563 6.69002 24.2563 6.92957 24.0884 7.0135L13.6051 12.2552C13.2845 12.4155 12.9072 12.4155 12.5866 12.2552L2.10328 7.0135C1.93542 6.92957 1.93542 6.69002 2.10328 6.60609L12.5866 1.36443Z" fill="#0C2739"/>
<path d="M0.290516 7.2786L12.8617 13.5642C12.9351 13.6009 13.0157 13.6192 13.0959 13.6192C13.176 13.6192 13.2567 13.6009 13.33 13.5642L25.9012 7.2786C26.0788 7.18955 26.1909 7.00832 26.1909 6.8098C26.1909 6.61127 26.0788 6.43004 25.9012 6.34099L13.33 0.0553919C13.1828 -0.018464 13.0089 -0.018464 12.8612 0.0553919L0.289992 6.34099C0.112948 6.43004 0.000854492 6.61127 0.000854492 6.8098C0.000854492 7.00832 0.112948 7.18955 0.290516 7.2786ZM12.5866 1.36443C12.9072 1.20414 13.2845 1.20414 13.6051 1.36443L24.0884 6.60609C24.2563 6.69002 24.2563 6.92957 24.0884 7.0135L13.6051 12.2552C13.2845 12.4155 12.9072 12.4155 12.5866 12.2552L2.10328 7.0135C1.93542 6.92957 1.93542 6.69002 2.10328 6.60609L12.5866 1.36443Z" stroke="#737373"/>
<path d="M25.4325 10.5315L13.0954 16.7003L0.758381 10.5315C0.4991 10.4016 0.18482 10.5074 0.0554412 10.7657C-0.0739375 11.0244 0.0308226 11.3392 0.28958 11.4686L12.8608 17.7542C12.9346 17.7914 13.0153 17.8097 13.0954 17.8097C13.1756 17.8097 13.2563 17.7914 13.3296 17.7547L25.9008 11.4691C26.1595 11.3398 26.2643 11.0249 26.1349 10.7662C26.005 10.5074 25.6913 10.4027 25.4325 10.5315Z" fill="#0C2739"/>
<path d="M25.4325 10.5315L13.0954 16.7003L0.758381 10.5315C0.4991 10.4016 0.18482 10.5074 0.0554412 10.7657C-0.0739375 11.0244 0.0308226 11.3392 0.28958 11.4686L12.8608 17.7542C12.9346 17.7914 13.0153 17.8097 13.0954 17.8097C13.1756 17.8097 13.2563 17.7914 13.3296 17.7547L25.9008 11.4691C26.1595 11.3398 26.2643 11.0249 26.1349 10.7662C26.005 10.5074 25.6913 10.4027 25.4325 10.5315Z" stroke="#737373"/>
<path d="M25.4325 14.7218L13.0954 20.8906L0.758381 14.7218C0.4991 14.5929 0.18482 14.6977 0.0554412 14.9559C-0.0739375 15.2147 0.0308226 15.5295 0.28958 15.6589L12.8608 21.9445C12.9346 21.9817 13.0153 22 13.0954 22C13.1756 22 13.2563 21.9817 13.3296 21.945L25.9008 15.6594C26.1595 15.53 26.2643 15.2152 26.1349 14.9565C26.005 14.6977 25.6913 14.5929 25.4325 14.7218Z" fill="#0C2739"/>
<path d="M25.4325 14.7218L13.0954 20.8906L0.758381 14.7218C0.4991 14.5929 0.18482 14.6977 0.0554412 14.9559C-0.0739375 15.2147 0.0308226 15.5295 0.28958 15.6589L12.8608 21.9445C12.9346 21.9817 13.0153 22 13.0954 22C13.1756 22 13.2563 21.9817 13.3296 21.945L25.9008 15.6594C26.1595 15.53 26.2643 15.2152 26.1349 14.9565C26.005 14.6977 25.6913 14.5929 25.4325 14.7218Z" stroke="#737373"/>
</svg>
