<svg width="24" height="24" viewBox="0 0 24 24" fill="none" xmlns="http://www.w3.org/2000/svg">
<path fill-rule="evenodd" clip-rule="evenodd" d="M11.7 3.56254L5.08841 7.48763C4.69393 7.71811 4.69392 8.34194 5.0884 8.57242L5.09308 8.57516L11.694 12.4898C11.8495 12.5749 12.0658 12.5795 12.2402 12.4874L18.8471 8.56918C19.0286 8.46517 19.1388 8.26701 19.14 8.02975C19.1413 7.79123 19.032 7.58989 18.8561 7.48431L12.246 3.56014C12.0905 3.47516 11.8744 3.47061 11.7 3.56254ZM10.9686 2.25283C11.5908 1.91065 12.367 1.90614 12.9885 2.25676L13.0029 2.26508L19.6248 6.19627C20.9786 7.00547 20.987 9.06632 19.5985 9.8675L12.9925 13.7852C12.9855 13.7893 12.9785 13.7933 12.9715 13.7972C12.3493 14.1394 11.5731 14.1439 10.9516 13.7933L10.9376 13.7852L4.3291 9.86605C2.94699 9.05597 2.94702 7.00396 4.32919 6.19394L10.9472 2.26508C10.9542 2.26088 10.9614 2.2568 10.9686 2.25283ZM19.619 10.8703C20.0165 10.7538 20.4332 10.9816 20.5497 11.3791C20.803 12.2434 20.5154 13.2987 19.6012 13.8359L19.5993 13.837L12.9828 17.7649C12.9758 17.7691 12.9686 17.7732 12.9614 17.7772C12.3393 18.1194 11.563 18.1239 10.9415 17.7732L10.9271 17.7649L4.30763 13.8352C3.4545 13.3294 3.14843 12.3645 3.32663 11.5329C3.41342 11.1278 3.81211 10.8699 4.21713 10.9567C4.62215 11.0435 4.88012 11.4421 4.79333 11.8472C4.73157 12.1354 4.84586 12.4106 5.07234 12.5448L11.684 16.4699C11.8396 16.5548 12.0556 16.5594 12.23 16.4675L18.8407 12.543C19.0849 12.3998 19.1967 12.0961 19.1102 11.801C18.9937 11.4035 19.2215 10.9868 19.619 10.8703ZM20.5784 15.4411C20.4796 15.0388 20.0734 14.7928 19.6711 14.8916C19.2689 14.9904 19.0229 15.3966 19.1217 15.7989C19.1924 16.0871 19.0801 16.3745 18.8453 16.5161L18.8441 16.5168L12.24 20.4375C12.0657 20.5294 11.8496 20.5249 11.6941 20.4399L5.08287 16.515L5.08027 16.5135C4.86355 16.386 4.75203 16.1341 4.79161 15.8719C4.85343 15.4624 4.57152 15.0802 4.16195 15.0184C3.75237 14.9566 3.37023 15.2385 3.30841 15.6481C3.18805 16.4454 3.51607 17.3328 4.31831 17.8056L4.31974 17.8064L10.9371 21.7349L10.9515 21.7433C11.5731 22.0939 12.3493 22.0894 12.9714 21.7472C12.9756 21.7449 12.9797 21.7426 12.9839 21.7402C12.9869 21.7385 12.9899 21.7367 12.9929 21.7349L19.6129 17.8049L19.6159 17.8031C20.4803 17.2845 20.7875 16.2924 20.5784 15.4411Z" fill="#161721"/>
</svg>
