<svg width="24" height="24" viewBox="0 0 24 24" fill="none" xmlns="http://www.w3.org/2000/svg">
<path d="M2.61322 8.93575L11.8287 13.5435C11.8824 13.5704 11.9416 13.5838 12.0003 13.5838C12.0591 13.5838 12.1182 13.5704 12.172 13.5435L21.3874 8.93575C21.5176 8.87047 21.5997 8.73762 21.5997 8.59209C21.5997 8.44656 21.5176 8.31371 21.3874 8.24843L12.172 3.6407C12.0641 3.58656 11.9366 3.58656 11.8283 3.6407L2.61283 8.24843C2.48305 8.31371 2.40088 8.44656 2.40088 8.59209C2.40088 8.73762 2.48305 8.87047 2.61322 8.93575ZM11.6892 4.5692C11.8851 4.47128 12.1156 4.47128 12.3114 4.5692L20.1083 8.46765C20.2109 8.51892 20.2109 8.66526 20.1083 8.71653L12.3114 12.615C12.1156 12.7129 11.8851 12.7129 11.6892 12.615L3.89231 8.71653C3.78976 8.66526 3.78976 8.51892 3.89231 8.46765L11.6892 4.5692Z" fill="#0C2739"/>
<path d="M21.0435 11.3203L11.9997 15.8424L2.95584 11.3203C2.76577 11.2251 2.53539 11.3026 2.44054 11.4919C2.3457 11.6816 2.4225 11.9124 2.61218 12.0072L11.8276 16.6149C11.8818 16.6422 11.9409 16.6556 11.9997 16.6556C12.0584 16.6556 12.1175 16.6422 12.1713 16.6153L21.3868 12.0076C21.5764 11.9128 21.6532 11.682 21.5584 11.4923C21.4632 11.3026 21.2332 11.2258 21.0435 11.3203Z" fill="#0C2739"/>
<path d="M21.0435 14.392L11.9997 18.9141L2.95584 14.392C2.76577 14.2975 2.53539 14.3743 2.44054 14.5636C2.3457 14.7533 2.4225 14.9841 2.61218 15.0789L11.8276 19.6866C11.8818 19.7139 11.9409 19.7273 11.9997 19.7273C12.0584 19.7273 12.1175 19.7139 12.1713 19.687L21.3868 15.0793C21.5764 14.9844 21.6532 14.7537 21.5584 14.564C21.4632 14.3743 21.2332 14.2975 21.0435 14.392Z" fill="#0C2739"/>
</svg>
