<svg width="20" height="20" viewBox="0 0 20 20" fill="none" xmlns="http://www.w3.org/2000/svg">
<path fill-rule="evenodd" clip-rule="evenodd" d="M2 10C2 5.58887 5.58853 2 10 2C14.4115 2 18 5.58887 18 10C18 14.4111 14.4115 18 10 18C5.58853 18 2 14.4111 2 10ZM2.66666 10C2.66666 14.0436 5.95638 17.3333 10 17.3333C14.0436 17.3333 17.3333 14.0436 17.3333 10C17.3333 5.95638 14.0436 2.66666 10 2.66666C5.95638 2.66666 2.66666 5.95638 2.66666 10ZM8.51369 6.71963L13.1803 9.71963C13.2754 9.78085 13.3333 9.88663 13.3333 9.99991C13.3333 10.1132 13.2754 10.219 13.1803 10.2802L8.51369 13.2802C8.459 13.3157 8.39584 13.3333 8.33334 13.3333C8.27866 13.3333 8.22331 13.3196 8.17384 13.2926C8.06641 13.234 8 13.122 8 12.9999V6.99991C8 6.87785 8.06641 6.76585 8.17384 6.70725C8.27931 6.64932 8.41147 6.65291 8.51369 6.71963ZM8.66666 7.6106V12.3892L12.3835 9.99991L8.66666 7.6106Z" fill="#0D273A"/>
</svg>
