<svg width="25" height="24" viewBox="0 0 25 24" fill="none" xmlns="http://www.w3.org/2000/svg">
<path fill-rule="evenodd" clip-rule="evenodd" d="M4 3.29013C4 2.30434 4.80422 1.50012 5.79001 1.50012H14.7C15.2573 1.50012 15.7582 1.75317 16.0913 2.15725C16.3549 2.47683 16.8276 2.52228 17.1471 2.25877C17.4667 1.99525 17.5122 1.52256 17.2487 1.20298C16.6418 0.467055 15.7227 0.00012207 14.7 0.00012207H5.79001C3.9758 0.00012207 2.5 1.47592 2.5 3.29013V17.5201C2.5 18.4225 2.8615 19.2523 3.45966 19.8505C3.75255 20.1434 4.22743 20.1434 4.52032 19.8505C4.81321 19.5576 4.81321 19.0827 4.52032 18.7898C4.19848 18.468 4 18.0177 4 17.5201V3.29013ZM11.7646 10.5293C12.0187 10.4023 12.3227 10.4297 12.55 10.6001L16.55 13.6001C16.7389 13.7418 16.85 13.9641 16.85 14.2001C16.85 14.4362 16.7389 14.6585 16.55 14.8001L12.55 17.8001C12.3227 17.9706 12.0187 17.998 11.7646 17.871C11.5105 17.7439 11.35 17.4842 11.35 17.2001V11.2001C11.35 10.9161 11.5105 10.6564 11.7646 10.5293ZM12.85 15.7001L14.85 14.2001L12.85 12.7001V15.7001ZM7.2002 19.2001V7.20007C7.2002 5.81936 8.31948 4.70007 9.7002 4.70007H15.3002V9.29004C15.3002 9.70425 15.636 10.04 16.0502 10.04H20.2002V14.3681C20.2002 14.7823 20.536 15.1181 20.9502 15.1181C21.3644 15.1181 21.7002 14.7823 21.7002 14.3681V9.03616C21.7002 8.1857 21.3392 7.37521 20.7071 6.80628L17.5559 3.97019C17.005 3.4744 16.2901 3.20007 15.549 3.20007H9.7002C7.49106 3.20007 5.7002 4.99093 5.7002 7.20007V19.2001C5.7002 21.4092 7.49106 23.2001 9.7002 23.2001H14.4502C14.8644 23.2001 15.2002 22.8643 15.2002 22.4501C15.2002 22.0359 14.8644 21.7001 14.4502 21.7001H9.7002C8.31948 21.7001 7.2002 20.5808 7.2002 19.2001ZM20.1158 8.54004C20.0334 8.30491 19.8928 8.09144 19.7036 7.92122L16.8002 5.30812V8.54004H20.1158Z" fill="#161721"/>
</svg>
