<svg width="24" height="24" viewBox="0 0 24 24" fill="none" xmlns="http://www.w3.org/2000/svg">
<path fill-rule="evenodd" clip-rule="evenodd" d="M5.09 2.29999C4.10421 2.29999 3.29999 3.10421 3.29999 4.09V18.32C3.29999 18.8176 3.49847 19.2678 3.82031 19.5897C4.1132 19.8826 4.1132 20.3574 3.82031 20.6503C3.52742 20.9432 3.05254 20.9432 2.75965 20.6503C2.16149 20.0522 1.79999 19.2224 1.79999 18.32V4.09C1.79999 2.27578 3.27578 0.799988 5.09 0.799988H14C15.0227 0.799988 15.9418 1.26692 16.5486 2.00284C16.8122 2.32243 16.7667 2.79512 16.4471 3.05863C16.1275 3.32215 15.6548 3.2767 15.3913 2.95712C15.0581 2.55304 14.5573 2.29999 14 2.29999H5.09ZM6.51527 7.50345C6.63692 6.22726 7.46213 5.5 8.15 5.5H14.2V5.84744V10.49C14.2 10.9042 14.5358 11.24 14.95 11.24H19.39V20.16C19.39 21.6319 18.4915 22.49 17.74 22.49H8.15C7.40813 22.49 6.5 21.6214 6.5 20.16V7.82999C6.5 7.71748 6.50525 7.60861 6.51527 7.50345ZM19.0654 9.73999C19.0009 9.61754 18.9281 9.50376 18.8478 9.40028L16.0678 6.11027C15.9528 5.96197 15.8287 5.84281 15.7 5.75052V9.73999H19.0654ZM8.15 4C6.25455 4 5 5.88794 5 7.82999V20.16C5 22.0786 6.25187 23.99 8.15 23.99H17.74C19.6485 23.99 20.89 22.0881 20.89 20.16V11.12C20.89 10.1546 20.5964 9.20697 20.0322 8.47973L17.2522 5.18972C16.6815 4.45452 15.8644 4 14.96 4H8.15ZM11.85 11.4C11.6227 11.2296 11.3187 11.2021 11.0646 11.3292C10.8105 11.4562 10.65 11.7159 10.65 12V18C10.65 18.2841 10.8105 18.5438 11.0646 18.6708C11.3187 18.7979 11.6227 18.7705 11.85 18.6L15.85 15.6C16.0388 15.4584 16.15 15.2361 16.15 15C16.15 14.7639 16.0388 14.5416 15.85 14.4L11.85 11.4ZM14.15 15L12.15 16.5V13.5L14.15 15Z" fill="#161721"/>
</svg>
