<svg width="20" height="24" viewBox="0 0 20 24" fill="none" xmlns="http://www.w3.org/2000/svg">
<path fill-rule="evenodd" clip-rule="evenodd" d="M1.5 3.29001C1.5 2.30422 2.30422 1.5 3.29001 1.5H12.2C12.7573 1.5 13.2582 1.75305 13.5913 2.15713C13.8549 2.47671 14.3276 2.52216 14.6471 2.25865C14.9667 1.99513 15.0122 1.52244 14.7487 1.20286C14.1418 0.466933 13.2227 0 12.2 0H3.29001C1.4758 0 0 1.4758 0 3.29001V17.52C0 18.4224 0.3615 19.2522 0.95966 19.8503C1.25255 20.1432 1.72743 20.1432 2.02032 19.8503C2.31321 19.5574 2.31321 19.0826 2.02032 18.7897C1.69848 18.4678 1.5 18.0176 1.5 17.52V3.29001ZM9.2646 10.5292C9.51868 10.4022 9.82274 10.4296 10.05 10.6L14.05 13.6C14.2389 13.7417 14.35 13.9639 14.35 14.2C14.35 14.4361 14.2389 14.6584 14.05 14.8L10.05 17.8C9.82274 17.9705 9.51868 17.9979 9.2646 17.8708C9.01051 17.7438 8.85001 17.4841 8.85001 17.2V11.2C8.85001 10.9159 9.01051 10.6562 9.2646 10.5292ZM10.35 15.7L12.35 14.2L10.35 12.7V15.7ZM4.7002 19.2V7.19995C4.7002 5.81924 5.81948 4.69995 7.2002 4.69995H12.8002V9.28992C12.8002 9.70413 13.136 10.0399 13.5502 10.0399H17.7002V14.368C17.7002 14.7822 18.036 15.118 18.4502 15.118C18.8644 15.118 19.2002 14.7822 19.2002 14.368V9.03604C19.2002 8.18558 18.8392 7.37508 18.2071 6.80616L15.0559 3.97007C14.505 3.47428 13.7901 3.19995 13.049 3.19995H7.2002C4.99106 3.19995 3.2002 4.99081 3.2002 7.19995V19.2C3.2002 21.4091 4.99106 23.2 7.2002 23.2H11.9502C12.3644 23.2 12.7002 22.8642 12.7002 22.45C12.7002 22.0357 12.3644 21.7 11.9502 21.7H7.2002C5.81948 21.7 4.7002 20.5807 4.7002 19.2ZM17.6158 8.53992C17.5334 8.30479 17.3928 8.09132 17.2036 7.9211L14.3002 5.308V8.53992H17.6158Z" fill="#161721"/>
</svg>
