<svg width="24" height="24" viewBox="0 0 24 24" fill="none" xmlns="http://www.w3.org/2000/svg">
<path d="M5.29001 1.5C4.30422 1.5 3.5 2.30422 3.5 3.29001V17.52C3.5 18.0176 3.69848 18.4678 4.02032 18.7897C4.31321 19.0826 4.31321 19.5574 4.02032 19.8503C3.72743 20.1432 3.25255 20.1432 2.95966 19.8503C2.3615 19.2522 2 18.4224 2 17.52V3.29001C2 1.4758 3.4758 0 5.29001 0H14.2C15.2227 0 16.1418 0.466933 16.7487 1.20286C17.0122 1.52244 16.9667 1.99513 16.6471 2.25865C16.3276 2.52216 15.8549 2.47671 15.5913 2.15713C15.2582 1.75305 14.7573 1.5 14.2 1.5H5.29001Z" fill="#161721"/>
<path fill-rule="evenodd" clip-rule="evenodd" d="M12.05 10.6C11.8227 10.4296 11.5187 10.4022 11.2646 10.5292C11.0105 10.6562 10.85 10.9159 10.85 11.2V17.2C10.85 17.4841 11.0105 17.7438 11.2646 17.8708C11.5187 17.9979 11.8227 17.9705 12.05 17.8L16.05 14.8C16.2389 14.6584 16.35 14.4361 16.35 14.2C16.35 13.9639 16.2389 13.7417 16.05 13.6L12.05 10.6ZM14.35 14.2L12.35 15.7V12.7L14.35 14.2Z" fill="#161721"/>
<path fill-rule="evenodd" clip-rule="evenodd" d="M8.35001 3.20001C6.45456 3.20001 5.20001 5.08795 5.20001 7.03V19.36C5.20001 21.2786 6.45188 23.19 8.35001 23.19H17.94C19.8485 23.19 21.09 21.2881 21.09 19.36V10.32C21.09 9.35457 20.7964 8.40698 20.2322 7.67974L17.4522 4.38973C16.8815 3.65453 16.0644 3.20001 15.16 3.20001H8.35001ZM6.71528 6.70347C6.83693 5.42727 7.66214 4.70001 8.35001 4.70001H14.4V9.69C14.4 10.1042 14.7358 10.44 15.15 10.44H19.59V19.36C19.59 20.8319 18.6915 21.69 17.94 21.69H8.35001C7.60814 21.69 6.70001 20.8214 6.70001 19.36V7.03C6.70001 6.91749 6.70526 6.80862 6.71528 6.70347ZM19.2654 8.94C19.201 8.81755 19.1281 8.70378 19.0479 8.60029L16.2679 5.31028C16.1528 5.16198 16.0287 5.04282 15.9 4.95054V8.94H19.2654Z" fill="#161721"/>
</svg>
