<svg width="24" height="24" viewBox="0 0 24 24" fill="none" xmlns="http://www.w3.org/2000/svg">
<path fill-rule="evenodd" clip-rule="evenodd" d="M3.1001 4.7998C3.1001 4.52366 3.32396 4.2998 3.6001 4.2998H21.6001C21.8762 4.2998 22.1001 4.52366 22.1001 4.7998C22.1001 5.07595 21.8762 5.2998 21.6001 5.2998H3.6001C3.32396 5.2998 3.1001 5.07595 3.1001 4.7998ZM11.5 9.59982C11.5 9.32368 11.7239 9.09982 12 9.09982L21.6 9.09982C21.8761 9.09982 22.1 9.32368 22.1 9.59982C22.1 9.87596 21.8761 10.0998 21.6 10.0998L12 10.0998C11.7239 10.0998 11.5 9.87597 11.5 9.59982ZM14.3999 13.8998C14.1238 13.8998 13.8999 14.1237 13.8999 14.3998C13.8999 14.676 14.1238 14.8998 14.3999 14.8998L21.5999 14.8998C21.876 14.8998 22.0999 14.676 22.0999 14.3998C22.0999 14.1237 21.876 13.8998 21.5999 13.8998L14.3999 13.8998ZM11.5 19.1998C11.5 18.9237 11.7239 18.6998 12 18.6998L21.6 18.6998C21.8761 18.6998 22.1 18.9237 22.1 19.1998C22.1 19.476 21.8761 19.6998 21.6 19.6998L12 19.6998C11.7239 19.6998 11.5 19.476 11.5 19.1998ZM3.85925 9.17222C3.70486 9.07865 3.51201 9.07558 3.35472 9.16418C3.19742 9.25278 3.1001 9.41929 3.1001 9.59982V19.1998C3.1001 19.3879 3.20562 19.56 3.37321 19.6454C3.54079 19.7307 3.74209 19.7148 3.89418 19.6042L11.0942 14.3678C11.2296 14.2694 11.3067 14.1097 11.2997 13.9425C11.2926 13.7752 11.2024 13.6226 11.0592 13.5359L3.85925 9.17222ZM4.1001 18.2179V10.4875L9.89792 14.0013L4.1001 18.2179Z" fill="#0C2739"/>
</svg>
