<svg width="20" height="16" viewBox="0 0 20 16" fill="none" xmlns="http://www.w3.org/2000/svg">
<path fill-rule="evenodd" clip-rule="evenodd" d="M0.100098 0.799805C0.100098 0.523662 0.323955 0.299805 0.600098 0.299805H18.6001C18.8762 0.299805 19.1001 0.523662 19.1001 0.799805C19.1001 1.07595 18.8762 1.2998 18.6001 1.2998H0.600098C0.323955 1.2998 0.100098 1.07595 0.100098 0.799805ZM8.5 5.59982C8.5 5.32368 8.72386 5.09982 9 5.09982L18.6 5.09982C18.8761 5.09982 19.1 5.32368 19.1 5.59982C19.1 5.87596 18.8761 6.09982 18.6 6.09982L9 6.09982C8.72386 6.09982 8.5 5.87597 8.5 5.59982ZM11.3999 9.89981C11.1238 9.89981 10.8999 10.1237 10.8999 10.3998C10.8999 10.676 11.1238 10.8998 11.3999 10.8998L18.5999 10.8998C18.876 10.8998 19.0999 10.676 19.0999 10.3998C19.0999 10.1237 18.876 9.89981 18.5999 9.89981L11.3999 9.89981ZM8.5 15.1998C8.5 14.9237 8.72386 14.6998 9 14.6998L18.6 14.6998C18.8761 14.6998 19.1 14.9237 19.1 15.1998C19.1 15.476 18.8761 15.6998 18.6 15.6998L9 15.6998C8.72386 15.6998 8.5 15.476 8.5 15.1998ZM0.859249 5.17222C0.704857 5.07865 0.512013 5.07558 0.354716 5.16418C0.197418 5.25278 0.100098 5.41929 0.100098 5.59982V15.1998C0.100098 15.3879 0.205624 15.56 0.373209 15.6454C0.540794 15.7307 0.742091 15.7148 0.894184 15.6042L8.09418 10.3678C8.22955 10.2694 8.30668 10.1097 8.29966 9.94248C8.29263 9.77525 8.20239 9.62262 8.05925 9.53586L0.859249 5.17222ZM1.1001 14.2179V6.48751L6.89792 10.0013L1.1001 14.2179Z" fill="#0C2739"/>
</svg>
