<svg width="24" height="24" viewBox="0 0 24 24" fill="none" xmlns="http://www.w3.org/2000/svg">
<path d="M16.3 21.455H13.23C12.82 21.455 12.48 21.115 12.48 20.705C12.48 20.245 12.3 19.815 11.98 19.485C11.33 18.835 10.2 18.835 9.55 19.485C9.22 19.815 9.05 20.245 9.05 20.705C9.05 21.115 8.71 21.455 8.3 21.455H5.23C4.8 21.455 4.38 21.365 3.98 21.205C3.58 21.035 3.23 20.795 2.93 20.495C2.63 20.195 2.39 19.835 2.23 19.435C2.08 19.035 2 18.615 2 18.185V15.475C2 15.055 2.34 14.725 2.75 14.725C3.22 14.725 3.66 14.545 3.99 14.215C4.32 13.885 4.5 13.435 4.5 12.975C4.5 12.515 4.32 12.065 3.99 11.735C3.66 11.405 3.22 11.225 2.75 11.225C2.34 11.225 2 10.885 2 10.475V7.705C2 7.285 2.08 6.865 2.24 6.465C2.4 6.065 2.64 5.715 2.94 5.405C3.24 5.105 3.59 4.865 3.99 4.695C4.38 4.525 4.8 4.445 5.23 4.445H7.63C7.77 3.875 8.06 3.345 8.49 2.915C9.7 1.695 11.83 1.695 13.04 2.915C13.47 3.345 13.76 3.865 13.9 4.445H16.31C16.74 4.445 17.16 4.535 17.55 4.695C17.94 4.855 18.3 5.095 18.6 5.405C18.9 5.715 19.14 6.065 19.3 6.455C19.46 6.855 19.54 7.265 19.54 7.695V9.755C19.71 9.795 19.88 9.855 20.04 9.925C20.44 10.095 20.79 10.335 21.09 10.645C21.39 10.955 21.62 11.315 21.78 11.715C21.94 12.115 22.01 12.535 22.01 12.955C22.01 13.375 21.93 13.795 21.77 14.185C21.61 14.585 21.37 14.935 21.07 15.235C20.77 15.535 20.42 15.775 20.03 15.935C19.87 16.005 19.71 16.055 19.54 16.095V18.155C19.54 18.575 19.47 18.995 19.31 19.395C19.15 19.795 18.92 20.155 18.62 20.465C18.32 20.775 17.96 21.015 17.57 21.185C17.17 21.355 16.75 21.445 16.32 21.445L16.3 21.455ZM3.5 16.135V18.195C3.5 18.435 3.54 18.655 3.63 18.865C3.72 19.075 3.84 19.265 4 19.435C4.16 19.605 4.35 19.725 4.56 19.815C4.77 19.905 5 19.945 5.23 19.955H7.63C7.77 19.385 8.06 18.855 8.49 18.425C9.7 17.205 11.83 17.205 13.04 18.425C13.47 18.855 13.76 19.375 13.9 19.955H16.31C16.54 19.955 16.77 19.905 16.98 19.815C17.19 19.725 17.38 19.595 17.55 19.425C17.71 19.255 17.84 19.065 17.92 18.855C18.01 18.635 18.05 18.415 18.04 18.175V15.445C18.04 15.035 18.37 14.695 18.79 14.695C19.02 14.695 19.24 14.645 19.46 14.565C19.67 14.475 19.86 14.355 20.02 14.185C20.18 14.025 20.31 13.835 20.4 13.615C20.48 13.405 20.53 13.185 20.53 12.955V12.935C20.53 12.705 20.49 12.475 20.41 12.265C20.33 12.055 20.2 11.865 20.04 11.695C19.88 11.535 19.69 11.405 19.48 11.315C19.27 11.225 19.04 11.175 18.81 11.175C18.4 11.175 18.06 10.835 18.06 10.425V7.705C18.06 7.475 18.02 7.245 17.93 7.035C17.84 6.825 17.72 6.635 17.55 6.475C17.39 6.315 17.2 6.185 16.99 6.095C16.78 6.005 16.55 5.965 16.32 5.955H13.25C12.84 5.955 12.5 5.615 12.5 5.205C12.5 4.745 12.32 4.315 12 3.985C11.36 3.345 10.21 3.345 9.57 3.985C9.24 4.315 9.07 4.745 9.07 5.205C9.07 5.615 8.73 5.955 8.32 5.955H5.23C5 5.955 4.78 6.005 4.57 6.095C4.36 6.185 4.17 6.315 4.01 6.475C3.85 6.635 3.72 6.825 3.63 7.045C3.54 7.255 3.5 7.485 3.5 7.715V9.825C4.08 9.965 4.62 10.255 5.05 10.695C5.66 11.305 6 12.125 6 12.995C6 13.865 5.65 14.685 5.05 15.295C4.62 15.725 4.08 16.025 3.5 16.165V16.135Z" fill="#161721"/>
</svg>
