<svg width="24" height="24" viewBox="0 0 24 24" fill="none" xmlns="http://www.w3.org/2000/svg">
<path d="M13.3539 7.64721L11.2071 5.50018H15C16.933 5.50018 18.5 7.06718 18.5 9.00018V17.0502C17.3589 17.2818 16.5 18.2907 16.5 19.5002C16.5 20.8809 17.6193 22.0002 19 22.0002C20.3807 22.0002 21.5 20.8809 21.5 19.5002C21.5 18.2907 20.6411 17.2818 19.5 17.0502V9.00018C19.5 6.5149 17.4853 4.50018 15 4.50018H11.2072L13.3539 2.35355L12.6468 1.64642L9.29289 5.00016L12.6468 8.35429L13.3539 7.64721Z" fill="#0C2739"/>
<path d="M6 17.0502C7.14112 17.2818 8 18.2907 8 19.5002C8 20.8809 6.88071 22.0002 5.5 22.0002C4.11929 22.0002 3 20.8809 3 19.5002C3 18.2907 3.85888 17.2818 5 17.0502V7.95017C3.85888 7.71854 3 6.70966 3 5.50018C3 4.11947 4.11929 3.00018 5.5 3.00018C6.88071 3.00018 8 4.11947 8 5.50018C8 6.70966 7.14112 7.71854 6 7.95017V17.0502Z" fill="#0C2739"/>
</svg>
