<svg width="24" height="24" viewBox="0 0 24 24" fill="none" xmlns="http://www.w3.org/2000/svg">
<path fill-rule="evenodd" clip-rule="evenodd" d="M5.25 2C5.25 1.58579 5.58579 1.25 6 1.25H18C18.4142 1.25 18.75 1.58579 18.75 2V9C18.75 9.41421 18.4142 9.75 18 9.75C17.5858 9.75 17.25 9.41421 17.25 9V2.75H6.75V9C6.75 9.41421 6.41421 9.75 6 9.75C5.58579 9.75 5.25 9.41421 5.25 9V2Z" fill="black"/>
<path fill-rule="evenodd" clip-rule="evenodd" d="M4 9.75C3.66848 9.75 3.35054 9.8817 3.11612 10.1161C2.8817 10.3505 2.75 10.6685 2.75 11V16C2.75 16.3315 2.8817 16.6495 3.11612 16.8839C3.35054 17.1183 3.66848 17.25 4 17.25H6C6.41421 17.25 6.75 17.5858 6.75 18C6.75 18.4142 6.41421 18.75 6 18.75H4C3.27065 18.75 2.57118 18.4603 2.05546 17.9445C1.53973 17.4288 1.25 16.7293 1.25 16V11C1.25 10.2707 1.53973 9.57118 2.05546 9.05546C2.57118 8.53973 3.27065 8.25 4 8.25H20C20.7293 8.25 21.4288 8.53973 21.9445 9.05546C22.4603 9.57118 22.75 10.2707 22.75 11V16C22.75 16.7293 22.4603 17.4288 21.9445 17.9445C21.4288 18.4603 20.7293 18.75 20 18.75H18C17.5858 18.75 17.25 18.4142 17.25 18C17.25 17.5858 17.5858 17.25 18 17.25H20C20.3315 17.25 20.6495 17.1183 20.8839 16.8839C21.1183 16.6495 21.25 16.3315 21.25 16V11C21.25 10.6685 21.1183 10.3505 20.8839 10.1161C20.6495 9.8817 20.3315 9.75 20 9.75H4Z" fill="black"/>
<path fill-rule="evenodd" clip-rule="evenodd" d="M5.25 14C5.25 13.5858 5.58579 13.25 6 13.25H18C18.4142 13.25 18.75 13.5858 18.75 14V22C18.75 22.4142 18.4142 22.75 18 22.75H6C5.58579 22.75 5.25 22.4142 5.25 22V14ZM6.75 14.75V21.25H17.25V14.75H6.75Z" fill="black"/>
</svg>
