<svg width="24" height="24" viewBox="0 0 24 24" fill="none" xmlns="http://www.w3.org/2000/svg">
	<path fill="currentColor" d="M21.1,11.7c-0.4-0.6-0.8-1-1.4-1.4c-0.5-0.3-1.1-0.6-1.7-0.7c-0.4,0-0.8-0.1-1.3-0.1c-0.3-3.7-3.2-5.5-6-5.4
		C9.4,4.1,8,4.6,6.9,5.6C5.8,6.5,5,8,5,9.9c-2.2,1-3.4,3.5-2.9,6c0.3,1.4,1.2,2.8,2.6,3.5c0.4,0.2,0.9,0.4,1.4,0.5
		c0.8,0.1,1.6,0,2.4,0c0.8,0,1.7,0,2.5,0c0,0,0-1.5,0-1.5c-1,0-2,0-3,0c-0.9,0-1.8,0-2.6-0.4c-0.9-0.5-1.6-1.5-1.8-2.5
		c-0.4-1.8,0.5-3.6,2-4.3c0.5-0.2,0.9-0.8,0.9-1.3c0-1.5,0.6-2.5,1.4-3.2s1.9-1.1,3-1.1c2.2,0,4.3,1.3,4.5,4.1
		c0.1,0.8,0.8,1.4,1.6,1.3c0.8-0.1,1.6,0.2,2.3,0.8c0.1,0.1,1.3,1.2,1.3,3c0,0.8-0.3,1.7-0.8,2.4v2.1c0.4-0.3,0.8-0.7,1.1-1.1
		c0.8-1,1.2-2.3,1.2-3.5C22,13.4,21.6,12.4,21.1,11.7z"/>
	<path fill="currentColor" d="M17.8,16.2h-0.1v-0.8c0-1.3-1.1-2.4-2.4-2.4S13,14.1,13,15.4v0.8h-0.1c-0.5,0-0.8,0.4-0.8,0.8v3.3
		c0,0.5,0.4,0.8,0.8,0.8h5c0.5,0,0.8-0.4,0.8-0.8V17C18.7,16.6,18.3,16.2,17.8,16.2z M16.7,16.2h-2.8v-0.8c0-0.8,0.6-1.4,1.4-1.4
		c0.8,0,1.4,0.6,1.4,1.4V16.2z"/>
</svg>
