<svg width="24" height="24" viewBox="0 0 24 24" fill="none" xmlns="http://www.w3.org/2000/svg">
<mask id="path-1-inside-1_175_405" fill="white">
<path fill-rule="evenodd" clip-rule="evenodd" d="M16.812 9.47823C16.5334 5.81106 13.6059 4.00465 10.7987 4.05638C9.38492 4.08243 7.95827 4.57331 6.8662 5.55694C5.76673 6.54723 5.04772 8.00081 5.00072 9.86132C2.82479 10.8594 1.62176 13.3759 2.11485 15.8184L2.11504 15.8194C2.40549 17.2484 3.341 18.6233 4.67924 19.3575L4.6799 19.3579C5.79012 19.9656 6.82929 19.9631 7.32696 19.9299C8.55127 19.9263 9.77553 19.9214 11 19.9161V18.4161C9.76542 18.4214 8.53159 18.4264 7.2978 18.43C7.28071 18.4301 7.26363 18.4307 7.24658 18.4319C6.8932 18.4571 6.17003 18.4634 5.4005 18.0423C4.47904 17.5366 3.79476 16.5519 3.5851 15.5212C3.21961 13.7097 4.12947 11.9125 5.62409 11.2257C6.16449 10.9915 6.48003 10.4729 6.49953 9.92677L6.4996 9.92677L6.49982 9.91679C6.53294 8.43779 7.08886 7.37514 7.87007 6.6715C8.663 5.95731 9.73011 5.57632 10.8263 5.55612C13.0151 5.51579 15.1465 6.88786 15.3215 9.66714L15.3214 9.66715L15.3223 9.67903C15.3886 10.5177 16.1334 11.0365 16.879 10.9777L16.879 10.9777L16.8853 10.9772C17.6922 10.9066 18.4969 11.1854 19.1515 11.7292C19.2923 11.8539 20.5 12.9454 20.5 14.68C20.5 15.4833 20.1952 16.3884 19.6667 17.1101V19.1851C20.0911 18.8938 20.4631 18.5309 20.7738 18.1326C21.539 17.1519 22 15.8792 22 14.68C22 13.4269 21.5543 12.4266 21.1078 11.739C20.8842 11.3947 20.6573 11.1238 20.4783 10.9316C20.3886 10.8353 20.3104 10.7582 20.25 10.7012C20.2197 10.6726 20.1941 10.6492 20.1741 10.6312L20.1552 10.6144C20.1517 10.6113 20.1485 10.6085 20.1458 10.6061C20.1405 10.6013 20.1372 10.5985 20.1383 10.5995L20.1338 10.5955L20.1209 10.5844C19.2109 9.82421 18.041 9.38712 16.812 9.47823ZM19.1515 11.7292L19.1461 11.7244L19.1417 11.7206L19.64 11.16L19.1592 11.7356L19.1515 11.7292ZM12.8333 16.1899H12.9739V15.3591C12.9739 14.057 14.0308 13 15.333 13C16.6352 13 17.6921 14.057 17.6921 15.3591L17.6921 16.1899H17.8333C18.2936 16.1899 18.6667 16.563 18.6667 17.0232V20.3566C18.6667 20.8168 18.2936 21.1899 17.8333 21.1899H12.8333C12.3731 21.1899 12 20.8168 12 20.3566V17.0232C12 16.563 12.3731 16.1899 12.8333 16.1899ZM16.748 16.1899H13.918V15.3591C13.918 14.5784 14.5523 13.9441 15.333 13.9441C16.1137 13.9441 16.748 14.5784 16.748 15.3591L16.748 16.1899Z"/>
</mask>
<path fill-rule="evenodd" clip-rule="evenodd" d="M16.812 9.47823C16.5334 5.81106 13.6059 4.00465 10.7987 4.05638C9.38492 4.08243 7.95827 4.57331 6.8662 5.55694C5.76673 6.54723 5.04772 8.00081 5.00072 9.86132C2.82479 10.8594 1.62176 13.3759 2.11485 15.8184L2.11504 15.8194C2.40549 17.2484 3.341 18.6233 4.67924 19.3575L4.6799 19.3579C5.79012 19.9656 6.82929 19.9631 7.32696 19.9299C8.55127 19.9263 9.77553 19.9214 11 19.9161V18.4161C9.76542 18.4214 8.53159 18.4264 7.2978 18.43C7.28071 18.4301 7.26363 18.4307 7.24658 18.4319C6.8932 18.4571 6.17003 18.4634 5.4005 18.0423C4.47904 17.5366 3.79476 16.5519 3.5851 15.5212C3.21961 13.7097 4.12947 11.9125 5.62409 11.2257C6.16449 10.9915 6.48003 10.4729 6.49953 9.92677L6.4996 9.92677L6.49982 9.91679C6.53294 8.43779 7.08886 7.37514 7.87007 6.6715C8.663 5.95731 9.73011 5.57632 10.8263 5.55612C13.0151 5.51579 15.1465 6.88786 15.3215 9.66714L15.3214 9.66715L15.3223 9.67903C15.3886 10.5177 16.1334 11.0365 16.879 10.9777L16.879 10.9777L16.8853 10.9772C17.6922 10.9066 18.4969 11.1854 19.1515 11.7292C19.2923 11.8539 20.5 12.9454 20.5 14.68C20.5 15.4833 20.1952 16.3884 19.6667 17.1101V19.1851C20.0911 18.8938 20.4631 18.5309 20.7738 18.1326C21.539 17.1519 22 15.8792 22 14.68C22 13.4269 21.5543 12.4266 21.1078 11.739C20.8842 11.3947 20.6573 11.1238 20.4783 10.9316C20.3886 10.8353 20.3104 10.7582 20.25 10.7012C20.2197 10.6726 20.1941 10.6492 20.1741 10.6312L20.1552 10.6144C20.1517 10.6113 20.1485 10.6085 20.1458 10.6061C20.1405 10.6013 20.1372 10.5985 20.1383 10.5995L20.1338 10.5955L20.1209 10.5844C19.2109 9.82421 18.041 9.38712 16.812 9.47823ZM19.1515 11.7292L19.1461 11.7244L19.1417 11.7206L19.64 11.16L19.1592 11.7356L19.1515 11.7292ZM12.8333 16.1899H12.9739V15.3591C12.9739 14.057 14.0308 13 15.333 13C16.6352 13 17.6921 14.057 17.6921 15.3591L17.6921 16.1899H17.8333C18.2936 16.1899 18.6667 16.563 18.6667 17.0232V20.3566C18.6667 20.8168 18.2936 21.1899 17.8333 21.1899H12.8333C12.3731 21.1899 12 20.8168 12 20.3566V17.0232C12 16.563 12.3731 16.1899 12.8333 16.1899ZM16.748 16.1899H13.918V15.3591C13.918 14.5784 14.5523 13.9441 15.333 13.9441C16.1137 13.9441 16.748 14.5784 16.748 15.3591L16.748 16.1899Z" fill="#161721"/>
<path d="M10.7987 4.05638L10.8171 5.05621L10.7987 4.05638ZM16.812 9.47823L15.8148 9.55397L15.8904 10.5493L16.8859 10.4755L16.812 9.47823ZM6.8662 5.55694L7.53545 6.29998L7.53545 6.29998L6.8662 5.55694ZM5.00072 9.86132L5.41764 10.7703L5.98465 10.5102L6.0004 9.88657L5.00072 9.86132ZM2.11485 15.8184L1.13462 16.0163L1.13476 16.017L2.11485 15.8184ZM2.11504 15.8194L1.13496 16.018L1.13508 16.0186L2.11504 15.8194ZM4.67924 19.3575L4.19821 20.2342L4.19874 20.2345L4.67924 19.3575ZM4.6799 19.3579L4.1994 20.2349L4.19975 20.2351L4.6799 19.3579ZM7.32696 19.9299L7.324 18.9299L7.29215 18.93L7.26037 18.9321L7.32696 19.9299ZM11 19.9161L11.0043 20.9161L12 20.9118V19.9161H11ZM11 18.4161H12V17.4118L10.9957 17.4161L11 18.4161ZM7.2978 18.43L7.29485 17.43L7.29484 17.43L7.2978 18.43ZM7.24658 18.4319L7.31783 19.4294L7.31783 19.4294L7.24658 18.4319ZM5.4005 18.0423L4.91939 18.919L4.92047 18.9196L5.4005 18.0423ZM3.5851 15.5212L2.60485 15.719L2.60517 15.7205L3.5851 15.5212ZM5.62409 11.2257L5.22648 10.3081L5.21645 10.3124L5.20651 10.317L5.62409 11.2257ZM6.49953 9.92677L6.53548 8.92742L5.53587 8.89146L5.50017 9.89108L6.49953 9.92677ZM6.4996 9.92677L6.46365 10.9261L7.47665 10.9626L7.49935 9.94917L6.4996 9.92677ZM6.49982 9.91679L7.49957 9.93918L7.49957 9.93917L6.49982 9.91679ZM7.87007 6.6715L7.20082 5.92846L7.20082 5.92846L7.87007 6.6715ZM10.8263 5.55612L10.8079 4.55629L10.8079 4.55629L10.8263 5.55612ZM15.3215 9.66714L15.387 10.665L16.3822 10.5997L16.3195 9.60429L15.3215 9.66714ZM15.3214 9.66715L15.2559 8.6693L14.2448 8.73568L14.3245 9.74582L15.3214 9.66715ZM15.3223 9.67903L14.3254 9.7577L14.3254 9.75773L15.3223 9.67903ZM16.879 10.9777L17.8764 10.9051L17.8034 9.90159L16.8003 9.98078L16.879 10.9777ZM16.879 10.9777L15.8817 11.0502L15.9553 12.0622L16.9661 11.9739L16.879 10.9777ZM16.8853 10.9772L16.9723 11.9734L16.9724 11.9734L16.8853 10.9772ZM19.6667 17.1101L18.8599 16.5192L18.6667 16.783V17.1101H19.6667ZM19.6667 19.1851H18.6667V21.0841L20.2325 20.0097L19.6667 19.1851ZM20.7738 18.1326L21.5623 18.7477L21.5623 18.7477L20.7738 18.1326ZM21.1078 11.739L20.2691 12.2837L20.2691 12.2837L21.1078 11.739ZM20.4783 10.9316L21.21 10.25L21.21 10.25L20.4783 10.9316ZM20.25 10.7012L20.9365 9.97411L20.9365 9.9741L20.25 10.7012ZM20.1741 10.6312L20.8422 9.8872L20.8397 9.88491L20.1741 10.6312ZM20.1552 10.6144L20.8208 9.86812L20.8189 9.86642L20.1552 10.6144ZM20.1458 10.6061L19.4835 11.3553L19.4837 11.3555L20.1458 10.6061ZM20.1383 10.5995L19.477 11.3496L20.8029 9.85226L20.1383 10.5995ZM20.1338 10.5955L20.7951 9.84534L20.7894 9.84033L20.7836 9.8354L20.1338 10.5955ZM20.1209 10.5844L20.7707 9.82431L20.762 9.81702L20.1209 10.5844ZM19.1461 11.7244L18.4834 12.4733L18.4836 12.4735L19.1461 11.7244ZM19.1417 11.7206L18.3943 11.0562L17.7284 11.8053L18.4791 12.4695L19.1417 11.7206ZM19.64 11.16L20.4074 11.8011L18.8926 10.4956L19.64 11.16ZM19.1592 11.7356L18.5191 12.5039L19.2863 13.1431L19.9266 12.3767L19.1592 11.7356ZM12.9739 16.1899V17.1899H13.9739V16.1899H12.9739ZM12.9739 15.3591L11.9739 15.3591V15.3591H12.9739ZM17.6921 15.3591L18.6921 15.3591V15.3591H17.6921ZM17.6921 16.1899L16.6921 16.1899L16.6921 17.1899H17.6921V16.1899ZM13.918 16.1899H12.918V17.1899H13.918V16.1899ZM16.748 16.1899V17.1899H17.748L17.748 16.1899L16.748 16.1899ZM16.748 15.3591L17.748 15.3591L17.748 15.3591L16.748 15.3591ZM10.8171 5.05621C13.2047 5.01221 15.5843 6.51871 15.8148 9.55397L17.8091 9.40249C17.4826 5.10341 14.007 2.99709 10.7803 3.05655L10.8171 5.05621ZM7.53545 6.29998C8.42797 5.49609 9.61487 5.07836 10.8171 5.05621L10.7803 3.05655C9.15497 3.0865 7.48858 3.65054 6.19695 4.8139L7.53545 6.29998ZM6.0004 9.88657C6.04082 8.28657 6.65015 7.09737 7.53545 6.29998L6.19695 4.8139C4.88331 5.9971 4.05462 7.71505 4.00104 9.83606L6.0004 9.88657ZM3.09507 15.6205C2.6866 13.5972 3.6959 11.56 5.41764 10.7703L4.5838 8.95237C1.95368 10.1588 0.556911 13.1546 1.13462 16.0163L3.09507 15.6205ZM3.09513 15.6208L3.09493 15.6198L1.13476 16.017L1.13496 16.018L3.09513 15.6208ZM5.16026 18.4808C4.09988 17.899 3.33158 16.7841 3.09501 15.6202L1.13508 16.0186C1.47941 17.7127 2.58211 19.3475 4.19821 20.2342L5.16026 18.4808ZM5.16039 18.4809L5.15973 18.4805L4.19874 20.2345L4.1994 20.2349L5.16039 18.4809ZM7.26037 18.9321C6.85471 18.9592 6.03405 18.9591 5.16004 18.4807L4.19975 20.2351C5.54618 20.9721 6.80388 20.9671 7.39355 20.9277L7.26037 18.9321ZM10.9957 18.9161C9.77137 18.9214 8.54763 18.9263 7.324 18.9299L7.32992 20.9299C8.5549 20.9263 9.77968 20.9214 11.0043 20.9161L10.9957 18.9161ZM10 18.4161V19.9161H12V18.4161H10ZM7.30075 19.43C8.53522 19.4264 9.76958 19.4214 11.0043 19.4161L10.9957 17.4161C9.76126 17.4214 8.52796 17.4264 7.29485 17.43L7.30075 19.43ZM7.31783 19.4294C7.31217 19.4298 7.30647 19.43 7.30076 19.43L7.29484 17.43C7.25495 17.4301 7.21509 17.4316 7.17532 17.4344L7.31783 19.4294ZM4.92047 18.9196C5.93035 19.4722 6.87564 19.4609 7.31783 19.4294L7.17533 17.4344C6.91076 17.4533 6.40972 17.4546 5.88053 17.1651L4.92047 18.9196ZM2.60517 15.7205C2.86886 17.0168 3.72067 18.2611 4.91939 18.919L5.88161 17.1657C5.23741 16.8121 4.72066 16.0869 4.56503 15.3218L2.60517 15.7205ZM5.20651 10.317C3.26037 11.2114 2.15434 13.4861 2.60486 15.719L4.56535 15.3234C4.28489 13.9334 4.99856 12.6137 6.04166 12.1343L5.20651 10.317ZM5.50017 9.89108C5.49336 10.0817 5.38637 10.2388 5.22648 10.3081L6.02169 12.1432C6.94261 11.7442 7.4667 10.8641 7.4989 9.96246L5.50017 9.89108ZM6.53555 8.92742L6.53548 8.92742L6.46359 10.9261L6.46365 10.9261L6.53555 8.92742ZM5.50007 9.89439L5.49985 9.90438L7.49935 9.94917L7.49957 9.93918L5.50007 9.89439ZM7.20082 5.92846C6.20468 6.82568 5.53904 8.15391 5.50007 9.89441L7.49957 9.93917C7.52683 8.72167 7.97303 7.92459 8.53933 7.41453L7.20082 5.92846ZM10.8079 4.55629C9.49974 4.5804 8.19302 5.03479 7.20082 5.92846L8.53932 7.41453C9.13298 6.87983 9.96048 6.57225 10.8448 6.55595L10.8079 4.55629ZM16.3195 9.60429C16.2155 7.95201 15.5173 6.65327 14.4666 5.78383C13.4315 4.92732 12.1103 4.5323 10.8079 4.55629L10.8448 6.55595C11.7312 6.53962 12.5701 6.81046 13.1916 7.32473C13.7975 7.82606 14.2525 8.603 14.3235 9.73L16.3195 9.60429ZM15.3869 10.665L15.387 10.665L15.256 8.66929L15.2559 8.6693L15.3869 10.665ZM16.3192 9.60036L16.3183 9.58848L14.3245 9.74582L14.3254 9.7577L16.3192 9.60036ZM16.8003 9.98078C16.6795 9.99032 16.5562 9.95163 16.4657 9.88013C16.3841 9.8157 16.3292 9.72662 16.3192 9.60033L14.3254 9.75773C14.4407 11.2174 15.7347 12.0711 16.9577 11.9746L16.8003 9.98078ZM17.8764 10.9052L17.8764 10.9051L15.8817 11.0502L15.8817 11.0502L17.8764 10.9052ZM16.7983 9.98095L16.792 9.98149L16.9661 11.9739L16.9723 11.9734L16.7983 9.98095ZM19.7905 10.96C18.957 10.2675 17.8968 9.88496 16.7983 9.98095L16.9724 11.9734C17.4877 11.9283 18.0369 12.1033 18.5125 12.4984L19.7905 10.96ZM21.5 14.68C21.5 12.486 19.9917 11.1376 19.8146 10.9806L18.4884 12.4777C18.5928 12.5702 19.5 13.4049 19.5 14.68H21.5ZM20.4735 17.7009C21.1167 16.8226 21.5 15.7134 21.5 14.68H19.5C19.5 15.2531 19.2737 15.9542 18.8599 16.5192L20.4735 17.7009ZM20.6667 19.1851V17.1101H18.6667V19.1851H20.6667ZM19.9854 17.5175C19.7304 17.8444 19.4316 18.1337 19.1009 18.3606L20.2325 20.0097C20.7507 19.654 21.1958 19.2174 21.5623 18.7477L19.9854 17.5175ZM21 14.68C21 15.6402 20.6237 16.6993 19.9854 17.5175L21.5623 18.7477C22.4542 17.6045 23 16.1183 23 14.68H21ZM20.2691 12.2837C20.642 12.858 21 13.6712 21 14.68H23C23 13.1825 22.4665 11.9952 21.9465 11.1944L20.2691 12.2837ZM19.7466 11.6132C19.8938 11.7713 20.0828 11.9968 20.2691 12.2837L21.9465 11.1944C21.6856 10.7927 21.4208 10.4763 21.21 10.25L19.7466 11.6132ZM19.5634 11.4282C19.6102 11.4724 19.6731 11.5343 19.7466 11.6132L21.21 10.25C21.1041 10.1363 21.0106 10.044 20.9365 9.97411L19.5634 11.4282ZM19.5059 11.3752C19.5206 11.3885 19.54 11.4062 19.5634 11.4282L20.9365 9.9741C20.8994 9.93907 20.8676 9.91001 20.8422 9.88721L19.5059 11.3752ZM19.4896 11.3607L19.5085 11.3775L20.8397 9.88491L20.8208 9.86812L19.4896 11.3607ZM19.4837 11.3555C19.4859 11.3574 19.4886 11.3598 19.4915 11.3624L20.8189 9.86642C20.8149 9.86281 20.8111 9.85947 20.8079 9.85664L19.4837 11.3555ZM20.8029 9.85226C20.8031 9.85248 20.8044 9.85362 20.8061 9.85512C20.8067 9.85564 20.809 9.85777 20.8121 9.86052C20.8132 9.86159 20.8172 9.86517 20.8221 9.86982C20.8243 9.87187 20.8299 9.87716 20.837 9.88405C20.8404 9.8874 20.847 9.89389 20.8551 9.90225C20.8592 9.90641 20.8811 9.92879 20.9066 9.9594C20.9226 9.97911 20.9668 10.0396 20.9935 10.0813C21.0545 10.1991 21.106 10.8507 20.8439 11.3076C20.4311 11.5554 19.8336 11.5518 19.7213 11.5083C19.6794 11.4879 19.6177 11.4532 19.5971 11.4403C19.5647 11.4195 19.5406 11.4012 19.5359 11.3976C19.5267 11.3907 19.5196 11.3851 19.5159 11.3821C19.5034 11.3722 19.4937 11.364 19.4934 11.3637C19.4886 11.3597 19.4849 11.3565 19.4845 11.3561C19.4824 11.3543 19.4807 11.3529 19.4805 11.3527C19.4791 11.3515 19.4783 11.3507 19.479 11.3514C19.4797 11.3519 19.4813 11.3533 19.4835 11.3553L20.8081 9.85682C20.805 9.85409 20.8023 9.8517 20.8003 9.84992C20.7996 9.84938 20.7978 9.84779 20.796 9.84617C20.7957 9.84588 20.7939 9.84438 20.7918 9.84252C20.7913 9.84213 20.7876 9.83889 20.7828 9.83487C20.7825 9.83459 20.7727 9.82631 20.7603 9.81642C20.7566 9.81346 20.7494 9.80783 20.7403 9.80093C20.7356 9.79737 20.7115 9.77908 20.6791 9.75823C20.6585 9.74536 20.5968 9.71067 20.5549 9.69028C20.4426 9.64676 19.8451 9.64316 19.4322 9.89092C19.1702 10.3479 19.2216 10.9994 19.2827 11.1173C19.3094 11.159 19.3536 11.2194 19.3696 11.2391C19.3951 11.2698 19.417 11.2921 19.421 11.2963C19.4292 11.3046 19.4358 11.3111 19.4392 11.3145C19.4462 11.3214 19.4519 11.3267 19.454 11.3287C19.459 11.3334 19.463 11.337 19.4641 11.338C19.4672 11.3408 19.4696 11.343 19.4702 11.3435C19.4719 11.3451 19.4733 11.3463 19.4737 11.3466L20.8029 9.85226ZM19.4725 11.3456L19.477 11.3496L20.7996 9.84932L20.7951 9.84534L19.4725 11.3456ZM19.471 11.3445L19.4839 11.3556L20.7836 9.8354L20.7707 9.82436L19.471 11.3445ZM16.8859 10.4755C17.8266 10.4058 18.7456 10.7385 19.4797 11.3519L20.762 9.81702C19.6762 8.90989 18.2554 8.36848 16.738 8.48097L16.8859 10.4755ZM18.4836 12.4735L18.489 12.4783L19.8139 10.9801L19.8085 10.9753L18.4836 12.4735ZM18.4791 12.4695L18.4834 12.4733L19.8087 10.9754L19.8044 10.9716L18.4791 12.4695ZM18.8926 10.4956L18.3943 11.0562L19.8891 12.3849L20.3874 11.8244L18.8926 10.4956ZM19.9266 12.3767L20.4074 11.8011L18.8726 10.5189L18.3917 11.0944L19.9266 12.3767ZM18.5114 12.4975L18.5191 12.5039L19.7992 10.9673L19.7916 10.9609L18.5114 12.4975ZM12.9739 15.1899H12.8333V17.1899H12.9739V15.1899ZM11.9739 15.3591V16.1899H13.9739V15.3591H11.9739ZM15.333 12C13.4786 12 11.9739 13.5047 11.9739 15.3591L13.9739 15.3591C13.9739 14.6093 14.5831 14 15.333 14V12ZM18.6921 15.3591C18.6921 13.5047 17.1875 12 15.333 12V14C16.0829 14 16.6921 14.6093 16.6921 15.3591H18.6921ZM18.6921 16.1899L18.6921 15.3591L16.6921 15.3591L16.6921 16.1899L18.6921 16.1899ZM17.8333 15.1899H17.6921V17.1899H17.8333V15.1899ZM19.6667 17.0232C19.6667 16.0107 18.8459 15.1899 17.8333 15.1899V17.1899C17.7413 17.1899 17.6667 17.1153 17.6667 17.0232H19.6667ZM19.6667 20.3566V17.0232H17.6667V20.3566H19.6667ZM17.8333 22.1899C18.8459 22.1899 19.6667 21.3691 19.6667 20.3566H17.6667C17.6667 20.2645 17.7413 20.1899 17.8333 20.1899V22.1899ZM12.8333 22.1899H17.8333V20.1899H12.8333V22.1899ZM11 20.3566C11 21.3691 11.8208 22.1899 12.8333 22.1899V20.1899C12.9254 20.1899 13 20.2645 13 20.3566H11ZM11 17.0232V20.3566H13V17.0232H11ZM12.8333 15.1899C11.8208 15.1899 11 16.0107 11 17.0232H13C13 17.1153 12.9254 17.1899 12.8333 17.1899V15.1899ZM13.918 17.1899H16.748V15.1899H13.918V17.1899ZM12.918 15.3591V16.1899H14.918V15.3591H12.918ZM15.333 12.9441C14 12.9441 12.918 14.0261 12.918 15.3591H14.918C14.918 15.1307 15.1046 14.9441 15.333 14.9441V12.9441ZM17.748 15.3591C17.748 14.0261 16.666 12.9441 15.333 12.9441V14.9441C15.5615 14.9441 15.748 15.1307 15.748 15.3591L17.748 15.3591ZM17.748 16.1899L17.748 15.3591L15.748 15.3591L15.748 16.1899L17.748 16.1899Z" fill="#161721" mask="url(#path-1-inside-1_175_405)"/>
</svg>
