<svg width="24" height="24" viewBox="0 0 24 24" fill="none" xmlns="http://www.w3.org/2000/svg">
<path fill-rule="evenodd" clip-rule="evenodd" d="M12 4C11.1514 4 10.3662 4.2825 9.81176 4.74453C9.26264 5.20213 9 5.77945 9 6.33333V10H15V6.33333C15 5.77945 14.7374 5.20213 14.1882 4.74453C13.6338 4.2825 12.8486 4 12 4ZM17 10H18C19.1046 10 20 10.8954 20 12V20C20 21.1046 19.1046 22 18 22H6C4.89543 22 4 21.1046 4 20V12C4 10.8954 4.89543 10 6 10H7V6.33333C7 5.1191 7.58021 4.00074 8.53139 3.20809C9.47725 2.41987 10.7269 2 12 2C13.2731 2 14.5228 2.41987 15.4686 3.20809C16.4198 4.00074 17 5.1191 17 6.33333V10ZM13.4 15.5999C13.4 16.2627 12.8627 16.7999 12.2 16.7999C11.5373 16.7999 11 16.2627 11 15.5999C11 14.9372 11.5373 14.4 12.2 14.4C12.8627 14.4 13.4 14.9372 13.4 15.5999ZM6 11.2H18C18.4418 11.2 18.8 11.5582 18.8 12V20C18.8 20.4418 18.4418 20.8 18 20.8H6C5.55817 20.8 5.2 20.4418 5.2 20V12C5.2 11.5582 5.55817 11.2 6 11.2Z" fill="#0C2739"/>
</svg>
