<svg width="24" height="24" viewBox="0 0 24 24" fill="none" xmlns="http://www.w3.org/2000/svg">
<mask id="path-1-inside-1_7264_90515" fill="white">
<path fill-rule="evenodd" clip-rule="evenodd" d="M6.92667 10.75H6.08664H6.00002C4.34315 10.75 3 12.0932 3 13.75C3 15.4068 4.34315 16.75 6 16.75H11.5V17.75H6C3.79086 17.75 2 15.9591 2 13.75C2 11.5409 3.79086 9.75 6.00002 9.75H6.08664C6.56096 7.04276 8.92458 5 11.75 5C14.5754 5 16.939 7.04276 17.4134 9.75H17.5C19.7091 9.75 21.5 11.5409 21.5 13.75C21.5 15.2305 20.6956 16.5232 19.5 17.2149V15.9861C20.1137 15.4368 20.5 14.6385 20.5 13.75C20.5 12.0932 19.1568 10.75 17.5 10.75H17.4134H16.5734L16.4284 9.9226C16.0367 7.6875 14.0834 6 11.75 6C9.41659 6 7.46323 7.68751 7.07164 9.92258L6.92667 10.75ZM14.6022 13.1436C14.8332 12.951 15.1604 12.8333 15.514 12.8333C15.8676 12.8333 16.1948 12.951 16.4258 13.1436C16.6546 13.3342 16.764 13.5748 16.764 13.8056V15.3331H14.264V13.8056C14.264 13.5748 14.3734 13.3342 14.6022 13.1436ZM13.4307 15.3331V13.8056C13.4307 13.2996 13.6724 12.8336 14.0687 12.5034C14.4629 12.1749 14.9835 12 15.514 12C16.0445 12 16.5651 12.1749 16.9593 12.5034C17.3556 12.8336 17.5973 13.2996 17.5973 13.8056V15.3331H18.014C18.4742 15.3331 18.8473 15.7062 18.8473 16.1665V19.4998C18.8473 19.96 18.4742 20.3331 18.014 20.3331H13.014C12.5538 20.3331 12.1807 19.96 12.1807 19.4998V16.1665C12.1807 15.7062 12.5538 15.3331 13.014 15.3331H13.4307Z"/>
</mask>
<path fill-rule="evenodd" clip-rule="evenodd" d="M6.92667 10.75H6.08664H6.00002C4.34315 10.75 3 12.0932 3 13.75C3 15.4068 4.34315 16.75 6 16.75H11.5V17.75H6C3.79086 17.75 2 15.9591 2 13.75C2 11.5409 3.79086 9.75 6.00002 9.75H6.08664C6.56096 7.04276 8.92458 5 11.75 5C14.5754 5 16.939 7.04276 17.4134 9.75H17.5C19.7091 9.75 21.5 11.5409 21.5 13.75C21.5 15.2305 20.6956 16.5232 19.5 17.2149V15.9861C20.1137 15.4368 20.5 14.6385 20.5 13.75C20.5 12.0932 19.1568 10.75 17.5 10.75H17.4134H16.5734L16.4284 9.9226C16.0367 7.6875 14.0834 6 11.75 6C9.41659 6 7.46323 7.68751 7.07164 9.92258L6.92667 10.75ZM14.6022 13.1436C14.8332 12.951 15.1604 12.8333 15.514 12.8333C15.8676 12.8333 16.1948 12.951 16.4258 13.1436C16.6546 13.3342 16.764 13.5748 16.764 13.8056V15.3331H14.264V13.8056C14.264 13.5748 14.3734 13.3342 14.6022 13.1436ZM13.4307 15.3331V13.8056C13.4307 13.2996 13.6724 12.8336 14.0687 12.5034C14.4629 12.1749 14.9835 12 15.514 12C16.0445 12 16.5651 12.1749 16.9593 12.5034C17.3556 12.8336 17.5973 13.2996 17.5973 13.8056V15.3331H18.014C18.4742 15.3331 18.8473 15.7062 18.8473 16.1665V19.4998C18.8473 19.96 18.4742 20.3331 18.014 20.3331H13.014C12.5538 20.3331 12.1807 19.96 12.1807 19.4998V16.1665C12.1807 15.7062 12.5538 15.3331 13.014 15.3331H13.4307Z" fill="#0C2739"/>
<path d="M6.92667 10.75V11.75H7.7667L7.91166 10.9226L6.92667 10.75ZM11.5 16.75H12.5V15.75H11.5V16.75ZM11.5 17.75V18.75H12.5V17.75H11.5ZM6.08664 9.75V10.75H6.92667L7.07164 9.92258L6.08664 9.75ZM17.4134 9.75L16.4284 9.9226L16.5734 10.75H17.4134V9.75ZM19.5 17.2149H18.5V18.9486L20.0007 18.0805L19.5 17.2149ZM19.5 15.9861L18.8331 15.241L18.5 15.5391V15.9861H19.5ZM16.5734 10.75L15.5884 10.9226L15.7334 11.75H16.5734V10.75ZM16.4284 9.9226L17.4134 9.75L17.4134 9.75L16.4284 9.9226ZM7.07164 9.92258L8.05663 10.0952L8.05663 10.0952L7.07164 9.92258ZM14.6022 13.1436L13.962 12.3753L13.962 12.3753L14.6022 13.1436ZM16.4258 13.1436L17.066 12.3753L17.0659 12.3753L16.4258 13.1436ZM16.764 15.3331V16.3331H17.764V15.3331H16.764ZM14.264 15.3331H13.264V16.3331H14.264V15.3331ZM13.4307 15.3331V16.3331H14.4307V15.3331H13.4307ZM14.0687 12.5034L14.7089 13.2716L14.7089 13.2716L14.0687 12.5034ZM16.9593 12.5034L16.3191 13.2716L16.3191 13.2716L16.9593 12.5034ZM17.5973 15.3331H16.5973V16.3331H17.5973V15.3331ZM6.08664 11.75H6.92667V9.75H6.08664V11.75ZM6.00002 11.75H6.08664V9.75H6.00002V11.75ZM4 13.75C4 12.6455 4.89544 11.75 6.00002 11.75V9.75C3.79086 9.75 2 11.5409 2 13.75H4ZM6 15.75C4.89544 15.75 4 14.8545 4 13.75H2C2 15.9591 3.79086 17.75 6 17.75V15.75ZM11.5 15.75H6V17.75H11.5V15.75ZM12.5 17.75V16.75H10.5V17.75H12.5ZM6 18.75H11.5V16.75H6V18.75ZM1 13.75C1 16.5114 3.23857 18.75 6 18.75V16.75C4.34315 16.75 3 15.4068 3 13.75H1ZM6.00002 8.75C3.23857 8.75 1 10.9886 1 13.75H3C3 12.0932 4.34315 10.75 6.00002 10.75V8.75ZM6.08664 8.75H6.00002V10.75H6.08664V8.75ZM11.75 4C8.43257 4 5.65869 6.39801 5.10164 9.57742L7.07164 9.92258C7.46323 7.68751 9.41659 6 11.75 6V4ZM18.3984 9.5774C17.8413 6.39802 15.0674 4 11.75 4V6C14.0834 6 16.0367 7.6875 16.4284 9.9226L18.3984 9.5774ZM17.5 8.75H17.4134V10.75H17.5V8.75ZM22.5 13.75C22.5 10.9886 20.2614 8.75 17.5 8.75V10.75C19.1568 10.75 20.5 12.0932 20.5 13.75H22.5ZM20.0007 18.0805C21.4926 17.2174 22.5 15.6019 22.5 13.75H20.5C20.5 14.8591 19.8986 15.829 18.9993 16.3493L20.0007 18.0805ZM18.5 15.9861V17.2149H20.5V15.9861H18.5ZM19.5 13.75C19.5 14.3422 19.2439 14.8733 18.8331 15.241L20.1669 16.7312C20.9836 16.0002 21.5 14.9347 21.5 13.75H19.5ZM17.5 11.75C18.6045 11.75 19.5 12.6455 19.5 13.75H21.5C21.5 11.5409 19.7091 9.75 17.5 9.75V11.75ZM17.4134 11.75H17.5V9.75H17.4134V11.75ZM16.5734 11.75H17.4134V9.75H16.5734V11.75ZM15.4434 10.0952L15.5884 10.9226L17.5584 10.5774L17.4134 9.75L15.4434 10.0952ZM11.75 7C13.5916 7 15.1345 8.33254 15.4434 10.0952L17.4134 9.75C16.9389 7.04246 14.5751 5 11.75 5V7ZM8.05663 10.0952C8.36545 8.33256 9.90831 7 11.75 7V5C8.92488 5 6.56101 7.04246 6.08664 9.75L8.05663 10.0952ZM7.91166 10.9226L8.05663 10.0952L6.08664 9.75L5.94167 10.5774L7.91166 10.9226ZM15.514 11.8333C14.9479 11.8333 14.3886 12.0199 13.962 12.3753L15.2424 13.9118C15.2779 13.8822 15.3729 13.8333 15.514 13.8333V11.8333ZM17.0659 12.3753C16.6394 12.0199 16.0801 11.8333 15.514 11.8333V13.8333C15.6551 13.8333 15.7501 13.8822 15.7856 13.9118L17.0659 12.3753ZM17.764 13.8056C17.764 13.2458 17.4968 12.7344 17.066 12.3753L15.7856 13.9118C15.8008 13.9244 15.7949 13.9242 15.7848 13.9039C15.7747 13.8835 15.764 13.8497 15.764 13.8056H17.764ZM17.764 15.3331V13.8056H15.764V15.3331H17.764ZM14.264 16.3331H16.764V14.3331H14.264V16.3331ZM13.264 13.8056V15.3331H15.264V13.8056H13.264ZM13.962 12.3753C13.5312 12.7344 13.264 13.2458 13.264 13.8056H15.264C15.264 13.8497 15.2533 13.8835 15.2432 13.9039C15.2331 13.9242 15.2272 13.9244 15.2424 13.9118L13.962 12.3753ZM12.4307 13.8056V15.3331H14.4307V13.8056H12.4307ZM13.4286 11.7351C12.8317 12.2325 12.4307 12.9688 12.4307 13.8056H14.4307C14.4307 13.6304 14.5131 13.4348 14.7089 13.2716L13.4286 11.7351ZM15.514 11C14.7715 11 14.0185 11.2435 13.4286 11.7351L14.7089 13.2716C14.9072 13.1064 15.1956 13 15.514 13V11ZM17.5994 11.7351C17.0095 11.2435 16.2565 11 15.514 11V13C15.8324 13 16.1208 13.1064 16.3191 13.2716L17.5994 11.7351ZM18.5973 13.8056C18.5973 12.9689 18.1963 12.2325 17.5994 11.7351L16.3191 13.2716C16.5149 13.4348 16.5973 13.6304 16.5973 13.8056H18.5973ZM18.5973 15.3331V13.8056H16.5973V15.3331H18.5973ZM18.014 14.3331H17.5973V16.3331H18.014V14.3331ZM19.8473 16.1665C19.8473 15.1539 19.0265 14.3331 18.014 14.3331V16.3331C17.9219 16.3331 17.8473 16.2585 17.8473 16.1665H19.8473ZM19.8473 19.4998V16.1665H17.8473V19.4998H19.8473ZM18.014 21.3331C19.0265 21.3331 19.8473 20.5123 19.8473 19.4998H17.8473C17.8473 19.4078 17.9219 19.3331 18.014 19.3331V21.3331ZM13.014 21.3331H18.014V19.3331H13.014V21.3331ZM11.1807 19.4998C11.1807 20.5123 12.0015 21.3331 13.014 21.3331V19.3331C13.106 19.3331 13.1807 19.4077 13.1807 19.4998H11.1807ZM11.1807 16.1665V19.4998H13.1807V16.1665H11.1807ZM13.014 14.3331C12.0015 14.3331 11.1807 15.1539 11.1807 16.1665H13.1807C13.1807 16.2585 13.106 16.3331 13.014 16.3331V14.3331ZM13.4307 14.3331H13.014V16.3331H13.4307V14.3331Z" fill="#0C2739" mask="url(#path-1-inside-1_7264_90515)"/>
</svg>
