<svg width="24" height="24" viewBox="0 0 24 24" fill="none" xmlns="http://www.w3.org/2000/svg">
<path fill-rule="evenodd" clip-rule="evenodd" d="M9.53035 11.8349V5.91992L5.61535 5.91992C5.20114 5.91992 4.86535 5.58414 4.86535 5.16992C4.86535 4.75571 5.20114 4.41992 5.61535 4.41992H10.2804C10.6946 4.41992 11.0304 4.75571 11.0304 5.16992L11.0303 11.8341L11.0304 11.835C11.0303 15.9302 7.71054 19.25 3.61535 19.25C3.20114 19.25 2.86535 18.9142 2.86535 18.5C2.86535 18.0857 3.20114 17.75 3.61535 17.75C6.88211 17.75 9.53035 15.1017 9.53035 11.835V11.8349ZM19.75 11.8396C19.75 11.8381 19.75 11.8365 19.75 11.8349L19.75 5.91992L15.835 5.91992C15.4208 5.91992 15.085 5.58414 15.085 5.16992C15.085 4.75571 15.4208 4.41992 15.835 4.41992H20.5C20.9142 4.41992 21.25 4.75571 21.25 5.16992L21.25 11.83C21.25 11.8316 21.25 11.8333 21.25 11.835C21.25 15.9302 17.9302 19.25 13.835 19.25C13.4208 19.25 13.085 18.9142 13.085 18.5C13.085 18.0857 13.4208 17.75 13.835 17.75C17.1002 17.75 19.7475 15.1042 19.75 11.8396Z" fill="#161721"/>
</svg>
