<svg width="24" height="24" viewBox="0 0 24 24" fill="none" xmlns="http://www.w3.org/2000/svg">
<path d="M18.6727 3.63259C18.8179 3.4843 19.0159 3.39999 19.2236 3.39999C19.4312 3.39999 19.6293 3.48429 19.7744 3.63259C19.9194 3.7807 20 3.98049 20 4.18774V9.81931H14.4764C14.2694 9.81931 14.072 9.73526 13.9273 9.58743C13.783 9.44004 13.7027 9.24134 13.7024 9.03514C13.7016 8.93191 13.7209 8.82944 13.7593 8.7336C13.7978 8.63742 13.8548 8.54968 13.9272 8.47567C13.9997 8.40164 14.0862 8.34282 14.1818 8.3029C14.277 8.26315 14.3792 8.24302 14.4823 8.24382H17.4416C16.6594 7.16921 15.5794 6.35486 14.3378 5.90931C12.9535 5.41259 11.4466 5.40234 10.056 5.88017C8.66535 6.35803 7.46966 7.297 6.65953 8.54925C5.84934 9.80158 5.47152 11.2951 5.58674 12.7926C5.70197 14.2901 6.30353 15.7046 7.29493 16.8119C8.28625 17.919 9.6104 18.6555 11.0568 18.9055C12.5031 19.1555 13.99 18.9051 15.2817 18.1934C16.5735 17.4816 17.5966 16.3489 18.1876 14.9741L18.1907 14.9669C18.2781 14.7801 18.4341 14.6338 18.627 14.5606C18.82 14.4873 19.0336 14.4937 19.222 14.5781C19.4102 14.6625 19.5573 14.8177 19.6339 15.0092C19.7104 15.2005 19.711 15.4145 19.6356 15.6063L19.6327 15.6137C18.9055 17.3028 17.649 18.6984 16.0598 19.5805C14.4705 20.4627 12.6388 20.7809 10.8525 20.4847C9.06633 20.1886 7.42797 19.295 6.19429 17.9454C4.9607 16.596 4.20147 14.8671 4.0348 13.0304C3.86813 11.1937 4.30334 9.35208 5.27275 7.79462C6.24221 6.23707 7.69136 5.05148 9.39347 4.42516C11.0957 3.7988 12.9535 3.76762 14.675 4.33656C16.1554 4.82581 17.4621 5.73474 18.4471 6.94912V4.18774C18.4471 3.9805 18.5277 3.78071 18.6727 3.63259Z" fill="#161721"/>
</svg>
