<svg width="15" height="16" viewBox="0 0 15 16" fill="none" xmlns="http://www.w3.org/2000/svg">
<path d="M14.5629 9.01925C14.5629 9.16252 14.6186 9.29992 14.7178 9.40122C14.8169 9.50253 14.9515 9.55944 15.0917 9.55944H20.3998V4.14267C20.3998 3.99875 20.3438 3.86072 20.2442 3.75895C20.1446 3.65718 20.0094 3.60001 19.8685 3.60001C19.7276 3.60001 19.5925 3.65718 19.4928 3.75895C19.3932 3.86072 19.3372 3.99875 19.3372 4.14267V7.68116C18.3423 6.19303 16.8917 5.08455 15.2131 4.5298C13.5345 3.97504 11.7231 4.00543 10.0633 4.6162C8.4035 5.22696 6.98928 6.3835 6.04275 7.9042C5.09622 9.42491 4.67097 11.2237 4.8338 13.018C4.99662 14.8123 5.73828 16.5006 6.94233 17.8177C8.14638 19.1348 9.74461 20.0061 11.4861 20.2949C13.2275 20.5837 15.0135 20.2735 16.5637 19.4131C18.1138 18.5526 19.3403 17.1907 20.0505 15.5412C20.103 15.4074 20.1026 15.258 20.0493 15.1245C19.9959 14.9911 19.8938 14.8841 19.7646 14.8261C19.6354 14.7682 19.4892 14.7639 19.3569 14.8141C19.2246 14.8643 19.1166 14.9651 19.0558 15.0951C18.4395 16.5289 17.3719 17.7113 16.0227 18.4548C14.6734 19.1982 13.1197 19.4601 11.6081 19.1988C10.0965 18.9375 8.7137 18.168 7.67908 17.0125C6.64446 15.8569 6.01732 14.3816 5.8972 12.8205C5.77709 11.2594 6.17087 9.70208 7.01605 8.39565C7.86124 7.08922 9.1094 6.10854 10.5625 5.60925C12.0155 5.10997 13.5902 5.12068 15.0366 5.6397C16.483 6.15871 17.7183 7.15629 18.5463 8.4741H15.0966C15.0263 8.47344 14.9566 8.48709 14.8916 8.51425C14.8265 8.54141 14.7674 8.58154 14.7177 8.6323C14.668 8.68305 14.6288 8.74341 14.6022 8.80985C14.5756 8.87629 14.5622 8.94748 14.5629 9.01925Z" fill="#0C2739"/>
</svg>
