<svg width="16" height="16" viewBox="0 0 16 16" fill="none" xmlns="http://www.w3.org/2000/svg">
<path fill-rule="evenodd" clip-rule="evenodd" d="M4.33334 11.1667C4.02392 11.1667 3.72717 11.2897 3.50838 11.5085C3.28959 11.7272 3.16667 12.024 3.16667 12.3334C3.16667 12.6096 2.94281 12.8334 2.66667 12.8334C2.39053 12.8334 2.16667 12.6096 2.16667 12.3334C2.16667 11.7588 2.39494 11.2077 2.80127 10.8013C3.2076 10.395 3.7587 10.1667 4.33334 10.1667H13.3333C13.6095 10.1667 13.8333 10.3906 13.8333 10.6667C13.8333 10.9429 13.6095 11.1667 13.3333 11.1667H4.33334Z" fill="#161721"/>
<path fill-rule="evenodd" clip-rule="evenodd" d="M4.33334 1.16675C4.02392 1.16675 3.72717 1.28966 3.50838 1.50846C3.28959 1.72725 3.16667 2.024 3.16667 2.33341V12.3334C3.16667 12.6428 3.28959 12.9396 3.50838 13.1584C3.72717 13.3772 4.02392 13.5001 4.33334 13.5001H12.8333V1.16675H4.33334ZM2.80127 0.80135C3.2076 0.395021 3.7587 0.166748 4.33334 0.166748H13.3333C13.6095 0.166748 13.8333 0.390606 13.8333 0.666748V14.0001C13.8333 14.2762 13.6095 14.5001 13.3333 14.5001H4.33334C3.7587 14.5001 3.2076 14.2718 2.80127 13.8655C2.39494 13.4592 2.16667 12.908 2.16667 12.3334V2.33341C2.16667 1.75878 2.39494 1.20768 2.80127 0.80135Z" fill="#161721"/>
<path d="M6.66667 12H4.66667V16L5.66667 14.8L6.66667 16V12Z" fill="#161721"/>
</svg>
