<?xml version="1.0" encoding="UTF-8" standalone="no"?>
<svg
   width="16"
   height="16"
   viewBox="0 0 16 16"
   fill="none"
   version="1.1"
   id="svg8"
   sodipodi:docname="repo-folder.svg"
   inkscape:version="1.2.1 (9c6d41e, 2022-07-14)"
   xmlns:inkscape="http://www.inkscape.org/namespaces/inkscape"
   xmlns:sodipodi="http://sodipodi.sourceforge.net/DTD/sodipodi-0.dtd"
   xmlns="http://www.w3.org/2000/svg"
   xmlns:svg="http://www.w3.org/2000/svg">
  <defs
     id="defs12" />
  <sodipodi:namedview
     id="namedview10"
     pagecolor="#ffffff"
     bordercolor="#000000"
     borderopacity="0.25"
     inkscape:showpageshadow="2"
     inkscape:pageopacity="0.0"
     inkscape:pagecheckerboard="0"
     inkscape:deskcolor="#d1d1d1"
     showgrid="false"
     inkscape:zoom="64.1875"
     inkscape:cx="4.728335"
     inkscape:cy="6.8315482"
     inkscape:window-width="3440"
     inkscape:window-height="1387"
     inkscape:window-x="0"
     inkscape:window-y="25"
     inkscape:window-maximized="1"
     inkscape:current-layer="svg8" />
  <g
     id="g175"
     transform="translate(-0.107235,0.22457)">
    <path
       d="M 13.9923,6.12022 V 11.834 c 0,0.3447 -0.1396,0.6746 -0.3868,0.9146 v 0 c -0.2379,0.231 -0.5564,0.3602 -0.8879,0.3602 H 3.52341 c -0.33235,0 -0.65163,-0.1295 -0.8901,-0.361 v 0 C 2.38654,12.5082 2.24676,12.1792 2.24558,11.8353 L 2.22217,5.01677 M 13.9923,6.12022 v 0 C 13.5063,5.64846 12.8557,5.38459 12.1785,5.38459 H 8.8217 c -0.46154,0 -0.90007,-0.20151 -1.20069,-0.55173 v 0 C 7.3204,4.48265 6.88186,4.28114 6.42032,4.28114 H 4.07951 c -0.69016,0 -1.35436,0.26307 -1.85734,0.73563 v 0 M 13.9923,6.12022 V 4.80131 c 0,-0.33306 -0.1323,-0.65248 -0.3678,-0.88799 v 0 C 13.389,3.67782 13.0695,3.54551 12.7365,3.54551 H 8.77031 c -0.41426,0 -0.80111,-0.20704 -1.0309,-0.55173 v 0 C 7.50962,2.6491 7.12276,2.44206 6.7085,2.44206 H 4.82226 c -1.42611,0 -2.5861,1.14867 -2.60009,2.57471 v 0"
       stroke="#c1c7d0"
       stroke-linecap="round"
       stroke-linejoin="round"
       id="path2" />
    <path
       d="M 10.0217,9.1066768 7.5701,6.66032 5.54468,8.681366 8.01585,11.1082 Z"
       fill="#2c2c2d"
       id="path4" />
    <path
       d="M 10.4999,8.8711708 8.17114,6.54265 C 8.03715,6.40853 7.81966,6.40853 7.6855,6.54265 L 7.20197,7.02625 7.81532,7.63962 C 7.9579,7.59147 8.12134,7.62375 8.23495,7.73739 8.34914,7.85173 8.38119,8.01656 8.33184,8.15964 L 8.923,8.7508676 c 0.14302,-0.0493 0.30803,-0.0175 0.42223,0.0969 0.15966,0.1596038 0.15966,0.4183102 0,0.5780146 -0.15969,0.159704 -0.41832,0.159704 -0.5781,0 C 8.64708,9.305579 8.61739,9.1291746 8.67819,8.9812706 l -0.55132,-0.551371 -4e-5,1.4508942 c 0.03892,0.0193 0.07565,0.045 0.10809,0.0773 0.15962,0.1596012 0.15962,0.4182012 0,0.5780012 -0.15966,0.1596 -0.41842,0.1596 -0.57791,0 -0.15964,-0.1598 -0.15964,-0.4184 0,-0.5780012 0.03945,-0.0394 0.0851,-0.0692 0.13381,-0.0892 V 8.40453 C 7.74209,8.38463 7.69649,8.35505 7.65698,8.31535 7.53607,8.19452 7.50694,8.01704 7.56896,7.86855 L 6.96432,7.26379 5.3677,8.8604704 c -0.13415,0.1342036 -0.13415,0.3517092 0,0.4858128 L 7.69629,11.6748 c 0.13406,0.1342 0.35148,0.1342 0.48573,0 L 10.4998,9.3572832 c 0.1342,-0.1342032 0.1342,-0.3517088 0,-0.4859124"
       fill="#c4cddb"
       id="path6" />
  </g>
</svg>
