<svg width="16" height="16" viewBox="0 0 16 16" fill="none" xmlns="http://www.w3.org/2000/svg">
<path d="M13.9923 7.67816V13.3919C13.9923 13.7366 13.8527 14.0665 13.6055 14.3065V14.3065C13.3676 14.5375 13.0491 14.6667 12.7176 14.6667H3.52341C3.19106 14.6667 2.87178 14.5372 2.63331 14.3057V14.3057C2.38654 14.0661 2.24676 13.7371 2.24558 13.3932L2.22217 6.57471M13.9923 7.67816V7.67816C13.5063 7.2064 12.8557 6.94253 12.1785 6.94253H8.8217C8.36016 6.94253 7.92163 6.74102 7.62101 6.3908V6.3908C7.3204 6.04059 6.88186 5.83908 6.42032 5.83908H4.07951C3.38935 5.83908 2.72515 6.10215 2.22217 6.57471V6.57471M13.9923 7.67816V6.35925C13.9923 6.02619 13.86 5.70677 13.6245 5.47126V5.47126C13.389 5.23576 13.0695 5.10345 12.7365 5.10345H8.77031C8.35605 5.10345 7.9692 4.89641 7.73941 4.55172V4.55172C7.50962 4.20704 7.12276 4 6.7085 4H4.82226C3.39615 4 2.23616 5.14867 2.22217 6.57471V6.57471" stroke="#C1C7D0" stroke-linecap="round" stroke-linejoin="round"/>
<path d="M10.0217 10.6646L7.5701 8.21826L5.54468 10.2393L8.01585 12.6661L10.0217 10.6646Z" fill="#2C2C2D"/>
<path d="M10.4999 10.4291L8.17114 8.10059C8.03715 7.96647 7.81966 7.96647 7.6855 8.10059L7.20197 8.58419L7.81532 9.19756C7.9579 9.14941 8.12134 9.18169 8.23495 9.29533C8.34914 9.40967 8.38119 9.5745 8.33184 9.71758L8.923 10.3088C9.06602 10.2595 9.23103 10.2913 9.34523 10.4057C9.50489 10.5653 9.50489 10.824 9.34523 10.9837C9.18554 11.1434 8.92691 11.1434 8.76713 10.9837C8.64708 10.8635 8.61739 10.6871 8.67819 10.5392L8.12687 9.98784L8.12683 11.4387C8.16575 11.458 8.20248 11.4837 8.23492 11.516C8.39454 11.6756 8.39454 11.9342 8.23492 12.094C8.07526 12.2536 7.8165 12.2536 7.65701 12.094C7.49737 11.9342 7.49737 11.6756 7.65701 11.516C7.69646 11.4766 7.74211 11.4468 7.79082 11.4268V9.96247C7.74209 9.94257 7.69649 9.91299 7.65698 9.87329C7.53607 9.75246 7.50694 9.57498 7.56896 9.42649L6.96432 8.82173L5.3677 10.4184C5.23355 10.5526 5.23355 10.7701 5.3677 10.9042L7.69629 13.2327C7.83035 13.3669 8.04777 13.3669 8.18202 13.2327L10.4998 10.9152C10.634 10.781 10.634 10.5635 10.4998 10.4293" fill="#C4CDDB"/>
</svg>
