<svg width="24" height="24" viewBox="0 0 24 24" fill="none" xmlns="http://www.w3.org/2000/svg">
<path fill-rule="evenodd" clip-rule="evenodd" d="M7.48561 1.9949C7.89983 1.9949 8.23561 2.33069 8.23561 2.7449V3.82698H15.7606V2.7449C15.7606 2.33069 16.0964 1.9949 16.5106 1.9949C16.9248 1.9949 17.2606 2.33069 17.2606 2.7449V3.82698H17.4582C19.4706 3.82698 21.0939 5.45322 21.1052 7.46072L21.1052 7.46496L21.1052 18.3671C21.1052 20.3788 19.4789 22.0051 17.4672 22.0051H6.53799C4.52636 22.0051 2.9 20.3788 2.9 18.3671V9.19775V7.46496C2.9 5.45333 4.52636 3.82698 6.53799 3.82698H6.73561V2.7449C6.73561 2.33069 7.0714 1.9949 7.48561 1.9949ZM4.4 18.3671V9.94775H19.6052V18.3671C19.6052 19.5503 18.6504 20.5051 17.4672 20.5051H6.53799C5.35478 20.5051 4.4 19.5503 4.4 18.3671ZM4.4 8.44775H19.6052V7.46717C19.5974 6.28078 18.6399 5.32698 17.4582 5.32698H17.2606V6.35489C17.2606 6.7691 16.9248 7.10489 16.5106 7.10489C16.0964 7.10489 15.7606 6.7691 15.7606 6.35489V5.32698H8.23561V6.35489C8.23561 6.7691 7.89983 7.10489 7.48561 7.10489C7.0714 7.10489 6.73561 6.7691 6.73561 6.35489V5.32698H6.53799C5.35478 5.32698 4.4 6.28176 4.4 7.46496V8.44775ZM15.3103 12.4697C15.6032 12.7626 15.6032 13.2374 15.3103 13.5303L11.7907 17.05L11.7903 17.0503C11.4974 17.3432 11.0226 17.3432 10.7297 17.0503L8.96967 15.2903C8.67678 14.9974 8.67678 14.5226 8.96967 14.2297C9.26256 13.9368 9.73744 13.9368 10.0303 14.2297L11.26 15.4593L14.2497 12.4697C14.5426 12.1768 15.0174 12.1768 15.3103 12.4697Z" fill="#161721"/>
</svg>
