<svg width="24" height="24" viewBox="0 0 24 24" fill="none" xmlns="http://www.w3.org/2000/svg">
<path fill-rule="evenodd" clip-rule="evenodd" d="M14.3381 12.3367L14.3337 12.3324C14.2372 12.2358 14.1829 12.1049 14.1829 11.9684C14.1829 11.8318 14.2372 11.7009 14.3337 11.6043L17.2459 8.69213C17.3425 8.59559 17.4734 8.54135 17.6099 8.54135C17.7465 8.54135 17.8774 8.59559 17.974 8.69213C18.0705 8.78868 18.1247 8.91962 18.1247 9.05616C18.1247 9.19269 18.0705 9.32364 17.974 9.42018L15.915 11.4791L21.2764 11.4791C21.4131 11.4791 21.5442 11.5335 21.6409 11.6301C21.7376 11.7268 21.7919 11.8579 21.7919 11.9946C21.7919 12.1313 21.7376 12.2624 21.6409 12.3591C21.5442 12.4558 21.4131 12.5101 21.2764 12.5101L15.9675 12.5101L17.974 14.5165C18.0705 14.6131 18.1247 14.744 18.1247 14.8806C18.1247 15.0171 18.0705 15.148 17.974 15.2446C17.8774 15.3411 17.7465 15.3954 17.6099 15.3954C17.4734 15.3954 17.3425 15.3411 17.2459 15.2446L14.3818 12.3805C14.3741 12.3737 14.3666 12.3666 14.3593 12.3593C14.352 12.352 14.3449 12.3445 14.3381 12.3367Z" fill="#0C2739"/>
<path fill-rule="evenodd" clip-rule="evenodd" d="M10.2674 11.6633L10.2718 11.6676C10.3683 11.7642 10.4225 11.8951 10.4225 12.0316C10.4225 12.1682 10.3683 12.2991 10.2718 12.3957L7.35956 15.3079C7.26301 15.4044 7.13207 15.4587 6.99553 15.4587C6.859 15.4587 6.72805 15.4044 6.63151 15.3079C6.53496 15.2113 6.48072 15.0804 6.48072 14.9438C6.48072 14.8073 6.53496 14.6764 6.63151 14.5798L8.69047 12.5209L3.32905 12.5209C3.19234 12.5209 3.06123 12.4665 2.96456 12.3699C2.86789 12.2732 2.81359 12.1421 2.81359 12.0054C2.81359 11.8687 2.86789 11.7376 2.96456 11.6409C3.06123 11.5442 3.19234 11.4899 3.32905 11.4899L8.63798 11.4899L6.63151 9.48346C6.53496 9.38691 6.48072 9.25597 6.48072 9.11943C6.48072 8.9829 6.53496 8.85195 6.63151 8.75541C6.72805 8.65886 6.859 8.60462 6.99553 8.60462C7.13207 8.60462 7.26301 8.65886 7.35956 8.75541L10.2236 11.6195C10.2314 11.6263 10.2389 11.6334 10.2462 11.6407C10.2535 11.648 10.2606 11.6555 10.2674 11.6633Z" fill="#0C2739"/>
<path fill-rule="evenodd" clip-rule="evenodd" d="M12.3998 5C12.6207 5 12.7998 5.17909 12.7998 5.4L12.7998 18.6C12.7998 18.8209 12.6207 19 12.3998 19C12.1789 19 11.9998 18.8209 11.9998 18.6L11.9998 5.4C11.9998 5.17909 12.1789 5 12.3998 5Z" fill="#0C2739"/>
</svg>