<svg width="20" height="20" viewBox="0 0 20 20" fill="none" xmlns="http://www.w3.org/2000/svg">
<path fill-rule="evenodd" clip-rule="evenodd" d="M15.2985 9.71941L15.3022 9.72303C15.3826 9.80348 15.4278 9.9126 15.4278 10.0264C15.4278 10.1402 15.3826 10.2493 15.3022 10.3297L12.8753 12.7566C12.7949 12.837 12.6858 12.8822 12.572 12.8822C12.4582 12.8822 12.3491 12.837 12.2686 12.7566C12.1882 12.6761 12.143 12.567 12.143 12.4532C12.143 12.3394 12.1882 12.2303 12.2686 12.1499L13.9844 10.4341L9.51657 10.4341C9.40264 10.4341 9.29338 10.3888 9.21283 10.3083C9.13227 10.2277 9.08702 10.1184 9.08702 10.0045C9.08702 9.89059 9.13227 9.78133 9.21283 9.70078C9.29338 9.62022 9.40264 9.57496 9.51657 9.57496L13.9407 9.57496L12.2686 7.9029C12.1882 7.82245 12.143 7.71333 12.143 7.59955C12.143 7.48577 12.1882 7.37665 12.2686 7.29619C12.3491 7.21574 12.4582 7.17054 12.572 7.17054C12.6858 7.17054 12.7949 7.21574 12.8753 7.29619L15.2621 9.68293C15.2685 9.68863 15.2748 9.69453 15.2808 9.70062C15.2869 9.70671 15.2928 9.71298 15.2985 9.71941Z" fill="#0C2739"/>
<path fill-rule="evenodd" clip-rule="evenodd" d="M4.51958 10.2806L4.51595 10.277C4.4355 10.1965 4.3903 10.0874 4.3903 9.97362C4.3903 9.85984 4.4355 9.75072 4.51595 9.67026L6.94279 7.24342C7.02324 7.16297 7.13237 7.11777 7.24615 7.11777C7.35992 7.11777 7.46904 7.16297 7.5495 7.24342C7.62995 7.32388 7.67515 7.433 7.67515 7.54678C7.67515 7.66056 7.62995 7.76968 7.5495 7.85013L5.8337 9.56594L10.3015 9.56594C10.4155 9.56594 10.5247 9.61119 10.6053 9.69175C10.6858 9.7723 10.7311 9.88156 10.7311 9.99549C10.7311 10.1094 10.6858 10.2187 10.6053 10.2992C10.5247 10.3798 10.4155 10.425 10.3015 10.425L5.87744 10.425L7.5495 12.0971C7.62995 12.1776 7.67515 12.2867 7.67515 12.4005C7.67515 12.5142 7.62995 12.6234 7.5495 12.7038C7.46904 12.7843 7.35992 12.8295 7.24614 12.8295C7.13236 12.8295 7.02324 12.7843 6.94279 12.7038L4.55606 10.3171C4.54963 10.3114 4.54336 10.3055 4.53727 10.2994C4.53118 10.2933 4.52528 10.287 4.51958 10.2806Z" fill="#0C2739"/>
<rect x="1.66666" y="4.16669" width="16.6667" height="11.6667" stroke="#0C2739" stroke-width="0.8" stroke-linecap="round" stroke-linejoin="round"/>
</svg>
