<svg width="26" height="24" viewBox="0 0 26 24" fill="none" xmlns="http://www.w3.org/2000/svg">
<path fill-rule="evenodd" clip-rule="evenodd" d="M13.5 4.75C13.5 4.33579 13.1642 4 12.75 4C12.3358 4 12 4.33579 12 4.75L12 19.25C12 19.6642 12.3358 20 12.75 20C13.1642 20 13.5 19.6642 13.5 19.25L13.5 4.75ZM20.3975 8.08384C20.6904 7.79095 21.1653 7.79095 21.4582 8.08384L24.844 11.4697L24.844 11.4697C25.1369 11.7626 25.1369 12.2375 24.844 12.5303L24.8398 12.5345L21.4582 15.9162C21.1653 16.2091 20.6904 16.2091 20.3975 15.9162C20.1046 15.6233 20.1046 15.1484 20.3975 14.8555L22.5031 12.75L16.5 12.75C16.0858 12.75 15.75 12.4142 15.75 12C15.75 11.5858 16.0858 11.25 16.5 11.25L22.503 11.25L20.3975 9.14451C20.1046 8.85161 20.1046 8.37674 20.3975 8.08384ZM9.25001 12C9.25001 12.4142 8.91422 12.75 8.50001 12.75L3.49703 12.75L5.60251 14.8555C5.89541 15.1484 5.89541 15.6233 5.60251 15.9162C5.30962 16.209 4.83475 16.209 4.54185 15.9162L1.15601 12.5303C0.863117 12.2374 0.863118 11.7625 1.15601 11.4697L1.15603 11.4696L4.54187 8.08379C4.83476 7.7909 5.30964 7.7909 5.60253 8.08379C5.89542 8.37668 5.89542 8.85156 5.60253 9.14445L3.49697 11.25L8.50001 11.25C8.91422 11.25 9.25001 11.5858 9.25001 12Z" fill="#161721"/>
</svg>
