<svg width="24" height="24" viewBox="0 0 24 24" fill="none" xmlns="http://www.w3.org/2000/svg">
<path fill-rule="evenodd" clip-rule="evenodd" d="M18.3582 11.6633L18.3626 11.6676C18.4591 11.7642 18.5134 11.8951 18.5134 12.0316C18.5134 12.1682 18.4591 12.2991 18.3626 12.3957L15.4504 15.3079C15.3538 15.4044 15.2229 15.4587 15.0864 15.4587C14.9498 15.4587 14.8189 15.4044 14.7223 15.3079C14.6258 15.2113 14.5715 15.0804 14.5715 14.9438C14.5715 14.8073 14.6258 14.6764 14.7223 14.5798L16.7813 12.5209L11.4199 12.5209C11.2832 12.5209 11.152 12.4665 11.0554 12.3699C10.9587 12.2732 10.9044 12.1421 10.9044 12.0054C10.9044 11.8687 10.9587 11.7376 11.0554 11.6409C11.152 11.5442 11.2832 11.4899 11.4199 11.4899L16.7288 11.4899L14.7223 9.48346C14.6258 9.38691 14.5715 9.25597 14.5715 9.11943C14.5715 8.9829 14.6258 8.85195 14.7223 8.75541C14.8189 8.65886 14.9498 8.60462 15.0864 8.60462C15.2229 8.60462 15.3538 8.65886 15.4504 8.75541L18.3145 11.6195C18.3222 11.6263 18.3297 11.6334 18.337 11.6407C18.3443 11.648 18.3514 11.6555 18.3582 11.6633Z" fill="#0C2739"/>
<path fill-rule="evenodd" clip-rule="evenodd" d="M5.42351 12.3367L5.41915 12.3324C5.32261 12.2358 5.26837 12.1049 5.26837 11.9684C5.26837 11.8318 5.32261 11.7009 5.41915 11.6043L8.33136 8.69213C8.42791 8.59559 8.55885 8.54135 8.69539 8.54135C8.83192 8.54135 8.96286 8.59559 9.05941 8.69213C9.15596 8.78868 9.2102 8.91962 9.21019 9.05616C9.21019 9.19269 9.15596 9.32364 9.05941 9.42018L7.00045 11.4791L12.3619 11.4791C12.4986 11.4791 12.6297 11.5335 12.7264 11.6301C12.823 11.7268 12.8773 11.8579 12.8773 11.9946C12.8773 12.1313 12.823 12.2624 12.7264 12.3591C12.6297 12.4558 12.4986 12.5101 12.3619 12.5101L7.05294 12.5101L9.05941 14.5165C9.15596 14.6131 9.21019 14.744 9.21019 14.8806C9.21019 15.0171 9.15596 15.148 9.05941 15.2446C8.96286 15.3411 8.83192 15.3954 8.69538 15.3954C8.55885 15.3954 8.4279 15.3411 8.33136 15.2446L5.46728 12.3805C5.45956 12.3737 5.45204 12.3666 5.44473 12.3593C5.43742 12.352 5.43035 12.3445 5.42351 12.3367Z" fill="#0C2739"/>
<path fill-rule="evenodd" clip-rule="evenodd" d="M1.6001 9.00001C1.6001 6.56995 3.57004 4.60001 6.0001 4.60001H18.0001C20.4302 4.60001 22.4001 6.56995 22.4001 9.00001V15C22.4001 17.4301 20.4302 19.4 18.0001 19.4H6.0001C3.57004 19.4 1.6001 17.4301 1.6001 15V9.00001ZM6.0001 5.40001C4.01187 5.40001 2.4001 7.01178 2.4001 9.00001V15C2.4001 16.9882 4.01187 18.6 6.0001 18.6H18.0001C19.9883 18.6 21.6001 16.9882 21.6001 15V9.00001C21.6001 7.01178 19.9883 5.40001 18.0001 5.40001H6.0001Z" fill="#0C2739"/>
</svg>
