<svg width="26" height="24" viewBox="0 0 26 24" fill="none" xmlns="http://www.w3.org/2000/svg">
<path fill-rule="evenodd" clip-rule="evenodd" d="M13.5 4.75C13.5 4.33579 13.1642 4 12.75 4C12.3358 4 12 4.33579 12 4.75L12 19.25C12 19.6642 12.3358 20 12.75 20C13.1642 20 13.5 19.6642 13.5 19.25L13.5 4.75ZM4.58382 14.8555C4.29093 15.1484 4.29093 15.6233 4.58382 15.9161C4.87671 16.209 5.35159 16.209 5.64448 15.9161L9.03013 12.5305L9.03033 12.5303C9.32322 12.2374 9.32322 11.7625 9.03033 11.4696L5.64449 8.08379C5.35159 7.7909 4.87672 7.7909 4.58383 8.08379C4.29093 8.37668 4.29093 8.85156 4.58383 9.14445L6.68931 11.2499L1.68634 11.2499C1.27213 11.2499 0.93634 11.5857 0.93634 11.9999C0.93634 12.4141 1.27213 12.7499 1.68634 12.7499L6.68937 12.7499L4.58382 14.8555ZM20.4162 15.9162C20.1233 16.209 19.6484 16.209 19.3555 15.9162L15.9697 12.5303L15.9697 12.5303C15.6768 12.2374 15.6768 11.7625 15.9697 11.4696L15.9738 11.4655L19.3555 8.08382C19.6484 7.79093 20.1233 7.79093 20.4162 8.08382C20.7091 8.37671 20.7091 8.85159 20.4162 9.14448L18.3107 11.25L24.3137 11.25C24.7279 11.25 25.0637 11.5858 25.0637 12C25.0637 12.4142 24.7279 12.75 24.3137 12.75H18.3107L20.4162 14.8555C20.7091 15.1484 20.7091 15.6233 20.4162 15.9162Z" fill="#161721"/>
</svg>
