<svg width="20" height="20" viewBox="0 0 20 20" fill="none" xmlns="http://www.w3.org/2000/svg">
<path d="M18 -8.74228e-08C19.1046 -3.91405e-08 20 0.895431 20 2L20 18C20 19.1046 19.1046 20 18 20L2 20C0.895431 20 -8.35087e-07 19.1046 -7.86805e-07 18L-8.74228e-08 2C-3.91405e-08 0.89543 0.89543 -8.35087e-07 2 -7.86805e-07L18 -8.74228e-08Z" fill="white"/>
<path fill-rule="evenodd" clip-rule="evenodd" d="M11.9484 10.2807L11.9448 10.277C11.8643 10.1966 11.8191 10.0875 11.8191 9.97368C11.8191 9.8599 11.8643 9.75078 11.9448 9.67032L14.3716 7.24348C14.452 7.16303 14.5612 7.11783 14.6749 7.11783C14.7887 7.11783 14.8978 7.16303 14.9783 7.24348C15.0588 7.32394 15.104 7.43306 15.104 7.54684C15.104 7.66062 15.0588 7.76974 14.9783 7.85019L13.2625 9.566L17.7304 9.566C17.8443 9.566 17.9535 9.61125 18.0341 9.69181C18.1146 9.77237 18.1599 9.88162 18.1599 9.99555C18.1599 10.1095 18.1146 10.2187 18.0341 10.2993C17.9535 10.3798 17.8443 10.4251 17.7304 10.4251L13.3062 10.4251L14.9783 12.0972C15.0588 12.1776 15.104 12.2867 15.104 12.4005C15.104 12.5143 15.0588 12.6234 14.9783 12.7039C14.8978 12.7843 14.7887 12.8295 14.6749 12.8295C14.5612 12.8295 14.452 12.7843 14.3716 12.7039L11.9849 10.3171C11.9784 10.3114 11.9722 10.3055 11.9661 10.2994C11.96 10.2934 11.9541 10.2871 11.9484 10.2807Z" fill="#0C2739"/>
<path fill-rule="evenodd" clip-rule="evenodd" d="M8.55617 9.7194L8.5598 9.72303C8.64025 9.80349 8.68545 9.91261 8.68545 10.0264C8.68545 10.1402 8.64025 10.2493 8.5598 10.3297L6.13296 12.7566C6.0525 12.837 5.94338 12.8822 5.8296 12.8822C5.71582 12.8822 5.6067 12.837 5.52625 12.7566C5.44579 12.6761 5.40059 12.567 5.40059 12.4532C5.40059 12.3394 5.44579 12.2303 5.52625 12.1499L7.24205 10.4341L2.77419 10.4341C2.66027 10.4341 2.55101 10.3888 2.47046 10.3083C2.3899 10.2277 2.34464 10.1184 2.34464 10.0045C2.34464 9.89059 2.3899 9.78133 2.47046 9.70078C2.55101 9.62022 2.66027 9.57497 2.77419 9.57497L7.19831 9.57497L5.52625 7.9029C5.44579 7.82245 5.40059 7.71333 5.40059 7.59955C5.40059 7.48577 5.44579 7.37665 5.52625 7.29619C5.6067 7.21574 5.71582 7.17054 5.8296 7.17054C5.94338 7.17054 6.0525 7.21574 6.13296 7.29619L8.51969 9.68293C8.52612 9.68863 8.53239 9.69453 8.53848 9.70062C8.54457 9.70671 8.55047 9.71297 8.55617 9.7194Z" fill="#0C2739"/>
<line x1="10.3999" y1="4.56669" x2="10.3999" y2="15.4334" stroke="#0C2739" stroke-width="0.8" stroke-linecap="round" stroke-linejoin="round"/>
</svg>
