<svg width="24" height="24" viewBox="0 0 24 24" fill="none" xmlns="http://www.w3.org/2000/svg">
<path d="M8.2159 4.93045C8.50542 5.23031 8.49704 5.70809 8.19718 5.99761L6.62294 7.51756H14.4151C17.5278 7.51756 20 9.9479 20 12.9012C20 15.8646 17.4168 18.2849 14.4151 18.2849H13.0063C12.5895 18.2849 12.2516 17.947 12.2516 17.5301C12.2516 17.1133 12.5895 16.7754 13.0063 16.7754H14.4151C16.6461 16.7754 18.4906 14.9693 18.4906 12.9012C18.4906 10.8231 16.7363 9.027 14.4151 9.027H6.67291L8.18724 10.4369C8.4923 10.7209 8.50936 11.1985 8.22533 11.5035C7.9413 11.8086 7.46375 11.8257 7.15868 11.5416L4.24471 8.82863C4.23876 8.82316 4.23287 8.81758 4.22706 8.81189C4.07628 8.66459 4.00003 8.46866 4 8.27221C4.00004 8.07939 4.07352 7.88681 4.21964 7.74002L4.2343 7.72566L7.14873 4.91172C7.44859 4.6222 7.92638 4.63059 8.2159 4.93045Z" fill="#161721"/>
<path d="M5.22671 13.9783C5.52108 13.6832 5.99894 13.6826 6.29404 13.977L7.83397 15.5132L9.37391 13.977C9.66901 13.6826 10.1469 13.6832 10.4412 13.9783C10.7356 14.2733 10.735 14.7512 10.4399 15.0456L8.90261 16.5792L10.4399 18.1128C10.735 18.4072 10.7356 18.885 10.4412 19.1801C10.1469 19.4752 9.66901 19.4758 9.37391 19.1814L7.83397 17.6452L6.29404 19.1814C5.99894 19.4758 5.52108 19.4752 5.22671 19.1801C4.93233 18.885 4.93291 18.4072 5.22801 18.1128L6.76534 16.5792L5.22801 15.0456C4.93291 14.7512 4.93233 14.2733 5.22671 13.9783Z" fill="#161721"/>
</svg>
