<svg width="24" height="24" viewBox="0 0 24 24" fill="none" xmlns="http://www.w3.org/2000/svg">
<path fill-rule="evenodd" clip-rule="evenodd" d="M8.29001 7.93C8.29001 6.72602 9.26603 5.75 10.47 5.75C11.674 5.75 12.65 6.72602 12.65 7.93C12.65 9.13398 11.674 10.11 10.47 10.11C9.26603 10.11 8.29001 9.13398 8.29001 7.93ZM10.47 4.25C8.4376 4.25 6.79001 5.89759 6.79001 7.93C6.79001 9.96241 8.4376 11.61 10.47 11.61C12.5024 11.61 14.15 9.96241 14.15 7.93C14.15 5.89759 12.5024 4.25 10.47 4.25ZM5.3 17.33C5.3 15.7956 6.54283 14.56 8.07001 14.56H13.34C14.3939 14.56 15.3072 15.1457 15.7764 16.0102C15.974 16.3743 16.4292 16.5093 16.7933 16.3117C17.1574 16.1142 17.2924 15.6589 17.0948 15.2948C16.3741 13.9666 14.9662 13.06 13.34 13.06H8.07001C5.71718 13.06 3.8 14.9644 3.8 17.33V19C3.8 19.4142 4.13579 19.75 4.55 19.75C4.96422 19.75 5.3 19.4142 5.3 19V17.33ZM14.3797 17.2297C14.6726 16.9368 15.1474 16.9368 15.4403 17.2297L16.67 18.4593L19.6597 15.4697C19.9526 15.1768 20.4274 15.1768 20.7203 15.4697C21.0132 15.7626 21.0132 16.2374 20.7203 16.5303L17.201 20.0496C17.2008 20.0499 17.2006 20.0501 17.2003 20.0503C17.1637 20.0869 17.1243 20.119 17.0827 20.1464C16.7916 20.3387 16.396 20.3066 16.1397 20.0503L14.3797 18.2903C14.0868 17.9974 14.0868 17.5226 14.3797 17.2297Z" fill="#161721"/>
</svg>
