<svg width="24" height="24" viewBox="0 0 24 24" fill="none" xmlns="http://www.w3.org/2000/svg">
<path fill-rule="evenodd" clip-rule="evenodd" d="M10.1733 5.06667C8.58084 5.06667 7.28988 6.31364 7.28988 7.85185C7.28988 9.39007 8.58084 10.637 10.1733 10.637C11.7658 10.637 13.0567 9.39007 13.0567 7.85185C13.0567 6.31364 11.7658 5.06667 10.1733 5.06667ZM6.18558 7.85185C6.18558 5.72453 7.97095 4 10.1733 4C12.3757 4 14.161 5.72453 14.161 7.85185C14.161 9.97917 12.3757 11.7037 10.1733 11.7037C7.97095 11.7037 6.18558 9.97917 6.18558 7.85185ZM3.91798 15.0837C4.66582 14.3614 5.68012 13.9556 6.73773 13.9556H13.6089C14.6665 13.9556 15.6808 14.3614 16.4286 15.0837C17.1765 15.8061 17.5966 16.7858 17.5966 17.8074V17.9667C17.5966 18.2612 17.3494 18.5 17.0445 18.5C16.7395 18.5 16.4923 18.2612 16.4923 17.9667V17.8074C16.4923 17.0687 16.1885 16.3603 15.6478 15.838C15.107 15.3157 14.3736 15.0222 13.6089 15.0222H6.73773C5.973 15.0222 5.23958 15.3157 4.69883 15.838C4.15808 16.3603 3.85429 17.0687 3.85429 17.8074V19.4667C3.85429 19.7612 3.60709 20 3.30215 20C2.9972 20 2.75 19.7612 2.75 19.4667V17.8074C2.75 16.7858 3.17013 15.8061 3.91798 15.0837Z" fill="#0C2739"/>
<path fill-rule="evenodd" clip-rule="evenodd" d="M22.1025 15.8728C22.2418 16.026 22.2305 16.2632 22.0773 16.4025L17.1273 20.9025C16.9842 21.0325 16.7658 21.0325 16.6228 20.9025L14.3728 18.857C14.2195 18.7177 14.2082 18.4805 14.3475 18.3273C14.4868 18.174 14.724 18.1628 14.8773 18.3021L16.875 20.1182L21.5728 15.8475C21.726 15.7082 21.9632 15.7195 22.1025 15.8728Z" fill="#0C2739" stroke="#0C2739" stroke-width="0.25" stroke-linecap="round"/>
</svg>
