<svg width="24" height="24" viewBox="0 0 24 24" fill="none" xmlns="http://www.w3.org/2000/svg">
<path fill-rule="evenodd" clip-rule="evenodd" d="M10.99 2.29001C10.99 1.8537 11.3437 1.5 11.78 1.5C12.2163 1.5 12.57 1.8537 12.57 2.29001C12.57 2.7263 12.2163 3.08 11.78 3.08C11.3437 3.08 10.99 2.7263 10.99 2.29001ZM11.78 0C10.5153 0 9.49001 1.02528 9.49001 2.29001C9.49001 3.2771 10.1145 4.11831 10.99 4.44008V6H6.49001C4.55701 6 2.99001 7.567 2.99001 9.5L2.99001 12C1.72529 12 0.7 13.0253 0.7 14.29C0.7 15.5547 1.72528 16.58 2.99001 16.58V20.5C2.99001 22.433 4.55701 24 6.49001 24H17.49C19.423 24 20.99 22.433 20.99 20.5V16.58C22.2547 16.58 23.28 15.5548 23.28 14.29C23.28 13.0253 22.2547 12 20.99 12V9.5C20.99 7.567 19.423 6 17.49 6H12.49V4.46781C13.4072 4.169 14.07 3.30692 14.07 2.29001C14.07 1.02528 13.0447 0 11.78 0ZM6.49001 7.5H17.49C18.5946 7.5 19.49 8.39543 19.49 9.5V20.5C19.49 21.6046 18.5946 22.5 17.49 22.5H6.49001C5.38544 22.5 4.49001 21.6046 4.49001 20.5V9.5C4.49001 8.39543 5.38544 7.5 6.49001 7.5ZM2.99001 13.5C2.55369 13.5 2.2 13.8537 2.2 14.29C2.2 14.7263 2.5537 15.08 2.99001 15.08V13.5ZM20.99 15.08V13.5C21.4263 13.5 21.78 13.8537 21.78 14.29C21.78 14.7263 21.4263 15.08 20.99 15.08ZM7.49001 18.25C7.49001 17.8358 7.82579 17.5 8.24001 17.5H15.74C16.1542 17.5 16.49 17.8358 16.49 18.25C16.49 18.6642 16.1542 19 15.74 19H8.24001C7.82579 19 7.49001 18.6642 7.49001 18.25ZM10.49 13.5C10.49 14.3284 9.81844 15 8.99001 15C8.16158 15 7.49001 14.3284 7.49001 13.5C7.49001 12.6716 8.16158 12 8.99001 12C9.81844 12 10.49 12.6716 10.49 13.5ZM14.99 15C15.8184 15 16.49 14.3284 16.49 13.5C16.49 12.6716 15.8184 12 14.99 12C14.1616 12 13.49 12.6716 13.49 13.5C13.49 14.3284 14.1616 15 14.99 15Z" fill="#161721"/>
</svg>
