<svg width="28" height="28" viewBox="0 0 28 28" fill="none" xmlns="http://www.w3.org/2000/svg">
<path fill-rule="evenodd" clip-rule="evenodd" d="M3.44447 6.22224C3.44447 4.68811 4.68813 3.44446 6.22225 3.44446H21.7778C23.3119 3.44446 24.5556 4.68811 24.5556 6.22224V21.7778C24.5556 23.3119 23.3119 24.5556 21.7778 24.5556H6.22225C4.68813 24.5556 3.44447 23.3119 3.44447 21.7778V6.22224ZM6.22225 4.55557C5.30178 4.55557 4.55558 5.30176 4.55558 6.22224V21.7778C4.55558 22.6983 5.30178 23.4445 6.22225 23.4445H21.7778C22.6983 23.4445 23.4445 22.6983 23.4445 21.7778V6.22224C23.4445 5.30176 22.6983 4.55557 21.7778 4.55557H6.22225Z" fill="#0C2739"/>
<rect x="8.44447" y="9.55554" width="3.33333" height="3.33333" rx="1.66667" fill="#0C2739"/>
<rect x="16.2223" y="9.55554" width="3.33333" height="3.33333" rx="1.66667" fill="#0C2739"/>
<path fill-rule="evenodd" clip-rule="evenodd" d="M20.6667 17.3333L7.33336 17.3333L7.33336 16.2222L20.6667 16.2222L20.6667 17.3333Z" fill="#0C2739"/>
<mask id="path-5-inside-1_370_45049" fill="white">
<path fill-rule="evenodd" clip-rule="evenodd" d="M16.2222 4.00002H11.7778C11.7778 2.77274 12.7727 1.77783 14 1.77783C15.2273 1.77783 16.2222 2.77274 16.2222 4.00002Z"/>
</mask>
<path fill-rule="evenodd" clip-rule="evenodd" d="M16.2222 4.00002H11.7778C11.7778 2.77274 12.7727 1.77783 14 1.77783C15.2273 1.77783 16.2222 2.77274 16.2222 4.00002Z" fill="#C5CAD2"/>
<path d="M11.7778 4.00002L10.1111 4L10.1111 5.66669H11.7778V4.00002ZM16.2222 4.00002V5.66669H17.8889L17.8889 4L16.2222 4.00002ZM11.7778 5.66669H16.2222V2.33335H11.7778V5.66669ZM13.4445 4.00005C13.4445 3.69323 13.6932 3.4445 14 3.4445V0.111165C11.8523 0.111165 10.1112 1.85225 10.1111 4L13.4445 4.00005ZM14 3.4445C14.3068 3.4445 14.5556 3.69323 14.5556 4.00005L17.8889 4C17.8889 1.85225 16.1478 0.111165 14 0.111165V3.4445Z" fill="#0C2739" mask="url(#path-5-inside-1_370_45049)"/>
<mask id="path-7-inside-2_370_45049" fill="white">
<path fill-rule="evenodd" clip-rule="evenodd" d="M4.00003 16.2222C4.00003 16.2222 4.00003 16.2222 4.00002 16.2222C2.77272 16.2222 1.7778 15.2272 1.7778 13.9999C1.7778 12.7726 2.77272 11.7777 4.00002 11.7777L4.00003 16.2222Z"/>
</mask>
<path fill-rule="evenodd" clip-rule="evenodd" d="M4.00003 16.2222C4.00003 16.2222 4.00003 16.2222 4.00002 16.2222C2.77272 16.2222 1.7778 15.2272 1.7778 13.9999C1.7778 12.7726 2.77272 11.7777 4.00002 11.7777L4.00003 16.2222Z" fill="#C5CAD2"/>
<path d="M4.00003 16.2222L4.00003 17.8888L5.6667 17.8888L5.66669 16.2222L4.00003 16.2222ZM4.00002 11.7777L5.66669 11.7777L5.66669 10.1111L4.00002 10.1111L4.00002 11.7777ZM4.00003 14.5555C4.00003 14.5555 4.00003 14.5555 4.00003 14.5555C4.00003 14.5555 4.00003 14.5555 4.00003 14.5555C4.00003 14.5555 4.00003 14.5555 4.00003 14.5555C4.00003 14.5555 4.00003 14.5555 4.00003 14.5555C4.00003 14.5555 4.00003 14.5555 4.00003 14.5555C4.00003 14.5555 4.00003 14.5555 4.00003 14.5555C4.00003 14.5555 4.00003 14.5555 4.00003 14.5555C4.00003 14.5555 4.00003 14.5555 4.00003 14.5555C4.00003 14.5555 4.00003 14.5555 4.00003 14.5555C4.00003 14.5555 4.00003 14.5555 4.00003 14.5555C4.00003 14.5555 4.00003 14.5555 4.00003 14.5555C4.00003 14.5555 4.00003 14.5555 4.00003 14.5555C4.00003 14.5555 4.00003 14.5555 4.00003 14.5555C4.00003 14.5555 4.00003 14.5555 4.00003 14.5555C4.00003 14.5555 4.00003 14.5555 4.00003 14.5555C4.00003 14.5555 4.00003 14.5555 4.00003 14.5555C4.00003 14.5555 4.00003 14.5555 4.00003 14.5555C4.00003 14.5555 4.00003 14.5555 4.00003 14.5555C4.00003 14.5555 4.00003 14.5555 4.00003 14.5555C4.00003 14.5555 4.00003 14.5555 4.00003 14.5555C4.00003 14.5555 4.00003 14.5555 4.00003 14.5555C4.00003 14.5555 4.00003 14.5555 4.00003 14.5555C4.00003 14.5555 4.00003 14.5555 4.00003 14.5555C4.00003 14.5555 4.00003 14.5555 4.00003 14.5555C4.00003 14.5555 4.00003 14.5555 4.00003 14.5555C4.00003 14.5555 4.00003 14.5555 4.00003 14.5555C4.00003 14.5555 4.00003 14.5555 4.00003 14.5555C4.00003 14.5555 4.00003 14.5555 4.00003 14.5555C4.00003 14.5555 4.00003 14.5555 4.00003 14.5555C4.00003 14.5555 4.00003 14.5555 4.00003 14.5555C4.00003 14.5555 4.00003 14.5555 4.00003 14.5555C4.00003 14.5555 4.00003 14.5555 4.00003 14.5555C4.00003 14.5555 4.00003 14.5555 4.00003 14.5555C4.00003 14.5555 4.00003 14.5555 4.00003 14.5555C4.00003 14.5555 4.00003 14.5555 4.00003 14.5555C4.00003 14.5555 4.00003 14.5555 4.00003 14.5555C4.00003 14.5555 4.00003 14.5555 4.00003 14.5555C4.00003 14.5555 4.00003 14.5555 4.00003 14.5555C4.00003 14.5555 4.00003 14.5555 4.00003 14.5555C4.00003 14.5555 4.00003 14.5555 4.00003 14.5555C4.00003 14.5555 4.00003 14.5555 4.00003 14.5555C4.00003 14.5555 4.00003 14.5555 4.00003 14.5555C4.00003 14.5555 4.00003 14.5555 4.00003 14.5555C4.00003 14.5555 4.00003 14.5555 4.00003 14.5555C4.00003 14.5555 4.00003 14.5555 4.00003 14.5555C4.00003 14.5555 4.00003 14.5555 4.00003 14.5555C4.00003 14.5555 4.00003 14.5555 4.00003 14.5555C4.00003 14.5555 4.00003 14.5555 4.00003 14.5555C4.00003 14.5555 4.00003 14.5555 4.00003 14.5555C4.00003 14.5555 4.00003 14.5555 4.00003 14.5555C4.00003 14.5555 4.00003 14.5555 4.00003 14.5555C4.00003 14.5555 4.00003 14.5555 4.00003 14.5555C4.00003 14.5555 4.00003 14.5555 4.00003 14.5555C4.00003 14.5555 4.00003 14.5555 4.00003 14.5555C4.00003 14.5555 4.00003 14.5555 4.00003 14.5555C4.00003 14.5555 4.00003 14.5555 4.00003 14.5555C4.00003 14.5555 4.00003 14.5555 4.00003 14.5555C4.00003 14.5555 4.00003 14.5555 4.00003 14.5555C4.00003 14.5555 4.00003 14.5555 4.00003 14.5555C4.00003 14.5555 4.00003 14.5555 4.00003 14.5555C4.00003 14.5555 4.00003 14.5555 4.00003 14.5555C4.00003 14.5555 4.00003 14.5555 4.00003 14.5555C4.00003 14.5555 4.00003 14.5555 4.00003 14.5555C4.00003 14.5555 4.00003 14.5555 4.00003 14.5555C4.00003 14.5555 4.00003 14.5555 4.00003 14.5555C4.00003 14.5555 4.00003 14.5555 4.00003 14.5555C4.00003 14.5555 4.00003 14.5555 4.00003 14.5555C4.00003 14.5555 4.00003 14.5555 4.00003 14.5555C4.00003 14.5555 4.00003 14.5555 4.00003 14.5555C4.00003 14.5555 4.00003 14.5555 4.00003 14.5555C4.00003 14.5555 4.00003 14.5555 4.00003 14.5555C4.00003 14.5555 4.00003 14.5555 4.00003 14.5555C4.00003 14.5555 4.00003 14.5555 4.00003 14.5555C4.00003 14.5555 4.00003 14.5555 4.00003 14.5555C4.00003 14.5555 4.00003 14.5555 4.00003 14.5555C4.00003 14.5555 4.00003 14.5555 4.00003 14.5555C4.00003 14.5555 4.00003 14.5555 4.00003 14.5555C4.00003 14.5555 4.00003 14.5555 4.00003 14.5555C4.00003 14.5555 4.00003 14.5555 4.00003 14.5555C4.00003 14.5555 4.00003 14.5555 4.00003 14.5555C4.00003 14.5555 4.00003 14.5555 4.00003 14.5555C4.00003 14.5555 4.00003 14.5555 4.00003 14.5555C4.00003 14.5555 4.00003 14.5555 4.00003 14.5555C4.00003 14.5555 4.00003 14.5555 4.00003 14.5555C4.00003 14.5555 4.00003 14.5555 4.00003 14.5555C4.00003 14.5555 4.00003 14.5555 4.00003 14.5555C4.00003 14.5555 4.00003 14.5555 4.00003 14.5555C4.00003 14.5555 4.00003 14.5555 4.00003 14.5555C4.00003 14.5555 4.00003 14.5555 4.00003 14.5555C4.00003 14.5555 4.00003 14.5555 4.00003 14.5555C4.00003 14.5555 4.00003 14.5555 4.00003 14.5555C4.00003 14.5555 4.00003 14.5555 4.00003 14.5555C4.00003 14.5555 4.00003 14.5555 4.00003 14.5555C4.00003 14.5555 4.00003 14.5555 4.00003 14.5555C4.00003 14.5555 4.00003 14.5555 4.00003 14.5555C4.00003 14.5555 4.00003 14.5555 4.00003 14.5555C4.00003 14.5555 4.00003 14.5555 4.00003 14.5555C4.00003 14.5555 4.00003 14.5555 4.00003 14.5555C4.00003 14.5555 4.00003 14.5555 4.00003 14.5555C4.00003 14.5555 4.00003 14.5555 4.00003 14.5555C4.00003 14.5555 4.00003 14.5555 4.00003 14.5555C4.00003 14.5555 4.00003 14.5555 4.00003 14.5555C4.00003 14.5555 4.00003 14.5555 4.00003 14.5555C4.00003 14.5555 4.00003 14.5555 4.00003 14.5555C4.00003 14.5555 4.00003 14.5555 4.00003 14.5555C4.00003 14.5555 4.00003 14.5555 4.00003 14.5555C4.00003 14.5555 4.00003 14.5555 4.00003 14.5555C4.00003 14.5555 4.00003 14.5555 4.00003 14.5555C4.00003 14.5555 4.00003 14.5555 4.00003 14.5555C4.00003 14.5555 4.00003 14.5555 4.00003 14.5555C4.00003 14.5555 4.00003 14.5555 4.00003 14.5555C4.00003 14.5555 4.00003 14.5555 4.00003 14.5555C4.00003 14.5555 4.00003 14.5555 4.00003 14.5555C4.00003 14.5555 4.00003 14.5555 4.00003 14.5555C4.00003 14.5555 4.00003 14.5555 4.00003 14.5555C4.00003 14.5555 4.00003 14.5555 4.00003 14.5555C4.00003 14.5555 4.00003 14.5555 4.00003 14.5555C4.00003 14.5555 4.00003 14.5555 4.00003 14.5555C4.00003 14.5555 4.00003 14.5555 4.00003 14.5555C4.00003 14.5555 4.00003 14.5555 4.00003 14.5555C4.00003 14.5555 4.00003 14.5555 4.00003 14.5555C4.00003 14.5555 4.00003 14.5555 4.00003 14.5555C4.00003 14.5555 4.00003 14.5555 4.00003 14.5555C4.00003 14.5555 4.00003 14.5555 4.00003 14.5555C4.00003 14.5555 4.00003 14.5555 4.00003 14.5555C4.00003 14.5555 4.00003 14.5555 4.00003 14.5555C4.00003 14.5555 4.00003 14.5555 4.00003 14.5555C4.00003 14.5555 4.00003 14.5555 4.00003 14.5555C4.00003 14.5555 4.00003 14.5555 4.00003 14.5555C4.00003 14.5555 4.00003 14.5555 4.00003 14.5555C4.00003 14.5555 4.00003 14.5555 4.00003 14.5555C4.00003 14.5555 4.00003 14.5555 4.00003 14.5555C4.00003 14.5555 4.00003 14.5555 4.00003 14.5555C4.00003 14.5555 4.00003 14.5555 4.00003 14.5555C4.00003 14.5555 4.00003 14.5555 4.00003 14.5555C4.00003 14.5555 4.00003 14.5555 4.00003 14.5555C4.00003 14.5555 4.00003 14.5555 4.00003 14.5555C4.00003 14.5555 4.00003 14.5555 4.00003 14.5555C4.00003 14.5555 4.00003 14.5555 4.00003 14.5555C4.00003 14.5555 4.00003 14.5555 4.00003 14.5555C4.00003 14.5555 4.00003 14.5555 4.00003 14.5555C4.00003 14.5555 4.00003 14.5555 4.00003 14.5555C4.00003 14.5555 4.00003 14.5555 4.00003 14.5555C4.00003 14.5555 4.00003 14.5555 4.00003 14.5555C4.00003 14.5555 4.00003 14.5555 4.00003 14.5555C4.00003 14.5555 4.00003 14.5555 4.00003 14.5555C4.00003 14.5555 4.00003 14.5555 4.00003 14.5555C4.00003 14.5555 4.00003 14.5555 4.00003 14.5555C4.00003 14.5555 4.00003 14.5555 4.00003 14.5555C4.00003 14.5555 4.00003 14.5555 4.00003 14.5555C4.00003 14.5555 4.00003 14.5555 4.00003 14.5555C4.00003 14.5555 4.00003 14.5555 4.00003 14.5555C4.00003 14.5555 4.00003 14.5555 4.00003 14.5555C4.00003 14.5555 4.00003 14.5555 4.00003 14.5555C4.00003 14.5555 4.00003 14.5555 4.00003 14.5555C4.00003 14.5555 4.00003 14.5555 4.00003 14.5555C4.00003 14.5555 4.00003 14.5555 4.00003 14.5555C4.00003 14.5555 4.00003 14.5555 4.00003 14.5555C4.00003 14.5555 4.00003 14.5555 4.00003 14.5555C4.00003 14.5555 4.00003 14.5555 4.00003 14.5555C4.00003 14.5555 4.00003 14.5555 4.00003 14.5555C4.00003 14.5555 4.00003 14.5555 4.00003 14.5555C4.00003 14.5555 4.00003 14.5555 4.00003 14.5555C4.00003 14.5555 4.00003 14.5555 4.00003 14.5555C4.00003 14.5555 4.00003 14.5555 4.00003 14.5555C4.00003 14.5555 4.00003 14.5555 4.00003 14.5555C4.00003 14.5555 4.00003 14.5555 4.00003 14.5555C4.00003 14.5555 4.00003 14.5555 4.00003 14.5555C4.00003 14.5555 4.00003 14.5555 4.00003 14.5555C4.00003 14.5555 4.00003 14.5555 4.00003 14.5555C4.00003 14.5555 4.00003 14.5555 4.00003 14.5555C4.00003 14.5555 4.00003 14.5555 4.00003 14.5555C4.00003 14.5555 4.00003 14.5555 4.00003 14.5555C4.00003 14.5555 4.00003 14.5555 4.00003 14.5555C4.00003 14.5555 4.00003 14.5555 4.00003 14.5555C4.00003 14.5555 4.00003 14.5555 4.00003 14.5555C4.00003 14.5555 4.00003 14.5555 4.00003 14.5555C4.00003 14.5555 4.00003 14.5555 4.00003 14.5555C4.00003 14.5555 4.00003 14.5555 4.00003 14.5555C4.00003 14.5555 4.00003 14.5555 4.00003 14.5555C4.00003 14.5555 4.00003 14.5555 4.00003 14.5555C4.00003 14.5555 4.00003 14.5555 4.00003 14.5555C4.00003 14.5555 4.00003 14.5555 4.00003 14.5555C4.00003 14.5555 4.00003 14.5555 4.00003 14.5555C4.00003 14.5555 4.00003 14.5555 4.00003 14.5555C4.00003 14.5555 4.00003 14.5555 4.00003 14.5555C4.00003 14.5555 4.00003 14.5555 4.00003 14.5555C4.00003 14.5555 4.00003 14.5555 4.00003 14.5555C4.00003 14.5555 4.00003 14.5555 4.00003 14.5555C4.00003 14.5555 4.00003 14.5555 4.00003 14.5555C4.00003 14.5555 4.00003 14.5555 4.00003 14.5555C4.00003 14.5555 4.00003 14.5555 4.00003 14.5555C4.00003 14.5555 4.00003 14.5555 4.00003 14.5555C4.00003 14.5555 4.00003 14.5555 4.00003 14.5555C4.00003 14.5555 4.00003 14.5555 4.00003 14.5555C4.00003 14.5555 4.00003 14.5555 4.00003 14.5555C4.00003 14.5555 4.00003 14.5555 4.00003 14.5555C4.00003 14.5555 4.00003 14.5555 4.00003 14.5555C4.00003 14.5555 4.00003 14.5555 4.00003 14.5555C4.00003 14.5555 4.00003 14.5555 4.00003 14.5555C4.00003 14.5555 4.00003 14.5555 4.00003 14.5555C4.00003 14.5555 4.00003 14.5555 4.00003 14.5555C4.00003 14.5555 4.00003 14.5555 4.00003 14.5555C4.00003 14.5555 4.00003 14.5555 4.00003 14.5555C4.00003 14.5555 4.00003 14.5555 4.00003 14.5555C4.00003 14.5555 4.00003 14.5555 4.00003 14.5555C4.00003 14.5555 4.00003 14.5555 4.00003 14.5555C4.00003 14.5555 4.00003 14.5555 4.00003 14.5555C4.00003 14.5555 4.00003 14.5555 4.00003 14.5555C4.00003 14.5555 4.00003 14.5555 4.00003 14.5555C4.00003 14.5555 4.00003 14.5555 4.00003 14.5555C4.00003 14.5555 4.00003 14.5555 4.00003 14.5555C4.00003 14.5555 4.00003 14.5555 4.00003 14.5555C4.00003 14.5555 4.00003 14.5555 4.00003 14.5555C4.00003 14.5555 4.00003 14.5555 4.00003 14.5555C4.00003 14.5555 4.00003 14.5555 4.00003 14.5555C4.00003 14.5555 4.00003 14.5555 4.00003 14.5555C4.00003 14.5555 4.00003 14.5555 4.00003 14.5555C4.00003 14.5555 4.00003 14.5555 4.00003 14.5555C4.00003 14.5555 4.00003 14.5555 4.00003 14.5555C4.00003 14.5555 4.00003 14.5555 4.00003 14.5555C4.00003 14.5555 4.00003 14.5555 4.00003 14.5555C4.00003 14.5555 4.00003 14.5555 4.00003 14.5555C4.00003 14.5555 4.00003 14.5555 4.00003 14.5555C4.00003 14.5555 4.00003 14.5555 4.00003 14.5555C4.00003 14.5555 4.00003 14.5555 4.00003 14.5555C4.00003 14.5555 4.00003 14.5555 4.00003 14.5555C4.00003 14.5555 4.00003 14.5555 4.00003 14.5555C4.00003 14.5555 4.00003 14.5555 4.00003 14.5555C4.00003 14.5555 4.00003 14.5555 4.00003 14.5555C4.00003 14.5555 4.00003 14.5555 4.00003 14.5555C4.00003 14.5555 4.00003 14.5555 4.00003 14.5555C4.00003 14.5555 4.00003 14.5555 4.00003 14.5555C4.00003 14.5555 4.00003 14.5555 4.00003 14.5555C4.00003 14.5555 4.00003 14.5555 4.00003 14.5555C4.00003 14.5555 4.00003 14.5555 4.00003 14.5555C4.00003 14.5555 4.00003 14.5555 4.00003 14.5555C4.00003 14.5555 4.00003 14.5555 4.00003 14.5555C4.00003 14.5555 4.00003 14.5555 4.00003 14.5555C4.00003 14.5555 4.00003 14.5555 4.00003 14.5555C4.00003 14.5555 4.00003 14.5555 4.00003 14.5555C4.00003 14.5555 4.00003 14.5555 4.00003 14.5555C4.00003 14.5555 4.00003 14.5555 4.00003 14.5555C4.00003 14.5555 4.00003 14.5555 4.00003 14.5555C4.00003 14.5555 4.00003 14.5555 4.00003 14.5555C4.00003 14.5555 4.00003 14.5555 4.00003 14.5555C4.00003 14.5555 4.00003 14.5555 4.00003 14.5555C4.00003 14.5555 4.00003 14.5555 4.00003 14.5555C4.00003 14.5555 4.00003 14.5555 4.00003 14.5555C4.00003 14.5555 4.00003 14.5555 4.00003 14.5555C4.00003 14.5555 4.00003 14.5555 4.00003 14.5555C4.00003 14.5555 4.00003 14.5555 4.00003 14.5555C4.00003 14.5555 4.00003 14.5555 4.00003 14.5555C4.00003 14.5555 4.00003 14.5555 4.00003 14.5555C4.00003 14.5555 4.00003 14.5555 4.00003 14.5555C4.00003 14.5555 4.00003 14.5555 4.00003 14.5555C4.00003 14.5555 4.00003 14.5555 4.00003 14.5555C4.00003 14.5555 4.00003 14.5555 4.00003 14.5555C4.00003 14.5555 4.00003 14.5555 4.00003 14.5555C4.00003 14.5555 4.00003 14.5555 4.00003 14.5555C4.00003 14.5555 4.00003 14.5555 4.00003 14.5555C4.00003 14.5555 4.00003 14.5555 4.00003 14.5555C4.00003 14.5555 4.00003 14.5555 4.00003 14.5555C4.00003 14.5555 4.00003 14.5555 4.00003 14.5555C4.00003 14.5555 4.00003 14.5555 4.00003 14.5555C4.00003 14.5555 4.00003 14.5555 4.00003 14.5555C4.00003 14.5555 4.00003 14.5555 4.00003 14.5555C4.00003 14.5555 4.00003 14.5555 4.00003 14.5555C4.00003 14.5555 4.00003 14.5555 4.00003 14.5555C4.00003 14.5555 4.00003 14.5555 4.00003 14.5555C4.00003 14.5555 4.00003 14.5555 4.00003 14.5555C4.00003 14.5555 4.00003 14.5555 4.00003 14.5555C4.00003 14.5555 4.00003 14.5555 4.00003 14.5555C4.00003 14.5555 4.00003 14.5555 4.00003 14.5555C4.00003 14.5555 4.00003 14.5555 4.00003 14.5555C4.00003 14.5555 4.00003 14.5555 4.00003 14.5555C4.00003 14.5555 4.00003 14.5555 4.00003 14.5555C4.00003 14.5555 4.00003 14.5555 4.00003 14.5555C4.00003 14.5555 4.00003 14.5555 4.00003 14.5555C4.00003 14.5555 4.00003 14.5555 4.00003 14.5555C4.00003 14.5555 4.00003 14.5555 4.00003 14.5555C4.00003 14.5555 4.00003 14.5555 4.00003 14.5555C4.00003 14.5555 4.00003 14.5555 4.00003 14.5555C4.00003 14.5555 4.00003 14.5555 4.00003 14.5555C4.00003 14.5555 4.00003 14.5555 4.00003 14.5555C4.00003 14.5555 4.00003 14.5555 4.00003 14.5555C4.00003 14.5555 4.00003 14.5555 4.00003 14.5555C4.00003 14.5555 4.00003 14.5555 4.00003 14.5555C4.00003 14.5555 4.00003 14.5555 4.00003 14.5555C4.00003 14.5555 4.00003 14.5555 4.00003 14.5555C4.00003 14.5555 4.00003 14.5555 4.00003 14.5555C4.00003 14.5555 4.00003 14.5555 4.00003 14.5555C4.00003 14.5555 4.00003 14.5555 4.00003 14.5555C4.00003 14.5555 4.00003 14.5555 4.00003 14.5555C4.00003 14.5555 4.00003 14.5555 4.00003 14.5555C4.00003 14.5555 4.00003 14.5555 4.00003 14.5555C4.00003 14.5555 4.00003 14.5555 4.00003 14.5555C4.00003 14.5555 4.00003 14.5555 4.00003 14.5555C4.00003 14.5555 4.00003 14.5555 4.00003 14.5555C4.00003 14.5555 4.00003 14.5555 4.00003 14.5555C4.00003 14.5555 4.00003 14.5555 4.00003 14.5555C4.00003 14.5555 4.00003 14.5555 4.00003 14.5555C4.00003 14.5555 4.00003 14.5555 4.00003 14.5555C4.00003 14.5555 4.00003 14.5555 4.00003 14.5555C4.00003 14.5555 4.00003 14.5555 4.00003 14.5555C4.00003 14.5555 4.00003 14.5555 4.00003 14.5555C4.00003 14.5555 4.00003 14.5555 4.00003 14.5555C4.00003 14.5555 4.00003 14.5555 4.00003 14.5555C4.00003 14.5555 4.00003 14.5555 4.00003 14.5555C4.00003 14.5555 4.00003 14.5555 4.00003 14.5555C4.00003 14.5555 4.00003 14.5555 4.00003 14.5555C4.00003 14.5555 4.00003 14.5555 4.00003 14.5555C4.00003 14.5555 4.00003 14.5555 4.00003 14.5555C4.00003 14.5555 4.00003 14.5555 4.00003 14.5555C4.00003 14.5555 4.00003 14.5555 4.00003 14.5555C4.00003 14.5555 4.00003 14.5555 4.00003 14.5555C4.00003 14.5555 4.00003 14.5555 4.00003 14.5555C4.00003 14.5555 4.00003 14.5555 4.00003 14.5555C4.00003 14.5555 4.00003 14.5555 4.00003 14.5555C4.00003 14.5555 4.00003 14.5555 4.00003 14.5555C4.00003 14.5555 4.00003 14.5555 4.00003 14.5555C4.00003 14.5555 4.00003 14.5555 4.00003 14.5555C4.00003 14.5555 4.00003 14.5555 4.00003 14.5555C4.00003 14.5555 4.00003 14.5555 4.00003 14.5555C4.00003 14.5555 4.00003 14.5555 4.00003 14.5555C4.00003 14.5555 4.00003 14.5555 4.00003 14.5555C4.00003 14.5555 4.00003 14.5555 4.00003 14.5555C4.00003 14.5555 4.00003 14.5555 4.00003 14.5555C4.00003 14.5555 4.00003 14.5555 4.00003 14.5555C4.00003 14.5555 4.00003 14.5555 4.00003 14.5555C4.00003 14.5555 4.00003 14.5555 4.00003 14.5555C4.00003 14.5555 4.00003 14.5555 4.00003 14.5555C4.00003 14.5555 4.00003 14.5555 4.00003 14.5555C4.00003 14.5555 4.00003 14.5555 4.00003 14.5555C4.00003 14.5555 4.00003 14.5555 4.00003 14.5555C4.00003 14.5555 4.00003 14.5555 4.00003 14.5555C4.00003 14.5555 4.00003 14.5555 4.00003 14.5555C4.00003 14.5555 4.00003 14.5555 4.00003 14.5555C4.00003 14.5555 4.00003 14.5555 4.00003 14.5555C4.00003 14.5555 4.00003 14.5555 4.00003 14.5555C4.00003 14.5555 4.00003 14.5555 4.00003 14.5555C4.00003 14.5555 4.00003 14.5555 4.00003 14.5555C4.00003 14.5555 4.00003 14.5555 4.00003 14.5555C4.00003 14.5555 4.00003 14.5555 4.00003 14.5555C4.00003 14.5555 4.00003 14.5555 4.00003 14.5555C4.00003 14.5555 4.00003 14.5555 4.00003 14.5555C4.00003 14.5555 4.00003 14.5555 4.00003 14.5555C4.00003 14.5555 4.00003 14.5555 4.00003 14.5555C4.00003 14.5555 4.00003 14.5555 4.00003 14.5555C4.00003 14.5555 4.00003 14.5555 4.00003 14.5555C4.00003 14.5555 4.00003 14.5555 4.00003 14.5555C4.00003 14.5555 4.00003 14.5555 4.00003 14.5555C4.00003 14.5555 4.00003 14.5555 4.00003 14.5555C4.00003 14.5555 4.00003 14.5555 4.00003 14.5555C4.00003 14.5555 4.00003 14.5555 4.00003 14.5555C4.00003 14.5555 4.00003 14.5555 4.00003 14.5555C4.00003 14.5555 4.00003 14.5555 4.00003 14.5555C4.00003 14.5555 4.00003 14.5555 4.00003 14.5555C4.00003 14.5555 4.00003 14.5555 4.00003 14.5555C4.00003 14.5555 4.00003 14.5555 4.00003 14.5555C4.00003 14.5555 4.00003 14.5555 4.00003 14.5555C4.00003 14.5555 4.00003 14.5555 4.00003 14.5555C4.00003 14.5555 4.00003 14.5555 4.00003 14.5555C4.00003 14.5555 4.00003 14.5555 4.00003 14.5555C4.00003 14.5555 4.00003 14.5555 4.00003 14.5555C4.00003 14.5555 4.00003 14.5555 4.00003 14.5555C4.00003 14.5555 4.00003 14.5555 4.00003 14.5555C4.00003 14.5555 4.00003 14.5555 4.00003 14.5555C4.00003 14.5555 4.00003 14.5555 4.00003 14.5555C4.00003 14.5555 4.00003 14.5555 4.00003 14.5555C4.00003 14.5555 4.00003 14.5555 4.00003 14.5555C4.00003 14.5555 4.00003 14.5555 4.00003 14.5555C4.00003 14.5555 4.00003 14.5555 4.00003 14.5555C4.00003 14.5555 4.00003 14.5555 4.00003 14.5555C4.00003 14.5555 4.00003 14.5555 4.00003 14.5555C4.00003 14.5555 4.00003 14.5555 4.00003 14.5555C4.00003 14.5555 4.00003 14.5555 4.00003 14.5555C4.00003 14.5555 4.00003 14.5555 4.00003 14.5555C4.00003 14.5555 4.00003 14.5555 4.00003 14.5555C4.00003 14.5555 4.00003 14.5555 4.00003 14.5555C4.00003 14.5555 4.00003 14.5555 4.00003 14.5555C4.00003 14.5555 4.00003 14.5555 4.00003 14.5555C4.00003 14.5555 4.00003 14.5555 4.00003 14.5555C4.00003 14.5555 4.00003 14.5555 4.00003 14.5555C4.00003 14.5555 4.00003 14.5555 4.00003 14.5555C4.00002 14.5555 4.00002 14.5555 4.00002 14.5555C4.00002 14.5555 4.00002 14.5555 4.00002 14.5555C4.00002 14.5555 4.00002 14.5555 4.00002 14.5555C4.00002 14.5555 4.00002 14.5555 4.00002 14.5555C4.00002 14.5555 4.00002 14.5555 4.00002 14.5555C4.00002 14.5555 4.00002 14.5555 4.00002 14.5555C4.00002 14.5555 4.00002 14.5555 4.00002 14.5555C4.00002 14.5555 4.00002 14.5555 4.00002 14.5555C4.00002 14.5555 4.00002 14.5555 4.00002 14.5555C4.00002 14.5555 4.00002 14.5555 4.00002 14.5555C4.00002 14.5555 4.00002 14.5555 4.00002 14.5555C4.00002 14.5555 4.00002 14.5555 4.00002 14.5555C4.00002 14.5555 4.00002 14.5555 4.00002 14.5555C4.00002 14.5555 4.00002 14.5555 4.00002 14.5555C4.00002 14.5555 4.00002 14.5555 4.00002 14.5555C4.00002 14.5555 4.00002 14.5555 4.00002 14.5555C4.00002 14.5555 4.00002 14.5555 4.00002 14.5555C4.00002 14.5555 4.00002 14.5555 4.00002 14.5555C4.00002 14.5555 4.00002 14.5555 4.00002 14.5555C4.00002 14.5555 4.00002 14.5555 4.00002 14.5555C4.00002 14.5555 4.00002 14.5555 4.00002 14.5555C4.00002 14.5555 4.00002 14.5555 4.00002 14.5555C4.00002 14.5555 4.00002 14.5555 4.00002 14.5555C4.00002 14.5555 4.00002 14.5555 4.00002 14.5555C4.00002 14.5555 4.00002 14.5555 4.00002 14.5555C4.00002 14.5555 4.00002 14.5555 4.00002 14.5555C4.00002 14.5555 4.00002 14.5555 4.00002 14.5555C4.00002 14.5555 4.00002 14.5555 4.00002 14.5555C4.00002 14.5555 4.00002 14.5555 4.00002 14.5555C4.00002 14.5555 4.00002 14.5555 4.00002 14.5555C4.00002 14.5555 4.00002 14.5555 4.00002 14.5555C4.00002 14.5555 4.00002 14.5555 4.00002 14.5555C4.00002 14.5555 4.00002 14.5555 4.00002 14.5555C4.00002 14.5555 4.00002 14.5555 4.00002 14.5555C4.00002 14.5555 4.00002 14.5555 4.00002 14.5555C4.00002 14.5555 4.00002 14.5555 4.00002 14.5555C4.00002 14.5555 4.00002 14.5555 4.00002 14.5555C4.00002 14.5555 4.00002 14.5555 4.00002 14.5555C4.00002 14.5555 4.00002 14.5555 4.00002 14.5555C4.00002 14.5555 4.00002 14.5555 4.00002 14.5555C4.00002 14.5555 4.00002 14.5555 4.00002 14.5555C4.00002 14.5555 4.00002 14.5555 4.00002 14.5555C4.00002 14.5555 4.00002 14.5555 4.00002 14.5555C4.00002 14.5555 4.00002 14.5555 4.00002 14.5555C4.00002 14.5555 4.00002 14.5555 4.00002 14.5555C4.00002 14.5555 4.00002 14.5555 4.00002 14.5555C4.00002 14.5555 4.00002 14.5555 4.00002 14.5555C4.00002 14.5555 4.00002 14.5555 4.00002 14.5555C4.00002 14.5555 4.00002 14.5555 4.00002 14.5555C4.00002 14.5555 4.00002 14.5555 4.00002 14.5555C4.00002 14.5555 4.00002 14.5555 4.00002 14.5555C4.00002 14.5555 4.00002 14.5555 4.00002 14.5555C4.00002 14.5555 4.00002 14.5555 4.00002 14.5555C4.00002 14.5555 4.00002 14.5555 4.00002 14.5555C4.00002 14.5555 4.00002 14.5555 4.00002 14.5555C4.00002 14.5555 4.00002 14.5555 4.00002 14.5555C4.00002 14.5555 4.00002 14.5555 4.00002 14.5555C4.00002 14.5555 4.00002 14.5555 4.00002 14.5555C4.00002 14.5555 4.00002 14.5555 4.00002 14.5555C4.00002 14.5555 4.00002 14.5555 4.00002 14.5555C4.00002 14.5555 4.00002 14.5555 4.00002 14.5555C4.00002 14.5555 4.00002 14.5555 4.00002 14.5555C4.00002 14.5555 4.00002 14.5555 4.00002 14.5555C4.00002 14.5555 4.00002 14.5555 4.00002 14.5555C4.00002 14.5555 4.00002 14.5555 4.00002 14.5555C4.00002 14.5555 4.00002 14.5555 4.00002 14.5555C4.00002 14.5555 4.00002 14.5555 4.00002 14.5555C4.00002 14.5555 4.00002 14.5555 4.00002 14.5555C4.00002 14.5555 4.00002 14.5555 4.00002 14.5555C4.00002 14.5555 4.00002 14.5555 4.00002 14.5555C4.00002 14.5555 4.00002 14.5555 4.00002 14.5555C4.00002 14.5555 4.00002 14.5555 4.00002 14.5555C4.00002 14.5555 4.00002 14.5555 4.00002 14.5555C4.00002 14.5555 4.00002 14.5555 4.00002 14.5555C4.00002 14.5555 4.00002 14.5555 4.00002 14.5555C4.00002 14.5555 4.00002 14.5555 4.00002 14.5555C4.00002 14.5555 4.00002 14.5555 4.00002 14.5555C4.00002 14.5555 4.00002 14.5555 4.00002 14.5555C4.00002 14.5555 4.00002 14.5555 4.00002 14.5555C4.00002 14.5555 4.00002 14.5555 4.00002 14.5555C4.00002 14.5555 4.00002 14.5555 4.00002 14.5555C4.00002 14.5555 4.00002 14.5555 4.00002 14.5555C4.00002 14.5555 4.00002 14.5555 4.00002 14.5555C4.00002 14.5555 4.00002 14.5555 4.00002 14.5555C4.00002 14.5555 4.00002 14.5555 4.00002 14.5555C4.00002 14.5555 4.00002 14.5555 4.00002 14.5555C4.00002 14.5555 4.00002 14.5555 4.00002 14.5555C4.00002 14.5555 4.00002 14.5555 4.00002 14.5555C4.00002 14.5555 4.00002 14.5555 4.00002 14.5555C4.00002 14.5555 4.00002 14.5555 4.00002 14.5555C4.00002 14.5555 4.00002 14.5555 4.00002 14.5555C4.00002 14.5555 4.00002 14.5555 4.00002 14.5555C4.00002 14.5555 4.00002 14.5555 4.00002 14.5555C4.00002 14.5555 4.00002 14.5555 4.00002 14.5555C4.00002 14.5555 4.00002 14.5555 4.00002 14.5555C4.00002 14.5555 4.00002 14.5555 4.00002 14.5555C4.00002 14.5555 4.00002 14.5555 4.00002 14.5555C4.00002 14.5555 4.00002 14.5555 4.00002 14.5555C4.00002 14.5555 4.00002 14.5555 4.00002 14.5555C4.00002 14.5555 4.00002 14.5555 4.00002 14.5555C4.00002 14.5555 4.00002 14.5555 4.00002 14.5555C4.00002 14.5555 4.00002 14.5555 4.00002 14.5555C4.00002 14.5555 4.00002 14.5555 4.00002 14.5555C4.00002 14.5555 4.00002 14.5555 4.00002 14.5555C4.00002 14.5555 4.00002 14.5555 4.00002 14.5555C4.00002 14.5555 4.00002 14.5555 4.00002 14.5555C4.00002 14.5555 4.00002 14.5555 4.00002 14.5555C4.00002 14.5555 4.00002 14.5555 4.00002 14.5555C4.00002 14.5555 4.00002 14.5555 4.00002 14.5555C4.00002 14.5555 4.00002 14.5555 4.00002 14.5555C4.00002 14.5555 4.00002 14.5555 4.00002 14.5555C4.00002 14.5555 4.00002 14.5555 4.00002 14.5555C4.00002 14.5555 4.00002 14.5555 4.00002 14.5555C4.00002 14.5555 4.00002 14.5555 4.00002 14.5555C4.00002 14.5555 4.00002 14.5555 4.00002 14.5555C4.00002 14.5555 4.00002 14.5555 4.00002 14.5555C4.00002 14.5555 4.00002 14.5555 4.00002 14.5555C4.00002 14.5555 4.00002 14.5555 4.00002 14.5555C4.00002 14.5555 4.00002 14.5555 4.00002 14.5555C4.00002 14.5555 4.00002 14.5555 4.00002 14.5555C4.00002 14.5555 4.00002 14.5555 4.00002 14.5555C4.00002 14.5555 4.00002 14.5555 4.00002 14.5555C4.00002 14.5555 4.00002 14.5555 4.00002 14.5555C4.00002 14.5555 4.00002 14.5555 4.00002 14.5555C4.00002 14.5555 4.00002 14.5555 4.00002 14.5555C4.00002 14.5555 4.00002 14.5555 4.00002 14.5555C4.00002 14.5555 4.00002 14.5555 4.00002 14.5555L4.00002 17.8888C4.00002 17.8888 4.00002 17.8888 4.00002 17.8888C4.00002 17.8888 4.00002 17.8888 4.00002 17.8888C4.00002 17.8888 4.00002 17.8888 4.00002 17.8888C4.00002 17.8888 4.00002 17.8888 4.00002 17.8888C4.00002 17.8888 4.00002 17.8888 4.00002 17.8888C4.00002 17.8888 4.00002 17.8888 4.00002 17.8888C4.00002 17.8888 4.00002 17.8888 4.00002 17.8888C4.00002 17.8888 4.00002 17.8888 4.00002 17.8888C4.00002 17.8888 4.00002 17.8888 4.00002 17.8888C4.00002 17.8888 4.00002 17.8888 4.00002 17.8888C4.00002 17.8888 4.00002 17.8888 4.00002 17.8888C4.00002 17.8888 4.00002 17.8888 4.00002 17.8888C4.00002 17.8888 4.00002 17.8888 4.00002 17.8888C4.00002 17.8888 4.00002 17.8888 4.00002 17.8888C4.00002 17.8888 4.00002 17.8888 4.00002 17.8888C4.00002 17.8888 4.00002 17.8888 4.00002 17.8888C4.00002 17.8888 4.00002 17.8888 4.00002 17.8888C4.00002 17.8888 4.00002 17.8888 4.00002 17.8888C4.00002 17.8888 4.00002 17.8888 4.00002 17.8888C4.00002 17.8888 4.00002 17.8888 4.00002 17.8888C4.00002 17.8888 4.00002 17.8888 4.00002 17.8888C4.00002 17.8888 4.00002 17.8888 4.00002 17.8888C4.00002 17.8888 4.00002 17.8888 4.00002 17.8888C4.00002 17.8888 4.00002 17.8888 4.00002 17.8888C4.00002 17.8888 4.00002 17.8888 4.00002 17.8888C4.00002 17.8888 4.00002 17.8888 4.00002 17.8888C4.00002 17.8888 4.00002 17.8888 4.00002 17.8888C4.00002 17.8888 4.00002 17.8888 4.00002 17.8888C4.00002 17.8888 4.00002 17.8888 4.00002 17.8888C4.00002 17.8888 4.00002 17.8888 4.00002 17.8888C4.00002 17.8888 4.00002 17.8888 4.00002 17.8888C4.00002 17.8888 4.00002 17.8888 4.00002 17.8888C4.00002 17.8888 4.00002 17.8888 4.00002 17.8888C4.00002 17.8888 4.00002 17.8888 4.00002 17.8888C4.00002 17.8888 4.00002 17.8888 4.00002 17.8888C4.00002 17.8888 4.00002 17.8888 4.00002 17.8888C4.00002 17.8888 4.00002 17.8888 4.00002 17.8888C4.00002 17.8888 4.00002 17.8888 4.00002 17.8888C4.00002 17.8888 4.00002 17.8888 4.00002 17.8888C4.00002 17.8888 4.00002 17.8888 4.00002 17.8888C4.00002 17.8888 4.00002 17.8888 4.00002 17.8888C4.00002 17.8888 4.00002 17.8888 4.00002 17.8888C4.00002 17.8888 4.00002 17.8888 4.00002 17.8888C4.00002 17.8888 4.00002 17.8888 4.00002 17.8888C4.00002 17.8888 4.00002 17.8888 4.00002 17.8888C4.00002 17.8888 4.00002 17.8888 4.00002 17.8888C4.00002 17.8888 4.00002 17.8888 4.00002 17.8888C4.00002 17.8888 4.00002 17.8888 4.00002 17.8888C4.00002 17.8888 4.00002 17.8888 4.00002 17.8888C4.00002 17.8888 4.00002 17.8888 4.00002 17.8888C4.00002 17.8888 4.00002 17.8888 4.00002 17.8888C4.00002 17.8888 4.00002 17.8888 4.00002 17.8888C4.00002 17.8888 4.00002 17.8888 4.00002 17.8888C4.00002 17.8888 4.00002 17.8888 4.00002 17.8888C4.00002 17.8888 4.00002 17.8888 4.00002 17.8888C4.00002 17.8888 4.00002 17.8888 4.00002 17.8888C4.00002 17.8888 4.00002 17.8888 4.00002 17.8888C4.00002 17.8888 4.00002 17.8888 4.00002 17.8888C4.00002 17.8888 4.00002 17.8888 4.00002 17.8888C4.00002 17.8888 4.00002 17.8888 4.00002 17.8888C4.00002 17.8888 4.00002 17.8888 4.00002 17.8888C4.00002 17.8888 4.00002 17.8888 4.00002 17.8888C4.00002 17.8888 4.00002 17.8888 4.00002 17.8888C4.00002 17.8888 4.00002 17.8888 4.00002 17.8888C4.00002 17.8888 4.00002 17.8888 4.00002 17.8888C4.00002 17.8888 4.00002 17.8888 4.00002 17.8888C4.00002 17.8888 4.00002 17.8888 4.00002 17.8888C4.00002 17.8888 4.00002 17.8888 4.00002 17.8888C4.00002 17.8888 4.00002 17.8888 4.00002 17.8888C4.00002 17.8888 4.00002 17.8888 4.00002 17.8888C4.00002 17.8888 4.00002 17.8888 4.00002 17.8888C4.00002 17.8888 4.00002 17.8888 4.00002 17.8888C4.00002 17.8888 4.00002 17.8888 4.00002 17.8888C4.00002 17.8888 4.00002 17.8888 4.00002 17.8888C4.00002 17.8888 4.00002 17.8888 4.00002 17.8888C4.00002 17.8888 4.00002 17.8888 4.00002 17.8888C4.00002 17.8888 4.00002 17.8888 4.00002 17.8888C4.00002 17.8888 4.00002 17.8888 4.00002 17.8888C4.00002 17.8888 4.00002 17.8888 4.00002 17.8888C4.00002 17.8888 4.00002 17.8888 4.00002 17.8888C4.00002 17.8888 4.00002 17.8888 4.00002 17.8888C4.00002 17.8888 4.00002 17.8888 4.00002 17.8888C4.00002 17.8888 4.00002 17.8888 4.00002 17.8888C4.00002 17.8888 4.00002 17.8888 4.00002 17.8888C4.00002 17.8888 4.00002 17.8888 4.00002 17.8888C4.00002 17.8888 4.00002 17.8888 4.00002 17.8888C4.00002 17.8888 4.00002 17.8888 4.00002 17.8888C4.00002 17.8888 4.00002 17.8888 4.00002 17.8888C4.00002 17.8888 4.00002 17.8888 4.00002 17.8888C4.00002 17.8888 4.00002 17.8888 4.00002 17.8888C4.00002 17.8888 4.00002 17.8888 4.00002 17.8888C4.00002 17.8888 4.00002 17.8888 4.00002 17.8888C4.00002 17.8888 4.00002 17.8888 4.00002 17.8888C4.00002 17.8888 4.00002 17.8888 4.00002 17.8888C4.00002 17.8888 4.00002 17.8888 4.00002 17.8888C4.00002 17.8888 4.00002 17.8888 4.00002 17.8888C4.00002 17.8888 4.00002 17.8888 4.00002 17.8888C4.00002 17.8888 4.00002 17.8888 4.00002 17.8888C4.00002 17.8888 4.00002 17.8888 4.00002 17.8888C4.00002 17.8888 4.00002 17.8888 4.00002 17.8888C4.00002 17.8888 4.00002 17.8888 4.00002 17.8888C4.00002 17.8888 4.00002 17.8888 4.00002 17.8888C4.00002 17.8888 4.00002 17.8888 4.00002 17.8888C4.00002 17.8888 4.00002 17.8888 4.00002 17.8888C4.00002 17.8888 4.00002 17.8888 4.00002 17.8888C4.00002 17.8888 4.00002 17.8888 4.00002 17.8888C4.00002 17.8888 4.00002 17.8888 4.00002 17.8888C4.00002 17.8888 4.00002 17.8888 4.00002 17.8888C4.00002 17.8888 4.00003 17.8888 4.00003 17.8888C4.00003 17.8888 4.00003 17.8888 4.00003 17.8888C4.00003 17.8888 4.00003 17.8888 4.00003 17.8888C4.00003 17.8888 4.00003 17.8888 4.00003 17.8888C4.00003 17.8888 4.00003 17.8888 4.00003 17.8888C4.00003 17.8888 4.00003 17.8888 4.00003 17.8888C4.00003 17.8888 4.00003 17.8888 4.00003 17.8888C4.00003 17.8888 4.00003 17.8888 4.00003 17.8888C4.00003 17.8888 4.00003 17.8888 4.00003 17.8888C4.00003 17.8888 4.00003 17.8888 4.00003 17.8888C4.00003 17.8888 4.00003 17.8888 4.00003 17.8888C4.00003 17.8888 4.00003 17.8888 4.00003 17.8888C4.00003 17.8888 4.00003 17.8888 4.00003 17.8888C4.00003 17.8888 4.00003 17.8888 4.00003 17.8888C4.00003 17.8888 4.00003 17.8888 4.00003 17.8888C4.00003 17.8888 4.00003 17.8888 4.00003 17.8888C4.00003 17.8888 4.00003 17.8888 4.00003 17.8888C4.00003 17.8888 4.00003 17.8888 4.00003 17.8888C4.00003 17.8888 4.00003 17.8888 4.00003 17.8888C4.00003 17.8888 4.00003 17.8888 4.00003 17.8888C4.00003 17.8888 4.00003 17.8888 4.00003 17.8888C4.00003 17.8888 4.00003 17.8888 4.00003 17.8888C4.00003 17.8888 4.00003 17.8888 4.00003 17.8888C4.00003 17.8888 4.00003 17.8888 4.00003 17.8888C4.00003 17.8888 4.00003 17.8888 4.00003 17.8888C4.00003 17.8888 4.00003 17.8888 4.00003 17.8888C4.00003 17.8888 4.00003 17.8888 4.00003 17.8888C4.00003 17.8888 4.00003 17.8888 4.00003 17.8888C4.00003 17.8888 4.00003 17.8888 4.00003 17.8888C4.00003 17.8888 4.00003 17.8888 4.00003 17.8888C4.00003 17.8888 4.00003 17.8888 4.00003 17.8888C4.00003 17.8888 4.00003 17.8888 4.00003 17.8888C4.00003 17.8888 4.00003 17.8888 4.00003 17.8888C4.00003 17.8888 4.00003 17.8888 4.00003 17.8888C4.00003 17.8888 4.00003 17.8888 4.00003 17.8888C4.00003 17.8888 4.00003 17.8888 4.00003 17.8888C4.00003 17.8888 4.00003 17.8888 4.00003 17.8888C4.00003 17.8888 4.00003 17.8888 4.00003 17.8888C4.00003 17.8888 4.00003 17.8888 4.00003 17.8888C4.00003 17.8888 4.00003 17.8888 4.00003 17.8888C4.00003 17.8888 4.00003 17.8888 4.00003 17.8888C4.00003 17.8888 4.00003 17.8888 4.00003 17.8888C4.00003 17.8888 4.00003 17.8888 4.00003 17.8888C4.00003 17.8888 4.00003 17.8888 4.00003 17.8888C4.00003 17.8888 4.00003 17.8888 4.00003 17.8888C4.00003 17.8888 4.00003 17.8888 4.00003 17.8888C4.00003 17.8888 4.00003 17.8888 4.00003 17.8888C4.00003 17.8888 4.00003 17.8888 4.00003 17.8888C4.00003 17.8888 4.00003 17.8888 4.00003 17.8888C4.00003 17.8888 4.00003 17.8888 4.00003 17.8888C4.00003 17.8888 4.00003 17.8888 4.00003 17.8888C4.00003 17.8888 4.00003 17.8888 4.00003 17.8888C4.00003 17.8888 4.00003 17.8888 4.00003 17.8888C4.00003 17.8888 4.00003 17.8888 4.00003 17.8888C4.00003 17.8888 4.00003 17.8888 4.00003 17.8888C4.00003 17.8888 4.00003 17.8888 4.00003 17.8888C4.00003 17.8888 4.00003 17.8888 4.00003 17.8888C4.00003 17.8888 4.00003 17.8888 4.00003 17.8888C4.00003 17.8888 4.00003 17.8888 4.00003 17.8888C4.00003 17.8888 4.00003 17.8888 4.00003 17.8888C4.00003 17.8888 4.00003 17.8888 4.00003 17.8888C4.00003 17.8888 4.00003 17.8888 4.00003 17.8888C4.00003 17.8888 4.00003 17.8888 4.00003 17.8888C4.00003 17.8888 4.00003 17.8888 4.00003 17.8888C4.00003 17.8888 4.00003 17.8888 4.00003 17.8888C4.00003 17.8888 4.00003 17.8888 4.00003 17.8888C4.00003 17.8888 4.00003 17.8888 4.00003 17.8888C4.00003 17.8888 4.00003 17.8888 4.00003 17.8888C4.00003 17.8888 4.00003 17.8888 4.00003 17.8888C4.00003 17.8888 4.00003 17.8888 4.00003 17.8888C4.00003 17.8888 4.00003 17.8888 4.00003 17.8888C4.00003 17.8888 4.00003 17.8888 4.00003 17.8888C4.00003 17.8888 4.00003 17.8888 4.00003 17.8888C4.00003 17.8888 4.00003 17.8888 4.00003 17.8888C4.00003 17.8888 4.00003 17.8888 4.00003 17.8888C4.00003 17.8888 4.00003 17.8888 4.00003 17.8888C4.00003 17.8888 4.00003 17.8888 4.00003 17.8888C4.00003 17.8888 4.00003 17.8888 4.00003 17.8888C4.00003 17.8888 4.00003 17.8888 4.00003 17.8888C4.00003 17.8888 4.00003 17.8888 4.00003 17.8888C4.00003 17.8888 4.00003 17.8888 4.00003 17.8888C4.00003 17.8888 4.00003 17.8888 4.00003 17.8888C4.00003 17.8888 4.00003 17.8888 4.00003 17.8888C4.00003 17.8888 4.00003 17.8888 4.00003 17.8888C4.00003 17.8888 4.00003 17.8888 4.00003 17.8888C4.00003 17.8888 4.00003 17.8888 4.00003 17.8888C4.00003 17.8888 4.00003 17.8888 4.00003 17.8888C4.00003 17.8888 4.00003 17.8888 4.00003 17.8888C4.00003 17.8888 4.00003 17.8888 4.00003 17.8888C4.00003 17.8888 4.00003 17.8888 4.00003 17.8888C4.00003 17.8888 4.00003 17.8888 4.00003 17.8888C4.00003 17.8888 4.00003 17.8888 4.00003 17.8888C4.00003 17.8888 4.00003 17.8888 4.00003 17.8888C4.00003 17.8888 4.00003 17.8888 4.00003 17.8888C4.00003 17.8888 4.00003 17.8888 4.00003 17.8888C4.00003 17.8888 4.00003 17.8888 4.00003 17.8888C4.00003 17.8888 4.00003 17.8888 4.00003 17.8888C4.00003 17.8888 4.00003 17.8888 4.00003 17.8888C4.00003 17.8888 4.00003 17.8888 4.00003 17.8888C4.00003 17.8888 4.00003 17.8888 4.00003 17.8888C4.00003 17.8888 4.00003 17.8888 4.00003 17.8888C4.00003 17.8888 4.00003 17.8888 4.00003 17.8888C4.00003 17.8888 4.00003 17.8888 4.00003 17.8888C4.00003 17.8888 4.00003 17.8888 4.00003 17.8888C4.00003 17.8888 4.00003 17.8888 4.00003 17.8888C4.00003 17.8888 4.00003 17.8888 4.00003 17.8888C4.00003 17.8888 4.00003 17.8888 4.00003 17.8888C4.00003 17.8888 4.00003 17.8888 4.00003 17.8888C4.00003 17.8888 4.00003 17.8888 4.00003 17.8888C4.00003 17.8888 4.00003 17.8888 4.00003 17.8888C4.00003 17.8888 4.00003 17.8888 4.00003 17.8888C4.00003 17.8888 4.00003 17.8888 4.00003 17.8888C4.00003 17.8888 4.00003 17.8888 4.00003 17.8888C4.00003 17.8888 4.00003 17.8888 4.00003 17.8888C4.00003 17.8888 4.00003 17.8888 4.00003 17.8888C4.00003 17.8888 4.00003 17.8888 4.00003 17.8888C4.00003 17.8888 4.00003 17.8888 4.00003 17.8888C4.00003 17.8888 4.00003 17.8888 4.00003 17.8888C4.00003 17.8888 4.00003 17.8888 4.00003 17.8888C4.00003 17.8888 4.00003 17.8888 4.00003 17.8888C4.00003 17.8888 4.00003 17.8888 4.00003 17.8888C4.00003 17.8888 4.00003 17.8888 4.00003 17.8888C4.00003 17.8888 4.00003 17.8888 4.00003 17.8888C4.00003 17.8888 4.00003 17.8888 4.00003 17.8888C4.00003 17.8888 4.00003 17.8888 4.00003 17.8888C4.00003 17.8888 4.00003 17.8888 4.00003 17.8888C4.00003 17.8888 4.00003 17.8888 4.00003 17.8888C4.00003 17.8888 4.00003 17.8888 4.00003 17.8888C4.00003 17.8888 4.00003 17.8888 4.00003 17.8888C4.00003 17.8888 4.00003 17.8888 4.00003 17.8888C4.00003 17.8888 4.00003 17.8888 4.00003 17.8888C4.00003 17.8888 4.00003 17.8888 4.00003 17.8888C4.00003 17.8888 4.00003 17.8888 4.00003 17.8888C4.00003 17.8888 4.00003 17.8888 4.00003 17.8888C4.00003 17.8888 4.00003 17.8888 4.00003 17.8888C4.00003 17.8888 4.00003 17.8888 4.00003 17.8888C4.00003 17.8888 4.00003 17.8888 4.00003 17.8888C4.00003 17.8888 4.00003 17.8888 4.00003 17.8888C4.00003 17.8888 4.00003 17.8888 4.00003 17.8888C4.00003 17.8888 4.00003 17.8888 4.00003 17.8888C4.00003 17.8888 4.00003 17.8888 4.00003 17.8888C4.00003 17.8888 4.00003 17.8888 4.00003 17.8888C4.00003 17.8888 4.00003 17.8888 4.00003 17.8888C4.00003 17.8888 4.00003 17.8888 4.00003 17.8888C4.00003 17.8888 4.00003 17.8888 4.00003 17.8888C4.00003 17.8888 4.00003 17.8888 4.00003 17.8888C4.00003 17.8888 4.00003 17.8888 4.00003 17.8888C4.00003 17.8888 4.00003 17.8888 4.00003 17.8888C4.00003 17.8888 4.00003 17.8888 4.00003 17.8888C4.00003 17.8888 4.00003 17.8888 4.00003 17.8888C4.00003 17.8888 4.00003 17.8888 4.00003 17.8888C4.00003 17.8888 4.00003 17.8888 4.00003 17.8888C4.00003 17.8888 4.00003 17.8888 4.00003 17.8888C4.00003 17.8888 4.00003 17.8888 4.00003 17.8888C4.00003 17.8888 4.00003 17.8888 4.00003 17.8888C4.00003 17.8888 4.00003 17.8888 4.00003 17.8888C4.00003 17.8888 4.00003 17.8888 4.00003 17.8888C4.00003 17.8888 4.00003 17.8888 4.00003 17.8888C4.00003 17.8888 4.00003 17.8888 4.00003 17.8888C4.00003 17.8888 4.00003 17.8888 4.00003 17.8888C4.00003 17.8888 4.00003 17.8888 4.00003 17.8888C4.00003 17.8888 4.00003 17.8888 4.00003 17.8888C4.00003 17.8888 4.00003 17.8888 4.00003 17.8888C4.00003 17.8888 4.00003 17.8888 4.00003 17.8888C4.00003 17.8888 4.00003 17.8888 4.00003 17.8888C4.00003 17.8888 4.00003 17.8888 4.00003 17.8888C4.00003 17.8888 4.00003 17.8888 4.00003 17.8888C4.00003 17.8888 4.00003 17.8888 4.00003 17.8888C4.00003 17.8888 4.00003 17.8888 4.00003 17.8888C4.00003 17.8888 4.00003 17.8888 4.00003 17.8888C4.00003 17.8888 4.00003 17.8888 4.00003 17.8888C4.00003 17.8888 4.00003 17.8888 4.00003 17.8888C4.00003 17.8888 4.00003 17.8888 4.00003 17.8888C4.00003 17.8888 4.00003 17.8888 4.00003 17.8888C4.00003 17.8888 4.00003 17.8888 4.00003 17.8888C4.00003 17.8888 4.00003 17.8888 4.00003 17.8888C4.00003 17.8888 4.00003 17.8888 4.00003 17.8888C4.00003 17.8888 4.00003 17.8888 4.00003 17.8888C4.00003 17.8888 4.00003 17.8888 4.00003 17.8888C4.00003 17.8888 4.00003 17.8888 4.00003 17.8888C4.00003 17.8888 4.00003 17.8888 4.00003 17.8888C4.00003 17.8888 4.00003 17.8888 4.00003 17.8888C4.00003 17.8888 4.00003 17.8888 4.00003 17.8888C4.00003 17.8888 4.00003 17.8888 4.00003 17.8888C4.00003 17.8888 4.00003 17.8888 4.00003 17.8888C4.00003 17.8888 4.00003 17.8888 4.00003 17.8888C4.00003 17.8888 4.00003 17.8888 4.00003 17.8888C4.00003 17.8888 4.00003 17.8888 4.00003 17.8888C4.00003 17.8888 4.00003 17.8888 4.00003 17.8888C4.00003 17.8888 4.00003 17.8888 4.00003 17.8888C4.00003 17.8888 4.00003 17.8888 4.00003 17.8888C4.00003 17.8888 4.00003 17.8888 4.00003 17.8888C4.00003 17.8888 4.00003 17.8888 4.00003 17.8888C4.00003 17.8888 4.00003 17.8888 4.00003 17.8888C4.00003 17.8888 4.00003 17.8888 4.00003 17.8888C4.00003 17.8888 4.00003 17.8888 4.00003 17.8888C4.00003 17.8888 4.00003 17.8888 4.00003 17.8888C4.00003 17.8888 4.00003 17.8888 4.00003 17.8888C4.00003 17.8888 4.00003 17.8888 4.00003 17.8888C4.00003 17.8888 4.00003 17.8888 4.00003 17.8888C4.00003 17.8888 4.00003 17.8888 4.00003 17.8888C4.00003 17.8888 4.00003 17.8888 4.00003 17.8888C4.00003 17.8888 4.00003 17.8888 4.00003 17.8888C4.00003 17.8888 4.00003 17.8888 4.00003 17.8888C4.00003 17.8888 4.00003 17.8888 4.00003 17.8888C4.00003 17.8888 4.00003 17.8888 4.00003 17.8888C4.00003 17.8888 4.00003 17.8888 4.00003 17.8888C4.00003 17.8888 4.00003 17.8888 4.00003 17.8888C4.00003 17.8888 4.00003 17.8888 4.00003 17.8888C4.00003 17.8888 4.00003 17.8888 4.00003 17.8888C4.00003 17.8888 4.00003 17.8888 4.00003 17.8888C4.00003 17.8888 4.00003 17.8888 4.00003 17.8888C4.00003 17.8888 4.00003 17.8888 4.00003 17.8888C4.00003 17.8888 4.00003 17.8888 4.00003 17.8888C4.00003 17.8888 4.00003 17.8888 4.00003 17.8888C4.00003 17.8888 4.00003 17.8888 4.00003 17.8888C4.00003 17.8888 4.00003 17.8888 4.00003 17.8888C4.00003 17.8888 4.00003 17.8888 4.00003 17.8888C4.00003 17.8888 4.00003 17.8888 4.00003 17.8888C4.00003 17.8888 4.00003 17.8888 4.00003 17.8888C4.00003 17.8888 4.00003 17.8888 4.00003 17.8888C4.00003 17.8888 4.00003 17.8888 4.00003 17.8888C4.00003 17.8888 4.00003 17.8888 4.00003 17.8888C4.00003 17.8888 4.00003 17.8888 4.00003 17.8888C4.00003 17.8888 4.00003 17.8888 4.00003 17.8888C4.00003 17.8888 4.00003 17.8888 4.00003 17.8888C4.00003 17.8888 4.00003 17.8888 4.00003 17.8888C4.00003 17.8888 4.00003 17.8888 4.00003 17.8888C4.00003 17.8888 4.00003 17.8888 4.00003 17.8888C4.00003 17.8888 4.00003 17.8888 4.00003 17.8888C4.00003 17.8888 4.00003 17.8888 4.00003 17.8888C4.00003 17.8888 4.00003 17.8888 4.00003 17.8888C4.00003 17.8888 4.00003 17.8888 4.00003 17.8888C4.00003 17.8888 4.00003 17.8888 4.00003 17.8888C4.00003 17.8888 4.00003 17.8888 4.00003 17.8888C4.00003 17.8888 4.00003 17.8888 4.00003 17.8888C4.00003 17.8888 4.00003 17.8888 4.00003 17.8888C4.00003 17.8888 4.00003 17.8888 4.00003 17.8888C4.00003 17.8888 4.00003 17.8888 4.00003 17.8888C4.00003 17.8888 4.00003 17.8888 4.00003 17.8888C4.00003 17.8888 4.00003 17.8888 4.00003 17.8888C4.00003 17.8888 4.00003 17.8888 4.00003 17.8888C4.00003 17.8888 4.00003 17.8888 4.00003 17.8888C4.00003 17.8888 4.00003 17.8888 4.00003 17.8888C4.00003 17.8888 4.00003 17.8888 4.00003 17.8888C4.00003 17.8888 4.00003 17.8888 4.00003 17.8888C4.00003 17.8888 4.00003 17.8888 4.00003 17.8888C4.00003 17.8888 4.00003 17.8888 4.00003 17.8888C4.00003 17.8888 4.00003 17.8888 4.00003 17.8888C4.00003 17.8888 4.00003 17.8888 4.00003 17.8888C4.00003 17.8888 4.00003 17.8888 4.00003 17.8888C4.00003 17.8888 4.00003 17.8888 4.00003 17.8888C4.00003 17.8888 4.00003 17.8888 4.00003 17.8888C4.00003 17.8888 4.00003 17.8888 4.00003 17.8888C4.00003 17.8888 4.00003 17.8888 4.00003 17.8888C4.00003 17.8888 4.00003 17.8888 4.00003 17.8888C4.00003 17.8888 4.00003 17.8888 4.00003 17.8888C4.00003 17.8888 4.00003 17.8888 4.00003 17.8888C4.00003 17.8888 4.00003 17.8888 4.00003 17.8888C4.00003 17.8888 4.00003 17.8888 4.00003 17.8888C4.00003 17.8888 4.00003 17.8888 4.00003 17.8888C4.00003 17.8888 4.00003 17.8888 4.00003 17.8888C4.00003 17.8888 4.00003 17.8888 4.00003 17.8888C4.00003 17.8888 4.00003 17.8888 4.00003 17.8888C4.00003 17.8888 4.00003 17.8888 4.00003 17.8888C4.00003 17.8888 4.00003 17.8888 4.00003 17.8888C4.00003 17.8888 4.00003 17.8888 4.00003 17.8888C4.00003 17.8888 4.00003 17.8888 4.00003 17.8888C4.00003 17.8888 4.00003 17.8888 4.00003 17.8888C4.00003 17.8888 4.00003 17.8888 4.00003 17.8888C4.00003 17.8888 4.00003 17.8888 4.00003 17.8888C4.00003 17.8888 4.00003 17.8888 4.00003 17.8888C4.00003 17.8888 4.00003 17.8888 4.00003 17.8888C4.00003 17.8888 4.00003 17.8888 4.00003 17.8888C4.00003 17.8888 4.00003 17.8888 4.00003 17.8888C4.00003 17.8888 4.00003 17.8888 4.00003 17.8888C4.00003 17.8888 4.00003 17.8888 4.00003 17.8888C4.00003 17.8888 4.00003 17.8888 4.00003 17.8888C4.00003 17.8888 4.00003 17.8888 4.00003 17.8888C4.00003 17.8888 4.00003 17.8888 4.00003 17.8888C4.00003 17.8888 4.00003 17.8888 4.00003 17.8888C4.00003 17.8888 4.00003 17.8888 4.00003 17.8888C4.00003 17.8888 4.00003 17.8888 4.00003 17.8888C4.00003 17.8888 4.00003 17.8888 4.00003 17.8888C4.00003 17.8888 4.00003 17.8888 4.00003 17.8888C4.00003 17.8888 4.00003 17.8888 4.00003 17.8888C4.00003 17.8888 4.00003 17.8888 4.00003 17.8888C4.00003 17.8888 4.00003 17.8888 4.00003 17.8888C4.00003 17.8888 4.00003 17.8888 4.00003 17.8888C4.00003 17.8888 4.00003 17.8888 4.00003 17.8888C4.00003 17.8888 4.00003 17.8888 4.00003 17.8888C4.00003 17.8888 4.00003 17.8888 4.00003 17.8888C4.00003 17.8888 4.00003 17.8888 4.00003 17.8888C4.00003 17.8888 4.00003 17.8888 4.00003 17.8888C4.00003 17.8888 4.00003 17.8888 4.00003 17.8888C4.00003 17.8888 4.00003 17.8888 4.00003 17.8888C4.00003 17.8888 4.00003 17.8888 4.00003 17.8888C4.00003 17.8888 4.00003 17.8888 4.00003 17.8888C4.00003 17.8888 4.00003 17.8888 4.00003 17.8888C4.00003 17.8888 4.00003 17.8888 4.00003 17.8888C4.00003 17.8888 4.00003 17.8888 4.00003 17.8888C4.00003 17.8888 4.00003 17.8888 4.00003 17.8888C4.00003 17.8888 4.00003 17.8888 4.00003 17.8888C4.00003 17.8888 4.00003 17.8888 4.00003 17.8888C4.00003 17.8888 4.00003 17.8888 4.00003 17.8888C4.00003 17.8888 4.00003 17.8888 4.00003 17.8888C4.00003 17.8888 4.00003 17.8888 4.00003 17.8888C4.00003 17.8888 4.00003 17.8888 4.00003 17.8888C4.00003 17.8888 4.00003 17.8888 4.00003 17.8888C4.00003 17.8888 4.00003 17.8888 4.00003 17.8888C4.00003 17.8888 4.00003 17.8888 4.00003 17.8888C4.00003 17.8888 4.00003 17.8888 4.00003 17.8888C4.00003 17.8888 4.00003 17.8888 4.00003 17.8888C4.00003 17.8888 4.00003 17.8888 4.00003 17.8888C4.00003 17.8888 4.00003 17.8888 4.00003 17.8888C4.00003 17.8888 4.00003 17.8888 4.00003 17.8888C4.00003 17.8888 4.00003 17.8888 4.00003 17.8888C4.00003 17.8888 4.00003 17.8888 4.00003 17.8888C4.00003 17.8888 4.00003 17.8888 4.00003 17.8888C4.00003 17.8888 4.00003 17.8888 4.00003 17.8888C4.00003 17.8888 4.00003 17.8888 4.00003 17.8888C4.00003 17.8888 4.00003 17.8888 4.00003 17.8888C4.00003 17.8888 4.00003 17.8888 4.00003 17.8888C4.00003 17.8888 4.00003 17.8888 4.00003 17.8888C4.00003 17.8888 4.00003 17.8888 4.00003 17.8888C4.00003 17.8888 4.00003 17.8888 4.00003 17.8888C4.00003 17.8888 4.00003 17.8888 4.00003 17.8888C4.00003 17.8888 4.00003 17.8888 4.00003 17.8888C4.00003 17.8888 4.00003 17.8888 4.00003 17.8888C4.00003 17.8888 4.00003 17.8888 4.00003 17.8888C4.00003 17.8888 4.00003 17.8888 4.00003 17.8888C4.00003 17.8888 4.00003 17.8888 4.00003 17.8888C4.00003 17.8888 4.00003 17.8888 4.00003 17.8888C4.00003 17.8888 4.00003 17.8888 4.00003 17.8888C4.00003 17.8888 4.00003 17.8888 4.00003 17.8888C4.00003 17.8888 4.00003 17.8888 4.00003 17.8888C4.00003 17.8888 4.00003 17.8888 4.00003 17.8888C4.00003 17.8888 4.00003 17.8888 4.00003 17.8888C4.00003 17.8888 4.00003 17.8888 4.00003 17.8888C4.00003 17.8888 4.00003 17.8888 4.00003 17.8888C4.00003 17.8888 4.00003 17.8888 4.00003 17.8888C4.00003 17.8888 4.00003 17.8888 4.00003 17.8888C4.00003 17.8888 4.00003 17.8888 4.00003 17.8888C4.00003 17.8888 4.00003 17.8888 4.00003 17.8888C4.00003 17.8888 4.00003 17.8888 4.00003 17.8888C4.00003 17.8888 4.00003 17.8888 4.00003 17.8888C4.00003 17.8888 4.00003 17.8888 4.00003 17.8888C4.00003 17.8888 4.00003 17.8888 4.00003 17.8888C4.00003 17.8888 4.00003 17.8888 4.00003 17.8888C4.00003 17.8888 4.00003 17.8888 4.00003 17.8888C4.00003 17.8888 4.00003 17.8888 4.00003 17.8888C4.00003 17.8888 4.00003 17.8888 4.00003 17.8888C4.00003 17.8888 4.00003 17.8888 4.00003 17.8888C4.00003 17.8888 4.00003 17.8888 4.00003 17.8888C4.00003 17.8888 4.00003 17.8888 4.00003 17.8888C4.00003 17.8888 4.00003 17.8888 4.00003 17.8888C4.00003 17.8888 4.00003 17.8888 4.00003 17.8888C4.00003 17.8888 4.00003 17.8888 4.00003 17.8888C4.00003 17.8888 4.00003 17.8888 4.00003 17.8888C4.00003 17.8888 4.00003 17.8888 4.00003 17.8888C4.00003 17.8888 4.00003 17.8888 4.00003 17.8888C4.00003 17.8888 4.00003 17.8888 4.00003 17.8888C4.00003 17.8888 4.00003 17.8888 4.00003 17.8888C4.00003 17.8888 4.00003 17.8888 4.00003 17.8888C4.00003 17.8888 4.00003 17.8888 4.00003 17.8888C4.00003 17.8888 4.00003 17.8888 4.00003 17.8888C4.00003 17.8888 4.00003 17.8888 4.00003 17.8888C4.00003 17.8888 4.00003 17.8888 4.00003 17.8888C4.00003 17.8888 4.00003 17.8888 4.00003 17.8888C4.00003 17.8888 4.00003 17.8888 4.00003 17.8888C4.00003 17.8888 4.00003 17.8888 4.00003 17.8888C4.00003 17.8888 4.00003 17.8888 4.00003 17.8888C4.00003 17.8888 4.00003 17.8888 4.00003 17.8888C4.00003 17.8888 4.00003 17.8888 4.00003 17.8888C4.00003 17.8888 4.00003 17.8888 4.00003 17.8888C4.00003 17.8888 4.00003 17.8888 4.00003 17.8888C4.00003 17.8888 4.00003 17.8888 4.00003 17.8888C4.00003 17.8888 4.00003 17.8888 4.00003 17.8888C4.00003 17.8888 4.00003 17.8888 4.00003 17.8888C4.00003 17.8888 4.00003 17.8888 4.00003 17.8888C4.00003 17.8888 4.00003 17.8888 4.00003 17.8888C4.00003 17.8888 4.00003 17.8888 4.00003 17.8888C4.00003 17.8888 4.00003 17.8888 4.00003 17.8888C4.00003 17.8888 4.00003 17.8888 4.00003 17.8888C4.00003 17.8888 4.00003 17.8888 4.00003 17.8888C4.00003 17.8888 4.00003 17.8888 4.00003 17.8888C4.00003 17.8888 4.00003 17.8888 4.00003 17.8888C4.00003 17.8888 4.00003 17.8888 4.00003 17.8888C4.00003 17.8888 4.00003 17.8888 4.00003 17.8888C4.00003 17.8888 4.00003 17.8888 4.00003 17.8888C4.00003 17.8888 4.00003 17.8888 4.00003 17.8888C4.00003 17.8888 4.00003 17.8888 4.00003 17.8888C4.00003 17.8888 4.00003 17.8888 4.00003 17.8888C4.00003 17.8888 4.00003 17.8888 4.00003 17.8888C4.00003 17.8888 4.00003 17.8888 4.00003 17.8888C4.00003 17.8888 4.00003 17.8888 4.00003 17.8888C4.00003 17.8888 4.00003 17.8888 4.00003 17.8888C4.00003 17.8888 4.00003 17.8888 4.00003 17.8888C4.00003 17.8888 4.00003 17.8888 4.00003 17.8888C4.00003 17.8888 4.00003 17.8888 4.00003 17.8888C4.00003 17.8888 4.00003 17.8888 4.00003 17.8888C4.00003 17.8888 4.00003 17.8888 4.00003 17.8888C4.00003 17.8888 4.00003 17.8888 4.00003 17.8888C4.00003 17.8888 4.00003 17.8888 4.00003 17.8888L4.00003 14.5555ZM4.00002 14.5555C3.6932 14.5555 3.44447 14.3068 3.44447 13.9999L0.111135 13.9999C0.111135 16.1477 1.85225 17.8888 4.00002 17.8888L4.00002 14.5555ZM3.44447 13.9999C3.44447 13.6931 3.6932 13.4444 4.00002 13.4444L4.00002 10.1111C1.85225 10.1111 0.111134 11.8522 0.111135 13.9999L3.44447 13.9999ZM5.66669 16.2222L5.66669 11.7777L2.33336 11.7777L2.33336 16.2222L5.66669 16.2222Z" fill="#0C2739" mask="url(#path-7-inside-2_370_45049)"/>
<mask id="path-9-inside-3_370_45049" fill="white">
<path fill-rule="evenodd" clip-rule="evenodd" d="M24 16.2223C25.2273 16.2223 26.2223 15.2274 26.2223 14.0001C26.2223 12.7728 25.2273 11.7778 24 11.7778L24 16.2223Z"/>
</mask>
<path fill-rule="evenodd" clip-rule="evenodd" d="M24 16.2223C25.2273 16.2223 26.2223 15.2274 26.2223 14.0001C26.2223 12.7728 25.2273 11.7778 24 11.7778L24 16.2223Z" fill="#C5CAD2"/>
<path d="M24 16.2223L22.3334 16.2223L22.3334 17.8889L24 17.8889L24 16.2223ZM24 11.7778L24 10.1112L22.3334 10.1112L22.3334 11.7778L24 11.7778ZM24.5556 14.0001C24.5556 14.3069 24.3069 14.5556 24 14.5556L24 17.8889C26.1478 17.8889 27.8889 16.1478 27.8889 14.0001L24.5556 14.0001ZM24 13.4445C24.3069 13.4445 24.5556 13.6932 24.5556 14.0001L27.8889 14.0001C27.8889 11.8523 26.1478 10.1112 24 10.1112L24 13.4445ZM22.3334 11.7778L22.3334 16.2223L25.6667 16.2223L25.6667 11.7778L22.3334 11.7778Z" fill="#0C2739" mask="url(#path-9-inside-3_370_45049)"/>
</svg>
