<svg width="24" height="24" viewBox="0 0 24 24" fill="none" xmlns="http://www.w3.org/2000/svg">
<path fill-rule="evenodd" clip-rule="evenodd" d="M2.5 5C2.5 3.61929 3.61929 2.5 5 2.5H19C20.3807 2.5 21.5 3.61929 21.5 5V19C21.5 20.3807 20.3807 21.5 19 21.5H5C3.61929 21.5 2.5 20.3807 2.5 19V5ZM5 3.5C4.17157 3.5 3.5 4.17157 3.5 5V19C3.5 19.8284 4.17157 20.5 5 20.5H19C19.8284 20.5 20.5 19.8284 20.5 19V5C20.5 4.17157 19.8284 3.5 19 3.5H5Z" fill="#0C2739"/>
<rect x="7" y="8" width="3" height="3" rx="1.5" fill="#0C2739"/>
<rect x="14" y="8" width="3" height="3" rx="1.5" fill="#0C2739"/>
<path fill-rule="evenodd" clip-rule="evenodd" d="M18 15L6 15L6 14L18 14L18 15Z" fill="#0C2739"/>
<path fill-rule="evenodd" clip-rule="evenodd" d="M14 3C14 1.89543 13.1046 1 12 1C10.8954 1 10 1.89543 10 3H14Z" fill="#0C2739"/>
<path fill-rule="evenodd" clip-rule="evenodd" d="M3 10C1.89543 10 1 10.8954 1 12C1 13.1046 1.89543 14 3 14L3 10Z" fill="#0C2739"/>
<path fill-rule="evenodd" clip-rule="evenodd" d="M21 14C22.1046 14 23 13.1046 23 12C23 10.8954 22.1046 10 21 10L21 14Z" fill="#0C2739"/>
</svg>
