<svg width="24" height="24" viewBox="0 0 24 24" fill="none" xmlns="http://www.w3.org/2000/svg">
<path fill-rule="evenodd" clip-rule="evenodd" d="M5.25 1.75C3.17893 1.75 1.5 3.42893 1.5 5.5V18.5C1.5 20.4871 3.04549 22.1132 5 22.2418V22.25H5.25H18.75H19V22.2418C20.9545 22.1132 22.5 20.4871 22.5 18.5V8.74264C22.5 7.74808 22.1049 6.79425 21.4017 6.09099L18.159 2.84835C17.4557 2.14509 16.5019 1.75 15.5074 1.75H5.25ZM19 20.7363C20.125 20.6119 21 19.6581 21 18.5V8.74264C21 8.1459 20.7629 7.57361 20.341 7.15165L17.0983 3.90901C17.0294 3.84006 16.9564 3.77605 16.88 3.7172V7.18001C16.88 7.8404 16.6177 8.47374 16.1507 8.94071C15.6837 9.40767 15.0504 9.67001 14.39 9.67001H7.59001C6.92962 9.67001 6.29628 9.40767 5.82931 8.94071C5.36235 8.47374 5.10001 7.8404 5.10001 7.18001V3.25492C3.9273 3.33211 3 4.30776 3 5.5V18.5C3 19.6581 3.87501 20.6119 5 20.7363V16C5 14.4812 6.23122 13.25 7.75 13.25H16.25C17.7688 13.25 19 14.4812 19 16V20.7363ZM6.60001 3.25H15.38V7.18001C15.38 7.44257 15.2757 7.69438 15.09 7.88005C14.9044 8.06571 14.6526 8.17001 14.39 8.17001H7.59001C7.32744 8.17001 7.07563 8.06571 6.88997 7.88005C6.70431 7.69438 6.60001 7.44257 6.60001 7.18001V3.25ZM6.5 20.75H17.5V16C17.5 15.3096 16.9404 14.75 16.25 14.75H7.75C7.05964 14.75 6.5 15.3096 6.5 16V20.75ZM13.8 5.32001C13.8 4.9058 13.4642 4.57001 13.05 4.57001C12.6358 4.57001 12.3 4.9058 12.3 5.32001V6.35001C12.3 6.76422 12.6358 7.10001 13.05 7.10001C13.4642 7.10001 13.8 6.76422 13.8 6.35001V5.32001Z" fill="#161721"/>
</svg>
