<svg width="20" height="20" viewBox="0 0 20 20" fill="none" xmlns="http://www.w3.org/2000/svg">
<path d="M19.3257 18.4667L14.3928 13.6126C15.6846 12.2091 16.4783 10.353 16.4783 8.31058C16.4777 3.9414 12.8789 0.399994 8.43927 0.399994C3.99964 0.399994 0.400879 3.9414 0.400879 8.31058C0.400879 12.6797 3.99964 16.2212 8.43927 16.2212C10.3575 16.2212 12.1169 15.5577 13.4988 14.4546L18.4508 19.3278C18.6921 19.5655 19.0839 19.5655 19.3251 19.3278C19.567 19.0901 19.567 18.7043 19.3257 18.4667ZM8.43927 15.0041C4.68286 15.0041 1.6377 12.0073 1.6377 8.31058C1.6377 4.61385 4.68286 1.61708 8.43927 1.61708C12.1957 1.61708 15.2408 4.61385 15.2408 8.31058C15.2408 12.0073 12.1957 15.0041 8.43927 15.0041Z" fill="#0C2739"/>
</svg>
