<svg width="24" height="24" viewBox="0 0 24 24" fill="none" xmlns="http://www.w3.org/2000/svg">
<path fill-rule="evenodd" clip-rule="evenodd" d="M20.1344 6.97195L20.1347 6.98854C20.2276 11.8567 20.3548 18.524 12.237 21.3377C12.1651 21.3626 12.0899 21.3751 12.0149 21.3751C11.9398 21.3751 11.8648 21.3626 11.7928 21.3377C3.67567 18.5241 3.80298 11.857 3.89593 6.98892L3.89593 6.9889C3.90597 6.46571 3.91538 5.97136 3.91538 5.49319C3.91538 5.11865 4.21902 4.815 4.59356 4.815C7.49375 4.815 9.70165 3.98147 11.5422 2.19178C11.8054 1.93579 12.2244 1.9357 12.4877 2.19178C14.3284 3.98147 16.5367 4.815 19.437 4.815C19.8117 4.815 20.1152 5.11865 20.1152 5.49319C20.1152 5.96621 20.1245 6.45498 20.1344 6.97195ZM5.25212 7.01477C5.15872 11.9085 5.05346 17.4483 12.015 19.9772C18.9771 17.4482 18.8719 11.9082 18.7786 7.01431C18.773 6.7208 18.7675 6.43632 18.7637 6.15736C16.0472 6.04279 13.8747 5.21956 12.015 3.5997C10.1555 5.21956 7.98331 6.0427 5.26695 6.15736C5.26316 6.43641 5.25773 6.72107 5.25212 7.01477ZM11.078 12.6054L14.3513 9.33226C14.6162 9.06741 15.0456 9.0675 15.3104 9.33235C15.5752 9.59712 15.5752 10.0265 15.3103 10.2914L11.5576 14.044C11.4252 14.1764 11.2516 14.2426 11.078 14.2426C10.9045 14.2426 10.7309 14.1764 10.5985 14.044L8.72221 12.1677C8.45735 11.9029 8.45735 11.4735 8.72221 11.2086C8.98697 10.9438 9.4164 10.9438 9.68125 11.2086L11.078 12.6054Z" fill="#696B80"/>
</svg>
