<svg width="38" height="40" viewBox="0 0 38 40" fill="none" xmlns="http://www.w3.org/2000/svg">
<path fill-rule="evenodd" clip-rule="evenodd" d="M19.7817 0.694402C19.5216 0.273417 19.0665 0.0123396 18.5718 0.000425608C18.0772 -0.0114883 17.61 0.227375 17.33 0.635354C16.5792 1.72938 15.2247 3.37961 12.7911 4.76477C10.3583 6.14955 6.76323 7.31707 1.46341 7.31707C0.655193 7.31707 0 7.97227 0 8.78049C0 14.1589 1.8244 21.8205 4.98741 28.1539C6.5731 31.3289 8.53511 34.252 10.848 36.4C13.1659 38.5528 15.9213 40 19.0387 40C25.2266 40 29.7331 34.7429 32.6017 28.6742C35.5235 22.4931 37.0732 14.8391 37.0732 8.78049C37.0732 7.97227 36.418 7.31707 35.6098 7.31707C25.0817 7.31707 21.0278 2.71205 19.7817 0.694402ZM7.60585 26.8462C4.89876 21.4257 3.25658 14.9935 2.97143 10.2138C7.93814 10.0125 11.5779 8.82308 14.239 7.30841C16.1556 6.21745 17.5286 4.97827 18.507 3.87512C20.838 6.56215 25.5014 9.86942 34.1164 10.2144C33.8953 15.6156 32.4572 22.1311 29.9556 27.4234C27.1751 33.3059 23.3961 37.0732 19.0387 37.0732C16.8835 37.0732 14.8058 36.0814 12.8397 34.2554C10.8686 32.4248 9.09584 29.8296 7.60585 26.8462ZM18.076 27.3003L26.9592 17.0564L24.748 15.1389L17.0668 23.9967L13.8635 19.6232L11.5023 21.3526L15.7898 27.2063C16.0529 27.5656 16.4653 27.7855 16.9103 27.8037C17.3552 27.822 17.7843 27.6368 18.076 27.3003Z" fill="url(#paint0_linear_4_9666)"/>
<defs>
<linearGradient id="paint0_linear_4_9666" x1="19.2307" y1="15.1389" x2="19.2307" y2="39.5211" gradientUnits="userSpaceOnUse">
<stop stop-color="#0E68FF"/>
<stop offset="1" stop-color="#053C86"/>
</linearGradient>
</defs>
</svg>
