<svg width="24" height="24" viewBox="0 0 24 24" fill="none" xmlns="http://www.w3.org/2000/svg">
<path fill-rule="evenodd" clip-rule="evenodd" d="M21.1111 3.22637C21.1632 3.27972 21.2064 3.34003 21.24 3.40498C21.2836 3.48901 21.3101 3.57874 21.3198 3.66948C21.332 3.78255 21.3183 3.89718 21.2798 4.00426L15.2723 21.32C15.1717 21.6098 14.9049 21.8092 14.5985 21.8234C14.292 21.8376 14.0079 21.6638 13.8809 21.3846L10.4618 13.8624L2.93965 10.4433C2.66041 10.3163 2.4866 10.0322 2.50081 9.72574C2.51502 9.41933 2.71438 9.15246 3.00418 9.05192L20.3203 3.04428C20.3413 3.03675 20.3625 3.03017 20.384 3.02455C20.4772 3.00008 20.5722 2.99427 20.6643 3.00547C20.7493 3.01573 20.8332 3.04063 20.9123 3.08063C20.9853 3.1175 21.0527 3.16646 21.1111 3.22637ZM10.8654 12.3982L17.7344 5.52914L5.26838 9.85409L10.8654 12.3982ZM11.926 13.4588L14.4701 19.0558L18.7951 6.58981L11.926 13.4588Z" fill="#161721"/>
</svg>
