<svg width="18" height="18" viewBox="0 0 18 18" fill="none" xmlns="http://www.w3.org/2000/svg">
<path d="M9.01263 0.749901C8.55863 0.755241 8.10583 0.794431 7.65813 0.867021L7.54913 1.84418C7.44733 2.75368 6.92031 3.56102 6.13069 4.01903C5.33625 4.48317 4.36764 4.53903 3.52486 4.16917L2.62657 3.77456C2.05463 4.46873 1.59941 5.25135 1.2788 6.09168L2.07659 6.67879C2.8154 7.2216 3.25175 8.0837 3.25175 9.0005C3.25175 9.9172 2.8154 10.7793 2.07737 11.3215L1.27832 11.9102C1.59866 12.752 2.05395 13.5361 2.62628 14.2316L3.53141 13.8351C4.3695 13.4692 5.33152 13.5227 6.1238 13.9794C6.91609 14.4361 7.44463 15.2417 7.54823 16.1526L7.65723 17.1365C8.54683 17.2878 9.45573 17.2878 10.3453 17.1365L10.4543 16.1527C10.5551 15.2421 11.083 14.4337 11.8762 13.9753C12.6695 13.5168 13.6334 13.463 14.473 13.8305L15.3775 14.2267C15.9493 13.5323 16.4044 12.7495 16.7249 11.909L15.927 11.3211C15.1882 10.7783 14.7518 9.9162 14.7518 8.9995C14.7518 8.0827 15.1882 7.2206 15.9261 6.67847L16.7229 6.09109C16.4023 5.25061 15.947 4.46784 15.375 3.77356L14.4785 4.16737C14.1132 4.32901 13.718 4.4122 13.3189 4.41158C11.8492 4.41004 10.6158 3.30355 10.4554 1.84383L10.3464 0.866701C9.90093 0.794201 9.45293 0.755121 9.01263 0.749901ZM8.99993 6.74995C7.75733 6.74995 6.74997 7.7573 6.74997 9C6.74997 10.2426 7.75733 11.25 8.99993 11.25C10.2426 11.25 11.2499 10.2426 11.2499 9C11.2499 7.7573 10.2426 6.74995 8.99993 6.74995Z" stroke="#0C2739"/>
</svg>
