<svg width="24" height="24" viewBox="0 0 24 24" fill="none" xmlns="http://www.w3.org/2000/svg">
<path fill-rule="evenodd" clip-rule="evenodd" d="M19.2 13.59L19.7 13.88L19.69 13.87C20.44 14.31 20.68 15.25 20.26 15.98L19.23 17.75C18.79 18.49 17.85 18.74 17.12 18.32L16.61 18.03C16.13 17.75 15.55 17.75 15.07 18.03C14.59 18.31 14.3 18.81 14.3 19.37V19.96C14.3 20.81 13.61 21.5 12.76 21.5H10.7C9.84999 21.5 9.15999 20.81 9.15999 19.96V19.37C9.15999 18.81 8.86999 18.31 8.38999 18.03C7.90999 17.75 7.32999 17.75 6.84999 18.03L6.33999 18.32C5.97999 18.53 5.56999 18.59 5.16999 18.48C4.76999 18.37 4.43999 18.12 4.22999 17.76L3.19999 15.98C2.77999 15.24 3.02999 14.3 3.75999 13.87L4.27999 13.58C4.75999 13.31 5.04999 12.8 5.04999 12.25C5.04999 11.7 4.75999 11.2 4.27999 10.92L3.77999 10.63C3.03999 10.19 2.78999 9.24999 3.20999 8.51999L4.22999 6.74999C4.66999 6.01999 5.60999 5.76999 6.33999 6.18999L6.84999 6.47999C7.32999 6.75999 7.90999 6.75999 8.38999 6.47999C8.86999 6.19999 9.15999 5.69999 9.15999 5.13999V4.54999C9.15999 3.69999 9.84999 3.00999 10.7 3.00999H12.76C13.61 3.00999 14.3 3.69999 14.3 4.54999V5.13999C14.3 5.69999 14.59 6.19999 15.07 6.47999C15.55 6.75999 16.13 6.75999 16.61 6.47999L17.12 6.18999C17.85 5.75999 18.8 6.00999 19.23 6.74999L20.26 8.52999C20.47 8.87999 20.52 9.28999 20.42 9.68999C20.32 10.09 20.07 10.42 19.71 10.63L19.2 10.92C18.72 11.19 18.43 11.69 18.43 12.25C18.43 12.81 18.72 13.31 19.2 13.59ZM17.8626 17.0258L17.36 16.74C16.41 16.19 15.27 16.2 14.32 16.74C13.37 17.29 12.8 18.28 12.8 19.37L12.76 20L10.66 19.96V19.37C10.66 18.27 10.09 17.29 9.13999 16.74C8.65999 16.46 8.13999 16.32 7.60999 16.32C7.07999 16.32 6.56999 16.46 6.09999 16.73L5.51999 17.01L4.49999 15.18L5.00999 14.89C5.96999 14.34 6.53999 13.36 6.53999 12.25C6.53999 11.15 5.96999 10.16 5.00999 9.60999L4.48999 9.26999L5.57999 7.47999L6.08999 7.76999C7.03999 8.31999 8.17999 8.30999 9.12999 7.76999C10.08 7.21999 10.65 6.22999 10.65 5.13999V4.54999C10.65 4.54999 10.67 4.50999 10.69 4.50999L12.79 4.54999V5.13999C12.79 6.23999 13.36 7.21999 14.31 7.76999C15.26 8.31999 16.39 8.32999 17.35 7.76999L17.93 7.48999L18.95 9.32999L18.44 9.61999C17.48 10.17 16.91 11.15 16.91 12.26C16.91 13.36 17.48 14.35 18.44 14.9L18.95 15.24L17.8626 17.0258ZM8.42999 12.25C8.42999 10.42 9.91999 8.92999 11.75 8.92999C13.58 8.92999 15.07 10.42 15.07 12.25C15.07 14.08 13.58 15.57 11.75 15.57C9.91999 15.57 8.42999 14.08 8.42999 12.25ZM9.92999 12.25C9.92999 13.25 10.75 14.07 11.75 14.07C12.75 14.07 13.57 13.25 13.57 12.25C13.57 11.25 12.75 10.43 11.75 10.43C10.75 10.43 9.92999 11.25 9.92999 12.25Z" fill="#161721"/>
</svg>
