<svg width="24" height="24" viewBox="0 0 24 24" fill="none" xmlns="http://www.w3.org/2000/svg">
<path fill-rule="evenodd" clip-rule="evenodd" d="M6.99 10.73C6.23462 10.73 5.66 11.3192 5.66 12C5.66 12.6809 6.23462 13.27 6.99 13.27C7.74538 13.27 8.32 12.6809 8.32 12C8.32 11.3192 7.74538 10.73 6.99 10.73ZM4.16 12C4.16 10.4496 5.44787 9.23001 6.99 9.23001C8.53212 9.23001 9.82 10.4496 9.82 12C9.82 13.5504 8.53212 14.77 6.99 14.77C5.44787 14.77 4.16 13.5504 4.16 12Z" fill="#4154FF"/>
<path fill-rule="evenodd" clip-rule="evenodd" d="M17.07 3.71002C16.3686 3.71002 15.8 4.27861 15.8 4.98001C15.8 5.68142 16.3686 6.25002 17.07 6.25002C17.7714 6.25002 18.34 5.68142 18.34 4.98001C18.34 4.27861 17.7714 3.71002 17.07 3.71002ZM14.3 4.98001C14.3 3.45018 15.5402 2.21002 17.07 2.21002C18.5998 2.21002 19.84 3.45018 19.84 4.98001C19.84 6.50984 18.5998 7.75002 17.07 7.75002C15.5402 7.75002 14.3 6.50984 14.3 4.98001Z" fill="#4154FF"/>
<path fill-rule="evenodd" clip-rule="evenodd" d="M17.07 17.75C16.3686 17.75 15.8 18.3186 15.8 19.02C15.8 19.7214 16.3686 20.29 17.07 20.29C17.7714 20.29 18.34 19.7214 18.34 19.02C18.34 18.3186 17.7714 17.75 17.07 17.75ZM14.3 19.02C14.3 17.4902 15.5402 16.25 17.07 16.25C18.5998 16.25 19.84 17.4902 19.84 19.02C19.84 20.5498 18.5998 21.79 17.07 21.79C15.5401 21.79 14.3 20.5498 14.3 19.02Z" fill="#4154FF"/>
<path fill-rule="evenodd" clip-rule="evenodd" d="M15.4455 6.11138C15.6822 6.45129 15.5985 6.91874 15.2586 7.15546L9.65864 11.0555C9.31873 11.2922 8.85128 11.2085 8.61456 10.8686C8.37784 10.5287 8.46149 10.0613 8.80139 9.82456L14.4014 5.92455C14.7413 5.68783 15.2087 5.77148 15.4455 6.11138Z" fill="#4154FF"/>
<path fill-rule="evenodd" clip-rule="evenodd" d="M8.61456 13.1314C8.85128 12.7915 9.31873 12.7078 9.65864 12.9446L15.2586 16.8445C15.5985 17.0813 15.6822 17.5487 15.4455 17.8886C15.2087 18.2285 14.7413 18.3122 14.4014 18.0755L8.8014 14.1755C8.46149 13.9387 8.37784 13.4713 8.61456 13.1314Z" fill="#4154FF"/>
</svg>
