<svg width="24" height="24" viewBox="0 0 24 24" fill="none" xmlns="http://www.w3.org/2000/svg">
<path fill-rule="evenodd" clip-rule="evenodd" d="M3.52513 3.52513C4.1815 2.86875 5.07174 2.5 6 2.5C6.92826 2.5 7.8185 2.86875 8.47487 3.52513C9.13125 4.1815 9.5 5.07174 9.5 6V8.5H14.5V6C14.5 5.07174 14.8687 4.1815 15.5251 3.52513C16.1815 2.86875 17.0717 2.5 18 2.5C18.9283 2.5 19.8185 2.86875 20.4749 3.52513C21.1313 4.1815 21.5 5.07174 21.5 6C21.5 6.92826 21.1313 7.8185 20.4749 8.47487C19.8185 9.13125 18.9283 9.5 18 9.5H15.5V14.5H18C18.9283 14.5 19.8185 14.8687 20.4749 15.5251C21.1313 16.1815 21.5 17.0717 21.5 18C21.5 18.9283 21.1313 19.8185 20.4749 20.4749C19.8185 21.1313 18.9283 21.5 18 21.5C17.0717 21.5 16.1815 21.1313 15.5251 20.4749C14.8687 19.8185 14.5 18.9283 14.5 18V15.5H9.5V18C9.5 18.9283 9.13125 19.8185 8.47487 20.4749C7.8185 21.1313 6.92826 21.5 6 21.5C5.07174 21.5 4.1815 21.1313 3.52513 20.4749C2.86875 19.8185 2.5 18.9283 2.5 18C2.5 17.0717 2.86875 16.1815 3.52513 15.5251C4.1815 14.8687 5.07174 14.5 6 14.5H8.5V9.5H6C5.07174 9.5 4.1815 9.13125 3.52513 8.47487C2.86875 7.8185 2.5 6.92826 2.5 6C2.5 5.07174 2.86875 4.1815 3.52513 3.52513ZM8.5 8.5V6C8.5 5.33696 8.23661 4.70107 7.76777 4.23223C7.29893 3.76339 6.66304 3.5 6 3.5C5.33696 3.5 4.70107 3.76339 4.23223 4.23223C3.76339 4.70107 3.5 5.33696 3.5 6C3.5 6.66304 3.76339 7.29893 4.23223 7.76777C4.70107 8.23661 5.33696 8.5 6 8.5H8.5ZM9.5 9.5V14.5H14.5V9.5H9.5ZM8.5 15.5H6C5.33696 15.5 4.70107 15.7634 4.23223 16.2322C3.76339 16.7011 3.5 17.337 3.5 18C3.5 18.663 3.76339 19.2989 4.23223 19.7678C4.70107 20.2366 5.33696 20.5 6 20.5C6.66304 20.5 7.29893 20.2366 7.76777 19.7678C8.23661 19.2989 8.5 18.663 8.5 18V15.5ZM15.5 15.5V18C15.5 18.663 15.7634 19.2989 16.2322 19.7678C16.7011 20.2366 17.337 20.5 18 20.5C18.663 20.5 19.2989 20.2366 19.7678 19.7678C20.2366 19.2989 20.5 18.663 20.5 18C20.5 17.337 20.2366 16.7011 19.7678 16.2322C19.2989 15.7634 18.663 15.5 18 15.5H15.5ZM15.5 8.5H18C18.663 8.5 19.2989 8.23661 19.7678 7.76777C20.2366 7.29893 20.5 6.66304 20.5 6C20.5 5.33696 20.2366 4.70107 19.7678 4.23223C19.2989 3.76339 18.663 3.5 18 3.5C17.337 3.5 16.7011 3.76339 16.2322 4.23223C15.7634 4.70107 15.5 5.33696 15.5 6V8.5Z" fill="#0C2739"/>
</svg>
