<svg width="24" height="24" viewBox="0 0 24 24" fill="none" xmlns="http://www.w3.org/2000/svg">
<path fill-rule="evenodd" clip-rule="evenodd" d="M6.29504 3.75C4.9014 3.75 3.75 4.88906 3.75 6.29504C3.75 7.68867 4.88906 8.84007 6.29504 8.84007H8.84007V6.29504C8.84007 4.9014 7.70101 3.75 6.29504 3.75ZM10.3401 8.84007V6.29504C10.3401 4.07817 8.53462 2.25 6.29504 2.25C4.07817 2.25 2.25 4.05545 2.25 6.29504C2.25 8.51191 4.05545 10.3401 6.29504 10.3401H8.84007V13.6599H6.29504C4.07817 13.6599 2.25 15.4654 2.25 17.705C2.25 19.9218 4.05545 21.75 6.29504 21.75C8.51191 21.75 10.3401 19.9446 10.3401 17.705V15.1599H13.6599V17.705C13.6599 19.9218 15.4654 21.75 17.705 21.75C19.9218 21.75 21.75 19.9446 21.75 17.705C21.75 15.4881 19.9446 13.6599 17.705 13.6599H15.1599V10.3401H17.705C19.9218 10.3401 21.75 8.53462 21.75 6.29504C21.75 4.07817 19.9446 2.25 17.705 2.25C15.4881 2.25 13.6599 4.05545 13.6599 6.29504V8.84007H10.3401ZM10.3401 10.3401V13.6599H13.6599V10.3401H10.3401ZM15.1599 8.84007H17.705C19.0986 8.84007 20.25 7.70101 20.25 6.29504C20.25 4.9014 19.1109 3.75 17.705 3.75C16.3113 3.75 15.1599 4.88906 15.1599 6.29504V8.84007ZM15.1599 15.1599H17.705C19.1109 15.1599 20.25 16.3113 20.25 17.705C20.25 19.1109 19.0986 20.25 17.705 20.25C16.299 20.25 15.1599 19.0986 15.1599 17.705V15.1599ZM8.84007 15.1599H6.29504C4.9014 15.1599 3.75 16.299 3.75 17.705C3.75 19.0986 4.88906 20.25 6.29504 20.25C7.68867 20.25 8.84007 19.1109 8.84007 17.705V15.1599Z" fill="#161721"/>
</svg>
