<svg width="24" height="24" viewBox="0 0 24 24" fill="none" xmlns="http://www.w3.org/2000/svg">
<path fill-rule="evenodd" clip-rule="evenodd" d="M18.2454 11.0251C18.6596 11.0251 18.9954 10.6893 18.9954 10.2751C18.9954 9.86089 18.6596 9.5251 18.2454 9.5251L15.2678 9.5251L19.5126 5.28035C19.8055 4.98745 19.8055 4.51258 19.5126 4.21969C19.2197 3.92679 18.7448 3.92679 18.4519 4.21969L14.2071 8.46447V5.48679C14.2071 5.07258 13.8713 4.73679 13.4571 4.73679C13.0429 4.73679 12.7071 5.07258 12.7071 5.48679V10.2704L12.7071 10.2751C12.7071 10.5616 12.8678 10.8106 13.1039 10.9369C13.2091 10.9932 13.3294 11.0251 13.4571 11.0251H13.4571L18.2454 11.0251ZM9.56797 19.7025C9.15376 19.7025 8.81797 19.3667 8.81797 18.9525V15.9748L5.28029 19.5125C4.9874 19.8054 4.51252 19.8054 4.21963 19.5125C3.92674 19.2196 3.92674 18.7447 4.21963 18.4518L7.75728 14.9142H4.77968C4.36546 14.9142 4.02968 14.5784 4.02968 14.1642C4.02968 13.75 4.36546 13.4142 4.77968 13.4142L9.56798 13.4142C9.9822 13.4142 10.318 13.75 10.318 14.1642L10.318 14.1682L10.318 18.9525C10.318 19.3667 9.98219 19.7025 9.56797 19.7025Z" fill="#161721"/>
</svg>
