<svg width="24" height="24" viewBox="0 0 24 24" fill="none" xmlns="http://www.w3.org/2000/svg">
<path fill-rule="evenodd" clip-rule="evenodd" d="M13.7131 5.39999C13.8492 5.39999 13.9796 5.45403 14.0758 5.55023C14.172 5.64642 14.2261 5.77689 14.2261 5.91293V9.77413H18.0916C18.2276 9.77413 18.3581 9.82817 18.4543 9.92436C18.5505 10.0206 18.6045 10.151 18.6045 10.2871C18.6045 10.4231 18.5505 10.5536 18.4543 10.6498C18.3581 10.746 18.2276 10.8 18.0916 10.8H13.7131C13.5771 10.8 13.4466 10.746 13.3504 10.6498C13.2542 10.5536 13.2002 10.4231 13.2002 10.2871V5.91293C13.2002 5.77689 13.2542 5.64642 13.3504 5.55023C13.4466 5.45403 13.5771 5.39999 13.7131 5.39999Z" fill="#0C2739"/>
<path fill-rule="evenodd" clip-rule="evenodd" d="M19.04 4.96019C19.0908 5.01084 19.1311 5.07102 19.1586 5.13727C19.186 5.20352 19.2002 5.27454 19.2002 5.34627C19.2002 5.41799 19.186 5.48901 19.1586 5.55526C19.1311 5.62151 19.0908 5.68169 19.04 5.73234L14.1323 10.6401C14.0299 10.7425 13.891 10.8 13.7462 10.8C13.6014 10.8 13.4625 10.7425 13.3601 10.6401C13.2577 10.5377 13.2002 10.3988 13.2002 10.254C13.2002 10.1092 13.2577 9.97031 13.3601 9.86792L18.2678 4.96019C18.3185 4.90941 18.3787 4.86912 18.4449 4.84163C18.5112 4.81414 18.5822 4.79999 18.6539 4.79999C18.7256 4.79999 18.7967 4.81414 18.8629 4.84163C18.9292 4.86912 18.9893 4.90941 19.04 4.96019Z" fill="#0C2739"/>
<path fill-rule="evenodd" clip-rule="evenodd" d="M11.4871 18.6C11.351 18.6 11.2206 18.5459 11.1244 18.4497C11.0282 18.3535 10.9741 18.2231 10.9741 18.087L10.9741 14.2258L7.10859 14.2258C6.97256 14.2258 6.84209 14.1718 6.7459 14.0756C6.6497 13.9794 6.59566 13.8489 6.59566 13.7129C6.59566 13.5769 6.6497 13.4464 6.7459 13.3502C6.84209 13.254 6.97256 13.2 7.10859 13.2L11.4871 13.2C11.6231 13.2 11.7536 13.254 11.8498 13.3502C11.946 13.4464 12 13.5769 12 13.7129L12 18.087C12 18.2231 11.946 18.3535 11.8498 18.4497C11.7536 18.5459 11.6231 18.6 11.4871 18.6Z" fill="#0C2739"/>
<path fill-rule="evenodd" clip-rule="evenodd" d="M6.1602 19.0398C6.10942 18.9891 6.06913 18.9289 6.04164 18.8627C6.01415 18.7965 6 18.7254 6 18.6537C6 18.582 6.01415 18.511 6.04164 18.4447C6.06913 18.3785 6.10942 18.3183 6.1602 18.2676L11.0679 13.3599C11.1703 13.2575 11.3092 13.2 11.454 13.2C11.5988 13.2 11.7377 13.2575 11.8401 13.3599C11.9425 13.4623 12 13.6012 12 13.746C12 13.8908 11.9425 14.0297 11.8401 14.132L6.93235 19.0398C6.8817 19.0906 6.82152 19.1308 6.75528 19.1583C6.68903 19.1858 6.618 19.2 6.54628 19.2C6.47455 19.2 6.40353 19.1858 6.33728 19.1583C6.27103 19.1308 6.21086 19.0906 6.1602 19.0398Z" fill="#0C2739"/>
</svg>
