<svg width="20" height="20" viewBox="0 0 20 20" fill="none" xmlns="http://www.w3.org/2000/svg">
<path fill-rule="evenodd" clip-rule="evenodd" d="M7.71313 1.39999C7.84917 1.39999 7.97963 1.45403 8.07583 1.55023C8.17202 1.64642 8.22606 1.77689 8.22606 1.91293V5.77413H12.0916C12.2276 5.77413 12.3581 5.82817 12.4543 5.92436C12.5505 6.02056 12.6045 6.15103 12.6045 6.28706C12.6045 6.4231 12.5505 6.55357 12.4543 6.64976C12.3581 6.74596 12.2276 6.8 12.0916 6.8H7.71313C7.57709 6.8 7.44662 6.74596 7.35043 6.64976C7.25424 6.55357 7.2002 6.4231 7.2002 6.28706V1.91293C7.2002 1.77689 7.25424 1.64642 7.35043 1.55023C7.44662 1.45403 7.57709 1.39999 7.71313 1.39999Z" fill="#0C2739"/>
<path fill-rule="evenodd" clip-rule="evenodd" d="M13.04 0.960191C13.0908 1.01084 13.1311 1.07102 13.1586 1.13727C13.186 1.20352 13.2002 1.27454 13.2002 1.34627C13.2002 1.41799 13.186 1.48901 13.1586 1.55526C13.1311 1.62151 13.0908 1.68169 13.04 1.73234L8.13226 6.64007C8.02987 6.74246 7.89099 6.79999 7.74619 6.79999C7.60138 6.79999 7.46251 6.74246 7.36011 6.64007C7.25772 6.53768 7.2002 6.3988 7.2002 6.25399C7.2002 6.10919 7.25772 5.97031 7.36011 5.86792L12.2678 0.960191C12.3185 0.909409 12.3787 0.869119 12.4449 0.841629C12.5112 0.814138 12.5822 0.799988 12.6539 0.799988C12.7256 0.799988 12.7967 0.814138 12.8629 0.841629C12.9292 0.869119 12.9893 0.909409 13.04 0.960191Z" fill="#0C2739"/>
<path fill-rule="evenodd" clip-rule="evenodd" d="M5.48707 14.6C5.35103 14.6 5.22056 14.5459 5.12437 14.4497C5.02817 14.3535 4.97413 14.2231 4.97413 14.087L4.97413 10.2258L1.10859 10.2258C0.972556 10.2258 0.84209 10.1718 0.745896 10.0756C0.649702 9.97941 0.59566 9.84895 0.59566 9.71291C0.59566 9.57687 0.649702 9.4464 0.745896 9.35021C0.84209 9.25402 0.972556 9.19997 1.10859 9.19997L5.48707 9.19997C5.6231 9.19997 5.75357 9.25402 5.84977 9.35021C5.94596 9.4464 6 9.57687 6 9.71291L6 14.087C6 14.2231 5.94596 14.3535 5.84977 14.4497C5.75357 14.5459 5.6231 14.6 5.48707 14.6Z" fill="#0C2739"/>
<path fill-rule="evenodd" clip-rule="evenodd" d="M0.160204 15.0398C0.109422 14.9891 0.0691314 14.9289 0.0416413 14.8627C0.0141507 14.7965 5.18324e-07 14.7254 5.24594e-07 14.6537C5.30865e-07 14.582 0.0141507 14.511 0.0416413 14.4447C0.0691314 14.3785 0.109422 14.3183 0.160204 14.2676L5.06793 9.3599C5.17033 9.2575 5.3092 9.19998 5.45401 9.19998C5.59881 9.19998 5.73769 9.2575 5.84008 9.3599C5.94248 9.46229 6 9.60117 6 9.74597C6 9.89078 5.94248 10.0297 5.84008 10.132L0.932354 15.0398C0.8817 15.0906 0.821525 15.1308 0.755275 15.1583C0.689026 15.1858 0.618005 15.2 0.546279 15.2C0.474553 15.2 0.403531 15.1858 0.337282 15.1583C0.271032 15.1308 0.210858 15.0906 0.160204 15.0398Z" fill="#0C2739"/>
</svg>
