<svg width="24" height="24" viewBox="0 0 24 24" fill="none" xmlns="http://www.w3.org/2000/svg">
<path fill-rule="evenodd" clip-rule="evenodd" d="M5.8466 20.5007C5.2522 20.5272 4.67149 20.3172 4.23155 19.9166C3.79583 19.5199 3.53331 18.9682 3.5 18.3803L3.5 5.6197C3.53332 5.03179 3.79583 4.4801 4.23156 4.08335C4.67149 3.68277 5.2522 3.47275 5.84661 3.49925C5.85773 3.49974 5.86887 3.49999 5.88001 3.49999L12 3.49999C12.4142 3.49999 12.75 3.1642 12.75 2.74999C12.75 2.33578 12.4142 1.99999 12 1.99999L5.89579 1.99999C4.91128 1.96073 3.95055 2.31056 3.22166 2.97424C2.48843 3.64188 2.0495 4.57277 2.0009 5.56323C2.0003 5.57548 2 5.58773 2 5.59999V18.4C2 18.4122 2.0003 18.4245 2.0009 18.4367C2.0495 19.4272 2.48843 20.3581 3.22166 21.0257C3.95055 21.6894 4.91127 22.0392 5.89578 22H12C12.4142 22 12.75 21.6642 12.75 21.25C12.75 20.8358 12.4142 20.5 12 20.5H5.88001C5.86887 20.5 5.85773 20.5002 5.8466 20.5007ZM9 12.75L19.4393 12.75L16.7197 15.4697C16.4268 15.7626 16.4268 16.2374 16.7197 16.5303C17.0126 16.8232 17.4874 16.8232 17.7803 16.5303L21.7803 12.5303C22.0732 12.2374 22.0732 11.7626 21.7803 11.4697C21.7801 11.4694 21.7799 11.4692 21.7796 11.4689L17.7803 7.46966C17.4874 7.17677 17.0126 7.17677 16.7197 7.46966C16.4268 7.76256 16.4268 8.23743 16.7197 8.53032L19.4393 11.25L9 11.25C8.58579 11.25 8.25 11.5858 8.25 12C8.25 12.4142 8.58579 12.75 9 12.75Z" fill="#161721"/>
</svg>
