<svg width="21" height="20" viewBox="0 0 21 20" fill="none" xmlns="http://www.w3.org/2000/svg">
<path fill-rule="evenodd" clip-rule="evenodd" d="M17.0347 9.67091C17.2092 9.85415 17.2193 10.1389 17.0582 10.3341L14.4956 13.4386C14.2748 13.7061 13.8698 13.7205 13.6305 13.4693C13.4285 13.2573 13.4168 12.9278 13.6032 12.7019L15.2701 10.6825L7.36818 10.9633C7.02789 10.9754 6.74223 10.7094 6.73013 10.3691C6.71804 10.0288 6.9841 9.74312 7.32439 9.73102L15.2263 9.45024L13.4203 7.55426C13.2183 7.34222 13.2066 7.01271 13.393 6.78688C13.6139 6.51933 14.0189 6.50494 14.2582 6.75613L17.0347 9.67091ZM8.42721 16.9717C8.7675 16.9596 9.05316 17.2256 9.06525 17.5659C9.07735 17.9062 8.81129 18.1919 8.471 18.204L5.28876 18.317C4.38469 18.3492 3.61971 17.5461 3.58349 16.5268L3.15437 4.45027C3.11815 3.43103 3.8242 2.57568 4.72827 2.54355L7.91051 2.43048C8.2508 2.41838 8.53646 2.68444 8.54855 3.02473C8.56065 3.36503 8.29459 3.65069 7.9543 3.66278L4.77206 3.77586C4.47071 3.78656 4.23535 4.07168 4.24743 4.41143L4.67655 16.488C4.68862 16.8277 4.94362 17.0954 5.24498 17.0847L8.42721 16.9717Z" fill="#0C2739"/>
</svg>
