<svg width="20" height="20" viewBox="0 0 20 20" fill="none" xmlns="http://www.w3.org/2000/svg">
<path fill-rule="evenodd" clip-rule="evenodd" d="M13.208 5.15421C12.9783 4.93884 12.6175 4.95048 12.4021 5.1802C12.1868 5.40993 12.1984 5.77074 12.4281 5.9861L16.5961 9.89354L12.4281 13.801C12.1984 14.0163 12.1868 14.3772 12.4021 14.6069C12.6175 14.8366 12.9783 14.8482 13.208 14.6329L17.8196 10.3095C17.9346 10.2017 17.9998 10.0511 17.9998 9.89354C17.9998 9.73595 17.9346 9.58538 17.8196 9.47759L13.208 5.15421ZM6.79181 14.633C7.02153 14.8484 7.38235 14.8367 7.59771 14.607C7.81308 14.3773 7.80144 14.0165 7.57172 13.8011L3.40378 9.89366L7.57172 5.98622C7.80144 5.77086 7.81308 5.41005 7.59771 5.18032C7.38235 4.9506 7.02153 4.93896 6.79181 5.15433L2.1802 9.47771C2.06523 9.5855 2 9.73607 2 9.89366C2 10.0513 2.06523 10.2018 2.1802 10.3096L6.79181 14.633Z" fill="#0D273A"/>
</svg>
