<svg width="24" height="24" viewBox="0 0 24 24" fill="none" xmlns="http://www.w3.org/2000/svg">
<path fill-rule="evenodd" clip-rule="evenodd" d="M21.0298 12.5308L16.0303 17.5303C15.7374 17.8232 15.2626 17.8232 14.9697 17.5303C14.6768 17.2374 14.6768 16.7626 14.9697 16.4697L19.4393 12L14.9697 7.53033C14.6768 7.23744 14.6768 6.76256 14.9697 6.46967C15.2626 6.17678 15.7374 6.17678 16.0303 6.46967L21.0303 11.4697C21.2866 11.726 21.3186 12.1216 21.1264 12.4127C21.099 12.4543 21.0669 12.4937 21.0303 12.5303C21.0302 12.5305 21.03 12.5307 21.0298 12.5308ZM9.03033 7.53033C9.32322 7.23744 9.32322 6.76256 9.03033 6.46967C8.73744 6.17678 8.26256 6.17678 7.96967 6.46967L2.97018 11.4692L2.96967 11.4697C2.67678 11.7626 2.67678 12.2374 2.96967 12.5303L7.96967 17.5303C8.26256 17.8232 8.73744 17.8232 9.03033 17.5303C9.32322 17.2374 9.32322 16.7626 9.03033 16.4697L4.56066 12L9.03033 7.53033Z" fill="#161721"/>
</svg>
