<svg width="20" height="12" viewBox="0 0 20 12" fill="none" xmlns="http://www.w3.org/2000/svg">
<path fill-rule="evenodd" clip-rule="evenodd" d="M13.7718 0.268236C13.542 0.052872 13.1812 0.064511 12.9659 0.294233C12.7505 0.523954 12.7621 0.884767 12.9919 1.10013L18.0821 5.87225L12.9919 10.6444C12.7621 10.8597 12.7505 11.2205 12.9659 11.4503C13.1812 11.68 13.542 11.6916 13.7718 11.4763L19.3057 6.28819C19.4207 6.18041 19.4859 6.02984 19.4859 5.87225C19.4859 5.71465 19.4207 5.56409 19.3057 5.4563L13.7718 0.268236ZM6.2283 11.4764C6.45802 11.6918 6.81883 11.6801 7.0342 11.4504C7.24956 11.2207 7.23792 10.8599 7.0082 10.6445L1.91794 5.87239L7.0082 1.10027C7.23792 0.884911 7.24956 0.524097 7.0342 0.294375C6.81883 0.0646543 6.45802 0.0530147 6.2283 0.268379L0.694362 5.45644C0.579391 5.56423 0.51416 5.71479 0.51416 5.87239C0.51416 6.02998 0.579391 6.18055 0.694362 6.28834L6.2283 11.4764Z" fill="#0C2739"/>
</svg>
