<svg width="24" height="24" viewBox="0 0 24 24" fill="none" xmlns="http://www.w3.org/2000/svg">
<path fill-rule="evenodd" clip-rule="evenodd" d="M15.7718 6.26824C15.542 6.05287 15.1812 6.06451 14.9659 6.29423C14.7505 6.52395 14.7621 6.88477 14.9919 7.10013L20.0821 11.8722L14.9919 16.6444C14.7621 16.8597 14.7505 17.2205 14.9659 17.4503C15.1812 17.68 15.542 17.6916 15.7718 17.4763L21.3057 12.2882C21.4207 12.1804 21.4859 12.0298 21.4859 11.8722C21.4859 11.7147 21.4207 11.5641 21.3057 11.4563L15.7718 6.26824ZM8.2283 17.4764C8.45802 17.6918 8.81883 17.6801 9.0342 17.4504C9.24956 17.2207 9.23792 16.8599 9.0082 16.6445L3.91794 11.8724L9.0082 7.10027C9.23792 6.88491 9.24956 6.5241 9.0342 6.29438C8.81883 6.06465 8.45802 6.05301 8.2283 6.26838L2.69436 11.4564C2.57939 11.5642 2.51416 11.7148 2.51416 11.8724C2.51416 12.03 2.57939 12.1806 2.69436 12.2883L8.2283 17.4764Z" fill="#0C2739"/>
</svg>
