<svg width="48" height="48" viewBox="0 0 48 48" fill="none" xmlns="http://www.w3.org/2000/svg">
<path d="M10.0952 30.2475C10.0952 33.0285 7.84765 35.2762 5.06665 35.2762C2.28565 35.2762 0.0380859 33.0285 0.0380859 30.2475C0.0380859 27.4667 2.28565 25.2191 5.06683 25.2191H10.095V30.2477L10.0952 30.2475ZM12.6096 30.2475C12.6096 27.4667 14.8571 25.2191 17.6381 25.2191C20.4191 25.2191 22.6667 27.4667 22.6667 30.2477V42.819C22.6667 45.6 20.4191 47.8477 17.638 47.8477C14.8573 47.8477 12.6096 45.6 12.6096 42.819V30.2477V30.2475Z" fill="#E01E5A"/>
<path d="M17.6381 10.0571C14.8571 10.0571 12.6094 7.80956 12.6094 5.02856C12.6094 2.24756 14.8573 0 17.6381 0C20.4189 0 22.6667 2.24756 22.6667 5.02856V10.0573H17.6379L17.6381 10.0571ZM17.6381 12.6096C20.4191 12.6096 22.6667 14.8571 22.6667 17.6381C22.6667 20.4191 20.4191 22.6667 17.6379 22.6667H5.02875C2.24756 22.6667 0 20.4191 0 17.6379C0 14.8573 2.24756 12.6096 5.02856 12.6096H17.6379H17.6381Z" fill="#36C5F0"/>
<path d="M37.7903 17.6381C37.7903 14.8571 40.0378 12.6094 42.8186 12.6094C45.5996 12.6094 47.8474 14.8571 47.8474 17.6381C47.8474 20.4191 45.5996 22.6667 42.8186 22.6667H37.7903V17.6379V17.6381ZM35.2759 17.6381C35.2759 20.4191 33.0281 22.6667 30.2471 22.6667C27.4663 22.6667 25.2188 20.4191 25.2188 17.6379V5.02875C25.2188 2.24756 27.4663 0 30.2471 0C33.0279 0 35.2757 2.24756 35.2757 5.02856V17.6379L35.2759 17.6381Z" fill="#2EB67D"/>
<path d="M30.2471 37.7906C33.0281 37.7906 35.2759 40.0382 35.2759 42.819C35.2759 45.6 33.0281 47.8477 30.2471 47.8477C27.4663 47.8477 25.2188 45.6 25.2188 42.819V37.7906H30.2473H30.2471ZM30.2471 35.2762C27.4663 35.2762 25.2188 33.0285 25.2188 30.2475C25.2188 27.4667 27.4663 25.2191 30.2473 25.2191H42.8567C45.6377 25.2191 47.8854 27.4667 47.8854 30.2477C47.8854 33.0285 45.6377 35.2762 42.8567 35.2762H30.2473H30.2471Z" fill="#ECB22E"/>
</svg>
