<svg xmlns="http://www.w3.org/2000/svg" width="24" height="24" viewBox="0 0 24 24" fill="none">
    <path d="M5.0476 15.1237C5.0476 16.5142 3.92382 17.6381 2.53332 17.6381C1.14282 17.6381 0.019043 16.5142 0.019043 15.1237C0.019043 13.7333 1.14282 12.6096 2.53342 12.6096H5.04751V15.1238L5.0476 15.1237ZM6.30479 15.1237C6.30479 13.7333 7.42857 12.6096 8.81907 12.6096C10.2096 12.6096 11.3334 13.7333 11.3334 15.1238V21.4095C11.3334 22.8 10.2096 23.9239 8.81898 23.9239C7.42867 23.9239 6.30479 22.8 6.30479 21.4095V15.1238V15.1237Z" fill="#E01E5A"/>
    <path d="M8.81906 5.02856C7.42856 5.02856 6.30469 3.90478 6.30469 2.51428C6.30469 1.12378 7.42866 0 8.81906 0C10.2095 0 11.3333 1.12378 11.3333 2.51428V5.02866H8.81897L8.81906 5.02856ZM8.81906 6.30478C10.2096 6.30478 11.3333 7.42856 11.3333 8.81906C11.3333 10.2096 10.2096 11.3333 8.81897 11.3333H2.51437C1.12378 11.3333 0 10.2096 0 8.81897C0 7.42866 1.12378 6.30478 2.51428 6.30478H8.81897H8.81906Z" fill="#36C5F0"/>
    <path d="M18.8951 8.81906C18.8951 7.42856 20.0189 6.30469 21.4093 6.30469C22.7998 6.30469 23.9237 7.42856 23.9237 8.81906C23.9237 10.2096 22.7998 11.3333 21.4093 11.3333H18.8951V8.81897V8.81906ZM17.6379 8.81906C17.6379 10.2096 16.5141 11.3333 15.1236 11.3333C13.7332 11.3333 12.6094 10.2096 12.6094 8.81897V2.51437C12.6094 1.12378 13.7332 0 15.1236 0C16.514 0 17.6378 1.12378 17.6378 2.51428V8.81897L17.6379 8.81906Z" fill="#2EB67D"/>
    <path d="M15.1236 18.8953C16.5141 18.8953 17.6379 20.0191 17.6379 21.4095C17.6379 22.8 16.5141 23.9239 15.1236 23.9239C13.7332 23.9239 12.6094 22.8 12.6094 21.4095V18.8953H15.1237H15.1236ZM15.1236 17.6381C13.7332 17.6381 12.6094 16.5142 12.6094 15.1237C12.6094 13.7333 13.7332 12.6096 15.1237 12.6096H21.4283C22.8188 12.6096 23.9427 13.7333 23.9427 15.1238C23.9427 16.5142 22.8188 17.6381 21.4283 17.6381H15.1237H15.1236Z" fill="#ECB22E"/>
</svg>
