<svg width="24" height="24" viewBox="0 0 24 24" fill="none" xmlns="http://www.w3.org/2000/svg">
<path fill-rule="evenodd" clip-rule="evenodd" d="M9.066 1C8.48252 1.00013 7.923 1.23204 7.51051 1.64472C7.09803 2.05739 6.86637 2.61702 6.8665 3.2005C6.86663 3.78398 7.09854 4.3435 7.51122 4.75599C7.92389 5.16847 8.48352 5.40013 9.067 5.4H11.267V3.2C11.2665 2.61669 11.0345 2.05742 10.6221 1.64495C10.2096 1.23248 9.65031 1.00053 9.067 1H9.066ZM9.066 6.867H3.2C2.61652 6.867 2.05695 7.09878 1.64437 7.51136C1.23179 7.92394 1 8.48352 1 9.067C1 9.65048 1.23179 10.2101 1.64437 10.6226C2.05695 11.0352 2.61652 11.267 3.2 11.267H9.066C9.64948 11.267 10.2091 11.0352 10.6216 10.6226C11.0342 10.2101 11.266 9.65048 11.266 9.067C11.266 8.48352 11.0342 7.92394 10.6216 7.51136C10.2091 7.09878 9.64948 6.867 9.066 6.867ZM23 9.066C23 8.48252 22.7682 7.92295 22.3556 7.51037C21.9431 7.09778 21.3835 6.866 20.8 6.866C20.2165 6.866 19.6569 7.09778 19.2444 7.51037C18.8318 7.92295 18.6 8.48252 18.6 9.066V11.266H20.8C21.3835 11.266 21.9431 11.0342 22.3556 10.6216C22.7682 10.2091 23 9.64948 23 9.066ZM17.133 9.066V3.2C17.133 2.61652 16.9012 2.05695 16.4886 1.64437C16.0761 1.23179 15.5165 1 14.933 1C14.3495 1 13.7899 1.23179 13.3774 1.64437C12.9648 2.05695 12.733 2.61652 12.733 3.2V9.066C12.733 9.64948 12.9648 10.2091 13.3774 10.6216C13.7899 11.0342 14.3495 11.266 14.933 11.266C15.5165 11.266 16.0761 11.0342 16.4886 10.6216C16.9012 10.2091 17.133 9.64948 17.133 9.066ZM14.933 23C15.5165 23 16.0761 22.7682 16.4886 22.3556C16.9012 21.9431 17.133 21.3835 17.133 20.8C17.133 20.2165 16.9012 19.6569 16.4886 19.2444C16.0761 18.8318 15.5165 18.6 14.933 18.6H12.733V20.8C12.7333 21.3834 12.9651 21.9428 13.3777 22.3553C13.7902 22.7679 14.3496 22.9997 14.933 23ZM14.933 17.132H20.8C21.3835 17.132 21.9431 16.9002 22.3556 16.4876C22.7682 16.0751 23 15.5155 23 14.932C23 14.3485 22.7682 13.7889 22.3556 13.3764C21.9431 12.9638 21.3835 12.732 20.8 12.732H14.934C14.3505 12.7319 13.7909 12.9635 13.3782 13.376C12.9655 13.7885 12.7336 14.348 12.7335 14.9315C12.7334 15.515 12.965 16.0746 13.3775 16.4873C13.79 16.9 14.3495 17.1319 14.933 17.132ZM1 14.933C1 15.5165 1.23179 16.0761 1.64437 16.4886C2.05695 16.9012 2.61652 17.133 3.2 17.133C3.78348 17.133 4.34305 16.9012 4.75563 16.4886C5.16821 16.0761 5.4 15.5165 5.4 14.933V12.733H3.2C2.61652 12.733 2.05695 12.9648 1.64437 13.3774C1.23179 13.7899 1 14.3495 1 14.933ZM6.867 14.933V20.799C6.86687 21.3825 7.09853 21.9421 7.51101 22.3548C7.9235 22.7675 8.48302 22.9994 9.0665 22.9995C9.64998 22.9996 10.2096 22.768 10.6223 22.3555C11.035 21.943 11.2669 21.3835 11.267 20.8V14.934C11.2671 14.3505 11.0355 13.7909 10.623 13.3782C10.2105 12.9655 9.65098 12.7336 9.0675 12.7335C8.48402 12.7334 7.92439 12.965 7.51172 13.3775C7.09904 13.79 6.86713 14.3495 6.867 14.933Z" fill="black"/>
</svg>