<svg width="24" height="24" viewBox="0 0 24 24" fill="none" xmlns="http://www.w3.org/2000/svg">
<path d="M15 21V15H21L18.71 17.3L21 19.59L19.59 21L17.29 18.71L15 21Z" fill="#0C2739"/>
<path fill-rule="evenodd" clip-rule="evenodd" d="M3 4.8H3.5H4V4H4.8V3.5V3H4H3.5H3V3.5V4V4.8ZM5.7 3H9.3V3.5V4H5.7V3.5V3ZM10.2 3.5V3H13.8V3.5V4H10.2V3.5ZM14.7 3.5V3H18.3V3.5V4H14.7V3.5ZM19.2 3.5V3H20H20.5H21V3.5V4V4.8H20.5H20V4H19.2V3.5ZM20.5 5.7H21V9.3H20.5H20V5.7H20.5ZM20.5 10.2H21V13.8H20.5H20V10.2H20.5ZM13.8 20.5V21H10.2V20.5V20H13.8V20.5ZM9.3 20.5V21H5.7V20.5V20H9.3V20.5ZM4.8 20.5V21H4H3.5H3V20.5V20V19.2H3.5H4V20H4.8V20.5ZM3.5 18.3H3V14.7H3.5H4V18.3H3.5ZM3.5 13.8H3V10.2H3.5H4V13.8H3.5ZM3.5 9.3H3V5.7H3.5H4V9.3H3.5Z" fill="#0C2739"/>
</svg>
