<svg width="24" height="24" viewBox="0 0 24 24" fill="none" xmlns="http://www.w3.org/2000/svg">
<path fill-rule="evenodd" clip-rule="evenodd" d="M6.26258 3.02002H6.81032C7.25947 3.02002 7.63193 3.39248 7.63193 3.84163C7.63193 4.29078 7.25947 4.66324 6.81032 4.66324H6.26258C5.5067 4.66324 4.89323 5.27671 4.89323 6.0326V6.58034C4.89323 7.02949 4.52076 7.40195 4.07161 7.40195C3.62247 7.40195 3.25 7.02949 3.25 6.58034V6.0326C3.25 4.36746 4.59745 3.02002 6.26258 3.02002ZM4.89322 9.86678C4.89322 9.41763 4.52076 9.04517 4.07161 9.04517C3.62246 9.04517 3.25 9.41763 3.25 9.86678V13.1532C3.25 13.6024 3.62246 13.9748 4.07161 13.9748C4.52076 13.9748 4.89322 13.6024 4.89322 13.1532V9.86678ZM10.88 11.4C10.88 10.9858 11.2158 10.65 11.63 10.65H14.71C15.1242 10.65 15.46 10.9858 15.46 11.4C15.46 11.8142 15.1242 12.15 14.71 12.15H13.4413L20.7596 19.449C21.0529 19.7415 21.0535 20.2164 20.761 20.5097C20.4685 20.803 19.9936 20.8036 19.7004 20.5111L12.38 13.21V14.48C12.38 14.8943 12.0442 15.23 11.63 15.23C11.2158 15.23 10.88 14.8943 10.88 14.48V11.4ZM13.3832 18.3568H10.0968C9.64763 18.3568 9.27517 18.7292 9.27517 19.1784C9.27517 19.6275 9.64763 20 10.0968 20H13.3832C13.8324 20 14.2048 19.6275 14.2048 19.1784C14.2048 18.7292 13.8324 18.3568 13.3832 18.3568ZM4.07161 15.618C4.52076 15.618 4.89323 15.9905 4.89323 16.4397V16.9874C4.89323 17.7433 5.5067 18.3567 6.26258 18.3567H6.81032C7.25947 18.3567 7.63193 18.7292 7.63193 19.1784C7.63193 19.6275 7.25947 20 6.81032 20H6.26258C4.59745 20 3.25 18.6525 3.25 16.9874V16.4397C3.25 15.9905 3.62247 15.618 4.07161 15.618ZM13.3832 3.02002H10.0968C9.64763 3.02002 9.27517 3.39248 9.27517 3.84163C9.27517 4.29078 9.64763 4.66324 10.0968 4.66324H13.3832C13.8324 4.66324 14.2048 4.29078 14.2048 3.84163C14.2048 3.39248 13.8324 3.02002 13.3832 3.02002ZM16.6697 3.02002H17.2174C18.8825 3.02002 20.23 4.36746 20.23 6.0326V6.58034C20.23 7.02949 19.8575 7.40195 19.4084 7.40195C18.9592 7.40195 18.5868 7.02949 18.5868 6.58034V6.0326C18.5868 5.27671 17.9733 4.66324 17.2174 4.66324H16.6697C16.2205 4.66324 15.8481 4.29078 15.8481 3.84163C15.8481 3.39248 16.2205 3.02002 16.6697 3.02002ZM20.23 9.86678C20.23 9.41763 19.8575 9.04517 19.4084 9.04517C18.9592 9.04517 18.5868 9.41763 18.5868 9.86678V13.1532C18.5868 13.6024 18.9592 13.9748 19.4084 13.9748C19.8575 13.9748 20.23 13.6024 20.23 13.1532V9.86678Z" fill="black"/>
</svg>
