<svg width="24" height="24" viewBox="0 0 24 24" fill="none" xmlns="http://www.w3.org/2000/svg">
<path fill-rule="evenodd" clip-rule="evenodd" d="M2.46967 9.34467L6.46853 5.34581L6.46967 5.34467C6.76256 5.05178 7.23744 5.05178 7.53033 5.34467L7.53121 5.34555L11.5303 9.34467C11.8232 9.63756 11.8232 10.1124 11.5303 10.4053C11.2374 10.6982 10.7626 10.6982 10.4697 10.4053L7.75 7.68566L7.75 18.125C7.75 18.5392 7.41421 18.875 7 18.875C6.58579 18.875 6.25 18.5392 6.25 18.125L6.25 7.68566L3.53033 10.4053C3.23744 10.6982 2.76256 10.6982 2.46967 10.4053C2.17678 10.1124 2.17678 9.63756 2.46967 9.34467ZM16.4684 18.654L12.4697 14.6553C12.1768 14.3624 12.1768 13.8876 12.4697 13.5947C12.7626 13.3018 13.2374 13.3018 13.5303 13.5947L16.25 16.3143L16.25 5.875C16.25 5.46079 16.5858 5.125 17 5.125C17.4142 5.125 17.75 5.46079 17.75 5.875L17.75 16.3143L20.4697 13.5947C20.7626 13.3018 21.2374 13.3018 21.5303 13.5947C21.8232 13.8876 21.8232 14.3624 21.5303 14.6553L17.532 18.6536M17.5303 18.6553C17.3478 18.8378 17.0947 18.9066 16.859 18.8617C16.7163 18.8345 16.5801 18.7657 16.4697 18.6553C16.4692 18.6549 16.4688 18.6545 16.4684 18.654" fill="#161721"/>
</svg>
