<svg width="16" height="16" viewBox="0 0 16 16" fill="none" xmlns="http://www.w3.org/2000/svg">
<path fill-rule="evenodd" clip-rule="evenodd" d="M11.0146 12.6087L9.38882 10.983C9.28468 10.8789 9.11584 10.8789 9.0117 10.983C8.90756 11.0871 8.90756 11.256 9.0117 11.3601L11.0117 13.3601C11.1158 13.4642 11.2847 13.4642 11.3888 13.3601L13.3888 11.3601C13.4929 11.256 13.4929 11.0871 13.3888 10.983C13.2846 10.8789 13.1158 10.8789 13.0117 10.983L11.5479 12.4468L11.5479 3.33333C11.5479 3.18605 11.4285 3.06666 11.2812 3.06666C11.134 3.06666 11.0146 3.18605 11.0146 3.33333V12.6087ZM5.3888 3.14477C5.28466 3.04063 5.11581 3.04063 5.01168 3.14477L3.0117 5.14475C2.90756 5.24889 2.90756 5.41773 3.0117 5.52187C3.11584 5.62601 3.28468 5.62601 3.38882 5.52187L4.85226 4.05844L4.85226 13.1716C4.85226 13.3188 4.97165 13.4382 5.11892 13.4382C5.2662 13.4382 5.38559 13.3188 5.38559 13.1716L5.38559 3.89581L7.01165 5.52187C7.11579 5.62601 7.28464 5.62601 7.38878 5.52187C7.49292 5.41773 7.49292 5.24889 7.38878 5.14475L5.3888 3.14477Z" fill="#0C2739"/>
</svg>
