<svg width="24" height="24" viewBox="0 0 24 24" fill="none" xmlns="http://www.w3.org/2000/svg">
<path fill-rule="evenodd" clip-rule="evenodd" d="M19.5 6C19.5 4.75421 18.4958 3.75 17.25 3.75L6.75 3.75C5.50421 3.75 4.5 4.75421 4.5 6L4.5 11.25V12.75L4.5 18C4.5 19.2458 5.50421 20.25 6.75 20.25H17.25C18.4958 20.25 19.5 19.2458 19.5 18V12.75V11.25V6ZM21 11.25V6C21 3.92579 19.3242 2.25 17.25 2.25H6.75C4.67579 2.25 3 3.92579 3 6L3 11.25H2C1.58579 11.25 1.25 11.5858 1.25 12C1.25 12.4142 1.58579 12.75 2 12.75H3L3 18C3 20.0742 4.67578 21.75 6.75 21.75H17.25C19.3242 21.75 21 20.0742 21 18V12.75H22C22.4142 12.75 22.75 12.4142 22.75 12C22.75 11.5858 22.4142 11.25 22 11.25H21ZM6.25 12C6.25 11.5858 6.58579 11.25 7 11.25H10.3333C10.7475 11.25 11.0833 11.5858 11.0833 12C11.0833 12.4142 10.7475 12.75 10.3333 12.75H7C6.58579 12.75 6.25 12.4142 6.25 12ZM12.9167 12C12.9167 11.5858 13.2525 11.25 13.6667 11.25H17C17.4142 11.25 17.75 11.5858 17.75 12C17.75 12.4142 17.4142 12.75 17 12.75H13.6667C13.2525 12.75 12.9167 12.4142 12.9167 12Z" fill="#161721"/>
</svg>
