<svg width="24" height="24" viewBox="0 0 24 24" fill="none" xmlns="http://www.w3.org/2000/svg">
<path fill-rule="evenodd" clip-rule="evenodd" d="M11 4.00001C11 3.95791 11.0036 3.91664 11.0106 3.87648C11.0036 3.83536 11 3.79311 11 3.75C11 3.33579 11.3358 3 11.75 3H17.75C19.8242 3 21.5 4.67579 21.5 6.75V17.25C21.5 19.3242 19.8242 21 17.75 21H11.75C11.3358 21 11 20.6642 11 20.25C11 20.2069 11.0036 20.1646 11.0106 20.1235C11.0036 20.0834 11 20.0421 11 20L11 4.00001ZM20 6.75C20 5.50421 18.9958 4.5 17.75 4.5H12.5L12.5 19.5H17.75C18.9958 19.5 20 18.4958 20 17.25V6.75Z" fill="#161721"/>
<path fill-rule="evenodd" clip-rule="evenodd" d="M12.4894 3.87648C12.4964 3.83536 12.5 3.79311 12.5 3.75C12.5 3.33579 12.1642 3 11.75 3H5.75C3.67579 3 2 4.67579 2 6.75V17.25C2 19.3242 3.67579 21 5.75 21H11.75C12.1642 21 12.5 20.6642 12.5 20.25C12.5 20.2069 12.4964 20.1646 12.4894 20.1235C12.4964 20.0834 12.5 20.0421 12.5 20L12.5 4.00001C12.5 3.95791 12.4964 3.91664 12.4894 3.87648ZM5.75 4.5C4.50421 4.5 3.5 5.50421 3.5 6.75V17.25C3.5 18.4958 4.50421 19.5 5.75 19.5H11L11 4.5H5.75Z" fill="#161721"/>
</svg>
