<svg width="24" height="24" viewBox="0 0 24 24" fill="none" xmlns="http://www.w3.org/2000/svg">
<path fill-rule="evenodd" clip-rule="evenodd" d="M19.75 11.25C19.7921 11.25 19.8334 11.2536 19.8735 11.2606C19.9146 11.2536 19.9569 11.25 20 11.25C20.4142 11.25 20.75 11.5858 20.75 12L20.75 18C20.75 20.0742 19.0742 21.75 17 21.75L6.5 21.75C4.42578 21.75 2.75 20.0742 2.75 18L2.75 12C2.75 11.5858 3.08579 11.25 3.5 11.25C3.5431 11.25 3.58535 11.2536 3.62647 11.2606C3.66663 11.2536 3.7079 11.25 3.75 11.25L19.75 11.25ZM17 20.25C18.2458 20.25 19.25 19.2458 19.25 18L19.25 12.75L4.25 12.75L4.25 18C4.25 19.2458 5.25421 20.25 6.5 20.25L17 20.25Z" fill="#161721"/>
<path fill-rule="evenodd" clip-rule="evenodd" d="M19.8735 12.7394C19.9146 12.7464 19.9569 12.75 20 12.75C20.4142 12.75 20.75 12.4142 20.75 12L20.75 6C20.75 3.92579 19.0742 2.25 17 2.25L6.5 2.25C4.42579 2.25 2.75 3.92579 2.75 6L2.75 12C2.75 12.4142 3.08579 12.75 3.5 12.75C3.5431 12.75 3.58536 12.7464 3.62647 12.7394C3.66663 12.7464 3.7079 12.75 3.75 12.75L19.75 12.75C19.7921 12.75 19.8334 12.7464 19.8735 12.7394ZM19.25 6C19.25 4.75421 18.2458 3.75 17 3.75L6.5 3.75C5.25421 3.75 4.25 4.75421 4.25 6L4.25 11.25L19.25 11.25L19.25 6Z" fill="#161721"/>
</svg>
