<svg width="16" height="16" viewBox="0 0 16 16" fill="none" xmlns="http://www.w3.org/2000/svg">
<path fill-rule="evenodd" clip-rule="evenodd" d="M7.33337 2.66668C7.33337 2.63861 7.3358 2.61109 7.34045 2.58432C7.3358 2.55691 7.33337 2.52874 7.33337 2.5C7.33337 2.22386 7.55723 2 7.83337 2H11.8334C13.2162 2 14.3334 3.11719 14.3334 4.5V11.5C14.3334 12.8828 13.2162 14 11.8334 14H7.83337C7.55723 14 7.33337 13.7761 7.33337 13.5C7.33337 13.4713 7.3358 13.4431 7.34045 13.4157C7.3358 13.3889 7.33337 13.3614 7.33337 13.3333L7.33337 2.66668ZM13.3334 4.5C13.3334 3.66948 12.6639 3 11.8334 3H8.33337L8.33337 13H11.8334C12.6639 13 13.3334 12.3305 13.3334 11.5V4.5Z" fill="#696B80"/>
<path fill-rule="evenodd" clip-rule="evenodd" d="M8.32629 2.58432C8.33095 2.55691 8.33337 2.52874 8.33337 2.5C8.33337 2.22386 8.10952 2 7.83337 2H3.83337C2.45056 2 1.33337 3.11719 1.33337 4.5V11.5C1.33337 12.8828 2.45056 14 3.83337 14H7.83337C8.10952 14 8.33337 13.7761 8.33337 13.5C8.33337 13.4713 8.33095 13.4431 8.32629 13.4157C8.33095 13.3889 8.33337 13.3614 8.33337 13.3333L8.33337 2.66668C8.33337 2.63861 8.33095 2.61109 8.32629 2.58432ZM3.83337 3C3.00285 3 2.33337 3.66948 2.33337 4.5V11.5C2.33337 12.3305 3.00285 13 3.83337 13H7.33337L7.33337 3H3.83337Z" fill="#696B80"/>
</svg>
