<svg width="16" height="16" viewBox="0 0 16 16" fill="none" xmlns="http://www.w3.org/2000/svg">
<path d="M8.49998 1.82172C8.49998 1.552 8.27612 1.33334 7.99998 1.33334C7.72384 1.33334 7.49998 1.552 7.49998 1.82172L7.49998 14.845C7.49998 15.1147 7.72384 15.3333 7.99998 15.3333C8.27612 15.3333 8.49998 15.1147 8.49998 14.845L8.49998 1.82172Z" fill="#161721"/>
<path fill-rule="evenodd" clip-rule="evenodd" d="M6.32623 2.91766C6.33089 2.89025 6.33331 2.86208 6.33331 2.83334C6.33331 2.5572 6.10946 2.33334 5.83331 2.33334H3.83331C2.4505 2.33334 1.33331 3.45053 1.33331 4.83334V11.8333C1.33331 13.2162 2.4505 14.3333 3.83331 14.3333H5.83331C6.10946 14.3333 6.33331 14.1095 6.33331 13.8333C6.33331 13.8046 6.33089 13.7764 6.32623 13.749C6.33089 13.7223 6.33331 13.6947 6.33331 13.6667L6.33331 3.00002C6.33331 2.97195 6.33089 2.94444 6.32623 2.91766ZM3.83331 3.33334C3.00279 3.33334 2.33331 4.00282 2.33331 4.83334V11.8333C2.33331 12.6639 3.00279 13.3333 3.83331 13.3333H5.33331L5.33331 3.33334H3.83331Z" fill="#161721"/>
<path fill-rule="evenodd" clip-rule="evenodd" d="M9.66665 3.00002C9.66665 2.97195 9.66907 2.94444 9.67373 2.91766C9.66907 2.89025 9.66665 2.86208 9.66665 2.83334C9.66665 2.5572 9.8905 2.33334 10.1666 2.33334H12.1666C13.5495 2.33334 14.6666 3.45053 14.6666 4.83334V11.8333C14.6666 13.2162 13.5495 14.3333 12.1666 14.3333H10.1666C9.8905 14.3333 9.66665 14.1095 9.66665 13.8333C9.66665 13.8046 9.66907 13.7764 9.67373 13.749C9.66907 13.7223 9.66665 13.6947 9.66665 13.6667L9.66665 3.00002ZM13.6666 4.83334C13.6666 4.00282 12.9972 3.33334 12.1666 3.33334H10.6666L10.6666 13.3333H12.1666C12.9972 13.3333 13.6666 12.6639 13.6666 11.8333V4.83334Z" fill="#161721"/>
</svg>
