<svg width="16" height="16" viewBox="0 0 16 16" fill="none" xmlns="http://www.w3.org/2000/svg">
<path fill-rule="evenodd" clip-rule="evenodd" d="M13.1666 7.5C13.1946 7.5 13.2222 7.50242 13.2489 7.50708C13.2763 7.50242 13.3045 7.5 13.3333 7.5C13.6094 7.5 13.8333 7.72386 13.8333 8L13.8333 12C13.8333 13.3828 12.7161 14.5 11.3333 14.5L4.33325 14.5C2.95044 14.5 1.83325 13.3828 1.83325 12L1.83325 8C1.83325 7.72386 2.05711 7.5 2.33325 7.5C2.36199 7.5 2.39015 7.50242 2.41756 7.50708C2.44434 7.50242 2.47185 7.5 2.49992 7.5L13.1666 7.5ZM11.3333 13.5C12.1638 13.5 12.8333 12.8305 12.8333 12L12.8333 8.5L2.83325 8.5L2.83325 12C2.83325 12.8305 3.50273 13.5 4.33325 13.5L11.3333 13.5Z" fill="#696B80"/>
<path fill-rule="evenodd" clip-rule="evenodd" d="M13.2489 8.49292C13.2763 8.49758 13.3045 8.5 13.3333 8.5C13.6094 8.5 13.8333 8.27614 13.8333 8L13.8333 4C13.8333 2.61719 12.7161 1.5 11.3333 1.5L4.33325 1.5C2.95044 1.5 1.83325 2.61719 1.83325 4L1.83325 8C1.83325 8.27614 2.05711 8.5 2.33325 8.5C2.36199 8.5 2.39016 8.49758 2.41757 8.49292C2.44434 8.49757 2.47185 8.5 2.49992 8.5L13.1666 8.5C13.1946 8.5 13.2222 8.49758 13.2489 8.49292ZM12.8333 4C12.8333 3.16948 12.1638 2.5 11.3333 2.5L4.33325 2.5C3.50273 2.5 2.83325 3.16948 2.83325 4L2.83325 7.5L12.8333 7.5L12.8333 4Z" fill="#696B80"/>
</svg>
