<svg width="16" height="16" viewBox="0 0 16 16" fill="none" xmlns="http://www.w3.org/2000/svg">
<path d="M14.5116 8.83326C14.7813 8.83326 15 8.6094 15 8.33326C15 8.05712 14.7813 7.83326 14.5116 7.83326L1.48837 7.83326C1.21865 7.83326 1 8.05712 1 8.33326C1 8.6094 1.21865 8.83326 1.48837 8.83326L14.5116 8.83326Z" fill="#161721"/>
<path fill-rule="evenodd" clip-rule="evenodd" d="M13.4157 6.65952C13.4431 6.66417 13.4713 6.6666 13.5 6.6666C13.7761 6.6666 14 6.44274 14 6.1666V4.1666C14 2.78379 12.8828 1.6666 11.5 1.6666L4.5 1.6666C3.11719 1.6666 2 2.78379 2 4.1666L2 6.16659C2 6.44274 2.22386 6.66659 2.5 6.66659C2.52874 6.66659 2.55691 6.66417 2.58432 6.65952C2.61109 6.66417 2.6386 6.66659 2.66667 6.66659L13.3333 6.6666C13.3614 6.6666 13.3889 6.66417 13.4157 6.65952ZM13 4.1666C13 3.33607 12.3305 2.6666 11.5 2.6666L4.5 2.6666C3.66948 2.6666 3 3.33607 3 4.1666V5.66659L13 5.6666V4.1666Z" fill="#161721"/>
<path fill-rule="evenodd" clip-rule="evenodd" d="M13.3333 9.99993C13.3614 9.99993 13.3889 10.0024 13.4157 10.007C13.4431 10.0024 13.4713 9.99993 13.5 9.99993C13.7761 9.99993 14 10.2238 14 10.4999V12.4999C14 13.8827 12.8828 14.9999 11.5 14.9999L4.5 14.9999C3.11719 14.9999 2 13.8827 2 12.4999L2 10.4999C2 10.2238 2.22386 9.99993 2.5 9.99993C2.52873 9.99993 2.5569 10.0024 2.58431 10.007C2.61108 10.0024 2.6386 9.99993 2.66667 9.99993L13.3333 9.99993ZM11.5 13.9999C12.3305 13.9999 13 13.3305 13 12.4999V10.9999L3 10.9999V12.4999C3 13.3305 3.66948 13.9999 4.5 13.9999L11.5 13.9999Z" fill="#161721"/>
</svg>
