<svg width="20" height="20" viewBox="0 0 20 20" fill="none" xmlns="http://www.w3.org/2000/svg">
<path d="M14.2038 2.15896C14.1128 2.14633 14.0223 2.15227 13.9371 2.17476C13.7646 2.22027 13.6132 2.33321 13.5204 2.49509C13.177 3.09332 11.9767 3.41004 11.4641 3.54527C10.8834 3.69851 10.2379 3.70488 9.55451 3.71167C8.81806 3.71882 8.05643 3.72639 7.31228 3.92273C6.3504 4.17653 5.49297 4.73042 4.85115 5.33706L4.74985 4.95313C4.70158 4.7702 4.51416 4.66103 4.33123 4.7093C4.1483 4.75756 4.03913 4.94499 4.0874 5.12792L7.45504 17.8912C7.50331 18.0742 7.69074 18.1833 7.87367 18.1351C8.0566 18.0868 8.16577 17.8994 8.1175 17.7165L6.69015 12.3068C7.16427 11.6394 8.0737 10.9021 9.0835 10.6356C9.66426 10.4824 10.3097 10.476 10.9934 10.4692C11.7298 10.462 12.4912 10.4545 13.2354 10.2582C13.9696 10.0644 15.4972 9.66137 16.1245 8.56744C16.2156 8.40888 16.2404 8.21973 16.1934 8.04163L14.7764 2.67132C14.7048 2.39989 14.4788 2.1977 14.2038 2.15896ZM15.5309 8.21642C15.0456 9.0625 13.7207 9.41208 13.0582 9.58688C11.7333 9.93646 10.2311 9.61481 8.90638 9.96434C7.93521 10.2206 7.06217 10.8379 6.47253 11.482L5.05555 6.11172C5.64537 5.46736 6.51846 4.85021 7.4894 4.59402C8.81455 4.24438 10.3163 4.56615 11.6413 4.21656C12.3037 4.04177 13.6286 3.69219 14.114 2.84611C14.4682 4.18869 14.9996 6.20255 15.5309 8.21642Z" fill="#0C2739"/>
</svg>
