<svg width="20" height="20" viewBox="0 0 20 20" fill="none" xmlns="http://www.w3.org/2000/svg">
<path fill-rule="evenodd" clip-rule="evenodd" d="M17.5698 8.93225C17.9374 8.57397 18.0787 8.15454 17.9576 7.78162C17.8364 7.40869 17.4756 7.15247 16.9675 7.07861L12.8265 6.47681L10.9745 2.72449C10.7473 2.26416 10.3921 2 10 2C9.60791 2 9.25269 2.26416 9.02551 2.72461L7.17371 6.47681L3.03259 7.07861C2.52441 7.15247 2.16345 7.40869 2.04236 7.78162C1.92126 8.15454 2.06262 8.57397 2.4303 8.93225L5.42688 11.853L4.71936 15.9774C4.62891 16.5049 4.78308 16.8209 4.92834 16.9933C5.09876 17.1954 5.34729 17.3068 5.62817 17.3068C5.83948 17.3068 6.06421 17.2449 6.29626 17.1229L10 15.1758L13.704 17.123C13.9359 17.245 14.1606 17.3068 14.3719 17.3068C14.6527 17.3068 14.9015 17.1954 15.0719 16.9933C15.217 16.821 15.3713 16.5049 15.2808 15.9774L14.5734 11.853L17.5698 8.93225ZM14.3075 16.2955C14.3087 16.2616 14.3066 16.2129 14.2952 16.1467L13.4989 11.5039L16.8718 8.21616C16.918 8.17118 16.9482 8.13279 16.9677 8.10323C16.9345 8.09078 16.8875 8.07749 16.8237 8.06822L12.1625 7.39081L10.0778 3.16709C10.0493 3.10935 10.0221 3.0687 10 3.04099C9.97794 3.0687 9.9508 3.10931 9.9223 3.16706L7.83778 7.3908L3.17641 8.06822C3.1126 8.07749 3.06555 8.09078 3.03236 8.10323C3.05187 8.13277 3.08208 8.17111 3.12819 8.21605L6.50138 11.5039L5.70497 16.1464C5.69361 16.2127 5.69149 16.2616 5.69267 16.2954C5.72596 16.286 5.77187 16.2688 5.83107 16.2377L10 14.046L14.1693 16.2379C14.2284 16.269 14.2742 16.2861 14.3075 16.2955Z" fill="#0C2739"/>
</svg>
