<svg width="24" height="24" viewBox="0 0 24 24" fill="none" xmlns="http://www.w3.org/2000/svg">
<path fill-rule="evenodd" clip-rule="evenodd" d="M10.9142 2.82058C11.4416 1.69858 12.9916 1.75856 13.5194 2.8088L13.5213 2.81249L15.9025 7.61593C15.9026 7.61593 15.9025 7.61592 15.9025 7.61593L21.1875 8.37948C22.3784 8.52625 22.8848 10.0157 22.0062 10.851L18.1882 14.5617L19.0877 19.7995C19.323 21.0186 17.9979 21.8501 16.9883 21.3261L12.2308 18.8502L7.483 21.3211C6.43462 21.8979 5.14822 21.0044 5.37351 19.8018L6.27337 14.5618L2.42357 10.8416C1.58828 10.0106 2.05574 8.56245 3.23673 8.38171L3.24294 8.38076L8.52533 7.61762C8.52648 7.61688 8.5278 7.61597 8.52926 7.61486C8.53361 7.61159 8.53802 7.60753 8.54194 7.60305C8.54332 7.60147 8.54452 7.59999 8.54554 7.59864L10.9142 2.82058ZM12.2198 3.56425L14.5632 8.29147L14.5651 8.29517C14.7912 8.74513 15.1987 9.00586 15.619 9.08949C15.632 9.09207 15.645 9.09431 15.6581 9.0962L20.8829 9.85104L17.1204 13.5078L17.1142 13.514C16.8072 13.8193 16.6123 14.3032 16.7066 14.7963L17.5915 19.949L12.9151 17.5153C12.4954 17.2879 11.9663 17.2879 11.5465 17.5153L6.87018 19.949L7.75502 14.7965C7.84649 14.3204 7.68947 13.8542 7.34745 13.514L3.55705 9.85098L8.78139 9.0962C8.79448 9.09431 8.80752 9.09207 8.8205 9.08949C9.2748 8.9991 9.65077 8.69712 9.85912 8.32404C9.8651 8.31333 9.87082 8.30247 9.87627 8.29147L12.2198 3.56425Z" fill="#161721"/>
</svg>
