<svg width="24" height="24" viewBox="0 0 24 24" fill="none" xmlns="http://www.w3.org/2000/svg">
<path fill-rule="evenodd" clip-rule="evenodd" d="M10.9142 2.82058C11.4416 1.69858 12.9916 1.75856 13.5194 2.8088L13.5213 2.81249L15.9025 7.61593L21.1875 8.37948C22.3784 8.52625 22.8848 10.0157 22.0062 10.851L18.1882 14.5617L19.0877 19.7995C19.323 21.0186 17.9979 21.8501 16.9883 21.3261L12.2308 18.8502L7.483 21.3211C6.43462 21.8979 5.14822 21.0044 5.37351 19.8018L6.27337 14.5618L2.42357 10.8416C1.58828 10.0106 2.05574 8.56245 3.23673 8.38171L3.24294 8.38076L8.52533 7.61762L8.52926 7.61486C8.53361 7.61159 8.53802 7.60753 8.54194 7.60305C8.54332 7.60147 8.54554 7.59864 8.54554 7.59864L10.9142 2.82058Z" fill="#161721"/>
</svg>
