<svg width="24" height="24" viewBox="0 0 24 24" fill="none" xmlns="http://www.w3.org/2000/svg">
<path fill-rule="evenodd" clip-rule="evenodd" d="M19.5 4.19985C19.7484 3.8684 19.6811 3.39832 19.3497 3.1499C19.0182 2.90148 18.5481 2.96879 18.2997 3.30024L12.9596 8.32596L10.1919 5.72926C10.0399 5.57424 9.82829 5.49265 9.6116 5.50557C9.39492 5.51849 9.19447 5.62466 9.06203 5.79664L5.5 10.5301C5.24727 10.8583 5.30844 11.3292 5.63662 11.5819C5.9648 11.8347 6.43572 11.7735 6.68844 11.4453L9.72428 7.39513L12.5 10C12.6531 10.1562 12.8669 10.2378 13.0852 10.2234C13.3035 10.2089 13.5046 10.0999 13.6358 9.92483L19.5 4.19985ZM1.74999 22C1.49111 22 1.26286 21.8689 1.12808 21.6694C1.04721 21.5497 0.999992 21.4054 0.999992 21.25V4.25003C0.999992 3.83582 1.33578 3.50003 1.74999 3.50003C2.16421 3.50003 2.49999 3.83582 2.49999 4.25003L2.49999 20.5H22.75C23.1642 20.5 23.5 20.8358 23.5 21.25C23.5 21.6642 23.1642 22 22.75 22H1.74999Z" fill="#161721"/>
<path fill-rule="evenodd" clip-rule="evenodd" d="M7.25 18C6.83579 18 6.5 17.6642 6.5 17.25L6.5 14.75C6.5 14.3358 6.83579 14 7.25 14C7.66421 14 8 14.3358 8 14.75L8 17.25C8 17.6642 7.66421 18 7.25 18Z" fill="#161721"/>
<path fill-rule="evenodd" clip-rule="evenodd" d="M13.25 18C12.8358 18 12.5 17.6642 12.5 17.25L12.5 12.75C12.5 12.3358 12.8358 12 13.25 12C13.6642 12 14 12.3358 14 12.75L14 17.25C14 17.6642 13.6642 18 13.25 18Z" fill="#161721"/>
<path fill-rule="evenodd" clip-rule="evenodd" d="M19.25 18C18.8358 18 18.5 17.6642 18.5 17.25L18.5 8.75C18.5 8.33579 18.8358 8 19.25 8C19.6642 8 20 8.33579 20 8.75L20 17.25C20 17.6642 19.6642 18 19.25 18Z" fill="#161721"/>
</svg>
