<svg width="24" height="24" viewBox="0 0 24 24" fill="none" xmlns="http://www.w3.org/2000/svg">
<path fill-rule="evenodd" clip-rule="evenodd" d="M12.2246 5.09998C10.4062 5.09998 9.22461 6.2575 9.22461 7.34998V7.35984L9.22435 7.3697C9.21799 7.61158 9.25746 7.85249 9.34067 8.0797C9.48313 8.46864 9.2833 8.89943 8.89436 9.04188C8.50541 9.18434 8.07462 8.98451 7.93217 8.59557C7.785 8.19374 7.71461 7.76787 7.72462 7.34011C7.73109 5.12946 9.91091 3.59998 12.2246 3.59998C14.3853 3.59998 16.4237 4.90863 16.6961 6.9248C16.7516 7.33529 16.4638 7.71301 16.0533 7.76847C15.6428 7.82393 15.2651 7.53613 15.2096 7.12565C15.0699 6.09157 13.9026 5.09998 12.2246 5.09998ZM4.25 11.85C4.25 11.4358 4.58579 11.1 5 11.1H20.4746C20.8888 11.1 21.2246 11.4358 21.2246 11.85C21.2246 12.2642 20.8888 12.6 20.4746 12.6H16.9769C16.9948 12.6197 17.0124 12.6395 17.0297 12.6595C17.5774 13.2904 17.8496 14.0256 17.8496 14.85C17.8496 16.4225 17.0892 17.5823 15.9897 18.3194C14.9186 19.0374 13.5425 19.35 12.2246 19.35C9.83178 19.35 7.54201 18.1095 6.81943 16.1019C6.67915 15.7122 6.88138 15.2825 7.27111 15.1423C7.66085 15.002 8.09051 15.2042 8.23079 15.5939C8.67465 16.8271 10.25 17.85 12.2246 17.85C13.3333 17.85 14.3947 17.5828 15.1544 17.0734C15.8858 16.5832 16.3496 15.868 16.3496 14.85C16.3496 14.3865 16.2075 14.0006 15.897 13.6428C15.5887 13.2877 15.0921 12.9364 14.3388 12.6H5C4.58579 12.6 4.25 12.2642 4.25 11.85Z" fill="#161721"/>
</svg>
