<svg width="24" height="24" viewBox="0 0 24 24" fill="none" xmlns="http://www.w3.org/2000/svg">
<path fill-rule="evenodd" clip-rule="evenodd" d="M1.5 6C1.5 4.61929 2.61929 3.5 4 3.5H18C19.3807 3.5 20.5 4.61929 20.5 6V14C20.5 15.3807 19.3807 16.5 18 16.5H4C2.61929 16.5 1.5 15.3807 1.5 14V6ZM4 4.5C3.17157 4.5 2.5 5.17157 2.5 6V14C2.5 14.8284 3.17157 15.5 4 15.5H18C18.8284 15.5 19.5 14.8284 19.5 14V6C19.5 5.17157 18.8284 4.5 18 4.5H4Z" fill="#031533"/>
<path d="M8.66862 7.45933C8.60282 7.35402 8.50155 7.28168 8.38709 7.25821C8.27263 7.23474 8.15435 7.26207 8.05827 7.33419L5.19095 9.47614C5.13208 9.52034 5.08393 9.5796 5.05066 9.64879C5.01739 9.71799 5 9.79502 5 9.87324C5 9.95146 5.01739 10.0285 5.05066 10.0977C5.08393 10.1669 5.13208 10.2261 5.19095 10.2703L8.05827 12.4123C8.10581 12.4489 8.15952 12.4749 8.21627 12.4886C8.27303 12.5023 8.3317 12.5035 8.38889 12.4922C8.44608 12.4809 8.50065 12.4572 8.54943 12.4226C8.59822 12.388 8.64025 12.3431 8.67308 12.2905C8.70592 12.2379 8.72891 12.1788 8.74073 12.1164C8.75254 12.054 8.75295 11.9897 8.74191 11.9271C8.73088 11.8646 8.70862 11.8051 8.67645 11.752C8.64427 11.699 8.6028 11.6534 8.55445 11.6181L6.21844 9.87565L8.55445 8.13802C8.60325 8.10227 8.64502 8.05616 8.67728 8.00241C8.70954 7.94867 8.73165 7.88838 8.74229 7.82511C8.75294 7.76184 8.7519 7.69687 8.73925 7.63404C8.72659 7.57122 8.70258 7.51181 8.66862 7.45933Z" fill="#031533"/>
<path d="M16.809 9.47237L13.9411 7.33325C13.8438 7.26122 13.7244 7.23443 13.6091 7.25877C13.4938 7.28311 13.392 7.35659 13.3262 7.46304C13.2604 7.5695 13.2359 7.70021 13.2581 7.82641C13.2804 7.95262 13.3475 8.06399 13.4448 8.13602L15.7813 9.88096L13.4448 11.6259C13.3502 11.6986 13.2857 11.8092 13.2652 11.9337C13.2446 12.0581 13.2697 12.1864 13.335 12.2908C13.4003 12.3951 13.5005 12.4671 13.614 12.4911C13.7274 12.5151 13.8449 12.4892 13.9411 12.4191L16.809 10.2799C16.8679 10.2358 16.9161 10.1766 16.9493 10.1075C16.9826 10.0384 17 9.96148 17 9.88337C17 9.80526 16.9826 9.72832 16.9493 9.65922C16.9161 9.59012 16.8679 9.53093 16.809 9.48679V9.47237Z" fill="#031533"/>
<path d="M12.1107 6.51264C12.0448 6.49897 11.9764 6.49636 11.9094 6.50494C11.8423 6.51353 11.778 6.53314 11.72 6.56266C11.662 6.59218 11.6114 6.63102 11.5713 6.67697C11.5312 6.72291 11.5023 6.77506 11.4861 6.83042L9.51522 13.475C9.49896 13.5303 9.49585 13.5878 9.50607 13.6441C9.51628 13.7005 9.53962 13.7546 9.57474 13.8033C9.60987 13.8521 9.65609 13.8945 9.71076 13.9282C9.76544 13.9619 9.82749 13.9863 9.89336 13.9998H10.0194C10.134 13.9995 10.2452 13.9672 10.3354 13.9079C10.4257 13.8486 10.4899 13.7657 10.5179 13.6724L12.4888 7.02302C12.5166 6.91336 12.4927 6.79892 12.4222 6.70375C12.3517 6.60858 12.24 6.54008 12.1107 6.51264Z" fill="#031533"/>
<rect x="14" y="12" width="10" height="10" rx="5" fill="#0C2739"/>
<path d="M18.4344 14.4543C18.3969 14.4168 18.3758 14.366 18.3758 14.3129C18.3758 14.2599 18.3969 14.209 18.4344 14.1715L19.2828 13.3231C19.3012 13.304 19.3233 13.2888 19.3477 13.2783C19.3721 13.2678 19.3983 13.2623 19.4249 13.2621C19.4514 13.2619 19.4778 13.2669 19.5023 13.277C19.5269 13.287 19.5493 13.3019 19.568 13.3207C19.5868 13.3394 19.6017 13.3618 19.6117 13.3864C19.6218 13.4109 19.6268 13.4373 19.6266 13.4638C19.6264 13.4904 19.6209 13.5166 19.6104 13.541C19.5999 13.5654 19.5847 13.5875 19.5656 13.6059L19.1668 14.0047C19.7816 14.0389 20.371 14.2615 20.855 14.6422C21.3391 15.0229 21.6942 15.5434 21.8722 16.1329C22.0502 16.7224 22.0425 17.3524 21.8501 17.9374C21.6577 18.5224 21.2899 19.034 20.7968 19.4027C20.7757 19.4185 20.7518 19.43 20.7264 19.4365C20.7009 19.443 20.6745 19.4444 20.6485 19.4407C20.6225 19.437 20.5975 19.4282 20.5749 19.4148C20.5523 19.4015 20.5325 19.3838 20.5168 19.3627C20.501 19.3417 20.4895 19.3178 20.483 19.2924C20.4765 19.2669 20.475 19.2405 20.4788 19.2145C20.4825 19.1885 20.4913 19.1634 20.5047 19.1408C20.518 19.1182 20.5357 19.0985 20.5568 19.0827C20.9961 18.7545 21.3204 18.2958 21.4833 17.7721C21.6462 17.2484 21.6394 16.6866 21.4637 16.1671C21.2881 15.6475 20.9526 15.1968 20.5054 14.8794C20.0581 14.5621 19.522 14.3942 18.9736 14.3999C18.9638 14.4 18.954 14.3993 18.9444 14.3979L19.566 15.0195C19.6024 15.0573 19.6225 15.1078 19.6221 15.1602C19.6216 15.2127 19.6006 15.2628 19.5635 15.2999C19.5264 15.337 19.4763 15.358 19.4238 15.3585C19.3714 15.3589 19.3209 15.3388 19.2832 15.3023L18.4344 14.4543Z" fill="white"/>
<path d="M19.5655 19.5455C19.603 19.583 19.6241 19.6339 19.6241 19.6869C19.6241 19.74 19.603 19.7908 19.5655 19.8283L18.7171 20.6767C18.6794 20.7132 18.6289 20.7333 18.5765 20.7329C18.524 20.7324 18.4739 20.7114 18.4368 20.6743C18.3997 20.6372 18.3787 20.587 18.3782 20.5346C18.3777 20.4822 18.3979 20.4317 18.4343 20.3939L18.8331 19.9951C18.2183 19.961 17.6288 19.7384 17.1448 19.3577C16.6608 18.9769 16.3057 18.4565 16.1277 17.867C15.9497 17.2775 15.9574 16.6474 16.1498 16.0625C16.3422 15.4775 16.71 14.9659 17.2031 14.5971C17.2241 14.5814 17.2481 14.5699 17.2735 14.5634C17.2989 14.5569 17.3254 14.5554 17.3514 14.5591C17.3774 14.5629 17.4024 14.5717 17.425 14.585C17.4476 14.5984 17.4674 14.6161 17.4831 14.6371C17.4989 14.6581 17.5104 14.6821 17.5169 14.7075C17.5234 14.7329 17.5248 14.7594 17.5211 14.7854C17.5174 14.8114 17.5086 14.8364 17.4952 14.859C17.4819 14.8816 17.4641 14.9014 17.4431 14.9171C17.0038 15.2454 16.6794 15.7041 16.5165 16.2278C16.3536 16.7515 16.3605 17.3133 16.5362 17.8328C16.7118 18.3523 17.0473 18.803 17.4945 19.1204C17.9418 19.4378 18.4779 19.6057 19.0263 19.5999C19.0359 19.5999 19.0463 19.6007 19.0555 19.6019L18.4343 18.9799C18.4152 18.9615 18.4 18.9394 18.3895 18.915C18.379 18.8906 18.3735 18.8644 18.3733 18.8378C18.3731 18.8113 18.3781 18.7849 18.3882 18.7603C18.3982 18.7358 18.4131 18.7134 18.4319 18.6947C18.4506 18.6759 18.473 18.661 18.4975 18.651C18.5221 18.6409 18.5485 18.6358 18.575 18.6361C18.6016 18.6363 18.6278 18.6418 18.6522 18.6523C18.6766 18.6628 18.6987 18.678 18.7171 18.6971L19.5655 19.5451V19.5455Z" fill="white"/>
</svg>
