<svg width="24" height="24" viewBox="0 0 24 24" fill="none" xmlns="http://www.w3.org/2000/svg">
<path fill-rule="evenodd" clip-rule="evenodd" d="M0 8.5L0.00847327 8.49531C0.139001 6.54032 1.76139 5 3.75 5H16.25C18.2386 5 19.861 6.54032 19.9915 8.49531L20 8.5V12.207C19.5232 12.0722 19.02 12 18.5 12V8.75C18.5 7.50421 17.4958 6.5 16.25 6.5H3.75C2.50421 6.5 1.5 7.50421 1.5 8.75V16.25C1.5 17.4958 2.50421 18.5 3.75 18.5H13.0907C13.1881 19.0306 13.3617 19.5345 13.5997 20H3.75C1.67579 20 0 18.3242 0 16.25V8.5ZM7.78033 11.6363C8.07322 11.3366 8.07322 10.8507 7.78033 10.551C7.48744 10.2513 7.01256 10.2513 6.71967 10.551L5.21967 12.0859C4.92678 12.3856 4.92678 12.8715 5.21967 13.1712L6.71967 14.7061C7.01256 15.0058 7.48744 15.0058 7.78033 14.7061C8.07322 14.4064 8.07322 13.9205 7.78033 13.6208L6.81066 12.6286L7.78033 11.6363ZM12.2197 14.7061C11.9268 14.4064 11.9268 13.9205 12.2197 13.6208L13.1893 12.6286L12.2197 11.6363C11.9268 11.3366 11.9268 10.8507 12.2197 10.551C12.5126 10.2513 12.9874 10.2513 13.2803 10.551L14.7803 12.0859C15.0732 12.3856 15.0732 12.8715 14.7803 13.1712L13.2803 14.7061C12.9874 15.0058 12.5126 15.0058 12.2197 14.7061ZM11.1822 10.3392C11.272 9.92546 11.0171 9.51551 10.6127 9.42357C10.2084 9.33162 9.80774 9.59249 9.71788 10.0062L8.71787 14.6108C8.62801 15.0245 8.88296 15.4345 9.28731 15.5264C9.69166 15.6184 10.0923 15.3575 10.1822 14.9438L11.1822 10.3392Z" fill="#161721"/>
<path fill-rule="evenodd" clip-rule="evenodd" d="M20.2809 15.6602C20.451 16.0331 20.9808 16.0331 21.151 15.6602C21.1988 15.5555 21.2828 15.4715 21.3875 15.4237C21.7604 15.2535 21.7604 14.7237 21.3875 14.5536C21.2828 14.5058 21.1988 14.4218 21.151 14.317C20.9808 13.9441 20.451 13.9441 20.2809 14.317C20.2331 14.4218 20.1491 14.5058 20.0443 14.5536C19.6714 14.7237 19.6714 15.2535 20.0443 15.4237C20.1491 15.4715 20.2331 15.5555 20.2809 15.6602ZM16.4814 20.213C16.6593 20.6029 17.2133 20.6029 17.3912 20.213L17.8964 19.106C17.9463 18.9964 18.0341 18.9086 18.1437 18.8586L19.2508 18.3535C19.6407 18.1755 19.6407 17.6216 19.2508 17.4437L18.1437 16.9385C18.0341 16.8885 17.9463 16.8007 17.8964 16.6912L17.3912 15.5841C17.2133 15.1942 16.6593 15.1942 16.4814 15.5841L15.9762 16.6912C15.9263 16.8007 15.8384 16.8885 15.7289 16.9385L14.6218 17.4437C14.2319 17.6216 14.2319 18.1755 14.6218 18.3535L15.7289 18.8586C15.8384 18.9086 15.9263 18.9964 15.9762 19.106L16.4814 20.213ZM21.4627 20.2261C21.6329 19.8532 22.1626 19.8532 22.3328 20.2261C22.3806 20.3308 22.4646 20.4148 22.5693 20.4626C22.9422 20.6328 22.9422 21.1626 22.5693 21.3327C22.4646 21.3805 22.3806 21.4645 22.3328 21.5693C22.1626 21.9422 21.6329 21.9422 21.4627 21.5693C21.4149 21.4645 21.3309 21.3805 21.2262 21.3327C20.8532 21.1626 20.8532 20.6328 21.2262 20.4626C21.3309 20.4148 21.4149 20.3308 21.4627 20.2261Z" fill="#C95FFF"/>
</svg>
