<svg width="24" height="24" viewBox="0 0 24 24" fill="none" xmlns="http://www.w3.org/2000/svg">
<path d="M0 4C0 1.79086 1.79086 0 4 0H20C22.2091 0 24 1.79086 24 4V20C24 22.2091 22.2091 24 20 24H4C1.79086 24 0 22.2091 0 20V4Z" fill="white"/>
<path fill-rule="evenodd" clip-rule="evenodd" d="M1.5 6C1.5 4.61929 2.61929 3.5 4 3.5H18C19.3807 3.5 20.5 4.61929 20.5 6V14C20.5 15.3807 19.3807 16.5 18 16.5H4C2.61929 16.5 1.5 15.3807 1.5 14V6ZM4 4.5C3.17157 4.5 2.5 5.17157 2.5 6V14C2.5 14.8284 3.17157 15.5 4 15.5H18C18.8284 15.5 19.5 14.8284 19.5 14V6C19.5 5.17157 18.8284 4.5 18 4.5H4Z" fill="#0C2739"/>
<path d="M8.66862 7.45932C8.60282 7.35401 8.50155 7.28166 8.38709 7.25819C8.27263 7.23472 8.15435 7.26205 8.05827 7.33417L5.19095 9.47612C5.13208 9.52032 5.08393 9.57959 5.05066 9.64878C5.01739 9.71797 5 9.79501 5 9.87322C5 9.95144 5.01739 10.0285 5.05066 10.0977C5.08393 10.1669 5.13208 10.2261 5.19095 10.2703L8.05827 12.4123C8.10581 12.4489 8.15952 12.4748 8.21627 12.4886C8.27303 12.5023 8.3317 12.5035 8.38889 12.4922C8.44608 12.4808 8.50065 12.4572 8.54943 12.4226C8.59822 12.3879 8.64025 12.343 8.67308 12.2905C8.70592 12.2379 8.72891 12.1787 8.74073 12.1164C8.75254 12.054 8.75295 11.9897 8.74191 11.9271C8.73088 11.8646 8.70862 11.805 8.67645 11.752C8.64427 11.6989 8.6028 11.6534 8.55445 11.6181L6.21844 9.87563L8.55445 8.138C8.60325 8.10226 8.64502 8.05615 8.67728 8.0024C8.70954 7.94865 8.73165 7.88836 8.74229 7.82509C8.75294 7.76182 8.7519 7.69685 8.73925 7.63403C8.72659 7.5712 8.70258 7.51179 8.66862 7.45932V7.45932Z" fill="#0C2739"/>
<path d="M16.8089 9.47235L13.9409 7.33324C13.8437 7.26121 13.7243 7.23442 13.6089 7.25876C13.4936 7.2831 13.3919 7.35658 13.3261 7.46303C13.2603 7.56948 13.2358 7.70019 13.258 7.8264C13.2803 7.95261 13.3474 8.06398 13.4447 8.13601L15.7812 9.88095L13.4447 11.6259C13.3501 11.6986 13.2856 11.8092 13.265 11.9337C13.2445 12.0581 13.2696 12.1864 13.3349 12.2908C13.4002 12.3951 13.5004 12.4671 13.6138 12.4911C13.7273 12.5151 13.8448 12.4892 13.9409 12.419L16.8089 10.2799C16.8678 10.2358 16.9159 10.1766 16.9492 10.1075C16.9825 10.0384 16.9999 9.96147 16.9999 9.88335C16.9999 9.80524 16.9825 9.7283 16.9492 9.6592C16.9159 9.5901 16.8678 9.53092 16.8089 9.48678V9.47235Z" fill="#0C2739"/>
<path d="M12.1105 6.51264C12.0446 6.49898 11.9762 6.49636 11.9092 6.50495C11.8422 6.51353 11.7778 6.53314 11.7198 6.56266C11.6618 6.59218 11.6113 6.63102 11.5711 6.67697C11.531 6.72292 11.5021 6.77506 11.486 6.83042L9.51504 13.475C9.49878 13.5303 9.49567 13.5878 9.50588 13.6441C9.5161 13.7005 9.53943 13.7546 9.57456 13.8033C9.60968 13.8521 9.65591 13.8945 9.71058 13.9282C9.76525 13.9619 9.8273 13.9863 9.89318 13.9998H10.0192C10.1338 13.9995 10.245 13.9672 10.3352 13.9079C10.4255 13.8486 10.4897 13.7657 10.5177 13.6724L12.4886 7.02302C12.5164 6.91336 12.4925 6.79893 12.422 6.70375C12.3515 6.60858 12.2398 6.54008 12.1105 6.51264V6.51264Z" fill="#0C2739"/>
<rect x="14" y="12" width="10" height="10" rx="5" fill="#C558F5"/>
<path d="M18.4345 14.4544C18.397 14.4169 18.376 14.366 18.376 14.313C18.376 14.26 18.397 14.2091 18.4345 14.1716L19.2829 13.3232C19.3014 13.3041 19.3235 13.2888 19.3479 13.2784C19.3723 13.2679 19.3985 13.2624 19.4251 13.2621C19.4516 13.2619 19.4779 13.267 19.5025 13.277C19.5271 13.2871 19.5494 13.3019 19.5682 13.3207C19.587 13.3395 19.6018 13.3618 19.6119 13.3864C19.622 13.411 19.627 13.4373 19.6268 13.4639C19.6266 13.4904 19.621 13.5167 19.6106 13.5411C19.6001 13.5655 19.5848 13.5875 19.5657 13.606L19.1669 14.0048C19.7818 14.039 20.3712 14.2615 20.8552 14.6423C21.3392 15.023 21.6943 15.5434 21.8724 16.1329C22.0504 16.7225 22.0427 17.3525 21.8503 17.9375C21.6579 18.5224 21.2901 19.034 20.7969 19.4028C20.7759 19.4185 20.752 19.43 20.7266 19.4365C20.7011 19.443 20.6747 19.4445 20.6486 19.4408C20.6226 19.4371 20.5976 19.4283 20.575 19.4149C20.5524 19.4015 20.5327 19.3838 20.5169 19.3628C20.5012 19.3418 20.4897 19.3179 20.4832 19.2924C20.4767 19.267 20.4752 19.2405 20.4789 19.2145C20.4827 19.1885 20.4915 19.1635 20.5048 19.1409C20.5182 19.1183 20.5359 19.0985 20.5569 19.0828C20.9963 18.7546 21.3206 18.2958 21.4835 17.7721C21.6464 17.2484 21.6396 16.6867 21.4639 16.1671C21.2883 15.6476 20.9528 15.1969 20.5056 14.8795C20.0583 14.5621 19.5221 14.3943 18.9737 14.4C18.964 14.4 18.9542 14.3994 18.9445 14.398L19.5661 15.0196C19.6026 15.0573 19.6227 15.1078 19.6223 15.1603C19.6218 15.2127 19.6008 15.2629 19.5637 15.3C19.5266 15.337 19.4765 15.3581 19.424 15.3585C19.3716 15.359 19.3211 15.3388 19.2833 15.3024L18.4345 14.4544Z" fill="white"/>
<path d="M19.5654 19.5456C19.6029 19.5831 19.624 19.6339 19.624 19.687C19.624 19.74 19.6029 19.7909 19.5654 19.8284L18.717 20.6768C18.6793 20.7132 18.6288 20.7334 18.5763 20.7329C18.5239 20.7325 18.4737 20.7114 18.4367 20.6743C18.3996 20.6373 18.3785 20.5871 18.3781 20.5347C18.3776 20.4822 18.3978 20.4317 18.4342 20.394L18.833 19.9952C18.2182 19.961 17.6287 19.7384 17.1447 19.3577C16.6607 18.977 16.3056 18.4565 16.1276 17.867C15.9496 17.2775 15.9573 16.6475 16.1497 16.0625C16.3421 15.4775 16.7098 14.9659 17.203 14.5972C17.224 14.5814 17.2479 14.57 17.2734 14.5634C17.2988 14.5569 17.3253 14.5555 17.3513 14.5592C17.3773 14.5629 17.4023 14.5717 17.4249 14.5851C17.4475 14.5985 17.4673 14.6162 17.483 14.6372C17.4988 14.6582 17.5102 14.6821 17.5168 14.7075C17.5233 14.733 17.5247 14.7595 17.521 14.7855C17.5173 14.8115 17.5085 14.8365 17.4951 14.8591C17.4817 14.8817 17.464 14.9014 17.443 14.9172C17.0037 15.2454 16.6793 15.7042 16.5164 16.2278C16.3535 16.7515 16.3604 17.3133 16.536 17.8328C16.7117 18.3524 17.0471 18.8031 17.4944 19.1205C17.9416 19.4379 18.4778 19.6057 19.0262 19.6C19.0358 19.6 19.0462 19.6008 19.0554 19.602L18.4342 18.98C18.4151 18.9615 18.3999 18.9395 18.3894 18.9151C18.3789 18.8907 18.3734 18.8644 18.3732 18.8379C18.3729 18.8113 18.378 18.785 18.3881 18.7604C18.3981 18.7358 18.413 18.7135 18.4317 18.6947C18.4505 18.6759 18.4728 18.6611 18.4974 18.651C18.522 18.641 18.5483 18.6359 18.5749 18.6361C18.6015 18.6364 18.6277 18.6419 18.6521 18.6524C18.6765 18.6628 18.6986 18.6781 18.717 18.6972L19.5654 19.5452V19.5456Z" fill="white"/>
</svg>
