<svg width="32" height="32" viewBox="0 0 32 32" fill="none" xmlns="http://www.w3.org/2000/svg">
<path d="M13.7381 5.81755C13.5882 5.66753 13.5039 5.46409 13.5039 5.25195C13.5039 5.03982 13.5882 4.83638 13.7381 4.68635L17.1317 1.29275C17.2055 1.21635 17.2938 1.1554 17.3914 1.11347C17.489 1.07155 17.594 1.04948 17.7002 1.04855C17.8064 1.04763 17.9118 1.06787 18.0101 1.1081C18.1084 1.14832 18.1977 1.20772 18.2729 1.28284C18.348 1.35795 18.4074 1.44727 18.4476 1.54559C18.4878 1.64391 18.5081 1.74925 18.5071 1.85547C18.5062 1.9617 18.4841 2.06667 18.4422 2.16428C18.4003 2.26188 18.3393 2.35016 18.2629 2.42395L16.6677 4.01915C19.1271 4.15586 21.4849 5.0461 23.4209 6.56902C25.3569 8.09194 26.7774 10.1737 27.4894 12.5318C28.2015 14.8898 28.1706 17.4099 27.401 19.7498C26.6315 22.0897 25.1605 24.1361 23.1877 25.6112C23.1037 25.6742 23.0081 25.7201 22.9063 25.7461C22.8045 25.7722 22.6986 25.778 22.5946 25.7631C22.4906 25.7483 22.3905 25.7131 22.3001 25.6595C22.2097 25.606 22.1308 25.5352 22.0677 25.4512C22.0047 25.3671 21.9588 25.2715 21.9328 25.1697C21.9067 25.0679 21.9009 24.962 21.9158 24.858C21.9306 24.754 21.9658 24.654 22.0194 24.5636C22.0729 24.4732 22.1437 24.3942 22.2277 24.3312C23.9852 23.0182 25.2825 21.1832 25.9341 19.0885C26.5857 16.9938 26.5582 14.7467 25.8556 12.6685C25.153 10.5903 23.8113 8.78755 22.0222 7.51798C20.2332 6.24841 18.0885 5.57706 15.8949 5.59995C15.8559 5.60013 15.8168 5.59745 15.7781 5.59195L18.2645 8.07835C18.4103 8.22924 18.4909 8.43132 18.4891 8.64107C18.4873 8.85083 18.4031 9.05148 18.2548 9.19981C18.1065 9.34813 17.9058 9.43227 17.6961 9.43409C17.4863 9.43592 17.2842 9.35528 17.1333 9.20955L13.7381 5.81755Z" fill="#0C2739"/>
<path d="M18.2626 26.1823C18.4126 26.3323 18.4969 26.5358 18.4969 26.7479C18.4969 26.96 18.4126 27.1635 18.2626 27.3135L14.869 30.7071C14.7182 30.8528 14.5161 30.9335 14.3063 30.9316C14.0966 30.9298 13.8959 30.8457 13.7476 30.6974C13.5993 30.549 13.5151 30.3484 13.5133 30.1386C13.5115 29.9289 13.5921 29.7268 13.7378 29.5759L15.333 27.9807C12.8736 27.844 10.5159 26.9537 8.57984 25.4308C6.64384 23.9079 5.22338 21.8261 4.51134 19.4681C3.79929 17.11 3.83015 14.59 4.59973 12.2501C5.36931 9.91015 6.84031 7.86375 8.81304 6.3887C8.89708 6.32566 8.99272 6.2798 9.09449 6.25373C9.19626 6.22765 9.30217 6.22188 9.40618 6.23674C9.51018 6.2516 9.61023 6.28679 9.70063 6.34032C9.79103 6.39385 9.87 6.46465 9.93304 6.5487C9.99607 6.63274 10.0419 6.72838 10.068 6.83015C10.0941 6.93192 10.0999 7.03783 10.085 7.14184C10.0701 7.24584 10.0349 7.34589 9.98142 7.43629C9.92789 7.52669 9.85708 7.60566 9.77304 7.6687C8.01558 8.98162 6.71829 10.8166 6.06669 12.9114C5.41509 15.0061 5.44255 17.2532 6.14516 19.3314C6.84776 21.4095 8.18952 23.2123 9.97854 24.4819C11.7676 25.7514 13.9122 26.4228 16.1058 26.3999C16.1442 26.3999 16.1858 26.4031 16.2226 26.4079L13.7378 23.9199C13.6614 23.8461 13.6005 23.7578 13.5586 23.6602C13.5166 23.5626 13.4946 23.4576 13.4936 23.3514C13.4927 23.2452 13.513 23.1399 13.5532 23.0415C13.5934 22.9432 13.6528 22.8539 13.7279 22.7788C13.803 22.7037 13.8924 22.6443 13.9907 22.604C14.089 22.5638 14.1943 22.5436 14.3006 22.5445C14.4068 22.5454 14.5118 22.5675 14.6094 22.6094C14.707 22.6513 14.7952 22.7123 14.869 22.7887L18.2626 26.1807V26.1823Z" fill="#0C2739"/>
</svg>
