<svg width="24" height="24" viewBox="0 0 24 24" fill="none" xmlns="http://www.w3.org/2000/svg">
<path fill-rule="evenodd" clip-rule="evenodd" d="M16.2527 3.45715C17.5336 4.05635 18.6777 4.9312 19.5976 6.02996C21.0263 7.73662 21.8282 9.88076 21.8699 12.1061C21.87 12.116 21.87 12.1259 21.8698 12.1357C21.8158 14.7384 20.7306 17.2132 18.8526 19.016C17.9186 19.9127 16.8264 20.6067 15.6444 21.0713C15.2589 21.2229 14.8235 21.0332 14.672 20.6477C14.5205 20.2622 14.7101 19.8268 15.0956 19.6753C16.0972 19.2816 17.0224 18.6937 17.8138 17.934C19.4014 16.4099 20.3203 14.3191 20.3698 12.1194C20.3313 10.2417 19.6532 8.43316 18.4474 6.99285C17.543 5.91255 16.3825 5.08806 15.0817 4.58804L15.567 5.95995C15.7052 6.35045 15.5006 6.779 15.1101 6.91715C14.7196 7.05531 14.2911 6.85074 14.1529 6.46025L13.2297 3.85081C13.1352 3.69594 13.0963 3.50652 13.1343 3.31449C13.1488 3.24135 13.1734 3.17282 13.2065 3.11007C13.2898 2.94001 13.4372 2.8012 13.6298 2.73305C13.64 2.72945 13.6502 2.72609 13.6604 2.72296L16.538 1.78698C16.9319 1.65886 17.3551 1.87432 17.4832 2.26822C17.6113 2.66212 17.3959 3.0853 17.002 3.21342L16.2527 3.45715ZM8.89436 4.19819C9.27987 4.04666 9.46954 3.61131 9.31801 3.22581C9.16648 2.84031 8.73113 2.65063 8.34563 2.80216C7.16355 3.26681 6.07141 3.96078 5.13738 4.85745C3.25942 6.66029 2.17417 9.13504 2.12016 11.7377C2.11995 11.7476 2.11994 11.7575 2.12013 11.7673C2.16181 13.9927 2.96365 16.1369 4.39243 17.8435C5.3123 18.9423 6.45637 19.8171 7.73733 20.4163L6.98801 20.6601C6.59411 20.7882 6.37865 21.2114 6.50677 21.6053C6.63489 21.9992 7.05807 22.2146 7.45197 22.0865L10.3295 21.1506C10.3397 21.1474 10.3499 21.1441 10.3601 21.1404C10.5528 21.0723 10.7002 20.9335 10.7835 20.7634C10.8166 20.7007 10.8412 20.6321 10.8557 20.559C10.8937 20.367 10.8548 20.1775 10.7602 20.0227L9.83705 17.4132C9.6989 17.0227 9.27034 16.8182 8.87985 16.9563C8.48935 17.0945 8.28479 17.523 8.42294 17.9135L8.90831 19.2854C7.60754 18.7854 6.44699 17.9609 5.54258 16.8806C4.33678 15.4403 3.65869 13.6318 3.62015 11.7541C3.66971 9.55434 4.58864 7.46357 6.17618 5.93953C6.96754 5.17982 7.89279 4.59188 8.89436 4.19819Z" fill="#161721"/>
</svg>
