<svg width="16" height="16" viewBox="0 0 16 16" fill="none" xmlns="http://www.w3.org/2000/svg">
<path fill-rule="evenodd" clip-rule="evenodd" d="M9.02517 2.95419C8.88946 2.8298 8.67861 2.83896 8.55421 2.97467C8.42981 3.11038 8.43898 3.32123 8.57469 3.44563L12.8158 7.33329H2.73336C2.54926 7.33329 2.40002 7.48253 2.40002 7.66663C2.40002 7.85072 2.54926 7.99996 2.73336 7.99996H12.6702L8.57469 11.7542C8.43898 11.8786 8.42981 12.0894 8.55421 12.2252C8.67861 12.3609 8.88946 12.37 9.02517 12.2456L13.8252 7.84563C13.894 7.78249 13.9333 7.69335 13.9333 7.59991C13.9333 7.50648 13.894 7.41733 13.8252 7.35419L9.02517 2.95419Z" fill="#898989"/>
<path fill-rule="evenodd" clip-rule="evenodd" d="M15.6667 0.666687C15.8508 0.666687 16 0.815925 16 1.00002V15C16 15.1841 15.8508 15.3334 15.6667 15.3334C15.4826 15.3334 15.3333 15.1841 15.3333 15V1.00002C15.3333 0.815925 15.4826 0.666687 15.6667 0.666687Z" fill="#898989"/>
</svg>
