<svg width="22" height="20" viewBox="0 0 22 20" fill="none" xmlns="http://www.w3.org/2000/svg">
<path fill-rule="evenodd" clip-rule="evenodd" d="M0.5 3.00002C0.5 1.61931 1.61929 0.500023 3 0.500023H19C20.3807 0.500023 21.5 1.61931 21.5 3.00002V5.00002V5.50002V17C21.5 18.3807 20.3807 19.5 19 19.5H3C1.61929 19.5 0.5 18.3807 0.5 17V5.50002V5.00002V3.00002ZM1.5 5.50002V11H11V5.50002H1.5ZM12 5.50002V11H20.5V5.50002H12ZM11 12H1.5V17C1.5 17.8284 2.17157 18.5 3 18.5H11L11 12ZM12 18.5L12 12H20.5V17C20.5 17.8284 19.8284 18.5 19 18.5H12Z" fill="#0C2739"/>
</svg>
