<svg width="24" height="24" viewBox="0 0 24 24" fill="none" xmlns="http://www.w3.org/2000/svg">
<path fill-rule="evenodd" clip-rule="evenodd" d="M5.75 4.5C4.50421 4.5 3.5 5.50421 3.5 6.75V8.16992H20.5V6.75C20.5 5.50421 19.4958 4.5 18.25 4.5H5.75ZM22 8.91992V8.91998V17.2499C22 19.3242 20.3242 20.9999 18.25 20.9999H5.75C3.67579 20.9999 2 19.3242 2 17.2499V8.91998V8.91992V6.75C2 4.67579 3.67579 3 5.75 3H18.25C20.3242 3 22 4.67579 22 6.75V8.91992ZM3.5 9.66998V13.5H7.75V9.66998H3.5ZM3.5 15V17.2499C3.5 18.4957 4.50421 19.4999 5.75 19.4999H7.75V15H3.5ZM9.25 19.4999H14.75V15H9.25V19.4999ZM16.25 19.4999H18.25C19.4958 19.4999 20.5 18.4957 20.5 17.2499V15H16.25V19.4999ZM20.5 13.5V9.66998H16.25V13.5H20.5ZM9.25 9.66998H14.75V13.5H9.25V9.66998Z" fill="#161721"/>
</svg>
