<svg width="24" height="24" viewBox="0 0 24 24" fill="none" xmlns="http://www.w3.org/2000/svg">
<path fill-rule="evenodd" clip-rule="evenodd" d="M13.9112 5.25683C13.5738 5.22733 13.2332 5.34747 12.9803 5.60031L5.58669 12.9939C5.13044 13.444 5.13691 14.1463 5.55029 14.5596L9.43822 18.4476C9.85274 18.8545 10.5594 18.8599 11.0097 18.4097L18.3996 11.0196C18.6525 10.7668 18.7726 10.4262 18.7431 10.0888L18.4034 6.54148L18.4032 6.53945C18.3566 6.03876 17.9612 5.64333 17.4605 5.59676L17.4585 5.59657L13.9112 5.25683ZM11.9197 4.53965C12.4863 3.97303 13.2647 3.69314 14.0467 3.76296L14.0515 3.76339L17.5994 4.10321C17.5998 4.10324 17.6002 4.10328 17.6005 4.10331C18.8189 4.21718 19.7827 5.18087 19.8966 6.39919C19.8967 6.39963 19.8967 6.40007 19.8967 6.40051L20.237 9.95327C20.3068 10.7352 20.0269 11.5137 19.4603 12.0803L12.0703 19.4703C11.0612 20.4795 9.40907 20.5255 8.38337 19.514L8.37963 19.5103L4.48963 15.6203C3.46366 14.5943 3.50946 12.9381 4.53131 11.928L11.9197 4.53965L12.45 5.06998L11.9197 4.53965Z" fill="#161721"/>
<path d="M16.47 7.52997C16.05 7.10997 15.38 7.10997 14.96 7.52997C14.54 7.94997 14.54 8.61998 14.96 9.03998C15.17 9.24998 15.44 9.34997 15.71 9.34997C15.98 9.34997 16.26 9.24998 16.46 9.03998C16.89 8.61998 16.89 7.93997 16.47 7.52997Z" fill="#161721"/>
</svg>
