<svg width="18" height="16" viewBox="0 0 18 16" fill="none" xmlns="http://www.w3.org/2000/svg">
<path d="M5.02484 12.1998C4.89044 12.1998 4.75604 12.1487 4.65384 12.0458C4.44874 11.8407 4.44874 11.5082 4.65384 11.3031L6.55714 9.3998L4.65314 7.4958C4.44804 7.2907 4.44804 6.9582 4.65314 6.7531C4.85824 6.548 5.19074 6.548 5.39584 6.7531L7.67084 9.0281C7.87594 9.2332 7.87594 9.5657 7.67084 9.7708L5.39584 12.0458C5.29364 12.1487 5.15924 12.1998 5.02484 12.1998Z" fill="#0C2739"/>
<path d="M12.3748 12.1998H9.2248C8.935 12.1998 8.6998 11.9646 8.6998 11.6748C8.6998 11.385 8.935 11.1498 9.2248 11.1498H12.3748C12.6646 11.1498 12.8998 11.385 12.8998 11.6748C12.8998 11.9646 12.6646 12.1998 12.3748 12.1998Z" fill="#0C2739"/>
<path d="M15.1748 15.6998H2.2248C1.1629 15.6998 0.299805 14.8367 0.299805 13.7748V2.2248C0.299805 1.1629 1.1629 0.299805 2.2248 0.299805H15.1748C16.2367 0.299805 17.0998 1.1629 17.0998 2.2248V13.7748C17.0998 14.8367 16.2367 15.6998 15.1748 15.6998ZM2.2248 1.3498C1.7425 1.3498 1.3498 1.7425 1.3498 2.2248V13.7748C1.3498 14.2571 1.7425 14.6498 2.2248 14.6498H15.1748C15.6571 14.6498 16.0498 14.2571 16.0498 13.7748V2.2248C16.0498 1.7425 15.6571 1.3498 15.1748 1.3498H2.2248Z" fill="#0C2739"/>
<path d="M16.5748 3.79981H0.824805C0.535005 3.79981 0.299805 3.56461 0.299805 3.27481C0.299805 2.98501 0.535005 2.74981 0.824805 2.74981H16.5748C16.8646 2.74981 17.0998 2.98501 17.0998 3.27481C17.0998 3.56461 16.8646 3.79981 16.5748 3.79981Z" fill="#0C2739"/>
</svg>
