<svg width="20" height="20" viewBox="0 0 20 20" fill="none" xmlns="http://www.w3.org/2000/svg">
<path d="M15.0316 13.5237V13.4737L15.0316 13.5237H15.0317L15.0318 13.5237L15.032 13.5237L15.0324 13.5237L15.0334 13.5237L15.0357 13.5236L15.0419 13.523C15.0465 13.5223 15.0524 13.5211 15.0591 13.5188C15.0681 13.5158 15.0784 13.511 15.0889 13.5035C16.0564 13.418 16.7946 13.1883 17.2927 12.8136C17.796 12.4349 18.0501 11.911 18.0501 11.252C18.0501 9.76608 17.1213 8.42781 15.7483 7.82404C16.411 7.32415 16.8365 6.51454 16.8365 5.65111C16.8365 4.16725 15.6193 2.95 14.1354 2.95C13.0703 2.95 12.1195 3.57752 11.6819 4.52796C11.5968 4.6991 11.6588 4.90018 11.8377 4.96887C12.0087 5.0529 12.209 4.99046 12.2772 4.81165C12.6057 4.10161 13.316 3.62876 14.1168 3.62876C15.2467 3.62876 16.1578 4.53987 16.1578 5.66978C16.1578 6.54455 15.5926 7.32815 14.7731 7.60134C14.6438 7.64442 14.5298 7.77578 14.5527 7.93589C14.573 8.0783 14.6574 8.21572 14.8175 8.23945C16.3073 8.55284 17.3713 9.82146 17.3713 11.2707C17.3713 11.4461 17.3709 11.789 17.0828 12.1151C16.794 12.4419 16.2074 12.7613 15.0107 12.8637C14.811 12.865 14.68 13.0429 14.7019 13.2186C14.7233 13.3895 14.8537 13.5237 15.0316 13.5237ZM5.28222 13.8784L5.28221 13.8785H5.28588H5.30455C5.48241 13.8785 5.61284 13.7443 5.63421 13.5734L5.6346 13.5734V13.5672C5.6346 13.3933 5.50446 13.2407 5.32942 13.2188L5.32943 13.2188L5.32673 13.2186C4.66792 13.1722 3.98447 13.0238 3.46749 12.7573C2.95012 12.4905 2.61009 12.1119 2.61009 11.6068C2.61009 10.0264 3.6001 8.86971 5.18356 8.5567L5.18359 8.55687L5.1876 8.55573C5.3316 8.51458 5.44619 8.40748 5.44788 8.24981C5.46857 8.09144 5.35549 7.96177 5.22734 7.9189C4.38852 7.62701 3.8423 6.86171 3.8423 5.98723C3.8423 4.85732 4.7534 3.94621 5.88331 3.94621C6.64882 3.94621 7.35997 4.38396 7.70607 5.03974L7.70605 5.03975L7.70688 5.04121C7.79361 5.19299 7.99104 5.2618 8.1485 5.17183C8.3 5.08526 8.36884 4.88839 8.27961 4.73108C7.82265 3.85602 6.87224 3.28612 5.88331 3.28612C4.39946 3.28612 3.18221 4.50337 3.18221 5.98723C3.18221 6.84883 3.58861 7.63992 4.24837 8.13894C2.80546 8.70532 1.95 9.97615 1.95 11.6068C1.95 12.2334 2.27381 12.7657 2.85173 13.1581C3.42841 13.5497 4.2593 13.8033 5.28222 13.8784ZM9.38376 10.4423L9.38384 10.4428L9.39026 10.4407C9.51761 10.3982 9.62626 10.2909 9.64798 10.1389C9.67082 9.97904 9.55717 9.84783 9.42818 9.80455C8.51419 9.47527 7.89353 8.61632 7.89353 7.64876C7.89353 6.36949 8.89798 5.36504 10.1772 5.36504C11.4378 5.36504 12.461 6.38816 12.461 7.64876C12.461 8.61708 11.8396 9.49395 10.9268 9.8044C10.7976 9.84752 10.6837 9.97885 10.7065 10.1389C10.7269 10.2814 10.8113 10.4188 10.9715 10.4425C12.6105 10.7746 13.8052 12.1925 13.8052 13.7911C13.8052 14.0955 13.7326 14.3589 13.5877 14.5834C13.4426 14.8082 13.2231 14.9971 12.9247 15.1491C12.3262 15.4541 11.4164 15.6081 10.1772 15.6081C9.09946 15.6081 8.18839 15.4175 7.54876 15.0931C6.90856 14.7684 6.5493 14.3153 6.5493 13.7911C6.5493 12.061 7.63288 10.7741 9.38376 10.4423ZM5.88921 13.7911C5.88921 14.542 6.32825 15.1632 7.08123 15.5941C7.83329 16.0246 8.9022 16.2682 10.1772 16.2682C11.5901 16.2682 12.66 16.0626 13.3783 15.6501C14.1007 15.2353 14.4653 14.6122 14.4653 13.7911C14.4653 12.1563 13.4079 10.6882 11.8867 10.0457C12.6577 9.49076 13.1211 8.6055 13.1211 7.64876C13.1211 6.03421 11.7918 4.70494 10.1772 4.70494C8.52536 4.70494 7.23343 5.99687 7.23343 7.64876C7.23343 8.60297 7.69443 9.48641 8.42859 10.0249C6.87304 10.6301 5.88921 12.0297 5.88921 13.7911Z" fill="#0C2739" stroke="#0C2739" stroke-width="0.1"/>
</svg>
