<svg width="24" height="25" viewBox="0 0 24 25" fill="none" xmlns="http://www.w3.org/2000/svg">
<path fill-rule="evenodd" clip-rule="evenodd" d="M8.84 4.35376C6.75788 4.35376 5.07001 6.04165 5.07001 8.12376C5.07001 10.2059 6.75788 11.8938 8.84 11.8938C10.9221 11.8938 12.61 10.2059 12.61 8.12376C12.61 6.04164 10.9221 4.35376 8.84 4.35376ZM6.57001 8.12376C6.57001 6.87007 7.58631 5.85376 8.84 5.85376C10.0937 5.85376 11.11 6.87007 11.11 8.12376C11.11 9.37744 10.0937 10.3938 8.84 10.3938C7.58631 10.3938 6.57001 9.37745 6.57001 8.12376Z" fill="white"/>
<path d="M3.5 17.7838C3.5 16.198 4.78421 14.9138 6.37 14.9138H11.79C13.3758 14.9138 14.66 16.198 14.66 17.7838V19.5038C14.66 19.918 14.9958 20.2538 15.41 20.2538C15.8242 20.2538 16.16 19.918 16.16 19.5038V17.7838C16.16 15.3695 14.2042 13.4138 11.79 13.4138H6.37C3.95578 13.4138 2 15.3695 2 17.7838V19.5038C2 19.918 2.33579 20.2538 2.75 20.2538C3.16421 20.2538 3.5 19.918 3.5 19.5038V17.7838Z" fill="white"/>
<path d="M22.43 9.51875C22.43 9.93296 22.0942 10.2687 21.68 10.2687H18.9652V12.9837C18.9652 13.3979 18.6294 13.7337 18.2152 13.7337C17.8009 13.7337 17.4652 13.3979 17.4652 12.9837V10.2687H14.75C14.3358 10.2687 14 9.93296 14 9.51875C14 9.10453 14.3358 8.76875 14.75 8.76875H17.4652L17.4652 6.05371C17.4652 5.6395 17.8009 5.30371 18.2152 5.30371C18.6294 5.30371 18.9652 5.6395 18.9652 6.05371V8.76875H21.68C22.0942 8.76875 22.43 9.10453 22.43 9.51875Z" fill="white"/>
</svg>

