<svg width="24" height="24" viewBox="0 0 24 24" fill="none" xmlns="http://www.w3.org/2000/svg">
<path fill-rule="evenodd" clip-rule="evenodd" d="M9.42331 5.06667C7.83084 5.06667 6.53988 6.31364 6.53988 7.85185C6.53988 9.39007 7.83084 10.637 9.42331 10.637C11.0158 10.637 12.3067 9.39007 12.3067 7.85185C12.3067 6.31364 11.0158 5.06667 9.42331 5.06667ZM5.43558 7.85185C5.43558 5.72453 7.22095 4 9.42331 4C11.6257 4 13.411 5.72453 13.411 7.85185C13.411 9.97917 11.6257 11.7037 9.42331 11.7037C7.22095 11.7037 5.43558 9.97917 5.43558 7.85185ZM14.9007 4.5089C14.9763 4.22355 15.2771 4.05146 15.5725 4.12452C16.4303 4.33666 17.1906 4.81853 17.7335 5.49415C18.2765 6.16978 18.5712 7.00073 18.5712 7.856C18.5712 8.71128 18.2765 9.54223 17.7335 10.2179C17.1906 10.8935 16.4303 11.3753 15.5725 11.5875C15.2771 11.6605 14.9763 11.4885 14.9007 11.2031C14.8251 10.9178 15.0032 10.6272 15.2986 10.5542C15.9189 10.4008 16.4686 10.0523 16.8612 9.5638C17.2538 9.07527 17.4669 8.47443 17.4669 7.856C17.4669 7.23757 17.2538 6.63673 16.8612 6.1482C16.4686 5.65968 15.9189 5.31125 15.2986 5.15786C15.0032 5.08479 14.8251 4.79425 14.9007 4.5089ZM3.16798 15.0837C3.91582 14.3614 4.93012 13.9556 5.98773 13.9556H12.8589C13.9165 13.9556 14.9308 14.3614 15.6786 15.0837C16.4265 15.8061 16.8466 16.7858 16.8466 17.8074V19.4667C16.8466 19.7612 16.5994 20 16.2945 20C15.9895 20 15.7423 19.7612 15.7423 19.4667V17.8074C15.7423 17.0687 15.4385 16.3603 14.8978 15.838C14.357 15.3157 13.6236 15.0222 12.8589 15.0222H5.98773C5.223 15.0222 4.48958 15.3157 3.94883 15.838C3.40808 16.3603 3.10429 17.0687 3.10429 17.8074V19.4667C3.10429 19.7612 2.85709 20 2.55215 20C2.2472 20 2 19.7612 2 19.4667V17.8074C2 16.7858 2.42013 15.8061 3.16798 15.0837ZM18.3366 14.4634C18.4128 14.1782 18.7139 14.0067 19.0092 14.0803C19.8647 14.2937 20.6226 14.7755 21.1639 15.45C21.7053 16.1245 21.9993 16.9536 22 17.807V19.4667C22 19.7612 21.7528 20 21.4479 20C21.1429 20 20.8957 19.7612 20.8957 19.4667V17.8078C20.8952 17.1907 20.6826 16.5912 20.2912 16.1035C19.8997 15.6158 19.3517 15.2674 18.7331 15.1131C18.4379 15.0395 18.2603 14.7486 18.3366 14.4634Z" fill="#0C2739"/>
</svg>
