<svg width="25" height="24" viewBox="0 0 25 24" fill="none" xmlns="http://www.w3.org/2000/svg">
<path fill-rule="evenodd" clip-rule="evenodd" d="M10.5153 5.50345C10.6369 4.22726 11.4621 3.5 12.15 3.5H18.2V3.84744V8.48999C18.2 8.9042 18.5358 9.23999 18.95 9.23999H23.39V18.16C23.39 19.6319 22.4915 20.49 21.74 20.49H12.15C11.4081 20.49 10.5 19.6214 10.5 18.16V5.82999C10.5 5.71748 10.5052 5.60861 10.5153 5.50345ZM23.0654 7.73999C23.0009 7.61754 22.9281 7.50376 22.8478 7.40028L20.0678 4.11027C19.9528 3.96197 19.8287 3.84281 19.7 3.75052V7.73999H23.0654ZM12.15 2C10.2545 2 9 3.88794 9 5.82999V18.16C9 20.0786 10.2519 21.99 12.15 21.99H21.74C23.6485 21.99 24.89 20.0881 24.89 18.16V9.12C24.89 8.15456 24.5964 7.20697 24.0322 6.47973L21.2522 3.18972C20.6815 2.45452 19.8644 2 18.96 2H12.15Z" fill="#161721"/>
<path fill-rule="evenodd" clip-rule="evenodd" d="M3.19809 3.04645C3.0181 2.67339 3.1743 2.21676 3.5758 2.11493C3.87184 2.03984 4.18159 2 4.5 2H4.89286C5.30707 2 5.64286 2.33579 5.64286 2.75C5.64286 3.16421 5.30707 3.5 4.89286 3.5H4.5C4.41232 3.5 4.32594 3.50498 4.24109 3.51467C3.82955 3.56164 3.37807 3.41952 3.19809 3.04645ZM7.75 2.75C7.75 2.33579 8.08579 2 8.5 2H11.8929C12.3071 2 12.6429 2.33579 12.6429 2.75C12.6429 3.16421 12.3071 3.5 11.8929 3.5H8.5C8.08579 3.5 7.75 3.16421 7.75 2.75ZM0.75 5.75C0.75 5.43159 0.789843 5.12185 0.864931 4.8258C0.966765 4.4243 1.42339 4.26811 1.79645 4.44809C2.16952 4.62807 2.31164 5.07955 2.26467 5.49109C2.25498 5.57594 2.25 5.66232 2.25 5.75V6.89286C2.25 7.30707 1.91421 7.64286 1.5 7.64286C1.08579 7.64286 0.75 7.30707 0.75 6.89286V5.75ZM1.5 14C1.08579 14 0.75 13.6642 0.75 13.25V11.05C0.75 10.6358 1.08579 10.3 1.5 10.3C1.91421 10.3 2.25 10.6358 2.25 11.05V13.25C2.25 13.6642 1.91421 14 1.5 14ZM0.75 18.25V17.1071C0.75 16.6929 1.08579 16.3571 1.5 16.3571C1.91421 16.3571 2.25 16.6929 2.25 17.1071V18.25C2.25 18.3377 2.25498 18.4241 2.26467 18.5089C2.31164 18.9204 2.16952 19.3719 1.79645 19.5519C1.42339 19.7319 0.966765 19.5757 0.864931 19.1742C0.789843 18.8782 0.75 18.5684 0.75 18.25ZM4.5 22C4.18159 22 3.87184 21.9602 3.5758 21.8851C3.1743 21.7832 3.0181 21.3266 3.19809 20.9535C3.37807 20.5805 3.82955 20.4384 4.24109 20.4853C4.32594 20.495 4.41232 20.5 4.5 20.5H4.89286C5.30707 20.5 5.64286 20.8358 5.64286 21.25C5.64286 21.6642 5.30707 22 4.89286 22H4.5ZM12.6429 21.25C12.6429 21.6642 12.3071 22 11.8929 22H8.5C8.08579 22 7.75 21.6642 7.75 21.25C7.75 20.8358 8.08579 20.5 8.5 20.5H11.8929C12.3071 20.5 12.6429 20.8358 12.6429 21.25Z" fill="#161721"/>
</svg>
