<svg width="25" height="24" viewBox="0 0 25 24" fill="none" xmlns="http://www.w3.org/2000/svg">
<path fill-rule="evenodd" clip-rule="evenodd" d="M10.8999 1.89999C10.2369 1.89999 9.60098 2.16339 9.13214 2.63223C8.66329 3.10107 8.3999 3.73695 8.3999 4.39999V19.2C8.3999 19.863 8.66329 20.4989 9.13214 20.9678C9.60098 21.4366 10.2369 21.7 10.8999 21.7H21.6999C22.3629 21.7 22.9988 21.4366 23.4677 20.9678C23.9365 20.4989 24.1999 19.863 24.1999 19.2V8.39999C24.1999 8.28646 24.1613 8.1763 24.0903 8.08765L19.2903 2.08765C19.1954 1.96904 19.0518 1.89999 18.8999 1.89999H18.8994H10.8999ZM18.3994 2.89999H10.8999C10.5021 2.89999 10.1205 3.05803 9.83924 3.33933C9.55794 3.62064 9.3999 4.00217 9.3999 4.39999V19.2C9.3999 19.5978 9.55794 19.9793 9.83924 20.2607C10.1205 20.542 10.5021 20.7 10.8999 20.7H21.6999C22.0977 20.7 22.4793 20.542 22.7606 20.2607C23.0419 19.9793 23.1999 19.5978 23.1999 19.2V8.89999H18.8994C18.6233 8.89999 18.3994 8.67614 18.3994 8.39999V2.89999ZM22.6596 7.89999H19.3994V3.82478L22.6596 7.89999Z" fill="#0C2739"/>
<path fill-rule="evenodd" clip-rule="evenodd" d="M2.24944 2.83488C2.61771 2.6218 3.04539 2.5 3.5 2.5H4.33333V3.5H3.5C3.2259 3.5 2.97039 3.57306 2.75024 3.70044L2.24944 2.83488ZM5.16667 2.5H6.83333V3.5H5.16667V2.5ZM7.66667 2.5H8.5V3.5H7.66667V2.5ZM1 5C1 4.54539 1.1218 4.11771 1.33488 3.74944L2.20044 4.25024C2.07306 4.47039 2 4.7259 2 5V5.93333H1V5ZM1 8.73333V6.86667H2V8.73333H1ZM1 11.5333V9.66667H2V11.5333H1ZM1 14.3333V12.4667H2V14.3333H1ZM1 17.1333V15.2667H2V17.1333H1ZM1 19V18.0667H2V19C2 19.2741 2.07306 19.5296 2.20044 19.7498L1.33488 20.2506C1.1218 19.8823 1 19.4546 1 19ZM3.5 21.5C3.04539 21.5 2.61771 21.3782 2.24944 21.1651L2.75024 20.2996C2.97039 20.4269 3.2259 20.5 3.5 20.5H4.33333V21.5H3.5ZM6.83333 21.5H5.16667V20.5H6.83333V21.5ZM8.5 21.5H7.66667V20.5H8.5V21.5Z" fill="#0C2739"/>
</svg>
