<svg width="24" height="24" viewBox="0 0 24 24" fill="none" xmlns="http://www.w3.org/2000/svg">
<path d="M21 4C21 3.522 20.621 3 20 3H4C3.38 3 3 3.519 3 4V20C3 20.621 3.52 21 4 21H20C20.478 21 21 20.621 21 20V4ZM4.5 4.5H19.5V19.5H4.5V4.5ZM7.318 10.365L9.953 11.987L7.312 13.632C7.105 13.778 6.994 14.01 6.994 14.245C6.994 14.846 7.676 15.211 8.176 14.858L11.687 12.601C11.886 12.46 12.005 12.232 12.005 11.987C12.005 11.743 11.886 11.515 11.687 11.374L8.182 9.139C7.684 8.789 7 9.148 7 9.751C7 9.987 7.111 10.219 7.318 10.365V10.365ZM16.996 14.238C16.996 13.824 16.66 13.488 16.246 13.488H12.746C12.333 13.488 11.996 13.824 11.996 14.238C11.996 14.652 12.333 14.988 12.746 14.988H16.246C16.66 14.988 16.996 14.652 16.996 14.238Z" fill="black"/>
</svg>
