<svg width="32" height="32" viewBox="0 0 32 32" fill="none" xmlns="http://www.w3.org/2000/svg">
<path d="M10.0727 22.1089C9.87723 22.1089 9.68174 22.0346 9.53309 21.8849C9.23476 21.5866 9.23476 21.1029 9.53309 20.8046L12.3015 18.0362L9.53207 15.2667C9.23374 14.9684 9.23374 14.4848 9.53207 14.1864C9.8304 13.8881 10.314 13.8881 10.6124 14.1864L13.9215 17.4955C14.2198 17.7938 14.2198 18.2775 13.9215 18.5758L10.6124 21.8849C10.4637 22.0346 10.2682 22.1089 10.0727 22.1089Z" fill="#0C2739"/>
<path d="M20.7636 22.1089H16.1818C15.7602 22.1089 15.4181 21.7668 15.4181 21.3453C15.4181 20.9237 15.7602 20.5816 16.1818 20.5816H20.7636C21.1851 20.5816 21.5272 20.9237 21.5272 21.3453C21.5272 21.7668 21.1851 22.1089 20.7636 22.1089Z" fill="#0C2739"/>
<path d="M24.8363 27.1998H5.99995C4.45537 27.1998 3.19995 25.9444 3.19995 24.3998V7.5998C3.19995 6.05522 4.45537 4.7998 5.99995 4.7998H24.8363C26.3809 4.7998 27.6363 6.05522 27.6363 7.5998V24.3998C27.6363 25.9444 26.3809 27.1998 24.8363 27.1998ZM5.99995 6.32708C5.29842 6.32708 4.72722 6.89828 4.72722 7.5998V24.3998C4.72722 25.1013 5.29842 25.6725 5.99995 25.6725H24.8363C25.5378 25.6725 26.109 25.1013 26.109 24.3998V7.5998C26.109 6.89828 25.5378 6.32708 24.8363 6.32708H5.99995Z" fill="#0C2739"/>
<path d="M26.8727 9.89073H3.96359C3.54206 9.89073 3.19995 9.54862 3.19995 9.12709C3.19995 8.70556 3.54206 8.36346 3.96359 8.36346H26.8727C27.2942 8.36346 27.6363 8.70556 27.6363 9.12709C27.6363 9.54862 27.2942 9.89073 26.8727 9.89073Z" fill="#0C2739"/>
</svg>
