<svg width="24" height="24" viewBox="0 0 24 24" fill="none" xmlns="http://www.w3.org/2000/svg">
<path fill-rule="evenodd" clip-rule="evenodd" d="M2.5 5.25C2.5 4.83579 2.16421 4.5 1.75 4.5C1.33579 4.5 1 4.83579 1 5.25V18.75C1 19.1642 1.33579 19.5 1.75 19.5C2.16421 19.5 2.5 19.1642 2.5 18.75V12.75H10V18.75C10 19.1642 10.3358 19.5 10.75 19.5C11.1642 19.5 11.5 19.1642 11.5 18.75V5.25C11.5 4.83579 11.1642 4.5 10.75 4.5C10.3358 4.5 10 4.83579 10 5.25V11.25H2.5V5.25ZM15.5 8.75C15.5 7.23122 16.7312 6 18.25 6H18.359C19.8176 6 21 7.18243 21 8.64102C21 9.77464 20.5242 10.8562 19.6886 11.6222L16.5046 14.5409C15.6032 15.3671 14.8608 16.3514 14.3139 17.4451L14.0792 17.9146C13.9629 18.1471 13.9754 18.4232 14.112 18.6443C14.2487 18.8654 14.4901 19 14.75 19H22.25C22.6642 19 23 18.6642 23 18.25C23 17.8358 22.6642 17.5 22.25 17.5H15.996C16.4128 16.8145 16.9251 16.1903 17.5182 15.6466L20.7022 12.728C21.8477 11.6778 22.5 10.1951 22.5 8.64102C22.5 6.354 20.646 4.5 18.359 4.5H18.25C15.9028 4.5 14 6.40279 14 8.75V9.25C14 9.66421 14.3358 10 14.75 10C15.1642 10 15.5 9.66421 15.5 9.25V8.75Z" fill="#161721"/>
</svg>
