<svg width="24" height="24" viewBox="0 0 24 24" fill="none" xmlns="http://www.w3.org/2000/svg">
<path fill-rule="evenodd" clip-rule="evenodd" d="M4.5 5.5C4.5 5.08579 4.16421 4.75 3.75 4.75C3.33579 4.75 3 5.08579 3 5.5V19C3 19.4142 3.33579 19.75 3.75 19.75C4.16421 19.75 4.5 19.4142 4.5 19V13H11V19C11 19.4142 11.3358 19.75 11.75 19.75C12.1642 19.75 12.5 19.4142 12.5 19V5.5C12.5 5.08579 12.1642 4.75 11.75 4.75C11.3358 4.75 11 5.08579 11 5.5V11.5H4.5V5.5ZM16 10.25C15.5858 10.25 15.25 10.5858 15.25 11V14C15.25 14.4142 15.5858 14.75 16 14.75H18C18.6904 14.75 19.25 15.3096 19.25 16V17C19.25 17.6904 18.6904 18.25 18 18.25C17.3096 18.25 16.75 17.6904 16.75 17V16.5C16.75 16.0858 16.4142 15.75 16 15.75C15.5858 15.75 15.25 16.0858 15.25 16.5V17C15.25 18.5188 16.4812 19.75 18 19.75C19.5188 19.75 20.75 18.5188 20.75 17V16C20.75 14.4812 19.5188 13.25 18 13.25H16.75V11.75H19.5C19.9142 11.75 20.25 11.4142 20.25 11C20.25 10.5858 19.9142 10.25 19.5 10.25H16Z" fill="black"/>
</svg>
