<svg width="24" height="24" viewBox="0 0 24 24" fill="none" xmlns="http://www.w3.org/2000/svg">
<path d="M1.5376 19.2V5.45629H3.35635V11.1H10.5001V5.45629H12.3188V19.2H10.5001V12.7219H3.35635V19.2H1.5376Z" fill="#898989"/>
<path d="M14.6813 15.5719L16.3688 15.3469C16.5626 16.3032 16.8907 16.9938 17.3532 17.4188C17.822 17.8375 18.3907 18.0469 19.0595 18.0469C19.8532 18.0469 20.522 17.7719 21.0657 17.2219C21.6157 16.6719 21.8907 15.9907 21.8907 15.1782C21.8907 14.4032 21.6376 13.7657 21.1313 13.2657C20.6251 12.7594 19.9813 12.5063 19.2001 12.5063C18.8813 12.5063 18.4845 12.5688 18.0095 12.6938L18.197 11.2125C18.3095 11.225 18.4001 11.2313 18.4688 11.2313C19.1876 11.2313 19.8345 11.0438 20.4095 10.6688C20.9845 10.2938 21.272 9.71566 21.272 8.93441C21.272 8.31566 21.0626 7.80316 20.6438 7.39691C20.2251 6.99066 19.6845 6.78754 19.022 6.78754C18.3657 6.78754 17.8188 6.99379 17.3813 7.40629C16.9438 7.81879 16.6626 8.43754 16.5376 9.26254L14.8501 8.96254C15.0563 7.83129 15.5251 6.95629 16.2563 6.33754C16.9876 5.71254 17.897 5.40004 18.9845 5.40004C19.7345 5.40004 20.4251 5.56254 21.0563 5.88754C21.6876 6.20629 22.1688 6.64379 22.5001 7.20004C22.8376 7.75629 23.0063 8.34691 23.0063 8.97191C23.0063 9.56566 22.847 10.1063 22.5282 10.5938C22.2095 11.0813 21.7376 11.4688 21.1126 11.7563C21.9251 11.9438 22.5563 12.3344 23.0063 12.9282C23.4563 13.5157 23.6813 14.2532 23.6813 15.1407C23.6813 16.3407 23.2438 17.3594 22.3688 18.1969C21.4938 19.0282 20.3876 19.4438 19.0501 19.4438C17.8438 19.4438 16.8407 19.0844 16.0407 18.3657C15.247 17.6469 14.7938 16.7157 14.6813 15.5719Z" fill="#898989"/>
</svg>
