<svg width="24" height="24" viewBox="0 0 24 24" fill="none" xmlns="http://www.w3.org/2000/svg">
<path d="M8.53365 19.256C9.31712 19.256 9.83712 19.1936 10.0936 19.0688C10.3502 18.9371 10.5166 18.7984 10.5928 18.6528C10.6691 18.5072 10.7072 18.3304 10.7072 18.1224V6.00639H8.57525C7.43125 6.00639 6.77605 6.61305 6.60965 7.82639L6.30805 9.93759L4.80005 9.92719L5.25765 4.79999H18.4968L18.9544 9.92719L17.4464 9.93759L17.1448 7.82639C17.0686 7.26479 16.9195 6.86612 16.6976 6.63039C16.2955 6.21439 15.7894 6.00639 15.1792 6.00639H13.0472V18.1224C13.0472 18.5592 13.1894 18.8573 13.4736 19.0168C13.7648 19.1763 14.3472 19.256 15.2208 19.256V20.4H8.53365V19.256Z" fill="#0C2739"/>
</svg>
