<svg width="24" height="24" viewBox="0 0 24 24" fill="none" xmlns="http://www.w3.org/2000/svg">
<path fill-rule="evenodd" clip-rule="evenodd" d="M4.5 5.5C4.5 5.08579 4.16421 4.75 3.75 4.75C3.33579 4.75 3 5.08579 3 5.5V19C3 19.4142 3.33579 19.75 3.75 19.75C4.16421 19.75 4.5 19.4142 4.5 19V13H11V19C11 19.4142 11.3358 19.75 11.75 19.75C12.1642 19.75 12.5 19.4142 12.5 19V5.5C12.5 5.08579 12.1642 4.75 11.75 4.75C11.3358 4.75 11 5.08579 11 5.5V11.5H4.5V5.5ZM16.75 13.0606C16.75 12.3368 17.3368 11.75 18.0606 11.75H19C19.4142 11.75 19.75 11.4142 19.75 11C19.75 10.5858 19.4142 10.25 19 10.25H18.0606C16.5084 10.25 15.25 11.5084 15.25 13.0606V17C15.25 18.5188 16.4812 19.75 18 19.75C19.5188 19.75 20.75 18.5188 20.75 17V16.2778C20.75 14.8817 19.6183 13.75 18.2222 13.75H16.75V13.0606ZM16.75 17V15.25H18.2222C18.7898 15.25 19.25 15.7102 19.25 16.2778V17C19.25 17.6904 18.6904 18.25 18 18.25C17.3096 18.25 16.75 17.6904 16.75 17Z" fill="black"/>
</svg>
