<svg width="24" height="24" viewBox="0 0 24 24" fill="none" xmlns="http://www.w3.org/2000/svg">
<path fill-rule="evenodd" clip-rule="evenodd" d="M18 5.75C16.4812 5.75 15.25 6.98122 15.25 8.5V8.7C15.25 9.11421 14.9142 9.45 14.5 9.45C14.0858 9.45 13.75 9.11421 13.75 8.7V8.5C13.75 6.15279 15.6528 4.25 18 4.25C20.3472 4.25 22.25 6.15279 22.25 8.5C22.25 9.84844 21.622 11.0502 20.6426 11.8288C21.9032 12.5661 22.75 13.9342 22.75 15.5C22.75 17.8472 20.8472 19.75 18.5 19.75H18.25C15.7647 19.75 13.75 17.7353 13.75 15.25V15.2C13.75 14.7858 14.0858 14.45 14.5 14.45C14.9142 14.45 15.25 14.7858 15.25 15.2V15.25C15.25 16.9069 16.5931 18.25 18.25 18.25H18.5C20.0188 18.25 21.25 17.0188 21.25 15.5C21.25 13.9812 20.0188 12.75 18.5 12.75H18H17.5C17.0858 12.75 16.75 12.4142 16.75 12C16.75 11.9482 16.7552 11.8977 16.7652 11.8488C16.8352 11.5071 17.1376 11.25 17.5 11.25H18C18.0005 11.25 18.0011 11.25 18.0016 11.25C19.5197 11.2491 20.75 10.0182 20.75 8.5C20.75 6.98122 19.5188 5.75 18 5.75ZM1.75 5C2.16421 5 2.5 5.33579 2.5 5.75V11.75H10V5.75C10 5.33579 10.3358 5 10.75 5C11.1642 5 11.5 5.33579 11.5 5.75V19.25C11.5 19.6642 11.1642 20 10.75 20C10.3358 20 10 19.6642 10 19.25V13.25H2.5V19.25C2.5 19.6642 2.16421 20 1.75 20C1.33579 20 1 19.6642 1 19.25V5.75C1 5.33579 1.33579 5 1.75 5Z" fill="#161721"/>
</svg>
