<svg width="24" height="24" viewBox="0 0 24 24" fill="none" xmlns="http://www.w3.org/2000/svg">
<path fill-rule="evenodd" clip-rule="evenodd" d="M7.97409 4.79999C7.63203 4.79999 7.35473 5.07728 7.35473 5.41934C7.35473 5.7614 7.63203 6.0387 7.97409 6.0387H20.9805C21.3226 6.0387 21.5999 5.7614 21.5999 5.41934C21.5999 5.07728 21.3226 4.79999 20.9805 4.79999H7.97409ZM7.97409 10.9935C7.63203 10.9935 7.35473 11.2708 7.35473 11.6129C7.35473 11.9549 7.63203 12.2322 7.97409 12.2322H20.9805C21.3226 12.2322 21.5999 11.9549 21.5999 11.6129C21.5999 11.2708 21.3226 10.9935 20.9805 10.9935H7.97409ZM7.35473 17.8064C7.35473 17.4644 7.63203 17.1871 7.97409 17.1871H20.9805C21.3226 17.1871 21.5999 17.4644 21.5999 17.8064C21.5999 18.1485 21.3226 18.4258 20.9805 18.4258H7.97409C7.63203 18.4258 7.35473 18.1485 7.35473 17.8064ZM3.32894 6.65806C3.84203 6.65806 4.25797 6.24211 4.25797 5.72902C4.25797 5.21593 3.84203 4.79999 3.32894 4.79999C2.81584 4.79999 2.3999 5.21593 2.3999 5.72902C2.3999 6.24211 2.81584 6.65806 3.32894 6.65806ZM4.25797 11.9226C4.25797 12.4357 3.84203 12.8516 3.32894 12.8516C2.81584 12.8516 2.3999 12.4357 2.3999 11.9226C2.3999 11.4095 2.81584 10.9935 3.32894 10.9935C3.84203 10.9935 4.25797 11.4095 4.25797 11.9226ZM3.32894 19.0451C3.84203 19.0451 4.25797 18.6292 4.25797 18.1161C4.25797 17.603 3.84203 17.1871 3.32894 17.1871C2.81584 17.1871 2.3999 17.603 2.3999 18.1161C2.3999 18.6292 2.81584 19.0451 3.32894 19.0451Z" fill="#0C2739"/>
</svg>
