<svg width="24" height="24" viewBox="0 0 24 24" fill="none" xmlns="http://www.w3.org/2000/svg">
<path fill-rule="evenodd" clip-rule="evenodd" d="M4.5 5.5C4.5 5.08579 4.16421 4.75 3.75 4.75C3.33579 4.75 3 5.08579 3 5.5V19C3 19.4142 3.33579 19.75 3.75 19.75C4.16421 19.75 4.5 19.4142 4.5 19V13H11V19C11 19.4142 11.3358 19.75 11.75 19.75C12.1642 19.75 12.5 19.4142 12.5 19V5.5C12.5 5.08579 12.1642 4.75 11.75 4.75C11.3358 4.75 11 5.08579 11 5.5V11.5H4.5V5.5ZM19.75 11C19.75 10.5858 19.4142 10.25 19 10.25C18.5858 10.25 18.25 10.5858 18.25 11V15.25H16.75V11C16.75 10.5858 16.4142 10.25 16 10.25C15.5858 10.25 15.25 10.5858 15.25 11V16C15.25 16.4142 15.5858 16.75 16 16.75H18.25V19.25C18.25 19.6642 18.5858 20 19 20C19.4142 20 19.75 19.6642 19.75 19.25V16.75H20.5C20.9142 16.75 21.25 16.4142 21.25 16C21.25 15.5858 20.9142 15.25 20.5 15.25H19.75V11Z" fill="black"/>
</svg>
