<svg width="24" height="24" viewBox="0 0 24 24" fill="none" xmlns="http://www.w3.org/2000/svg">
<path fill-rule="evenodd" clip-rule="evenodd" d="M4.5 5.5C4.5 5.08579 4.16421 4.75 3.75 4.75C3.33579 4.75 3 5.08579 3 5.5V19C3 19.4142 3.33579 19.75 3.75 19.75C4.16421 19.75 4.5 19.4142 4.5 19V13H11V19C11 19.4142 11.3358 19.75 11.75 19.75C12.1642 19.75 12.5 19.4142 12.5 19V5.5C12.5 5.08579 12.1642 4.75 11.75 4.75C11.3358 4.75 11 5.08579 11 5.5V11.5H4.5V5.5ZM17.8897 10.25C16.9192 10.25 16.0198 10.7592 15.5205 11.5914L15.2069 12.1141C14.9937 12.4693 15.1089 12.93 15.4641 13.1431C15.8193 13.3562 16.28 13.2411 16.4931 12.8859L16.8067 12.3632C17.035 11.9828 17.4461 11.75 17.8897 11.75H18.3845C19.0558 11.75 19.6 12.2942 19.6 12.9654C19.6 13.5232 19.2204 14.0093 18.6793 14.1446L18.1681 14.2724C17.8342 14.3559 17.6 14.6558 17.6 15C17.6 15.3442 17.8342 15.6441 18.1681 15.7276L18.6793 15.8554C19.2204 15.9907 19.6 16.4768 19.6 17.0346C19.6 17.7058 19.0558 18.25 18.3845 18.25H17.7114C17.3121 18.25 16.9314 18.0805 16.6643 17.7836L16.4074 17.4983C16.1303 17.1904 15.6561 17.1654 15.3482 17.4425C15.0404 17.7196 15.0154 18.1939 15.2925 18.5017L15.5494 18.7871C16.101 19.4 16.8868 19.75 17.7114 19.75H18.3845C19.8842 19.75 21.1 18.5343 21.1 17.0346C21.1 16.2359 20.7516 15.503 20.1831 15C20.7516 14.4971 21.1 13.7641 21.1 12.9654C21.1 11.4657 19.8842 10.25 18.3845 10.25H17.8897Z" fill="#161721"/>
</svg>
