<svg width="24" height="24" viewBox="0 0 24 24" fill="none" xmlns="http://www.w3.org/2000/svg">
<path d="M1.5376 19.2V5.45629H3.35635V11.1H10.5001V5.45629H12.3188V19.2H10.5001V12.7219H3.35635V19.2H1.5376Z" fill="#898989"/>
<path d="M23.5407 17.5782V19.2H14.4563C14.4438 18.7938 14.5095 18.4032 14.6532 18.0282C14.8845 17.4094 15.2532 16.8 15.7595 16.2C16.272 15.6 17.0095 14.9063 17.972 14.1188C19.4657 12.8938 20.4751 11.925 21.0001 11.2125C21.5251 10.4938 21.7876 9.81567 21.7876 9.17817C21.7876 8.50942 21.547 7.94692 21.0657 7.49066C20.5907 7.02816 19.9688 6.79691 19.2001 6.79691C18.3876 6.79691 17.7376 7.04066 17.2501 7.52816C16.7626 8.01567 16.5157 8.69067 16.5095 9.55317L14.7751 9.37504C14.8938 8.08129 15.3407 7.09691 16.1157 6.42191C16.8907 5.74066 17.9313 5.40004 19.2376 5.40004C20.5563 5.40004 21.6001 5.76566 22.3688 6.49691C23.1376 7.22816 23.522 8.13441 23.522 9.21567C23.522 9.76567 23.4095 10.3063 23.1845 10.8375C22.9595 11.3688 22.5845 11.9282 22.0595 12.5157C21.5407 13.1032 20.6751 13.9094 19.4626 14.9344C18.4501 15.7844 17.8001 16.3625 17.5126 16.6688C17.2251 16.9688 16.9876 17.2719 16.8001 17.5782H23.5407Z" fill="#898989"/>
</svg>
