<svg width="24" height="24" viewBox="0 0 24 24" fill="none" xmlns="http://www.w3.org/2000/svg">
<path fill-rule="evenodd" clip-rule="evenodd" d="M3.75 5C4.16421 5 4.5 5.33579 4.5 5.75V11.75H11V5.75C11 5.33579 11.3358 5 11.75 5C12.1642 5 12.5 5.33579 12.5 5.75V19.25C12.5 19.6642 12.1642 20 11.75 20C11.3358 20 11 19.6642 11 19.25V13.25H4.5V19.25C4.5 19.6642 4.16421 20 3.75 20C3.33579 20 3 19.6642 3 19.25V5.75C3 5.33579 3.33579 5 3.75 5ZM19.5 11C19.5 10.7117 19.3347 10.4489 19.0749 10.324C18.815 10.1991 18.5066 10.2343 18.2815 10.4144L15.7815 12.4144C15.458 12.6731 15.4056 13.1451 15.6643 13.4685C15.9231 13.792 16.3951 13.8444 16.7185 13.5857L18 12.5605V19.25C18 19.6642 18.3358 20 18.75 20C19.1642 20 19.5 19.6642 19.5 19.25V11Z" fill="#161721"/>
</svg>
