<svg width="24" height="24" viewBox="0 0 24 24" fill="none" xmlns="http://www.w3.org/2000/svg">
<path fill-rule="evenodd" clip-rule="evenodd" d="M21.5 5.25001C21.5 4.95467 21.3267 4.68682 21.0573 4.56583C20.7878 4.44484 20.4725 4.49324 20.2517 4.68946L15.7517 8.68946C15.4421 8.96464 15.4143 9.4387 15.6895 9.74829C15.9646 10.0579 16.4387 10.0858 16.7483 9.81057L20 6.92015V18.75C20 19.1642 20.3358 19.5 20.75 19.5C21.1642 19.5 21.5 19.1642 21.5 18.75V5.25001ZM3.5 5.25C3.5 4.83579 3.16421 4.5 2.75 4.5C2.33579 4.5 2 4.83579 2 5.25V18.75C2 19.1642 2.33579 19.5 2.75 19.5C3.16421 19.5 3.5 19.1642 3.5 18.75V12.75H11V18.75C11 19.1642 11.3358 19.5 11.75 19.5C12.1642 19.5 12.5 19.1642 12.5 18.75V5.25C12.5 4.83579 12.1642 4.5 11.75 4.5C11.3358 4.5 11 4.83579 11 5.25V11.25H3.5V5.25Z" fill="#161721"/>
</svg>
