<svg width="24" height="24" viewBox="0 0 24 24" fill="none" xmlns="http://www.w3.org/2000/svg">
<path fill-rule="evenodd" clip-rule="evenodd" d="M3.75 5C4.16421 5 4.5 5.33579 4.5 5.75V11.75H11V5.75C11 5.33579 11.3358 5 11.75 5C12.1642 5 12.5 5.33579 12.5 5.75V19.25C12.5 19.6642 12.1642 20 11.75 20C11.3358 20 11 19.6642 11 19.25V13.25H4.5V19.25C4.5 19.6642 4.16421 20 3.75 20C3.33579 20 3 19.6642 3 19.25V5.75C3 5.33579 3.33579 5 3.75 5ZM16.5 13.2901C16.5 12.4395 17.1895 11.75 18.0401 11.75C18.5765 11.75 18.9978 12.011 19.2184 12.3495C19.4307 12.6754 19.4718 13.0875 19.2217 13.5005C18.8027 14.1924 18.2989 14.8905 17.7197 15.4697C16.7217 16.4676 16.0733 17.2439 15.6694 17.7804C15.4674 18.0486 15.3265 18.2569 15.2335 18.403C15.187 18.476 15.1526 18.5335 15.1285 18.5751C15.1164 18.5959 15.1069 18.6128 15.0998 18.6256L15.091 18.6419L15.0878 18.6478L15.0866 18.6502L15.0855 18.6522C15.0854 18.6524 15.0855 18.6522 15.75 19L15.0855 18.6522C14.9638 18.8847 14.9725 19.1638 15.1084 19.3883C15.2442 19.6128 15.4876 19.75 15.75 19.75H20.75C21.1642 19.75 21.5 19.4142 21.5 19C21.5 18.5858 21.1642 18.25 20.75 18.25H17.2078C17.5714 17.805 18.0814 17.2293 18.7803 16.5303C19.4711 15.8396 20.0461 15.035 20.5048 14.2775C21.0692 13.3454 20.9849 12.313 20.4752 11.5306C19.9736 10.761 19.0761 10.25 18.0401 10.25C16.3611 10.25 15 11.6111 15 13.2901V14C15 14.4142 15.3358 14.75 15.75 14.75C16.1642 14.75 16.5 14.4142 16.5 14V13.2901Z" fill="#161721"/>
</svg>
