<svg width="24" height="24" viewBox="0 0 24 24" fill="none" xmlns="http://www.w3.org/2000/svg">
<path fill-rule="evenodd" clip-rule="evenodd" d="M5.95945 4H18.0406L19.2115 7.51283C19.3425 7.90579 19.1301 8.33053 18.7372 8.46151C18.3442 8.5925 17.9195 8.38013 17.7885 7.98717L16.9595 5.5H12.75V18.5H15.5C15.9142 18.5 16.25 18.8358 16.25 19.25C16.25 19.6642 15.9142 20 15.5 20H8.50002C8.08581 20 7.75002 19.6642 7.75002 19.25C7.75002 18.8358 8.08581 18.5 8.50002 18.5H11.25V5.5H7.04059L6.21153 7.98717C6.08055 8.38013 5.65581 8.5925 5.26285 8.46151C4.86989 8.33053 4.65752 7.90579 4.78851 7.51283L5.95945 4Z" fill="#161721"/>
</svg>
