<svg width="15" height="14" viewBox="0 0 15 14" fill="none" xmlns="http://www.w3.org/2000/svg">
<path fill-rule="evenodd" clip-rule="evenodd" d="M10.3866 1.40629C9.9445 1.31304 9.4861 1.30577 9.03686 1.38762C8.33691 1.51516 7.69245 1.85298 7.18937 2.35606C6.68628 2.85915 6.34846 3.50361 6.22093 4.20356C6.0934 4.9035 6.18221 5.6257 6.47553 6.27389C6.56133 6.4635 6.52071 6.68642 6.37355 6.83358L1.76689 11.4402C1.59544 11.6117 1.49912 11.8442 1.49912 12.0867C1.49912 12.3292 1.59544 12.5617 1.76689 12.7331C1.93834 12.9046 2.17087 13.0009 2.41333 13.0009C2.6558 13.0009 2.88833 12.9046 3.05978 12.7331L7.66645 8.12648C7.81361 7.97932 8.03653 7.9387 8.22614 8.0245C8.87433 8.31782 9.59652 8.40663 10.2965 8.2791C10.9964 8.15157 11.6409 7.81375 12.144 7.31066C12.6471 6.80757 12.9849 6.16311 13.1124 5.46317C13.1943 5.01393 13.187 4.55552 13.0937 4.1134L11.15 6.05712C10.9319 6.27088 10.6387 6.3906 10.3333 6.3906C10.028 6.3906 9.73475 6.27086 9.51667 6.0571L9.51309 6.0536L8.44291 4.98338C8.22915 4.7653 8.10943 4.47207 8.10943 4.16669C8.10943 3.86131 8.22917 3.56811 8.44293 3.35003L8.44643 3.34646L10.3866 1.40629ZM8.85761 0.403821C9.75754 0.239851 10.6861 0.354038 11.5195 0.731164C11.669 0.798834 11.7758 0.935589 11.8052 1.09707C11.8347 1.25855 11.783 1.42418 11.6669 1.54025L9.15592 4.05121C9.1261 4.08224 9.10943 4.12362 9.10943 4.16669C9.10943 4.20976 9.1261 4.25114 9.15591 4.28217L10.2179 5.34412C10.2489 5.37393 10.2903 5.3906 10.3333 5.3906C10.3764 5.3906 10.4178 5.37393 10.4488 5.34413L12.9598 2.83314C13.0758 2.71708 13.2415 2.66537 13.403 2.69479C13.5644 2.72421 13.7012 2.83102 13.7689 2.98056C14.146 3.81395 14.2602 4.74248 14.0962 5.64242C13.9322 6.54235 13.4979 7.37094 12.8511 8.01777C12.2042 8.66459 11.3757 9.09893 10.4757 9.2629C9.69134 9.40582 8.88524 9.33742 8.13934 9.06779L3.76689 13.4402C3.4079 13.7992 2.92101 14.0009 2.41333 14.0009C1.90565 14.0009 1.41876 13.7992 1.05978 13.4402C0.700795 13.0813 0.49912 12.5944 0.49912 12.0867C0.49912 11.579 0.700795 11.0921 1.05978 10.7331L5.43223 6.36069C5.16261 5.61479 5.09421 4.80868 5.23713 4.02431C5.4011 3.12437 5.83543 2.29578 6.48226 1.64896C7.12909 1.00213 7.95768 0.567791 8.85761 0.403821Z" fill="#B0BACA"/>
</svg>
