<svg width="14" height="14" viewBox="0 0 14 14" fill="none" xmlns="http://www.w3.org/2000/svg">
<path d="M7 0.349609C3.1325 0.349609 0 3.40278 0 7.16836C0 10.1816 2.0055 12.7369 4.78625 13.6378C5.13625 13.702 5.26458 13.491 5.26458 13.31C5.26458 13.1481 5.25875 12.719 5.25583 12.1506C3.30867 12.5617 2.898 11.2358 2.898 11.2358C2.5795 10.4488 2.11925 10.2383 2.11925 10.2383C1.48517 9.8156 2.16825 9.82427 2.16825 9.82427C2.87117 9.87169 3.24042 10.5268 3.24042 10.5268C3.86458 11.5694 4.879 11.2682 5.27917 11.0941C5.34217 10.6529 5.52242 10.3528 5.7225 10.1822C4.16792 10.0116 2.534 9.42528 2.534 6.81274C2.534 6.06852 2.80525 5.4602 3.25442 4.98314C3.17567 4.81083 2.93942 4.1175 3.31567 3.17842C3.31567 3.17842 3.90192 2.99569 5.24067 3.87753C5.80067 3.72602 6.39567 3.65085 6.99067 3.64738C7.58567 3.65085 8.18067 3.72602 8.74067 3.87753C10.0707 2.99569 10.6569 3.17842 10.6569 3.17842C11.0332 4.1175 10.7969 4.81083 10.7269 4.98314C11.1732 5.4602 11.4444 6.06852 11.4444 6.81274C11.4444 9.43222 9.80817 10.0087 8.25067 10.1764C8.49567 10.3811 8.72317 10.7992 8.72317 11.4382C8.72317 12.3507 8.71442 13.0839 8.71442 13.3054C8.71442 13.484 8.83692 13.6974 9.19567 13.6292C11.9962 12.734 14 10.177 14 7.16836C14 3.40278 10.8657 0.349609 7 0.349609Z" fill="#878D95"/>
</svg>
