<svg width="24" height="24" viewBox="0 0 24 24" fill="none" xmlns="http://www.w3.org/2000/svg">
<path fill-rule="evenodd" clip-rule="evenodd" d="M5.84 3.51001C4.55421 3.51001 3.51001 4.55421 3.51001 5.84V18.17C3.51001 19.4558 4.55421 20.5 5.84 20.5H18.17C19.4558 20.5 20.5 19.4558 20.5 18.17V5.84C20.5 4.55421 19.4558 3.51001 18.17 3.51001H5.84ZM2.01001 5.84C2.01001 3.72578 3.72578 2.01001 5.84 2.01001H18.17C20.2842 2.01001 22 3.72578 22 5.84V18.17C22 20.2842 20.2842 22 18.17 22H5.84C3.72578 22 2.01001 20.2842 2.01001 18.17V5.84ZM15.97 8.70001C15.97 9.11423 15.6342 9.45001 15.22 9.45001H8.59066L9.75033 10.6097C10.0432 10.9026 10.0432 11.3775 9.75033 11.6703C9.45744 11.9632 8.98256 11.9632 8.68967 11.6703L6.22018 9.20085L6.21967 9.20034C5.92678 8.90745 5.92678 8.43258 6.21967 8.13968L8.68967 5.66968C8.98256 5.37679 9.45744 5.37679 9.75033 5.66968C10.0432 5.96258 10.0432 6.43745 9.75033 6.73034L8.53066 7.95001H15.22C15.6342 7.95001 15.97 8.2858 15.97 8.70001ZM8.75 14.83C8.33579 14.83 8 15.1658 8 15.58C8 15.9942 8.33579 16.33 8.75 16.33H15.4393L14.2197 17.5497C13.9268 17.8426 13.9268 18.3175 14.2197 18.6103C14.5126 18.9032 14.9874 18.9032 15.2803 18.6103L17.7503 16.1403C18.0432 15.8475 18.0432 15.3726 17.7503 15.0797L15.2803 12.6097C14.9874 12.3168 14.5126 12.3168 14.2197 12.6097C13.9268 12.9026 13.9268 13.3775 14.2197 13.6703L15.3793 14.83H8.75Z" fill="#161721"/>
</svg>
