<svg width="14" height="14" viewBox="0 0 14 14" fill="none" xmlns="http://www.w3.org/2000/svg">
<g clip-path="url(#clip0_645_53645)">
<path d="M12.218 3.53531L7.16247 1.20198C7.11128 1.17829 7.05554 1.16602 6.99913 1.16602C6.94273 1.16602 6.88699 1.17829 6.8358 1.20198L1.78024 3.53531C1.71274 3.56655 1.65561 3.6165 1.61563 3.67922C1.57566 3.74194 1.5545 3.81482 1.55469 3.8892V10.5003C1.5545 10.5747 1.57566 10.6476 1.61563 10.7103C1.65561 10.773 1.71274 10.823 1.78024 10.8542L6.8358 13.1875C6.88699 13.2112 6.94273 13.2235 6.99913 13.2235C7.05554 13.2235 7.11128 13.2112 7.16247 13.1875L12.218 10.8542C12.2855 10.823 12.3427 10.773 12.3826 10.7103C12.4226 10.6476 12.4438 10.5747 12.4436 10.5003V3.8892C12.4438 3.81482 12.4226 3.74194 12.3826 3.67922C12.3427 3.6165 12.2855 3.56655 12.218 3.53531ZM6.99913 5.79476L2.87302 3.8892L6.99913 1.98365L11.1252 3.8892L6.99913 5.79476ZM11.6658 10.2514L7.38802 12.227V6.47142L11.6658 4.49587V10.2514Z" fill="#878D95"/>
</g>
<defs>
<clipPath id="clip0_645_53645">
<rect width="14" height="14" fill="white"/>
</clipPath>
</defs>
</svg>
