<svg width="24" height="24" viewBox="0 0 24 24" fill="none" xmlns="http://www.w3.org/2000/svg">
<path d="M6.60001 13.16C6.30001 13.16 6.00001 13.04 5.79001 12.82C5.67001 12.7 5.59001 12.58 5.54001 12.44C5.48001 12.3 5.45001 12.15 5.45001 12C5.45001 11.85 5.48001 11.7 5.54001 11.56C5.60001 11.41 5.68001 11.28 5.79001 11.18C5.89001 11.08 6.02 10.99 6.16 10.94C6.37 10.85 6.59999 10.82 6.82999 10.87C6.89999 10.88 6.96999 10.91 7.04999 10.94C7.10999 10.96 7.18 11 7.25 11.04C7.31 11.08 7.37001 11.13 7.42001 11.18C7.52001 11.3 7.61001 11.41 7.67001 11.56C7.73001 11.7 7.75 11.85 7.75 12C7.75 12.31 7.63 12.6 7.41 12.82C7.31 12.92 7.18001 13.01 7.04001 13.06C6.90001 13.11 6.76001 13.16 6.60001 13.16Z" fill="#161721"/>
<path d="M6.60001 19.32C6.30001 19.32 6.00001 19.2 5.79001 18.98C5.57001 18.76 5.44 18.47 5.44 18.16C5.44 17.86 5.57001 17.56 5.79001 17.35C6.22001 16.91 6.99001 16.91 7.42001 17.35C7.64001 17.56 7.76001 17.86 7.76001 18.16C7.76001 18.47 7.64001 18.76 7.42001 18.98C7.32001 19.08 7.18999 19.18 7.04999 19.23C6.89999 19.3 6.76001 19.32 6.60001 19.32Z" fill="#161721"/>
<path fill-rule="evenodd" clip-rule="evenodd" d="M1.98999 5.74001C1.98999 3.67579 3.6658 2 5.73001 2H18.26C20.3242 2 22 3.6758 22 5.74001V5.94C22 7.15783 21.4167 8.24045 20.5145 8.92352C21.4165 9.60446 22 10.6856 22 11.91V12.11C22 12.3889 21.9693 12.6616 21.9107 12.9245C21.8207 13.3288 21.42 13.5836 21.0157 13.4936C20.6114 13.4035 20.3566 13.0028 20.4466 12.5985C20.4815 12.4419 20.5 12.2785 20.5 12.11V11.91C20.5 10.723 19.5875 9.7621 18.4291 9.67623C18.3731 9.67873 18.3167 9.67999 18.26 9.67999H5.73001C5.67351 9.67999 5.6173 9.67874 5.56141 9.67625C4.40416 9.76264 3.48999 10.7309 3.48999 11.91V12.11C3.48999 13.2654 4.36791 14.2185 5.49218 14.3375C5.57083 14.3325 5.65013 14.33 5.73001 14.33H12.5C12.9142 14.33 13.25 14.6658 13.25 15.08L13.2499 15.09L13.25 15.1C13.25 15.5142 12.9142 15.85 12.5 15.85H5.73001C5.65013 15.85 5.57082 15.8475 5.49218 15.8425C4.36791 15.9615 3.48999 16.9146 3.48999 18.07V18.27C3.48999 19.5058 4.49421 20.51 5.73001 20.51H12.5C12.9142 20.51 13.25 20.8458 13.25 21.26C13.25 21.6742 12.9142 22.01 12.5 22.01H5.73001C3.66581 22.01 1.98999 20.3342 1.98999 18.27V18.07C1.98999 16.8543 2.57129 15.7733 3.47087 15.09C2.57129 14.4067 1.98999 13.3257 1.98999 12.11V11.91C1.98999 10.6913 2.57412 9.60798 3.47744 8.92499C2.57412 8.24201 1.98999 7.15871 1.98999 5.94V5.74001ZM20.5 5.94C20.5 7.11902 19.5859 8.08724 18.4288 8.17371C18.3728 8.17123 18.3166 8.16998 18.26 8.16998H5.73001C5.67351 8.16998 5.6173 8.17124 5.56141 8.17372C4.40416 8.08734 3.48999 7.11907 3.48999 5.94V5.74001C3.48999 4.50422 4.49422 3.5 5.73001 3.5H18.26C19.4958 3.5 20.5 4.50421 20.5 5.74001V5.94ZM14.33 12C14.33 11.5858 14.6658 11.25 15.08 11.25H18.17C18.5842 11.25 18.92 11.5858 18.92 12C18.92 12.4142 18.5842 12.75 18.17 12.75H15.08C14.6658 12.75 14.33 12.4142 14.33 12ZM15.08 5.08002C14.6658 5.08002 14.33 5.4158 14.33 5.83002C14.33 6.24423 14.6658 6.58002 15.08 6.58002H18.17C18.5842 6.58002 18.92 6.24423 18.92 5.83002C18.92 5.4158 18.5842 5.08002 18.17 5.08002H15.08Z" fill="#161721"/>
<path d="M6.60001 6.98999C6.30001 6.98999 6.00001 6.85998 5.79001 6.63998C5.57001 6.41998 5.44 6.12999 5.44 5.82999C5.44 5.67999 5.47 5.52999 5.53 5.37999C5.59 5.23999 5.67 5.10998 5.78 5.00998C5.88 4.90998 6.00999 4.80998 6.14999 4.75998C6.35999 4.67998 6.59001 4.64998 6.82001 4.69998C6.89001 4.70998 6.97001 4.73998 7.04001 4.75998C7.11001 4.78998 7.16999 4.82999 7.23999 4.85999C7.29999 4.90999 7.36 4.94998 7.41 5.00998C7.63 5.22998 7.75 5.51999 7.75 5.82999C7.75 6.12999 7.63 6.41998 7.41 6.63998C7.2 6.86998 6.91001 6.98999 6.60001 6.98999Z" fill="#161721"/>
<path fill-rule="evenodd" clip-rule="evenodd" d="M18 20.5C19.3807 20.5 20.5 19.3807 20.5 18C20.5 16.6193 19.3807 15.5 18 15.5C16.6193 15.5 15.5 16.6193 15.5 18C15.5 19.3807 16.6193 20.5 18 20.5ZM18 22C20.2091 22 22 20.2091 22 18C22 15.7909 20.2091 14 18 14C15.7909 14 14 15.7909 14 18C14 20.2091 15.7909 22 18 22Z" fill="#161721"/>
<path fill-rule="evenodd" clip-rule="evenodd" d="M22.9762 23.0238C22.6808 23.3192 22.2009 23.3163 21.9091 23.0173L20 21.0607L21.0607 20L22.9827 21.9698C23.2694 22.2637 23.2665 22.7335 22.9762 23.0238V23.0238Z" fill="#161721"/>
</svg>
