<svg width="14" height="12" viewBox="0 0 14 12" fill="none" xmlns="http://www.w3.org/2000/svg">
<rect x="4.66797" y="0.172852" width="4.66614" height="4.4563" fill="#878D95"/>
<rect y="7.37109" width="4.66614" height="4.4563" fill="#878D95"/>
<rect x="9.33398" y="7.37109" width="4.66614" height="4.4563" fill="#878D95"/>
<path d="M11.8172 2.15877L11.9872 2.15637L11.9872 1.98598L11.8195 1.98598L11.8172 2.15877ZM11.8172 7.37258L12.7986 5.63106L10.8357 5.65873L11.8172 7.37258ZM9.33027 2.33158L11.8148 2.33155L11.8195 1.98598L9.33498 1.98601L9.33027 2.33158ZM11.6472 2.16117L11.6472 5.82006L11.9872 5.81527L11.9872 2.15637L11.6472 2.16117Z" fill="#878D95"/>
<path d="M2.26292 2.15877L2.09293 2.15637L2.09293 1.98598L2.26057 1.98598L2.26292 2.15877ZM2.26292 7.37258L1.28145 5.63106L3.24439 5.65873L2.26292 7.37258ZM4.74981 2.33158L2.26528 2.33155L2.26057 1.98598L4.7451 1.98601L4.74981 2.33158ZM2.43292 2.16117L2.43292 5.82006L2.09293 5.81527L2.09293 2.15637L2.43292 2.16117Z" fill="#878D95"/>
</svg>
