<svg width="24" height="24" viewBox="0 0 24 24" fill="none" xmlns="http://www.w3.org/2000/svg">
<path fill-rule="evenodd" clip-rule="evenodd" d="M1.5 9V15H6.5V9H1.5ZM1 7.5C0.447715 7.5 0 7.94772 0 8.5V15.5C0 16.0523 0.447715 16.5 1 16.5H7C7.55228 16.5 8 16.0523 8 15.5V12.75H15V12C15 14.4853 17.0147 16.5 19.5 16.5C21.9853 16.5 24 14.4853 24 12C24 9.51472 21.9853 7.5 19.5 7.5C17.0147 7.5 15 9.51472 15 12V11.25H8V8.5C8 7.94772 7.55228 7.5 7 7.5H1ZM19.5 15C21.1569 15 22.5 13.6569 22.5 12C22.5 10.3431 21.1569 9 19.5 9C17.8431 9 16.5 10.3431 16.5 12C16.5 13.6569 17.8431 15 19.5 15Z" fill="#161721"/>
</svg>
