<?xml version="1.0" encoding="utf-8"?>
<svg version="1.1" id="Layer_1" xmlns="http://www.w3.org/2000/svg" x="0px" y="0px"
	 viewBox="0 0 14 14" style="enable-background:new 0 0 14 14;" xml:space="preserve">
<style type="text/css">
	.st0{fill:#878D95;}
	.st1{fill-rule:evenodd;clip-rule:evenodd;fill:#878D95;}
</style>
<g>
	<rect x="1.9" y="6.1" transform="matrix(0.9457 -0.3251 0.3251 0.9457 -2.181 0.9965)" class="st0" width="0" height="1.8"/>
	<path class="st0" d="M12.3,9.2c0.1-0.1,0.1-0.3,0.2-0.4c0,0,0,0,0,0c0.1-0.1,0.1-0.3,0.1-0.4c0,0,0,0,0,0c0,0,0,0,0-0.1L14,7.9V6.1
		l-1.3-0.5c0,0,0,0,0,0c0,0,0,0,0,0c0-0.1-0.1-0.3-0.1-0.4c0,0,0,0,0,0c-0.1-0.1-0.1-0.3-0.2-0.4c0,0,0,0,0-0.1c0,0,0-0.1-0.1-0.1
		l0.6-1.3l-1.2-1.2l-1.3,0.6c0,0,0,0-0.1,0c0,0,0,0-0.1,0c-0.1-0.1-0.3-0.1-0.4-0.2c0,0,0,0,0,0C9.6,2.4,9.5,2.3,9.4,2.3
		c0,0,0,0,0,0c0,0,0,0,0,0L8.8,0.9H7.1L6.6,2.3c0,0,0,0-0.1,0c0,0,0,0,0,0c-0.1,0-0.3,0.1-0.4,0.1c0,0,0,0,0,0
		C6,2.5,5.8,2.6,5.7,2.6c0,0,0,0-0.1,0c0,0,0,0-0.1,0L4.3,2.1L3.1,3.3l0.5,1h2.1c0.4-0.4,1-0.6,1.5-0.8c0,0,0,0,0,0
		c0.1,0,0.2,0,0.3,0c0,0,0,0,0,0c0.1,0,0.2,0,0.4,0c0.1,0,0.2,0,0.4,0c0,0,0,0,0,0c0.1,0,0.2,0,0.3,0c0,0,0,0,0,0
		c1.4,0.3,2.4,1.4,2.7,2.7c0,0,0,0,0,0c0,0.1,0,0.2,0,0.3c0,0,0,0,0,0.1c0,0.1,0,0.2,0,0.4c0,0.1,0,0.2,0,0.4c0,0,0,0,0,0.1
		c0,0.1,0,0.2,0,0.3c0,0,0,0,0,0c-0.3,1.4-1.4,2.4-2.7,2.7c0,0,0,0,0,0c-0.1,0-0.2,0-0.3,0c0,0,0,0-0.1,0c-0.1,0-0.2,0-0.4,0
		s-0.2,0-0.4,0c0,0,0,0-0.1,0c-0.1,0-0.2,0-0.3,0c0,0,0,0,0,0c-0.4-0.1-0.7-0.2-1-0.4H3.4l-0.3,0.6l1.2,1.2l1.3-0.6c0,0,0,0,0.1,0
		c0,0,0,0,0.1,0c0.1,0.1,0.3,0.1,0.4,0.2c0,0,0,0,0,0c0.1,0.1,0.3,0.1,0.4,0.1c0,0,0,0,0,0c0,0,0,0,0,0L7,13.1h1.8l0.5-1.3
		c0,0,0,0,0.1,0c0,0,0,0,0,0c0.1,0,0.3-0.1,0.4-0.1c0,0,0,0,0,0c0.1-0.1,0.3-0.1,0.4-0.2c0,0,0,0,0.1,0c0,0,0,0,0.1,0l1.3,0.6
		l1.2-1.2l-0.6-1.3C12.2,9.4,12.3,9.3,12.3,9.2C12.3,9.3,12.3,9.3,12.3,9.2z"/>
</g>
<path class="st1" d="M5.5,9l2.2-1.8L5.5,5.5v0.9H0v1.8h5.5V9z"/>
</svg>
