<svg width="24" height="24" viewBox="0 0 24 24" fill="none" xmlns="http://www.w3.org/2000/svg">
<path fill-rule="evenodd" clip-rule="evenodd" d="M21.7247 13.78L22.2247 14.07L22.2147 14.06C22.9647 14.5 23.2047 15.44 22.7847 16.17L21.7547 17.94C21.3147 18.68 20.3747 18.93 19.6447 18.51L19.1347 18.22C18.6547 17.94 18.0747 17.94 17.5947 18.22C17.1147 18.5 16.8247 19 16.8247 19.56V20.15C16.8247 21 16.1347 21.69 15.2847 21.69H13.2247C12.3747 21.69 11.6847 21 11.6847 20.15V19.56C11.6847 19 11.3947 18.5 10.9147 18.22C10.4347 17.94 9.85472 17.94 9.37472 18.22L8.86472 18.51C8.50472 18.72 8.09472 18.78 7.69472 18.67C7.29472 18.56 6.96472 18.31 6.75472 17.95L6.35129 17.2528C6.14622 16.8984 6.26215 16.4451 6.61217 16.2327C6.97678 16.0114 7.45224 16.137 7.65989 16.5096L8.04472 17.2L8.62472 16.92C9.09472 16.65 9.60472 16.51 10.1347 16.51C10.6647 16.51 11.1847 16.65 11.6647 16.93C12.6147 17.48 13.1847 18.46 13.1847 19.56V20.15L15.2847 20.19L15.3247 19.56C15.3247 18.47 15.8947 17.48 16.8447 16.93C17.7947 16.39 18.9347 16.38 19.8847 16.93L20.3873 17.2158L21.4747 15.43L20.9647 15.09C20.0047 14.54 19.4347 13.55 19.4347 12.45C19.4347 11.34 20.0047 10.36 20.9647 9.81001L21.4747 9.52001L20.4547 7.68001L19.8747 7.96001C18.9147 8.52001 17.7847 8.51001 16.8347 7.96001C15.8847 7.41001 15.3147 6.43001 15.3147 5.33001V4.74001L13.2147 4.70001C13.1947 4.70001 13.1747 4.74001 13.1747 4.74001V5.33001C13.1747 6.42001 12.6047 7.41001 11.6547 7.96001C10.7047 8.50001 9.56472 8.51001 8.61472 7.96001L8.10472 7.67001L7.94336 7.935C7.72938 8.2864 7.27543 8.40503 6.91688 8.20327C6.54677 7.99499 6.41777 7.52471 6.62982 7.15675L6.75472 6.94001C7.19472 6.21001 8.13472 5.96001 8.86472 6.38001L9.37472 6.67001C9.85472 6.95001 10.4347 6.95001 10.9147 6.67001C11.3947 6.39001 11.6847 5.89001 11.6847 5.33001V4.74001C11.6847 3.89001 12.3747 3.20001 13.2247 3.20001H15.2847C16.1347 3.20001 16.8247 3.89001 16.8247 4.74001V5.33001C16.8247 5.89001 17.1147 6.39001 17.5947 6.67001C18.0747 6.95001 18.6547 6.95001 19.1347 6.67001L19.6447 6.38001C20.3747 5.95001 21.3247 6.20001 21.7547 6.94001L22.7847 8.72001C22.9947 9.07001 23.0447 9.48001 22.9447 9.88001C22.8447 10.28 22.5947 10.61 22.2347 10.82L21.7247 11.11C21.2447 11.38 20.9547 11.88 20.9547 12.44C20.9547 13 21.2447 13.5 21.7247 13.78ZM14.2747 9.12001C12.4447 9.12001 10.9547 10.61 10.9547 12.44C10.9547 14.27 12.4447 15.76 14.2747 15.76C16.1047 15.76 17.5947 14.27 17.5947 12.44C17.5947 10.61 16.1047 9.12001 14.2747 9.12001ZM14.2747 14.26C13.2747 14.26 12.4547 13.44 12.4547 12.44C12.4547 11.44 13.2747 10.62 14.2747 10.62C15.2747 10.62 16.0947 11.44 16.0947 12.44C16.0947 13.44 15.2747 14.26 14.2747 14.26ZM9.37159 12.6991L7.21159 14.8691C6.91937 15.1627 6.4445 15.1638 6.15093 14.8716C5.85736 14.5793 5.85627 14.1045 6.14848 13.8109L7.03523 12.92H1.75C1.33579 12.92 1 12.5843 1 12.17C1 11.7558 1.33579 11.42 1.75 11.42H7.03532L6.14848 10.5291C5.85627 10.2355 5.85736 9.76066 6.15093 9.46845C6.4445 9.17623 6.91937 9.17733 7.21159 9.4709L9.37159 11.6409C9.66285 11.9335 9.66285 12.4065 9.37159 12.6991Z" fill="#161721"/>
</svg>
