<svg width="24" height="24" viewBox="0 0 24 24" fill="none" xmlns="http://www.w3.org/2000/svg">
<path fill-rule="evenodd" clip-rule="evenodd" d="M8.91998 1.98999C8.50577 1.98999 8.16998 2.32578 8.16998 2.73999V5.08002H5.69H3.78998C3.37576 5.08002 3.03998 5.4158 3.03998 5.83002C3.03998 6.24423 3.37576 6.58002 3.78998 6.58002H4.94V19.19C4.94 20.7342 6.19579 21.99 7.74001 21.99H15.9C17.4442 21.99 18.7 20.7342 18.7 19.19V6.58002H20.21C20.6242 6.58002 20.96 6.24423 20.96 5.83002C20.96 5.4158 20.6242 5.08002 20.21 5.08002H17.96H15.83V2.73999C15.83 2.32578 15.4942 1.98999 15.08 1.98999H8.91998ZM9.66998 5.06999V3.48999H14.33V5.06999H9.66998ZM6.44 6.58002H17.2V19.19C17.2 19.9058 16.6158 20.49 15.9 20.49H7.74001C7.02422 20.49 6.44 19.9058 6.44 19.19V6.58002ZM9.94 9C10.3542 9 10.69 9.33579 10.69 9.75V17.14C10.69 17.5542 10.3542 17.89 9.94 17.89C9.52579 17.89 9.19 17.5542 9.19 17.14V9.75C9.19 9.33579 9.52579 9 9.94 9ZM14.8 9.75C14.8 9.33579 14.4642 9 14.05 9C13.6358 9 13.3 9.33579 13.3 9.75V17.14C13.3 17.5542 13.6358 17.89 14.05 17.89C14.4642 17.89 14.8 17.5542 14.8 17.14V9.75Z" fill="#161721"/>
</svg>
