<svg width="24" height="24" viewBox="0 0 24 24" fill="none" xmlns="http://www.w3.org/2000/svg">
<path fill-rule="evenodd" clip-rule="evenodd" d="M6.10477 13.5683L10.1555 6.53134C10.5056 5.82289 11.4915 5.82289 11.8416 6.53134L15.8923 13.5683C16.221 14.2251 15.7566 15 15.0493 15L6.94778 15C6.2405 15 5.78328 14.2177 6.10477 13.5683ZM11 9.08499C11.2071 9.08499 11.375 9.25288 11.375 9.45999V11.29C11.375 11.4971 11.2071 11.665 11 11.665C10.7929 11.665 10.625 11.4971 10.625 11.29V9.45999C10.625 9.25288 10.7929 9.08499 11 9.08499ZM11 13.04C11.2071 13.04 11.375 12.8721 11.375 12.665C11.375 12.4579 11.2071 12.29 11 12.29C10.7929 12.29 10.625 12.4579 10.625 12.665C10.625 12.8721 10.7929 13.04 11 13.04Z" fill="#161721"/>
<path fill-rule="evenodd" clip-rule="evenodd" d="M3.5 10.97C3.5 6.84421 6.84421 3.5 10.97 3.5C15.0958 3.5 18.44 6.84421 18.44 10.97C18.44 15.0958 15.0958 18.44 10.97 18.44C6.84421 18.44 3.5 15.0958 3.5 10.97ZM10.97 2C6.01579 2 2 6.01579 2 10.97C2 15.9242 6.01579 19.94 10.97 19.94C13.1771 19.94 15.1979 19.143 16.7604 17.8211L20.7197 21.7803C21.0126 22.0732 21.4874 22.0732 21.7803 21.7803C22.0732 21.4875 22.0732 21.0126 21.7803 20.7197L17.8211 16.7604C19.143 15.1979 19.94 13.1771 19.94 10.97C19.94 6.01579 15.9242 2 10.97 2Z" fill="#161721"/>
</svg>
