<svg width="20" height="20" viewBox="0 0 20 20" fill="none" xmlns="http://www.w3.org/2000/svg">
<g clip-path="url(#clip0)">
<path d="M17.8015 4.81978C17.8612 4.73949 17.7752 4.6335 17.6816 4.66888C17.1805 4.85826 16.6544 4.98782 16.11 5.057C16.7156 4.6954 17.1935 4.14978 17.4632 3.49148C17.4981 3.40636 17.405 3.33032 17.3241 3.3741C16.7519 3.68382 16.1303 3.90671 15.473 4.038C14.871 3.397 14.013 3 13.077 3C11.261 3 9.799 4.474 9.799 6.281C9.799 6.541 9.821 6.791 9.875 7.029C7.19943 6.89851 4.82613 5.63788 3.20655 3.70991C3.16148 3.65626 3.07656 3.66316 3.04412 3.72527C2.80387 4.18526 2.665 4.70264 2.665 5.256C2.665 6.26886 3.13005 7.17917 3.84893 7.77784C3.92566 7.84174 3.88105 7.96919 3.78207 7.95599C3.375 7.90168 2.98324 7.76686 2.64 7.578C2.64 7.588 2.64 7.601 2.64 7.614C2.64 9.06061 3.57645 10.2848 4.86409 10.7268C4.96364 10.761 4.9617 10.9044 4.85728 10.9176C4.71148 10.936 4.56115 10.945 4.408 10.945C4.25772 10.945 4.10641 10.9389 3.95958 10.9192C3.88283 10.909 3.81797 10.9819 3.84592 11.0541C4.28354 12.1848 5.32291 13.0224 6.57233 13.1561C6.66579 13.1661 6.70407 13.2872 6.62764 13.3419C5.54885 14.114 4.21797 14.573 2.785 14.573C2.66813 14.573 2.55334 14.5707 2.43972 14.5655C2.33333 14.5605 2.28439 14.7049 2.37655 14.7583C3.74693 15.5521 5.33296 16 7.032 16C13.068 16 16.368 11 16.368 6.666C16.368 6.521 16.363 6.381 16.356 6.242C16.9135 5.84639 17.3946 5.36646 17.8015 4.81978Z" fill="#0C2739"/>
</g>
<defs>
<clipPath id="clip0">
<rect width="20" height="20" fill="white"/>
</clipPath>
</defs>
</svg>
