<svg width="20" height="20" viewBox="0 0 20 20" fill="none" xmlns="http://www.w3.org/2000/svg">
<path fill-rule="evenodd" clip-rule="evenodd" d="M6.64515 4C6.3601 4 6.12902 4.23108 6.12902 4.51613C6.12902 4.80118 6.3601 5.03226 6.64515 5.03226H17.4839C17.7689 5.03226 18 4.80118 18 4.51613C18 4.23108 17.7689 4 17.4839 4H6.64515ZM6.64515 9.16128C6.3601 9.16128 6.12902 9.39236 6.12902 9.67741C6.12902 9.96246 6.3601 10.1935 6.64515 10.1935H17.4839C17.7689 10.1935 18 9.96246 18 9.67741C18 9.39236 17.7689 9.16128 17.4839 9.16128H6.64515ZM6.12902 14.8387C6.12902 14.5536 6.3601 14.3226 6.64515 14.3226H17.4839C17.7689 14.3226 18 14.5536 18 14.8387C18 15.1237 17.7689 15.3548 17.4839 15.3548H6.64515C6.3601 15.3548 6.12902 15.1237 6.12902 14.8387ZM2.77419 5.54839C3.20177 5.54839 3.54839 5.20177 3.54839 4.7742C3.54839 4.34662 3.20177 4 2.77419 4C2.34662 4 2 4.34662 2 4.7742C2 5.20177 2.34662 5.54839 2.77419 5.54839ZM3.54839 9.93548C3.54839 10.3631 3.20177 10.7097 2.77419 10.7097C2.34662 10.7097 2 10.3631 2 9.93548C2 9.5079 2.34662 9.16128 2.77419 9.16128C3.20177 9.16128 3.54839 9.5079 3.54839 9.93548ZM2.77419 15.871C3.20177 15.871 3.54839 15.5243 3.54839 15.0968C3.54839 14.6692 3.20177 14.3226 2.77419 14.3226C2.34662 14.3226 2 14.6692 2 15.0968C2 15.5243 2.34662 15.871 2.77419 15.871Z" fill="#0C2739"/>
</svg>
