<svg width="24" height="24" viewBox="0 0 24 24" fill="none" xmlns="http://www.w3.org/2000/svg">
<path fill-rule="evenodd" clip-rule="evenodd" d="M5 6.25C5.55228 6.25 6 5.80228 6 5.25C6 4.69772 5.55228 4.25 5 4.25C4.44772 4.25 4 4.69772 4 5.25C4 5.80228 4.44772 6.25 5 6.25ZM8.33002 4.41003C7.9158 4.41003 7.58002 4.74582 7.58002 5.16003C7.58002 5.57425 7.9158 5.91003 8.33002 5.91003H18.49C18.9042 5.91003 19.24 5.57425 19.24 5.16003C19.24 4.74582 18.9042 4.41003 18.49 4.41003H8.33002ZM8.33002 18.09C7.9158 18.09 7.58002 18.4258 7.58002 18.84C7.58002 19.2542 7.9158 19.59 8.33002 19.59H18.49C18.9042 19.59 19.24 19.2542 19.24 18.84C19.24 18.4258 18.9042 18.09 18.49 18.09H8.33002ZM7.58002 12C7.58002 11.5858 7.9158 11.25 8.33002 11.25H18.49C18.9042 11.25 19.24 11.5858 19.24 12C19.24 12.4142 18.9042 12.75 18.49 12.75H8.33002C7.9158 12.75 7.58002 12.4142 7.58002 12ZM6 12C6 12.5523 5.55228 13 5 13C4.44772 13 4 12.5523 4 12C4 11.4477 4.44772 11 5 11C5.55228 11 6 11.4477 6 12ZM5 19.75C5.55228 19.75 6 19.3023 6 18.75C6 18.1977 5.55228 17.75 5 17.75C4.44772 17.75 4 18.1977 4 18.75C4 19.3023 4.44772 19.75 5 19.75Z" fill="#161721"/>
</svg>
