<svg width="24" height="24" viewBox="0 0 24 24" fill="none" xmlns="http://www.w3.org/2000/svg">
<path fill-rule="evenodd" clip-rule="evenodd" d="M6.5 3.5C6.91421 3.5 7.25 3.83579 7.25 4.25V10.75C7.25 13.3734 9.37665 15.5 12 15.5C14.6234 15.5 16.75 13.3734 16.75 10.75V4.25C16.75 3.83579 17.0858 3.5 17.5 3.5C17.9142 3.5 18.25 3.83579 18.25 4.25V10.75C18.25 14.2018 15.4518 17 12 17C8.54822 17 5.75 14.2018 5.75 10.75V4.25C5.75 3.83579 6.08579 3.5 6.5 3.5ZM4.75 19.75C4.75 19.3358 5.08579 19 5.5 19H18.5C18.9142 19 19.25 19.3358 19.25 19.75C19.25 20.1642 18.9142 20.5 18.5 20.5H5.5C5.08579 20.5 4.75 20.1642 4.75 19.75Z" fill="#161721"/>
</svg>
