<svg width="14" height="13" viewBox="0 0 14 13" fill="none" xmlns="http://www.w3.org/2000/svg">
<path d="M2.55554 0.333252H8.11109V0.999919H7.66665V12.3333H8.11109V12.9999H2.55554C1.32824 12.9999 0.333313 12.0547 0.333313 10.8888V2.44436C0.333313 1.27843 1.32824 0.333252 2.55554 0.333252Z" fill="#0C2739"/>
<path d="M10.3333 12.9999H11.4444C11.7388 12.9999 12.0198 12.9455 12.2769 12.8468L12.0378 12.2245C11.8563 12.2942 11.6563 12.3333 11.4444 12.3333H10.3333V12.9999Z" fill="#0C2739"/>
<path d="M13.6666 3.49992V2.44436C13.6666 2.15118 13.6037 1.87196 13.49 1.61822L12.8817 1.89081C12.958 2.06112 13 2.24763 13 2.44436V3.49992H13.6666Z" fill="#0C2739"/>
<path d="M10.3333 0.333252H11.4444C11.7388 0.333252 12.0198 0.387621 12.2769 0.486365L12.0378 1.10871C11.8563 1.03898 11.6563 0.999919 11.4444 0.999919H10.3333V0.333252Z" fill="#0C2739"/>
<path d="M13.6666 5.61103V7.72214H13V5.61103H13.6666Z" fill="#0C2739"/>
<path d="M13.6666 9.83325V10.8888C13.6666 11.182 13.6037 11.4612 13.49 11.715L12.8817 11.4424C12.958 11.2721 13 11.0855 13 10.8888V9.83325H13.6666Z" fill="#0C2739"/>
</svg>
