<svg width="24" height="24" viewBox="0 0 24 24" fill="none" xmlns="http://www.w3.org/2000/svg">
<path fill-rule="evenodd" clip-rule="evenodd" d="M13.5897 5.10968C15.0526 3.64679 17.4274 3.64679 18.8903 5.10968C20.3532 6.57258 20.3532 8.94744 18.8903 10.4103L15.1807 14.12L17.5303 16.4697C17.8232 16.7626 17.8232 17.2374 17.5303 17.5303C17.2374 17.8232 16.7626 17.8232 16.4697 17.5303L13.5897 14.6503L6.46967 7.53033C6.17678 7.23744 6.17678 6.76256 6.46967 6.46967C6.76256 6.17678 7.23744 6.17678 7.53033 6.46967L9.88 8.81934L13.5897 5.10968ZM10.9407 9.88L14.12 13.0593L17.8297 9.34967C18.7068 8.47257 18.7068 7.04745 17.8297 6.17034C16.9526 5.29324 15.5274 5.29324 14.6503 6.17034L10.9407 9.88ZM8.53034 11.2297C8.82324 11.5226 8.82324 11.9974 8.53034 12.2903L6.17034 14.6503C5.29324 15.5274 5.29324 16.9525 6.17034 17.8297C7.04745 18.7068 8.47258 18.7068 9.34969 17.8297L11.7197 15.4597C12.0126 15.1668 12.4874 15.1668 12.7803 15.4597C13.0732 15.7526 13.0732 16.2274 12.7803 16.5203L10.4103 18.8903C8.94745 20.3532 6.57258 20.3532 5.10968 18.8903C3.64679 17.4274 3.64679 15.0526 5.10968 13.5897L7.46968 11.2297C7.76258 10.9368 8.23745 10.9368 8.53034 11.2297Z" fill="#161721"/>
</svg>
