<svg width="24" height="24" viewBox="0 0 24 24" fill="none" xmlns="http://www.w3.org/2000/svg">
<path fill-rule="evenodd" clip-rule="evenodd" d="M17.5303 7.53033C17.8232 7.23744 17.8232 6.76256 17.5303 6.46967C17.2374 6.17678 16.7626 6.17678 16.4697 6.46967L8.97018 13.9692L8.96967 13.9697L8.96916 13.9702L7 15.9393L2.53033 11.4697C2.23744 11.1768 1.76256 11.1768 1.46967 11.4697C1.17678 11.7626 1.17678 12.2374 1.46967 12.5303L6.46967 17.5303C6.50628 17.5669 6.54574 17.599 6.58732 17.6264C6.87844 17.8186 7.27405 17.7866 7.53033 17.5303L7.53105 17.5296L9.5 15.5607L11.4697 17.5303C11.7626 17.8232 12.2374 17.8232 12.5303 17.5303C12.5307 17.53 12.531 17.5297 12.5313 17.5293L22.5303 7.53033C22.8232 7.23744 22.8232 6.76256 22.5303 6.46967C22.2374 6.17678 21.7626 6.17678 21.4697 6.46967L12 15.9393L10.5607 14.5L17.5303 7.53033Z" fill="#161721"/>
</svg>
