<svg width="24" height="24" viewBox="0 0 24 24" fill="none" xmlns="http://www.w3.org/2000/svg">
<path fill-rule="evenodd" clip-rule="evenodd" d="M6.83319 5.56785C8.24759 4.43005 10.0441 3.74999 12 3.74999C15.3336 3.74999 18.207 5.72725 19.5084 8.5762C19.6805 8.95297 20.1255 9.11888 20.5023 8.94678C20.879 8.77467 21.0449 8.32972 20.8728 7.95296C19.3365 4.58965 15.9423 2.24999 12 2.24999C9.82497 2.24999 7.81584 2.96273 6.19422 4.16638L6.40344 3.18055C6.48944 2.77536 6.23068 2.37718 5.82549 2.29118C5.42031 2.20519 5.02212 2.46394 4.93613 2.86913L4.3082 5.82775C4.30569 5.83861 4.3034 5.84958 4.30134 5.86065C4.22574 6.26791 4.4946 6.65934 4.90185 6.73495L4.91388 6.73718L7.79074 7.27124C8.198 7.34685 8.58943 7.07799 8.66504 6.67073C8.74064 6.26348 8.47178 5.87204 8.06453 5.79644L6.83319 5.56785ZM4.1363 9.4971C4.26182 9.10237 4.04358 8.68061 3.64884 8.5551C3.2541 8.42958 2.83235 8.64783 2.70683 9.04256C2.40993 9.97627 2.25002 10.9702 2.25002 12C2.25002 15.6503 4.25571 18.8307 7.22369 20.5017L6.42535 20.6792C6.02101 20.7691 5.76613 21.1698 5.85604 21.5742C5.94596 21.9785 6.34663 22.2334 6.75097 22.1435L9.70547 21.4864L9.71996 21.4833L9.73617 21.4795C9.96048 21.4235 10.1358 21.272 10.2295 21.0791C10.3009 20.9321 10.3251 20.7608 10.2868 20.5888L10.2827 20.5714L10.2799 20.5604L9.57142 17.7193C9.47119 17.3174 9.06413 17.0729 8.66222 17.1731C8.26032 17.2733 8.01576 17.6804 8.11599 18.0823L8.45789 19.4532C5.67331 18.1275 3.75002 15.2875 3.75002 12C3.75002 11.1262 3.88559 10.2856 4.1363 9.4971ZM20.1241 13.4437L18.9362 14.1994C18.5867 14.4217 18.1231 14.3186 17.9008 13.9692C17.6785 13.6197 17.7816 13.1561 18.1311 12.9338L20.6048 11.3602L20.6133 11.3547L20.6265 11.3467C20.6327 11.3429 20.639 11.3392 20.6453 11.3357C20.9902 11.1415 21.4306 11.2491 21.6456 11.587L21.6526 11.5983L21.6619 11.6139L23.2206 14.2084C23.4339 14.5635 23.319 15.0242 22.964 15.2375C22.6089 15.4508 22.1481 15.3359 21.9348 14.9809L21.491 14.2421C20.5585 18.2048 17.2086 21.2344 13.0824 21.6905C12.6707 21.736 12.3001 21.4392 12.2546 21.0275C12.209 20.6158 12.5059 20.2451 12.9176 20.1996C16.5634 19.7966 19.4934 17.0165 20.1241 13.4437Z" fill="black"/>
</svg>
