<svg width="20" height="20" viewBox="0 0 20 20" fill="none" xmlns="http://www.w3.org/2000/svg">
<path fill-rule="evenodd" clip-rule="evenodd" d="M9.55988 3.29428C9.7492 3.12635 10.0341 3.12635 10.2235 3.29428L13.235 5.96553C13.4945 6.19574 13.4945 6.60101 13.235 6.83121C13.0159 7.02553 12.6862 7.02553 12.4671 6.83121L10.5082 5.09364V13.0006C10.5082 13.3411 10.2322 13.6171 9.89167 13.6171C9.55116 13.6171 9.27513 13.3411 9.27513 13.0006V5.09364L7.31621 6.83121C7.09713 7.02553 6.76742 7.02553 6.54834 6.83121C6.28881 6.60101 6.28881 6.19574 6.54834 5.96553L9.55988 3.29428ZM16.5504 12.1556C16.5504 11.8151 16.8264 11.539 17.1669 11.539C17.5074 11.539 17.7834 11.8151 17.7834 12.1556V15.3398C17.7834 16.2445 16.9537 16.9805 15.9338 16.9805H3.84962C2.82974 16.9805 2 16.2445 2 15.3398V12.1556C2 11.8151 2.27603 11.539 2.61654 11.539C2.95705 11.539 3.23308 11.8151 3.23308 12.1556V15.3398C3.23308 15.6414 3.50966 15.8867 3.84962 15.8867H15.9338C16.2738 15.8867 16.5504 15.6414 16.5504 15.3398V12.1556Z" fill="#0C2739"/>
</svg>
