<svg width="24" height="24" viewBox="0 0 24 24" fill="none" xmlns="http://www.w3.org/2000/svg">
<path fill-rule="evenodd" clip-rule="evenodd" d="M20.5007 18.1534C20.5272 18.7478 20.3172 19.3285 19.9166 19.7684C19.5199 20.2042 18.9682 20.4667 18.3803 20.5L5.6197 20.5C5.03179 20.4667 4.4801 20.2042 4.08335 19.7684C3.68277 19.3285 3.47275 18.7478 3.49925 18.1534C3.49974 18.1423 3.49999 18.1311 3.49999 18.12L3.49999 12C3.49999 11.5858 3.1642 11.25 2.74999 11.25C2.33578 11.25 1.99999 11.5858 1.99999 12L1.99999 18.1042C1.96073 19.0887 2.31056 20.0495 2.97424 20.7783C3.64188 21.5116 4.57277 21.9505 5.56323 21.9991C5.57548 21.9997 5.58773 22 5.59999 22L18.4 22C18.4122 22 18.4245 21.9997 18.4367 21.9991C19.4272 21.9505 20.3581 21.5116 21.0257 20.7783C21.6894 20.0495 22.0392 19.0887 22 18.1042L22 12C22 11.5858 21.6642 11.25 21.25 11.25C20.8358 11.25 20.5 11.5858 20.5 12L20.5 18.12C20.5 18.1311 20.5002 18.1423 20.5007 18.1534ZM12.5311 2.22039L16.5303 6.21967C16.8232 6.51257 16.8232 6.98744 16.5303 7.28033C16.2374 7.57323 15.7626 7.57323 15.4697 7.28033L12.75 4.56066L12.75 15C12.75 15.4142 12.4142 15.75 12 15.75C11.5858 15.75 11.25 15.4142 11.25 15L11.25 4.56066L8.53034 7.28033C8.23745 7.57322 7.76257 7.57322 7.46968 7.28033C7.17679 6.98744 7.17679 6.51256 7.46968 6.21967L11.4697 2.21967C11.7626 1.92678 12.2374 1.92678 12.5303 2.21967L12.5311 2.22039Z" fill="#161721"/>
</svg>
