<svg width="16" height="16" viewBox="0 0 16 16" fill="none" xmlns="http://www.w3.org/2000/svg">
<path d="M7.62371 2.43004C7.82292 2.20238 8.17708 2.20238 8.37629 2.43004L10.7744 5.17075C11.0573 5.49404 10.8277 6 10.3981 6H5.60188C5.1723 6 4.94272 5.49404 5.2256 5.17075L7.62371 2.43004Z" fill="white"/>
<path fill-rule="evenodd" clip-rule="evenodd" d="M1 8.5C1 8.22386 1.22386 8 1.5 8H14.5C14.7761 8 15 8.22386 15 8.5C15 8.77614 14.7761 9 14.5 9H1.5C1.22386 9 1 8.77614 1 8.5Z" fill="white"/>
<path d="M8.37629 14.57C8.17708 14.7976 7.82292 14.7976 7.62371 14.57L5.2256 11.8293C4.94271 11.506 5.1723 11 5.60188 11L10.3981 11C10.8277 11 11.0573 11.506 10.7744 11.8293L8.37629 14.57Z" fill="white"/>
</svg>
