<svg width="24" height="25" viewBox="0 0 24 25" fill="none" xmlns="http://www.w3.org/2000/svg">
<path fill-rule="evenodd" clip-rule="evenodd" d="M21.4166 18.9656L13.1705 4.68278C12.9262 4.2596 12.4886 4.00696 11.9999 4.00696C11.5112 4.00696 11.0737 4.2596 10.8293 4.68278L2.58316 18.9656C2.33881 19.3887 2.33881 19.8941 2.58316 20.3172C2.82748 20.7404 3.26506 20.993 3.75373 20.993H20.2461C20.7347 20.993 21.1723 20.7404 21.4166 20.3172C21.661 19.8941 21.661 19.3887 21.4166 18.9656ZM11.4373 9.49997H12.5637V15.5074H11.4373V9.49997ZM12 18.1335C12.4147 18.1335 12.7509 17.7973 12.7509 17.3826C12.7509 16.9679 12.4147 16.6317 12 16.6317C11.5852 16.6317 11.249 16.9679 11.249 17.3826C11.249 17.7973 11.5852 18.1335 12 18.1335Z" fill="#EDBF1C"/>
</svg>
