<svg width="24" height="24" viewBox="0 0 24 24" fill="none" xmlns="http://www.w3.org/2000/svg">
<path fill-rule="evenodd" clip-rule="evenodd" d="M14.1739 4.58594L14.1856 4.60903L13.5148 4.94461L14.1628 4.56694L14.1739 4.58594ZM21.4542 17.0771L14.1739 4.58594C13.2611 2.80469 10.7337 2.80469 9.82094 4.58593L2.5406 17.0771C2.53266 17.0908 2.52515 17.1046 2.51809 17.1187C1.70367 18.7436 2.84358 20.75 4.706 20.75L19.2888 20.75C21.1413 20.75 22.3104 18.7643 21.4753 17.1159C21.4686 17.1028 21.4616 17.0898 21.4542 17.0771ZM12.8441 5.28018C12.4904 4.57327 11.5044 4.57327 11.1507 5.28018C11.1436 5.29445 11.136 5.30848 11.1279 5.32227L3.85001 17.8094C3.52524 18.489 4.02837 19.25 4.706 19.25L19.2888 19.25C19.9767 19.25 20.4767 18.4934 20.1457 17.811L12.8668 5.32227C12.8588 5.30848 12.8512 5.29445 12.8441 5.28018ZM12 9.16992C12.4142 9.16992 12.75 9.50571 12.75 9.91992V13.5799C12.75 13.9941 12.4142 14.3299 12 14.3299C11.5858 14.3299 11.25 13.9941 11.25 13.5799V9.91992C11.25 9.50571 11.5858 9.16992 12 9.16992ZM12.75 16.33C12.75 16.7442 12.4142 17.08 12 17.08C11.5858 17.08 11.25 16.7442 11.25 16.33C11.25 15.9157 11.5858 15.58 12 15.58C12.4142 15.58 12.75 15.9157 12.75 16.33Z" fill="#161721"/>
</svg>
