<svg width="24" height="24" viewBox="0 0 24 24" fill="none" xmlns="http://www.w3.org/2000/svg">
<path fill-rule="evenodd" clip-rule="evenodd" d="M2.20953 18.1367L10.3111 4.06268C11.0112 2.64577 12.983 2.64577 13.6831 4.06268L21.7847 18.1367C22.442 19.4503 21.5132 21 20.0987 21L3.89555 21C2.481 21 1.56655 19.4355 2.20953 18.1367ZM12 9.16998C12.4142 9.16998 12.75 9.50577 12.75 9.91998V13.58C12.75 13.9942 12.4142 14.33 12 14.33C11.5858 14.33 11.25 13.9942 11.25 13.58V9.91998C11.25 9.50577 11.5858 9.16998 12 9.16998ZM12 17.08C12.4142 17.08 12.75 16.7442 12.75 16.33C12.75 15.9157 12.4142 15.58 12 15.58C11.5858 15.58 11.25 15.9157 11.25 16.33C11.25 16.7442 11.5858 17.08 12 17.08Z" fill="#161721"/>
</svg>
