<svg width="16" height="16" viewBox="0 0 16 16" fill="none" xmlns="http://www.w3.org/2000/svg">
<path fill-rule="evenodd" clip-rule="evenodd" d="M15.2123 4.58909C14.9352 4.76364 14.6977 4.87273 14.2228 4.87273C13.7109 4.87273 13.4714 4.73254 13.1564 4.54811L13.1146 4.52364C12.7386 4.28364 12.2834 4 11.4324 4C10.5815 4 10.1065 4.28364 9.75031 4.52364L9.68148 4.56406C9.38188 4.74057 9.15754 4.87273 8.64208 4.87273C8.13017 4.87273 7.89072 4.73254 7.57569 4.54811L7.53385 4.52364C7.15785 4.28364 6.70268 4 5.85173 4C5.00077 4 4.52581 4.28364 4.1696 4.52364L4.10077 4.56406C3.80116 4.74057 3.57683 4.87273 3.06137 4.87273C2.54946 4.87273 2.31001 4.73254 1.99498 4.54811L1.95314 4.52364C1.6563 4.32727 1.30008 4.10909 0.726179 4.04364C0.686599 4.37091 0.666809 4.69818 0.666809 5.02546V5.35273C0.943866 5.41818 1.14176 5.52727 1.35945 5.65818C1.73546 5.89818 2.19062 6.18182 3.04158 6.18182C3.89254 6.18182 4.36749 5.89818 4.72371 5.65818L4.79254 5.61776C5.09214 5.44125 5.31648 5.30909 5.83194 5.30909C6.34385 5.30909 6.58329 5.44928 6.89832 5.63371L6.94016 5.65818C7.31617 5.89818 7.77133 6.18182 8.62229 6.18182C9.47325 6.18182 9.9482 5.89818 10.3044 5.65818L10.3732 5.61776C10.6729 5.44125 10.8972 5.30909 11.4126 5.30909C11.9246 5.30909 12.164 5.44928 12.479 5.63371L12.5209 5.65818C12.8969 5.89818 13.352 6.18182 14.203 6.18182C14.5988 6.18182 14.8956 6.11637 15.1529 6.02909C15.1925 5.70182 15.2123 5.35273 15.2123 5.02546V4.58909ZM15.2123 7.49818C14.9352 7.67272 14.6977 7.78181 14.2228 7.78181C13.7109 7.78181 13.4714 7.64163 13.1564 7.45719L13.1146 7.43272C12.7386 7.19272 12.2834 6.90908 11.4324 6.90908C10.5815 6.90908 10.1065 7.19272 9.75031 7.43272L9.68148 7.47314C9.38188 7.64965 9.15754 7.78181 8.64208 7.78181C8.13017 7.78181 7.89072 7.64163 7.57569 7.45719L7.53385 7.43272C7.15785 7.19272 6.70268 6.90908 5.85173 6.90908C5.00077 6.90908 4.52581 7.19272 4.1696 7.43272L4.10077 7.47314C3.80116 7.64965 3.57683 7.78181 3.06137 7.78181C2.54946 7.78181 2.31001 7.64163 1.99498 7.45719L1.95314 7.43272C1.6563 7.23636 1.30008 7.01818 0.726179 6.95272C0.686599 7.27999 0.666809 7.60727 0.666809 7.93454V8.26181C0.943866 8.32727 1.14176 8.43636 1.35945 8.56727C1.73546 8.80727 2.19062 9.0909 3.04158 9.0909C3.89254 9.0909 4.36749 8.80727 4.72371 8.56727L4.79254 8.52685C5.09214 8.35034 5.31648 8.21818 5.83194 8.21818C6.34385 8.21818 6.58329 8.35836 6.89832 8.5428L6.94016 8.56727C7.31617 8.80727 7.77133 9.0909 8.62229 9.0909C9.47325 9.0909 9.9482 8.80727 10.3044 8.56727L10.3732 8.52685C10.6729 8.35034 10.8972 8.21818 11.4126 8.21818C11.9246 8.21818 12.164 8.35836 12.479 8.5428L12.5209 8.56727C12.8969 8.80727 13.352 9.0909 14.203 9.0909C14.5988 9.0909 14.8956 9.02545 15.1529 8.93818C15.1925 8.6109 15.2123 8.26181 15.2123 7.93454V7.49818ZM14.2228 10.6909C14.6977 10.6909 14.9352 10.5818 15.2123 10.4073V10.8436C15.2123 11.1709 15.1925 11.52 15.1529 11.8473C14.8956 11.9346 14.5988 12 14.203 12C13.352 12 12.8969 11.7164 12.5209 11.4764C12.5068 11.4681 12.4928 11.46 12.479 11.4519C12.164 11.2675 11.9246 11.1273 11.4126 11.1273C10.8972 11.1273 10.6729 11.2594 10.3732 11.4359C10.3508 11.4492 10.3279 11.4627 10.3044 11.4764C9.9482 11.7164 9.47325 12 8.62229 12C7.77133 12 7.31617 11.7164 6.94016 11.4764C6.92605 11.4681 6.91212 11.46 6.89832 11.4519C6.58329 11.2675 6.34385 11.1273 5.83194 11.1273C5.31648 11.1273 5.09214 11.2594 4.79254 11.4359C4.77007 11.4492 4.74718 11.4627 4.72371 11.4764C4.36749 11.7164 3.89254 12 3.04158 12C2.19062 12 1.73546 11.7164 1.35945 11.4764C1.14176 11.3455 0.943866 11.2364 0.666809 11.1709L0.666809 10.8436C0.666809 10.5164 0.686599 10.1891 0.726179 9.86182C1.30008 9.92728 1.6563 10.1455 1.95314 10.3418C1.96725 10.3501 1.98119 10.3582 1.99498 10.3663C2.31001 10.5507 2.54946 10.6909 3.06137 10.6909C3.57683 10.6909 3.80116 10.5588 4.10077 10.3822C4.12324 10.369 4.14613 10.3555 4.1696 10.3418C4.52581 10.1018 5.00077 9.81819 5.85173 9.81819C6.70268 9.81819 7.15785 10.1018 7.53385 10.3418C7.54796 10.3501 7.5619 10.3582 7.57569 10.3663C7.89072 10.5507 8.13017 10.6909 8.64208 10.6909C9.15754 10.6909 9.38188 10.5588 9.68148 10.3822C9.70395 10.369 9.72684 10.3555 9.75031 10.3418C10.1065 10.1018 10.5815 9.81819 11.4324 9.81819C12.2834 9.81819 12.7386 10.1018 13.1146 10.3418C13.1287 10.3501 13.1426 10.3582 13.1564 10.3663C13.4714 10.5507 13.7109 10.6909 14.2228 10.6909Z" fill="#0C2739"/>
</svg>
