<svg width="20" height="20" viewBox="0 0 20 20" fill="none" xmlns="http://www.w3.org/2000/svg">
<path d="M15.5227 17H3.75C2.78464 17 2 16.2154 2 15.25V4.75C2 3.78464 2.78464 3 3.75 3H15.5227C16.4881 3 17.2727 3.78464 17.2727 4.75V15.25C17.2727 16.2154 16.4881 17 15.5227 17ZM3.75 3.95455C3.31155 3.95455 2.95455 4.31155 2.95455 4.75V15.25C2.95455 15.6885 3.31155 16.0455 3.75 16.0455H15.5227C15.9612 16.0455 16.3182 15.6885 16.3182 15.25V4.75C16.3182 4.31155 15.9612 3.95455 15.5227 3.95455H3.75Z" fill="#0C2739"/>
<path d="M16.7955 6.18183H2.47727C2.21382 6.18183 2 5.96801 2 5.70455C2 5.4411 2.21382 5.22728 2.47727 5.22728H16.7955C17.0589 5.22728 17.2727 5.4411 17.2727 5.70455C17.2727 5.96801 17.0589 6.18183 16.7955 6.18183Z" fill="#0C2739"/>
<circle cx="14.5" cy="14.5" r="4.5" fill="#0C2739"/>
<line x1="12.5" y1="14.5" x2="16.5" y2="14.5" stroke="white" stroke-linecap="round" stroke-linejoin="round"/>
</svg>
