<svg width="24" height="24" viewBox="0 0 24 24" fill="none" xmlns="http://www.w3.org/2000/svg">
<path d="M20 21H4C2.89543 21 2 20.1046 2 19V5C2 3.89543 2.89543 3 4 3H20C21.1046 3 22 3.89543 22 5V19C22 20.1046 21.1046 21 20 21ZM4 7C3.44772 7 3 7.44772 3 8V19C3 19.5523 3.44772 20 4 20H20C20.5523 20 21 19.5523 21 19V8C21 7.44772 20.5523 7 20 7H4ZM9.706 17.622L8.293 16.207L10.586 13.914L8.293 11.621L9.707 10.207L12 12.5L14.293 10.207L15.707 11.621L13.414 13.914L15.707 16.207L14.294 17.62L12 15.328L9.707 17.621L9.706 17.622Z" fill="#CB2431"/>
</svg>
