<svg width="24" height="24" viewBox="0 0 24 24" fill="none" xmlns="http://www.w3.org/2000/svg">
<path fill-rule="evenodd" clip-rule="evenodd" d="M11.6957 2.31449C11.8895 2.2285 12.1105 2.2285 12.3043 2.31449L21.3043 6.30919C21.5752 6.42943 21.7499 6.69794 21.75 6.99433C21.7501 7.29072 21.5757 7.5594 21.3049 7.67991L12.3049 11.5061C12.1108 11.5925 11.8892 11.5925 11.6951 11.5061L2.69506 7.67991C2.42427 7.5594 2.24985 7.29072 2.25 6.99433C2.25015 6.69794 2.42483 6.42943 2.69573 6.30919L11.6957 2.31449ZM4.84666 6.99561L12 10L19.1533 6.99561L12 3.82056L4.84666 6.99561Z" fill="#161721"/>
<path fill-rule="evenodd" clip-rule="evenodd" d="M2.58652 6.37427C2.79664 6.23543 3.06242 6.21131 3.2941 6.31007L12.2941 10.1466C12.5706 10.2644 12.75 10.5359 12.75 10.8365V22C12.75 22.2517 12.6237 22.4867 12.4138 22.6255C12.2038 22.7644 11.9382 22.7887 11.7066 22.6902L2.70656 18.8639C2.42973 18.7462 2.25 18.4745 2.25 18.1737V7C2.25 6.74815 2.3764 6.51312 2.58652 6.37427ZM3.75 8.13501V17.6776L11.25 20.8662V11.3321L3.75 8.13501Z" fill="#161721"/>
<path fill-rule="evenodd" clip-rule="evenodd" d="M21.4135 6.37427C21.6236 6.51312 21.75 6.74815 21.75 7V18.1737C21.75 18.4745 21.5703 18.7462 21.2934 18.8639L12.2934 22.6902C12.0618 22.7887 11.7962 22.7644 11.5862 22.6255C11.3763 22.4867 11.25 22.2517 11.25 22V10.8365C11.25 10.5359 11.4294 10.2644 11.7059 10.1466L20.7059 6.31007C20.9376 6.21131 21.2034 6.23543 21.4135 6.37427ZM12.75 11.3321V20.8662L20.25 17.6776V8.13501L12.75 11.3321Z" fill="#161721"/>
</svg>
