<svg width="24" height="24" viewBox="0 0 24 24" fill="none" xmlns="http://www.w3.org/2000/svg">
<path fill-rule="evenodd" clip-rule="evenodd" d="M20.1484 3.45602L23.732 7.03958L19.6924 11.0792L15.6528 7.03958L19.2344 3.45803V3.04858L4.15251 3.04857L4.15251 8.33455C5.82964 8.55786 7.12347 9.99388 7.12347 11.7321C7.12347 13.4702 5.8298 14.9061 4.15282 15.1296L4.15282 20.4156L19.2347 20.4156L19.2347 14.1207L16.5874 16.768C16.4089 16.9465 16.1195 16.9465 15.9411 16.768C15.7626 16.5896 15.7626 16.3002 15.9411 16.1217L19.3026 12.7602C19.3831 12.6298 19.5273 12.543 19.6917 12.543C19.8558 12.543 19.9997 12.6294 20.0803 12.7593L23.4427 16.1217C23.6212 16.3002 23.6212 16.5896 23.4427 16.768C23.2642 16.9465 22.9749 16.9465 22.7964 16.768L20.1487 14.1204L20.1487 21.3296L3.23877 21.3296L3.23877 15.1296C1.56176 14.9062 0.268066 13.4702 0.268066 11.7321C0.268066 9.99407 1.5616 8.55819 3.23845 8.33462L3.23845 2.13452L20.1484 2.13452V3.45602ZM3.69577 14.0172C4.95781 14.0172 5.9809 12.9941 5.9809 11.7321C5.9809 10.47 4.95781 9.44695 3.69577 9.44695C2.43372 9.44695 1.41063 10.47 1.41063 11.7321C1.41063 12.9941 2.43372 14.0172 3.69577 14.0172ZM19.6924 9.46333L17.2687 7.03958L19.6924 4.61583L22.1162 7.03958L19.6924 9.46333Z" fill="#0C2739"/>
</svg>
