<svg width="18" height="20" viewBox="0 0 18 20" fill="none" xmlns="http://www.w3.org/2000/svg">
<path fill-rule="evenodd" clip-rule="evenodd" d="M7.8245 1.20381C8.18309 1.00435 8.58846 0.899994 9.0001 0.899994C9.41172 0.899994 9.81707 1.00434 10.1756 1.20378L10.1767 1.20436L16.71 4.80509C17.0686 5.00477 17.3687 5.29316 17.5784 5.64308C17.7882 5.99316 17.8997 6.39176 17.9001 6.79872V14.0007C17.8997 14.4077 17.7882 14.8068 17.5784 15.1569C17.3687 15.5068 17.0686 15.7952 16.71 15.9949L16.7081 15.996L10.1767 19.5956L10.1757 19.5962C9.81711 19.7956 9.41175 19.9 9.0001 19.9C8.58843 19.9 8.18305 19.7956 7.82444 19.5961L7.82351 19.5956L1.29209 15.996L1.29018 15.9949C0.931592 15.7952 0.631506 15.5068 0.421787 15.1569C0.211978 14.8068 0.100531 14.4082 0.100098 14.0013V6.79926C0.10053 6.39229 0.211978 5.99316 0.421787 5.64308C0.631506 5.29316 0.931592 5.00477 1.29018 4.8051L1.29209 4.80403L7.82351 1.20436L7.8245 1.20381ZM9.0001 1.89999C8.75678 1.89999 8.51872 1.96182 8.31002 2.07804L8.30811 2.0791L1.77668 5.67878C1.73063 5.70447 1.68636 5.7326 1.64408 5.76297L9.00011 9.44099L16.3562 5.76293C16.3142 5.73277 16.2702 5.70481 16.2244 5.67925L9.69209 2.0791L9.69018 2.07804C9.48148 1.96182 9.24342 1.89999 9.0001 1.89999ZM1.1001 6.79956C1.10017 6.73799 1.10485 6.67665 1.11403 6.61598L8.5 10.309V18.8098C8.43456 18.7853 8.37104 18.7559 8.31002 18.7219L1.77668 15.1212L1.77568 15.1207C1.56774 15.0046 1.39726 14.8393 1.27954 14.6428C1.16175 14.4463 1.10038 14.2248 1.1001 14.0004V6.79956ZM9.5 18.8098C9.56551 18.7853 9.6291 18.756 9.69018 18.722L9.69209 18.7209L16.2235 15.1212L16.2245 15.1207C16.4324 15.0046 16.6029 14.8393 16.7207 14.6428C16.8385 14.4462 16.8999 14.2247 16.9001 14.0002V6.79979C16.9 6.73815 16.8954 6.67673 16.8862 6.61599L9.5 10.3091V18.8098Z" fill="#0C2739"/>
</svg>
