<svg width="24" height="24" viewBox="0 0 24 24" fill="none" xmlns="http://www.w3.org/2000/svg">
<path d="M20.8321 6.86697C20.724 6.46743 20.5131 6.10319 20.2204 5.81052C19.9277 5.51784 19.5635 5.30696 19.1639 5.19886C17.7011 4.79999 11.8144 4.79999 11.8144 4.79999C11.8144 4.79999 5.92748 4.81209 4.46491 5.21096C4.06539 5.31908 3.70115 5.52997 3.40848 5.82264C3.11581 6.11531 2.90492 6.47955 2.7968 6.87908C2.35435 9.47808 2.1827 13.4381 2.80891 15.933C2.91702 16.3325 3.12792 16.6968 3.42059 16.9894C3.71326 17.2821 4.07749 17.493 4.47702 17.6011C5.9397 18 11.8265 18 11.8265 18C11.8265 18 17.7133 18 19.176 17.6011C19.5755 17.493 19.9398 17.2821 20.2324 16.9894C20.5251 16.6968 20.736 16.3325 20.8441 15.933C21.3107 13.3304 21.4545 9.37283 20.832 6.86709L20.8321 6.86697Z" fill="#878D95"/>
<path d="M10.269 13.8297L15.1526 11.0012L10.269 8.17255V13.8297Z" fill="white"/>
</svg>
