<svg width="24" height="24" viewBox="0 0 24 24" fill="none" xmlns="http://www.w3.org/2000/svg">
<path d="M21.0074 7.46689C20.8993 7.06735 20.6884 6.7031 20.3957 6.41043C20.103 6.11776 19.7388 5.90687 19.3392 5.79877C17.8764 5.3999 11.9897 5.3999 11.9897 5.3999C11.9897 5.3999 6.10278 5.41201 4.64021 5.81088C4.24068 5.91899 3.87644 6.12989 3.58377 6.42256C3.2911 6.71523 3.08021 7.07946 2.97209 7.47899C2.52965 10.078 2.35799 14.038 2.9842 16.5329C3.09231 16.9324 3.30321 17.2967 3.59588 17.5894C3.88855 17.882 4.25278 18.0929 4.65231 18.201C6.115 18.5999 12.0018 18.5999 12.0018 18.5999C12.0018 18.5999 17.8886 18.5999 19.3513 18.201C19.7508 18.0929 20.1151 17.882 20.4077 17.5894C20.7004 17.2967 20.9113 16.9324 21.0194 16.5329C21.486 13.9303 21.6298 9.97275 21.0073 7.467L21.0074 7.46689Z" fill="currentColor"/>
<path d="M10.4443 15.0571L15.3279 12.2285L10.4443 9.3999V15.0571Z" fill="white"/>
</svg>
