<svg width="24" height="24" viewBox="0 0 24 24" fill="none" xmlns="http://www.w3.org/2000/svg">
<path fill-rule="evenodd" clip-rule="evenodd" d="M3.5 10.97C3.5 6.84421 6.84421 3.5 10.97 3.5C15.0958 3.5 18.44 6.84421 18.44 10.97C18.44 15.0958 15.0958 18.44 10.97 18.44C6.84421 18.44 3.5 15.0958 3.5 10.97ZM10.97 2C6.01579 2 2 6.01579 2 10.97C2 15.9242 6.01579 19.94 10.97 19.94C13.1771 19.94 15.1979 19.143 16.7604 17.8211L20.7197 21.7803C21.0126 22.0732 21.4874 22.0732 21.7803 21.7803C22.0732 21.4875 22.0732 21.0126 21.7803 20.7197L17.8211 16.7604C19.143 15.1979 19.94 13.1771 19.94 10.97C19.94 6.01579 15.9242 2 10.97 2Z" fill="#161721"/>
<path d="M10.5544 10.4853H6.74442C6.33022 10.4883 5.99694 10.8154 6.00002 11.2296C6.0031 11.6438 6.34138 11.9883 6.75558 11.9852H10.5433H12.0434H15.8534C16.2676 11.9821 16.6009 11.6438 16.5978 11.2296C16.5947 10.8154 16.2565 10.4822 15.8423 10.4853H12.0546H10.5544Z" fill="#161721"/>
</svg>
