<?xml version="1.0" standalone="no"?>
<!DOCTYPE svg PUBLIC "-//W3C//DTD SVG 1.1//EN" "http://www.w3.org/Graphics/SVG/1.1/DTD/svg11.dtd" >
<!--
2024-11-12: Created with FontForge (http://fontforge.org)
-->
<svg xmlns="http://www.w3.org/2000/svg" xmlns:xlink="http://www.w3.org/1999/xlink" version="1.1">
<metadata>
Created by FontForge 20230101 at Tue Nov 12 04:25:59 2024
 By Anka
Copyright (c) 2024, Anka
</metadata>
<defs>
<font id="Swimm-Regular" horiz-adv-x="1024" >
  <font-face 
    font-family="Swimm"
    font-weight="400"
    font-stretch="normal"
    units-per-em="1024"
    panose-1="2 0 5 9 0 0 0 0 0 0"
    ascent="960"
    descent="-64"
    bbox="-3.12341e-05 -64.0212 1024 960.005"
    underline-thickness="50"
    underline-position="-100"
    unicode-range="U+E900-EA0A"
  />
    <missing-glyph />
    <glyph glyph-name="Text" unicode="&#xe900;" 
d="M254.27 789.333h515.463l49.958 -149.881c5.58984 -16.7656 -3.47266 -34.8877 -20.2363 -40.4766c-16.7686 -5.58887 -34.8887 3.47266 -40.4785 20.2383l-35.3701 106.119h-179.605v-554.666h117.333c17.6729 0 32 -14.3281 32 -32c0 -17.6729 -14.3271 -32 -32 -32
h-298.665c-17.6738 0 -32 14.3271 -32 32c0 17.6719 14.3262 32 32 32h117.332v554.666h-179.602l-35.373 -106.119c-5.58887 -16.7656 -23.7109 -25.8271 -40.4775 -20.2383c-16.7656 5.58887 -25.8271 23.7109 -20.2383 40.4766z" />
    <glyph glyph-name="add" unicode="&#xe901;" 
d="M546.718 812.512l-2.47461 -329.803h332.275c17.6729 0.132812 32.1064 -14.0879 32.2393 -31.7607c0.131836 -17.6729 -14.0889 -32.1025 -31.7617 -32.2344h-333.227l-2.4834 -335.71c-0.131836 -17.6729 -14.5615 -31.8936 -32.2344 -31.7617
c-17.6729 0.132812 -31.8936 14.5664 -31.7607 32.2393l2.46973 335.232h-332.272c-17.6729 -0.132812 -32.1055 14.5615 -32.2373 32.2344s14.0879 31.6289 31.7607 31.7607h333.228l2.47852 330.279c0.132812 17.6729 14.5664 31.8926 32.2393 31.7607
c17.6719 -0.131836 31.8936 -14.5645 31.7607 -32.2373z" />
    <glyph glyph-name="align-center" unicode="&#xe902;" 
d="M704 320c0 -35.4004 -28.5996 -64 -64 -64h-384c-35.4004 0 -64 28.5996 -64 64s28.5996 64 64 64h384c35.4004 0 64 -28.5996 64 -64zM0 64c0 35.4004 28.5996 64 64 64h768c35.4004 0 64 -28.5996 64 -64s-28.5996 -64 -64 -64h-768c-35.4004 0 -64 28.5996 -64 64z
M896 576c0 -35.4004 -28.5996 -64 -64 -64h-768c-35.4004 0 -64 28.5996 -64 64s28.5996 64 64 64h768c35.4004 0 64 -28.5996 64 -64zM704 832c0 -35.4004 -28.5996 -64 -64 -64h-384c-35.4004 0 -64 28.5996 -64 64s28.5996 64 64 64h384c35.4004 0 64 -28.5996 64 -64z
" />
    <glyph glyph-name="align-left" unicode="&#xe903;" 
d="M896 64c0 -35.4004 -28.5996 -64 -64 -64h-768c-35.4004 0 -64 28.5996 -64 64s28.5996 64 64 64h768c35.4004 0 64 -28.5996 64 -64zM0 576c0 35.4004 28.5996 64 64 64h768c35.4004 0 64 -28.5996 64 -64s-28.5996 -64 -64 -64h-768c-35.4004 0 -64 28.5996 -64 64z
M576 320c0 -35.4004 -28.5996 -64 -64 -64h-448c-35.4004 0 -64 28.5996 -64 64s28.5996 64 64 64h448c35.4004 0 64 -28.5996 64 -64zM576 832c0 -35.4004 -28.5996 -64 -64 -64h-448c-35.4004 0 -64 28.5996 -64 64s28.5996 64 64 64h448c35.4004 0 64 -28.5996 64 -64z
" />
    <glyph glyph-name="align-right" unicode="&#xe904;" 
d="M896 64c0 -35.4004 -28.5996 -64 -64 -64h-768c-35.4004 0 -64 28.5996 -64 64s28.5996 64 64 64h768c35.4004 0 64 -28.5996 64 -64zM0 576c0 35.4004 28.5996 64 64 64h768c35.4004 0 64 -28.5996 64 -64s-28.5996 -64 -64 -64h-768c-35.4004 0 -64 28.5996 -64 64z
M896 320c0 -35.4004 -28.5996 -64 -64 -64h-448c-35.4004 0 -64 28.5996 -64 64s28.5996 64 64 64h448c35.4004 0 64 -28.5996 64 -64zM896 832c0 -35.4004 -28.5996 -64 -64 -64h-448c-35.4004 0 -64 28.5996 -64 64s28.5996 64 64 64h448c35.4004 0 64 -28.5996 64 -64z
" />
    <glyph glyph-name="arrow-down" unicode="&#xe905;" 
d="M825.054 572.768l-281.6 -307.202c-8.08594 -8.81445 -19.4951 -13.832 -31.4541 -13.832s-23.3682 5.01758 -31.4541 13.832l-281.598 307.202c-15.9229 17.3701 -14.749 44.3604 2.62109 60.2832s44.3594 14.749 60.2822 -2.62109l250.148 -272.888l250.146 272.888
c15.9229 17.3701 42.9141 18.5439 60.2832 2.62109c17.3701 -15.9229 18.543 -42.9131 2.62402 -60.2832z" />
    <glyph glyph-name="arrow-left" unicode="&#xe906;" 
d="M636.766 134.946l-307.198 281.6c-8.81641 8.08594 -13.8359 19.4951 -13.8359 31.4541s5.01953 23.3682 13.8359 31.4541l307.198 281.598c17.374 15.9229 44.3604 14.749 60.2842 -2.62109c15.9229 -17.3701 14.75 -44.3594 -2.62012 -60.2822l-272.889 -250.148
l272.889 -250.146c17.3701 -15.9229 18.543 -42.9141 2.62012 -60.2832c-15.9238 -17.3701 -42.9102 -18.543 -60.2842 -2.62402z" />
    <glyph glyph-name="arrow-more" unicode="&#xe907;" 
d="M485.333 352.515c9.36621 10.2168 8.67578 26.0928 -1.54199 35.459s-26.0938 8.67676 -35.46 -1.54102l-147.146 -160.526l-147.146 160.526c-9.36621 10.2178 -25.2432 10.9072 -35.4609 1.54102c-10.2168 -9.36621 -10.9082 -25.2422 -1.54199 -35.459
l165.647 -180.705c4.75391 -5.18652 11.4668 -8.13867 18.501 -8.13867c7.03516 0 13.748 2.95215 18.502 8.13867zM101.966 577.17c-9.36621 -10.2168 -8.67578 -26.0938 1.54199 -35.46s26.0938 -8.67676 35.46 1.54199l147.146 160.522l147.146 -160.523
c9.36621 -10.2178 25.2432 -10.9072 35.4609 -1.54102s10.9082 25.2432 1.54199 35.46l-165.647 180.706c-4.75391 5.18555 -11.4658 8.13867 -18.501 8.13867s-13.748 -2.95312 -18.502 -8.13867z" />
    <glyph glyph-name="arrow-next-down" unicode="&#xe908;" 
d="M269.92 331.959l210.08 -210.082v733.415c0 17.6729 14.3271 32 32 32s32 -14.3271 32 -32v-733.41l210.082 210.077c12.4971 12.4971 32.7549 12.4971 45.252 0s12.4971 -32.7549 0 -45.252l-264.708 -264.708c-6.24609 -6.25098 -14.4336 -9.37402 -22.626 -9.37402
c-8.1875 0 -16.3799 3.12305 -22.626 9.37402l-264.709 264.708c-12.4971 12.4971 -12.4971 32.7549 0 45.252s32.7578 12.4971 45.2549 0z" />
    <glyph glyph-name="arrow-next-up" unicode="&#xe909;" 
d="M754.082 567.957l-210.082 210.081v-733.413c0 -17.6729 -14.3271 -32 -32 -32s-32 14.3271 -32 32v733.412l-210.08 -210.08c-12.4971 -12.4971 -32.7578 -12.4971 -45.2549 0s-12.4971 32.7578 0 45.2549l264.709 264.708
c6.24609 6.24805 14.4385 9.37207 22.626 9.37207c8.19238 0 16.3799 -3.12402 22.626 -9.37207l264.708 -264.708c12.4971 -12.4971 12.4971 -32.7578 0 -45.2549s-32.7549 -12.4971 -45.252 0z" />
    <glyph glyph-name="arrow-next" unicode="&#xe90a;" 
d="M661.997 203.955l210.08 210.081h-733.412c-17.6729 0 -31.999 14.3271 -31.999 32s14.3262 32 31.999 32h733.412l-210.08 210.08c-12.499 12.4971 -12.499 32.7588 0 45.2549c12.499 12.4971 32.7549 12.4971 45.2539 0l264.711 -264.707
c1.1709 -1.17383 2.2334 -2.41602 3.18652 -3.71289c7.92969 -10.7939 8.23047 -25.4346 0.90918 -36.5234c-1.1709 -1.77344 -2.53418 -3.45703 -4.0957 -5.01953l-264.711 -264.707c-12.499 -12.5 -32.7549 -12.5 -45.2539 0c-12.499 12.499 -12.499 32.7549 0 45.2539z
" />
    <glyph glyph-name="arrow-right" unicode="&#xe90b;" 
d="M387.232 761.052l307.202 -281.598c8.81445 -8.08594 13.832 -19.4951 13.832 -31.4541s-5.01758 -23.3682 -13.832 -31.4541l-307.202 -281.6c-17.3701 -15.9189 -44.3604 -14.7461 -60.2832 2.62402c-15.9229 17.3691 -14.749 44.3604 2.62109 60.2832l272.888 250.146
l-272.888 250.148c-17.3701 15.9229 -18.5439 42.9121 -2.62109 60.2822c15.9238 17.3701 42.9131 18.5439 60.2832 2.62109z" />
    <glyph glyph-name="arrow-up" unicode="&#xe90c;" 
d="M198.948 323.234l281.598 307.198c8.08594 8.81641 19.4951 13.8359 31.4541 13.8359s23.3682 -5.01953 31.4541 -13.8359l281.6 -307.198c15.9189 -17.374 14.7461 -44.3604 -2.62402 -60.2842c-17.3691 -15.9229 -44.3604 -14.75 -60.2832 2.62012l-250.146 272.889
l-250.148 -272.889c-15.9229 -17.3701 -42.9121 -18.543 -60.2822 -2.62012c-17.3701 15.9238 -18.5439 42.9102 -2.62109 60.2842z" />
    <glyph glyph-name="ask" unicode="&#xe90d;" 
d="M896.896 198.688v21.8105c-5.97168 0 -11.9365 0.626953 -17.9014 1.24805c-32.8252 3.7373 -63.2578 18.0732 -86.5283 40.5117l-0.594727 0.62793l-0.601562 0.620117c-27.4502 26.8037 -42.3682 63.5762 -42.3682 101.597h-22.6748
c0 -38.0205 -14.9189 -74.793 -42.3682 -101.597l-0.595703 -0.620117l-0.594727 -0.62793c-27.4502 -26.7969 -65.6426 -41.7598 -104.432 -41.7598v-21.8105c38.7891 0 76.9814 -14.9639 104.432 -41.7607l0.594727 -0.626953l0.595703 -0.621094
c27.4492 -26.8027 42.3682 -63.5771 42.3682 -101.594h22.6748c0 38.0166 14.918 74.791 42.3682 101.594l0.601562 0.621094l0.594727 0.626953c23.2705 23.0596 54.3047 36.7744 86.5283 40.5127c5.96484 0.620117 11.9297 1.24805 17.9014 1.24805zM892.717 447.377
v0.623047h131.283v-469.331h-130.688v58.5859c-38.7832 -32.4102 -91.2959 -49.8633 -153.958 -49.8633h-1.19043c-137.249 0 -226.163 82.8994 -226.163 223.757c0.59668 140.865 89.5107 224.386 226.163 224.386h0.595703
c62.6553 -0.623047 115.174 -18.0752 153.958 -50.4863v62.3291zM474.968 361.375c9.25977 7.75684 21.4121 18.1006 37.0371 26.5049c-32.4072 -38.7881 -52.6621 -89.8574 -59.0283 -149.979c-9.83789 -1.93848 -20.833 -3.23145 -32.9863 -3.23145
c-26.6211 0 -48.0322 5.81738 -67.1299 15.5137c-17.3613 9.0498 -30.6719 20.0381 -40.5098 28.4414c-0.579102 0 -0.579102 0.646484 -1.15723 0.646484c-10.417 9.05566 -16.7832 14.2275 -24.3066 18.1055c-6.36523 3.87891 -15.625 6.46387 -29.5137 6.46387
s-23.1484 -3.23145 -29.5137 -6.46387c-7.52441 -3.87793 -13.8896 -9.0498 -24.3057 -18.1055c-0.580078 0 -0.580078 -0.646484 -1.1582 -0.646484c-9.25879 -8.40332 -23.1484 -19.3916 -40.5098 -28.4414c-19.0977 -9.69629 -40.5088 -15.5137 -67.1299 -15.5137
c-19.6758 0 -37.0371 2.58594 -52.084 8.40332v115.716c9.25977 -7.75684 15.625 -12.9287 22.5693 -16.1611c6.36621 -3.87891 15.625 -6.46484 29.5146 -6.46484c13.8887 0 23.1484 3.23242 29.5146 6.46484c7.52246 3.87891 13.8887 9.05078 24.3057 18.1006
c0.578125 0 0.578125 0.647461 1.15723 0.647461c9.25879 8.40332 23.1475 19.3926 40.5088 28.4443c19.0977 9.69629 40.5107 15.5146 67.1309 15.5146s48.0332 -5.81836 67.1299 -15.5146c17.3613 -9.05176 30.6719 -20.041 40.5098 -28.4443
c0.579102 0 0.579102 -0.647461 1.15723 -0.647461c10.418 -9.0498 16.7832 -14.2217 24.3066 -18.1006c6.36523 -3.87891 15.625 -6.46484 29.5137 -6.46484c13.8896 0 23.1484 3.23242 29.5146 6.46484c7.52344 3.87891 13.8887 9.05078 24.3057 18.1006
c0.578125 0 0.578125 0.647461 1.15723 0.647461zM163.719 506.183c-18.8037 -9.05078 -41.1328 -14.8691 -68.1621 -15.5146c-19.9795 0 -37.6074 2.58496 -52.8848 8.40332v115.717c9.40137 -7.75684 15.8652 -12.9287 22.917 -16.1611
c6.46289 -3.87891 15.8652 -6.46484 29.9678 -6.46484s23.5039 3.23242 29.9678 6.46484c7.63867 3.87891 14.1025 9.05078 24.6787 18.1006c0.587891 0 0.587891 0.646484 1.17578 0.646484c9.40234 8.4043 23.5039 19.3945 41.1328 28.4453
c19.3906 9.69629 41.1318 15.5146 68.1611 15.5146c27.0303 0 48.7715 -5.81836 68.1631 -15.5146c17.6279 -9.05078 31.1426 -20.041 41.1318 -28.4453c0.587891 0 0.587891 -0.646484 1.1748 -0.646484c10.5781 -9.0498 17.041 -14.2217 24.6797 -18.1006
c6.46387 -3.87891 15.8652 -6.46484 29.9688 -6.46484c14.1025 0 23.5039 3.23242 29.9668 6.46484c7.63965 3.87891 14.1035 9.05078 24.6797 18.1006c0.587891 0 0.587891 0.646484 1.17578 0.646484c9.40137 8.4043 23.5039 19.3945 41.1318 28.4453
c19.3916 9.69629 41.1328 15.5146 68.1621 15.5146c27.0303 0 48.7715 -5.81836 68.165 -15.5146c17.625 -9.05078 31.1426 -20.041 41.1328 -28.4453c0.582031 0 0.582031 -0.646484 1.1709 -0.646484c10.5791 -9.0498 17.043 -14.2217 24.6787 -18.1006
c6.46387 -3.87891 15.8652 -6.46484 29.9707 -6.46484c14.0996 0 23.501 3.23242 29.9648 6.46484c7.6416 3.87891 14.1055 9.05078 24.6787 18.1006v-116.363c-15.8594 -6.46484 -33.4912 -9.69629 -54.6436 -9.69629c-27.0332 0 -48.7744 5.81738 -68.1602 15.5146
c-17.6318 9.05078 -31.1484 20.04 -41.1328 28.4443c-0.588867 0 -0.588867 0.646484 -1.17676 0.646484c-10.5781 9.05078 -17.042 14.2227 -24.6797 18.1006c-6.46484 3.87891 -15.8662 6.46582 -29.9688 6.46582s-23.5039 -3.2334 -29.9678 -6.46582
c-7.63867 -3.87793 -14.1025 -9.0498 -24.6787 -18.1006c-0.587891 0 -0.587891 -0.646484 -1.17578 -0.646484c-9.40137 -8.4043 -23.5039 -19.3936 -41.1318 -28.4443c-19.3916 -9.69727 -41.1328 -15.5146 -68.1621 -15.5146
c-27.0303 0 -48.7715 5.81738 -68.1631 15.5146c-17.6279 9.05078 -31.1426 20.04 -41.1318 28.4443c-0.587891 0 -0.587891 0.646484 -1.1748 0.646484c-10.5771 9.05078 -17.041 14.2227 -24.6797 18.1006c-6.46387 3.87891 -15.8662 6.46582 -29.9688 6.46582
c-14.1016 0 -23.5039 -3.2334 -29.9678 -6.46582c-7.63867 -3.87793 -14.1025 -9.0498 -24.6787 -18.1006c-0.587891 0 -0.587891 -0.646484 -1.1748 -0.646484c-9.40234 -8.4043 -23.5049 -19.3936 -41.1328 -28.4443zM163.719 762.183
c-18.8037 -9.69727 -41.1328 -15.5146 -68.1621 -15.5146c-19.9795 0 -37.6074 2.58496 -52.8848 8.40332v115.717c9.40137 -7.75684 15.8652 -12.9287 22.917 -16.1611c6.46289 -3.87891 15.8652 -6.46484 29.9678 -6.46484s23.5039 3.23242 29.9678 6.46484
c7.63867 3.87891 14.1025 9.05078 24.6787 18.1006c0.587891 0 0.587891 0.646484 1.17578 0.646484c9.40234 8.4043 23.5039 19.3945 41.1328 28.4443c19.3906 9.69727 41.1318 15.5156 68.1611 15.5156c27.0303 0 48.7715 -5.81836 68.1631 -15.5156
c17.6279 -9.0498 31.1426 -20.04 41.1318 -28.4443c0.587891 0 0.587891 -0.646484 1.1748 -0.646484c10.5781 -9.0498 17.041 -14.2217 24.6797 -18.1006c6.46387 -3.87891 15.8652 -6.46484 29.9688 -6.46484c14.1025 0 23.5039 3.23242 29.9668 6.46484
c7.63965 3.87891 14.1035 9.05078 24.6797 18.1006c0.587891 0 0.587891 0.646484 1.17578 0.646484c9.40137 8.4043 23.5039 19.3945 41.1318 28.4443c19.3916 9.69727 41.1328 15.5156 68.1621 15.5156c27.0303 0 48.7715 -5.81836 68.165 -15.5156
c17.625 -9.0498 31.1426 -20.04 41.1328 -28.4443c0.582031 0 0.582031 -0.646484 1.1709 -0.646484c10.5791 -9.0498 17.043 -14.2217 24.6787 -18.1006c6.46387 -3.87891 15.8652 -6.46484 29.9707 -6.46484c14.0996 0 23.501 3.23242 29.9648 6.46484
c7.6416 3.87891 14.1055 9.05078 24.6787 18.1006v-116.363c-15.8594 -6.46484 -33.4912 -9.69629 -54.6436 -9.69629c-27.0332 0 -48.7744 5.81738 -68.1602 15.5146c-17.6318 9.05078 -31.1484 20.04 -41.1328 28.4443c-0.588867 0 -0.588867 0.646484 -1.17676 0.646484
c-10.5781 9.05078 -17.042 14.2227 -24.6797 18.1006c-6.46484 3.87891 -15.8662 6.46582 -29.9688 6.46582s-23.5039 -3.2334 -29.9678 -6.46582c-7.63867 -3.87793 -14.1025 -9.0498 -24.6787 -18.1006c-0.587891 0 -0.587891 -0.646484 -1.17578 -0.646484
c-9.40137 -8.4043 -23.5039 -19.3936 -41.1318 -28.4443c-19.3916 -9.69727 -41.1328 -15.5146 -68.1621 -15.5146c-27.0303 0 -48.7715 5.81738 -68.1631 15.5146c-17.6279 9.05078 -31.1426 20.04 -41.1318 28.4443c-0.587891 0 -0.587891 0.646484 -1.1748 0.646484
c-10.5771 9.05078 -17.041 14.2227 -24.6797 18.1006c-6.46387 3.87891 -15.8662 6.46582 -29.9688 6.46582c-14.1016 0 -23.5039 -3.2334 -29.9678 -6.46582c-7.63867 -3.87793 -14.1025 -9.0498 -24.6787 -18.1006c-0.587891 0 -0.587891 -0.646484 -1.1748 -0.646484
c-9.40234 -8.4043 -23.5049 -19.3936 -41.1328 -28.4443z" />
    <glyph glyph-name="assign" unicode="&#xe90e;" 
d="M150.076 244.592c46.4121 44.8301 109.359 70.0156 174.995 70.0156h426.43c65.6348 0 128.583 -25.1855 174.995 -70.0156c46.416 -44.8311 72.4814 -105.633 72.4814 -169.032v-9.88477c0 -18.2793 -15.3418 -33.0986 -34.2676 -33.0986
c-18.916 0 -34.2617 14.8193 -34.2617 33.0986v9.88477c0 45.8418 -18.8535 89.8066 -52.4131 122.223c-33.5586 32.416 -79.0752 50.627 -126.534 50.627h-426.43c-47.459 0 -92.9756 -18.2109 -126.534 -50.627c-33.5596 -32.416 -52.4131 -76.3809 -52.4131 -122.223
v-102.975c0 -18.2832 -15.3418 -33.1035 -34.2666 -33.1035s-34.2666 14.8203 -34.2666 33.1035v102.975c0 63.3994 26.0742 124.201 72.4854 169.032zM290.805 693.406c0 132.022 110.802 239.048 247.481 239.048s247.481 -107.025 247.481 -239.048
s-110.802 -239.048 -247.481 -239.048s-247.481 107.025 -247.481 239.048zM538.286 866.257c-98.8301 0 -178.948 -77.3877 -178.948 -172.851s80.1182 -172.851 178.948 -172.851s178.947 77.3877 178.947 172.851s-80.1172 172.851 -178.947 172.851z" />
    <glyph glyph-name="assignment-complete" unicode="&#xe90f;" 
d="M330.667 682.667c-53.0195 0 -96 -42.9814 -96 -96v-341.334c0 -53.0176 42.9805 -96 96 -96h341.333c53.0176 0 96 42.9824 96 96v222.669c0 17.6729 14.3271 32 32 32s32 -14.3271 32 -32v-222.669c0 -88.3662 -71.6328 -160 -160 -160h-341.333
c-88.3662 0 -160 71.6338 -160 160v341.334c0 88.3652 71.6338 160 160 160h256c17.6719 0 32 -14.3271 32 -32s-14.3281 -32 -32 -32h-256zM918.626 724.039l-426.274 -426.277c-0.652344 -0.673828 -1.34375 -1.32227 -2.06445 -1.94922
c-2.79492 -2.42773 -5.90918 -4.28809 -9.19922 -5.58496c-4.52246 -1.78809 -9.32715 -2.48828 -14.041 -2.14648c-4.67285 0.333008 -9.28516 1.68555 -13.4785 4.06152c-3.10645 1.75781 -5.96094 4.0625 -8.41016 6.89062
c-0.623047 0.712891 -1.20703 1.45117 -1.75293 2.20605l-127.672 170.228c-10.6045 14.1396 -7.73828 34.1973 6.40039 44.7998c14.1377 10.6025 34.1953 7.74023 44.7998 -6.40039l105.86 -141.149l400.58 400.577c12.4971 12.4971 32.7549 12.4971 45.252 0
s12.4971 -32.7578 0 -45.2549z" />
    <glyph glyph-name="azure" unicode="&#xe910;" 
d="M938.667 717.846v-522.001l-204.587 -174.512l-330.693 108.83v-108.83l-212.64 264.128v-0.0507812l-105.414 30.4854v243.421l79.8672 105.624l298.881 121.764v87.9629l262.08 -192.064l-535.414 -104.102v-293.04l535.414 -64.0205v461.162v0.0263672z" />
    <glyph glyph-name="back-browsing" unicode="&#xe911;" 
d="M394.002 692.039l-210.081 -210.081h733.412c17.6729 0 32 -14.3271 32 -32c0 -17.6719 -14.3271 -32 -32 -32h-733.411l210.08 -210.082c12.4971 -12.4922 12.4971 -32.7549 0 -45.252s-32.7578 -12.4971 -45.2549 0l-264.708 264.708
c-6.24805 6.24707 -9.37207 14.4385 -9.37207 22.626c0 8.19238 3.12402 16.3799 9.37207 22.627l264.708 264.709c12.4971 12.4971 32.7578 12.4971 45.2549 0c12.4971 -12.4961 12.4971 -32.7578 0 -45.2549z" />
    <glyph glyph-name="bell" unicode="&#xe912;" 
d="M512 85.333c43.7764 0 80.917 28.0664 94.1953 67.4141h-188.334c13.3369 -39.1855 50.4736 -67.4141 94.1387 -67.4141zM512 766.72c-1.67285 0 -3.31055 0.12793 -4.91504 0.375c-125.514 -2.62109 -226.338 -105.412 -226.338 -231.201v-219.307
c0 -17.6729 -14.3262 -32 -32 -32h-21.7588c-18.5938 0 -33.707 -15.1123 -33.707 -33.707c0 -18.5938 15.1133 -33.707 33.707 -33.707h570.025c18.5938 0 33.7061 15.1133 33.7061 33.707c0 18.5947 -15.1123 33.707 -33.7061 33.707h-21.7607
c-17.6719 0 -32 14.3271 -32 32v219.307c0 64.1543 -25.834 121.755 -67.75 163.298l-0.102539 0.101562c-40.9688 40.9678 -96.7598 66.5127 -158.485 67.8018c-1.60449 -0.24707 -3.24219 -0.375 -4.91504 -0.375zM512 874.667c17.6729 0 32 -14.3271 32 -32v-13.2422
c68.5996 -7.42383 130.197 -38.4424 176.602 -84.8252c53.6279 -53.1738 86.6514 -126.966 86.6514 -208.706v-187.836c49.1357 -5.12402 87.4668 -46.6943 87.4668 -97.1777c0 -53.9395 -43.7676 -97.707 -97.7061 -97.707h-124.625
c-14.6816 -75.4258 -80.9941 -131.84 -160.389 -131.84c-79.4072 0 -145.638 56.7256 -160.359 131.84h-124.652c-53.9404 0 -97.707 43.7676 -97.707 97.707c0 50.4834 38.335 92.0537 87.4658 97.1777v187.836c0 151.925 115.135 277.556 263.253 293.537v13.2363
c0 17.6729 14.3271 32 32 32z" />
    <glyph glyph-name="binocular-outline" unicode="&#xe913;" 
d="M351.065 290.846c0 -17.6729 -14.3262 -32 -32 -32c-17.6729 0 -32 14.3271 -32 32c0 33.0752 -25.7334 58.1553 -55.3262 58.1553c-17.6729 0 -32 14.3232 -32 32c0 17.6719 14.3271 32 32 32c66.8438 0 119.326 -55.6719 119.326 -122.155zM797.056 412.996
c66.7354 0 119.326 -55.4111 119.326 -121.826c0 -17.6719 -14.3271 -32 -32 -32s-32 14.3281 -32 32c0 32.7852 -25.626 57.8262 -55.3262 57.8262c-17.6719 0 -32 14.3281 -32 32c0 17.6729 14.3281 32 32 32zM790.383 134.656c88.5205 0 160.277 71.7568 160.277 160.272
c0 88.5205 -71.7568 160.277 -160.277 160.277c-88.5166 0 -160.272 -71.7568 -160.272 -160.277c0 -88.5156 71.7559 -160.272 160.272 -160.272zM840.141 526.562l-132.625 230.558c-8.24707 6.72363 -19.2422 8.34375 -30.3867 4.26562
c-12.6172 -4.61523 -17.4258 -13.1455 -17.1143 -22.3662l0.107422 -3.21582l-17.6562 -264.375c58.5986 37.0771 127.42 56.6221 197.675 55.1338zM243.208 515.047c43.2246 -2.38086 83.1875 -17.0029 116.48 -40.457c9.51074 -5.23535 18.7998 -10.9014 27.8369 -16.9854
l-5.50781 279.353l0.0576172 1.70508c0.325195 9.7041 -4.75684 18.3223 -17.2266 22.9111c-11.3418 4.17285 -22.5566 2.38184 -30.8799 -4.9082l-148.062 -236.661c19.2832 -0.140625 38.4414 -1.8125 57.3008 -4.95703zM450.39 515.831
c41.0703 20.1006 89.5059 20.708 131.021 1.82227l4.50098 67.4082c-35.6689 42.5068 -101.606 42.2217 -136.87 -0.855469zM6.39941 291.114c0 51.0596 17.0615 98.1299 45.793 135.83l231.14 369.451c56.5635 63.6709 165.513 23.5986 162.705 -59.8818l1.43848 -72.7959
c44.876 23.1797 99.123 22.6709 143.59 -1.52441l4.9834 74.665c-2.80273 82.999 106.146 122.841 162.71 59.5361l210.999 -366.813c28.1943 -37.5 44.9023 -84.1221 44.9023 -134.652c0 -123.861 -100.412 -224.272 -224.277 -224.272
c-121.788 0 -220.902 97.0791 -224.188 218.073l-0.0898438 -0.196289l0.0683594 0.998047c-0.0429688 1.79297 -0.0634766 3.59277 -0.0634766 5.39746c0 12.0879 0.955078 23.9531 2.79883 35.5205l7.66699 114.837c-35.8525 31.6504 -91.8018 29.291 -124.655 -7.08691
l2.63672 -133.709c0.260742 -4.42383 0.392578 -8.88281 0.392578 -13.376c0 -1.46289 -0.0166016 -2.92676 -0.0419922 -4.38184l0.0380859 -2.02637l-0.0810547 0.170898c-3.30664 -120.978 -102.414 -218.035 -224.19 -218.035
c-123.864 0 -224.275 100.411 -224.275 224.272zM390.948 291.114c0 52.9971 -25.7178 99.9814 -65.3545 129.161c-27.9414 14.9463 -58.1182 25.4336 -89.3428 31.0186c-1.85059 0.0634766 -3.70996 0.0976562 -5.57617 0.0976562
c-88.5176 0 -160.275 -71.7568 -160.275 -160.277c0 -88.5156 71.7578 -160.272 160.275 -160.272c88.5166 0 160.273 71.7568 160.273 160.272z" />
    <glyph glyph-name="binocular" unicode="&#xe914;" 
d="M362.673 319.996c0 82.4746 -66.8584 149.333 -149.333 149.333s-149.333 -66.8584 -149.333 -149.333s66.8584 -149.334 149.333 -149.334s149.333 66.8594 149.333 149.334zM810.68 170.667c82.4746 0 149.333 66.8584 149.333 149.333
s-66.8584 149.333 -149.333 149.333s-149.334 -66.8584 -149.334 -149.333s66.8594 -149.333 149.334 -149.333zM554.671 362.667c0 23.5645 -19.1016 42.666 -42.667 42.666c-23.5605 0 -42.666 -19.1016 -42.666 -42.666c0 -23.5654 19.1055 -42.667 42.666 -42.667
c23.5654 0 42.667 19.1016 42.667 42.667zM197.476 655.825c15.9229 52.5713 64.7539 90.8418 122.523 90.8418c55.7314 0 103.144 -35.6182 120.718 -85.332h142.562c17.5742 49.7139 64.9854 85.332 120.717 85.332c57.2842 0 105.779 -37.6309 122.116 -89.5205
c33.5996 -8.81152 62.6602 -31.0361 80.5547 -61.9443l89.5996 -168.535l-0.725586 -0.141602c18.0996 -31.3467 28.459 -67.7285 28.459 -106.525c0 -117.819 -95.5137 -213.333 -213.333 -213.333c-111.049 0 -202.278 84.8467 -212.403 193.245
c-19.3926 -26.6152 -50.8076 -43.916 -86.2637 -43.916s-66.8711 17.3008 -86.2666 43.9209c-10.1221 -108.403 -101.353 -193.25 -212.4 -193.25c-117.82 0 -213.333 95.5137 -213.333 213.333c0 45.0947 13.9922 86.9209 37.8711 121.374l83.7285 153.828
c17.0576 29.4639 44.2627 51.0381 75.876 60.623z" />
    <glyph glyph-name="bitbucket" unicode="&#xe915;" 
d="M113.026 840.592l797.941 -0.143555c3.98926 0.0517578 7.94434 -0.770508 11.584 -2.40918c3.63477 -1.63867 6.87305 -4.05371 9.47559 -7.0752c2.60742 -3.02246 4.51855 -6.57812 5.60645 -10.4189c1.08398 -3.83984 1.31445 -7.87109 0.678711 -11.8096
l-116.066 -712.501c-1.04883 -6.46777 -4.38574 -12.3477 -9.40332 -16.5625c-5.01758 -4.21582 -11.3838 -6.49023 -17.9326 -6.4043h-556.798c-8.74219 0.0722656 -17.1797 3.2207 -23.8301 8.89941c-6.64941 5.6748 -11.0869 13.5127 -12.5332 22.1318l-116.062 704.573
c-0.640625 3.93945 -0.410156 7.96973 0.674805 11.8105c1.08398 3.8418 2.99609 7.39844 5.60156 10.4209c2.60547 3.02344 5.8418 5.43848 9.47949 7.07715c3.63965 1.63965 7.59277 2.46191 11.583 2.41113zM423.927 331.896h177.357l42.9733 250.871h-268.349z" />
    <glyph glyph-name="bold" unicode="&#xe916;" 
d="M319.559 128.857h243.642c87.7568 0 158.895 72.5889 158.895 162.138c0 89.5449 -71.1377 162.138 -158.895 162.138h-243.642v-324.275zM320.855 520.439h205.378c65.6641 0 118.899 54.7998 118.899 122.398c0 67.5996 -53.2354 122.399 -118.899 122.399h-205.378
v-244.798zM288.428 832h237.806c101.482 0 183.757 -84.6904 183.757 -189.162c0 -56.4824 -24.0508 -107.184 -62.1826 -141.846c80.8965 -33.9717 137.848 -115.2 137.848 -209.997c0 -125.367 -99.5967 -226.995 -222.455 -226.995h-275.421
c-17.5508 0 -31.7793 14.5195 -31.7793 32.4268v389.133c0 0.24707 0.00292969 0.495117 0.0078125 0.742188c-0.00488281 0.251953 -0.0078125 0.503906 -0.0078125 0.754883v311.562c0 18.4365 14.5186 33.3818 32.4277 33.3818z" />
    <glyph glyph-name="book-open" unicode="&#xe917;" 
d="M448.804 214.696c-17.0566 16.1494 -39.7939 32.7861 -69.0723 44.8037c-28.4502 11.583 -55.749 15.5645 -77.4814 16.6611c-38.8945 1.54199 -67.7393 33.9727 -67.7393 71.0527v385.507h-11.2441c-28.7432 0 -52.6045 -23.8613 -52.6045 -52.6055v-412.815
c0 -28.7441 23.8613 -52.6035 52.6045 -52.6035h225.537zM542.113 214.696h258.612c28.7383 0 52.6035 23.8594 52.6035 52.6035v412.815c0 28.5527 -23.6719 52.2031 -52.6035 52.2031h-258.612v-517.622zM294.746 804.6v-457.386
c0 -6.22168 4.76953 -10.6797 9.92969 -10.8662l0.40918 -0.0175781c26.4209 -1.31934 60.8828 -6.18066 97.4004 -21.0586l0.0654297 -0.0302734c32.6484 -13.3838 58.8291 -31.2383 79.3271 -49.2061v482.52c-21.7559 17.7803 -56.6094 41.3018 -104.072 55.2607
l-0.192383 0.0576172c-26.5508 8.00195 -51.2559 11.2627 -71.8574 11.9873c-5.65234 0.194336 -11.0098 -4.39551 -11.0098 -11.2607zM394.898 861.575c59.6885 -17.5742 102.645 -47.5732 128.292 -69.0215h277.535c61.8193 0 112.839 -50.2373 112.839 -112.438v-412.815
c0 -62.0117 -50.832 -112.839 -112.839 -112.839h-288.264c-0.311523 -0.00585938 -0.623047 -0.00585938 -0.933594 0h-288.262c-62.0098 0 -112.84 50.8271 -112.84 112.839v412.815c0 62.0107 50.8301 112.841 112.84 112.841h11.2441v11.6436
c0 39.7168 32.3926 72.8711 73.3213 71.46c25.1484 -0.881836 55.0322 -4.84082 87.0664 -14.4844zM635.277 337.173h124.886c16.6377 0 30.1182 -13.4863 30.1182 -30.1172c0 -16.6377 -13.4805 -30.1182 -30.1182 -30.1182h-124.886
c-16.6367 0 -30.1172 13.4805 -30.1172 30.1182c0 16.6309 13.4805 30.1172 30.1172 30.1172zM605.16 473.706c0 16.6338 13.4805 30.1172 30.1172 30.1172h124.886c16.6377 0 30.1182 -13.4834 30.1182 -30.1172s-13.4805 -30.1182 -30.1182 -30.1182h-124.886
c-16.6367 0 -30.1172 13.4844 -30.1172 30.1182zM635.277 670.073h124.886c16.6377 0 30.1182 -13.4834 30.1182 -30.1172s-13.4805 -30.1172 -30.1182 -30.1172h-124.886c-16.6367 0 -30.1172 13.4834 -30.1172 30.1172s13.4805 30.1172 30.1172 30.1172z" />
    <glyph glyph-name="bookmark" unicode="&#xe918;" 
d="M181.333 704c0 88.3652 71.6348 160 160 160h341.334c88.3662 0 160 -71.6348 160 -160v-640c0 -11.9854 -6.69922 -22.9678 -17.3574 -28.4541c-10.6582 -5.4834 -23.4873 -4.55273 -33.2412 2.41504l-280.068 200.047l-280.067 -200.047
c-9.75391 -6.96777 -22.584 -7.89844 -33.2422 -2.41504c-10.6582 5.48633 -17.3574 16.4688 -17.3574 28.4541v640zM341.333 800c-53.0186 0 -96 -42.9805 -96 -96v-577.817l248.068 177.19c11.123 7.94824 26.0742 7.94824 37.1973 0l248.068 -177.19v577.817
c0 53.0195 -42.9824 96 -96 96h-341.334z" />
    <glyph glyph-name="branch-file-change" unicode="&#xe919;" 
d="M401.066 245.333h213.334c17.6719 0 32 -14.3271 32 -32c0 -17.6719 -14.3281 -32 -32 -32h-213.334c-17.6729 0 -32 14.3281 -32 32c0 17.6729 14.3271 32 32 32zM507.733 288c-17.6729 0 -32 14.3271 -32 32v74.667h-74.667c-17.6729 0 -32 14.3271 -32 32
c0 17.6719 14.3271 32 32 32h74.667v74.666c0 17.6729 14.3271 32 32 32s32 -14.3271 32 -32v-74.666h74.667c17.6719 0 32 -14.3281 32 -32c0 -17.6729 -14.3281 -32 -32 -32h-74.667v-74.667c0 -17.6729 -14.3271 -32 -32 -32zM170.667 711.254
c0 82.8604 53.8975 163.413 135.33 163.413h292.569c38.8564 0 73.9629 -19.3936 98.4785 -50.7617l119.433 -140.374c24.2432 -31.0283 36.8555 -71.459 36.8555 -112.651v-385.707c0 -82.2646 -53.3369 -163.413 -135.33 -163.413h-412.006
c-81.5479 0 -135.33 81.5537 -135.33 163.413v526.081zM765.598 644.255l-119.433 140.374c-5.87891 7.52441 -12.3047 13.291 -18.9648 17.4619v-172.33h147.741c-2.76465 5.22461 -5.89648 10.0791 -9.34375 14.4941zM305.997 810.667
c-29.5518 0 -65.0049 -31.0303 -70.2314 -85.4805c-0.430664 -4.4873 -0.65625 -9.13281 -0.65625 -13.9326v-526.081c0 -62.3525 39.0156 -99.4131 70.8877 -99.4131h412.006c32.2861 0 70.8867 36.6123 70.8867 99.4131v380.588h-193.689c-17.6729 0 -32 14.3271 -32 32
v197.5v15.4062h-257.203z" />
    <glyph glyph-name="branch-file-changed" unicode="&#xe91a;" 
d="M352.713 241.775c0 13.3496 10.8242 24.1748 24.1777 24.1748h258.843c13.3545 0 24.1787 -10.8252 24.1787 -24.1748c0 -13.3555 -10.8242 -24.1797 -24.1787 -24.1797h-258.843c-13.3535 0 -24.1777 10.8242 -24.1777 24.1797zM534.763 470.75h98.125
c13.3545 0 24.1787 -10.8242 24.1787 -24.1748c0 -13.3545 -10.8242 -24.1797 -24.1787 -24.1797h-98.125v-95.2871c0 -13.3545 -10.8242 -24.1797 -24.1797 -24.1797c-13.3545 0 -24.1787 10.8252 -24.1787 24.1797v95.2871h-95.293
c-13.3535 0 -24.1777 10.8252 -24.1777 24.1797c0 13.3506 10.8242 24.1748 24.1777 24.1748h95.293v98.1348c0 13.3535 10.8242 24.1777 24.1787 24.1777c13.3555 0 24.1797 -10.8242 24.1797 -24.1777v-98.1348zM652.796 796.792l-0.0126953 -173.854h139.098z
M290.134 836.271c-16.9746 0 -33.2529 -6.74219 -45.2549 -18.7451c-12.0029 -12.002 -18.7451 -28.2812 -18.7451 -45.2549v-631.466c0 -16.9736 6.74219 -33.2549 18.7451 -45.2568c12.002 -12.002 28.2803 -18.7432 45.2549 -18.7432h460.8
c16.9727 0 33.2539 6.74121 45.2559 18.7432c12.0029 12.002 18.7441 28.2832 18.7441 45.2568v439.466h-183.484c-5.65723 0 -11.084 2.24805 -15.0869 6.24902c-3.99707 4.00098 -6.24609 9.42773 -6.24609 15.0859l0.0175781 234.665h-320zM214.708 847.695
c20.0039 20.0039 47.1357 31.2422 75.4258 31.2422h341.333c6.48047 0 12.6074 -2.94629 16.6572 -8.00586l204.8 -256c3.0293 -3.7832 4.67578 -8.4834 4.67578 -13.3271v-460.8c0 -28.2881 -11.2383 -55.4199 -31.2402 -75.4268
c-20.0059 -20.002 -47.1377 -31.2402 -75.4258 -31.2402h-460.8c-28.29 0 -55.4219 11.2383 -75.4258 31.2402c-20.0029 20.0068 -31.2412 47.1387 -31.2412 75.4268v631.466c0 28.29 11.2383 55.4209 31.2412 75.4248z" />
    <glyph glyph-name="branch-merged-pr" unicode="&#xe91b;" 
d="M405.333 746.667c0 23.5635 -19.1025 42.666 -42.666 42.666c-23.5645 0 -42.667 -19.1025 -42.667 -42.666c0 -23.5645 19.1025 -42.667 42.667 -42.667c23.5635 0 42.666 19.1025 42.666 42.667zM746.667 490.667c-23.5654 0 -42.667 -19.1025 -42.667 -42.667
s19.1016 -42.667 42.667 -42.667c23.5645 0 42.666 19.1025 42.666 42.667s-19.1016 42.667 -42.666 42.667zM394.667 251.114c43.2764 -13.5889 74.666 -54.0195 74.666 -101.781c0 -58.9092 -47.7559 -106.666 -106.666 -106.666s-106.667 47.7568 -106.667 106.666
c0 47.7617 31.3906 88.1924 74.667 101.781v393.769c-43.2764 13.5928 -74.667 54.0225 -74.667 101.784c0 58.9102 47.7568 106.666 106.667 106.666s106.666 -47.7559 106.666 -106.666c0 -47.7617 -31.3896 -88.1914 -74.666 -101.784v-68.8828
c0 -53.0176 42.9824 -96 96 -96h154.219c13.5889 43.2764 54.0195 74.667 101.781 74.667c58.9092 0 106.666 -47.7568 106.666 -106.667s-47.7568 -106.667 -106.666 -106.667c-47.7617 0 -88.1924 31.3906 -101.781 74.667h-154.219
c-36.0195 0 -69.2588 11.9043 -96 31.9873v-196.873zM405.333 149.333c0 23.5654 -19.1025 42.667 -42.666 42.667c-23.5645 0 -42.667 -19.1016 -42.667 -42.667c0 -23.5645 19.1025 -42.666 42.667 -42.666c23.5635 0 42.666 19.1016 42.666 42.666z" />
    <glyph glyph-name="branch-open-pr" unicode="&#xe91c;" 
d="M277.333 682.668c0 23.5635 -19.1025 42.666 -42.666 42.666c-23.5645 0 -42.667 -19.1025 -42.667 -42.666c0 -23.5645 19.1025 -42.667 42.667 -42.667c23.5635 0 42.666 19.1025 42.666 42.667zM234.667 170.667c-23.5645 0 -42.667 -19.1025 -42.667 -42.667
s19.1025 -42.667 42.667 -42.667c23.5635 0 42.666 19.1025 42.666 42.667s-19.1025 42.667 -42.666 42.667zM341.333 128c0 -58.9102 -47.7559 -106.667 -106.666 -106.667s-106.667 47.7568 -106.667 106.667c0 47.7607 31.3906 88.1924 74.667 101.785v351.099
c-43.2764 13.5918 -74.667 54.0215 -74.667 101.784c0 58.9102 47.7568 106.666 106.667 106.666s106.666 -47.7559 106.666 -106.666c0 -47.7627 -31.3906 -88.1924 -74.666 -101.784v-351.099c43.2754 -13.5928 74.666 -54.0244 74.666 -101.785zM785.284 170.479
c-21.666 -2.03906 -38.6172 -20.2793 -38.6172 -42.4785c0 -23.5645 19.1016 -42.667 42.666 -42.667c23.5654 0 42.667 19.1025 42.667 42.667c0 20.4932 -14.4473 37.6152 -33.7148 41.7275c-1.52734 -0.225586 -3.09375 -0.34082 -4.68555 -0.34082
c-2.875 0 -5.66602 0.379883 -8.31543 1.0918zM494.536 698.026l58.0098 -58.0127c12.4971 -12.4971 12.4971 -32.7578 0 -45.2549c-12.4922 -12.4971 -32.7549 -12.4971 -45.252 0l-112.642 112.64c-4.19824 4.19922 -6.98633 9.27441 -8.36328 14.6377
c-1.18555 4.61328 -1.32617 9.43848 -0.422852 14.1025c1.1709 6.05078 4.09961 11.8291 8.78613 16.5156l112.642 112.64c12.4971 12.4971 32.7598 12.4971 45.252 0c12.4971 -12.4971 12.4971 -32.7578 0 -45.2549l-58.0098 -58.0127h178.317
c84.2324 0 152.746 -68.5137 152.746 -152.747v-380.936c41.0586 -14.8438 70.4004 -54.166 70.4004 -100.344c0 -58.9102 -47.7568 -106.667 -106.667 -106.667c-58.9092 0 -106.666 47.7568 -106.666 106.667c0 49.3184 33.4678 90.8203 78.9326 103.027v378.252
c0 48.8867 -39.8584 88.7471 -88.7461 88.7471h-178.317z" />
    <glyph glyph-name="branch" unicode="&#xe91d;" 
d="M405.333 149.333c0 23.5654 -19.1025 42.667 -42.666 42.667c-23.5645 0 -42.667 -19.1016 -42.667 -42.667c0 -23.5645 19.1025 -42.666 42.667 -42.666c23.5635 0 42.666 19.1016 42.666 42.666zM661.333 704c23.5654 0 42.667 19.1025 42.667 42.667
c0 23.5635 -19.1016 42.666 -42.667 42.666c-23.5645 0 -42.666 -19.1025 -42.666 -42.666c0 -23.5645 19.1016 -42.667 42.666 -42.667zM394.667 644.883v-196.87c26.7412 20.083 59.9805 31.9873 96 31.9873h85.333c29.457 0 53.333 23.876 53.333 53.333v111.55
c-43.2764 13.5928 -74.666 54.0225 -74.666 101.784c0 58.9102 47.7568 106.666 106.666 106.666c58.9102 0 106.667 -47.7559 106.667 -106.666c0 -47.7617 -31.3896 -88.1914 -74.667 -101.784v-111.55c0 -64.8018 -52.5312 -117.333 -117.333 -117.333h-85.333
c-53.0176 0 -96 -42.9824 -96 -96v-68.8857c43.2764 -13.5889 74.666 -54.0195 74.666 -101.781c0 -58.9092 -47.7559 -106.666 -106.666 -106.666s-106.667 47.7568 -106.667 106.666c0 47.7617 31.3906 88.1924 74.667 101.781v393.769
c-43.2764 13.5928 -74.667 54.0225 -74.667 101.784c0 58.9102 47.7568 106.666 106.667 106.666s106.666 -47.7559 106.666 -106.666c0 -47.7617 -31.3896 -88.1914 -74.666 -101.784zM405.333 746.667c0 23.5635 -19.1025 42.666 -42.666 42.666
c-23.5645 0 -42.667 -19.1025 -42.667 -42.666c0 -23.5645 19.1025 -42.667 42.667 -42.667c23.5635 0 42.666 19.1025 42.666 42.667z" />
    <glyph glyph-name="briefcase" unicode="&#xe91e;" 
d="M614.4 898.56c33.8633 0 61.4395 -27.5752 61.4395 -61.4395v-61.4404h-286.72v61.4404c0 33.8633 27.5752 61.4395 61.4395 61.4395h163.841zM860.16 734.72c33.9414 0 61.4395 -27.498 61.4395 -61.4395v-409.601c0 -33.9414 -27.498 -61.4395 -61.4395 -61.4395
h-143.36v532.479h143.36zM696.32 161.28h163.84c56.5381 0 102.399 45.8613 102.399 102.399v409.601c0 56.5381 -45.8613 102.399 -102.399 102.399h-143.36v61.4404c0 56.5039 -45.8955 102.399 -102.399 102.399h-163.841
c-56.5039 0 -102.399 -45.8955 -102.399 -102.399v-61.4404h-143.36c-56.5381 0 -102.399 -45.8613 -102.399 -102.399v-409.601c0 -56.5381 45.8613 -102.399 102.399 -102.399h163.84h327.681zM675.84 734.72v-532.479h-286.72v532.479h286.72zM348.16 734.72v-532.479
h-143.36c-33.9414 0 -61.4395 27.498 -61.4395 61.4395v409.601c0 33.9414 27.498 61.4395 61.4395 61.4395h143.36z" />
    <glyph glyph-name="broken-image" unicode="&#xe91f;" 
d="M765.866 146.594c0 -12.625 10.5049 -22.8604 23.4668 -22.8604c12.9629 0 23.4668 10.2354 23.4668 22.8604v142.017c0 12.625 -10.5039 22.8564 -23.4668 22.8564c-12.9619 0 -23.4668 -10.2314 -23.4668 -22.8564v-142.017zM765.866 53.333
c0 -12.9619 10.5049 -23.4668 23.4668 -23.4668c12.9629 0 23.4668 10.5049 23.4668 23.4668c0 12.9629 -10.5039 23.4668 -23.4668 23.4668c-12.9619 0 -23.4668 -10.5039 -23.4668 -23.4668zM789.333 405.333c129.604 0 234.667 -105.062 234.667 -234.666
c0 -129.604 -105.062 -234.667 -234.667 -234.667c-129.604 0 -234.666 105.062 -234.666 234.667c0 129.604 105.062 234.666 234.666 234.666zM646.4 665.172c35.4131 0 64.8525 -29.0127 64.8525 -64.8525s-29.0127 -64.8545 -64.8525 -64.8545
c-35.8408 0 -64.8535 29.0146 -64.8535 64.8545s29.0127 64.8525 64.8535 64.8525zM149.333 711.68v-287.116l95.9863 95.9824c38.0967 38.0986 100.171 38.0986 138.268 0l0.46875 -0.477539l129.706 -135.254c12.2334 -12.7529 11.8105 -33.0107 -0.947266 -45.2432
c-12.7529 -12.2324 -33.0107 -11.8105 -45.2432 0.947266l-129.438 134.972c-13.1211 12.9062 -34.5225 12.8379 -47.5596 -0.196289l-141.241 -141.244v-149.729c0 -54.5029 44.1953 -98.9873 98.9873 -98.9873h199.68c17.6729 0 32 -14.3271 32 -32
c0 -17.6719 -14.3271 -32 -32 -32h-199.68c-90.2744 0 -162.987 73.2764 -162.987 162.987v162.943v0.0859375v364.33c0 90.2744 73.2754 162.987 162.987 162.987h527.359c90.2744 0 162.987 -73.2754 162.987 -162.987v-178.347c0 -17.6719 -14.3281 -32 -32 -32
c-17.6729 0 -32 14.3281 -32 32v178.347c0 54.501 -44.1943 98.9873 -98.9873 98.9873h-527.359c-54.501 0 -98.9873 -44.1953 -98.9873 -98.9873z" />
    <glyph glyph-name="browser-settings" unicode="&#xe920;" 
d="M608.811 206.664c0 -48.7979 39.7354 -88.5332 88.5332 -88.5332c48.8027 0 88.5332 39.7354 88.5332 88.5332c0 48.8027 -39.7305 88.5342 -88.5332 88.5342c-48.7979 0 -88.5332 -39.7314 -88.5332 -88.5342zM909.329 163.2l-0.268555 0.264648
c20.002 -11.7334 26.4014 -36.8008 15.2021 -56.2646l-27.4688 -47.2021c-11.7334 -19.7334 -36.8008 -26.3984 -56.2646 -15.1982l-13.6025 7.73145c-12.7998 7.4668 -28.2666 7.4668 -41.0664 0s-20.5312 -20.7998 -20.5312 -35.7334v-15.7314
c0 -22.6689 -18.4023 -41.0664 -41.0664 -41.0664h-54.9336c-22.6689 0 -41.0664 18.3975 -41.0664 41.0664v15.7314c0 14.9336 -7.73535 28.2666 -20.5361 35.7334c-12.7998 7.4668 -28.2666 7.4668 -41.0664 0l-13.5977 -7.73145
c-9.60059 -5.60156 -20.5352 -7.20215 -31.2021 -4.2666c-10.667 2.93164 -19.4648 9.60059 -25.0664 19.2002l-27.4648 47.4668c-11.2002 19.7334 -4.53516 44.7998 14.9336 56.2646l13.8662 7.73535c12.7998 7.19727 20.5312 20.7998 20.5312 35.4639
c0 14.6689 -7.73145 28.0029 -20.5312 35.4697l-13.333 7.73047c-19.7334 11.7334 -26.4023 36.7998 -15.2021 56.2695l27.2002 47.1973c11.7334 19.4688 36.7998 26.1338 56.2686 14.9336l13.5977 -7.73145c12.7998 -7.4668 28.2666 -7.4668 41.0664 0
c12.8008 7.4668 20.5361 20.7998 20.5361 35.7334v15.7314c0 22.6689 18.3975 41.0664 41.0664 41.0664h54.9336c22.6641 0 41.0664 -18.3975 41.0664 -41.0664v-15.7314c0 -14.9336 7.73145 -28.2666 20.5312 -35.7334s28.2666 -7.4668 41.0664 0l13.6025 7.73145
c19.4639 11.4688 44.7998 4.7998 56.2646 -14.9336l27.4688 -47.4668c5.59766 -9.33105 6.93262 -20.2666 4.2666 -30.9326c-2.66699 -10.667 -9.33594 -19.4648 -18.9355 -25.0674l-13.5977 -7.73047c-12.8008 -7.20215 -20.5361 -20.5361 -20.5361 -35.4697
c0 -14.9326 7.73535 -28.2666 20.5361 -35.7324zM187.75 599.563h648.756v41.8379c-0.333008 50.6191 -41.1865 91.3145 -91.6055 91.3145h-465.93c-50.4834 0 -91.2207 -40.7373 -91.2207 -91.2207v-41.9316zM123.75 641.495c0 85.8301 69.3916 155.221 155.221 155.221
h465.93c85.8623 0 155.123 -69.3857 155.605 -155.039v-0.181641v-175.584c-19.6309 15.292 -41.0928 28.3525 -64 38.7842v30.8682h-648.756v-359.227c0 -50.4834 40.7373 -91.2207 91.2207 -91.2207h131.751c10.0049 -22.8525 22.6006 -44.3096 37.4189 -64h-169.17
c-85.8291 0 -155.221 69.3887 -155.221 155.221v391.227v73.9316z" />
    <glyph glyph-name="calendar" unicode="&#xe921;" 
d="M836.488 599.562v41.8379c-0.333008 50.6201 -41.1855 91.3154 -91.6055 91.3154h-8.43066v-43.8574c0 -17.6729 -14.3271 -32 -32 -32s-32 14.3271 -32 32v43.8574h-321.066v-43.8574c0 -17.6729 -14.3271 -32 -32 -32s-32 14.3271 -32 32v43.8574h-8.43164
c-50.4834 0 -91.2207 -40.7373 -91.2207 -91.2207v-41.9326h648.755zM187.733 535.562v-359.226c0 -50.4834 40.7373 -91.2207 91.2207 -91.2207h466.313c50.4824 0 91.2207 40.7373 91.2207 91.2207v359.226h-648.755zM351.386 842.884v-46.168h321.066v46.168
c0 17.6738 14.3271 32 32 32s32 -14.3262 32 -32v-46.168h8.43066c85.8623 0 155.124 -69.3867 155.605 -155.04v-0.180664v-465.158c0 -85.832 -69.3887 -155.221 -155.221 -155.221h-466.313c-85.8291 0 -155.221 69.3887 -155.221 155.221v391.226v73.9326
c0 85.8291 69.3916 155.221 155.221 155.221h8.43164v46.168c0 17.6738 14.3271 32 32 32s32 -14.3262 32 -32z" />
    <glyph glyph-name="card-view" unicode="&#xe922;" 
d="M549.974 306.347c0 57.3525 46.3271 103.68 103.68 103.68h143.36c57.3525 0 103.68 -46.3271 103.68 -103.68v-143.36c0 -57.3525 -46.3271 -103.68 -103.68 -103.68h-143.36c-57.3525 0 -103.68 46.3271 -103.68 103.68v143.36zM653.653 346.026
c-22.0078 0 -39.6797 -17.6719 -39.6797 -39.6797v-143.36c0 -22.0068 17.6719 -39.6797 39.6797 -39.6797h143.36c22.0068 0 39.6797 17.6729 39.6797 39.6797v143.36c0 22.0078 -17.6729 39.6797 -39.6797 39.6797h-143.36zM123.307 306.347
c0 57.3525 46.3271 103.68 103.681 103.68h143.359c57.3525 0 103.68 -46.3271 103.68 -103.68v-143.36c0 -57.3525 -46.3271 -103.68 -103.68 -103.68h-143.359c-57.3535 0 -103.681 46.3271 -103.681 103.68v143.36zM226.987 346.026
c-22.0078 0 -39.6807 -17.6719 -39.6807 -39.6797v-143.36c0 -22.0068 17.6729 -39.6797 39.6807 -39.6797h143.359c22.0068 0 39.6797 17.6729 39.6797 39.6797v143.36c0 22.0078 -17.6729 39.6797 -39.6797 39.6797h-143.359zM549.974 733.013
c0 57.3545 46.3271 103.681 103.68 103.681h143.36c57.3525 0 103.68 -46.3262 103.68 -103.681v-143.359c0 -57.3525 -46.3271 -103.68 -103.68 -103.68h-143.36c-57.3525 0 -103.68 46.3271 -103.68 103.68v143.359zM653.653 772.693
c-22.0078 0 -39.6797 -17.6738 -39.6797 -39.6807v-143.359c0 -22.0059 17.6719 -39.6797 39.6797 -39.6797h143.36c22.0068 0 39.6797 17.6738 39.6797 39.6797v143.359c0 22.0068 -17.6729 39.6807 -39.6797 39.6807h-143.36zM123.307 733.013
c0 57.3545 46.3271 103.681 103.681 103.681h143.359c57.3525 0 103.68 -46.3262 103.68 -103.681v-143.359c0 -57.3525 -46.3271 -103.68 -103.68 -103.68h-143.359c-57.3535 0 -103.681 46.3271 -103.681 103.68v143.359zM226.987 772.693
c-22.0078 0 -39.6807 -17.6738 -39.6807 -39.6807v-143.359c0 -22.0059 17.6729 -39.6797 39.6807 -39.6797h143.359c22.0068 0 39.6797 17.6738 39.6797 39.6797v143.359c0 22.0068 -17.6729 39.6807 -39.6797 39.6807h-143.359z" />
    <glyph glyph-name="chat-ai" unicode="&#xe923;" 
d="M610.543 439.521v17.5625c-5.01758 0 -10.0352 0.501953 -15.0527 1.00293c-27.5996 3.01074 -53.1904 14.5527 -72.7607 32.6172l-0.500977 0.500977l-0.501953 0.50293c-23.082 21.5762 -35.627 51.1816 -35.627 81.791h-19.0684
c0 -30.6094 -12.5449 -60.2148 -35.627 -81.791l-0.501953 -0.50293l-0.501953 -0.500977c-23.082 -21.5771 -55.1963 -33.6201 -87.8125 -33.6201v-17.5625c32.6162 0 64.7305 -12.043 87.8125 -33.6201l0.501953 -0.501953l0.501953 -0.500977
c23.082 -21.5801 35.627 -51.1855 35.627 -81.791h19.0684c0 30.6055 12.5449 60.2109 35.627 81.791l0.501953 0.500977l0.500977 0.501953c19.5703 18.5664 45.6631 29.6055 72.7607 32.6162c5.01758 0.501953 10.0352 1.00391 15.0527 1.00391zM607.033 639.734v0.501953
h110.393v-377.848h-109.893v47.167c-32.6201 -26.0898 -76.7744 -40.1416 -129.462 -40.1416h-1.00391c-115.412 0 -190.179 66.7363 -190.179 180.142c0.501953 113.405 75.2686 180.645 190.179 180.645h0.501953c52.6875 -0.501953 96.8438 -14.5518 129.464 -40.6445
v50.1787zM310.319 881.098h429.868c118.243 0 214.095 -95.8545 214.095 -214.098v-429.864c0 -118.244 -95.8516 -214.102 -214.095 -214.102h-643.965v643.966c0 118.243 95.8545 214.098 214.097 214.098zM740.188 819.807h-429.868
c-84.3936 0 -152.807 -68.4141 -152.807 -152.807v-582.674h582.675c84.3887 0 152.803 68.415 152.803 152.81v429.864c0 84.3926 -68.4141 152.807 -152.803 152.807z" />
    <glyph glyph-name="chat" unicode="&#xe924;" 
d="M687.36 404.054c-24.2695 0 -43.9473 19.6729 -43.9473 43.9463s19.6777 43.9463 43.9473 43.9463c24.2725 0 43.9463 -19.6729 43.9463 -43.9463s-19.6738 -43.9463 -43.9463 -43.9463zM555.946 448c0 -24.2734 -19.6729 -43.9463 -43.9463 -43.9463
s-43.9463 19.6729 -43.9463 43.9463s19.6729 43.9463 43.9463 43.9463s43.9463 -19.6729 43.9463 -43.9463zM380.586 448c0 -24.2734 -19.6758 -43.9463 -43.9473 -43.9463c-24.2705 0 -43.9453 19.6729 -43.9453 43.9463s19.6748 43.9463 43.9453 43.9463
c24.2715 0 43.9473 -19.6729 43.9473 -43.9463zM842.479 298.957c20.4463 45.6143 32.1885 96.209 32.1885 149.043c0 200.354 -162.312 362.667 -362.667 362.667c-200.354 0 -362.667 -162.313 -362.667 -362.667c0 -200.354 162.313 -362.667 362.667 -362.667
c59.1572 0 115.226 14.4902 164.706 39.625c5.91797 3.00391 12.6162 4.0957 19.1787 3.12305l170.735 -25.2676l-25.4297 173.338c-2.35938 7.41113 -1.97168 15.5312 1.28809 22.8057zM512 874.667c235.699 0 426.667 -190.968 426.667 -426.667
c0 -58.709 -12.2842 -114.867 -33.6816 -165.772l31.2109 -212.728c1.46777 -10.0137 -1.89062 -20.1348 -9.0498 -27.29c-7.16309 -7.15039 -17.2842 -10.4961 -27.2979 -9.01074l-203.46 30.1094c-55.7441 -26.6582 -118.388 -41.9756 -184.389 -41.9756
c-235.699 0 -426.667 190.968 -426.667 426.667s190.968 426.667 426.667 426.667z" />
    <glyph glyph-name="check-fill" unicode="&#xe925;" 
d="M726.626 598.627c-12.4971 12.4971 -32.7549 12.4971 -45.252 0l-251.661 -251.657l-87.0859 87.0869c-12.4961 12.4971 -32.7578 12.4971 -45.2539 0c-12.4971 -12.4971 -12.4971 -32.7598 0 -45.2568l109.641 -109.641l0.0732422 -0.0722656
c7.81055 -7.8125 18.6543 -10.7393 28.7402 -8.78516c6.0498 1.16895 11.8271 4.10059 16.5166 8.78516l274.282 274.286c12.4971 12.4961 12.4971 32.7578 0 45.2539zM85.333 448c0 235.704 190.963 426.667 426.667 426.667c235.703 0 426.667 -190.963 426.667 -426.667
c0 -235.703 -190.964 -426.667 -426.667 -426.667c-235.704 0 -426.667 190.964 -426.667 426.667z" />
    <glyph glyph-name="check-outline" unicode="&#xe926;" 
d="M532.297 297.63l-60.9971 -60.9922l-198.232 198.233l60.9951 60.9922l137.237 -137.237l274.479 274.479l60.9922 -60.9951zM1024 448c0 -282.77 -229.23 -512 -512 -512s-512 229.23 -512 512s229.23 512 512 512s512 -229.23 512 -512zM938.667 448
c0 235.642 -191.027 426.667 -426.667 426.667c-235.642 0 -426.667 -191.025 -426.667 -426.667c0 -235.64 191.025 -426.667 426.667 -426.667c235.64 0 426.667 191.027 426.667 426.667z" />
    <glyph glyph-name="check" unicode="&#xe927;" 
d="M854.626 638.706c12.4971 12.4961 12.4971 32.7578 0 45.2549c-12.4971 12.4961 -32.7549 12.4961 -45.252 0l-404.041 -404.038l-146.745 146.744c-12.4961 12.4971 -32.7578 12.4971 -45.2549 0c-12.4961 -12.4971 -12.4961 -32.7598 0 -45.2568l169.373 -169.369
c1.56152 -1.5625 3.24512 -2.93164 5.01953 -4.10059c12.4209 -8.20117 29.3008 -6.83496 40.2334 4.10059z" />
    <glyph glyph-name="checklist" unicode="&#xe928;" 
d="M325.333 810.667c-53.0186 0 -96 -42.9814 -96 -96v-330.667c0 -17.6729 -14.3271 -32 -32 -32s-32 14.3271 -32 32v330.667c0 88.3652 71.6348 160 160 160h533.334c88.3662 0 160 -71.6348 160 -160v-533.334c0 -88.3662 -71.6338 -160 -160 -160h-410.667
c-17.6729 0 -32 14.3281 -32 32c0 17.6729 14.3271 32 32 32h410.667c53.0176 0 96 42.9824 96 96v533.334c0 53.0186 -42.9824 96 -96 96h-533.334zM561.293 435.072c12.4971 -12.4971 12.4971 -32.7598 0 -45.2568l-348.299 -348.302
c-0.0925904 -0.0937207 -0.185877 -0.187009 -0.279859 -0.27986c-7.36544 -7.27676 -17.3697 -10.2492 -26.8906 -8.93505c-1.45917 0.201389 -2.9071 0.503496 -4.33257 0.906319c-4.90254 1.38534 -9.53775 3.96128 -13.4482 7.72525
c-0.15032 0.14465 -0.299574 0.291057 -0.447737 0.43922c-0.0674487 0.0674487 -0.134533 0.135124 -0.201254 0.203022l-147.489 149.272c-12.4219 12.5693 -12.3008 32.832 0.271484 45.252c12.5713 12.4209 32.832 12.3008 45.2539 -0.272461l124.928 -126.434
l325.683 325.683c12.4971 12.4922 32.7549 12.4922 45.252 0z" />
    <glyph glyph-name="clock" unicode="&#xe929;" 
d="M700.706 358.588c-5.19629 -16.8916 -23.1035 -26.3682 -39.9961 -21.1709l-147.741 45.4736c-6.72852 1.91113 -12.5742 5.97363 -16.7168 11.4131c-4.15137 5.46582 -6.51074 12.2119 -6.53711 19.2344l-5.64844 218.633
c-0.457031 17.668 13.4951 32.3594 31.1631 32.8164c17.6689 0.456055 32.3584 -13.4971 32.8154 -31.1641l5.07324 -196.328l126.421 -38.9072c16.8877 -5.20117 26.3682 -23.1084 21.167 -40zM85.333 448c0 235.642 191.025 426.667 426.667 426.667
c235.64 0 426.667 -191.025 426.667 -426.667c0 -235.64 -191.027 -426.667 -426.667 -426.667c-235.642 0 -426.667 191.027 -426.667 426.667zM512 810.667c-200.295 0 -362.667 -162.372 -362.667 -362.667c0 -200.294 162.372 -362.667 362.667 -362.667
c200.294 0 362.667 162.373 362.667 362.667c0 200.295 -162.373 362.667 -362.667 362.667z" />
    <glyph glyph-name="close" unicode="&#xe92a;" 
d="M790.797 685.382l-233.873 -237.382l233.873 -237.38c12.4033 -12.5918 12.25 -32.8535 -0.336914 -45.2568c-12.5908 -12.4033 -32.8535 -12.25 -45.2568 0.336914l-233.203 236.706l-233.205 -236.706c-12.4033 -12.5869 -32.6641 -12.7402 -45.2529 -0.336914
c-12.5898 12.4033 -12.7402 32.665 -0.336914 45.2568l233.871 237.38l-233.871 237.382c-12.4033 12.5889 -12.2529 32.8496 0.336914 45.2529c12.5889 12.4033 32.8496 12.2529 45.2529 -0.336914l233.205 -236.704l233.203 236.704
c12.4033 12.5898 32.666 12.7402 45.2568 0.336914c12.5869 -12.4033 12.7402 -32.6641 0.336914 -45.2529z" />
    <glyph glyph-name="cloud" unicode="&#xe92b;" 
d="M465.066 785.066c119.467 0 238.934 -76.7998 251.733 -234.666h12.7998c46.9336 0 93.8672 -17.0674 128 -46.9336l4.2666 -4.2666s4.26758 -4.2666 8.53418 -8.5332c4.2666 -8.5332 17.0664 -21.334 25.5996 -34.1338
c21.333 -25.5996 38.4004 -68.2666 38.4004 -123.733c0 -51.2002 -17.0674 -106.666 -51.2002 -149.333c-34.1338 -42.667 -81.0664 -76.7998 -140.8 -76.7998h-217.601h-213.333h-12.7998c-25.6006 0 -59.7334 4.2666 -98.1338 25.5996
c-59.7334 29.8672 -98.1328 89.5996 -110.934 149.333c-21.333 106.667 29.8672 213.334 123.733 256c0 81.0674 34.1338 145.067 81.0674 183.467c46.9326 42.667 106.666 64 166.399 64h4.2666zM465.066 721.066c-51.2002 0 -98.1328 -17.0664 -119.467 -46.9326
c-38.3994 -29.8672 -59.7334 -81.0674 -59.7334 -136.534v-38.3994l-38.3994 -17.0664c-64 -29.8672 -102.4 -106.667 -85.333 -183.467c8.5332 -42.667 38.3994 -85.334 76.7998 -106.667c21.333 -12.7998 42.666 -17.0664 68.2666 -17.0664h8.5332h213.333h217.601
c42.666 0 76.7998 34.1328 89.5996 51.2002c25.5996 29.8662 38.4004 68.2666 38.4004 106.666c0 29.8672 -12.8008 59.7334 -29.8672 89.6006c-8.5332 8.5332 -12.7998 17.0664 -21.333 25.5996l-8.5332 8.5332c-25.6006 21.333 -55.4668 34.1338 -85.334 34.1338h-8.5332
l-64 -4.2666l-4.2666 64c-8.5332 119.466 -102.399 170.666 -187.733 170.666z" />
    <glyph glyph-name="code-coupled" unicode="&#xe92c;" 
d="M341.333 394.667c0 17.6719 14.3271 32 32 32h192c17.6729 0 32 -14.3281 32 -32c0 -17.6729 -14.3271 -32 -32 -32h-192c-17.6729 0 -32 14.3271 -32 32zM341.333 266.667c0 17.6719 14.3271 32 32 32h277.334c17.6719 0 32 -14.3281 32 -32
c0 -17.6729 -14.3281 -32 -32 -32h-277.334c-17.6729 0 -32 14.3271 -32 32zM841.907 206.392l-42.6709 -192c-3.83105 -17.25 -20.9277 -28.1299 -38.1777 -24.2949c-17.2549 3.83203 -28.1309 20.9287 -24.2949 38.1787l42.667 192
c3.83105 17.25 20.9277 28.1299 38.1777 24.2939c17.2549 -3.83594 28.1299 -20.9277 24.2988 -38.1777zM886.174 24.3027c-12.4971 12.4971 -12.4971 32.7598 0 45.2568l41.3701 41.374l-41.3701 41.3691c-12.4971 12.4971 -12.4971 32.7598 0 45.2568
s32.7549 12.4971 45.252 0l64 -64c12.4971 -12.4971 12.4971 -32.7598 0 -45.2568l-64 -64c-12.4971 -12.4922 -32.7549 -12.4922 -45.252 0zM696.76 152.303l-41.374 -41.3691l41.374 -41.374c12.4971 -12.4971 12.4971 -32.7598 0 -45.2568
c-12.4971 -12.4922 -32.7559 -12.4922 -45.2529 0l-64 64c-12.4971 12.4971 -12.4971 32.7598 0 45.2568l64 64c12.4971 12.4971 32.7559 12.4971 45.2529 0s12.4971 -32.7598 0 -45.2568zM768.146 673.23l-123.879 111.493v-137.896h141.466
c-3.51562 10.0322 -9.51465 19.1396 -17.5869 26.4023zM234.667 704v-512c0 -58.9102 47.7559 -106.667 106.666 -106.667h117.334c17.6719 0 32 -14.3271 32 -32c0 -17.6719 -14.3281 -32 -32 -32h-117.334c-94.2559 0 -170.666 76.4121 -170.666 170.667v512
c0 94.2568 76.4102 170.667 170.666 170.667h249.549c31.6201 0 62.123 -11.7051 85.6279 -32.8584l134.451 -121.007c26.9697 -24.2744 42.3721 -58.8555 42.3721 -95.1416v-270.161c0 -17.6768 -14.3271 -32 -32 -32c-17.6719 0 -32 14.3232 -32 32v227.329h-177.066
c-17.6729 0 -32 14.3271 -32 32v195.839h-238.934c-58.9102 0 -106.666 -47.7568 -106.666 -106.667z" />
    <glyph glyph-name="code-fill" unicode="&#xe92d;" 
d="M462.773 224.527c1.375 -0.296875 2.73828 -0.44043 4.09082 -0.44043c9.11621 0 17.2979 6.54883 19.2549 16.0977l79.4717 388.16c2.24316 10.9619 -4.57227 21.708 -15.2168 24.0156c-10.6592 2.30762 -21.1045 -4.70508 -23.3467 -15.6562l-79.4736 -388.159
c-2.24316 -10.9512 4.5752 -21.708 15.2197 -24.0176zM637.865 307.86c4.51074 0 9.05176 1.59766 12.7588 4.84375l127.514 111.698c4.39844 3.85449 6.92773 9.49219 6.92773 15.4414c0 5.93945 -2.5293 11.5723 -6.92773 15.4297l-127.514 111.698
c-8.26855 7.2627 -20.7207 6.23242 -27.7656 -2.28516c-7.06055 -8.5293 -6.0625 -21.3242 2.2168 -28.5752l109.891 -96.2676l-109.891 -96.2715c-8.2793 -7.25977 -9.27734 -20.0547 -2.2168 -28.5742c3.89062 -4.71582 9.43066 -7.1377 15.0068 -7.1377zM373.378 312.704
c3.70605 -3.24609 8.24707 -4.84375 12.7559 -4.84375c5.57617 0 11.1182 2.42188 15.0215 7.1377c7.04883 8.51953 6.05957 21.3145 -2.23242 28.5742l-109.889 96.2715l109.889 96.2676c8.29199 7.25098 9.28125 20.0459 2.23242 28.5752
c-7.05957 8.51758 -19.4971 9.54785 -27.7773 2.28516l-127.517 -111.698c-4.3877 -3.85742 -6.92871 -9.49023 -6.92871 -15.4297c0 -5.94922 2.5293 -11.5869 6.92871 -15.4414zM512 38.4004c-226.216 0 -409.6 183.383 -409.6 409.6c0 226.216 183.384 409.6 409.6 409.6
c226.217 0 409.6 -183.384 409.6 -409.6c0 -226.217 -183.383 -409.6 -409.6 -409.6z" />
    <glyph glyph-name="codeblock" unicode="&#xe92e;" 
d="M746.667 245.333c0 -64.8018 -52.5312 -117.333 -117.334 -117.333h-21.333c-17.6729 0 -32 14.3271 -32 32s14.3271 32 32 32h21.333c29.457 0 53.334 23.876 53.334 53.333v111.531c0 36.0186 16.4561 69.2607 43.4219 91.1357
c-26.9658 21.875 -43.4219 55.1172 -43.4219 91.1357v111.531c0 29.4551 -23.877 53.333 -53.334 53.333h-21.333c-17.6729 0 -32 14.3271 -32 32s14.3271 32 32 32h21.333c64.8027 0 117.334 -52.5322 117.334 -117.333v-111.531
c0 -22.2334 13.7891 -42.1328 34.6064 -49.9365l29.9609 -11.2383c12.4922 -4.68066 20.7656 -16.623 20.7656 -29.9609s-8.27344 -25.2803 -20.7656 -29.9609l-29.9609 -11.2383c-20.8174 -7.80371 -34.6064 -27.7031 -34.6064 -49.9365v-111.531zM277.333 650.667
c0 64.8008 52.5322 117.333 117.334 117.333h21.333c17.6729 0 32 -14.3271 32 -32s-14.3271 -32 -32 -32h-21.333c-29.4561 0 -53.334 -23.8779 -53.334 -53.333v-111.531c0 -36.0186 -16.4561 -69.2607 -43.4229 -91.1357
c26.9668 -21.875 43.4229 -55.1172 43.4229 -91.1357v-111.531c0 -29.457 23.8779 -53.333 53.334 -53.333h21.333c17.6729 0 32 -14.3271 32 -32s-14.3271 -32 -32 -32h-21.333c-64.8018 0 -117.334 52.5312 -117.334 117.333v111.531
c0 22.2334 -13.79 42.1328 -34.6064 49.9365l-29.9629 11.2383c-12.4893 4.68066 -20.7637 16.623 -20.7637 29.9609s8.27441 25.2803 20.7637 29.9609l29.9629 11.2383c20.8164 7.80371 34.6064 27.7031 34.6064 49.9365v111.531z" />
    <glyph glyph-name="collapse-arrow" unicode="&#xe92f;" 
d="M559.036 932.839l416.751 -574.025c9.8125 -17.0078 9.8125 -37.3164 0 -54.3232c-9.82227 -17.0078 -27.4092 -27.1611 -47.0449 -27.1611h-833.499c-19.6387 0 -37.2256 10.1533 -47.0449 27.1611c-9.82031 17.0068 -9.82031 37.3154 0 54.3232l416.748 574.025
c9.81836 17.0078 27.4053 27.1611 47.0449 27.1611c19.6387 0 37.2256 -10.1533 47.0449 -27.1611z" />
    <glyph glyph-name="collapse-main-nav" unicode="&#xe930;" 
d="M790.368 152.007l-307.199 281.603c-8.81641 8.08105 -13.8359 19.4922 -13.8359 31.4521c0 11.959 5.01953 23.3701 13.8359 31.4521l307.199 281.6c17.3691 15.9229 44.3584 14.749 60.2812 -2.62109c15.9238 -17.3701 14.752 -44.3604 -2.61719 -60.2822
l-272.891 -250.148l272.891 -250.149c17.3691 -15.9229 18.541 -42.9121 2.61719 -60.2812c-15.9229 -17.3701 -42.9121 -18.541 -60.2812 -2.62402zM491.703 152.007l-307.2 281.603c-8.81641 8.08105 -13.8359 19.4922 -13.8359 31.4521
c0 11.959 5.01953 23.3701 13.8359 31.4521l307.2 281.6c17.3701 15.9229 44.3594 14.749 60.2822 -2.62109s14.749 -44.3604 -2.62109 -60.2822l-272.889 -250.148l272.889 -250.149c17.3701 -15.9229 18.5439 -42.9121 2.62109 -60.2812
c-15.9229 -17.3701 -42.9121 -18.541 -60.2822 -2.62402z" />
    <glyph glyph-name="collapse-side" unicode="&#xe931;" 
d="M705.241 425.318l-170.615 -170.611c-12.4971 -12.4971 -32.7549 -12.4971 -45.252 0s-12.4971 32.7549 0 45.252l116.036 116.041h-488.077c-17.6729 0 -32 14.3271 -32 32s14.3271 32 32 32h488.077l-116.036 116.039c-12.4971 12.4971 -12.4971 32.7588 0 45.2549
c12.4971 12.4971 32.7549 12.4971 45.252 0l170.667 -170.668c12.4971 -12.4971 12.4971 -32.7549 0 -45.252zM938.667 849.066v-802.133c0 -17.6729 -14.3281 -32 -32 -32c-17.6729 0 -32 14.3271 -32 32v802.133c0 17.6729 14.3271 32 32 32c17.6719 0 32 -14.3271 32 -32
z" />
    <glyph glyph-name="community" unicode="&#xe932;" 
d="M726.187 397.227h65.707c80.8193 0 146.347 -65.5273 146.347 -146.347v-54.6133c0 -17.6729 -14.3281 -32 -32 -32c-17.6729 0 -32 14.3271 -32 32v54.6133c0 45.4746 -36.873 82.3467 -82.3467 82.3467h-65.707c-17.6729 0 -32 14.3271 -32 32s14.3271 32 32 32z
M571.307 556.375c0 70.457 57.1182 127.573 127.573 127.573c70.4561 0 127.573 -57.1172 127.573 -127.573c0 -70.457 -57.1172 -127.575 -127.573 -127.575c-70.4551 0 -127.573 57.1182 -127.573 127.575zM698.88 619.948
c-35.1104 0 -63.5732 -28.4629 -63.5732 -63.5732c0 -35.1123 28.4629 -63.5752 63.5732 -63.5752s63.5732 28.4629 63.5732 63.5752c0 35.1104 -28.4629 63.5732 -63.5732 63.5732zM149.333 214.187v-73.3867c0 -17.6719 -14.3271 -32 -32 -32s-32 14.3281 -32 32v73.3867
c0 103.006 83.4473 186.453 186.454 186.453h231.253c103.006 0 186.453 -83.4473 186.453 -186.453v-73.3867c0 -17.6719 -14.3271 -32 -32 -32s-32 14.3281 -32 32v73.3867c0 67.6611 -54.792 122.453 -122.453 122.453h-231.253
c-67.6611 0 -122.454 -54.792 -122.454 -122.453zM377.173 787.2c88.8369 0 160.854 -72.0156 160.854 -160.853s-72.0166 -160.854 -160.854 -160.854s-160.853 72.0176 -160.853 160.854s72.0156 160.853 160.853 160.853zM280.32 626.348
c0 -53.4912 43.3623 -96.8545 96.8525 -96.8545c53.4912 0 96.8535 43.3633 96.8535 96.8545c0 53.4902 -43.3623 96.8525 -96.8535 96.8525c-53.4902 0 -96.8525 -43.3623 -96.8525 -96.8525z" />
    <glyph glyph-name="confluence" unicode="&#xe933;" 
d="M986.932 714.972c-185.43 -301.608 -428.374 -310.867 -714.156 -172.373c-79.3604 38.1445 -167.51 79.8301 -211.84 100.736c-7.76562 3.55859 -13.8232 10.0225 -16.8711 18.002c-3.04883 7.97852 -2.84277 16.8359 0.572266 24.665l100.864 228.096
c1.75684 3.98926 4.29688 7.58496 7.46875 10.5752c3.17188 2.98926 6.91113 5.31348 10.9961 6.83301c4.08594 1.51953 8.43457 2.2041 12.7891 2.01367s8.62695 -1.25293 12.5645 -3.12305l210.688 -99.8828c152.023 -72.7041 236.46 -89.6006 320.343 48.8965
c10.624 17.3086 21.0645 34.7314 31.3174 52.2666c2.20996 3.71973 5.1377 6.96191 8.61426 9.53906c3.47363 2.57617 7.42871 4.43457 11.6309 5.46777c4.20312 1.03223 8.56836 1.21777 12.8389 0.545898c4.27539 -0.671875 8.375 -2.1875 12.0576 -4.45996
l211.797 -130.347c7.20703 -4.48438 12.3779 -11.6025 14.417 -19.8408c2.04004 -8.23828 0.785156 -16.9473 -3.49414 -24.2764c-9.94141 -16 -21.9727 -36.0527 -32.5967 -53.334zM37.127 181.043c185.771 301.739 428.418 310.912 715.01 172.374
c70.46 -33.9033 141.073 -67.4824 211.84 -100.736c7.76562 -3.55859 13.8193 -10.0225 16.8701 -18.001c3.04688 -7.9834 2.8418 -16.8369 -0.571289 -24.666l-100.864 -228.096c-1.75781 -3.99414 -4.30078 -7.59473 -7.47559 -10.5898
c-3.17383 -2.99512 -6.91602 -5.32031 -11.0078 -6.83984c-4.0918 -1.51855 -8.44336 -2.20117 -12.8037 -2.00977c-4.36035 0.192383 -8.63574 1.26367 -12.5742 3.14062l-211.499 99.7119c-152.021 72.832 -236.417 89.6426 -320.342 -48.8955
c-11.9043 -19.542 -22.7842 -37.9307 -31.2754 -52.0967c-2.20996 -3.71973 -5.1377 -6.96289 -8.61328 -9.54004c-3.47656 -2.57715 -7.43066 -4.4375 -11.6318 -5.46973c-4.20215 -1.03223 -8.56738 -1.21582 -12.8418 -0.545898
c-4.27441 0.673828 -8.37207 2.18848 -12.0537 4.46289l-211.841 130.304c-7.26758 4.49316 -12.4795 11.6611 -14.5146 19.96c-2.03418 8.29785 -0.729492 17.0664 3.63477 24.4131c9.94141 15.7871 21.9736 36.8213 32.5547 53.1201z" />
    <glyph glyph-name="copy-paste" unicode="&#xe934;" 
d="M698.681 528.875h40.8887v163.583c0 56.4561 -45.8037 102.194 -102.236 102.194h-53.1582v-40.874c0 -0.00488293 -1.51033e-06 -0.00976574 -1.51033e-06 -0.0146484h53.1582c33.9014 0 61.3477 -27.4277 61.3477 -61.3057v-163.583zM555.542 140.444v-40.8887h286.25
v40.8887h-286.25zM555.542 263.111v-40.8887h286.25v40.8887h-286.25zM862.208 -63.9863c33.8389 0 61.3613 27.4336 61.3613 61.3193v286.209c0 13.3496 -4.28125 26.1582 -12.2871 36.791c-0.0234375 0.0302734 -91.9922 122.656 -91.9922 122.656
c-11.6084 15.499 -29.7383 24.5801 -49.082 24.5801h-235.083c-33.8662 0 -61.3613 -27.4941 -61.3613 -61.3613v-408.875c0 -33.8857 27.5225 -61.3193 61.3613 -61.3193h327.083zM862.208 -23.0977h-327.083c-11.3281 0 -20.4727 9.15039 -20.4727 20.4307v408.875
c0 11.3008 9.17285 20.4727 20.4727 20.4727h235.083c6.40723 0 12.5273 -3.08496 16.335 -8.16992l92.0088 -122.677c2.66016 -3.53418 4.12891 -7.8916 4.12891 -12.292v-286.209c0 -11.2803 -9.14453 -20.4307 -20.4727 -20.4307zM535.108 864.178h-36.4546
c2.44369 -9.12832 3.74661 -18.7231 3.74661 -28.6221h-28.625v-28.6221h53.1582v8.17773h8.1748h49.0664c0 27.0986 -21.9688 49.0664 -49.0664 49.0664zM535.108 806.934c-4.51465 0 -8.1748 3.66113 -8.1748 8.17773h8.1748h49.0664v-20.459h-49.0498v-40.874v-0.0146484
h49.0498c-0.00791523 -38.3839 -31.126 -69.4961 -69.5078 -69.4961v57.2441h-245.335v-57.2441c-38.3857 0 -69.5038 31.1122 -69.5117 69.4961h28.6377v0.0146484v40.874h-28.6377v20.459h49.0664h8.17871c0 -4.5166 -3.66211 -8.17773 -8.17871 -8.17773h8.17871
v-53.1553c0 -6.77539 5.49121 -12.2666 12.2666 -12.2666v-57.2441h245.335v57.2441c6.77051 0 12.2666 5.49121 12.2666 12.2666v53.1553h8.1748zM199.82 753.764c0 0.00488269 -1.51033e-06 0.00976551 -1.51033e-06 0.0146484v40.874h-32.6953
c-56.4316 0 -102.236 -45.7383 -102.236 -102.194v-531.583c0 -56.4561 45.8047 -102.194 102.236 -102.194h245.333v40.8887h-245.333c-33.9014 0 -61.3477 27.4277 -61.3477 61.3057v531.583c0 33.8779 27.4463 61.3057 61.3477 61.3057h32.6953zM199.82 815.111h49.0664
h8.17871v-8.17773h53.1553v28.6221h-28.6221c0 9.89902 1.30286 19.4937 3.74646 28.6221h-36.4584c-27.0977 0 -49.0664 -21.9678 -49.0664 -49.0664zM285.345 864.178c12.6074 47.0964 55.5803 81.7773 106.653 81.7773c51.0735 0 94.0478 -34.681 106.656 -81.7773
h-24.8784v-28.6221v-28.6221h-28.6211v28.6221c0 29.3574 -23.7988 53.1553 -53.1562 53.1553s-53.1553 -23.7979 -53.1553 -53.1553v-28.6221h-28.6221v28.6221v28.6221h-24.8756z" />
    <glyph glyph-name="copy" unicode="&#xe935;" 
d="M225.707 810.667c-42.0605 0 -76.374 -34.3135 -76.374 -76.374v-436.479c0 -21.2314 8.46875 -40.4395 22.2002 -54.1738c12.4971 -12.4971 12.4971 -32.7559 0 -45.2529c-12.4961 -12.4971 -32.7578 -12.4971 -45.2539 0
c-25.5215 25.5195 -40.9463 60.9238 -40.9463 99.4268v436.479c0 77.4062 62.9678 140.374 140.374 140.374h436.479c43.6357 0 82.8506 -19.9229 108.74 -51.3223c11.2471 -13.6357 9.30566 -33.8037 -4.33008 -45.0469
c-13.6367 -11.2432 -33.8008 -9.30371 -45.0479 4.33105c-14.2168 17.2412 -35.584 28.0381 -59.3623 28.0381h-436.479zM221.44 598.187c0 77.4062 62.9668 140.373 140.373 140.373h436.479c77.4062 0 140.374 -62.9668 140.374 -140.373v-436.479
c0 -77.4062 -62.9678 -140.374 -140.374 -140.374h-436.479c-77.4062 0 -140.373 62.9678 -140.373 140.374v436.479zM361.813 674.56c-42.0605 0 -76.373 -34.3125 -76.373 -76.373v-436.479c0 -42.0615 34.3125 -76.374 76.373 -76.374h436.479
c42.0615 0 76.374 34.3125 76.374 76.374v436.479c0 42.0605 -34.3125 76.373 -76.374 76.373h-436.479z" />
    <glyph glyph-name="credit-card" unicode="&#xe936;" 
d="M208.317 331.128c0 17.6719 14.3271 32 32 32h46.126c17.6729 0 32 -14.3281 32 -32c0 -17.6729 -14.3271 -32 -32 -32h-46.126c-17.6729 0 -32 14.3271 -32 32zM906.667 545.901h-789.334v-253.52c0 -19.0381 7.56348 -37.2949 21.0254 -50.7607
c13.4619 -13.4609 31.7207 -21.0215 50.7588 -21.0215h645.737c9.4082 0.00878906 18.7217 1.83887 27.4307 5.39746c17.583 7.41504 31.5732 21.4053 38.9844 38.9883c3.55859 8.7041 5.38867 18.0186 5.39746 27.4219v253.494zM970.667 577.935v-0.0332031v-0.0341797
v-285.511c-0.0175781 -17.7666 -3.49512 -35.3584 -10.2402 -51.793l-0.09375 -0.235352c-13.9092 -33.1348 -40.2607 -59.4893 -73.3994 -73.3945l-0.230469 -0.0986328c-16.4355 -6.74512 -34.0566 -10.2227 -51.8193 -10.2354h-645.767
c-36.0117 0 -70.5498 14.3057 -96.0137 39.7695c-25.4648 25.4639 -39.7705 60.002 -39.7705 96.0127v361.168c0 36.0117 14.3057 70.5488 39.7705 96.0137c25.4639 25.4639 60.002 39.7695 96.0137 39.7695h645.767c36.0107 0 70.5498 -14.3057 96.0137 -39.7695
c25.4629 -25.4648 39.7695 -60.002 39.7695 -96.0137v-75.6152zM189.117 725.333c-19.0381 0 -37.2969 -7.5625 -50.7588 -21.0244s-21.0254 -31.7207 -21.0254 -50.7588v-43.6484h789.334v43.6484c0 19.0381 -7.56543 37.2969 -21.0264 50.7588
s-31.7188 21.0244 -50.7568 21.0244h-645.767z" />
    <glyph glyph-name="crown" unicode="&#xe937;" 
d="M181.333 170.667c0 17.6719 14.3271 32 32 32h597.334c17.6719 0 32 -14.3281 32 -32c0 -17.6729 -14.3281 -32 -32 -32h-597.334c-17.6729 0 -32 14.3271 -32 32zM512 725.825l-121.692 -208.615c-4.86523 -8.3418 -13.2373 -14.0381 -22.7812 -15.5059
c-9.54492 -1.46777 -19.2402 1.45508 -26.3857 7.94922l-164.756 149.78l63.6553 -350.101h543.922l63.6543 350.101l-164.758 -149.78c-7.14648 -6.49414 -16.8398 -9.41699 -26.3848 -7.94922s-17.916 7.16406 -22.7793 15.5059zM512 821.333
c11.3789 0 21.9053 -6.04492 27.6396 -15.876l129.416 -221.855l205.419 186.743c10.1504 9.22754 25.0498 10.959 37.0479 4.30566c11.9932 -6.65332 18.415 -20.2129 15.9609 -33.708l-85.333 -469.335c-2.76465 -15.2148 -16.0166 -26.2744 -31.4834 -26.2744h-597.334
c-15.4648 0 -28.7178 11.0596 -31.4834 26.2744l-85.334 469.335c-2.45312 13.4951 3.96777 27.0547 15.9629 33.708s26.8965 4.92188 37.0469 -4.30566l205.418 -186.743l129.417 221.855c5.73438 9.83105 16.2559 15.876 27.6396 15.876z" />
    <glyph glyph-name="database" unicode="&#xe938;" 
d="M247.04 147.627c-9.38672 9.38672 -14.9336 21.7598 -14.9336 34.5596c0 0.499671 0.00780294 0.999336 0.0234077 1.499c-0.0155745 0.494497 -0.023407 0.990311 -0.0234077 1.48733c0 12.8008 5.54688 25.6006 14.9336 34.5605
c18.3467 18.7734 51.2002 18.7734 69.5469 0c9.38672 -8.95996 14.5068 -21.7598 14.5068 -34.5605c0 -3.03471 -0.269539 -6.0245 -0.798307 -8.94358c-1.33215 -10.6352 -6.21484 -20.6819 -14.1353 -28.6023c-8.95996 -9.81348 -21.333 -14.9336 -34.5596 -14.9336
c-12.7998 0 -25.6006 5.54688 -34.5605 14.9336zM611.413 182.187c0 17.6729 14.3281 32 32 32h131.84c17.6729 0 32 -14.3271 32 -32c0 -17.6768 -14.3271 -32 -32 -32h-131.84c-17.6719 0 -32 14.3232 -32 32zM244.48 281.6
c-52.7275 0 -95.5742 -42.8457 -95.5742 -95.5732v-8.5332c0 -52.7275 42.8467 -95.5732 95.5742 -95.5732h534.613c52.7266 0 95.5732 42.8457 95.5732 95.5732v8.5332c0 52.7275 -42.8467 95.5732 -95.5732 95.5732h-534.613zM247.04 412.16
c-9.38672 9.38672 -14.9336 21.7598 -14.9336 34.5596c0 6.40039 1.28027 12.7998 3.83984 19.2002c0.293301 0.684257 0.597788 1.36291 0.914104 2.03469c2.50165 5.9016 5.77748 11.0298 10.1796 15.0317c4.2666 4.2666 9.81348 8.10742 15.7871 10.2402
c8.95996 3.83984 18.7725 5.12012 28.5859 2.98633c2.98633 -0.425781 5.97363 -1.70605 9.38672 -2.98633c2.55957 -0.853516 5.54688 -2.55957 8.5332 -4.2666c2.56055 -1.70703 5.12109 -3.83984 7.25391 -5.97363c4.2666 -5.12012 8.10645 -9.81348 10.667 -16.2129
c2.55957 -5.97363 3.41309 -12.373 3.41309 -18.7734c0 -0.2135 -0.00400256 -0.426778 -0.00400256 -0.639825c0 -0.213254 0.00400256 -0.42674 0.00400256 -0.640449c0 -12.7998 -5.12012 -25.1729 -14.5068 -34.5596
c-8.95996 -9.81348 -21.333 -14.9336 -34.5596 -14.9336c-12.7998 0 -25.6006 5.54688 -34.5605 14.9336zM611.413 446.72c0 17.6729 14.3281 32 32 32h131.84c17.6729 0 32 -14.3271 32 -32c0 -17.6719 -14.3271 -32 -32 -32h-131.84c-17.6719 0 -32 14.3281 -32 32z
M244.48 546.133c-52.7275 0 -95.5742 -42.8457 -95.5742 -95.5732v-8.5332c0 -52.7275 42.8467 -95.5732 95.5742 -95.5732h534.613c52.7266 0 95.5732 42.8457 95.5732 95.5732v8.5332c0 52.7275 -42.8467 95.5732 -95.5732 95.5732h-534.613zM247.04 676.694
c-9.38672 9.38672 -14.9336 21.7598 -14.9336 34.5596c0 6.39941 1.28027 12.7998 3.83984 19.2002c2.56055 5.97266 5.97363 11.5205 10.667 15.7871c4.2666 4.2666 9.8125 8.5332 15.7861 10.666c8.95996 3.41406 18.7744 4.69336 28.5879 2.56055
c2.12305 -0.303711 4.46191 -1.03809 6.70898 -1.74414c0.914062 -0.287109 1.81348 -0.569336 2.67773 -0.816406c1.49316 -0.639648 2.87891 -1.38672 4.26562 -2.13281c1.38672 -0.74707 2.77344 -1.49414 4.2666 -2.13379
c0.675781 -0.563477 1.35254 -1.09668 2.02051 -1.625c1.8623 -1.46973 3.66309 -2.89062 5.2334 -4.77441c9.38672 -9.38672 14.5068 -21.7607 14.5068 -34.9873c0 -12.7998 -5.12012 -25.1729 -14.5068 -34.5596c-8.95996 -9.81348 -21.333 -14.9336 -34.5596 -14.9336
c-12.7998 0 -25.6006 5.54688 -34.5605 14.9336zM611.413 711.253c0 17.6729 14.3281 32 32 32h131.84c17.6729 0 32 -14.3271 32 -32c0 -17.6738 -14.3271 -32 -32 -32h-131.84c-17.6719 0 -32 14.3262 -32 32zM244.48 810.667
c-52.7275 0 -95.5742 -42.8467 -95.5742 -95.5742v-8.5332c0 -52.7266 42.8467 -95.5723 95.5742 -95.5723h534.613c52.7266 0 95.5732 42.8457 95.5732 95.5723v8.5332c0 52.7275 -42.8467 95.5742 -95.5732 95.5742h-534.613zM84.9062 715.093
c0 88.0732 71.501 159.574 159.574 159.574h534.613c88.0723 0 159.573 -71.501 159.573 -159.574v-8.5332c0 -52.3806 -25.291 -98.8987 -64.3175 -128c39.0265 -29.1016 64.3175 -75.6201 64.3175 -128v-8.5332c0 -52.3799 -25.2908 -98.8983 -64.3171 -128
c39.0263 -29.1014 64.3171 -75.6197 64.3171 -128v-8.5332c0 -88.0723 -71.501 -159.573 -159.573 -159.573h-534.613c-88.0723 0 -159.574 71.4971 -159.574 159.573v8.5332c0 52.3806 25.2909 98.8989 64.3175 128c-39.0264 29.1016 -64.3175 75.6199 -64.3175 128v8.5332
c0 52.3807 25.291 98.8991 64.3177 128c-39.0265 29.1011 -64.3177 75.6191 -64.3177 128v8.5332z" />
    <glyph glyph-name="delete-pending" unicode="&#xe939;" 
d="M761.135 281.187l0.725586 -79.1768l60.877 -19.8525c16.8018 -5.47852 25.9795 -23.5439 20.501 -40.3457c-5.48242 -16.8027 -23.543 -25.9805 -40.3457 -20.502l-82.0781 26.7695c-1.90625 0.576172 -3.74121 1.32715 -5.47754 2.23145
c-5.03906 2.60254 -9.16504 6.43848 -12.1182 10.999c-1.87695 2.88477 -3.29785 6.09277 -4.16797 9.51953c-0.700195 2.73926 -1.03711 5.58887 -0.985352 8.47363l-0.925781 101.299c-0.162109 17.6729 14.0322 32.1279 31.7051 32.29s32.1328 -14.0332 32.29 -31.7051z
M945.28 319.727c70.54 -122.18 28.6807 -278.412 -93.5 -348.957c-122.185 -70.541 -278.417 -28.6768 -348.958 93.5039c-70.541 122.18 -28.6758 278.412 93.5039 348.957c122.181 70.541 278.413 28.6768 348.954 -93.5039zM628.326 357.803
c-91.5713 -52.8682 -122.943 -169.958 -70.0752 -261.529s169.958 -122.944 261.529 -70.0762s122.944 169.958 70.0762 261.529c-52.8691 91.5713 -169.959 122.944 -261.53 70.0762zM362.667 785.92h198.826v67.4131h-198.826v-67.4131zM330.667 917.333h262.826
c17.6729 0 32 -14.3271 32 -32v-99.4141h193.28c17.6729 0 32 -14.3262 32 -32c0 -17.6729 -14.3271 -32 -32 -32h-55.4668v-188.586c0 -17.6719 -14.3271 -32 -32 -32c-17.6768 0 -32 14.3281 -32 32v188.586h-462.083v-494.506
c0 -54.8604 44.5537 -99.4131 99.4141 -99.4131h46.0781c17.6729 0 32 -14.3271 32 -32s-14.3271 -32 -32 -32h-46.0781c-90.207 0 -163.414 73.207 -163.414 163.413v494.506h-55.8906c-17.6729 0 -32 14.3271 -32 32c0 17.6738 14.3271 32 32 32h181.334v99.4141
c0 17.6729 14.3271 32 32 32z" />
    <glyph glyph-name="demo-avatar" unicode="&#xe93a;" 
d="M640 138.667v-42.667h36.9591c-7.37725 -12.7531 -21.1661 -21.333 -36.9591 -21.333h-85.333c-23.5654 0 -42.667 19.1016 -42.667 42.666c0 23.5654 19.1016 42.667 42.667 42.667h85.333c15.7929 0 29.5816 -8.57981 36.9589 -21.333h-36.9589zM928 469.333h-64v-64
c0 194.404 -157.594 352 -352 352c-194.404 0 -352 -157.596 -352 -352c0 -1.58978 0.0106625 -3.1764 0.0317461 -4.76036c-1.61665 5.01578 -4.03861 8.5183 -7.90186 12.3063c-15.0059 14.7119 -40.5566 11.4355 -50.8467 -7.94043
c-3.07705 -5.79379 -4.08904 -10.4712 -4.57424 -24.0786c-0.470454 8.10149 -0.708967 16.262 -0.708967 24.4731c0 3.17871 0.0361328 6.34961 0.106445 9.51465c-6.1582 -1.39453 -11.2197 -3.9082 -14.8389 -6.77539
c-5.46777 -4.32617 -6.60059 -8.33301 -6.60059 -10.709v50.6367c0 9.20243 0.28414 18.3384 0.844127 27.3997c8.89069 2.6438 18.0852 4.17376 27.1568 4.52318c35.1484 194.156 205.044 341.41 409.332 341.41c204.263 0 374.14 -147.216 409.318 -341.333h17.3486
c3.28205 0 6.46911 -0.215195 9.55849 -0.629172c0.734184 -10.3613 1.10752 -20.8224 1.10752 -31.3708v-52.5137c0 7.62012 -2.53027 13.5078 -5.33301 16.9551c-2.74805 3.38379 -4.8125 3.55859 -5.33301 3.55859h-10.667v53.333zM682.667 277.333
c0 -23.5645 -19.1025 -42.666 -42.667 -42.666s-42.667 19.1016 -42.667 42.666c0 23.5654 19.1025 42.667 42.667 42.667s42.667 -19.1016 42.667 -42.667zM384 234.667c-23.5645 0 -42.667 19.1016 -42.667 42.666c0 23.5654 19.1025 42.667 42.667 42.667
s42.667 -19.1016 42.667 -42.667c0 -23.5645 -19.1025 -42.666 -42.667 -42.666zM762.997 99.6946c-63.203 -54.5419 -151.405 -89.0276 -250.997 -89.0276c-198.658 0 -352 137.217 -352 297.125c0 3.14474 0.0931169 11.0257 0.691782 20.6532
c-15.3047 3.99441 -30.6934 9.80345 -46.0805 17.6925l-15.8916 8.14453l-1.40918 17.8057c-0.230695 2.916 -0.431326 5.84013 -0.60158 8.772c-0.189421 -5.31229 -0.298554 -11.9856 -0.418928 -20.6177c-0.302734 -21.7217 -0.290039 -45.6006 -0.290039 -52.4502
c0 -28.9704 3.85709 -57.0081 11.1233 -83.792h42.2097v-64h-17.2845c65.5987 -127.199 213.202 -213.333 379.951 -213.333c166.749 0 314.353 86.1337 379.951 213.333h-17.2845v7.32652c13.5841 16.7882 24.3953 35.9118 31.7362 56.6735h10.4735
c7.26623 26.7839 11.1233 54.8216 11.1233 83.792v97.541c0 -15.8164 -0.882812 -31.4404 -2.60645 -46.8174l-2.50977 -22.3662l-21.8916 -5.20508c-0.393046 -0.0934048 -0.786336 -0.185852 -1.17987 -0.277344h-25.1453v-4.53345
c-3.54239 -0.462015 -7.09871 -0.854428 -10.667 -1.17908v-17.1625c0 -44.3758 -11.809 -87.0041 -33.1183 -125.437c-27.0195 -26.9945 -64.3328 -43.6876 -105.549 -43.6876h-48.3741c3.63031 -6.27575 5.70806 -13.5621 5.70806 -21.334
c0 -7.77144 -2.07768 -15.0575 -5.70789 -21.333h48.3739c12.8904 0 25.4845 1.27104 37.6639 3.6946zM160.692 328.445c0.574233 9.23457 1.61359 20.076 3.48205 29.8859c-0.83567 18.104 -1.35041 29.2208 -2.83582 37.0035
c55.2171 -20.6435 112.4 -7.11136 168.663 24.8851c62.5225 35.5586 118.413 91.1016 158.413 134.737l28.9707 31.6045l22.0586 -36.7646c27.7119 -46.1895 83.4219 -93.3955 149.893 -125.123c58.1885 -27.7715 120.409 -41.6934 174.306 -35.4092
c0.239258 5.3252 0.358398 10.6797 0.358398 16.0684v-80.3786c-67.6096 -6.15138 -139.512 12.0221 -202.231 41.9616c-60.0615 28.668 -115.294 69.8203 -153.233 116.131c-38.9375 -39.9238 -89.668 -85.9141 -146.896 -118.46
c-59.2643 -33.7038 -129.184 -54.8716 -200.948 -36.1417zM928 405.333v10.667h-0.131836c0.0849609 -3.5459 0.131836 -7.09961 0.131836 -10.667zM949.333 320h64v-75.4863c0 -40.1484 -27.541 -84.5137 -74.666 -84.5137h-46.7155
c10.4919 20.3443 18.886 41.7391 24.9252 64h21.7903c0.520508 0 2.58496 0.174805 5.33301 3.55859c2.80273 3.44727 5.33301 9.33496 5.33301 16.9551v75.4863zM1013.33 395.486v52.5137c0 276.861 -224.472 501.333 -501.333 501.333
s-501.333 -224.472 -501.333 -501.333v-50.6367c0 40.3663 30.1023 67.7053 64.8441 78.0364c14.1392 228.789 204.136 409.933 436.489 409.933c231.007 0 420.147 -179.052 436.225 -405.962c41.2691 -5.53007 65.1075 -46.5322 65.1075 -83.8845zM10.667 320h64v-77.3633
c0 -2.37598 1.13281 -6.38281 6.60059 -10.709c5.52051 -4.36914 14.3945 -7.92773 25.3994 -7.92773h0.456328c6.03918 -22.2609 14.4333 -43.6557 24.9252 -64h-25.3815c-45.6279 0 -96 30.417 -96 82.6367v77.3633zM161.338 395.335
c-0.368941 1.93305 -0.797764 3.66041 -1.30626 5.23805c0.0212408 -1.59577 0.0530588 -3.18883 0.095207 -4.77968c0.403578 -0.154623 0.807263 -0.307411 1.21105 -0.458372z" />
    <glyph glyph-name="dev" unicode="&#xe93b;" 
d="M587.797 703.138c8.82812 -1.87305 16.4531 -6.5498 21.2656 -13.0479c4.81738 -6.49707 6.44727 -14.3096 4.54785 -21.7959l-134.549 -453.94c-1.91602 -6.375 -6.29785 -12.0322 -12.459 -16.0771c-6.16113 -4.04883 -13.751 -6.25488 -21.5723 -6.27637h-8.60547
c-4.49707 0.925781 -8.73438 2.58594 -12.4658 4.88574c-3.73242 2.30371 -6.8877 5.2002 -9.28516 8.52832c-2.39844 3.32812 -3.99219 7.01855 -4.68945 10.8672c-0.696289 3.84473 -0.484375 7.76953 0.625977 11.5459l134.55 453.616
c1.10156 3.77832 3.07617 7.33887 5.81543 10.4756s6.1875 5.78809 10.1465 7.80371c3.96387 2.01562 8.3584 3.35449 12.9326 3.93945c4.57812 0.585938 9.24512 0.408203 13.7422 -0.524414zM908.544 501.086v-0.985352c4.01953 -3.0127 7.30859 -7.05273 9.5791 -11.7725
c2.27344 -4.71875 3.45996 -9.9707 3.45996 -15.3037c0 -5.3291 -1.18652 -10.582 -3.45996 -15.3008c-2.27051 -4.71875 -5.55957 -8.75977 -9.5791 -11.7715l-195.789 -146.035c-6.56641 -4.79199 -14.5879 -6.55762 -22.3311 -4.91992
c-7.74902 1.64258 -14.5879 6.55371 -19.0469 13.6787c-4.45898 7.12598 -6.16992 15.8809 -4.76562 24.3799c1.40332 8.49512 5.80664 16.043 12.2627 21.0098l159.509 119.125l-159.509 119.124c-6.64355 4.91797 -11.2256 12.5205 -12.7451 21.1367
c-1.51855 8.61621 0.15332 17.5391 4.64648 24.8066s11.4395 12.2842 19.3105 13.9453c7.87207 1.66211 16.0264 -0.166992 22.6689 -5.08496zM352.868 638.512c2.31738 -3.58301 3.95703 -7.63867 4.82129 -11.9277s0.93457 -8.72461 0.208008 -13.0439
s-2.23535 -8.43457 -4.43848 -12.1045c-2.20215 -3.66895 -5.05371 -6.81641 -8.38477 -9.25684l-159.477 -118.626l159.477 -118.954c3.30078 -2.41113 6.13086 -5.52148 8.32812 -9.14355c2.19629 -3.61816 3.71582 -7.68457 4.46875 -11.9551
c0.75293 -4.2666 0.725586 -8.66113 -0.0800781 -12.9199c-0.806641 -4.25781 -2.37695 -8.29883 -4.61816 -11.8867c-2.24219 -3.58789 -5.11133 -6.65137 -8.44238 -9.01562c-3.33008 -2.36328 -7.05566 -3.97656 -10.959 -4.75293
c-3.90527 -0.772461 -7.91016 -0.686523 -11.7842 0.24707c-3.875 0.93457 -7.54102 2.70508 -10.7871 5.20996l-195.748 146.228c-4.01855 3.0166 -7.30566 7.06055 -9.57715 11.7842s-3.45801 9.98438 -3.45801 15.3262c0 5.33691 1.18652 10.5977 3.45801 15.3213
s5.55859 8.76758 9.57715 11.7842l195.748 146.229c6.55957 4.92383 14.6338 6.78906 22.4482 5.1875c7.81348 -1.60254 14.7266 -6.54102 19.2197 -13.7305z" />
    <glyph glyph-name="discard" unicode="&#xe93c;" 
d="M535.514 447.629l-52.8252 -57.2285h234.111c103.177 0 185.601 -80.6445 185.601 -179.2c0 -98.9785 -86.0635 -179.2 -185.601 -179.2c-17.6719 0 -32 14.3271 -32 32s14.3281 32 32 32c66.8633 0 121.601 54.1777 121.601 115.2
c0 61.4443 -51.9814 115.2 -121.601 115.2h-229.947l47.7734 -47.7744c12.4971 -12.4971 12.4971 -32.7549 0 -45.252s-32.7549 -12.4971 -45.252 0l-102.31 102.306c-2.41797 2.39355 -4.37695 5.09082 -5.87109 7.96582
c-4.45898 8.58105 -4.76953 18.7568 -0.931641 27.5586c1.41602 3.24707 3.39648 6.30664 5.94238 9.02832l102.282 110.806c11.9893 12.9873 32.2344 13.7979 45.2178 1.80859c12.9883 -11.9893 13.7988 -32.2305 1.80957 -45.2178zM256 885.333h300.894
c35.1963 0 68.5273 -15.7959 90.8125 -43.0332l147.105 -179.794c17.1523 -20.9629 26.5215 -47.2148 26.5215 -74.2998v-76.2061c0 -17.6729 -14.3271 -32 -32 -32c-17.6719 0 -32 14.3271 -32 32v76.2061c0 12.3115 -4.25781 24.2432 -12.0576 33.7725l-147.102 179.794
c-10.1289 12.3809 -25.2803 19.5605 -41.2803 19.5605h-300.894c-29.4551 0 -53.333 -23.8779 -53.333 -53.333v-618.667c0 -29.457 23.8779 -53.333 53.333 -53.333h277.333c17.6729 0 32 -14.3271 32 -32s-14.3271 -32 -32 -32h-277.333
c-64.8018 0 -117.333 52.5312 -117.333 117.333v618.667c0 64.8018 52.5312 117.333 117.333 117.333z" />
    <glyph glyph-name="doc-empty" unicode="&#xe93d;" 
d="M768.168 673.231l-123.88 111.492v-137.896h141.465c-3.5166 10.0322 -9.51465 19.1406 -17.585 26.4033zM234.688 704v-512c0 -58.9111 47.7568 -106.667 106.666 -106.667h10.6465c17.6738 0 32 -14.3271 32 -32c0 -17.6719 -14.3262 -32 -32 -32h-10.6465
c-94.2559 0 -170.666 76.4082 -170.666 170.667v512c0 94.2568 76.4102 170.667 170.666 170.667h249.549c31.6211 0 62.124 -11.7051 85.6279 -32.8584l134.451 -121.007c26.9717 -24.2744 42.3691 -58.8545 42.3691 -95.1416v-163.496
c0 -17.6738 -14.3232 -32 -31.9961 -32s-32 14.3262 -32 32v120.664h-177.066c-17.6738 0 -32 14.3271 -32 32v195.839h-238.935c-58.9092 0 -106.666 -47.7559 -106.666 -106.667z" />
    <glyph glyph-name="doc-file-change" unicode="&#xe93e;" 
d="M401.066 245.333h213.334c17.6719 0 32 -14.3271 32 -32c0 -17.6719 -14.3281 -32 -32 -32h-213.334c-17.6729 0 -32 14.3281 -32 32c0 17.6729 14.3271 32 32 32zM507.733 288c-17.6729 0 -32 14.3271 -32 32v74.667h-74.667c-17.6729 0 -32 14.3271 -32 32
c0 17.6719 14.3271 32 32 32h74.667v74.666c0 17.6729 14.3271 32 32 32s32 -14.3271 32 -32v-74.666h74.667c17.6719 0 32 -14.3281 32 -32c0 -17.6729 -14.3281 -32 -32 -32h-74.667v-74.667c0 -17.6729 -14.3271 -32 -32 -32zM170.667 711.254
c0 82.8604 53.8975 163.413 135.33 163.413h292.569c38.8564 0 73.9629 -19.3936 98.4785 -50.7617l119.433 -140.374c24.2432 -31.0283 36.8555 -71.459 36.8555 -112.651v-385.707c0 -82.2646 -53.3369 -163.413 -135.33 -163.413h-412.006
c-81.5479 0 -135.33 81.5537 -135.33 163.413v526.081zM765.598 644.255l-119.433 140.374c-5.87891 7.52441 -12.3047 13.291 -18.9648 17.4619v-172.33h147.741c-2.76465 5.22461 -5.89648 10.0791 -9.34375 14.4941zM305.997 810.667
c-29.5518 0 -65.0049 -31.0303 -70.2314 -85.4805c-0.430664 -4.4873 -0.65625 -9.13281 -0.65625 -13.9326v-526.081c0 -62.3525 39.0156 -99.4131 70.8877 -99.4131h412.006c32.2861 0 70.8867 36.6123 70.8867 99.4131v380.588h-193.689c-17.6729 0 -32 14.3271 -32 32
v197.5v15.4062h-257.203z" />
    <glyph glyph-name="doc-general" unicode="&#xe93f;" 
d="M224 661.333c0 17.6729 14.3271 32 32 32h192c17.6729 0 32 -14.3271 32 -32s-14.3271 -32 -32 -32h-192c-17.6729 0 -32 14.3271 -32 32zM224 448c0 17.6729 14.3271 32 32 32h512c17.6729 0 32 -14.3271 32 -32s-14.3271 -32 -32 -32h-512
c-17.6729 0 -32 14.3271 -32 32zM224 234.667c0 17.6719 14.3271 32 32 32h512c17.6729 0 32 -14.3281 32 -32c0 -17.6729 -14.3271 -32 -32 -32h-512c-17.6729 0 -32 14.3271 -32 32z" />
    <glyph glyph-name="doc-lock" unicode="&#xe940;" 
d="M785.732 646.828c-3.51562 10.0322 -9.51465 19.1396 -17.5869 26.4023l-123.879 111.493v-137.896h141.466zM234.667 192c0 -58.9102 47.7559 -106.667 106.666 -106.667h117.334c17.6719 0 32 -14.3271 32 -32c0 -17.6719 -14.3281 -32 -32 -32h-117.334
c-94.2559 0 -170.666 76.4121 -170.666 170.667v512c0 94.2568 76.4102 170.667 170.666 170.667h249.549c31.6201 0 62.123 -11.7051 85.6279 -32.8584l134.451 -121.007c26.9697 -24.2744 42.3721 -58.8555 42.3721 -95.1416v-270.161c0 -17.6768 -14.3271 -32 -32 -32
c-3.25982 0 -6.40587 0.487376 -9.36919 1.39327c8.9888 -18.7366 14.0245 -39.7262 14.0245 -61.8864v-1.87165c24.7365 -13.1386 41.583 -39.1649 41.583 -69.1254v-142.226c0 -43.2002 -35.0254 -78.2207 -78.2256 -78.2207v42.667h-213.333v-42.667
c-43.2002 0 -78.2207 35.0205 -78.2207 78.2207v142.226h42.667c0 19.6348 15.9189 35.5537 35.5537 35.5537h-36.668v33.5576c-24.7206 -13.1431 -41.5527 -39.1615 -41.5527 -69.1113h42.667h35.5537h3.61426h2.38477v35.5537h-2.38477v-35.5537h2.38477v35.5537h-2.38477
v35.4434c0 2.42833 0.0841442 4.83712 0.249674 7.22363h-3.86393c-11.7428 0 -22.8812 -2.58757 -32.8761 -7.22363c-1.28318 -0.595192 -2.54752 -1.22415 -3.79186 -1.88573v1.88573c0 79.125 64.2012 143.326 143.322 143.326
c42.3486 0 80.4227 -18.3923 106.666 -47.6211v224.117h-177.066c-17.6729 0 -32 14.3271 -32 32v195.839h-238.934c-58.9102 0 -106.666 -47.7568 -106.666 -106.667v-512zM682.667 280.717c-7.18 0 -13.3877 -4.31775 -16.1614 -10.4873h32.3212
c0.993121 -2.20832 1.54624 -4.65389 1.54624 -7.22363c13.4274 0 26.8548 0.00184396 40.2822 0.00184396l-7.21798e-09 0.00021833c-13.4274 0 -26.8548 0.00184396 -40.2822 0.00184396v-0.00390625v-35.4434h40.2822v35.4434l-2.87772e-08 0.00184396
l2.87772e-08 1.3074e-12v0.00021833l-3.59952e-08 1.64846e-12c0 2.44521 -0.15198 4.85538 -0.44676 7.22157h2.40306c-3.57467 29.9148 -29.0779 53.1543 -59.9446 53.1543v-2.38574v-40.2812zM682.667 280.717c7.17641 0 13.3853 -4.31775 16.1598 -10.4873h41.3817
c-3.56237 28.5951 -27.9922 50.7686 -57.5415 50.7686v-40.2812zM782.238 49.7832v7.11328h-199.113v-7.11328c0 3.92969 -3.18262 7.11328 -7.1123 7.11328v-7.11328v-35.5537v-42.667h213.333v42.667v35.5537v7.11328c-3.9248 0 -7.10742 -3.18359 -7.10742 -7.11328z
M783.321 263.01v7.21984h2.1363c0.165376 -2.38524 0.249441 -4.79273 0.249441 -7.21973c-0.795247 0 -1.59049 -0.00010921 -2.38574 -0.00010921v-0.00184389c2.00814 0 4.01628 -0.000275777 6.02441 -0.000275777v7.22196h-3.88811
c-3.71009 53.5112 -48.3435 95.8203 -102.791 95.8203v-2.38477c55.5593 0 100.652 -45.0966 100.654 -100.655zM783.321 263.006v-0.00010921v-35.4434h2.38574v-35.5537v-6.11108c1.06443 -0.635914 2.30895 -1.00123 3.63867 -1.00123v7.1123v35.5537v35.4434h-3.63867
c-0.795247 0 -1.59049 0.00010921 -2.38574 0.00010921zM579.627 184.896h2.38477v3.28871c-0.601958 -0.942836 -1.42012 -1.7341 -2.38477 -2.30405v-0.984666zM785.707 263.006h-2.38574v-35.4434h2.38574v35.4434z" />
    <glyph glyph-name="doc-needs-review" unicode="&#xe941;" 
d="M672 120.534c11.0459 0 20 8.95508 20 20c0 11.0459 -8.9541 20 -20 20s-20 -8.9541 -20 -20c0 -11.0449 8.9541 -20 20 -20zM672 331.467c-11.0459 0 -20 -8.9541 -20 -19.999v-97.6016c0 -11.0449 8.9541 -19.999 20 -19.999s20 8.9541 20 19.999v97.6016
c0 11.0449 -8.9541 19.999 -20 19.999zM410.921 92.3564l216.041 375.306c18.6709 37.7842 71.252 37.7842 89.9219 0l216.04 -375.306c17.5273 -35.0293 -7.23633 -76.3564 -44.9619 -76.3564h-432.08c-37.7217 0 -62.1064 41.7197 -44.9609 76.3564zM768.168 673.231
l-123.88 111.492v-137.896h141.465c-3.5166 10.0322 -9.51465 19.1406 -17.585 26.4033zM234.688 704v-512c0 -58.9111 47.7568 -106.667 106.666 -106.667h10.6465c17.6738 0 32 -14.3271 32 -32c0 -17.6719 -14.3262 -32 -32 -32h-10.6465
c-94.2559 0 -170.666 76.4082 -170.666 170.667v512c0 94.2568 76.4102 170.667 170.666 170.667h249.549c31.6211 0 62.124 -11.7051 85.6279 -32.8584l134.451 -121.007c26.9717 -24.2744 42.3691 -58.8545 42.3691 -95.1416v-163.496
c0 -17.6738 -14.3232 -32 -31.9961 -32s-32 14.3262 -32 32v120.664h-177.066c-17.6738 0 -32 14.3271 -32 32v195.839h-238.935c-58.9092 0 -106.666 -47.7559 -106.666 -106.667z" />
    <glyph glyph-name="doc-read" unicode="&#xe942;" 
d="M791.868 622.933l-139.085 173.854l-0.00878906 -173.854h139.094zM474.048 264.533c-2.59375 -13.8877 -4.14746 -28.1387 -4.58691 -42.667h-111.072c-11.7822 0 -21.333 9.54883 -21.333 21.334c0 11.7803 9.55078 21.333 21.333 21.333h115.659zM515.716 366.934
c-8.95996 -13.4443 -16.7715 -27.7119 -23.3086 -42.667h-134.019c-11.7822 0 -21.333 9.54883 -21.333 21.333c0 11.7803 9.55078 21.334 21.333 21.334h157.327zM290.122 878.933h341.332c6.48047 0 12.6123 -2.94629 16.6611 -8.00684l204.8 -256
c3.02539 -3.78223 4.67188 -8.48242 4.67188 -13.3262v-134.007c-13.6787 5.97754 -27.9375 10.8838 -42.666 14.6084v98.0645h-183.479c-5.66211 0 -11.085 2.24805 -15.0869 6.24902c-4.00293 4.00098 -6.25098 9.42773 -6.24707 15.0859l0.0126953 234.665h-319.998
c-16.9736 0 -33.252 -6.74316 -45.2549 -18.7451c-12.002 -12.002 -18.7451 -28.2812 -18.7451 -45.2549v-631.466c0 -16.9727 6.74316 -33.2539 18.7451 -45.2559c12.0029 -12.0029 28.2812 -18.7441 45.2549 -18.7441h215.09
c8.59668 -15.1719 18.5811 -29.4521 29.7812 -42.666h-244.871c-28.2891 0 -55.4209 11.2383 -75.4238 31.2402c-20.0039 20.002 -31.2422 47.1338 -31.2422 75.4258v631.466c0 28.29 11.2383 55.4209 31.2422 75.4248c20.0029 20.0039 47.1348 31.2422 75.4238 31.2422z
M681.511 227.021c0 -34.9014 28.2959 -63.1973 63.1973 -63.1973c34.9062 0 63.1982 28.2959 63.1982 63.1973c0 34.9062 -28.292 63.1982 -63.1982 63.1982c-34.9014 0 -63.1973 -28.292 -63.1973 -63.1982zM744.708 268.429c22.8691 0 41.4082 -18.5391 41.4082 -41.4082
c0 -22.8652 -18.5391 -41.4033 -41.4082 -41.4033c-22.8652 0 -41.4033 18.5381 -41.4033 41.4033c0 22.8691 18.5381 41.4082 41.4033 41.4082zM574.955 227.021c1.84277 2.50879 4.2959 5.71777 7.34668 9.42578c7.73535 9.40723 19.2295 21.9727 34.2061 34.5254
c30.0117 25.1562 73.3779 49.7578 128.213 49.7578c54.8311 0 98.1973 -24.6016 128.209 -49.7578c14.9766 -12.5527 26.4707 -25.1182 34.2061 -34.5254c3.05078 -3.70801 5.50391 -6.91699 7.34766 -9.42578c-1.84375 -2.50391 -4.29688 -5.71289 -7.34766 -9.4248
c-7.73535 -9.4082 -19.2295 -21.9736 -34.2061 -34.5254c-30.0117 -25.1523 -73.3779 -49.7539 -128.209 -49.7539c-54.835 0 -98.2012 24.6016 -128.213 49.7539c-14.9766 12.5518 -26.4707 25.1172 -34.2061 34.5254c-3.05078 3.71191 -5.50391 6.9209 -7.34668 9.4248z
M746.662 -21.333c-129.6 0 -234.666 105.062 -234.666 234.666c0 129.604 105.066 234.667 234.666 234.667c129.604 0 234.667 -105.062 234.667 -234.667c0 -129.604 -105.062 -234.666 -234.667 -234.666zM561.664 227.021
c-9.19043 -5.84961 -9.18652 -5.85742 -9.18652 -5.85742l0.0263672 -0.0390625l0.0546875 -0.0849609l0.183594 -0.28125l0.661133 -0.999023c0.572266 -0.844727 1.39941 -2.05664 2.48828 -3.5752c2.17578 -3.03418 5.37598 -7.31738 9.57812 -12.4248
c8.38867 -10.2061 20.8125 -23.791 37.0391 -37.3887c32.3926 -27.1484 80.5508 -54.8477 142.212 -54.8477c61.6582 0 109.815 27.6992 142.208 54.8477c16.2266 13.5977 28.6553 27.1826 37.0439 37.3887c4.19824 5.10742 7.39844 9.39062 9.57422 12.4248
c1.08789 1.51855 1.91504 2.73047 2.4873 3.5752l0.661133 0.999023l0.183594 0.28125l0.0556641 0.0849609l0.0253906 0.0390625c0.00390625 0.00390625 0.00390625 0.0078125 -9.18652 5.85742l9.19043 -5.84961c2.27441 3.57129 2.27441 8.13281 0 11.6992
l-9.19043 -5.84961c9.19043 5.84961 9.18652 5.8584 9.18652 5.8584l-0.0253906 0.0429688l-0.0556641 0.0849609l-0.183594 0.28125l-0.661133 0.994141c-0.572266 0.849609 -1.39941 2.05664 -2.4873 3.57617c-2.17578 3.03809 -5.37598 7.31738 -9.57422 12.4287
c-8.38867 10.2012 -20.8174 23.791 -37.0439 37.3887c-32.3926 27.1445 -80.5498 54.8438 -142.208 54.8438c-61.6611 0 -109.819 -27.6992 -142.212 -54.8438c-16.2266 -13.5977 -28.6504 -27.1875 -37.0391 -37.3887
c-4.20215 -5.11133 -7.40234 -9.39062 -9.57812 -12.4287c-1.08887 -1.51953 -1.91602 -2.72656 -2.48828 -3.57617l-0.661133 -0.994141l-0.183594 -0.28125l-0.0546875 -0.0849609l-0.0263672 -0.0429688
c-0.00390625 -0.00390625 -0.00390625 -0.00878906 9.18652 -5.8584zM561.664 227.021l-9.19043 5.84961c-2.27441 -3.56641 -2.27441 -8.12793 0 -11.6992z" />
    <glyph glyph-name="doc-request" unicode="&#xe943;" 
d="M726.225 101.76c-3.70312 -4.2832 -5.55469 -9.64258 -5.55469 -16.0684c0 -6.16113 1.85156 -11.3145 5.55469 -15.4668c3.84082 -4.15137 9.52832 -6.22461 17.0674 -6.22461c7.54297 0 13.2305 2.07324 17.0664 6.22461
c3.97266 4.15234 5.95605 9.30566 5.95605 15.4668c0 6.42578 -1.9834 11.7852 -5.95605 16.0684c-3.83594 4.28418 -9.52344 6.42578 -17.0664 6.42578c-7.53906 0 -13.2266 -2.1416 -17.0674 -6.42578zM725.56 167.027
c-0.74707 -10.1416 7.59473 -18.4707 17.7617 -18.4707h4.36133c7.6582 0 13.7598 6.2207 14.2627 13.8623c0.264648 4.14746 0.925781 8.03418 1.98828 11.6484c1.05859 3.61328 2.64551 7.16309 4.76172 10.6455c2.24902 3.48145 5.35938 7.16309 9.32715 11.0459
c6.2168 5.62402 12.501 11.7168 18.8496 18.2783c6.48535 6.5625 12.3057 13.5898 17.4639 21.0908c5.16309 7.62793 9.39551 15.6621 12.7021 24.1016c3.30664 8.56738 4.96191 17.6729 4.96191 27.3154c0 12.0488 -1.91992 22.7627 -5.75586 32.1367
c-3.83594 9.36914 -9.39062 17.3398 -16.6699 23.9014c-7.27441 6.55859 -16.2051 11.5117 -26.79 14.8613c-10.4492 3.48145 -22.3574 5.22266 -35.7207 5.22266c-12.041 0 -23.2832 -1.67285 -33.7363 -5.02246c-10.3213 -3.21289 -19.3154 -7.96582 -26.9912 -14.2588
c-7.53906 -6.16113 -13.5596 -13.7256 -18.0566 -22.6992c-1.91602 -3.81445 -3.43066 -7.83789 -4.55664 -12.0654c-2.60645 -9.82227 5.91406 -18.2617 16.0771 -18.2617c10.0771 0 17.4287 8.76367 22.2627 17.6045l0.149414 0.272461
c2.78223 5.08594 6.41699 9.23828 10.9189 12.4502c4.62891 3.34961 9.85547 5.76074 15.6758 7.23242c5.95215 1.6084 12.04 2.41113 18.2568 2.41113c15.4795 0 27.3877 -3.88281 35.7207 -11.6484c8.33691 -7.63281 12.501 -18.748 12.501 -33.3438
c0 -6.69434 -1.25391 -13.0566 -3.76758 -19.0811c-2.5166 -6.02441 -5.75586 -11.7842 -9.72363 -17.2715c-3.83984 -5.3584 -8.13672 -10.5127 -12.9023 -15.4668c-4.62891 -4.95312 -9.19434 -9.77441 -13.6914 -14.459
c-6.61328 -6.16113 -11.9082 -11.5156 -15.876 -16.0684c-3.96875 -4.4209 -7.01074 -9.10547 -9.12695 -14.0635c-2.12012 -4.81641 -3.50684 -10.376 -4.16895 -16.6699c-0.174805 -1.62109 -0.332031 -3.36621 -0.46875 -5.23047zM512 213.333
c0 129.604 105.062 234.667 234.667 234.667c129.604 0 234.666 -105.062 234.666 -234.667c0 -129.604 -105.062 -234.666 -234.666 -234.666c-129.604 0 -234.667 105.062 -234.667 234.666zM785.732 646.828c-3.51562 10.0322 -9.51465 19.1396 -17.5869 26.4023
l-123.879 111.493v-137.896h141.466zM234.667 192c0 -58.9102 47.7559 -106.667 106.666 -106.667h117.334c17.6719 0 32 -14.3271 32 -32c0 -17.6719 -14.3281 -32 -32 -32h-117.334c-94.2559 0 -170.666 76.4121 -170.666 170.667v512
c0 94.2568 76.4102 170.667 170.666 170.667h249.549c31.6201 0 62.123 -11.7051 85.6279 -32.8584l134.451 -121.007c26.9697 -24.2744 42.3721 -58.8555 42.3721 -95.1416v-99.4951c0 -17.6768 -14.3271 -32 -32 -32c-17.6719 0 -32 14.3232 -32 32v56.6631h-177.066
c-17.6729 0 -32 14.3271 -32 32v195.839h-238.934c-58.9102 0 -106.666 -47.7568 -106.666 -106.667v-512z" />
    <glyph glyph-name="doc-shared" unicode="&#xe944;" 
d="M627.199 799.99v-170.24h143.79c-2.98926 5.12012 -5.97852 10.2402 -9.38965 14.5059l-118.61 140.374c-5.12305 6.39941 -10.2432 11.5195 -15.79 15.3604zM811.949 683.51c24.3193 -31.1465 36.6904 -71.2539 36.6904 -112.64v-385.705
c0 -82.3486 -52.9082 -163.418 -134.399 -163.418h-255.574c-17.6738 0 -32 14.3301 -32 32c0 17.6768 14.3262 32 32 32h255.574c32 0 70.3994 36.6973 70.3994 99.418v380.585h-189.44c-17.4932 0 -32 14.5059 -32 32v212.906h-258.133
c-29.0137 0 -64.4268 -30.7207 -69.5469 -85.333c-0.853516 -4.69336 -0.853516 -9.3877 -0.853516 -14.0801v-273.92c0 -17.6729 -14.3271 -32 -32 -32c-17.6738 0 -32 14.3271 -32 32v273.92c0 82.7725 53.333 163.413 134.4 163.413h290.56
c38.4004 0 73.3848 -19.2002 97.7051 -50.7734zM137.851 17.626c-5.14648 -8.43555 -18.4844 -5.16504 -18.2734 4.70996c5.58594 260.051 202.421 360.87 202.421 360.87l-17.3623 64.7959c-2.65234 9.90137 7.97656 18.0771 16.8652 12.9707l194.114 -111.495
c7.66309 -4.40137 10.3066 -14.1807 5.90527 -21.8438l-112.007 -194.987c-5.11816 -8.90918 -18.457 -7.16797 -21.1172 2.75879l-17.3164 64.627s-142.562 -33.792 -233.229 -182.406z" />
    <glyph glyph-name="doc" unicode="&#xe945;" 
d="M341.333 266.667c0 17.4932 14.5068 32 32 32h277.334c17.4932 0 32 -14.5068 32 -32c0 -17.4941 -14.5068 -32 -32 -32h-277.334c-17.4932 0 -32 14.5059 -32 32zM565.333 426.667c17.4941 0 32 -14.5068 32 -32c0 -17.4941 -14.5059 -32 -32 -32h-192
c-17.4932 0 -32 14.5059 -32 32c0 17.4932 14.5068 32 32 32h192zM714.24 85.7598c32 0 70.3994 36.6934 70.3994 99.4131v380.587h-189.439c-17.4932 0 -32 14.5068 -32 32v212.907h-258.134c-29.0127 0 -64.4268 -30.7207 -69.5469 -85.334
c-0.852539 -4.69336 -0.852539 -9.38672 -0.852539 -14.0801v-526.08c0 -62.293 38.8262 -99.4131 70.3994 -99.4131h409.174zM642.986 784.64c-5.12012 6.40039 -10.2393 11.5205 -15.7861 15.3604v-170.24h143.786c-2.98633 5.12012 -5.97266 10.2402 -9.38672 14.5068z
M693.333 823.894l118.613 -140.374c24.3203 -31.1465 36.6934 -71.2529 36.6934 -112.64v-385.707c0 -82.3457 -52.9062 -163.413 -134.399 -163.413h-409.174c-81.0664 0 -134.399 81.4932 -134.399 163.413v526.08c0 82.7734 53.333 163.414 134.399 163.414h290.561
c38.3994 0 73.3867 -19.2002 97.7061 -50.7734z" />
    <glyph glyph-name="drag-handle-options" unicode="&#xe946;" 
d="M245.333 245.333h533.334c17.6719 0 32 -14.3271 32 -32c0 -17.6719 -14.3281 -32 -32 -32h-533.334c-17.6729 0 -32 14.3281 -32 32c0 17.6729 14.3271 32 32 32zM213.333 448c0 17.6729 14.3271 32 32 32h533.334c17.6719 0 32 -14.3271 32 -32s-14.3281 -32 -32 -32
h-533.334c-17.6729 0 -32 14.3271 -32 32zM213.333 682.667c0 17.6729 14.3271 32 32 32h533.334c17.6719 0 32 -14.3271 32 -32s-14.3281 -32 -32 -32h-533.334c-17.6729 0 -32 14.3271 -32 32z" />
    <glyph glyph-name="drag" unicode="&#xe947;" 
d="M777.871 119.239c0 -44.6455 -36.1934 -80.8389 -80.8398 -80.8389c-44.6514 0 -80.8447 36.1934 -80.8447 80.8389c0 44.6523 36.1934 80.8457 80.8447 80.8457c44.6465 0 80.8398 -36.1934 80.8398 -80.8457zM285.642 38.4004
c-44.6475 0 -80.8418 36.1934 -80.8418 80.8389c0 44.6523 36.1943 80.8457 80.8418 80.8457c44.6484 0 80.8428 -36.1934 80.8428 -80.8457c0 -44.6455 -36.1943 -80.8389 -80.8428 -80.8389zM777.871 448c0 -44.6465 -36.1934 -80.8398 -80.8398 -80.8398
c-44.6514 0 -80.8447 36.1934 -80.8447 80.8398c0 44.6475 36.1934 80.8418 80.8447 80.8418c44.6465 0 80.8398 -36.1943 80.8398 -80.8418zM285.642 367.16c-44.6475 0 -80.8418 36.1934 -80.8418 80.8398c0 44.6475 36.1943 80.8418 80.8418 80.8418
c44.6484 0 80.8428 -36.1943 80.8428 -80.8418c0 -44.6465 -36.1943 -80.8398 -80.8428 -80.8398zM777.871 776.758c0 -44.6475 -36.1934 -80.8418 -80.8398 -80.8418c-44.6514 0 -80.8447 36.1943 -80.8447 80.8418s36.1934 80.8418 80.8447 80.8418
c44.6465 0 80.8398 -36.1943 80.8398 -80.8418zM366.484 776.758c0 -44.6475 -36.1943 -80.8418 -80.8428 -80.8418c-44.6475 0 -80.8418 36.1943 -80.8418 80.8418s36.1943 80.8418 80.8418 80.8418c44.6484 0 80.8428 -36.1943 80.8428 -80.8418z" />
    <glyph glyph-name="duplicate" unicode="&#xe948;" 
d="M580.429 517.974c17.6729 0 32 -14.3281 32 -32v-74.4062h74.9316c17.6719 0 32 -14.3281 32 -32c0 -17.6777 -14.3281 -32 -32 -32h-74.9316v-74.9277c0 -17.6719 -14.3271 -32 -32 -32s-32 14.3281 -32 32v74.9277h-74.4023c-17.6719 0 -32 14.3223 -32 32
c0 17.6719 14.3281 32 32 32h74.4023v74.4062c0 17.6719 14.3271 32 32 32zM221.44 598.187c0 77.4062 62.9668 140.373 140.373 140.373h436.479c77.4062 0 140.374 -62.9668 140.374 -140.373v-436.479c0 -77.4062 -62.9678 -140.374 -140.374 -140.374h-436.479
c-77.4062 0 -140.373 62.9678 -140.373 140.374v436.479zM361.813 674.56c-42.0605 0 -76.373 -34.3125 -76.373 -76.373v-436.479c0 -42.0615 34.3125 -76.374 76.373 -76.374h436.479c42.0615 0 76.374 34.3125 76.374 76.374v436.479
c0 42.0605 -34.3125 76.373 -76.374 76.373h-436.479zM225.707 810.667c-42.0605 0 -76.374 -34.3135 -76.374 -76.374v-436.479c0 -21.2314 8.46875 -40.4395 22.2002 -54.1738c12.4971 -12.4971 12.4971 -32.7559 0 -45.2529
c-12.4961 -12.4971 -32.7578 -12.4971 -45.2539 0c-25.5215 25.5195 -40.9463 60.9238 -40.9463 99.4268v436.479c0 77.4062 62.9678 140.374 140.374 140.374h436.479c43.6357 0 82.8506 -19.9229 108.74 -51.3223c11.2471 -13.6357 9.30566 -33.8037 -4.33008 -45.0469
c-13.6367 -11.2432 -33.8008 -9.30371 -45.0479 4.33105c-14.2168 17.2412 -35.584 28.0381 -59.3623 28.0381h-436.479z" />
    <glyph glyph-name="edit-outline" unicode="&#xe949;" 
d="M787.486 610.873l73.9238 73.9268l-112.61 112.612l-73.9287 -73.9268c0.930664 -0.743164 1.83105 -1.54395 2.68848 -2.4043l107.52 -107.52c0.862305 -0.861328 1.66406 -1.75879 2.40723 -2.68848zM149.42 85.4189l112.917 0.306641l480.179 480.176
c-0.930664 0.743164 -1.83105 1.54395 -2.68848 2.40527l-107.52 107.519c-0.862305 0.861328 -1.66406 1.75879 -2.40723 2.68848l-480.176 -480.178zM771.426 865.294l157.867 -157.866c12.4971 -12.4971 12.4971 -32.7578 0 -45.2549l-631.038 -631.039
c-5.98047 -5.98145 -14.085 -9.35254 -22.542 -9.37402l-158.293 -0.426758c-8.51758 -0.0214844 -16.6914 3.34961 -22.7139 9.37402c-6.02246 6.02051 -9.39551 14.1953 -9.37305 22.7119l0.426758 158.293c0.0224609 8.45703 3.39258 16.5635 9.37207 22.541
l631.042 631.041c12.4971 12.4971 32.7549 12.4971 45.252 0z" />
    <glyph glyph-name="email" unicode="&#xe94a;" 
d="M219.733 778.667h584.533c73.9072 0 134.4 -59.8936 134.4 -134.4v-392.533c0 -74.4189 -59.9814 -134.4 -134.4 -134.4h-584.533c-73.9062 0 -134.4 59.8955 -134.4 134.4v392.533c0 73.9062 59.8945 134.4 134.4 134.4zM874.667 251.733v392.533
c0 10.6523 -2.36426 20.7393 -6.59277 29.7744l-221.781 -220.17l226.231 -219.541c1.39941 5.55859 2.14258 11.3877 2.14258 17.4033zM425.884 405.623l-231.858 -219.438c7.97266 -3.13184 16.6465 -4.85156 25.708 -4.85156h584.533
c9.17773 0 17.9248 1.72852 25.9414 4.87695l-229.342 222.566l-8.63965 -8.57617l-0.046875 -0.0507812c-45.4316 -45.3799 -115.043 -45.1543 -160.688 -0.09375l-0.0634766 0.0595703zM155.796 673.745c-4.14941 -8.97852 -6.46289 -18.9688 -6.46289 -29.4785v-392.533
c0 -6.08887 0.773438 -11.9941 2.22363 -17.6211l228.885 216.623zM206.64 713.451l269.814 -267.849c20.9238 -20.6338 50.249 -20.416 70.5195 -0.149414l0.0810547 0.0849609l269.943 267.977c-4.12988 0.756836 -8.3877 1.15234 -12.7314 1.15234h-584.533
c-4.47656 0 -8.85254 -0.417969 -13.0938 -1.21582z" />
    <glyph glyph-name="emoji" unicode="&#xe94b;" 
d="M611.84 533.333c0 29.4404 23.8936 53.7607 53.7598 53.7607c29.4404 0 53.7607 -24.3203 53.7607 -53.7607c0 -29.4395 -23.8936 -53.7598 -53.7607 -53.7598c-29.4395 0 -53.7598 24.3203 -53.7598 53.7598zM358.399 587.094
c29.8672 0 53.7607 -24.3203 53.7607 -53.7607c0 -29.4395 -23.8936 -53.7598 -53.7607 -53.7598c-29.4395 0 -53.7598 24.3203 -53.7598 53.7598c0 29.4404 23.8936 53.7607 53.7598 53.7607zM718.229 297.02c-8.57617 -11.0928 -80.9346 -100.816 -206.354 -100.326
h-0.136719c-120.541 0.976562 -190.58 84.9062 -200.188 97.0449c-10.9697 13.8545 -8.62988 33.9805 5.22656 44.9502c13.8564 10.9688 33.9824 8.63086 44.9521 -5.22754c6.60352 -8.34082 60.2725 -72.0078 150.463 -72.7676
c93.8447 -0.333008 149.461 67.7842 155.392 75.46c10.8076 13.9863 30.9033 16.5596 44.8896 5.75586c13.9863 -10.8076 16.5586 -30.9033 5.75586 -44.8896zM512 874.667c235.64 0 426.667 -191.025 426.667 -426.667c0 -235.64 -191.027 -426.667 -426.667 -426.667
c-235.642 0 -426.667 191.027 -426.667 426.667c0 235.642 191.025 426.667 426.667 426.667zM149.333 448c0 -200.294 162.372 -362.667 362.667 -362.667c200.294 0 362.667 162.373 362.667 362.667c0 200.295 -162.373 362.667 -362.667 362.667
c-200.295 0 -362.667 -162.372 -362.667 -362.667z" />
    </font>
</defs>
</svg>
